<svg width="1440" height="244" viewBox="0 0 1440 244" fill="none" xmlns="http://www.w3.org/2000/svg">
<path d="M1440 16.665C1431.63 19.0189 1417.89 21.4698 1398.79 24.0178C1356.6 29.631 1314.85 35.2507 1273.55 40.8769C1266.83 41.7952 1260.05 42.3708 1253.21 42.6036C1245.83 42.8493 1238.95 43.7869 1232.59 45.4166C1220.23 48.5983 1211.65 52.7219 1198.11 51.0234C1185.94 49.4959 1181.17 54.386 1168.95 53.3304C1168.95 53.3304 1116.48 47.0712 1102.65 49.2441C1097.43 50.0589 1092.34 49.3217 1087.3 50.5633C1083.68 51.4687 1080.04 52.0766 1076.37 52.387C1061.74 53.5898 1046.96 54.7473 1032.02 55.8596C1014.29 57.1789 990.5 58.6772 984.5 55.8596C977.031 55.0836 971.573 47.4749 966.736 43.482C944.449 25.0837 923.76 28.1437 895 25.3037C871.871 23.0197 858.492 23.2054 835.5 26.6036C775.591 35.4581 674.069 32.2881 666 28.7959C654.028 28.4661 649.743 28.2333 637.337 28.7959C632.374 29.0287 627.164 29.6041 621.707 30.5224C616.847 31.3373 611.296 30.212 606.18 30.3866C575.773 31.4601 556.554 31.7965 548.521 31.3955C516.802 29.8435 485.466 28.2462 454.513 26.6036L362 22.2772C362 22.2772 308.182 12.9827 273.5 14.226C257.23 14.8093 232 18.1837 232 18.1837C232 18.1837 200.5 23.9138 177.912 26.6036C155.324 29.2934 80.7989 40.6956 17.7272 59.1577C10.5646 62.6886 1.86737 60.1278 0 68.6641L3.60681 243.051L1440 231.051V16.665Z" fill="url(#paint0_linear_113_47824)"/>
<defs>
<linearGradient id="paint0_linear_113_47824" x1="720" y1="391.5" x2="720" y2="46.5" gradientUnits="userSpaceOnUse">
<stop stop-color="#F9F7EA" stop-opacity="0.98"/>
<stop offset="1" stop-color="#073F5D"/>
</linearGradient>
</defs>
</svg>
