<svg width="197" height="90" viewBox="0 0 197 90" fill="none" xmlns="http://www.w3.org/2000/svg">
<path d="M9.16786 87.1151L30.2397 77.3631L70.9737 59.5402L73.7661 58.5521L195.523 2.78488C195.643 2.72948 195.751 2.64309 195.839 2.53227C195.927 2.42145 195.992 2.2891 196.03 2.1453C196.068 2.00149 196.077 1.85 196.057 1.70233C196.037 1.55465 195.988 1.4147 195.915 1.29306L195.704 0.913669C195.57 0.694645 195.399 0.629716 195.193 0.718852L48.691 64.6786L45.9629 66.2216L6.1068 83.6024C3.61658 84.2739 -0.11112 85.4639 0.080177 89.2756C2.62289 90.1426 5.65212 89.4225 9.16786 87.1151Z" fill="#DDF1ED"/>
</svg>
