<svg width="27" height="68" viewBox="0 0 27 68" fill="none" xmlns="http://www.w3.org/2000/svg">
<path d="M16.0968 21.5501C18.0434 24.7494 21.4768 27.0548 26.3968 28.4662C26.5622 28.5164 26.7046 28.64 26.7941 28.8111C26.8837 28.9822 26.9133 29.1874 26.8768 29.3837L26.7368 30.1129C26.5768 30.8971 26.1635 31.2421 25.4968 31.148C20.4301 30.505 16.9768 32.5124 15.1368 37.1702C14.2301 39.4598 13.8834 43.4197 14.0967 49.0498C14.3234 54.9465 14.3634 60.8982 14.2168 66.9047C14.2168 67.2967 14.0501 67.4771 13.7168 67.4457L13.1368 67.3751C12.8034 67.3438 12.6234 67.1321 12.5967 66.74C12.3034 60.8433 12.0101 55.0015 11.7167 49.2145C11.2167 39.7108 9.61673 31.5714 1.71668 28.1839C-0.64334 27.1646 -0.57002 26.498 1.93666 26.1844C7.39003 25.4943 10.4834 21.8246 11.2167 15.1751C11.7101 10.7682 12.2501 6.24376 12.8367 1.60166C12.8696 1.37308 12.9697 1.16535 13.1196 1.01483C13.2695 0.864316 13.4597 0.780599 13.6567 0.77832H14.3168C14.5434 0.77832 14.6501 0.911619 14.6368 1.17823C13.9434 12.0464 14.4301 18.837 16.0968 21.5501Z" fill="#FDD8D9"/>
</svg>
