<svg width="258" height="213" viewBox="0 0 258 213" fill="none" xmlns="http://www.w3.org/2000/svg">
<path d="M246.093 8.27149C219.303 29.3046 193.363 47.9747 174.016 60.2637C162.321 67.8262 147.864 78.9335 141.91 85.0781C125.326 102.566 70.1752 149.429 34.4554 156.992C17.8712 160.537 0.861672 170.699 0.0111987 177.316C-0.626656 182.988 26.1631 190.717 34.4552 192.844C39.9834 194.498 49.7736 190.785 54.0171 192.844C49.3396 198.043 53.8045 202.533 64.2228 204.188C69.7509 204.897 76.1294 206.551 78.043 207.733C79.9566 208.913 92.8155 199.186 97.9184 199.895C103.021 200.839 110.23 196.624 115.546 199.225C120.861 201.825 135.744 206.314 148.501 209.15C171.039 214.113 172.102 214.113 177.417 210.095C181.457 206.788 188.686 205.605 209.309 204.661C221.244 204.218 237.23 201.593 247.573 199.895C253.814 198.87 258 198.182 258 198.516V112.965C258 50.8106 257.574 0 257.148 0C256.724 0 251.621 3.78126 246.093 8.27149Z" fill="#CFDBCB"/>
</svg>
