<svg width="297" height="108" viewBox="0 0 297 108" fill="none" xmlns="http://www.w3.org/2000/svg">
<path fill-rule="evenodd" clip-rule="evenodd" d="M0.111201 35.97L0.386834 71.9408L4.62736 72.5037C6.95964 72.8128 14.5926 74.7031 21.5894 76.7041C28.5863 78.7042 40.5128 81.8952 48.0927 83.7937L61.8744 87.2465L94.7384 87.8907C125.829 88.4992 128.352 88.6651 141.494 90.9695C149.135 92.3083 159.63 94.7518 164.816 96.3989C172.944 98.9806 177.685 99.781 199.16 102.196C240.675 106.864 247.568 107.405 271.25 107.856C301.271 108.426 303.123 107.537 285.541 100.991C276.382 97.5816 271.316 94.7103 257.563 85.1358C248.273 78.6693 238.571 74.3046 221.371 68.854C216.385 67.2744 209.229 64.5511 205.469 62.8032C201.708 61.0544 196.723 59.164 194.391 58.6003C188.001 57.0581 101.103 23.7097 94.3006 20.1885C91.0428 18.5031 85.9923 15.8263 83.077 14.2409C76.3854 10.6018 74.3044 10.1601 52.3332 7.72076C28.9128 5.12033 6.00128 1.78622 4.7005 0.788181C4.13545 0.354641 2.80923 0 1.7544 0C-0.073262 0 -0.151712 1.72034 0.111201 35.97Z" fill="#CFDBCB" fill-opacity="0.61"/>
</svg>
