<svg width="477" height="241" viewBox="0 0 477 241" fill="none" xmlns="http://www.w3.org/2000/svg">
<path fill-rule="evenodd" clip-rule="evenodd" d="M474.249 171.268C477.099 171.268 476.514 144.87 476.514 85.4842V0L458.345 11.9838C421.296 36.8834 415.239 39.5464 390.302 43.1416C339.358 50.3318 329.383 52.8617 315.133 61.9161C313.943 62.6665 296.957 71.3987 295.717 72.1356C278.039 82.643 270.814 83.9164 233.196 95.737C195.078 107.721 161.234 121.835 131.665 137.946C125.609 141.275 116.703 145.004 111.716 146.335C100.672 148.865 94.2593 153.525 88.5594 162.447C77.8719 179.224 60.1062 186.181 45.5 187.246C13 199.363 -3.13123 207.097 1.5 213.888C5.41873 219.88 29.2438 223.697 41 227.026C47.4125 228.757 64.3345 223.83 81.0781 227.026C98.8905 230.355 115.634 234.616 121.69 237.279C129.528 240.874 175.483 242.405 203.538 239.409C213.869 237.412 254.927 234.749 280.577 235.548C297.321 236.08 315.49 236.48 321.546 236.48C343.99 236.346 419.158 229.156 446.945 224.496C475.445 219.836 476.514 219.569 476.514 215.308L476.441 213.888C476.119 211.356 476.09 212.286 476.09 211.973C476.09 211.659 476.216 210.32 476.216 209.521C476.216 208.722 476.09 209.145 476.201 209.217C476.311 209.288 476.09 208.138 476.09 207.072C476.09 206.007 475.583 205.721 475.583 205.721C475.97 204.723 475.207 204.654 475.882 203.027L475.473 195.059C475.405 193.738 475.519 194.736 475.519 193.738C475.339 192.454 475.319 193.66 475.319 192.162C476.063 189.743 474.358 193.638 475.071 187.246L474.648 179.018C474.504 178.394 474.361 177.685 474.248 176.761C475.071 173.765 468.678 175.096 474.378 173.765L474.249 171.268Z" fill="#43644A" fill-opacity="0.72"/>
</svg>
