<svg width="383" height="169" viewBox="0 0 383 169" fill="none" xmlns="http://www.w3.org/2000/svg">
<path fill-rule="evenodd" clip-rule="evenodd" d="M382.859 53.9044L382.859 135.77L377.045 146.428C374.09 146.986 368.691 154.047 356.785 155.77C347.874 155.77 341.573 146.287 331.97 149.713C322.367 153.138 307.825 149.713 296.423 147.59C285.022 145.468 284.564 146.428 258.865 146.428C233.166 146.428 241.981 147.59 222.506 146.428C212.827 148.844 193.346 152.798 186.775 155.77C176.478 160.428 156.902 161.686 129.696 166.044C77.1026 174.467 56.4244 162.129 26.4222 162.943C-19 159 9.5 155.77 9.5 155.77C9.5 155.77 31.1591 153.046 48.5824 135.77C60.3515 124.101 80.7632 123.076 102.553 113.24C108.869 110.39 117.935 105.476 122.698 102.322C127.463 99.1667 133.778 95.7558 136.733 94.7387C144.828 91.9559 254.916 43.8597 263.534 37.506C267.661 34.465 274.059 29.6348 277.753 26.7742C286.23 20.2077 288.866 19.4108 316.701 15.0092C346.371 10.3169 375.397 4.30085 377.045 2.49999C377.761 1.7177 379.441 1.07779 380.777 1.07779C383.093 1.07779 383.192 -7.89585 382.859 53.9044Z" fill="#F3CDA6"/>
</svg>
