<svg width="478" height="232" viewBox="0 0 478 232" fill="none" xmlns="http://www.w3.org/2000/svg">
<path fill-rule="evenodd" clip-rule="evenodd" d="M32.5449 0.514C32.2361 0.796 24.913 1.151 16.2697 1.301L0.555344 1.575L0.278217 114.342L0 227.109L5.18793 229.253C13.8018 232.815 27.5064 232.744 59.472 228.97L86.7482 225.749L164.758 227.03C207.664 227.734 255.779 228.061 271.681 227.756C297.426 227.262 301.424 226.96 308.175 224.999L315.757 222.797L321.268 224.816C325.717 226.446 330.141 226.928 344.236 227.32C353.837 227.586 362.92 227.481 364.42 227.087C367.041 226.398 367.136 226.092 366.831 219.284L366.515 212.199L371.741 211.627C374.616 211.313 382.725 210.765 389.761 210.41C404.291 209.675 405.921 208.921 403.684 203.969C402.93 202.301 402.644 200.633 403.049 200.262C403.453 199.891 410.516 200.406 418.742 201.406C435.315 203.421 467.243 205.299 471.07 204.484C474.286 203.8 474.177 201.911 470.752 198.962L467.981 196.575L473.753 193.872C480.578 190.676 480.008 190.367 465.887 189.618C460.187 189.316 449.631 187.953 442.43 186.59C435.229 185.227 425.02 183.798 419.744 183.415C411.477 182.814 409.289 182.241 403.924 179.268C399.989 177.088 393.278 174.779 385.695 172.995C379.095 171.443 369.521 168.527 364.42 166.515C356.857 163.533 342.315 159.335 328.961 156.278C323.732 155.081 304.564 146.356 300.445 143.297C297.963 141.454 292.954 139.024 289.313 137.897C280.756 135.248 258.239 123.412 247.968 116.164C231.849 104.789 213.066 92.947 203.046 87.843C197.401 84.968 189.791 80.209 186.135 77.269C182.479 74.329 171.465 66.878 161.658 60.711C151.852 54.545 138.841 45.961 132.746 41.635C120.44 32.902 85.5873 11.641 80.5456 9.79C79.4818 9.4 74.3048 8.573 69.0415 7.954C62.1625 7.144 57.3215 5.867 51.8248 3.413C46.1895 0.898 42.7211 0 38.6417 0C35.5965 0 32.8526 0.231 32.5449 0.514Z" fill="#C98594" fill-opacity="0.8"/>
</svg>
