<svg width="142" height="121" viewBox="0 0 142 121" fill="none" xmlns="http://www.w3.org/2000/svg">
<path d="M133.611 4.66667C116.811 16.5333 100.544 27.0667 88.4111 34C81.0777 38.2667 72.0111 44.5333 68.2777 48C57.8777 57.8667 44.0111 63.7333 21.6111 68C11.2111 70 0.544411 75.7333 0.0110773 79.4667C-0.388923 82.6667 10.1444 92.9333 15.3444 94.1333C18.8111 95.0667 19.2111 96 16.9444 98.2667C14.0111 101.2 16.8111 103.733 23.3444 104.667C26.8111 105.067 30.8111 106 32.0111 106.667C33.2111 107.333 36.8111 108.4 40.0111 108.8C43.2111 109.333 48.4111 110.933 51.7444 112.4C55.0777 113.867 64.4111 116.4 72.4111 118C86.5444 120.8 87.2111 120.8 90.5444 118.533C93.0777 116.667 97.6111 116 110.544 115.467C118.028 115.217 128.053 113.736 134.539 112.778C138.453 112.2 141.078 111.812 141.078 112V63.7333C141.078 28.6667 140.811 0 140.544 0C140.278 0 137.078 2.13334 133.611 4.66667Z" fill="#EECC98"/>
</svg>
