<svg width="1200" height="208" viewBox="0 0 1200 208" fill="none" xmlns="http://www.w3.org/2000/svg">
<path fill-rule="evenodd" clip-rule="evenodd" d="M10 27.5L46 17C92.5 24.5 147.5 -2.99997 214.5 39C281.5 81 312.5 89.5 379.5 77.5C446.5 65.5 469 51 536 51C598.5 62.5 668.5 78 734 60C801 54 825.5 106 892.5 118C959.5 130 1037.5 95 1071.5 137L1167 202.5V168C1133 168 1067 168 1000 168C933 168 867 168 800 168C733 168 667 168 600 168C533 168 467 168 400 168C333 168 267 168 200 168C133 168 67 168 33 168H0L10 27.5Z" fill="#90BC9A"/>
<path fill-rule="evenodd" clip-rule="evenodd" d="M0 0L82.5 20.5C129 28 190 23.5 257 65.5C324 107.5 333 112 400 100C467 88 504.5 54 571.5 54C634 65.5 734.5 100 800 82C867 76 904.5 141 971.5 153C1038.5 165 1133 124 1167 166L1200 208H1167C1133 208 1067 208 1000 208C933 208 867 208 800 208C733 208 667 208 600 208C533 208 467 208 400 208C333 208 267 208 200 208C133 208 67 208 33 208H0V0Z" fill="#CFDBCB"/>
</svg>
