<svg width="47" height="51" viewBox="0 0 47 51" fill="none" xmlns="http://www.w3.org/2000/svg">
<path d="M42.3662 34.8804C42.3662 35.1659 42.2528 35.4397 42.0509 35.6415C41.8491 35.8434 41.5753 35.9568 41.2898 35.9568H5.43382C5.14834 35.9568 4.87456 35.8434 4.67269 35.6415C4.47083 35.4397 4.35742 35.1659 4.35742 34.8804V12.9492C4.35742 12.6637 4.47083 12.3899 4.67269 12.1881C4.87456 11.9862 5.14834 11.8728 5.43382 11.8728H41.2898C41.5753 11.8728 41.8491 11.9862 42.0509 12.1881C42.2528 12.3899 42.3662 12.6637 42.3662 12.9492V34.8804ZM39.0686 15.3288C39.0686 15.2897 39.0531 15.2521 39.0254 15.2244C38.9977 15.1968 38.9602 15.1812 38.921 15.1812H7.80262C7.76348 15.1812 7.72593 15.1968 7.69825 15.2244C7.67057 15.2521 7.65502 15.2897 7.65502 15.3288V32.508C7.65502 32.5471 7.67057 32.5847 7.69825 32.6124C7.72593 32.6401 7.76348 32.6556 7.80262 32.6556H38.921C38.9602 32.6556 38.9977 32.6401 39.0254 32.6124C39.0531 32.5847 39.0686 32.5471 39.0686 32.508V15.3288Z" fill="black"/>
<path d="M46.4023 37.6164V38.0592C45.4255 40.7544 43.5355 42.1056 40.7323 42.1128C29.1211 42.1368 17.5111 42.1356 5.90227 42.1092C3.12787 42.1044 1.26787 40.7424 0.322266 38.0232V37.6128L46.4023 37.6164ZM26.7895 39.24C26.7895 39.1942 26.7713 39.1502 26.7389 39.1178C26.7064 39.0854 26.6625 39.0672 26.6167 39.0672H20.1079C20.0852 39.0672 20.0627 39.0717 20.0417 39.0803C20.0208 39.089 20.0017 39.1018 19.9857 39.1178C19.9696 39.1339 19.9569 39.1529 19.9482 39.1739C19.9395 39.1948 19.9351 39.2173 19.9351 39.24V40.4928C19.9351 40.5155 19.9395 40.538 19.9482 40.5589C19.9569 40.5799 19.9696 40.5989 19.9857 40.615C20.0017 40.631 20.0208 40.6438 20.0417 40.6524C20.0627 40.6611 20.0852 40.6656 20.1079 40.6656H26.6167C26.6625 40.6656 26.7064 40.6474 26.7389 40.615C26.7713 40.5826 26.7895 40.5386 26.7895 40.4928V39.24Z" fill="black"/>
<path fill-rule="evenodd" clip-rule="evenodd" d="M28.2851 11.0178C27.5387 10.752 26.7765 10.7059 25.9987 10.8795C25.8761 10.9065 25.7689 10.9823 25.7007 11.0902C25.6325 11.1981 25.6088 11.3293 25.6349 11.4551L25.6757 11.6545C25.6998 11.768 25.7641 11.8683 25.8563 11.936C25.9484 12.0037 26.0617 12.034 26.1743 12.021L27.2439 11.8892C27.3115 11.8802 27.3804 11.8867 27.4455 11.9084C27.5106 11.9301 27.5702 11.9664 27.6202 12.0146C28.053 12.4283 28.0123 12.7563 27.4979 12.9985L27.4152 13.0377C25.1591 14.1075 24.0374 14.6394 23.4331 17.3746C21.8053 24.7475 26.7514 29.6253 33.4696 30.4806C34.1073 30.562 34.7503 30.6424 35.3985 30.7217C35.4779 30.7325 35.4894 30.7678 35.433 30.8279C34.7827 31.5202 34.1523 31.8461 33.5417 31.8053C29.2261 31.5127 23.0317 29.5192 20.6574 25.3874C20.6293 25.3381 20.5919 25.295 20.5474 25.2607C20.5029 25.2264 20.4521 25.2014 20.3982 25.1874C20.3442 25.1733 20.288 25.1704 20.2329 25.1788C20.1778 25.1872 20.1249 25.2067 20.0772 25.2363L19.9768 25.3006C19.6423 25.5085 19.5754 25.7861 19.7761 26.1334C22.0061 30.024 27.385 32.0047 31.6944 32.8343C31.7789 32.8506 31.815 32.8717 31.8026 32.8976C31.7939 32.9159 31.761 32.9366 31.7038 32.9597C28.7911 34.1601 25.7206 34.4891 22.4922 33.9468C20.8001 33.6633 19.4014 33.0414 18.1981 32.1202C16.9859 31.1922 15.9719 29.9604 15.0558 28.4645C13.9361 26.635 12.9513 22.7572 15.2221 21.426C15.611 21.1975 16.0426 21.121 16.4674 21.0458C17.1421 20.9263 17.7997 20.8099 18.2424 20.0916C18.8728 19.0724 18.0103 17.7155 16.9502 17.6287C16.1494 17.5643 16.141 17.4422 16.9251 17.2621C17.1452 17.2123 17.3634 17.1695 17.5766 17.1277C19.0162 16.8453 20.2249 16.6082 20.2058 14.5805C20.2058 14.469 20.2507 14.38 20.3406 14.3136C21.0725 13.7948 21.4122 13.0724 21.36 12.1464C21.3533 12.029 21.3884 11.9132 21.4588 11.8203C21.5292 11.7275 21.63 11.664 21.7426 11.6416C21.8284 11.6242 21.9175 11.6074 22.0087 11.5901C22.9149 11.4185 24.0329 11.2068 24.2266 10.0821C24.4776 8.61269 22.9784 8.04999 21.7834 8.0725C19.5158 8.10787 16.9565 9.22682 15.7615 11.304C15.6892 11.428 15.6664 11.576 15.6979 11.7173C15.7295 11.8585 15.8129 11.9823 15.9309 12.0628L16.0501 12.1464C16.0974 12.1791 16.1505 12.2019 16.2065 12.2134C16.2624 12.2249 16.32 12.225 16.3759 12.2137C16.4319 12.2023 16.4851 12.1798 16.5325 12.1472C16.58 12.1147 16.6207 12.0729 16.6523 12.0242C17.6036 10.5644 18.97 9.64054 20.7515 9.25255C21.5544 9.07892 22.1577 9.09714 22.5612 9.30721C23.3997 9.74236 23.36 10.0639 22.442 10.2718L22.4239 10.2759C21.798 10.4152 20.6169 10.678 20.3156 11.4454C20.2248 11.6771 20.2184 11.9396 20.2123 12.1954C20.1988 12.7528 20.1861 13.2785 19.3025 13.3843C19.2224 13.3934 19.1455 13.4215 19.0778 13.4664C19.0101 13.5113 18.9535 13.5719 18.9125 13.6433C18.8715 13.7146 18.8471 13.7949 18.8413 13.8777C18.8355 13.9606 18.8484 14.0437 18.8791 14.1207C18.992 14.3993 19.0589 14.6855 19.0798 14.9792C19.0861 15.0971 19.0526 15.2032 18.9795 15.2975C18.6616 15.6962 18.2633 15.9127 17.7845 15.947C16.4107 16.0478 15.2189 16.4722 14.209 17.2203C14.1191 17.2868 14.0198 17.3243 13.911 17.3328C11.8452 17.4807 9.93619 18.1131 8.18399 19.2299C8.04628 19.318 7.95501 19.3082 7.91019 19.2006C7.89717 19.1693 7.88807 19.1298 7.88289 19.082L7.69784 17.2878C7.67275 17.0585 7.75325 16.8762 7.93934 16.7412C9.67166 15.4925 10.9356 13.8171 12.1466 12.212C13.5424 10.3618 14.8678 8.60492 16.7589 7.70273C17.8336 7.18826 18.5665 6.79277 18.9575 6.51624C20.0309 5.7517 20.2037 4.82284 20.4062 3.73434C20.4285 3.61429 20.4512 3.4923 20.4755 3.36837C20.4901 3.29648 20.5261 3.23102 20.5786 3.18106C20.6311 3.13111 20.6975 3.09915 20.7685 3.08961C20.8395 3.08006 20.9116 3.09342 20.9749 3.12781C21.0382 3.16221 21.0895 3.21594 21.1216 3.28156L21.4353 3.92463C21.4703 3.99654 21.5212 4.05905 21.584 4.1071C21.6468 4.15514 21.7197 4.18736 21.7967 4.20114C21.8737 4.21492 21.9527 4.20988 22.0272 4.18642C22.1017 4.16296 22.1697 4.12174 22.2256 4.06611C23.8942 2.40483 25.8879 1.67815 28.2067 1.88608C28.673 1.9268 29.0253 2.10794 29.2637 2.42948C29.2953 2.47194 29.3147 2.52263 29.3197 2.57581C29.3246 2.62898 29.315 2.68252 29.2918 2.73037C29.2687 2.77822 29.2329 2.81846 29.1886 2.84654C29.1442 2.87463 29.0931 2.88943 29.041 2.88928C27.363 2.89249 26.1524 3.80245 26.8957 5.71883C26.9114 5.76092 26.9176 5.80621 26.9138 5.85131C26.91 5.8964 26.8963 5.94015 26.8738 5.97927C26.7358 6.21293 26.5267 6.26437 26.2465 6.13361C24.6887 5.41765 23.2115 5.38871 21.8148 6.0468C21.4907 6.20114 21.3809 6.45408 21.4854 6.80563L21.5105 6.89566C21.5261 6.94818 21.5519 6.99693 21.5863 7.03901C21.6207 7.08108 21.6631 7.1156 21.7108 7.14051C21.7585 7.16543 21.8107 7.18022 21.8641 7.184C21.9175 7.18779 21.9711 7.18049 22.0218 7.16254C23.2795 6.71882 24.0447 6.46158 25.4687 7.03071C26.5664 7.468 27.5481 7.56447 27.9872 6.27831C28.0045 6.22663 28.0336 6.18008 28.0718 6.14258C28.11 6.10508 28.1563 6.07774 28.2067 6.06288C28.8173 5.88067 29.4163 5.90211 30.0039 6.12718C30.0784 6.15535 30.1446 6.20247 30.1964 6.26415C30.2482 6.32584 30.2839 6.40009 30.3002 6.48C30.3165 6.5599 30.3128 6.64286 30.2895 6.72116C30.2662 6.79946 30.2241 6.87055 30.167 6.92781C29.4093 7.68077 29.5521 8.21638 29.7036 8.78445C29.7979 9.13822 29.8955 9.50458 29.7812 9.94386C29.6286 10.5205 29.2261 10.8838 28.5737 11.0339C28.4754 11.0575 28.3792 11.0521 28.2851 11.0178ZM38.8172 27.0626C34.6426 26.5321 29.3139 24.4967 26.8863 20.6415C26.8219 20.5407 26.7224 20.469 26.6082 20.4409C26.4939 20.4128 26.3735 20.4305 26.2716 20.4904L26.1963 20.5354C26.1303 20.5741 26.0725 20.6262 26.0266 20.6884C25.9807 20.7506 25.9475 20.8216 25.929 20.8973C25.9106 20.973 25.9072 21.0517 25.9192 21.1288C25.9312 21.2058 25.9582 21.2796 25.9987 21.3457C28.4733 25.3424 33.6641 27.471 38.1334 28.1687C38.1644 28.1739 38.1933 28.1878 38.2171 28.2088C38.2408 28.2298 38.2584 28.2572 38.2678 28.2879C38.2772 28.3186 38.2781 28.3513 38.2705 28.3825C38.2628 28.4137 38.2469 28.4421 38.2244 28.4645L37.3525 29.3263C37.1789 29.4999 36.9709 29.5878 36.7283 29.5899C31.5784 29.6607 25.3714 27.6736 24.3835 21.5547C24.0573 19.529 24.2204 16.5901 25.8983 15.0981C26.0133 14.9952 26.0907 15.0199 26.1304 15.1721C27.7206 21.4164 33.8522 24.8697 39.7832 25.7893C40.004 25.8226 40.0868 25.9135 40.0314 26.0618C40.0155 26.1045 39.9881 26.1519 39.9494 26.2041L39.5417 26.7507C39.5204 26.7792 39.4984 26.8058 39.4756 26.8305C39.3011 27.0194 39.0816 27.0968 38.8172 27.0626ZM14.8802 30.7089C11.7093 28.352 9.28173 24.7443 8.28122 20.8119C8.27973 20.8059 8.27835 20.7999 8.27708 20.7939C8.23912 20.6162 8.29904 20.4797 8.45685 20.3842C10.9848 18.8698 14.485 17.7701 17.1509 18.9663C17.1924 18.9848 17.2295 19.0121 17.2597 19.0466C17.29 19.081 17.3127 19.1216 17.3264 19.1658C17.34 19.2099 17.3443 19.2566 17.3389 19.3026C17.3336 19.3486 17.3187 19.3929 17.2952 19.4325C17.2137 19.5675 17.0579 19.6651 16.8279 19.7251C14.6167 20.3071 13.0673 20.7926 12.8509 23.4903C12.6126 26.4453 13.428 28.2234 15.0527 30.532C15.1696 30.6973 15.2329 30.8077 15.2425 30.863C15.2579 30.9513 15.1371 30.8999 14.8802 30.7089Z" fill="#2C4B67"/>
<path fill-rule="evenodd" clip-rule="evenodd" d="M7.82114 15.395L7.85152 15.3779C7.84233 15.3853 7.83206 15.3911 7.82114 15.395ZM28.2851 11.0178C27.5387 10.752 26.7765 10.7059 25.9987 10.8795C25.8761 10.9065 25.7689 10.9823 25.7007 11.0902C25.6325 11.1981 25.6088 11.3293 25.6349 11.4551L25.6757 11.6545C25.6998 11.768 25.7641 11.8683 25.8563 11.936C25.9484 12.0037 26.0617 12.034 26.1743 12.021L27.2439 11.8892C27.3115 11.8802 27.3804 11.8867 27.4455 11.9084C27.5106 11.9301 27.5702 11.9664 27.6202 12.0146C28.053 12.4283 28.0123 12.7563 27.4979 12.9985L27.4152 13.0377C25.1591 14.1075 24.0374 14.6394 23.4331 17.3746C21.8053 24.7475 26.7514 29.6253 33.4696 30.4806C34.1073 30.562 34.7503 30.6424 35.3985 30.7217C35.4779 30.7325 35.4894 30.7678 35.433 30.8279C34.7827 31.5202 34.1523 31.8461 33.5417 31.8053C29.2261 31.5127 23.0317 29.5192 20.6574 25.3874C20.6293 25.3381 20.5919 25.295 20.5474 25.2607C20.5029 25.2264 20.4521 25.2014 20.3982 25.1874C20.3442 25.1733 20.288 25.1704 20.2329 25.1788C20.1778 25.1872 20.1249 25.2067 20.0772 25.2363L19.9768 25.3006C19.6423 25.5085 19.5754 25.7861 19.7761 26.1334C22.0061 30.024 27.385 32.0047 31.6944 32.8343C31.7789 32.8506 31.815 32.8717 31.8026 32.8976C31.7939 32.9159 31.761 32.9366 31.7038 32.9597C28.7911 34.1601 25.7206 34.4891 22.4922 33.9468C20.8001 33.6633 19.4014 33.0414 18.1981 32.1202C16.9859 31.1922 15.9719 29.9604 15.0558 28.4645C13.9361 26.635 12.9513 22.7572 15.2221 21.426C15.611 21.1975 16.0426 21.121 16.4674 21.0458C17.1421 20.9263 17.7997 20.8099 18.2424 20.0916C18.8728 19.0724 18.0103 17.7155 16.9502 17.6287C16.1494 17.5643 16.141 17.4422 16.9251 17.2621C17.1452 17.2123 17.3634 17.1695 17.5766 17.1277C19.0162 16.8453 20.2249 16.6082 20.2058 14.5805C20.2058 14.469 20.2507 14.38 20.3406 14.3136C21.0725 13.7948 21.4122 13.0724 21.36 12.1464C21.3533 12.029 21.3884 11.9132 21.4588 11.8203C21.5292 11.7275 21.63 11.664 21.7426 11.6416C21.8284 11.6242 21.9175 11.6074 22.0087 11.5901C22.9149 11.4185 24.0329 11.2068 24.2266 10.0821C24.4776 8.61269 22.9784 8.04999 21.7834 8.0725C19.5158 8.10787 16.9565 9.22682 15.7615 11.304C15.6892 11.428 15.6664 11.576 15.6979 11.7173C15.7295 11.8585 15.8129 11.9823 15.9309 12.0628L16.0501 12.1464C16.0974 12.1791 16.1505 12.2019 16.2065 12.2134C16.2624 12.2249 16.32 12.225 16.3759 12.2137C16.4319 12.2023 16.4851 12.1798 16.5325 12.1472C16.58 12.1147 16.6207 12.0729 16.6523 12.0242C17.6036 10.5644 18.97 9.64054 20.7515 9.25255C21.5544 9.07892 22.1577 9.09714 22.5612 9.30721C23.3997 9.74236 23.36 10.0639 22.442 10.2718L22.4239 10.2759C21.798 10.4152 20.6169 10.678 20.3156 11.4454C20.2248 11.6771 20.2184 11.9396 20.2123 12.1954C20.1988 12.7528 20.1861 13.2785 19.3025 13.3843C19.2224 13.3934 19.1455 13.4215 19.0778 13.4664C19.0101 13.5113 18.9535 13.5719 18.9125 13.6433C18.8715 13.7146 18.8471 13.7949 18.8413 13.8777C18.8355 13.9606 18.8484 14.0437 18.8791 14.1207C18.992 14.3993 19.0589 14.6855 19.0798 14.9792C19.0861 15.0971 19.0526 15.2032 18.9795 15.2975C18.6616 15.6962 18.2633 15.9127 17.7845 15.947C16.4107 16.0478 15.2189 16.4722 14.209 17.2203C14.1191 17.2868 14.0198 17.3243 13.911 17.3328C11.8452 17.4807 9.93619 18.1131 8.18399 19.2299C8.04628 19.318 7.95501 19.3082 7.91019 19.2006C7.89717 19.1693 7.88807 19.1298 7.88289 19.082L7.69784 17.2878C7.67275 17.0585 7.75325 16.8762 7.93934 16.7412C9.67166 15.4925 10.9356 13.8171 12.1466 12.212C13.5424 10.3618 14.8678 8.60492 16.7589 7.70273C17.8336 7.18826 18.5665 6.79277 18.9575 6.51624C20.0309 5.7517 20.2037 4.82284 20.4062 3.73434C20.4285 3.61429 20.4512 3.4923 20.4755 3.36837C20.4901 3.29648 20.5261 3.23102 20.5786 3.18106C20.6311 3.13111 20.6975 3.09915 20.7685 3.08961C20.8395 3.08006 20.9116 3.09342 20.9749 3.12781C21.0382 3.16221 21.0895 3.21594 21.1216 3.28156L21.4353 3.92463C21.4703 3.99654 21.5212 4.05905 21.584 4.1071C21.6468 4.15514 21.7197 4.18736 21.7967 4.20114C21.8737 4.21492 21.9527 4.20988 22.0272 4.18642C22.1017 4.16296 22.1697 4.12174 22.2256 4.06611C23.8942 2.40483 25.8879 1.67815 28.2067 1.88608C28.673 1.9268 29.0253 2.10794 29.2637 2.42948C29.2953 2.47194 29.3147 2.52263 29.3197 2.57581C29.3246 2.62898 29.315 2.68252 29.2918 2.73037C29.2687 2.77822 29.2329 2.81846 29.1886 2.84654C29.1442 2.87463 29.0931 2.88943 29.041 2.88928C27.363 2.89249 26.1524 3.80245 26.8957 5.71883C26.9114 5.76092 26.9176 5.80621 26.9138 5.85131C26.91 5.8964 26.8963 5.94015 26.8738 5.97927C26.7358 6.21293 26.5267 6.26437 26.2465 6.13361C24.6887 5.41765 23.2115 5.38871 21.8148 6.0468C21.4907 6.20114 21.3809 6.45408 21.4854 6.80563L21.5105 6.89566C21.5261 6.94818 21.5519 6.99693 21.5863 7.03901C21.6207 7.08108 21.6631 7.1156 21.7108 7.14051C21.7585 7.16543 21.8107 7.18022 21.8641 7.184C21.9175 7.18779 21.9711 7.18049 22.0218 7.16254C23.2795 6.71882 24.0447 6.46158 25.4687 7.03071C26.5664 7.468 27.5481 7.56447 27.9872 6.27831C28.0045 6.22663 28.0336 6.18008 28.0718 6.14258C28.11 6.10508 28.1563 6.07774 28.2067 6.06288C28.8173 5.88067 29.4163 5.90211 30.0039 6.12718C30.0784 6.15535 30.1446 6.20247 30.1964 6.26415C30.2482 6.32584 30.2839 6.40009 30.3002 6.48C30.3165 6.5599 30.3128 6.64286 30.2895 6.72116C30.2662 6.79946 30.2241 6.87055 30.167 6.92781C29.4093 7.68077 29.5521 8.21638 29.7036 8.78445C29.7979 9.13822 29.8955 9.50458 29.7812 9.94386C29.6286 10.5205 29.2261 10.8838 28.5737 11.0339C28.4754 11.0575 28.3792 11.0521 28.2851 11.0178ZM38.8172 27.0626C34.6426 26.5321 29.3139 24.4967 26.8863 20.6415C26.8219 20.5407 26.7224 20.469 26.6082 20.4409C26.4939 20.4128 26.3735 20.4305 26.2716 20.4904L26.1963 20.5354C26.1303 20.5741 26.0725 20.6262 26.0266 20.6884C25.9807 20.7506 25.9475 20.8216 25.929 20.8973C25.9106 20.973 25.9072 21.0517 25.9192 21.1288C25.9312 21.2058 25.9582 21.2796 25.9987 21.3457C28.4733 25.3424 33.6641 27.471 38.1334 28.1687C38.1644 28.1739 38.1933 28.1878 38.2171 28.2088C38.2408 28.2298 38.2584 28.2572 38.2678 28.2879C38.2772 28.3186 38.2781 28.3513 38.2705 28.3825C38.2628 28.4137 38.2469 28.4421 38.2244 28.4645L37.3525 29.3263C37.1789 29.4999 36.9709 29.5878 36.7283 29.5899C31.5784 29.6607 25.3714 27.6736 24.3835 21.5547C24.0573 19.529 24.2204 16.5901 25.8983 15.0981C26.0133 14.9952 26.0907 15.0199 26.1304 15.1721C27.7206 21.4164 33.8522 24.8697 39.7832 25.7893C40.004 25.8226 40.0868 25.9135 40.0314 26.0618C40.0155 26.1045 39.9881 26.1519 39.9494 26.2041L39.5417 26.7507C39.5204 26.7792 39.4984 26.8058 39.4756 26.8305C39.3011 27.0194 39.0816 27.0968 38.8172 27.0626ZM14.8802 30.7089C11.7093 28.352 9.28173 24.7443 8.28122 20.8119C8.27973 20.8059 8.27835 20.7999 8.27708 20.7939C8.23912 20.6162 8.29904 20.4797 8.45685 20.3842C10.9848 18.8698 14.485 17.7701 17.1509 18.9663C17.1924 18.9848 17.2295 19.0121 17.2597 19.0466C17.29 19.081 17.3127 19.1216 17.3264 19.1658C17.34 19.2099 17.3443 19.2566 17.3389 19.3026C17.3336 19.3486 17.3187 19.3929 17.2952 19.4325C17.2137 19.5675 17.0579 19.6651 16.8279 19.7251C14.6167 20.3071 13.0673 20.7926 12.8509 23.4903C12.6126 26.4453 13.428 28.2234 15.0527 30.532C15.1696 30.6973 15.2329 30.8077 15.2425 30.863C15.2579 30.9513 15.1371 30.8999 14.8802 30.7089Z" fill="#2C4B67"/>
<path d="M8.18399 19.2299C8.04628 19.318 7.95501 19.3082 7.91019 19.2006L8.27708 20.7939C8.23912 20.6162 8.29904 20.4797 8.45685 20.3842C10.9848 18.8698 14.485 17.7701 17.1509 18.9663C17.1924 18.9848 17.2295 19.0121 17.2597 19.0466C17.29 19.081 17.3127 19.1216 17.3264 19.1658C17.34 19.2099 17.3443 19.2566 17.3389 19.3026C17.3336 19.3486 17.3187 19.3929 17.2952 19.4325C17.2137 19.5675 17.0579 19.6651 16.8279 19.7251C14.6167 20.3071 13.0673 20.7926 12.8509 23.4903C12.6126 26.4453 13.428 28.2234 15.0527 30.532C15.1696 30.6973 15.2329 30.8077 15.2425 30.863L18.1981 32.1202C16.9859 31.1922 15.9719 29.9604 15.0558 28.4645C13.9361 26.635 12.9513 22.7572 15.2221 21.426C15.611 21.1975 16.0426 21.121 16.4674 21.0458C17.1421 20.9263 17.7997 20.8099 18.2424 20.0916C18.8728 19.0724 18.0103 17.7155 16.9502 17.6287C16.1494 17.5643 16.141 17.4422 16.9251 17.2621C17.1452 17.2123 17.3634 17.1695 17.5766 17.1277C19.0162 16.8453 20.2249 16.6082 20.2058 14.5805C20.2058 14.469 20.2507 14.38 20.3406 14.3136C21.0725 13.7948 21.4122 13.0724 21.36 12.1464C21.3533 12.029 21.3884 11.9132 21.4588 11.8203C21.5292 11.7275 21.63 11.664 21.7426 11.6416C21.8284 11.6242 21.9175 11.6074 22.0087 11.5901C22.9149 11.4185 24.0329 11.2068 24.2266 10.0821C24.4776 8.61269 22.9784 8.04999 21.7834 8.0725C19.5158 8.10787 16.9565 9.22682 15.7615 11.304C15.6892 11.428 15.6664 11.576 15.6979 11.7173C15.7295 11.8585 15.8129 11.9823 15.9309 12.0628L16.0501 12.1464C16.0974 12.1791 16.1505 12.2019 16.2065 12.2134C16.2624 12.2249 16.32 12.225 16.3759 12.2137C16.4319 12.2023 16.4851 12.1798 16.5325 12.1472C16.58 12.1147 16.6207 12.0729 16.6523 12.0242C17.6036 10.5644 18.97 9.64054 20.7515 9.25255C21.5544 9.07892 22.1577 9.09714 22.5612 9.30721C23.3997 9.74236 23.36 10.0639 22.442 10.2718L22.4239 10.2759C21.798 10.4152 20.6169 10.678 20.3156 11.4454C20.2248 11.6771 20.2184 11.9396 20.2123 12.1954C20.1988 12.7528 20.1861 13.2785 19.3025 13.3843C19.2224 13.3934 19.1455 13.4215 19.0778 13.4664C19.0101 13.5113 18.9535 13.5719 18.9125 13.6433C18.8715 13.7146 18.8471 13.7949 18.8413 13.8777C18.8355 13.9606 18.8484 14.0437 18.8791 14.1207C18.992 14.3993 19.0589 14.6855 19.0798 14.9792C19.0861 15.0971 19.0526 15.2032 18.9795 15.2975C18.6616 15.6962 18.2633 15.9127 17.7845 15.947C16.4107 16.0478 15.2189 16.4722 14.209 17.2203C14.1191 17.2868 14.0198 17.3243 13.911 17.3328C11.8452 17.4807 9.93619 18.1131 8.18399 19.2299Z" fill="#2C4B67"/>
<path d="M12.2613 10.1175C10.8687 11.886 9.57968 13.9277 7.85152 15.3779C7.84233 15.3853 7.83206 15.3911 7.82114 15.395L6.51855 16.1303L7.93934 16.7412C9.67166 15.4925 10.9356 13.8171 12.1466 12.212C13.5424 10.3618 14.8678 8.60492 16.7589 7.70273C17.8336 7.18826 18.5665 6.79277 18.9575 6.51624C20.0309 5.7517 20.2037 4.82284 20.4062 3.73434C20.4285 3.61429 20.4512 3.4923 20.4755 3.36837C20.4901 3.29648 20.5261 3.23102 20.5786 3.18106C20.6311 3.13111 20.6975 3.09915 20.7685 3.08961C20.8395 3.08006 20.9116 3.09342 20.9749 3.12781C21.0382 3.16221 21.0895 3.21594 21.1216 3.28156L21.4353 3.92463C21.4703 3.99654 21.5212 4.05905 21.584 4.1071C21.6468 4.15514 21.7197 4.18736 21.7967 4.20114C21.8737 4.21492 21.9527 4.20988 22.0272 4.18642C22.1017 4.16296 22.1697 4.12174 22.2256 4.06611C23.8942 2.40483 25.8879 1.67815 28.2067 1.88608C28.673 1.9268 29.0253 2.10794 29.2637 2.42948C29.2953 2.47194 29.3147 2.52263 29.3197 2.57581C29.3246 2.62898 29.315 2.68252 29.2918 2.73037C29.2687 2.77822 29.2329 2.81846 29.1886 2.84654C29.1442 2.87463 29.0931 2.88943 29.041 2.88928C27.363 2.89249 26.1524 3.80245 26.8957 5.71883C26.9114 5.76092 26.9176 5.80621 26.9138 5.85131C26.91 5.8964 26.8963 5.94015 26.8738 5.97927C26.7358 6.21293 26.5267 6.26437 26.2465 6.13361C24.6887 5.41765 23.2115 5.38871 21.8148 6.0468C21.4907 6.20114 21.3809 6.45408 21.4854 6.80563L21.5105 6.89566C21.5261 6.94818 21.5519 6.99693 21.5863 7.03901C21.6207 7.08108 21.6631 7.1156 21.7108 7.14051C21.7585 7.16543 21.8107 7.18022 21.8641 7.184C21.9175 7.18779 21.9711 7.18049 22.0218 7.16254C23.2795 6.71882 24.0447 6.46158 25.4687 7.03071C26.5664 7.468 27.5481 7.56447 27.9872 6.27831C28.0045 6.22663 28.0336 6.18008 28.0718 6.14258C28.11 6.10508 28.1563 6.07774 28.2067 6.06288C28.8173 5.88067 29.4163 5.90211 30.0039 6.12718C30.0784 6.15535 30.1446 6.20247 30.1964 6.26415C30.2482 6.32584 30.2839 6.40009 30.3002 6.48C30.3165 6.5599 30.3128 6.64286 30.2895 6.72116C30.2662 6.79946 30.2241 6.87055 30.167 6.92781C29.4093 7.68077 29.5521 8.21638 29.7036 8.78445C29.7979 9.13822 29.8955 9.50458 29.7812 9.94386C29.6286 10.5205 29.2261 10.8838 28.5737 11.0339C28.4754 11.0575 28.3792 11.0521 28.2851 11.0178C27.5387 10.752 26.7765 10.7059 25.9987 10.8795C25.8761 10.9065 25.7689 10.9823 25.7007 11.0902C25.6325 11.1981 25.6088 11.3293 25.6349 11.4551L25.6757 11.6545C25.6998 11.768 25.7641 11.8683 25.8563 11.936C25.9484 12.0037 26.0617 12.034 26.1743 12.021L27.2439 11.8892C27.3115 11.8802 27.3804 11.8867 27.4455 11.9084C27.5106 11.9301 27.5702 11.9664 27.6202 12.0146C28.053 12.4283 28.0123 12.7563 27.4979 12.9985L27.4152 13.0377C25.1591 14.1075 24.0374 14.6394 23.4331 17.3746C21.8053 24.7475 26.7514 29.6253 33.4696 30.4806C34.1073 30.562 34.7503 30.6424 35.3985 30.7217C35.4779 30.7325 35.4894 30.7678 35.433 30.8279L36.7283 29.5899C31.5784 29.6607 25.3714 27.6736 24.3835 21.5547C24.0573 19.529 24.2204 16.5901 25.8983 15.0981C26.0133 14.9952 26.0907 15.0199 26.1304 15.1721C27.7206 21.4164 33.8522 24.8697 39.7832 25.7893C40.004 25.8226 40.0868 25.9135 40.0314 26.0618L40.8096 24.7119C40.7783 24.7631 40.732 24.7846 40.6707 24.7765C35.4204 24.0659 28.2224 20.7154 27.2219 14.5997C27.2109 14.5335 27.2257 14.4653 27.2631 14.4096C27.3005 14.3538 27.3577 14.3148 27.4226 14.3007C28.4723 14.0821 28.9992 13.4208 29.0034 12.3168C29.0036 12.268 29.0188 12.2205 29.0469 12.1807C29.075 12.1409 29.1146 12.111 29.1602 12.095C30.6751 11.5612 31.5689 10.0114 30.7754 8.43583C30.7511 8.38881 30.7405 8.33557 30.745 8.28253C30.7494 8.22948 30.7687 8.17888 30.8005 8.13681C32.7137 5.57735 30.0948 4.46804 28.0311 4.86353C27.7885 4.91069 27.7237 4.82173 27.8366 4.59665L27.9276 4.41016C27.9743 4.31646 28.0443 4.23726 28.1303 4.18074C28.2163 4.12421 28.3153 4.09241 28.4169 4.08862C31.3588 3.96644 30.8915 1.30409 28.5204 0.760686C26.3374 0.259084 23.9663 1.1401 22.2162 2.46484C22.1284 2.5313 22.0406 2.53023 21.9528 2.46163C21.5137 2.11222 21.1551 1.94502 20.877 1.96003C19.3182 2.04041 19.2994 3.42946 19.0547 4.60308C18.9293 5.20436 17.9821 5.796 17.3109 6.10467C15.3245 7.02428 13.6413 8.36188 12.2613 10.1175Z" fill="#2C4B67"/>
<path d="M31.6944 32.8343C31.7789 32.8506 31.815 32.8717 31.8026 32.8976L33.5417 31.8053C29.2261 31.5127 23.0317 29.5192 20.6574 25.3874C20.6293 25.3381 20.5919 25.295 20.5474 25.2607C20.5029 25.2264 20.4521 25.2014 20.3982 25.1874C20.3442 25.1733 20.288 25.1704 20.2329 25.1788C20.1778 25.1872 20.1249 25.2067 20.0772 25.2363L19.9768 25.3006C19.6423 25.5085 19.5754 25.7861 19.7761 26.1334C22.0061 30.024 27.385 32.0047 31.6944 32.8343Z" fill="#2C4B67"/>
<path d="M38.8172 27.0626C34.6426 26.5321 29.3139 24.4967 26.8863 20.6415C26.8219 20.5407 26.7224 20.469 26.6082 20.4409C26.4939 20.4128 26.3735 20.4305 26.2716 20.4904L26.1963 20.5354C26.1303 20.5741 26.0725 20.6262 26.0266 20.6884C25.9807 20.7506 25.9475 20.8216 25.929 20.8973C25.9106 20.973 25.9072 21.0517 25.9192 21.1288C25.9312 21.2058 25.9582 21.2796 25.9987 21.3457C28.4733 25.3424 33.6641 27.471 38.1334 28.1687C38.1644 28.1739 38.1933 28.1878 38.2171 28.2088C38.2408 28.2298 38.2584 28.2572 38.2678 28.2879L39.4756 26.8305C39.3011 27.0194 39.0816 27.0968 38.8172 27.0626Z" fill="#2C4B67"/>
<path d="M25.9987 10.8796C25.8761 10.9066 25.7689 10.9824 25.7007 11.0903C25.6325 11.1982 25.6088 11.3294 25.6349 11.4552L25.6756 11.6545C25.6998 11.768 25.7641 11.8684 25.8562 11.9361C25.9484 12.0038 26.0617 12.0341 26.1743 12.0211L27.2438 11.8892C27.3115 11.8802 27.3804 11.8868 27.4455 11.9085C27.5106 11.9302 27.5702 11.9664 27.6202 12.0146C28.053 12.4283 28.0123 12.7563 27.4979 12.9985C25.1864 14.095 24.0447 14.6062 23.4331 17.3747C21.8053 24.7476 26.7514 29.6254 33.4696 30.4807C34.1073 30.5621 34.7503 30.6425 35.3985 30.7218C35.4779 30.7325 35.4894 30.7679 35.433 30.8279C34.7827 31.5203 34.1523 31.8461 33.5417 31.8054C29.226 31.5128 23.0317 29.5193 20.6574 25.3875C20.6293 25.3382 20.5919 25.2951 20.5474 25.2608C20.5029 25.2264 20.4521 25.2015 20.3981 25.1874C20.3442 25.1734 20.288 25.1705 20.2329 25.1789C20.1778 25.1873 20.1248 25.2068 20.0772 25.2363L19.9768 25.3006C19.6423 25.5086 19.5754 25.7862 19.7761 26.1334C22.0061 30.0241 27.385 32.0048 31.6944 32.8343C31.8387 32.8622 31.8418 32.904 31.7038 32.9597C28.7911 34.1601 25.7206 34.4892 22.4922 33.9468C19.0955 33.3777 16.8812 31.4453 15.0558 28.4646C13.9361 26.635 12.9513 22.7573 15.222 21.4261C16.2288 20.8345 17.521 21.2621 18.2424 20.0917C18.8728 19.0724 18.0103 17.7155 16.9502 17.6287C16.1494 17.5644 16.141 17.4422 16.9251 17.2622C18.6313 16.8763 20.2277 16.9085 20.2058 14.5805C20.2058 14.4691 20.2507 14.3801 20.3406 14.3136C21.0725 13.7949 21.4122 13.0725 21.36 12.1465C21.3533 12.0291 21.3884 11.9132 21.4588 11.8204C21.5292 11.7275 21.63 11.664 21.7426 11.6416C22.6804 11.4519 24.0134 11.3201 24.2266 10.0822C24.4775 8.61275 22.9783 8.05005 21.7834 8.07256C19.5158 8.10793 16.9565 9.22688 15.7615 11.304C15.6892 11.4281 15.6664 11.576 15.6979 11.7173C15.7295 11.8586 15.8129 11.9823 15.9309 12.0629L16.0501 12.1465C16.0974 12.1791 16.1505 12.2019 16.2064 12.2135C16.2624 12.225 16.32 12.2251 16.3759 12.2138C16.4319 12.2024 16.4851 12.1798 16.5325 12.1473C16.58 12.1148 16.6206 12.073 16.6522 12.0243C17.6036 10.5645 18.97 9.6406 20.7515 9.25261C21.5544 9.07898 22.1577 9.0972 22.5612 9.30727C23.3997 9.74242 23.3599 10.064 22.442 10.2719C21.821 10.4102 20.6198 10.6706 20.3156 11.4455C20.027 12.1818 20.5915 13.2301 19.3025 13.3844C19.2224 13.3934 19.1455 13.4215 19.0778 13.4665C19.0101 13.5114 18.9535 13.5719 18.9125 13.6433C18.8714 13.7147 18.8471 13.795 18.8413 13.8778C18.8355 13.9606 18.8484 14.0438 18.8791 14.1207C18.992 14.3994 19.0589 14.6856 19.0798 14.9792C19.0861 15.0971 19.0526 15.2032 18.9794 15.2976C18.6616 15.6963 18.2633 15.9128 17.7845 15.9471C16.4107 16.0478 15.2189 16.4722 14.209 17.2204C14.1191 17.2868 14.0198 17.3243 13.911 17.3329C11.8452 17.4808 9.93618 18.1132 8.18398 19.23C8.00625 19.3436 7.90588 19.2943 7.88288 19.0821L7.69783 17.2879C7.67274 17.0585 7.75324 16.8763 7.93933 16.7413C11.6685 14.0532 13.2273 9.38765 16.7589 7.70279C17.8336 7.18832 18.5665 6.79283 18.9575 6.5163C20.1493 5.66744 20.2309 4.61601 20.4755 3.36843C20.4901 3.29654 20.5261 3.23108 20.5786 3.18112C20.6311 3.13117 20.6974 3.09921 20.7685 3.08967C20.8395 3.08012 20.9116 3.09348 20.9749 3.12787C21.0382 3.16227 21.0895 3.216 21.1216 3.28162L21.4352 3.9247C21.4703 3.9966 21.5212 4.05911 21.584 4.10716C21.6468 4.1552 21.7197 4.18742 21.7967 4.2012C21.8737 4.21498 21.9526 4.20994 22.0272 4.18648C22.1017 4.16302 22.1697 4.1218 22.2256 4.06617C23.8942 2.40489 25.8879 1.67821 28.2067 1.88614C28.673 1.92686 29.0253 2.108 29.2637 2.42954C29.2953 2.472 29.3147 2.52269 29.3197 2.57587C29.3246 2.62904 29.315 2.68258 29.2918 2.73043C29.2686 2.77828 29.2329 2.81852 29.1885 2.8466C29.1442 2.87469 29.0931 2.88949 29.041 2.88934C27.363 2.89255 26.1524 3.80251 26.8957 5.71889C26.9114 5.76098 26.9176 5.80627 26.9138 5.85137C26.91 5.89646 26.8963 5.94021 26.8738 5.97933C26.7358 6.21299 26.5267 6.26443 26.2465 6.13367C24.6887 5.41771 23.2115 5.38877 21.8147 6.04686C21.4907 6.2012 21.3809 6.45414 21.4854 6.80569L21.5105 6.89572C21.5261 6.94824 21.5519 6.99699 21.5863 7.03907C21.6207 7.08114 21.6631 7.11566 21.7108 7.14057C21.7585 7.16549 21.8106 7.18028 21.8641 7.18406C21.9175 7.18785 21.9711 7.18055 22.0218 7.1626C23.2794 6.71888 24.0447 6.46164 25.4686 7.03077C26.5664 7.46806 27.5481 7.56453 27.9872 6.27837C28.0045 6.2267 28.0336 6.18014 28.0718 6.14264C28.11 6.10514 28.1563 6.0778 28.2067 6.06294C28.8173 5.88073 29.4163 5.90217 30.0039 6.12724C30.0783 6.15541 30.1446 6.20253 30.1964 6.26421C30.2482 6.3259 30.2839 6.40015 30.3002 6.48006C30.3164 6.55996 30.3128 6.64292 30.2895 6.72122C30.2662 6.79952 30.224 6.87061 30.167 6.92787C28.9375 8.14972 30.0791 8.79924 29.7812 9.94392C29.6285 10.5205 29.226 10.8839 28.5737 11.0339C28.4754 11.0575 28.3792 11.0522 28.2851 11.0179C27.5387 10.7521 26.7765 10.706 25.9987 10.8796ZM24.0541 12.751C24.0541 12.5923 23.9927 12.4402 23.8833 12.3281C23.7739 12.2159 23.6255 12.1529 23.4708 12.1529C23.316 12.1529 23.1677 12.2159 23.0583 12.3281C22.9489 12.4402 22.8874 12.5923 22.8874 12.751C22.8874 12.9096 22.9489 13.0617 23.0583 13.1739C23.1677 13.286 23.316 13.349 23.4708 13.349C23.6255 13.349 23.7739 13.286 23.8833 13.1739C23.9927 13.0617 24.0541 12.9096 24.0541 12.751ZM15.7176 13.394C15.7176 13.313 15.702 13.2327 15.6718 13.1578C15.6415 13.0829 15.5971 13.0148 15.5412 12.9575C15.4853 12.9002 15.4189 12.8547 15.3459 12.8237C15.2728 12.7926 15.1945 12.7767 15.1154 12.7767C15.0363 12.7767 14.958 12.7926 14.885 12.8237C14.8119 12.8547 14.7455 12.9002 14.6896 12.9575C14.6337 13.0148 14.5893 13.0829 14.5591 13.1578C14.5288 13.2327 14.5132 13.313 14.5132 13.394C14.5132 13.4751 14.5288 13.5554 14.5591 13.6303C14.5893 13.7052 14.6337 13.7732 14.6896 13.8306C14.7455 13.8879 14.8119 13.9334 14.885 13.9644C14.958 13.9954 15.0363 14.0114 15.1154 14.0114C15.2751 14.0114 15.4283 13.9464 15.5412 13.8306C15.6542 13.7148 15.7176 13.5578 15.7176 13.394ZM21.8116 14.3779C20.8435 16.6802 20.5696 19.0767 20.9899 21.5676C21.0505 21.9213 21.2554 22.0767 21.6046 22.0338L21.7363 22.0177C21.7922 22.0108 21.846 21.9922 21.8946 21.9632C21.9432 21.9341 21.9855 21.8953 22.0189 21.849C22.0524 21.8026 22.0763 21.7498 22.0892 21.6937C22.1021 21.6376 22.1037 21.5793 22.0939 21.5226C21.6987 19.1882 21.9601 16.9481 22.878 14.8024C23.0264 14.4551 22.924 14.2268 22.5706 14.1175L22.442 14.0757C22.3195 14.0376 22.1876 14.0474 22.0713 14.1031C21.955 14.1589 21.8625 14.2567 21.8116 14.3779ZM19.1802 22.5193C19.2196 22.5377 19.2526 22.5678 19.2752 22.6056C19.2977 22.6434 19.3087 22.6873 19.3067 22.7316C19.3047 22.7759 19.2897 22.8186 19.2638 22.8541C19.2379 22.8896 19.2022 22.9164 19.1614 22.9309C17.7343 23.455 16.5048 24.0048 16.6052 25.8215C16.7683 28.7454 18.2476 30.9372 21.0432 32.397C21.1804 32.4691 21.338 32.4892 21.4883 32.454C21.6386 32.4187 21.772 32.3302 21.8649 32.2041L21.9778 32.053C22.0096 32.0099 22.0314 31.9601 22.0417 31.9071C22.052 31.8541 22.0504 31.7994 22.0372 31.7469C22.0239 31.6944 21.9993 31.6455 21.9651 31.6039C21.931 31.5623 21.8882 31.5289 21.8398 31.5064C19.6381 30.4903 17.2105 27.8022 17.8409 25.1302C17.8721 24.9989 17.9333 24.877 18.0194 24.7747C18.1056 24.6724 18.2143 24.5926 18.3365 24.5418C19.4342 24.0949 21.0244 23.5547 20.1587 21.9534C19.9475 21.5654 19.5701 21.2932 19.0265 21.1367C18.8705 21.0916 18.7042 21.1031 18.5556 21.1693C18.4069 21.2355 18.2852 21.3524 18.211 21.5001L18.1703 21.5804C18.1458 21.629 18.1312 21.6821 18.1273 21.7366C18.1234 21.7911 18.1303 21.8457 18.1476 21.8972C18.165 21.9486 18.1923 21.9958 18.228 22.0359C18.2637 22.076 18.307 22.1081 18.3553 22.1303L19.1802 22.5193ZM24.0479 32.5064C24.0479 32.3537 23.9887 32.2073 23.8834 32.0994C23.7781 31.9914 23.6353 31.9308 23.4864 31.9308C23.3375 31.9308 23.1947 31.9914 23.0895 32.0994C22.9842 32.2073 22.925 32.3537 22.925 32.5064C22.925 32.659 22.9842 32.8054 23.0895 32.9133C23.1947 33.0213 23.3375 33.0819 23.4864 33.0819C23.6353 33.0819 23.7781 33.0213 23.8834 32.9133C23.9887 32.8054 24.0479 32.659 24.0479 32.5064Z" fill="#F2F2F2"/>
<path d="M37.1298 8.60314L37.4717 7.86681C37.5149 7.77452 37.5906 7.70249 37.6833 7.66544C37.776 7.6284 37.8786 7.62912 37.9704 7.66746L38.1272 7.73177C38.2552 7.78416 38.3581 7.88588 38.4138 8.01511C38.4695 8.14433 38.4735 8.29079 38.4252 8.42308C38.1617 9.13047 37.8397 9.56455 37.4591 9.72532C34.3604 11.0211 33.4226 5.99546 36.6876 6.03083C36.7953 6.03134 36.8989 6.07359 36.9779 6.14921C37.0569 6.22484 37.1055 6.32833 37.1142 6.43918L37.1236 6.54529C37.1507 6.88184 37.0023 7.08119 36.6782 7.14335C35.3201 7.40701 35.6934 9.1369 36.8758 8.81857C36.9307 8.80439 36.982 8.77771 37.0259 8.74046C37.0699 8.70321 37.1053 8.65632 37.1298 8.60314Z" fill="#2C4B67"/>
<path d="M34.0185 12.5034C34.5579 12.5773 34.9563 11.6481 35.502 12.2719C35.5813 12.3623 35.6283 12.4775 35.6351 12.5986C35.642 12.7196 35.6083 12.8392 35.5396 12.9375C33.6578 15.6416 30.5967 11.1883 33.9746 10.3844C34.0469 10.3672 34.1219 10.3655 34.1949 10.3795C34.2679 10.3935 34.3372 10.4229 34.3986 10.4659C34.4599 10.5088 34.5119 10.5643 34.5512 10.6289C34.5905 10.6934 34.6163 10.7657 34.6269 10.841L34.6489 11.005C34.6568 11.0595 34.6536 11.115 34.6394 11.1682C34.6251 11.2213 34.6003 11.2707 34.5663 11.3134C34.5323 11.3561 34.4901 11.3911 34.4422 11.416C34.3943 11.441 34.3419 11.4554 34.2882 11.4584C34.031 11.4691 33.8345 11.5848 33.6986 11.8056C33.6584 11.8706 33.6348 11.9448 33.6301 12.0216C33.6253 12.0983 33.6396 12.1751 33.6715 12.2447C33.7034 12.3143 33.7519 12.3745 33.8126 12.4197C33.8732 12.4649 33.9441 12.4937 34.0185 12.5034Z" fill="#2C4B67"/>
<path d="M23.4701 13.349C23.7923 13.349 24.0535 13.0812 24.0535 12.7509C24.0535 12.4206 23.7923 12.1528 23.4701 12.1528C23.1479 12.1528 22.8867 12.4206 22.8867 12.7509C22.8867 13.0812 23.1479 13.349 23.4701 13.349Z" fill="#2C4B67"/>
<path d="M15.1159 14.0113C15.4484 14.0113 15.718 13.7349 15.718 13.394C15.718 13.053 15.4484 12.7766 15.1159 12.7766C14.7833 12.7766 14.5137 13.053 14.5137 13.394C14.5137 13.7349 14.7833 14.0113 15.1159 14.0113Z" fill="#2C4B67"/>
<path d="M21.8114 14.378C21.8623 14.2567 21.9548 14.1589 22.0711 14.1031C22.1873 14.0474 22.3193 14.0376 22.4418 14.0757L22.5704 14.1175C22.9238 14.2268 23.0262 14.4551 22.8778 14.8024C21.9598 16.9481 21.6985 19.1882 22.0937 21.5226C22.1035 21.5793 22.1019 21.6376 22.089 21.6937C22.0761 21.7498 22.0522 21.8026 22.0187 21.849C21.9853 21.8953 21.943 21.9342 21.8944 21.9632C21.8458 21.9922 21.7919 22.0108 21.7361 22.0177L21.6044 22.0338C21.2552 22.0767 21.0503 21.9213 20.9897 21.5676C20.5694 19.0767 20.8433 16.6802 21.8114 14.378Z" fill="#2C4B67"/>
<path d="M26.8861 20.6415C26.8217 20.5407 26.7222 20.469 26.608 20.4409C26.4937 20.4128 26.3733 20.4305 26.2714 20.4904L26.1961 20.5354C26.1301 20.5741 26.0723 20.6262 26.0264 20.6884C25.9805 20.7506 25.9473 20.8217 25.9288 20.8973C25.9104 20.973 25.907 21.0518 25.919 21.1288C25.931 21.2058 25.958 21.2796 25.9985 21.3457C28.4731 25.3424 33.6639 27.471 38.1332 28.1687C38.1642 28.1739 38.1932 28.1878 38.2169 28.2088C38.2406 28.2298 38.2582 28.2572 38.2676 28.2879C38.277 28.3186 38.278 28.3513 38.2703 28.3825C38.2626 28.4137 38.2467 28.4421 38.2242 28.4645L37.3523 29.3263C37.1787 29.4999 36.9707 29.5878 36.7281 29.5899C31.5782 29.6607 25.3712 27.6736 24.3833 21.5547C24.0571 19.529 24.2202 16.5901 25.8981 15.0981C26.0131 14.9953 26.0905 15.0199 26.1302 15.1721C27.7204 21.4164 33.852 24.8697 39.783 25.7893C40.0673 25.8322 40.1227 25.9705 39.9492 26.2041L39.5415 26.7507C39.3575 26.9973 39.116 27.1012 38.817 27.0626C34.6424 26.5321 29.3137 24.4967 26.8861 20.6415Z" fill="#F2F2F2"/>
<path d="M14.8798 30.7089C11.7089 28.352 9.28132 24.7443 8.28081 20.8119C8.2348 20.6254 8.29335 20.4828 8.45644 20.3842C10.9844 18.8698 14.4846 17.7701 17.1505 18.9662C17.192 18.9847 17.229 19.0121 17.2593 19.0465C17.2896 19.081 17.3123 19.1216 17.3259 19.1658C17.3396 19.2099 17.3439 19.2566 17.3385 19.3026C17.3332 19.3486 17.3182 19.3929 17.2948 19.4325C17.2133 19.5675 17.0575 19.6651 16.8275 19.7251C14.6163 20.3071 13.0669 20.7926 12.8505 23.4903C12.6122 26.4453 13.4276 28.2234 15.0523 30.532C15.3555 30.9607 15.298 31.0197 14.8798 30.7089Z" fill="#F2F2F2"/>
<path d="M19.1813 22.5192L18.3564 22.1302C18.3082 22.108 18.2648 22.0759 18.2291 22.0358C18.1934 21.9957 18.1661 21.9485 18.1488 21.897C18.1314 21.8456 18.1245 21.7909 18.1284 21.7365C18.1323 21.682 18.1469 21.6289 18.1714 21.5803L18.2122 21.4999C18.2864 21.3523 18.4081 21.2354 18.5567 21.1692C18.7053 21.103 18.8717 21.0915 19.0276 21.1366C19.5713 21.2931 19.9487 21.5653 20.1599 21.9533C21.0255 23.5546 19.4354 24.0948 18.3376 24.5417C18.2154 24.5925 18.1067 24.6723 18.0206 24.7746C17.9344 24.8769 17.8732 24.9988 17.8421 25.1301C17.2117 27.8021 19.6392 30.4902 21.841 31.5062C21.8893 31.5288 21.9321 31.5622 21.9663 31.6038C22.0004 31.6454 22.025 31.6943 22.0383 31.7468C22.0515 31.7992 22.0531 31.854 22.0428 31.907C22.0326 31.96 22.0107 32.0098 21.979 32.0529L21.8661 32.204C21.7731 32.3301 21.6397 32.4186 21.4895 32.4538C21.3392 32.4891 21.1816 32.469 21.0443 32.3969C18.2488 30.9371 16.7694 28.7453 16.6063 25.8214C16.506 24.0047 17.7354 23.4549 19.1625 22.9308C19.2034 22.9163 19.2391 22.8895 19.265 22.854C19.2909 22.8185 19.3058 22.7758 19.3078 22.7315C19.3099 22.6872 19.2989 22.6433 19.2763 22.6055C19.2538 22.5676 19.2207 22.5376 19.1813 22.5192Z" fill="#2C4B67"/>
<path d="M23.4852 33.0818C23.7953 33.0818 24.0467 32.8241 24.0467 32.5062C24.0467 32.1883 23.7953 31.9307 23.4852 31.9307C23.1752 31.9307 22.9238 32.1883 22.9238 32.5062C22.9238 32.8241 23.1752 33.0818 23.4852 33.0818Z" fill="#2C4B67"/>
<path d="M42.0509 35.6415C42.2528 35.4397 42.3662 35.1659 42.3662 34.8804V12.9492C42.3662 12.6637 42.2528 12.3899 42.0509 12.1881C41.8491 11.9862 41.5753 11.8728 41.2898 11.8728L39.0686 15.3288V32.508C39.0686 32.5471 39.0531 32.5847 39.0254 32.6124C38.9977 32.6401 38.9602 32.6556 38.921 32.6556H7.80262C7.76348 32.6556 7.72593 32.6401 7.69825 32.6124C7.67057 32.5847 7.65502 32.5471 7.65502 32.508V15.3288C7.65502 15.2897 7.67057 15.2521 7.69825 15.2244C7.72593 15.1968 7.76348 15.1812 7.80262 15.1812L5.43382 11.8728C5.14834 11.8728 4.87456 11.9862 4.67269 12.1881C4.47083 12.3899 4.35742 12.6637 4.35742 12.9492V34.8804C4.35742 35.1659 4.47083 35.4397 4.67269 35.6415C4.87456 35.8434 5.14834 35.9568 5.43382 35.9568H41.2898C41.5753 35.9568 41.8491 35.8434 42.0509 35.6415Z" fill="black"/>
</svg>
