<svg width="59" height="49" viewBox="0 0 59 49" fill="none" xmlns="http://www.w3.org/2000/svg">
<path d="M35.9324 17.6034C35.2077 17.7111 34.6202 17.9233 34.1697 18.2399C31.0067 20.4677 25.7237 25.1975 21.5619 22.1275C20.3248 21.2136 19.8988 19.7937 20.284 17.8678C20.293 17.8191 20.289 17.7688 20.2726 17.722C20.2561 17.6753 20.2277 17.6338 20.1903 17.6019C20.1529 17.57 20.1078 17.5488 20.0598 17.5404C20.0117 17.5321 19.9623 17.5369 19.9168 17.5545C15.7452 19.18 13.6006 22.9207 8.72398 23.0432C8.03198 23.0595 7.6664 22.7216 7.62723 22.0296L7.61254 21.7554C7.60662 21.6468 7.62242 21.5382 7.65901 21.4357C7.69561 21.3333 7.75227 21.2392 7.82568 21.159C7.89909 21.0787 7.98776 21.0139 8.08652 20.9684C8.18528 20.9228 8.29214 20.8974 8.40083 20.8937C14.0707 20.7027 16.6265 13.8823 22.5901 15.6351C23.4861 15.8946 23.6379 16.7123 23.1385 17.4663C22.3306 18.6904 21.6941 19.9585 23.5938 20.6293C26.5512 21.6722 29.9345 18.4896 32.079 16.8837C33.636 15.7184 37.3327 14.5237 39.0072 15.9877C39.1891 16.1468 39.3047 16.3685 39.331 16.6087C39.3573 16.849 39.2924 17.0904 39.1492 17.2852C35.9421 21.6673 41.8421 20.9231 43.9034 20.2327C44.1772 20.1402 44.476 20.1556 44.7389 20.2756C45.0018 20.3957 45.209 20.6115 45.3184 20.879L45.4115 21.0944C45.4934 21.2947 45.4937 21.519 45.4122 21.7194C45.3308 21.9199 45.1741 22.0804 44.9757 22.1667C43.1347 22.955 40.0648 23.5083 38.1112 22.5094C36.5884 21.7261 35.668 20.2278 36.0694 18.4994C36.1184 18.2905 36.1559 18.0718 36.1821 17.8433C36.2016 17.6573 36.1184 17.5773 35.9324 17.6034Z" fill="#2C4B67"/>
<path d="M27.1288 30.4952C26.7838 32.0261 27.1661 33.2469 28.2759 34.1576C30.057 35.6216 32.9711 35.4943 34.9201 34.4024C37.4426 32.9874 39.4476 30.7498 42.1426 29.7167C42.1757 29.7043 42.2113 29.7016 42.2457 29.7086C42.2802 29.7157 42.3122 29.7324 42.3384 29.7569C42.3647 29.7814 42.3841 29.8129 42.3948 29.848C42.4054 29.8832 42.4069 29.9207 42.399 29.9566C41.3592 34.848 45.7561 35.8762 49.2111 34.9263C50.1872 34.6619 50.4296 34.0123 49.9385 32.9776C49.8701 32.834 49.7613 32.7605 49.6121 32.7573C48.1341 32.7181 46.2131 33.5358 44.9262 32.5908C43.8677 31.8074 44.4879 30.6764 45.0707 29.7852C45.5976 28.9774 45.5276 28.1842 44.5345 27.8757C39.4056 26.2697 36.8691 31.7095 32.4256 32.9727C31.1014 33.3497 28.6862 32.7377 29.3529 30.7988C29.5394 30.2455 30.1409 29.7216 30.2575 29.0606C30.3022 28.8109 30.2573 28.5528 30.1314 28.3365C30.0056 28.1202 29.8079 27.9612 29.5767 27.8904C23.3101 25.9613 20.2468 34.5982 15.295 32.8405C13.3414 32.1501 14.218 30.6715 15.006 29.5062C15.1001 29.3658 15.1607 29.2039 15.1829 29.0338C15.205 28.8638 15.1879 28.6907 15.1331 28.529C15.0783 28.3673 14.9873 28.2218 14.8678 28.1047C14.7483 27.9877 14.6038 27.9024 14.4465 27.8561C10.2407 26.6272 7.73224 29.7412 4.59428 31.92C3.68507 32.5467 2.67793 32.816 1.64749 33.149C1.56809 33.1746 1.49547 33.2199 1.43551 33.2811C1.37556 33.3424 1.32997 33.4179 1.30246 33.5015C1.14082 34.0172 1.22473 34.4889 1.55423 34.9165C1.66302 35.0569 1.80446 35.127 1.97853 35.127C5.66668 35.1124 8.59483 31.0191 11.9659 29.6971C11.9907 29.6869 12.0176 29.684 12.0438 29.6888C12.07 29.6936 12.0945 29.7058 12.115 29.7243C12.1354 29.7428 12.1509 29.7668 12.16 29.7938C12.169 29.8209 12.1712 29.85 12.1664 29.8783C11.7872 32.0065 12.2519 33.5292 13.5605 34.4465C17.8828 37.4772 22.9511 31.92 26.3875 29.9077C27.0589 29.516 27.306 29.7118 27.1288 30.4952Z" stroke="#7E8E8F" stroke-width="1.44"/>
<path d="M28.2758 34.1576C27.1661 33.2469 26.7838 32.0261 27.1288 30.4952C27.306 29.7118 27.0589 29.516 26.3875 29.9077C22.9511 31.92 17.8828 37.4772 13.5605 34.4465C12.2519 33.5292 11.7872 32.0065 12.1664 29.8783C12.1712 29.85 12.169 29.8209 12.16 29.7938C12.1509 29.7668 12.1354 29.7428 12.115 29.7243C12.0945 29.7058 12.07 29.6936 12.0438 29.6888C12.0176 29.684 11.9907 29.6869 11.9659 29.6971C8.59483 31.0191 5.66668 35.1124 1.97853 35.127C1.80446 35.127 1.66302 35.0569 1.55423 34.9165C1.22473 34.4889 1.14082 34.0172 1.30246 33.5015C1.32997 33.4179 1.37556 33.3424 1.43551 33.2811C1.49547 33.2199 1.56809 33.1746 1.64749 33.149C2.67793 32.816 3.68507 32.5467 4.59428 31.92C7.73224 29.7412 10.2407 26.6272 14.4465 27.8561C14.6038 27.9024 14.7483 27.9877 14.8678 28.1047C14.9873 28.2218 15.0783 28.3673 15.1331 28.529C15.1879 28.6907 15.205 28.8638 15.1829 29.0338C15.1607 29.2039 15.1001 29.3658 15.006 29.5062C14.218 30.6715 13.3414 32.1501 15.295 32.8405C20.2468 34.5982 23.3101 25.9613 29.5767 27.8904C29.8079 27.9612 30.0056 28.1202 30.1314 28.3365C30.2573 28.5528 30.3022 28.8109 30.2575 29.0606C30.1409 29.7216 29.5394 30.2455 29.3529 30.7988C28.6862 32.7377 31.1014 33.3497 32.4256 32.9727L34.9201 34.4024C32.9711 35.4943 30.057 35.6216 28.2758 34.1576Z" fill="#2C4B67" stroke="#2C4B67" stroke-width="1.44"/>
<path d="M27.1288 30.4952C27.306 29.7118 27.0589 29.516 26.3875 29.9077C22.9511 31.92 17.8828 37.4772 13.5605 34.4465C12.2519 33.5292 11.7872 32.0065 12.1664 29.8783C12.1712 29.85 12.169 29.8209 12.16 29.7938C12.1509 29.7668 12.1354 29.7428 12.115 29.7243C12.0945 29.7058 12.07 29.6936 12.0438 29.6888C12.0176 29.684 11.9907 29.6869 11.9659 29.6971C8.59483 31.0191 5.66668 35.1124 1.97853 35.127C1.80446 35.127 1.66302 35.0569 1.55423 34.9165C1.22473 34.4889 1.14082 34.0172 1.30246 33.5015C1.32997 33.4179 1.37556 33.3424 1.43551 33.2811C1.49547 33.2199 1.56809 33.1746 1.64749 33.149C2.67793 32.816 3.68507 32.5467 4.59428 31.92C7.73224 29.7412 10.2407 26.6272 14.4465 27.8561C14.6038 27.9024 14.7483 27.9877 14.8678 28.1047C14.9873 28.2218 15.0783 28.3673 15.1331 28.529C15.1879 28.6907 15.205 28.8638 15.1829 29.0338C15.1607 29.2039 15.1001 29.3658 15.006 29.5062C14.218 30.6715 13.3414 32.1501 15.295 32.8405C20.2468 34.5982 23.3101 25.9613 29.5767 27.8904C29.8079 27.9612 30.0056 28.1202 30.1314 28.3365C30.2573 28.5528 30.3022 28.8109 30.2575 29.0606C30.1409 29.7216 29.5394 30.2455 29.3529 30.7988C28.6862 32.7377 31.1014 33.3497 32.4256 32.9727L34.9201 34.4024C32.9711 35.4943 30.057 35.6216 28.2758 34.1576C27.1661 33.2469 26.7838 32.0261 27.1288 30.4952Z" fill="#2C4B67"/>
<path d="M36.1571 42.2169C34.8498 48.1316 41.3912 47.9455 44.8773 46.6186C45.093 46.5359 45.2684 46.3731 45.3669 46.1642C45.4654 45.9553 45.4795 45.7164 45.4061 45.4974L45.3523 45.3211C45.2584 45.0475 45.0603 44.8222 44.8014 44.6946C44.5425 44.567 44.244 44.5475 43.9715 44.6405C42.3802 45.1889 37.9883 46.1045 38.2233 43.3675C38.3066 42.3883 39.5502 41.8595 39.2271 40.8459C39.0769 40.3694 38.6738 40.0723 38.0177 39.9548C35.9939 39.586 34.2101 39.9336 32.6661 40.9977C30.5509 42.4519 25.7477 46.7263 23.0058 44.8266C20.969 43.4214 23.8725 42.1386 23.329 40.606C23.3029 40.5306 23.2606 40.4614 23.2049 40.4031C23.1491 40.3449 23.0813 40.2989 23.0058 40.2682C20.2052 39.1127 17.5857 40.1752 15.5195 41.835C13.1399 43.7396 11.3185 45.0665 8.32694 45.3407C8.11788 45.3607 7.92479 45.4608 7.78861 45.6199C7.65242 45.7789 7.58383 45.9844 7.59739 46.1927L7.61209 46.4375C7.66106 47.185 8.05765 47.5342 8.80187 47.4853C12.6062 47.2355 15.0739 44.9588 17.9627 42.9122C18.6156 42.4519 19.2651 42.1533 19.9114 42.0162C20.091 41.9803 20.1758 42.0537 20.166 42.2365C20.0812 44.0252 20.3961 45.2787 21.111 45.9968C24.979 49.8697 30.4236 45.4337 33.8853 42.8093C34.3814 42.434 35.0734 42.1679 35.9613 42.0113C36.1278 41.9819 36.193 42.0504 36.1571 42.2169Z" stroke="#7E8E8F" stroke-width="1.44"/>
<path fill-rule="evenodd" clip-rule="evenodd" d="M43.811 2.37708C43.2803 2.74683 43.1691 2.91471 41.0998 6.4718L40.56 7.39987L41.5493 7.98707C42.9351 8.80937 50.8898 13.3723 51.625 13.7664C51.9585 13.9453 52.2739 14.084 52.3257 14.0747C52.3777 14.0654 52.6448 13.6806 52.9192 13.2196C54.4785 10.6014 54.9283 9.81611 55.0041 9.58023C55.1475 9.13378 55.0051 8.07769 54.7245 7.50751C54.4176 6.88376 54.1275 6.6802 51.3473 5.13756C50.2102 4.50663 48.5519 3.57547 47.6622 3.06822C46.7724 2.56106 45.8729 2.10176 45.6632 2.04758C45.1501 1.9151 44.2425 2.0765 43.811 2.37708ZM38.5255 10.6815C37.955 11.4757 37.1201 12.5446 36.6702 13.0568C35.757 14.0965 33.3776 16.4154 33.1899 16.4485C33.057 16.472 33.0524 16.6143 33.1415 17.958C33.1743 18.4525 33.2065 18.979 33.2129 19.1279C33.2766 20.5867 33.2882 21.0989 33.282 22.1631C33.2664 24.8316 32.8938 27.4872 32.2112 29.7942C31.8206 31.1141 31.7703 31.3743 31.8907 31.4495C32.4447 31.7957 33.4199 32.2421 33.5073 32.1897C33.5654 32.1548 34.1874 31.1152 34.8895 29.8795C35.5915 28.6438 36.509 27.0357 36.9282 26.3058C37.3474 25.576 38.1183 24.2184 38.6413 23.289L39.5921 21.599L39.3364 21.1447C38.6633 19.9485 38.9616 18.6267 40.077 17.8621C40.4896 17.5793 41.2432 17.4361 41.8355 17.5279C43.0075 17.7097 43.8004 18.9524 43.5939 20.2837C43.4418 21.2652 42.4586 22.1619 41.4521 22.2372C41.105 22.2631 40.9435 22.3122 40.891 22.4079C40.789 22.5936 36.082 30.7975 35.4113 31.9585C35.1116 32.4772 34.8722 32.9346 34.8793 32.9749C34.8864 33.0152 35.2751 33.2702 35.7431 33.5415L36.5941 34.0348L37.342 33.1939C38.6216 31.7553 40.1304 30.3936 41.4952 29.446C43.8127 27.8369 46.1712 26.5462 48.3542 25.6923C48.8266 25.5075 48.8418 25.4912 48.7941 25.2204C48.7231 24.8166 48.8381 23.2316 49.0054 22.3076C49.2876 20.7499 49.9439 18.8436 50.7356 17.2818C51.0048 16.7505 51.2177 16.2761 51.2086 16.2277C51.1644 15.9947 49.6788 15.0025 47.5137 13.7601C46.199 13.0058 45.0087 12.3205 44.8684 12.2372C44.1988 11.84 39.6005 9.22398 39.5828 9.23027C39.5718 9.23431 39.096 9.88727 38.5255 10.6815Z" fill="black"/>
</svg>
