<svg width="259" height="186" viewBox="0 0 259 186" fill="none" xmlns="http://www.w3.org/2000/svg">
<path d="M186.845 126.61C186.563 125.466 186.819 124.384 187.611 123.364" stroke="#ECC8B0" stroke-width="1.2"/>
<path d="M215.679 169.155C213.512 183.573 145.646 175.108 106.046 169.155C74.846 164.465 0.505002 151.553 2.67242 137.135C4.01567 128.199 24.8364 126.999 54.2498 128.9C72.2969 130.066 97.7591 134.462 110.65 136.4C128.875 139.14 148.932 140.847 166.15 144.935C194.846 151.748 217.034 160.143 215.679 169.155Z" fill="#DDE0CD"/>
<path d="M202.716 166.816C203.157 165.968 203.055 165.318 202.41 164.866C199.624 162.91 197.259 160.926 195.314 158.914C193.28 156.808 193.623 154.798 195.051 152.338C198.474 146.442 201.66 140.426 204.61 134.29C206.442 130.468 206.607 126.622 208.801 122.908C209.357 121.96 209.663 120.366 209.72 118.126C209.757 116.872 210.027 115.48 210.29 114.502C211.889 108.532 212.956 104.17 214.757 97.7143C216.988 89.7403 216.234 82.1863 215.253 74.0803" stroke="#D9C1A9" stroke-width="1.2"/>
<path d="M181.539 73.5404C181.805 74.0964 181.927 74.7864 181.907 75.6104" stroke="#B1EBDF" stroke-width="1.2"/>
<path d="M181.907 75.6104C180.857 80.4384 180.992 85.2263 182.311 89.9743C182.806 91.7623 183.937 94.3083 185.706 97.6123C189.023 103.812 191.431 109.19 192.93 113.746C193.421 115.246 193.486 117.086 193.127 119.266C192.959 120.274 192.499 121.444 191.748 122.776C190.171 125.564 188.986 128.5 188.194 131.584C186.944 136.438 187.55 142.186 187.648 147.382C187.734 152.236 186.919 155.446 184.566 159.364" stroke="#D9C1A9" stroke-width="1.2"/>
<path d="M180.032 40.1082C179.497 40.2602 179.058 40.4982 178.715 40.8222C178.567 40.9622 178.49 41.1342 178.482 41.3382C178.402 43.1802 178.053 44.5002 178.764 46.2882C178.874 46.5642 178.8 46.6242 178.543 46.4682C177.324 45.7182 177.538 44.1702 177.55 42.6222C177.553 42.5285 177.524 42.4364 177.469 42.3598C177.414 42.2831 177.335 42.2257 177.244 42.1962C176.97 42.1042 176.713 42.1682 176.472 42.3882C176.44 42.4166 176.399 42.4327 176.356 42.4336C176.313 42.4344 176.271 42.4199 176.238 42.3928C176.205 42.3656 176.183 42.3277 176.177 42.286C176.17 42.2444 176.179 42.2018 176.202 42.1662C176.382 41.9022 176.625 41.7102 176.931 41.5902C177.02 41.5556 177.097 41.4981 177.154 41.4241C177.212 41.35 177.247 41.2622 177.256 41.1702C177.385 40.0362 177.146 39.0942 177.489 37.9962C177.75 37.1562 177.971 36.2962 178.151 35.4162C178.19 35.2281 178.15 35.0298 178.04 34.8642C177.213 33.6162 176.049 33.0762 176.325 31.2762C176.349 31.1137 176.316 30.9481 176.231 30.808C176.146 30.6679 176.015 30.5619 175.859 30.5082C175.43 30.3522 175.128 30.5822 174.952 31.1982" stroke="#7B906D" stroke-width="1.2"/>
<path d="M174.952 31.1984C174.078 32.2504 173.234 33.3024 172.421 34.3544C170.963 36.2324 172.299 37.1144 172.911 38.8004C172.963 38.9442 172.965 39.1002 172.918 39.2444L172.103 41.6204C172.009 41.8924 171.929 41.8884 171.864 41.6084C171.745 41.1164 171.782 40.6444 171.974 40.1924C172.064 39.9724 172.074 39.7504 172.005 39.5264C171.796 38.8504 171.422 38.2764 170.883 37.8044C170.744 37.6834 170.645 37.5243 170.601 37.3484C170.287 36.1164 170.395 34.9164 170.926 33.7484C171.016 33.5528 171.052 33.3383 171.032 33.1258C171.011 32.9133 170.935 32.7102 170.81 32.5364L170.638 32.3024C170.397 31.9704 170.164 31.9764 169.94 32.3204C168.334 34.7924 169.419 37.3364 169.805 39.8264C169.811 39.8685 169.806 39.9115 169.791 39.9515C169.777 39.9915 169.753 40.0275 169.721 40.0564C169.689 40.0853 169.65 40.1062 169.608 40.1173C169.566 40.1285 169.522 40.1295 169.48 40.1204L169.216 40.0664C169.069 40.0339 168.936 39.9552 168.839 39.8425C168.741 39.7298 168.685 39.5893 168.677 39.4424C168.591 37.6504 168.336 35.9744 167.911 34.4144C167.699 33.6264 167.913 32.5044 168.555 31.0484C168.736 30.6467 168.758 30.1931 168.616 29.7764L168.359 29.0144C168.199 28.5464 168.013 28.5364 167.801 28.9844C166.559 31.5644 166.561 34.1204 167.807 36.6524C167.899 36.8402 167.931 37.0493 167.899 37.2524C167.678 38.6364 167.689 39.9944 167.93 41.3264" stroke="#F5C2A1" stroke-width="1.2"/>
<path d="M165.068 36.3764C163.891 34.3484 163.659 32.2764 164.369 30.1604C164.416 30.0221 164.421 29.8739 164.383 29.7331C164.346 29.5923 164.268 29.4649 164.159 29.3658C164.049 29.2668 163.913 29.2003 163.765 29.1741C163.618 29.148 163.466 29.1634 163.328 29.2184L163.174 29.2844C162.492 29.5604 162.339 29.3884 162.715 28.7684L163.904 26.8184" stroke="#F5C2A1" stroke-width="1.2"/>
<path d="M160.025 26.9503C159.715 27.2023 159.547 27.5643 159.523 28.0363C159.478 28.8843 159.276 28.9263 158.916 28.1623L158.536 27.3523" stroke="#F5C2A1" stroke-width="1.2"/>
<path d="M157.592 27.4844L157.438 27.8564C157.112 28.6684 156.862 28.6464 156.691 27.7904L156.568 27.1664" stroke="#F5C2A1" stroke-width="1.2"/>
<path d="M157.592 27.4844C157.808 27.6404 158.123 27.5964 158.535 27.3524" stroke="#E3C4AC" stroke-width="1.2"/>
<path d="M200.921 37.9003C200.492 37.3163 200.063 36.7443 199.634 36.1843C198.605 34.8583 197.067 34.3843 196.129 33.4663C195.263 32.6143 194.213 30.9023 192.979 28.3303" stroke="#B2BB96" stroke-width="1.2"/>
<path d="M192.979 28.3303C192.987 27.8983 193.016 27.4123 193.065 26.8723C193.237 25.0543 194.162 24.5863 193.365 22.4623C193.351 22.4269 193.327 22.3964 193.295 22.3742C193.264 22.3521 193.226 22.3393 193.187 22.3374C193.149 22.3355 193.11 22.3446 193.076 22.3635C193.043 22.3825 193.015 22.4105 192.998 22.4443C192.63 23.1723 192.132 23.8043 191.502 24.3403C191.323 24.4963 191.263 24.6883 191.325 24.9163C191.699 26.2183 192.771 26.8123 191.57 28.3603C191.133 28.9203 190.871 29.3183 190.786 29.5543C190.483 30.3623 190.667 30.4803 191.337 29.9083L192.74 28.7083" stroke="#F5C2A1" stroke-width="1.2"/>
<path d="M192.74 28.7083C192.519 29.5123 192.581 29.9682 193.169 30.6282C194.499 32.1102 194.732 33.4903 194.339 35.5363C193.966 37.5043 193.72 39.9883 192.869 41.5723C190.148 46.6243 184.131 42.9462 180.601 40.1083C180.466 39.9963 180.276 39.9963 180.031 40.1083" stroke="#B2BB96" stroke-width="1.2"/>
<path d="M192.979 28.3303L192.74 28.7083" stroke="#7B906D" stroke-width="1.2"/>
<path d="M202.317 43.4683C200.875 45.6923 199.462 47.0683 198.077 47.5963C196.831 48.0683 194.813 48.4963 192.023 48.8803C189.97 49.1623 188.451 50.7343 186.637 51.3883C182.666 52.8203 178.487 53.3403 174.1 52.9483" stroke="#B2BB96" stroke-width="1.2"/>
<path d="M171.734 48.4664C172.829 45.3704 174.085 42.5004 175.503 39.8564C176.949 37.1624 176.018 33.8024 174.951 31.1984" stroke="#B2BB96" stroke-width="1.2"/>
<path d="M214.775 72.2083C211.987 72.5203 209.254 73.0963 206.589 73.2523C202.722 73.4803 198.709 73.8943 195.032 73.7203C193.19 73.6323 191.039 73.4802 188.58 73.2642C186.443 73.0802 184.096 73.1723 181.539 73.5403" stroke="#B2BB96" stroke-width="1.2"/>
<path d="M215.253 74.0803C211.887 76.2203 208.988 78.8663 206.558 82.0183C204.683 84.4543 203.004 86.1043 200.92 87.9223C200.846 87.9878 200.758 88.0361 200.662 88.0635C200.567 88.091 200.466 88.0968 200.367 88.0806C200.269 88.0645 200.175 88.0267 200.094 87.9702C200.013 87.9137 199.945 87.8399 199.897 87.7543C198.676 85.5943 197.272 83.5463 195.687 81.6103C192.207 77.3623 187.613 75.3623 181.906 75.6103" stroke="#B2BB96" stroke-width="1.2"/>
<path d="M160.025 26.9503C161.352 26.6023 162.645 26.5583 163.904 26.8183L162.715 28.7683C162.339 29.3883 162.492 29.5603 163.174 29.2843L163.328 29.2183C163.466 29.1633 163.618 29.148 163.765 29.1741C163.913 29.2002 164.049 29.2668 164.158 29.3658C164.268 29.4648 164.346 29.5923 164.383 29.7331C164.421 29.8738 164.416 30.0221 164.369 30.1603C163.659 32.2763 163.891 34.3483 165.068 36.3763C163.714 36.2923 162.586 35.8423 161.275 35.9563C158.517 36.1903 155.607 36.5623 152.941 36.4243C148.268 36.1843 143.552 35.4623 138.792 34.2583C137.591 33.9543 136.527 33.5563 135.6 33.0643C135.42 32.9643 135.322 32.8143 135.306 32.6143C135.196 31.1983 135.249 29.9963 135.465 29.0083C136.147 25.9003 137.175 22.1603 138.547 17.7883C139.117 15.9643 139.565 14.2183 139.019 12.1663C138.451 10.0343 138.018 7.83233 137.72 5.56033C137.667 5.16433 137.843 4.92833 138.247 4.85233C140.471 4.44433 143.505 3.53833 145.827 3.97033C145.993 4.00261 146.14 4.09658 146.236 4.23221C146.332 4.36784 146.37 4.53439 146.342 4.69633C146.052 6.36033 145.962 7.54633 146.072 8.25433C146.399 10.3863 147.081 10.5003 148.119 8.59633C148.294 8.27233 148.513 7.64633 148.774 6.71833C148.819 6.55867 148.923 6.42105 149.066 6.3323C149.209 6.24356 149.38 6.21006 149.547 6.23833C149.996 6.31033 150.186 6.60033 150.116 7.10833C149.753 9.82833 148.725 11.8643 147.034 13.2163C145.649 14.3263 144.203 15.2563 143.627 16.9843C142.561 20.1883 142.696 23.8243 142.886 27.1783C142.891 27.2584 142.927 27.3335 142.988 27.3874C143.049 27.4413 143.129 27.4696 143.211 27.4663L156.283 27.248L160.025 26.9503Z" fill="#F3AC8F"/>
<path d="M194.977 11.4462C195.009 13.7222 194.613 15.9062 193.788 17.9982C193.752 18.0896 193.742 18.1885 193.757 18.2851C193.773 18.3817 193.813 18.4725 193.875 18.5485C193.937 18.6245 194.019 18.6829 194.111 18.718C194.203 18.753 194.303 18.7634 194.401 18.7482C196.827 18.3882 199.266 18.3622 201.717 18.6702C202.644 18.7902 204.434 19.2702 207.085 20.1102C211.534 21.5202 216.718 21.8382 221.375 22.4202C222.514 22.5642 223.397 22.7022 224.536 22.2702C229.696 20.2842 235.205 20.8302 240.511 20.5602C242.65 20.4522 243.734 20.2842 245.279 18.6822C247.932 15.9162 248.097 15.2502 252.307 15.0342C254.893 14.8982 256.974 15.8102 258.551 17.7702C258.597 17.8287 258.627 17.8981 258.638 17.9714C258.648 18.0446 258.639 18.1192 258.611 18.1874C258.583 18.2556 258.537 18.3151 258.478 18.3599C258.419 18.4046 258.349 18.4331 258.275 18.4422C256.56 18.6702 255.218 17.6442 253.643 18.8982C252.448 19.8462 248.98 23.6142 247.086 23.6682C243.957 23.7602 240.967 24.4582 238.115 25.7622C235.105 27.1382 231.994 28.2162 228.783 28.9962C226.025 29.6622 223.054 29.2962 220.131 29.3982C214.665 29.9302 209.285 29.5882 203.99 28.3722C201.325 27.7602 200.038 28.7682 200.338 31.3962C200.579 33.5122 200.773 35.6802 200.92 37.9002C200.492 37.3162 200.063 36.7442 199.634 36.1842C198.604 34.8582 197.066 34.3842 196.129 33.4662C195.263 32.6142 194.213 30.9022 192.979 28.3302L192.74 28.7082C192.519 29.5122 192.581 29.9682 193.169 30.6282C194.499 32.1102 194.731 33.4902 194.339 35.5362C193.966 37.5042 193.72 39.9882 192.869 41.5722C190.148 46.6242 184.131 42.9462 180.601 40.1082C180.466 39.9962 180.276 39.9962 180.031 40.1082L179 40.5C179.969 39.1274 180.429 38.304 180.472 36.3462C180.399 35.2302 180.773 34.2342 180.417 33.2082C180.08 32.2302 179.455 31.4022 179.559 30.3582C179.78 28.1382 180.491 26.2662 179.327 23.9322C178.034 21.3702 180.148 19.0182 181.814 16.3902C181.925 16.2182 182.072 16.0822 182.256 15.9822C183.399 15.3782 184.133 14.3702 184.455 12.9582C184.946 10.8222 188.457 11.4102 189.976 11.7042C191.184 11.9322 191.919 11.5722 192.912 11.0502C193.088 10.9583 193.295 10.9389 193.488 10.9962L194.977 11.4462Z" fill="#F3AC8F"/>
<path d="M193.253 27.1971L193.069 27.6047L191.847 28.9883C191.263 29.648 191.065 29.5567 191.251 28.7145C191.304 28.4689 191.507 28.0384 191.862 27.423C192.836 25.7229 191.691 25.2839 191.14 24.0466C191.048 23.8294 191.079 23.631 191.236 23.4515C191.784 22.8332 192.19 22.1379 192.452 21.3659C192.465 21.3299 192.489 21.2984 192.519 21.2749C192.55 21.2515 192.587 21.2371 192.626 21.2336C192.664 21.2301 192.703 21.2376 192.737 21.2551C192.772 21.2726 192.8 21.2995 192.819 21.3325C193.904 23.325 193.052 23.9172 193.136 25.7414C193.162 26.283 193.201 26.7682 193.253 27.1971Z" fill="#6C3B0E"/>
<path d="M192.979 28.3303C194.213 30.9023 195.263 32.6143 196.129 33.4663C197.066 34.3843 198.604 34.8583 199.634 36.1843C200.063 36.7443 200.491 37.3163 200.92 37.9003C201.603 39.3843 201.952 40.5203 201.968 41.3083C201.993 42.4083 202.109 43.1283 202.318 43.4683C200.875 45.6923 199.462 47.0683 198.077 47.5963C196.831 48.0683 194.813 48.4963 192.023 48.8803C189.97 49.1623 188.451 50.7343 186.637 51.3883C182.666 52.8203 178.487 53.3403 174.1 52.9483L171.734 48.4663C172.829 45.3703 174.085 42.5003 175.503 39.8563C176.949 37.1623 176.018 33.8023 174.951 31.1983C175.127 30.5823 175.429 30.3523 175.858 30.5083C176.014 30.562 176.146 30.668 176.231 30.8081C176.315 30.9482 176.349 31.1138 176.324 31.2763C176.048 33.0763 177.212 33.6163 178.04 34.8643C178.15 35.0299 178.189 35.2282 178.15 35.4163C177.97 36.2963 177.75 37.1563 177.488 37.9963C177.145 39.0943 177.384 40.0363 177.255 41.1703C177.246 41.2623 177.211 41.3501 177.154 41.4242C177.096 41.4982 177.019 41.5557 176.931 41.5903C176.624 41.7103 176.381 41.9023 176.201 42.1663C176.178 42.2019 176.169 42.2445 176.176 42.2861C176.182 42.3278 176.204 42.3657 176.237 42.3929C176.27 42.42 176.312 42.4345 176.355 42.4337C176.398 42.4328 176.439 42.4167 176.471 42.3883C176.712 42.1683 176.969 42.1043 177.243 42.1963C177.334 42.2258 177.413 42.2832 177.468 42.3599C177.523 42.4365 177.552 42.5286 177.55 42.6223C177.537 44.1703 177.323 45.7183 178.542 46.4683C178.8 46.6243 178.873 46.5643 178.763 46.2883C178.052 44.5003 178.401 43.1803 178.481 41.3383C178.489 41.1343 178.567 40.9623 178.714 40.8223C179.057 40.4983 179.496 40.2603 180.031 40.1083C180.276 39.9963 180.466 39.9963 180.601 40.1083C184.131 42.9463 190.148 46.6243 192.869 41.5723C193.72 39.9883 193.966 37.5043 194.339 35.5363C194.731 33.4903 194.499 32.1103 193.169 30.6283C192.581 29.9683 192.519 29.5123 192.74 28.7083L192.979 28.3303Z" fill="#025E73"/>
<path d="M174.952 31.1984C176.018 33.8024 176.95 37.1624 175.503 39.8564C174.086 42.5004 172.83 45.3704 171.735 48.4664L168.493 41.2364C168.408 41.0484 168.279 41.0144 168.107 41.1344C168.046 41.1784 167.987 41.2424 167.93 41.3264C167.689 39.9944 167.678 38.6364 167.899 37.2524C167.931 37.0493 167.899 36.8402 167.807 36.6524C166.561 34.1204 166.559 31.5644 167.801 28.9844C168.013 28.5364 168.199 28.5464 168.359 29.0144L168.616 29.7764C168.758 30.1931 168.736 30.6467 168.555 31.0484C167.913 32.5044 167.699 33.6264 167.911 34.4144C168.336 35.9744 168.591 37.6504 168.677 39.4424C168.685 39.5893 168.741 39.7298 168.839 39.8425C168.936 39.9552 169.069 40.0339 169.216 40.0664L169.48 40.1204C169.522 40.1295 169.566 40.1285 169.608 40.1173C169.65 40.1062 169.689 40.0853 169.721 40.0564C169.753 40.0275 169.777 39.9915 169.791 39.9515C169.806 39.9115 169.811 39.8685 169.805 39.8264C169.419 37.3364 168.334 34.7924 169.94 32.3204C170.164 31.9764 170.397 31.9704 170.638 32.3024L170.81 32.5364C170.935 32.7102 171.011 32.9133 171.032 33.1258C171.052 33.3383 171.016 33.5528 170.926 33.7484C170.395 34.9164 170.287 36.1164 170.601 37.3484C170.645 37.5243 170.744 37.6834 170.883 37.8044C171.422 38.2764 171.796 38.8504 172.005 39.5264C172.074 39.7504 172.064 39.9724 171.974 40.1924C171.782 40.6444 171.745 41.1164 171.864 41.6084C171.929 41.8884 172.009 41.8924 172.103 41.6204L172.918 39.2444C172.965 39.1002 172.963 38.9442 172.911 38.8004C172.299 37.1144 170.963 36.2324 172.421 34.3544C173.234 33.3024 174.078 32.2504 174.952 31.1984Z" fill="#F3AC8F"/>
<path d="M202.317 43.4683C202.9 45.4885 203.411 48.3283 203.85 51.9878C203.895 52.3667 203.896 52.7532 203.89 53.1347C203.749 61.2391 213.961 64.2756 214.775 72.2083C211.987 72.5203 209.254 73.0963 206.588 73.2523C202.722 73.4803 198.708 73.8943 195.032 73.7203C193.189 73.6323 191.039 73.4803 188.579 73.2643C186.443 73.0803 184.096 73.1723 181.539 73.5403C181.539 71.5999 181.824 70.0159 181.82 67.9999C181.816 65.8759 182.388 64.3919 182.126 63.4999C181.029 59.7799 176.397 56.0743 174.1 52.9483C178.487 53.3403 182.666 52.8203 186.637 51.3883C188.451 50.7343 189.97 49.1623 192.023 48.8803C194.813 48.4963 196.831 48.0683 198.077 47.5963C199.462 47.0683 200.875 45.6923 202.317 43.4683Z" fill="#025E73"/>
<path d="M214.775 72.2083C214.767 72.6763 215.051 72.9143 215.627 72.9223C215.819 72.9223 215.968 72.8443 216.075 72.6883C216.242 72.4443 216.467 72.2743 216.749 72.1783C216.945 72.1103 217.057 72.1763 217.086 72.3763L217.386 74.4643C217.468 75.0323 217.316 75.0903 216.932 74.6383C216.851 74.5463 216.738 74.3784 216.595 74.1344C216.452 73.8984 216.303 73.7704 216.148 73.7504C215.899 73.7184 215.601 73.8283 215.253 74.0803C211.887 76.2203 208.989 78.8664 206.558 82.0184C204.683 84.4544 203.004 86.1043 200.921 87.9223C200.847 87.9879 200.759 88.0361 200.663 88.0636C200.567 88.091 200.466 88.0968 200.368 88.0807C200.269 88.0645 200.176 88.0268 200.094 87.9702C200.013 87.9137 199.946 87.8399 199.898 87.7543C198.676 85.5943 197.273 83.5463 195.688 81.6103C192.207 77.3623 187.614 75.3623 181.907 75.6103C181.927 74.7863 181.805 74.0963 181.539 73.5403C184.096 73.1723 186.443 73.0803 188.58 73.2643C191.039 73.4803 193.19 73.6324 195.032 73.7204C198.709 73.8944 202.722 73.4804 206.589 73.2524C209.254 73.0964 211.987 72.5203 214.775 72.2083Z" fill="#025E73"/>
<path d="M215.254 74.0803C216.234 82.1863 216.988 89.7403 214.757 97.7143C212.956 104.17 211.889 108.532 210.29 114.502C210.027 115.48 209.757 116.872 209.72 118.126C209.663 120.366 209.357 121.96 208.801 122.908C206.607 126.622 206.442 130.468 204.61 134.29C201.66 140.426 198.474 146.442 195.051 152.338C193.623 154.798 193.28 156.808 195.314 158.914C197.259 160.926 199.624 162.91 202.41 164.866C203.055 165.318 203.158 165.968 202.716 166.816C201.093 167.638 199.364 168.676 197.514 168.682C196.529 168.682 195.749 168.634 195.173 168.538C191.93 166.446 188.641 164.79 185.308 163.57C184.756 163.366 184.272 162.958 183.8 162.61C183.518 161.466 183.774 160.384 184.566 159.364C186.919 155.446 187.734 152.236 187.648 147.382C187.55 142.186 186.944 136.438 188.194 131.584C188.986 128.5 190.171 125.564 191.748 122.776C192.499 121.444 192.959 120.274 193.127 119.266C193.486 117.086 193.421 115.246 192.93 113.746C191.431 109.19 189.023 103.812 185.706 97.6123C183.937 94.3083 182.806 91.7623 182.311 89.9743C180.992 85.2263 180.857 80.4383 181.907 75.6103C187.614 75.3623 192.207 77.3623 195.688 81.6103C197.273 83.5463 198.676 85.5943 199.898 87.7543C199.946 87.8399 200.013 87.9137 200.094 87.9702C200.176 88.0267 200.269 88.0645 200.368 88.0806C200.466 88.0968 200.567 88.091 200.663 88.0635C200.759 88.0361 200.847 87.9878 200.921 87.9223C203.004 86.1043 204.683 84.4543 206.558 82.0183C208.989 78.8663 211.887 76.2203 215.254 74.0803Z" fill="#F3AC8F"/>
<path d="M195.957 11.648L193.488 10.9964C193.295 10.939 193.088 10.9584 192.912 11.0504C191.919 11.5724 191.5 11.1756 189.5 13C187.5 14.8244 184.664 13.432 184.173 15.568C183.851 16.98 183.117 17.988 181.974 18.592C181.79 18.692 181.643 18.828 181.532 19C179.866 21.628 178.034 21.3703 179.326 23.9323C180.491 26.2663 179.78 28.1384 179.559 30.3584C179.455 31.4024 180.08 32.2304 180.417 33.2084C180.773 34.2344 180.399 35.2303 180.472 36.3463C180.208 38.2232 180.208 39.2399 178.714 40.8224C178.567 40.9624 178.489 41.1344 178.481 41.3384C178.401 43.1804 178.052 44.5004 178.763 46.2884C178.873 46.5644 178.8 46.6244 178.542 46.4684C177.323 45.7184 177.537 44.1704 177.549 42.6224C177.552 42.5286 177.523 42.4366 177.468 42.3599C177.413 42.2832 177.334 42.2259 177.243 42.1964C176.969 42.1044 176.712 42.1684 176.471 42.3884C176.439 42.4167 176.398 42.4328 176.355 42.4337C176.312 42.4345 176.27 42.42 176.237 42.3929C176.204 42.3658 176.182 42.3278 176.176 42.2862C176.169 42.2445 176.178 42.2019 176.201 42.1663C176.381 41.9023 176.624 41.7104 176.931 41.5904C177.019 41.5557 177.096 41.4983 177.154 41.4242C177.211 41.3501 177.246 41.2623 177.255 41.1704C177.384 40.0364 177.145 39.0943 177.488 37.9963C177.75 37.1563 177.97 36.2963 178.15 35.4163C178.189 35.2283 178.15 35.03 178.04 34.8643C177.212 33.6163 176.048 33.0764 176.324 31.2764C176.348 31.1138 176.315 30.9483 176.23 30.8081C176.145 30.668 176.014 30.562 175.858 30.5084V30.5084C175.042 30.2114 174.663 31.542 174.115 32.2165C173.536 32.9291 172.971 33.6417 172.421 34.3544C170.962 36.2324 172.298 37.1144 172.911 38.8004C172.963 38.9441 172.965 39.1001 172.917 39.2444L172.102 41.6204C172.008 41.8924 171.928 41.8884 171.863 41.6084C171.745 41.1164 171.781 40.6444 171.973 40.1924C172.063 39.9724 172.073 39.7504 172.004 39.5264C171.796 38.8504 171.422 38.2764 170.883 37.8044C170.859 37.7842 170.82 37.7624 170.769 37.74C170.278 37.5213 169.716 37.6292 169.68 38.1655C169.656 38.5112 169.681 39.0346 169.804 39.8264C169.81 39.8685 169.806 39.9114 169.791 39.9514C169.776 39.9915 169.752 40.0274 169.72 40.0563C169.688 40.0852 169.65 40.1061 169.608 40.1172C169.566 40.1284 169.522 40.1295 169.479 40.1204L169.216 40.0663C169.068 40.0338 168.935 39.9551 168.838 39.8424C168.741 39.7297 168.684 39.5892 168.677 39.4424C168.635 38.567 168.426 37.4544 168.224 36.5452C168.163 36.2739 167.806 36.319 167.806 36.5969V36.5969C167.806 36.6334 167.815 36.6692 167.83 36.7028C167.904 36.8771 167.928 37.0673 167.898 37.2524V37.2524C167.472 39.9247 167.659 42.6998 167.687 45.4056C167.695 46.1046 167.705 46.8106 167.684 47.5303C167.68 47.7743 167.574 47.8264 167.365 47.6864C166.875 47.3584 166.679 46.8764 166.777 46.2404C166.809 46.0318 166.83 45.8369 166.843 45.6538C167.043 42.7299 166.426 39.8445 165.442 37.0837C165.352 36.8291 165.23 36.5912 165.067 36.3764C163.891 34.3484 163.658 32.2764 164.369 30.1604C164.415 30.0221 164.42 29.8739 164.383 29.7331C164.346 29.5923 164.268 29.4649 164.158 29.3658C164.048 29.2668 163.912 29.2003 163.765 29.1741C163.618 29.148 163.466 29.1634 163.327 29.2184L163.174 29.2844C162.492 29.5604 162.124 29.62 162.5 29L163.138 28.0084C163.44 27.5378 163.055 26.9282 162.5 27V27L161 26.9504H160.024L156.568 27.1663C156.699 25.3943 157.263 23.8904 158.26 22.6544C159.436 21.2024 161.342 21.3284 162.794 20.1044C164.706 18.4964 167.239 16.7364 170.392 14.8244C174.075 12.5864 173.805 7.64235 176.048 4.43236C177.535 2.29236 179.488 1.00435 181.906 0.568354C182.58 0.448354 183.9 0.486355 185.865 0.682355C187.917 0.892355 189.223 1.98435 191.165 2.36235C194.676 3.04035 194.989 5.486 196 8C196.423 9.05 197.409 10.928 195.957 11.648Z" fill="#6C3B0E"/>
</svg>
