<svg width="950" height="228" viewBox="0 0 950 228" fill="none" xmlns="http://www.w3.org/2000/svg">
<path d="M551.268 172.824C549.84 171.579 550.811 169.295 552.701 169.433C571.675 170.814 633.583 174.837 670.5 171.5C721.015 166.934 772.957 155.776 800.5 152C856.496 144.323 988.591 166.885 939 194C931.936 197.862 923.786 198.357 920 202C911.919 209.775 917.714 220.439 906.5 220.5C898.372 220.544 895.283 214.344 887.5 212C862.617 204.505 835.175 242.598 821.5 220.5C819.582 217.4 819.684 215.02 817.642 212C807.55 197.072 789.421 213.883 771.5 212C744.556 209.169 731.458 191.301 704.5 194C684.762 195.976 676.837 212.069 657 212C644.78 211.957 638.398 207.789 626.5 205C608.702 200.828 597.493 201.886 581 194C570.45 188.955 557.752 178.482 551.268 172.824Z" fill="white"/>
<path d="M336.303 124.663C338.794 124.243 339.446 116.661 336.978 116.122C310.902 110.43 276.383 102.113 253.328 93.5539C205.779 75.9015 158.58 51.5142 132.99 40.648C80.9667 18.5567 -52.4221 5.69145 -11.6764 44.8614C-5.87242 50.4408 1.86254 53.0555 4.56107 57.5635C10.3205 67.185 1.93262 75.957 12.7377 78.9561C20.5702 81.1302 25.1761 75.9573 33.3017 75.7357C59.2795 75.0273 80.0572 100.666 99.0483 82.9267C101.712 80.4383 102.238 78.1147 105 75.7357C118.653 63.9759 131.74 84.9529 149.528 87.8349C176.272 92.1682 190.806 82.7842 216.114 92.4572C234.643 99.5396 238.071 117.148 257.232 122.283C269.036 125.446 276.287 123.097 288.5 123.525C306.77 124.166 317.309 128.126 335.292 124.841C335.627 124.78 335.964 124.721 336.303 124.663Z" fill="white"/>
<path d="M267.622 107.319C265.618 105.781 268.591 98.776 271.024 99.4553C296.732 106.632 331.128 115.441 355.507 118.67C405.788 125.329 458.913 125.873 486.612 128.25C542.925 133.081 666.819 184.153 612.477 199.693C604.737 201.906 596.678 200.596 592.183 203.316C582.589 209.123 585.895 220.801 574.943 218.393C567.004 216.648 565.356 209.92 558.279 205.921C535.655 193.134 505.292 206.064 496.814 181.499C495.625 178.053 496.248 175.753 494.921 172.358C488.361 155.575 466.977 167.986 449.91 162.206C424.248 153.516 415.797 138.42 388.906 135.121C369.216 132.706 357.945 146.661 338.61 142.229C326.698 139.499 321.39 134.029 310.397 128.69C293.953 120.704 282.785 119.27 268.432 107.949C268.165 107.738 267.895 107.528 267.622 107.319Z" fill="white"/>
</svg>
