<svg width="1340" height="318" viewBox="0 0 1340 318" fill="none" xmlns="http://www.w3.org/2000/svg">
<path d="M0 51.1108C0 25.7814 24.5589 7.69208 48.7703 15.1345C93.9007 29.0072 161.473 49.4329 212.174 63.2534C267.666 78.38 353.299 99.3187 361.157 101.237C361.587 101.342 361.884 101.42 362.31 101.539C371.038 103.978 477.909 133.639 548.792 143.403C668.333 159.871 737.999 124.071 857.198 143.403C1003.06 167.06 1070.23 236.834 1215.46 264.954C1284.35 278.294 1385.53 283.564 1424.19 285.167C1433.03 285.533 1440 292.791 1440 301.641V301.641C1440 310.676 1432.68 318 1423.64 318H37.5C16.7894 318 0 301.211 0 280.5V51.1108Z" fill="#0388A6"/>
<path d="M586.602 167.06C588.977 170.133 590.874 174.243 594.715 174.819C597.175 175.188 599.898 175.349 600.932 178.053C603.963 185.994 637.966 193.45 643.584 200.676C647.815 206.118 651.519 211.833 656.457 216.669C660.945 221.055 665.821 226.285 669.441 229.215C670.769 230.287 671.862 231.213 672.722 231.994C677.702 236.532 683.244 240.627 688.37 245.062C692.122 248.32 696.131 250.984 699.918 254.096C703.988 257.441 707.086 259.783 709.213 261.122C712.792 263.379 715.934 265.375 719.499 268.147C726.865 273.881 734.897 277.6 743.151 283.236C744.432 283.94 746.891 285.087 750.531 286.676C755.455 288.824 760.47 291.7 764.895 293.678C780.677 300.732 792.593 305.887 800.644 309.143C802.604 309.931 804.132 310.58 805.228 311.09C809.321 312.983 813.205 314.469 817.644 315.646V315.646C819.879 316.242 818.419 317.6 816.106 317.6H506.826C505.857 317.6 504.26 316.377 503.366 316.004V316.004C498.358 313.911 493.482 310.623 489.334 307.432C487.122 305.727 484.937 304.362 482.696 302.857C478.632 300.127 474.63 296.887 470.503 293.993C466.126 290.941 461.77 287.143 457.963 283.722C453.732 279.92 449.496 276.126 445.256 272.34C443.147 270.453 441.559 268.275 439.402 266.309C436.526 263.688 433.754 260.988 431.086 258.21C427.86 254.848 421.41 248.715 417.324 243.4C414.002 239.068 411.387 235.998 408.349 232.309C403.563 226.497 271.013 199.225 266.775 193C264.382 189.481 262.842 185.544 260.345 180.101C260.27 179.934 260.123 179.799 259.936 179.725V179.725C259.068 179.377 258.5 178.536 258.5 177.602V102.389V74.092L360 102.237L470.503 123L563.864 146.752C569.545 148.197 574.579 151.502 578.163 156.14L586.602 167.06Z" fill="#1D7591"/>
<path d="M-2.80859 150.23C-2.80859 149.105 -1.68319 148.328 -0.631082 148.726V148.726C-0.347347 148.832 -0.124763 149.025 -0.0104379 149.264C3.77654 157.047 6.11184 162.678 9.74103 167.71C16.1684 176.612 29.7416 183.188 37 191.5C41.6075 196.775 45.5733 201.166 50.6121 207.361C56.808 214.961 59.1611 226.259 64.0526 231.066C68.0991 235.04 72.3033 238.901 76.6653 242.649C79.9369 245.46 82.3458 248.575 85.5437 251.273C91.9745 256.688 98.3984 262.113 104.815 267.55C110.59 272.444 117.197 277.876 123.834 282.24C130.093 286.378 136.163 291.012 142.327 294.916C145.725 297.068 149.039 299.02 152.394 301.458C158.685 306.022 166.08 310.725 173.675 313.718V313.718C175.666 314.5 174.163 316 172.024 316H34.6914C13.9807 316 -2.80859 299.211 -2.80859 278.5V150.23Z" fill="#258190"/>
<path d="M285.337 102.943C288.729 107.333 291.439 113.205 296.926 114.027C300.441 114.554 304.331 114.785 305.808 118.646C310.139 129.992 358.714 140.643 366.74 150.965C372.784 158.74 378.075 166.904 385.13 173.812C391.541 180.079 398.507 187.55 403.679 191.736C405.575 193.267 407.137 194.59 408.366 195.706C415.48 202.189 423.397 208.039 430.719 214.375C436.08 219.029 441.807 222.834 447.217 227.28C453.03 232.059 457.456 235.404 460.495 237.317C465.608 240.541 470.096 243.393 475.189 247.354C485.712 255.544 497.186 260.857 508.978 268.909C510.807 269.914 514.322 271.552 519.52 273.823C526.555 276.891 533.719 281 540.041 283.825C562.587 293.902 579.609 301.266 591.11 305.918C593.911 307.045 596.094 307.972 597.66 308.7C603.506 311.404 609.054 313.528 615.396 315.209V315.209C618.589 316.06 616.504 318 613.2 318H171.371C169.987 318 167.706 316.253 166.428 315.721V315.721C159.274 312.73 152.308 308.033 146.383 303.474C143.222 301.038 141.7 297.649 138.5 295.5C132.694 291.6 126.976 286.971 121.081 282.837C114.828 278.478 108.606 273.052 103.166 268.164C97.1217 262.732 89.4712 258.751 83.4138 253.343C80.4016 250.647 78.1325 247.536 75.0509 244.727C70.9422 240.983 66.982 237.126 63.1705 233.157C58.563 228.355 52.3362 216.092 46.5 208.5C41.7538 202.312 38.0182 197.926 33.6783 192.656C26.8413 184.353 18.0665 178.761 12.0124 169.869C8.75176 165.074 3.512 155.899 3.03502 155.062C3.00913 155.016 2.98843 154.971 2.95856 154.929V154.929C2.69474 154.549 2.36339 154.206 2.27154 153.754L0.612882 145.578C0.332603 144.196 0.191406 142.79 0.191406 141.38V40.4237V0L253.648 73.7059C261.271 75.9227 267.994 80.5018 272.849 86.7837L285.337 102.943Z" fill="#006788"/>
</svg>
