<?xml version="1.0" encoding="UTF-8" standalone="no"?>
<!DOCTYPE svg PUBLIC "-//W3C//DTD SVG 1.1//EN" "http://www.w3.org/Graphics/SVG/1.1/DTD/svg11.dtd">
<svg xmlns="http://www.w3.org/2000/svg" version="1.1" viewBox="0.00 0.00 366.00 488.00">
<g stroke-width="2.00" fill="none" stroke-linecap="butt">
<path stroke="#a09f92" vector-effect="non-scaling-stroke" d="
  M 159.62 131.72
  C 170.86 132.14 184.70 131.98 200.09 132.72
  Q 207.26 133.07 219.92 133.36
  Q 230.96 133.62 249.27 134.36
  Q 269.90 135.18 317.28 135.04
  C 323.51 135.02 329.89 135.62 336.14 135.99
  A 0.96 0.96 0.0 0 0 337.16 135.04
  C 337.38 118.54 337.16 102.54 337.22 86.51
  C 337.26 76.52 336.91 63.86 332.79 54.86
  C 328.81 46.16 322.55 39.22 312.54 38.16
  Q 296.32 36.44 282.75 36.41
  Q 229.63 36.30 176.50 36.40
  C 160.24 36.43 144.59 36.29 127.76 37.07
  C 106.57 38.04 85.38 37.50 64.25 37.80
  C 53.19 37.96 41.22 47.91 37.37 58.02
  Q 35.98 61.66 35.50 63.75
  C 30.80 83.92 32.24 102.67 32.93 125.00
  Q 32.97 126.51 33.18 127.61
  Q 33.58 129.80 35.59 128.83
  C 37.16 128.08 38.50 127.00 40.09 126.42
  C 46.38 124.11 51.56 121.71 58.50 121.80
  C 65.37 121.89 71.95 123.00 78.75 123.56
  C 83.25 123.93 89.29 125.38 91.99 125.80
  Q 102.00 127.37 112.03 128.84
  C 127.76 131.15 143.76 131.13 159.62 131.72"
/>
<path stroke="#a0a59a" vector-effect="non-scaling-stroke" d="
  M 34.54 157.07
  Q 33.04 163.19 35.02 169.11
  C 36.20 172.63 42.07 171.44 44.83 170.41
  C 51.40 167.98 57.83 165.28 64.57 163.78
  C 75.26 161.39 85.27 159.52 96.30 160.06
  C 104.86 160.47 116.05 163.15 125.91 164.49
  C 129.99 165.04 135.98 166.63 141.25 166.71
  Q 161.13 167.01 181.00 166.67
  C 200.40 166.33 219.84 167.73 239.26 167.98
  C 261.38 168.26 283.46 169.87 305.58 169.92
  C 315.05 169.94 324.58 170.49 334.05 169.88
  Q 335.38 169.79 335.59 168.47
  Q 337.79 154.44 336.78 140.26
  A 0.52 0.51 -85.4 0 0 336.40 139.80
  Q 332.37 138.81 328.00 138.81
  C 306.91 138.83 285.83 137.81 264.74 137.57
  C 246.51 137.36 228.18 136.72 209.88 136.79
  C 188.60 136.87 167.44 135.25 146.18 134.98"
/>
<path stroke="#8482a0" vector-effect="non-scaling-stroke" d="
  M 146.18 134.98
  C 126.01 135.10 105.57 134.35 85.36 136.06
  C 79.96 136.52 74.26 136.53 69.26 137.41
  Q 56.59 139.65 45.71 144.41
  Q 37.03 148.21 34.54 157.07"
/>
<path stroke="#344f79" vector-effect="non-scaling-stroke" d="
  M 146.18 134.98
  Q 146.75 135.63 148.07 135.35
  Q 148.14 135.34 148.13 135.41
  Q 148.13 135.44 148.13 135.48
  Q 148.12 135.64 147.97 135.63
  C 146.08 135.46 144.20 136.12 142.67 136.24
  Q 123.21 137.77 103.74 139.12
  Q 93.39 139.83 89.55 141.51
  C 82.12 144.75 76.52 146.98 67.31 151.17
  Q 51.98 158.14 34.54 157.07"
/>
<path stroke="#a3ab9e" vector-effect="non-scaling-stroke" d="
  M 73.88 187.13
  Q 62.71 187.80 57.75 187.28
  Q 53.30 186.82 44.49 184.29
  C 40.13 183.04 36.37 183.15 34.06 187.19
  Q 33.02 189.01 33.35 192.20
  C 34.36 202.19 34.17 212.28 34.27 222.34
  Q 34.29 224.56 36.51 224.67
  C 48.66 225.28 58.45 225.21 71.50 221.70
  Q 77.86 219.99 96.81 212.33
  Q 110.38 206.85 129.77 204.62
  C 143.15 203.09 156.74 201.02 170.25 201.20
  C 196.68 201.56 223.07 202.29 249.50 201.72
  C 270.09 201.28 290.79 202.45 311.38 202.90
  C 316.52 203.02 325.90 202.86 333.02 203.51
  Q 334.67 203.66 334.83 202.01
  Q 336.28 187.65 335.84 173.19
  Q 335.82 172.27 334.90 172.25
  Q 313.36 171.64 292.22 172.38
  C 284.70 172.64 277.25 171.42 269.66 171.52
  C 262.67 171.60 255.56 172.02 248.58 171.68
  C 244.12 171.46 239.81 171.22 235.24 171.27
  Q 213.32 171.51 189.75 170.23
  Q 185.76 170.01 182.21 170.37"
/>
<path stroke="#8482a0" vector-effect="non-scaling-stroke" d="
  M 182.21 170.37
  C 159.48 169.59 140.58 169.22 115.01 171.10
  Q 107.26 171.68 98.49 175.40
  C 94.42 177.13 90.58 179.96 86.71 182.44
  Q 83.03 184.80 73.88 187.13"
/>
<path stroke="#37557d" vector-effect="non-scaling-stroke" d="
  M 182.21 170.37
  Q 181.26 171.65 178.00 171.71
  Q 163.76 171.95 144.75 174.49
  C 140.57 175.05 136.39 175.88 132.49 178.15
  C 125.99 181.93 119.72 186.80 112.38 188.39
  C 104.18 190.16 96.93 189.43 86.88 188.81
  Q 80.56 188.43 73.88 187.13"
/>
<path stroke="#8482a0" vector-effect="non-scaling-stroke" d="
  M 237.45 204.39
  C 225.60 205.22 213.73 205.69 201.86 206.41
  C 194.63 206.85 187.19 206.85 179.22 208.46
  C 165.07 211.30 152.07 211.12 142.33 223.83
  Q 141.48 224.93 137.89 226.47"
/>
<path stroke="#b9b7a9" vector-effect="non-scaling-stroke" d="
  M 137.89 226.47
  Q 137.10 225.87 135.49 226.02
  Q 105.16 228.73 74.75 227.34
  Q 70.50 227.14 66.25 227.40
  C 56.83 227.98 47.42 227.52 37.99 228.08
  Q 36.44 228.17 35.23 229.11
  Q 34.81 229.44 34.71 229.96
  C 34.18 232.82 32.94 243.64 35.49 245.55
  C 44.98 252.69 58.76 253.71 70.35 255.32
  C 76.96 256.23 84.05 255.96 90.75 256.25
  Q 101.68 256.72 122.99 254.69
  C 126.20 254.38 133.40 255.03 131.79 260.20
  Q 129.22 268.47 121.29 273.05
  Q 115.54 276.38 102.67 284.54
  C 99.08 286.82 95.68 289.08 91.92 291.13
  C 89.70 292.33 90.20 295.91 92.10 297.12
  Q 95.64 299.37 99.66 300.44
  Q 130.49 308.61 159.99 296.99
  Q 172.75 291.97 191.49 281.72
  C 200.44 276.83 207.56 273.37 216.02 269.87
  C 223.30 266.87 228.67 265.78 235.25 267.57
  C 239.80 268.81 244.29 272.35 244.72 277.51
  C 245.78 290.19 239.13 298.46 229.69 306.95
  Q 221.04 314.74 211.47 321.33
  Q 207.57 324.01 203.91 327.17
  C 200.99 329.69 183.19 341.74 191.66 346.40
  Q 194.11 347.74 195.75 348.00
  Q 210.35 350.29 222.88 350.62
  C 230.35 350.81 237.65 351.68 244.28 351.88
  Q 250.51 352.07 254.33 352.40
  C 278.60 354.49 297.89 354.68 319.75 355.25
  Q 327.92 355.46 335.90 355.11
  Q 336.69 355.07 336.70 354.29
  C 337.08 332.93 335.86 311.70 335.96 290.38
  C 336.06 271.83 337.67 253.48 337.16 234.88
  Q 336.81 222.16 336.38 209.45
  C 336.28 206.40 333.86 206.46 331.50 206.36
  Q 302.00 205.11 272.50 204.11
  C 260.82 203.71 249.11 203.43 237.45 204.39"
/>
<path stroke="#4d6188" vector-effect="non-scaling-stroke" d="
  M 137.89 226.47
  C 146.95 228.89 157.91 227.05 166.71 224.07
  C 173.32 221.84 180.68 216.50 187.98 213.92
  Q 194.53 211.61 204.13 209.27
  C 210.91 207.61 217.94 207.02 224.96 206.31
  C 228.39 205.97 233.74 206.07 238.12 205.18
  A 0.26 0.26 0.0 0 0 238.22 204.72
  Q 237.93 204.51 237.45 204.39"
/>
<path stroke="#7b6e63" vector-effect="non-scaling-stroke" d="
  M 60.61 261.30
  L 61.10 263.54
  Q 61.16 263.80 61.43 263.77
  L 61.73 263.74
  Q 61.98 263.71 61.95 263.46
  Q 61.52 260.01 60.86 258.33
  Q 59.72 255.44 58.77 258.39
  L 57.18 263.33
  Q 57.07 263.67 57.42 263.67
  L 57.68 263.67
  Q 57.71 263.67 57.72 263.65
  Q 58.23 262.50 58.78 261.15
  A 0.96 0.96 0.0 0 1 60.61 261.30"
/>
<path stroke="#7b6e63" vector-effect="non-scaling-stroke" d="
  M 63.94 262.49
  L 64.17 258.09
  Q 64.18 257.95 64.04 257.92
  L 63.79 257.87
  Q 63.66 257.84 63.65 257.97
  L 63.01 263.79
  Q 62.95 264.34 63.41 264.66
  Q 63.99 265.07 64.73 264.92
  Q 65.64 264.74 64.83 264.26
  Q 64.42 264.02 64.16 263.53
  Q 63.91 263.04 63.94 262.49"
/>
<path stroke="#7b6e63" vector-effect="non-scaling-stroke" d="
  M 67.3926 265.3195
  A 3.68 1.81 99.5 0 0 69.7852 261.9887
  A 3.68 1.81 99.5 0 0 68.6074 258.0605
  A 3.68 1.81 99.5 0 0 66.2148 261.3913
  A 3.68 1.81 99.5 0 0 67.3926 265.3195"
/>
<path stroke="#7b6e63" vector-effect="non-scaling-stroke" d="
  M 73.25 263.32
  Q 74.25 264.12 74.41 264.98
  Q 74.75 266.90 75.19 264.99
  Q 75.80 262.41 75.95 259.76
  Q 75.96 259.57 75.76 259.56
  L 75.47 259.56
  Q 75.25 259.55 75.23 259.77
  Q 75.06 261.62 74.40 263.34
  Q 74.01 264.37 73.86 263.28
  L 73.29 259.06
  Q 73.25 258.78 73.01 258.61
  Q 72.87 258.52 72.72 258.50
  Q 72.28 258.45 72.23 258.89
  L 71.48 264.91
  A 0.25 0.25 0.0 0 0 71.91 265.12
  Q 72.54 264.47 72.67 263.55
  Q 72.76 262.93 73.25 263.32"
/>
<path stroke="#7b6e63" vector-effect="non-scaling-stroke" d="
  M 78.59 261.53
  Q 78.65 260.27 79.56 259.40
  Q 80.00 258.98 79.41 258.83
  Q 78.89 258.69 78.34 259.00
  A 0.83 0.82 -9.9 0 0 77.94 259.56
  L 76.93 265.03
  A 0.62 0.61 -85.8 0 0 77.55 265.76
  L 79.74 265.72
  Q 80.25 265.71 79.92 265.32
  L 79.68 265.04
  Q 79.59 264.94 79.46 264.97
  L 78.47 265.16
  Q 77.86 265.28 77.82 264.66
  Q 77.67 262.46 79.52 262.69
  Q 80.31 262.78 79.80 262.17
  Q 79.54 261.86 79.06 261.94
  Q 78.56 262.03 78.59 261.53"
/>
<path stroke="#c4c3b5" vector-effect="non-scaling-stroke" d="
  M 67.54 267.68
  C 64.01 267.62 60.57 266.79 56.97 266.37
  C 50.18 265.58 44.31 263.85 38.00 262.03
  C 36.95 261.72 35.66 261.69 34.65 261.71
  A 1.37 1.36 1.6 0 0 33.32 262.96
  C 32.86 268.57 33.06 274.79 32.84 279.68
  Q 32.05 296.61 32.33 313.56
  Q 32.39 317.14 32.84 320.92
  C 33.56 327.11 33.26 332.07 37.59 337.16
  C 41.79 342.09 46.50 346.27 52.45 348.97
  C 63.48 353.98 74.82 354.28 86.85 353.02
  C 95.58 352.11 102.54 351.17 110.21 348.56
  C 114.10 347.24 124.02 342.98 127.53 344.29
  C 133.37 346.47 135.02 352.20 130.98 356.92
  C 128.54 359.78 125.60 362.83 124.09 365.75
  Q 119.67 374.24 124.06 383.61
  Q 127.36 390.64 130.18 393.57
  C 143.24 407.11 169.32 408.97 187.25 407.74
  C 208.12 406.31 230.91 403.13 252.87 401.69
  C 257.91 401.36 287.08 399.75 287.27 407.24
  C 287.44 414.15 276.50 415.99 273.70 422.48
  C 270.52 429.88 278.83 434.18 285.01 434.93
  C 293.28 435.93 306.63 434.65 314.21 431.38
  C 336.78 421.64 338.29 391.78 336.13 371.01
  A 1.22 1.21 -3.1 0 0 334.91 369.92
  Q 315.33 370.08 296.07 369.54
  C 289.06 369.35 280.80 370.05 274.75 369.72
  Q 257.84 368.79 240.91 368.19
  Q 234.06 367.94 227.14 367.24
  C 218.95 366.40 155.84 362.96 174.48 341.42
  C 183.59 330.88 192.54 324.17 201.85 315.60
  Q 206.57 311.26 219.38 301.86
  C 224.87 297.84 233.09 291.65 228.50 284.31
  Q 226.38 280.92 223.24 282.28
  C 217.48 284.77 211.61 287.09 206.15 290.04
  C 201.75 292.41 197.44 294.92 192.98 296.93
  Q 175.98 304.54 158.43 310.74
  C 148.36 314.29 140.27 314.75 128.51 316.75
  Q 100.33 321.54 73.45 308.71
  C 68.52 306.36 65.81 303.93 64.60 298.74
  C 63.30 293.15 68.11 290.56 71.57 288.58
  Q 75.78 286.18 82.16 283.38
  C 85.00 282.14 88.25 280.20 91.49 278.95
  C 97.03 276.83 99.85 275.64 104.01 273.84
  Q 108.32 271.97 107.73 266.96
  A 1.15 1.15 0.0 0 0 106.54 265.94
  C 96.78 266.29 87.10 267.71 77.34 267.76
  Q 72.44 267.78 67.54 267.68"
/>
<path stroke="#7b6e63" vector-effect="non-scaling-stroke" d="
  M 98.04 279.07
  L 98.27 278.72
  Q 98.60 278.22 98.06 278.47
  Q 97.64 278.66 97.33 279.03
  Q 97.02 279.41 97.35 279.78
  Q 98.96 281.58 99.73 283.90
  Q 99.75 283.96 99.81 283.95
  L 100.06 283.90
  Q 100.22 283.87 100.17 283.72
  Q 99.47 281.45 98.05 279.55
  Q 97.88 279.32 98.04 279.07"
/>
<path stroke="#7b6e63" vector-effect="non-scaling-stroke" d="
  M 94.82 287.24
  Q 94.89 287.49 95.08 287.66
  A 0.09 0.09 0.0 0 0 95.20 287.66
  Q 96.04 286.82 97.14 286.42
  Q 97.58 286.27 97.64 285.81
  Q 98.07 282.66 96.01 281.30
  Q 95.00 280.63 95.57 281.69
  L 97.05 284.44
  A 1.02 1.01 -33.0 0 1 96.77 285.73
  Q 95.77 286.50 94.77 286.20
  Q 94.38 286.08 94.15 286.42
  Q 94.00 286.65 94.12 287.06
  Q 94.15 287.16 94.25 287.14
  L 94.56 287.07
  Q 94.76 287.03 94.82 287.24"
/>
<path stroke="#7b6e63" vector-effect="non-scaling-stroke" d="
  M 92.97 285.87
  Q 93.12 285.91 93.25 285.82
  Q 93.98 285.29 93.95 285.00
  L 93.88 284.41
  A 0.29 0.29 0.0 0 0 93.36 284.26
  Q 93.07 284.62 92.99 285.05
  Q 92.82 285.97 92.05 285.43
  Q 91.38 284.96 91.18 284.18
  A 0.50 0.50 0.0 0 1 91.55 283.57
  Q 94.32 282.87 95.15 285.34
  A 0.26 0.26 0.0 0 0 95.66 285.28
  C 95.76 284.27 94.99 283.33 94.03 283.03
  Q 93.56 282.88 93.14 282.60
  A 1.27 1.26 59.7 0 0 92.35 282.39
  Q 90.57 282.50 90.49 284.19
  Q 90.47 284.60 90.72 284.92
  Q 91.91 286.42 92.86 288.05
  Q 93.00 288.30 93.19 288.37
  Q 93.41 288.45 93.64 288.42
  A 0.38 0.38 0.0 0 0 93.80 287.73
  Q 92.95 287.18 92.68 286.16
  A 0.24 0.24 0.0 0 1 92.97 285.87"
/>
<path stroke="#7b6e63" vector-effect="non-scaling-stroke" d="
  M 159.57 300.06
  L 161.42 299.47
  A 0.37 0.36 -53.3 0 0 161.32 298.76
  Q 159.18 298.73 157.81 300.24
  Q 157.32 300.77 158.04 300.72
  Q 158.53 300.69 158.91 300.40
  Q 159.22 300.18 159.57 300.06"
/>
<path stroke="#7b6e63" vector-effect="non-scaling-stroke" d="
  M 161.8641 306.9796
  A 3.45 0.34 73.6 0 0 161.2162 303.5740
  A 3.45 0.34 73.6 0 0 159.9159 300.3604
  A 3.45 0.34 73.6 0 0 160.5638 303.7660
  A 3.45 0.34 73.6 0 0 161.8641 306.9796"
/>
<path stroke="#7b6e63" vector-effect="non-scaling-stroke" d="
  M 156.78 308.54
  A 0.68 0.68 0.0 0 1 155.72 308.24
  Q 154.57 305.02 154.90 301.59
  Q 154.92 301.36 154.69 301.34
  L 154.42 301.31
  Q 154.17 301.29 154.14 301.54
  Q 153.74 304.78 154.78 307.74
  Q 155.65 310.23 157.39 309.05
  A 1.51 1.44 84.5 0 0 157.95 308.34
  Q 159.39 304.41 156.53 301.27
  Q 156.39 301.11 156.37 301.13
  L 156.13 301.32
  Q 155.98 301.44 156.08 301.61
  Q 157.73 304.19 157.40 307.25
  Q 157.30 308.13 156.78 308.54"
/>
<path stroke="#7b6e63" vector-effect="non-scaling-stroke" d="
  M 148.13 305.82
  L 151.81 310.43
  A 1.09 0.93 54.3 0 0 153.11 310.75
  Q 153.22 310.68 153.22 310.25
  Q 153.20 306.25 151.56 302.60
  Q 151.51 302.50 151.44 302.46
  Q 151.31 302.40 151.18 302.44
  Q 150.94 302.50 151.00 302.73
  L 152.24 307.98
  Q 152.73 310.02 151.37 308.42
  L 147.39 303.74
  Q 145.47 301.48 146.22 304.34
  L 148.06 311.33
  Q 148.13 311.57 148.36 311.49
  L 148.68 311.37
  Q 148.98 311.26 148.90 310.95
  L 147.60 306.08
  A 0.30 0.30 0.0 0 1 148.13 305.82"
/>
<path stroke="#e6c2ab" vector-effect="non-scaling-stroke" d="
  M 209.00 435.80
  C 221.55 435.96 234.05 435.22 246.50 433.63
  C 250.68 433.10 255.21 433.30 259.58 432.84
  A 1.65 1.65 0.0 0 0 261.04 430.98
  C 260.71 428.54 259.08 428.20 257.67 426.77
  A 1.78 1.77 -33.7 0 1 258.25 423.88
  Q 261.55 422.51 264.46 420.71
  C 266.84 419.25 272.69 411.79 268.02 409.36
  Q 264.06 407.30 258.72 408.00
  C 237.69 410.76 216.44 414.00 195.27 415.50
  Q 173.23 417.06 158.50 416.19
  C 146.68 415.49 138.60 412.98 127.68 407.87
  C 114.70 401.80 100.64 383.97 110.49 369.87
  C 112.73 366.67 113.87 364.58 114.52 361.21
  A 2.12 2.11 -71.5 0 0 113.39 358.92
  C 110.81 357.64 105.72 358.45 103.00 359.30
  C 93.22 362.35 83.53 366.55 72.81 365.56
  Q 56.50 364.06 43.57 354.05
  C 40.56 351.72 37.86 348.22 34.75 345.41
  A 0.52 0.51 40.2 0 0 34.00 345.47
  C 32.78 346.99 33.14 348.26 33.06 350.03
  Q 32.79 355.94 32.10 375.00
  C 31.62 388.24 31.79 402.22 36.31 414.50
  C 40.99 427.23 54.85 434.87 67.76 435.71
  C 81.08 436.57 95.19 435.03 109.00 434.97
  C 133.64 434.87 159.94 435.82 185.99 435.71
  Q 197.50 435.66 209.00 435.80"
/>
<path stroke="#7b6e63" vector-effect="non-scaling-stroke" d="
  M 228.99 362.47
  L 229.36 355.62
  Q 229.37 355.47 229.36 355.47
  L 229.08 355.43
  Q 228.79 355.39 228.76 355.68
  L 227.96 363.24
  Q 227.90 363.82 228.49 363.86
  L 230.93 364.04
  A 0.32 0.32 0.0 0 0 231.00 363.41
  L 229.55 363.16
  Q 228.96 363.06 228.99 362.47"
/>
<path stroke="#7b6e63" vector-effect="non-scaling-stroke" d="
  M 234.1360 363.9222
  A 4.16 1.89 93.5 0 0 236.2765 359.8854
  A 4.16 1.89 93.5 0 0 234.6440 355.6178
  A 4.16 1.89 93.5 0 0 232.5035 359.6546
  A 4.16 1.89 93.5 0 0 234.1360 363.9222"
/>
<path stroke="#7b6e63" vector-effect="non-scaling-stroke" d="
  M 239.92 362.38
  L 240.13 363.11
  Q 240.92 365.75 241.05 363.00
  L 241.39 356.19
  Q 241.40 355.97 241.18 355.97
  L 240.78 355.97
  Q 240.68 355.98 240.67 356.08
  Q 240.48 357.93 240.62 359.74
  Q 240.67 360.41 240.35 360.69
  Q 239.96 361.04 239.90 360.52
  Q 239.63 358.30 238.71 356.19
  Q 238.31 355.27 238.26 356.27
  L 237.97 363.26
  Q 237.95 363.73 238.42 363.73
  Q 238.83 363.74 238.87 363.25
  Q 238.89 362.97 238.77 362.08
  Q 238.72 361.69 239.10 361.77
  Q 239.31 361.81 239.49 361.89
  A 0.76 0.75 -86.8 0 1 239.92 362.38"
/>
<path stroke="#7b6e63" vector-effect="non-scaling-stroke" d="
  M 243.00 364.08
  L 243.69 364.13
  A 0.19 0.19 0.0 0 0 243.90 363.96
  L 243.91 363.81
  A 8.04 0.47 -85.4 0 0 244.09 355.76
  L 243.95 355.75
  A 8.04 0.47 -85.4 0 0 242.83 363.72
  L 242.82 363.87
  A 0.19 0.19 0.0 0 0 243.00 364.08"
/>
<path stroke="#7b6e63" vector-effect="non-scaling-stroke" d="
  M 248.38 363.87
  C 247.20 362.16 247.99 358.41 248.17 356.35
  Q 248.18 356.20 248.03 356.17
  L 248.02 356.17
  Q 247.78 356.14 247.75 356.31
  L 246.83 363.29
  Q 246.76 363.82 247.17 364.17
  Q 247.76 364.67 248.57 364.64
  Q 249.03 364.62 248.81 364.22
  Q 248.69 364.00 248.38 363.87"
/>
<path stroke="#7b6e63" vector-effect="non-scaling-stroke" d="
  M 252.95 358.15
  L 251.37 356.41
  A 0.30 0.30 0.0 0 0 250.90 356.78
  L 252.51 359.25
  Q 252.79 359.68 252.58 360.15
  L 250.73 364.23
  Q 250.67 364.36 250.79 364.43
  L 251.01 364.56
  A 0.34 0.34 0.0 0 0 251.49 364.41
  L 254.91 356.83
  Q 255.03 356.57 254.76 356.47
  L 254.50 356.38
  A 0.13 0.13 0.0 0 0 254.34 356.44
  L 253.66 358.03
  Q 253.40 358.64 252.95 358.15"
/>
<path stroke="#4d6188" vector-effect="non-scaling-stroke" d="
  M 261.05 215.94
  Q 258.88 219.54 256.12 221.84
  Q 255.35 222.50 255.18 223.36
  Q 255.06 223.98 255.61 223.67
  Q 260.12 221.18 261.96 216.93"
/>
<path stroke="#b9b7a9" vector-effect="non-scaling-stroke" d="
  M 261.96 216.93
  Q 263.42 216.28 264.59 214.57
  Q 264.91 214.09 264.49 213.71
  L 257.93 207.82
  A 0.57 0.57 0.0 0 0 256.98 208.24
  Q 256.98 209.92 257.82 211.69
  Q 258.52 213.17 261.05 215.94"
/>
<path stroke="#8482a0" vector-effect="non-scaling-stroke" d="
  M 261.96 216.93
  Q 261.49 216.58 261.05 215.94"
/>
<path stroke="#444e4a" vector-effect="non-scaling-stroke" d="
  M 265.83 209.81
  Q 266.62 210.21 267.05 210.97
  Q 268.13 212.89 268.48 210.71
  Q 268.53 210.39 268.28 209.87
  Q 267.98 209.29 267.33 209.27
  L 265.97 209.24
  A 0.30 0.30 0.0 0 0 265.83 209.81"
/>
<path stroke="#4d6188" vector-effect="non-scaling-stroke" d="
  M 268.57 222.67
  C 267.69 224.59 266.14 225.87 265.96 228.10
  A 0.90 0.90 0.0 0 0 267.34 228.93
  C 271.10 226.59 275.04 221.22 273.67 216.56
  Q 272.74 213.37 269.41 212.74
  A 2.22 2.22 0.0 0 0 266.78 214.87
  L 266.70 218.45
  Q 266.68 218.96 266.97 219.39
  L 268.49 221.67
  Q 268.81 222.15 268.57 222.67"
/>
<path stroke="#4d6188" vector-effect="non-scaling-stroke" d="
  M 269.2403 219.5773
  A 1.27 0.59 66.8 0 0 269.2823 218.1776
  A 1.27 0.59 66.8 0 0 268.2397 217.2427
  A 1.27 0.59 66.8 0 0 268.1977 218.6424
  A 1.27 0.59 66.8 0 0 269.2403 219.5773"
/>
<path stroke="#7b6e63" vector-effect="non-scaling-stroke" d="
  M 60.39 259.50
  L 60.19 258.77
  A 0.42 0.41 53.0 0 0 59.44 258.66
  Q 59.21 259.03 59.13 259.46
  Q 59.04 259.96 59.55 259.98
  L 59.99 260.00
  Q 60.54 260.03 60.39 259.50"
/>
<path stroke="#7b6e63" vector-effect="non-scaling-stroke" d="
  M 67.7157 264.0011
  A 2.57 0.81 98.6 0 0 68.9009 261.5811
  A 2.57 0.81 98.6 0 0 68.4843 258.9189
  A 2.57 0.81 98.6 0 0 67.2991 261.3389
  A 2.57 0.81 98.6 0 0 67.7157 264.0011"
/>
<path stroke="#c4c3b5" vector-effect="non-scaling-stroke" d="
  M 307.13 420.62
  L 307.99 416.04
  A 1.33 1.32 -2.1 0 0 306.35 414.52
  Q 305.65 414.70 305.03 414.53
  A 1.11 1.10 32.9 0 0 304.04 414.74
  Q 301.91 416.43 301.06 419.03
  Q 300.85 419.64 300.25 419.84
  L 293.89 421.91
  Q 293.80 421.94 293.81 422.03
  L 293.86 422.30
  A 0.24 0.24 0.0 0 0 294.14 422.51
  Q 297.25 422.05 300.21 421.40
  C 301.70 421.07 302.75 420.27 304.20 419.69
  A 0.30 0.30 0.0 0 0 304.13 419.11
  Q 302.78 418.91 301.61 419.64
  Q 301.48 419.73 301.33 419.65
  Q 301.20 419.58 301.16 419.47
  Q 301.12 419.34 301.28 419.13
  Q 303.12 416.73 305.48 414.86
  Q 305.88 414.55 306.26 414.87
  C 308.02 416.37 306.21 419.42 305.72 420.85
  Q 305.56 421.34 305.15 421.65
  Q 303.76 422.71 302.98 424.27
  Q 302.74 424.73 302.23 424.65
  C 300.94 424.45 299.75 424.85 298.55 424.56
  Q 297.71 424.35 297.58 424.67
  Q 296.80 426.59 298.67 425.64
  Q 300.13 424.90 301.69 425.43
  A 2.09 2.08 -57.1 0 0 303.80 424.97
  L 306.37 422.55
  Q 306.73 422.21 307.24 422.18
  L 312.31 421.95
  Q 312.61 421.94 312.57 421.65
  L 312.53 421.35
  Q 312.50 421.14 312.29 421.14
  L 307.56 421.14
  Q 307.03 421.14 307.13 420.62"
/>
<path stroke="#7b6e63" vector-effect="non-scaling-stroke" d="
  M 234.1968 362.9870
  A 3.42 0.97 92.4 0 0 235.3091 359.6106
  A 3.42 0.97 92.4 0 0 234.4832 356.1530
  A 3.42 0.97 92.4 0 0 233.3709 359.5294
  A 3.42 0.97 92.4 0 0 234.1968 362.9870"
/>
</g>
<path fill="#f0d7c1" d="
  M 0.00 0.00
  L 366.00 0.00
  L 366.00 488.00
  L 0.00 488.00
  L 0.00 0.00
  Z
  M 159.62 131.72
  C 170.86 132.14 184.70 131.98 200.09 132.72
  Q 207.26 133.07 219.92 133.36
  Q 230.96 133.62 249.27 134.36
  Q 269.90 135.18 317.28 135.04
  C 323.51 135.02 329.89 135.62 336.14 135.99
  A 0.96 0.96 0.0 0 0 337.16 135.04
  C 337.38 118.54 337.16 102.54 337.22 86.51
  C 337.26 76.52 336.91 63.86 332.79 54.86
  C 328.81 46.16 322.55 39.22 312.54 38.16
  Q 296.32 36.44 282.75 36.41
  Q 229.63 36.30 176.50 36.40
  C 160.24 36.43 144.59 36.29 127.76 37.07
  C 106.57 38.04 85.38 37.50 64.25 37.80
  C 53.19 37.96 41.22 47.91 37.37 58.02
  Q 35.98 61.66 35.50 63.75
  C 30.80 83.92 32.24 102.67 32.93 125.00
  Q 32.97 126.51 33.18 127.61
  Q 33.58 129.80 35.59 128.83
  C 37.16 128.08 38.50 127.00 40.09 126.42
  C 46.38 124.11 51.56 121.71 58.50 121.80
  C 65.37 121.89 71.95 123.00 78.75 123.56
  C 83.25 123.93 89.29 125.38 91.99 125.80
  Q 102.00 127.37 112.03 128.84
  C 127.76 131.15 143.76 131.13 159.62 131.72
  Z
  M 34.54 157.07
  Q 33.04 163.19 35.02 169.11
  C 36.20 172.63 42.07 171.44 44.83 170.41
  C 51.40 167.98 57.83 165.28 64.57 163.78
  C 75.26 161.39 85.27 159.52 96.30 160.06
  C 104.86 160.47 116.05 163.15 125.91 164.49
  C 129.99 165.04 135.98 166.63 141.25 166.71
  Q 161.13 167.01 181.00 166.67
  C 200.40 166.33 219.84 167.73 239.26 167.98
  C 261.38 168.26 283.46 169.87 305.58 169.92
  C 315.05 169.94 324.58 170.49 334.05 169.88
  Q 335.38 169.79 335.59 168.47
  Q 337.79 154.44 336.78 140.26
  A 0.52 0.51 -85.4 0 0 336.40 139.80
  Q 332.37 138.81 328.00 138.81
  C 306.91 138.83 285.83 137.81 264.74 137.57
  C 246.51 137.36 228.18 136.72 209.88 136.79
  C 188.60 136.87 167.44 135.25 146.18 134.98
  C 126.01 135.10 105.57 134.35 85.36 136.06
  C 79.96 136.52 74.26 136.53 69.26 137.41
  Q 56.59 139.65 45.71 144.41
  Q 37.03 148.21 34.54 157.07
  Z
  M 73.88 187.13
  Q 62.71 187.80 57.75 187.28
  Q 53.30 186.82 44.49 184.29
  C 40.13 183.04 36.37 183.15 34.06 187.19
  Q 33.02 189.01 33.35 192.20
  C 34.36 202.19 34.17 212.28 34.27 222.34
  Q 34.29 224.56 36.51 224.67
  C 48.66 225.28 58.45 225.21 71.50 221.70
  Q 77.86 219.99 96.81 212.33
  Q 110.38 206.85 129.77 204.62
  C 143.15 203.09 156.74 201.02 170.25 201.20
  C 196.68 201.56 223.07 202.29 249.50 201.72
  C 270.09 201.28 290.79 202.45 311.38 202.90
  C 316.52 203.02 325.90 202.86 333.02 203.51
  Q 334.67 203.66 334.83 202.01
  Q 336.28 187.65 335.84 173.19
  Q 335.82 172.27 334.90 172.25
  Q 313.36 171.64 292.22 172.38
  C 284.70 172.64 277.25 171.42 269.66 171.52
  C 262.67 171.60 255.56 172.02 248.58 171.68
  C 244.12 171.46 239.81 171.22 235.24 171.27
  Q 213.32 171.51 189.75 170.23
  Q 185.76 170.01 182.21 170.37
  C 159.48 169.59 140.58 169.22 115.01 171.10
  Q 107.26 171.68 98.49 175.40
  C 94.42 177.13 90.58 179.96 86.71 182.44
  Q 83.03 184.80 73.88 187.13
  Z
  M 237.45 204.39
  C 225.60 205.22 213.73 205.69 201.86 206.41
  C 194.63 206.85 187.19 206.85 179.22 208.46
  C 165.07 211.30 152.07 211.12 142.33 223.83
  Q 141.48 224.93 137.89 226.47
  Q 137.10 225.87 135.49 226.02
  Q 105.16 228.73 74.75 227.34
  Q 70.50 227.14 66.25 227.40
  C 56.83 227.98 47.42 227.52 37.99 228.08
  Q 36.44 228.17 35.23 229.11
  Q 34.81 229.44 34.71 229.96
  C 34.18 232.82 32.94 243.64 35.49 245.55
  C 44.98 252.69 58.76 253.71 70.35 255.32
  C 76.96 256.23 84.05 255.96 90.75 256.25
  Q 101.68 256.72 122.99 254.69
  C 126.20 254.38 133.40 255.03 131.79 260.20
  Q 129.22 268.47 121.29 273.05
  Q 115.54 276.38 102.67 284.54
  C 99.08 286.82 95.68 289.08 91.92 291.13
  C 89.70 292.33 90.20 295.91 92.10 297.12
  Q 95.64 299.37 99.66 300.44
  Q 130.49 308.61 159.99 296.99
  Q 172.75 291.97 191.49 281.72
  C 200.44 276.83 207.56 273.37 216.02 269.87
  C 223.30 266.87 228.67 265.78 235.25 267.57
  C 239.80 268.81 244.29 272.35 244.72 277.51
  C 245.78 290.19 239.13 298.46 229.69 306.95
  Q 221.04 314.74 211.47 321.33
  Q 207.57 324.01 203.91 327.17
  C 200.99 329.69 183.19 341.74 191.66 346.40
  Q 194.11 347.74 195.75 348.00
  Q 210.35 350.29 222.88 350.62
  C 230.35 350.81 237.65 351.68 244.28 351.88
  Q 250.51 352.07 254.33 352.40
  C 278.60 354.49 297.89 354.68 319.75 355.25
  Q 327.92 355.46 335.90 355.11
  Q 336.69 355.07 336.70 354.29
  C 337.08 332.93 335.86 311.70 335.96 290.38
  C 336.06 271.83 337.67 253.48 337.16 234.88
  Q 336.81 222.16 336.38 209.45
  C 336.28 206.40 333.86 206.46 331.50 206.36
  Q 302.00 205.11 272.50 204.11
  C 260.82 203.71 249.11 203.43 237.45 204.39
  Z
  M 60.61 261.30
  L 61.10 263.54
  Q 61.16 263.80 61.43 263.77
  L 61.73 263.74
  Q 61.98 263.71 61.95 263.46
  Q 61.52 260.01 60.86 258.33
  Q 59.72 255.44 58.77 258.39
  L 57.18 263.33
  Q 57.07 263.67 57.42 263.67
  L 57.68 263.67
  Q 57.71 263.67 57.72 263.65
  Q 58.23 262.50 58.78 261.15
  A 0.96 0.96 0.0 0 1 60.61 261.30
  Z
  M 63.94 262.49
  L 64.17 258.09
  Q 64.18 257.95 64.04 257.92
  L 63.79 257.87
  Q 63.66 257.84 63.65 257.97
  L 63.01 263.79
  Q 62.95 264.34 63.41 264.66
  Q 63.99 265.07 64.73 264.92
  Q 65.64 264.74 64.83 264.26
  Q 64.42 264.02 64.16 263.53
  Q 63.91 263.04 63.94 262.49
  Z
  M 67.3926 265.3195
  A 3.68 1.81 99.5 0 0 69.7852 261.9887
  A 3.68 1.81 99.5 0 0 68.6074 258.0605
  A 3.68 1.81 99.5 0 0 66.2148 261.3913
  A 3.68 1.81 99.5 0 0 67.3926 265.3195
  Z
  M 73.25 263.32
  Q 74.25 264.12 74.41 264.98
  Q 74.75 266.90 75.19 264.99
  Q 75.80 262.41 75.95 259.76
  Q 75.96 259.57 75.76 259.56
  L 75.47 259.56
  Q 75.25 259.55 75.23 259.77
  Q 75.06 261.62 74.40 263.34
  Q 74.01 264.37 73.86 263.28
  L 73.29 259.06
  Q 73.25 258.78 73.01 258.61
  Q 72.87 258.52 72.72 258.50
  Q 72.28 258.45 72.23 258.89
  L 71.48 264.91
  A 0.25 0.25 0.0 0 0 71.91 265.12
  Q 72.54 264.47 72.67 263.55
  Q 72.76 262.93 73.25 263.32
  Z
  M 78.59 261.53
  Q 78.65 260.27 79.56 259.40
  Q 80.00 258.98 79.41 258.83
  Q 78.89 258.69 78.34 259.00
  A 0.83 0.82 -9.9 0 0 77.94 259.56
  L 76.93 265.03
  A 0.62 0.61 -85.8 0 0 77.55 265.76
  L 79.74 265.72
  Q 80.25 265.71 79.92 265.32
  L 79.68 265.04
  Q 79.59 264.94 79.46 264.97
  L 78.47 265.16
  Q 77.86 265.28 77.82 264.66
  Q 77.67 262.46 79.52 262.69
  Q 80.31 262.78 79.80 262.17
  Q 79.54 261.86 79.06 261.94
  Q 78.56 262.03 78.59 261.53
  Z
  M 67.54 267.68
  C 64.01 267.62 60.57 266.79 56.97 266.37
  C 50.18 265.58 44.31 263.85 38.00 262.03
  C 36.95 261.72 35.66 261.69 34.65 261.71
  A 1.37 1.36 1.6 0 0 33.32 262.96
  C 32.86 268.57 33.06 274.79 32.84 279.68
  Q 32.05 296.61 32.33 313.56
  Q 32.39 317.14 32.84 320.92
  C 33.56 327.11 33.26 332.07 37.59 337.16
  C 41.79 342.09 46.50 346.27 52.45 348.97
  C 63.48 353.98 74.82 354.28 86.85 353.02
  C 95.58 352.11 102.54 351.17 110.21 348.56
  C 114.10 347.24 124.02 342.98 127.53 344.29
  C 133.37 346.47 135.02 352.20 130.98 356.92
  C 128.54 359.78 125.60 362.83 124.09 365.75
  Q 119.67 374.24 124.06 383.61
  Q 127.36 390.64 130.18 393.57
  C 143.24 407.11 169.32 408.97 187.25 407.74
  C 208.12 406.31 230.91 403.13 252.87 401.69
  C 257.91 401.36 287.08 399.75 287.27 407.24
  C 287.44 414.15 276.50 415.99 273.70 422.48
  C 270.52 429.88 278.83 434.18 285.01 434.93
  C 293.28 435.93 306.63 434.65 314.21 431.38
  C 336.78 421.64 338.29 391.78 336.13 371.01
  A 1.22 1.21 -3.1 0 0 334.91 369.92
  Q 315.33 370.08 296.07 369.54
  C 289.06 369.35 280.80 370.05 274.75 369.72
  Q 257.84 368.79 240.91 368.19
  Q 234.06 367.94 227.14 367.24
  C 218.95 366.40 155.84 362.96 174.48 341.42
  C 183.59 330.88 192.54 324.17 201.85 315.60
  Q 206.57 311.26 219.38 301.86
  C 224.87 297.84 233.09 291.65 228.50 284.31
  Q 226.38 280.92 223.24 282.28
  C 217.48 284.77 211.61 287.09 206.15 290.04
  C 201.75 292.41 197.44 294.92 192.98 296.93
  Q 175.98 304.54 158.43 310.74
  C 148.36 314.29 140.27 314.75 128.51 316.75
  Q 100.33 321.54 73.45 308.71
  C 68.52 306.36 65.81 303.93 64.60 298.74
  C 63.30 293.15 68.11 290.56 71.57 288.58
  Q 75.78 286.18 82.16 283.38
  C 85.00 282.14 88.25 280.20 91.49 278.95
  C 97.03 276.83 99.85 275.64 104.01 273.84
  Q 108.32 271.97 107.73 266.96
  A 1.15 1.15 0.0 0 0 106.54 265.94
  C 96.78 266.29 87.10 267.71 77.34 267.76
  Q 72.44 267.78 67.54 267.68
  Z
  M 98.04 279.07
  L 98.27 278.72
  Q 98.60 278.22 98.06 278.47
  Q 97.64 278.66 97.33 279.03
  Q 97.02 279.41 97.35 279.78
  Q 98.96 281.58 99.73 283.90
  Q 99.75 283.96 99.81 283.95
  L 100.06 283.90
  Q 100.22 283.87 100.17 283.72
  Q 99.47 281.45 98.05 279.55
  Q 97.88 279.32 98.04 279.07
  Z
  M 94.82 287.24
  Q 94.89 287.49 95.08 287.66
  A 0.09 0.09 0.0 0 0 95.20 287.66
  Q 96.04 286.82 97.14 286.42
  Q 97.58 286.27 97.64 285.81
  Q 98.07 282.66 96.01 281.30
  Q 95.00 280.63 95.57 281.69
  L 97.05 284.44
  A 1.02 1.01 -33.0 0 1 96.77 285.73
  Q 95.77 286.50 94.77 286.20
  Q 94.38 286.08 94.15 286.42
  Q 94.00 286.65 94.12 287.06
  Q 94.15 287.16 94.25 287.14
  L 94.56 287.07
  Q 94.76 287.03 94.82 287.24
  Z
  M 92.97 285.87
  Q 93.12 285.91 93.25 285.82
  Q 93.98 285.29 93.95 285.00
  L 93.88 284.41
  A 0.29 0.29 0.0 0 0 93.36 284.26
  Q 93.07 284.62 92.99 285.05
  Q 92.82 285.97 92.05 285.43
  Q 91.38 284.96 91.18 284.18
  A 0.50 0.50 0.0 0 1 91.55 283.57
  Q 94.32 282.87 95.15 285.34
  A 0.26 0.26 0.0 0 0 95.66 285.28
  C 95.76 284.27 94.99 283.33 94.03 283.03
  Q 93.56 282.88 93.14 282.60
  A 1.27 1.26 59.7 0 0 92.35 282.39
  Q 90.57 282.50 90.49 284.19
  Q 90.47 284.60 90.72 284.92
  Q 91.91 286.42 92.86 288.05
  Q 93.00 288.30 93.19 288.37
  Q 93.41 288.45 93.64 288.42
  A 0.38 0.38 0.0 0 0 93.80 287.73
  Q 92.95 287.18 92.68 286.16
  A 0.24 0.24 0.0 0 1 92.97 285.87
  Z
  M 159.57 300.06
  L 161.42 299.47
  A 0.37 0.36 -53.3 0 0 161.32 298.76
  Q 159.18 298.73 157.81 300.24
  Q 157.32 300.77 158.04 300.72
  Q 158.53 300.69 158.91 300.40
  Q 159.22 300.18 159.57 300.06
  Z
  M 161.8641 306.9796
  A 3.45 0.34 73.6 0 0 161.2162 303.5740
  A 3.45 0.34 73.6 0 0 159.9159 300.3604
  A 3.45 0.34 73.6 0 0 160.5638 303.7660
  A 3.45 0.34 73.6 0 0 161.8641 306.9796
  Z
  M 156.78 308.54
  A 0.68 0.68 0.0 0 1 155.72 308.24
  Q 154.57 305.02 154.90 301.59
  Q 154.92 301.36 154.69 301.34
  L 154.42 301.31
  Q 154.17 301.29 154.14 301.54
  Q 153.74 304.78 154.78 307.74
  Q 155.65 310.23 157.39 309.05
  A 1.51 1.44 84.5 0 0 157.95 308.34
  Q 159.39 304.41 156.53 301.27
  Q 156.39 301.11 156.37 301.13
  L 156.13 301.32
  Q 155.98 301.44 156.08 301.61
  Q 157.73 304.19 157.40 307.25
  Q 157.30 308.13 156.78 308.54
  Z
  M 148.13 305.82
  L 151.81 310.43
  A 1.09 0.93 54.3 0 0 153.11 310.75
  Q 153.22 310.68 153.22 310.25
  Q 153.20 306.25 151.56 302.60
  Q 151.51 302.50 151.44 302.46
  Q 151.31 302.40 151.18 302.44
  Q 150.94 302.50 151.00 302.73
  L 152.24 307.98
  Q 152.73 310.02 151.37 308.42
  L 147.39 303.74
  Q 145.47 301.48 146.22 304.34
  L 148.06 311.33
  Q 148.13 311.57 148.36 311.49
  L 148.68 311.37
  Q 148.98 311.26 148.90 310.95
  L 147.60 306.08
  A 0.30 0.30 0.0 0 1 148.13 305.82
  Z
  M 209.00 435.80
  C 221.55 435.96 234.05 435.22 246.50 433.63
  C 250.68 433.10 255.21 433.30 259.58 432.84
  A 1.65 1.65 0.0 0 0 261.04 430.98
  C 260.71 428.54 259.08 428.20 257.67 426.77
  A 1.78 1.77 -33.7 0 1 258.25 423.88
  Q 261.55 422.51 264.46 420.71
  C 266.84 419.25 272.69 411.79 268.02 409.36
  Q 264.06 407.30 258.72 408.00
  C 237.69 410.76 216.44 414.00 195.27 415.50
  Q 173.23 417.06 158.50 416.19
  C 146.68 415.49 138.60 412.98 127.68 407.87
  C 114.70 401.80 100.64 383.97 110.49 369.87
  C 112.73 366.67 113.87 364.58 114.52 361.21
  A 2.12 2.11 -71.5 0 0 113.39 358.92
  C 110.81 357.64 105.72 358.45 103.00 359.30
  C 93.22 362.35 83.53 366.55 72.81 365.56
  Q 56.50 364.06 43.57 354.05
  C 40.56 351.72 37.86 348.22 34.75 345.41
  A 0.52 0.51 40.2 0 0 34.00 345.47
  C 32.78 346.99 33.14 348.26 33.06 350.03
  Q 32.79 355.94 32.10 375.00
  C 31.62 388.24 31.79 402.22 36.31 414.50
  C 40.99 427.23 54.85 434.87 67.76 435.71
  C 81.08 436.57 95.19 435.03 109.00 434.97
  C 133.64 434.87 159.94 435.82 185.99 435.71
  Q 197.50 435.66 209.00 435.80
  Z
  M 228.99 362.47
  L 229.36 355.62
  Q 229.37 355.47 229.36 355.47
  L 229.08 355.43
  Q 228.79 355.39 228.76 355.68
  L 227.96 363.24
  Q 227.90 363.82 228.49 363.86
  L 230.93 364.04
  A 0.32 0.32 0.0 0 0 231.00 363.41
  L 229.55 363.16
  Q 228.96 363.06 228.99 362.47
  Z
  M 234.1360 363.9222
  A 4.16 1.89 93.5 0 0 236.2765 359.8854
  A 4.16 1.89 93.5 0 0 234.6440 355.6178
  A 4.16 1.89 93.5 0 0 232.5035 359.6546
  A 4.16 1.89 93.5 0 0 234.1360 363.9222
  Z
  M 239.92 362.38
  L 240.13 363.11
  Q 240.92 365.75 241.05 363.00
  L 241.39 356.19
  Q 241.40 355.97 241.18 355.97
  L 240.78 355.97
  Q 240.68 355.98 240.67 356.08
  Q 240.48 357.93 240.62 359.74
  Q 240.67 360.41 240.35 360.69
  Q 239.96 361.04 239.90 360.52
  Q 239.63 358.30 238.71 356.19
  Q 238.31 355.27 238.26 356.27
  L 237.97 363.26
  Q 237.95 363.73 238.42 363.73
  Q 238.83 363.74 238.87 363.25
  Q 238.89 362.97 238.77 362.08
  Q 238.72 361.69 239.10 361.77
  Q 239.31 361.81 239.49 361.89
  A 0.76 0.75 -86.8 0 1 239.92 362.38
  Z
  M 243.00 364.08
  L 243.69 364.13
  A 0.19 0.19 0.0 0 0 243.90 363.96
  L 243.91 363.81
  A 8.04 0.47 -85.4 0 0 244.09 355.76
  L 243.95 355.75
  A 8.04 0.47 -85.4 0 0 242.83 363.72
  L 242.82 363.87
  A 0.19 0.19 0.0 0 0 243.00 364.08
  Z
  M 248.38 363.87
  C 247.20 362.16 247.99 358.41 248.17 356.35
  Q 248.18 356.20 248.03 356.17
  L 248.02 356.17
  Q 247.78 356.14 247.75 356.31
  L 246.83 363.29
  Q 246.76 363.82 247.17 364.17
  Q 247.76 364.67 248.57 364.64
  Q 249.03 364.62 248.81 364.22
  Q 248.69 364.00 248.38 363.87
  Z
  M 252.95 358.15
  L 251.37 356.41
  A 0.30 0.30 0.0 0 0 250.90 356.78
  L 252.51 359.25
  Q 252.79 359.68 252.58 360.15
  L 250.73 364.23
  Q 250.67 364.36 250.79 364.43
  L 251.01 364.56
  A 0.34 0.34 0.0 0 0 251.49 364.41
  L 254.91 356.83
  Q 255.03 356.57 254.76 356.47
  L 254.50 356.38
  A 0.13 0.13 0.0 0 0 254.34 356.44
  L 253.66 358.03
  Q 253.40 358.64 252.95 358.15
  Z"
/>
<path fill="#4f6763" d="
  M 159.62 131.72
  C 143.76 131.13 127.76 131.15 112.03 128.84
  Q 102.00 127.37 91.99 125.80
  C 89.29 125.38 83.25 123.93 78.75 123.56
  C 71.95 123.00 65.37 121.89 58.50 121.80
  C 51.56 121.71 46.38 124.11 40.09 126.42
  C 38.50 127.00 37.16 128.08 35.59 128.83
  Q 33.58 129.80 33.18 127.61
  Q 32.97 126.51 32.93 125.00
  C 32.24 102.67 30.80 83.92 35.50 63.75
  Q 35.98 61.66 37.37 58.02
  C 41.22 47.91 53.19 37.96 64.25 37.80
  C 85.38 37.50 106.57 38.04 127.76 37.07
  C 144.59 36.29 160.24 36.43 176.50 36.40
  Q 229.63 36.30 282.75 36.41
  Q 296.32 36.44 312.54 38.16
  C 322.55 39.22 328.81 46.16 332.79 54.86
  C 336.91 63.86 337.26 76.52 337.22 86.51
  C 337.16 102.54 337.38 118.54 337.16 135.04
  A 0.96 0.96 0.0 0 1 336.14 135.99
  C 329.89 135.62 323.51 135.02 317.28 135.04
  Q 269.90 135.18 249.27 134.36
  Q 230.96 133.62 219.92 133.36
  Q 207.26 133.07 200.09 132.72
  C 184.70 131.98 170.86 132.14 159.62 131.72
  Z"
/>
<path fill="#182c7f" d="
  M 146.18 134.98
  Q 146.75 135.63 148.07 135.35
  Q 148.14 135.34 148.13 135.41
  Q 148.13 135.44 148.13 135.48
  Q 148.12 135.64 147.97 135.63
  C 146.08 135.46 144.20 136.12 142.67 136.24
  Q 123.21 137.77 103.74 139.12
  Q 93.39 139.83 89.55 141.51
  C 82.12 144.75 76.52 146.98 67.31 151.17
  Q 51.98 158.14 34.54 157.07
  Q 37.03 148.21 45.71 144.41
  Q 56.59 139.65 69.26 137.41
  C 74.26 136.53 79.96 136.52 85.36 136.06
  C 105.57 134.35 126.01 135.10 146.18 134.98
  Z"
/>
<path fill="#4f7272" d="
  M 146.18 134.98
  C 167.44 135.25 188.60 136.87 209.88 136.79
  C 228.18 136.72 246.51 137.36 264.74 137.57
  C 285.83 137.81 306.91 138.83 328.00 138.81
  Q 332.37 138.81 336.40 139.80
  A 0.52 0.51 -85.4 0 1 336.78 140.26
  Q 337.79 154.44 335.59 168.47
  Q 335.38 169.79 334.05 169.88
  C 324.58 170.49 315.05 169.94 305.58 169.92
  C 283.46 169.87 261.38 168.26 239.26 167.98
  C 219.84 167.73 200.40 166.33 181.00 166.67
  Q 161.13 167.01 141.25 166.71
  C 135.98 166.63 129.99 165.04 125.91 164.49
  C 116.05 163.15 104.86 160.47 96.30 160.06
  C 85.27 159.52 75.26 161.39 64.57 163.78
  C 57.83 165.28 51.40 167.98 44.83 170.41
  C 42.07 171.44 36.20 172.63 35.02 169.11
  Q 33.04 163.19 34.54 157.07
  Q 51.98 158.14 67.31 151.17
  C 76.52 146.98 82.12 144.75 89.55 141.51
  Q 93.39 139.83 103.74 139.12
  Q 123.21 137.77 142.67 136.24
  C 144.20 136.12 146.08 135.46 147.97 135.63
  Q 148.12 135.64 148.13 135.48
  Q 148.13 135.44 148.13 135.41
  Q 148.14 135.34 148.07 135.35
  Q 146.75 135.63 146.18 134.98
  Z"
/>
<path fill="#182c7f" d="
  M 182.21 170.37
  Q 181.26 171.65 178.00 171.71
  Q 163.76 171.95 144.75 174.49
  C 140.57 175.05 136.39 175.88 132.49 178.15
  C 125.99 181.93 119.72 186.80 112.38 188.39
  C 104.18 190.16 96.93 189.43 86.88 188.81
  Q 80.56 188.43 73.88 187.13
  Q 83.03 184.80 86.71 182.44
  C 90.58 179.96 94.42 177.13 98.49 175.40
  Q 107.26 171.68 115.01 171.10
  C 140.58 169.22 159.48 169.59 182.21 170.37
  Z"
/>
<path fill="#557e7a" d="
  M 182.21 170.37
  Q 185.76 170.01 189.75 170.23
  Q 213.32 171.51 235.24 171.27
  C 239.81 171.22 244.12 171.46 248.58 171.68
  C 255.56 172.02 262.67 171.60 269.66 171.52
  C 277.25 171.42 284.70 172.64 292.22 172.38
  Q 313.36 171.64 334.90 172.25
  Q 335.82 172.27 335.84 173.19
  Q 336.28 187.65 334.83 202.01
  Q 334.67 203.66 333.02 203.51
  C 325.90 202.86 316.52 203.02 311.38 202.90
  C 290.79 202.45 270.09 201.28 249.50 201.72
  C 223.07 202.29 196.68 201.56 170.25 201.20
  C 156.74 201.02 143.15 203.09 129.77 204.62
  Q 110.38 206.85 96.81 212.33
  Q 77.86 219.99 71.50 221.70
  C 58.45 225.21 48.66 225.28 36.51 224.67
  Q 34.29 224.56 34.27 222.34
  C 34.17 212.28 34.36 202.19 33.35 192.20
  Q 33.02 189.01 34.06 187.19
  C 36.37 183.15 40.13 183.04 44.49 184.29
  Q 53.30 186.82 57.75 187.28
  Q 62.71 187.80 73.88 187.13
  Q 80.56 188.43 86.88 188.81
  C 96.93 189.43 104.18 190.16 112.38 188.39
  C 119.72 186.80 125.99 181.93 132.49 178.15
  C 136.39 175.88 140.57 175.05 144.75 174.49
  Q 163.76 171.95 178.00 171.71
  Q 181.26 171.65 182.21 170.37
  Z"
/>
<path fill="#829690" d="
  M 137.89 226.47
  C 146.95 228.89 157.91 227.05 166.71 224.07
  C 173.32 221.84 180.68 216.50 187.98 213.92
  Q 194.53 211.61 204.13 209.27
  C 210.91 207.61 217.94 207.02 224.96 206.31
  C 228.39 205.97 233.74 206.07 238.12 205.18
  A 0.26 0.26 0.0 0 0 238.22 204.72
  Q 237.93 204.51 237.45 204.39
  C 249.11 203.43 260.82 203.71 272.50 204.11
  Q 302.00 205.11 331.50 206.36
  C 333.86 206.46 336.28 206.40 336.38 209.45
  Q 336.81 222.16 337.16 234.88
  C 337.67 253.48 336.06 271.83 335.96 290.38
  C 335.86 311.70 337.08 332.93 336.70 354.29
  Q 336.69 355.07 335.90 355.11
  Q 327.92 355.46 319.75 355.25
  C 297.89 354.68 278.60 354.49 254.33 352.40
  Q 250.51 352.07 244.28 351.88
  C 237.65 351.68 230.35 350.81 222.88 350.62
  Q 210.35 350.29 195.75 348.00
  Q 194.11 347.74 191.66 346.40
  C 183.19 341.74 200.99 329.69 203.91 327.17
  Q 207.57 324.01 211.47 321.33
  Q 221.04 314.74 229.69 306.95
  C 239.13 298.46 245.78 290.19 244.72 277.51
  C 244.29 272.35 239.80 268.81 235.25 267.57
  C 228.67 265.78 223.30 266.87 216.02 269.87
  C 207.56 273.37 200.44 276.83 191.49 281.72
  Q 172.75 291.97 159.99 296.99
  Q 130.49 308.61 99.66 300.44
  Q 95.64 299.37 92.10 297.12
  C 90.20 295.91 89.70 292.33 91.92 291.13
  C 95.68 289.08 99.08 286.82 102.67 284.54
  Q 115.54 276.38 121.29 273.05
  Q 129.22 268.47 131.79 260.20
  C 133.40 255.03 126.20 254.38 122.99 254.69
  Q 101.68 256.72 90.75 256.25
  C 84.05 255.96 76.96 256.23 70.35 255.32
  C 58.76 253.71 44.98 252.69 35.49 245.55
  C 32.94 243.64 34.18 232.82 34.71 229.96
  Q 34.81 229.44 35.23 229.11
  Q 36.44 228.17 37.99 228.08
  C 47.42 227.52 56.83 227.98 66.25 227.40
  Q 70.50 227.14 74.75 227.34
  Q 105.16 228.73 135.49 226.02
  Q 137.10 225.87 137.89 226.47
  Z
  M 261.05 215.94
  Q 258.88 219.54 256.12 221.84
  Q 255.35 222.50 255.18 223.36
  Q 255.06 223.98 255.61 223.67
  Q 260.12 221.18 261.96 216.93
  Q 263.42 216.28 264.59 214.57
  Q 264.91 214.09 264.49 213.71
  L 257.93 207.82
  A 0.57 0.57 0.0 0 0 256.98 208.24
  Q 256.98 209.92 257.82 211.69
  Q 258.52 213.17 261.05 215.94
  Z
  M 265.83 209.81
  Q 266.62 210.21 267.05 210.97
  Q 268.13 212.89 268.48 210.71
  Q 268.53 210.39 268.28 209.87
  Q 267.98 209.29 267.33 209.27
  L 265.97 209.24
  A 0.30 0.30 0.0 0 0 265.83 209.81
  Z
  M 268.57 222.67
  C 267.69 224.59 266.14 225.87 265.96 228.10
  A 0.90 0.90 0.0 0 0 267.34 228.93
  C 271.10 226.59 275.04 221.22 273.67 216.56
  Q 272.74 213.37 269.41 212.74
  A 2.22 2.22 0.0 0 0 266.78 214.87
  L 266.70 218.45
  Q 266.68 218.96 266.97 219.39
  L 268.49 221.67
  Q 268.81 222.15 268.57 222.67
  Z"
/>
<path fill="#182c7f" d="
  M 237.45 204.39
  Q 237.93 204.51 238.22 204.72
  A 0.26 0.26 0.0 0 1 238.12 205.18
  C 233.74 206.07 228.39 205.97 224.96 206.31
  C 217.94 207.02 210.91 207.61 204.13 209.27
  Q 194.53 211.61 187.98 213.92
  C 180.68 216.50 173.32 221.84 166.71 224.07
  C 157.91 227.05 146.95 228.89 137.89 226.47
  Q 141.48 224.93 142.33 223.83
  C 152.07 211.12 165.07 211.30 179.22 208.46
  C 187.19 206.85 194.63 206.85 201.86 206.41
  C 213.73 205.69 225.60 205.22 237.45 204.39
  Z"
/>
<path fill="#f0d7c1" d="
  M 261.96 216.93
  Q 261.49 216.58 261.05 215.94
  Q 258.52 213.17 257.82 211.69
  Q 256.98 209.92 256.98 208.24
  A 0.57 0.57 0.0 0 1 257.93 207.82
  L 264.49 213.71
  Q 264.91 214.09 264.59 214.57
  Q 263.42 216.28 261.96 216.93
  Z"
/>
<path fill="#050504" d="
  M 265.83 209.81
  A 0.30 0.30 0.0 0 1 265.97 209.24
  L 267.33 209.27
  Q 267.98 209.29 268.28 209.87
  Q 268.53 210.39 268.48 210.71
  Q 268.13 212.89 267.05 210.97
  Q 266.62 210.21 265.83 209.81
  Z"
/>
<path fill="#182c7f" d="
  M 268.49 221.67
  L 266.97 219.39
  Q 266.68 218.96 266.70 218.45
  L 266.78 214.87
  A 2.22 2.22 0.0 0 1 269.41 212.74
  Q 272.74 213.37 273.67 216.56
  C 275.04 221.22 271.10 226.59 267.34 228.93
  A 0.90 0.90 0.0 0 1 265.96 228.10
  C 266.14 225.87 267.69 224.59 268.57 222.67
  Q 268.81 222.15 268.49 221.67
  Z
  M 269.2403 219.5773
  A 1.27 0.59 66.8 0 0 269.2823 218.1776
  A 1.27 0.59 66.8 0 0 268.2397 217.2427
  A 1.27 0.59 66.8 0 0 268.1977 218.6424
  A 1.27 0.59 66.8 0 0 269.2403 219.5773
  Z"
/>
<path fill="#182c7f" d="
  M 261.05 215.94
  Q 261.49 216.58 261.96 216.93
  Q 260.12 221.18 255.61 223.67
  Q 255.06 223.98 255.18 223.36
  Q 255.35 222.50 256.12 221.84
  Q 258.88 219.54 261.05 215.94
  Z"
/>
<ellipse fill="#829690" cx="0.00" cy="0.00" transform="translate(268.74,218.41) rotate(66.8)" rx="1.27" ry="0.59"/>
<path fill="#050504" d="
  M 60.61 261.30
  A 0.96 0.96 0.0 0 0 58.78 261.15
  Q 58.23 262.50 57.72 263.65
  Q 57.71 263.67 57.68 263.67
  L 57.42 263.67
  Q 57.07 263.67 57.18 263.33
  L 58.77 258.39
  Q 59.72 255.44 60.86 258.33
  Q 61.52 260.01 61.95 263.46
  Q 61.98 263.71 61.73 263.74
  L 61.43 263.77
  Q 61.16 263.80 61.10 263.54
  L 60.61 261.30
  Z
  M 60.39 259.50
  L 60.19 258.77
  A 0.42 0.41 53.0 0 0 59.44 258.66
  Q 59.21 259.03 59.13 259.46
  Q 59.04 259.96 59.55 259.98
  L 59.99 260.00
  Q 60.54 260.03 60.39 259.50
  Z"
/>
<path fill="#050504" d="
  M 64.16 263.53
  Q 64.42 264.02 64.83 264.26
  Q 65.64 264.74 64.73 264.92
  Q 63.99 265.07 63.41 264.66
  Q 62.95 264.34 63.01 263.79
  L 63.65 257.97
  Q 63.66 257.84 63.79 257.87
  L 64.04 257.92
  Q 64.18 257.95 64.17 258.09
  L 63.94 262.49
  Q 63.91 263.04 64.16 263.53
  Z"
/>
<path fill="#050504" d="
  M 67.3926 265.3195
  A 3.68 1.81 99.5 0 1 66.2148 261.3913
  A 3.68 1.81 99.5 0 1 68.6074 258.0605
  A 3.68 1.81 99.5 0 1 69.7852 261.9887
  A 3.68 1.81 99.5 0 1 67.3926 265.3195
  Z
  M 67.7157 264.0011
  A 2.57 0.81 98.6 0 0 68.9009 261.5811
  A 2.57 0.81 98.6 0 0 68.4843 258.9189
  A 2.57 0.81 98.6 0 0 67.2991 261.3389
  A 2.57 0.81 98.6 0 0 67.7157 264.0011
  Z"
/>
<path fill="#f0d7c1" d="
  M 60.39 259.50
  Q 60.54 260.03 59.99 260.00
  L 59.55 259.98
  Q 59.04 259.96 59.13 259.46
  Q 59.21 259.03 59.44 258.66
  A 0.42 0.41 53.0 0 1 60.19 258.77
  L 60.39 259.50
  Z"
/>
<path fill="#050504" d="
  M 72.67 263.55
  Q 72.54 264.47 71.91 265.12
  A 0.25 0.25 0.0 0 1 71.48 264.91
  L 72.23 258.89
  Q 72.28 258.45 72.72 258.50
  Q 72.87 258.52 73.01 258.61
  Q 73.25 258.78 73.29 259.06
  L 73.86 263.28
  Q 74.01 264.37 74.40 263.34
  Q 75.06 261.62 75.23 259.77
  Q 75.25 259.55 75.47 259.56
  L 75.76 259.56
  Q 75.96 259.57 75.95 259.76
  Q 75.80 262.41 75.19 264.99
  Q 74.75 266.90 74.41 264.98
  Q 74.25 264.12 73.25 263.32
  Q 72.76 262.93 72.67 263.55
  Z"
/>
<ellipse fill="#f0d7c1" cx="0.00" cy="0.00" transform="translate(68.10,261.46) rotate(98.6)" rx="2.57" ry="0.81"/>
<path fill="#050504" d="
  M 79.06 261.94
  Q 79.54 261.86 79.80 262.17
  Q 80.31 262.78 79.52 262.69
  Q 77.67 262.46 77.82 264.66
  Q 77.86 265.28 78.47 265.16
  L 79.46 264.97
  Q 79.59 264.94 79.68 265.04
  L 79.92 265.32
  Q 80.25 265.71 79.74 265.72
  L 77.55 265.76
  A 0.62 0.61 -85.8 0 1 76.93 265.03
  L 77.94 259.56
  A 0.83 0.82 -9.9 0 1 78.34 259.00
  Q 78.89 258.69 79.41 258.83
  Q 80.00 258.98 79.56 259.40
  Q 78.65 260.27 78.59 261.53
  Q 78.56 262.03 79.06 261.94
  Z"
/>
<path fill="#97afa8" d="
  M 67.54 267.68
  Q 72.44 267.78 77.34 267.76
  C 87.10 267.71 96.78 266.29 106.54 265.94
  A 1.15 1.15 0.0 0 1 107.73 266.96
  Q 108.32 271.97 104.01 273.84
  C 99.85 275.64 97.03 276.83 91.49 278.95
  C 88.25 280.20 85.00 282.14 82.16 283.38
  Q 75.78 286.18 71.57 288.58
  C 68.11 290.56 63.30 293.15 64.60 298.74
  C 65.81 303.93 68.52 306.36 73.45 308.71
  Q 100.33 321.54 128.51 316.75
  C 140.27 314.75 148.36 314.29 158.43 310.74
  Q 175.98 304.54 192.98 296.93
  C 197.44 294.92 201.75 292.41 206.15 290.04
  C 211.61 287.09 217.48 284.77 223.24 282.28
  Q 226.38 280.92 228.50 284.31
  C 233.09 291.65 224.87 297.84 219.38 301.86
  Q 206.57 311.26 201.85 315.60
  C 192.54 324.17 183.59 330.88 174.48 341.42
  C 155.84 362.96 218.95 366.40 227.14 367.24
  Q 234.06 367.94 240.91 368.19
  Q 257.84 368.79 274.75 369.72
  C 280.80 370.05 289.06 369.35 296.07 369.54
  Q 315.33 370.08 334.91 369.92
  A 1.22 1.21 -3.1 0 1 336.13 371.01
  C 338.29 391.78 336.78 421.64 314.21 431.38
  C 306.63 434.65 293.28 435.93 285.01 434.93
  C 278.83 434.18 270.52 429.88 273.70 422.48
  C 276.50 415.99 287.44 414.15 287.27 407.24
  C 287.08 399.75 257.91 401.36 252.87 401.69
  C 230.91 403.13 208.12 406.31 187.25 407.74
  C 169.32 408.97 143.24 407.11 130.18 393.57
  Q 127.36 390.64 124.06 383.61
  Q 119.67 374.24 124.09 365.75
  C 125.60 362.83 128.54 359.78 130.98 356.92
  C 135.02 352.20 133.37 346.47 127.53 344.29
  C 124.02 342.98 114.10 347.24 110.21 348.56
  C 102.54 351.17 95.58 352.11 86.85 353.02
  C 74.82 354.28 63.48 353.98 52.45 348.97
  C 46.50 346.27 41.79 342.09 37.59 337.16
  C 33.26 332.07 33.56 327.11 32.84 320.92
  Q 32.39 317.14 32.33 313.56
  Q 32.05 296.61 32.84 279.68
  C 33.06 274.79 32.86 268.57 33.32 262.96
  A 1.37 1.36 1.6 0 1 34.65 261.71
  C 35.66 261.69 36.95 261.72 38.00 262.03
  C 44.31 263.85 50.18 265.58 56.97 266.37
  C 60.57 266.79 64.01 267.62 67.54 267.68
  Z
  M 307.13 420.62
  L 307.99 416.04
  A 1.33 1.32 -2.1 0 0 306.35 414.52
  Q 305.65 414.70 305.03 414.53
  A 1.11 1.10 32.9 0 0 304.04 414.74
  Q 301.91 416.43 301.06 419.03
  Q 300.85 419.64 300.25 419.84
  L 293.89 421.91
  Q 293.80 421.94 293.81 422.03
  L 293.86 422.30
  A 0.24 0.24 0.0 0 0 294.14 422.51
  Q 297.25 422.05 300.21 421.40
  C 301.70 421.07 302.75 420.27 304.20 419.69
  A 0.30 0.30 0.0 0 0 304.13 419.11
  Q 302.78 418.91 301.61 419.64
  Q 301.48 419.73 301.33 419.65
  Q 301.20 419.58 301.16 419.47
  Q 301.12 419.34 301.28 419.13
  Q 303.12 416.73 305.48 414.86
  Q 305.88 414.55 306.26 414.87
  C 308.02 416.37 306.21 419.42 305.72 420.85
  Q 305.56 421.34 305.15 421.65
  Q 303.76 422.71 302.98 424.27
  Q 302.74 424.73 302.23 424.65
  C 300.94 424.45 299.75 424.85 298.55 424.56
  Q 297.71 424.35 297.58 424.67
  Q 296.80 426.59 298.67 425.64
  Q 300.13 424.90 301.69 425.43
  A 2.09 2.08 -57.1 0 0 303.80 424.97
  L 306.37 422.55
  Q 306.73 422.21 307.24 422.18
  L 312.31 421.95
  Q 312.61 421.94 312.57 421.65
  L 312.53 421.35
  Q 312.50 421.14 312.29 421.14
  L 307.56 421.14
  Q 307.03 421.14 307.13 420.62
  Z"
/>
<path fill="#050504" d="
  M 98.05 279.55
  Q 99.47 281.45 100.17 283.72
  Q 100.22 283.87 100.06 283.90
  L 99.81 283.95
  Q 99.75 283.96 99.73 283.90
  Q 98.96 281.58 97.35 279.78
  Q 97.02 279.41 97.33 279.03
  Q 97.64 278.66 98.06 278.47
  Q 98.60 278.22 98.27 278.72
  L 98.04 279.07
  Q 97.88 279.32 98.05 279.55
  Z"
/>
<path fill="#050504" d="
  M 94.56 287.07
  L 94.25 287.14
  Q 94.15 287.16 94.12 287.06
  Q 94.00 286.65 94.15 286.42
  Q 94.38 286.08 94.77 286.20
  Q 95.77 286.50 96.77 285.73
  A 1.02 1.01 -33.0 0 0 97.05 284.44
  L 95.57 281.69
  Q 95.00 280.63 96.01 281.30
  Q 98.07 282.66 97.64 285.81
  Q 97.58 286.27 97.14 286.42
  Q 96.04 286.82 95.20 287.66
  A 0.09 0.09 0.0 0 1 95.08 287.66
  Q 94.89 287.49 94.82 287.24
  Q 94.76 287.03 94.56 287.07
  Z"
/>
<path fill="#050504" d="
  M 92.68 286.16
  Q 92.95 287.18 93.80 287.73
  A 0.38 0.38 0.0 0 1 93.64 288.42
  Q 93.41 288.45 93.19 288.37
  Q 93.00 288.30 92.86 288.05
  Q 91.91 286.42 90.72 284.92
  Q 90.47 284.60 90.49 284.19
  Q 90.57 282.50 92.35 282.39
  A 1.27 1.26 59.7 0 1 93.14 282.60
  Q 93.56 282.88 94.03 283.03
  C 94.99 283.33 95.76 284.27 95.66 285.28
  A 0.26 0.26 0.0 0 1 95.15 285.34
  Q 94.32 282.87 91.55 283.57
  A 0.50 0.50 0.0 0 0 91.18 284.18
  Q 91.38 284.96 92.05 285.43
  Q 92.82 285.97 92.99 285.05
  Q 93.07 284.62 93.36 284.26
  A 0.29 0.29 0.0 0 1 93.88 284.41
  L 93.95 285.00
  Q 93.98 285.29 93.25 285.82
  Q 93.12 285.91 92.97 285.87
  A 0.24 0.24 0.0 0 0 92.68 286.16
  Z"
/>
<path fill="#050504" d="
  M 158.91 300.40
  Q 158.53 300.69 158.04 300.72
  Q 157.32 300.77 157.81 300.24
  Q 159.18 298.73 161.32 298.76
  A 0.37 0.36 -53.3 0 1 161.42 299.47
  L 159.57 300.06
  Q 159.22 300.18 158.91 300.40
  Z"
/>
<ellipse fill="#050504" cx="0.00" cy="0.00" transform="translate(160.89,303.67) rotate(73.6)" rx="3.45" ry="0.34"/>
<path fill="#050504" d="
  M 156.78 308.54
  Q 157.30 308.13 157.40 307.25
  Q 157.73 304.19 156.08 301.61
  Q 155.98 301.44 156.13 301.32
  L 156.37 301.13
  Q 156.39 301.11 156.53 301.27
  Q 159.39 304.41 157.95 308.34
  A 1.51 1.44 84.5 0 1 157.39 309.05
  Q 155.65 310.23 154.78 307.74
  Q 153.74 304.78 154.14 301.54
  Q 154.17 301.29 154.42 301.31
  L 154.69 301.34
  Q 154.92 301.36 154.90 301.59
  Q 154.57 305.02 155.72 308.24
  A 0.68 0.68 0.0 0 0 156.78 308.54
  Z"
/>
<path fill="#050504" d="
  M 147.60 306.08
  L 148.90 310.95
  Q 148.98 311.26 148.68 311.37
  L 148.36 311.49
  Q 148.13 311.57 148.06 311.33
  L 146.22 304.34
  Q 145.47 301.48 147.39 303.74
  L 151.37 308.42
  Q 152.73 310.02 152.24 307.98
  L 151.00 302.73
  Q 150.94 302.50 151.18 302.44
  Q 151.31 302.40 151.44 302.46
  Q 151.51 302.50 151.56 302.60
  Q 153.20 306.25 153.22 310.25
  Q 153.22 310.68 153.11 310.75
  A 1.09 0.93 54.3 0 1 151.81 310.43
  L 148.13 305.82
  A 0.30 0.30 0.0 0 0 147.60 306.08
  Z"
/>
<path fill="#dbad95" d="
  M 246.50 433.63
  C 234.05 435.22 221.55 435.96 209.00 435.80
  Q 197.50 435.66 185.99 435.71
  C 159.94 435.82 133.64 434.87 109.00 434.97
  C 95.19 435.03 81.08 436.57 67.76 435.71
  C 54.85 434.87 40.99 427.23 36.31 414.50
  C 31.79 402.22 31.62 388.24 32.10 375.00
  Q 32.79 355.94 33.06 350.03
  C 33.14 348.26 32.78 346.99 34.00 345.47
  A 0.52 0.51 40.2 0 1 34.75 345.41
  C 37.86 348.22 40.56 351.72 43.57 354.05
  Q 56.50 364.06 72.81 365.56
  C 83.53 366.55 93.22 362.35 103.00 359.30
  C 105.72 358.45 110.81 357.64 113.39 358.92
  A 2.12 2.11 -71.5 0 1 114.52 361.21
  C 113.87 364.58 112.73 366.67 110.49 369.87
  C 100.64 383.97 114.70 401.80 127.68 407.87
  C 138.60 412.98 146.68 415.49 158.50 416.19
  Q 173.23 417.06 195.27 415.50
  C 216.44 414.00 237.69 410.76 258.72 408.00
  Q 264.06 407.30 268.02 409.36
  C 272.69 411.79 266.84 419.25 264.46 420.71
  Q 261.55 422.51 258.25 423.88
  A 1.78 1.77 -33.7 0 0 257.67 426.77
  C 259.08 428.20 260.71 428.54 261.04 430.98
  A 1.65 1.65 0.0 0 1 259.58 432.84
  C 255.21 433.30 250.68 433.10 246.50 433.63
  Z"
/>
<path fill="#050504" d="
  M 229.55 363.16
  L 231.00 363.41
  A 0.32 0.32 0.0 0 1 230.93 364.04
  L 228.49 363.86
  Q 227.90 363.82 227.96 363.24
  L 228.76 355.68
  Q 228.79 355.39 229.08 355.43
  L 229.36 355.47
  Q 229.37 355.47 229.36 355.62
  L 228.99 362.47
  Q 228.96 363.06 229.55 363.16
  Z"
/>
<path fill="#050504" d="
  M 234.1360 363.9222
  A 4.16 1.89 93.5 0 1 232.5035 359.6546
  A 4.16 1.89 93.5 0 1 234.6440 355.6178
  A 4.16 1.89 93.5 0 1 236.2765 359.8854
  A 4.16 1.89 93.5 0 1 234.1360 363.9222
  Z
  M 234.1968 362.9870
  A 3.42 0.97 92.4 0 0 235.3091 359.6106
  A 3.42 0.97 92.4 0 0 234.4832 356.1530
  A 3.42 0.97 92.4 0 0 233.3709 359.5294
  A 3.42 0.97 92.4 0 0 234.1968 362.9870
  Z"
/>
<path fill="#050504" d="
  M 239.49 361.89
  Q 239.31 361.81 239.10 361.77
  Q 238.72 361.69 238.77 362.08
  Q 238.89 362.97 238.87 363.25
  Q 238.83 363.74 238.42 363.73
  Q 237.95 363.73 237.97 363.26
  L 238.26 356.27
  Q 238.31 355.27 238.71 356.19
  Q 239.63 358.30 239.90 360.52
  Q 239.96 361.04 240.35 360.69
  Q 240.67 360.41 240.62 359.74
  Q 240.48 357.93 240.67 356.08
  Q 240.68 355.98 240.78 355.97
  L 241.18 355.97
  Q 241.40 355.97 241.39 356.19
  L 241.05 363.00
  Q 240.92 365.75 240.13 363.11
  L 239.92 362.38
  A 0.76 0.75 -86.8 0 0 239.49 361.89
  Z"
/>
<path fill="#050504" d="
  M 243.00 364.08
  A 0.19 0.19 0.0 0 1 242.82 363.87
  L 242.83 363.72
  A 8.04 0.47 -85.4 0 1 243.95 355.75
  L 244.09 355.76
  A 8.04 0.47 -85.4 0 1 243.91 363.81
  L 243.90 363.96
  A 0.19 0.19 0.0 0 1 243.69 364.13
  L 243.00 364.08
  Z"
/>
<path fill="#050504" d="
  M 248.38 363.87
  Q 248.69 364.00 248.81 364.22
  Q 249.03 364.62 248.57 364.64
  Q 247.76 364.67 247.17 364.17
  Q 246.76 363.82 246.83 363.29
  L 247.75 356.31
  Q 247.78 356.14 248.02 356.17
  L 248.03 356.17
  Q 248.18 356.20 248.17 356.35
  C 247.99 358.41 247.20 362.16 248.38 363.87
  Z"
/>
<ellipse fill="#f0d7c1" cx="0.00" cy="0.00" transform="translate(234.34,359.57) rotate(92.4)" rx="3.42" ry="0.97"/>
<path fill="#050504" d="
  M 253.66 358.03
  L 254.34 356.44
  A 0.13 0.13 0.0 0 1 254.50 356.38
  L 254.76 356.47
  Q 255.03 356.57 254.91 356.83
  L 251.49 364.41
  A 0.34 0.34 0.0 0 1 251.01 364.56
  L 250.79 364.43
  Q 250.67 364.36 250.73 364.23
  L 252.58 360.15
  Q 252.79 359.68 252.51 359.25
  L 250.90 356.78
  A 0.30 0.30 0.0 0 1 251.37 356.41
  L 252.95 358.15
  Q 253.40 358.64 253.66 358.03
  Z"
/>
<path fill="#f0d7c1" d="
  M 307.56 421.14
  L 312.29 421.14
  Q 312.50 421.14 312.53 421.35
  L 312.57 421.65
  Q 312.61 421.94 312.31 421.95
  L 307.24 422.18
  Q 306.73 422.21 306.37 422.55
  L 303.80 424.97
  A 2.09 2.08 -57.1 0 1 301.69 425.43
  Q 300.13 424.90 298.67 425.64
  Q 296.80 426.59 297.58 424.67
  Q 297.71 424.35 298.55 424.56
  C 299.75 424.85 300.94 424.45 302.23 424.65
  Q 302.74 424.73 302.98 424.27
  Q 303.76 422.71 305.15 421.65
  Q 305.56 421.34 305.72 420.85
  C 306.21 419.42 308.02 416.37 306.26 414.87
  Q 305.88 414.55 305.48 414.86
  Q 303.12 416.73 301.28 419.13
  Q 301.12 419.34 301.16 419.47
  Q 301.20 419.58 301.33 419.65
  Q 301.48 419.73 301.61 419.64
  Q 302.78 418.91 304.13 419.11
  A 0.30 0.30 0.0 0 1 304.20 419.69
  C 302.75 420.27 301.70 421.07 300.21 421.40
  Q 297.25 422.05 294.14 422.51
  A 0.24 0.24 0.0 0 1 293.86 422.30
  L 293.81 422.03
  Q 293.80 421.94 293.89 421.91
  L 300.25 419.84
  Q 300.85 419.64 301.06 419.03
  Q 301.91 416.43 304.04 414.74
  A 1.11 1.10 32.9 0 1 305.03 414.53
  Q 305.65 414.70 306.35 414.52
  A 1.33 1.32 -2.1 0 1 307.99 416.04
  L 307.13 420.62
  Q 307.03 421.14 307.56 421.14
  Z"
/>
</svg>
