<?xml version="1.0" encoding="UTF-8" standalone="no"?>
<!DOCTYPE svg PUBLIC "-//W3C//DTD SVG 1.1//EN" "http://www.w3.org/Graphics/SVG/1.1/DTD/svg11.dtd">
<svg xmlns="http://www.w3.org/2000/svg" version="1.1" viewBox="0.00 0.00 564.00 1128.00">
<g stroke-width="2.00" fill="none" stroke-linecap="butt">
<path stroke="#d7f1ed" vector-effect="non-scaling-stroke" d="
  M 564.00 394.75
  L 563.63 395.07
  A 0.50 0.49 -35.7 0 1 562.87 394.95
  C 560.69 391.06 557.54 391.77 553.85 391.11
  C 550.51 390.51 547.09 387.27 544.33 385.39
  A 3.22 3.19 59.5 0 0 542.24 384.84
  C 538.06 385.19 532.06 385.82 528.36 383.90
  Q 516.61 377.77 503.67 375.00
  C 500.53 374.33 497.08 372.74 494.75 370.42
  C 491.03 366.71 487.84 365.24 483.58 363.23
  Q 483.14 363.02 482.90 362.59
  C 481.99 360.92 482.06 358.79 480.10 357.85
  Q 471.70 353.80 462.74 351.15
  C 461.02 350.65 459.28 349.38 457.31 348.92
  Q 447.39 346.58 437.35 344.79
  C 429.18 343.32 420.79 343.71 412.51 344.01
  Q 407.38 344.20 404.03 344.67
  C 385.18 347.32 366.68 352.83 348.98 359.76
  Q 326.85 368.41 304.49 377.85"
/>
<path stroke="#b8d5d9" vector-effect="non-scaling-stroke" d="
  M 304.49 377.85
  Q 300.47 375.73 295.96 373.81
  C 284.48 368.94 275.89 368.04 260.49 367.01
  Q 252.11 366.46 243.75 365.81
  C 236.05 365.22 231.05 366.52 223.16 368.71
  C 212.35 371.71 200.50 371.60 189.99 375.24
  Q 177.72 379.50 164.29 381.02"
/>
<path stroke="#d7f1ed" vector-effect="non-scaling-stroke" d="
  M 164.29 381.02
  Q 162.31 378.73 159.25 379.01
  C 150.37 379.80 140.08 377.58 131.00 376.12
  C 128.31 375.69 125.08 374.57 121.94 374.20
  Q 118.08 373.74 114.24 373.08
  C 109.66 372.30 105.23 372.94 100.69 371.55
  Q 93.97 369.49 86.93 369.58
  Q 83.67 369.61 81.11 369.20
  C 75.62 368.32 70.63 368.91 65.36 368.56
  Q 60.66 368.24 56.63 368.55
  C 49.93 369.07 42.99 368.47 36.68 369.60
  C 31.10 370.59 25.55 371.63 20.91 374.69
  C 16.66 377.49 12.45 380.34 7.72 379.89
  C 4.90 379.62 2.60 380.39 0.00 381.14"
/>
<path stroke="#b5ccd1" vector-effect="non-scaling-stroke" d="
  M 564.00 447.94
  C 554.45 443.71 541.78 443.05 531.58 443.00
  Q 527.95 442.98 524.52 442.14
  Q 512.56 439.20 500.27 437.99
  C 496.88 437.65 492.47 436.58 488.74 434.79
  Q 482.52 431.81 478.49 430.78
  Q 465.11 427.36 452.23 422.42
  C 442.84 418.82 434.50 417.65 424.50 416.20
  Q 416.25 414.99 407.33 411.56
  Q 406.86 411.38 406.65 410.91
  Q 406.23 409.98 406.44 408.67"
/>
<path stroke="#d6c989" vector-effect="non-scaling-stroke" d="
  M 406.44 408.67
  Q 406.47 392.67 394.83 382.11
  C 374.63 363.77 341.47 370.18 331.18 395.99
  Q 327.63 404.90 330.05 415.47"
/>
<path stroke="#b5ccd1" vector-effect="non-scaling-stroke" d="
  M 330.05 415.47
  L 329.87 417.35
  Q 329.87 417.38 329.90 417.37
  Q 329.91 417.37 329.92 417.36
  Q 329.96 417.36 329.95 417.32
  Q 327.65 410.20 328.20 402.82
  Q 328.54 398.18 328.03 396.18
  C 325.53 386.39 314.80 383.09 304.49 377.85"
/>
<path stroke="#b7ad75" vector-effect="non-scaling-stroke" d="
  M 330.05 415.47
  Q 330.79 417.68 331.31 419.73
  Q 331.44 420.23 331.76 420.50
  Q 332.12 420.79 332.15 421.25
  C 332.38 424.24 335.42 428.68 337.11 431.16
  C 338.45 433.13 340.81 434.73 341.97 437.23"
/>
<path stroke="#84a1af" vector-effect="non-scaling-stroke" d="
  M 341.97 437.23
  Q 339.37 436.65 337.51 437.90
  Q 337.08 438.19 336.57 438.13
  C 334.03 437.87 331.60 437.15 329.13 437.23
  Q 316.97 437.60 310.50 439.54
  Q 296.73 443.69 283.01 448.04
  Q 275.51 450.42 256.28 452.78"
/>
<path stroke="#b2c8c9" vector-effect="non-scaling-stroke" d="
  M 256.28 452.78
  C 247.80 452.70 241.05 453.75 231.51 452.29
  Q 230.93 452.20 230.48 452.38
  Q 229.95 452.61 230.18 453.14
  Q 230.26 453.33 230.39 453.59"
/>
<path stroke="#84a1af" vector-effect="non-scaling-stroke" d="
  M 230.39 453.59
  Q 227.52 452.22 223.78 452.64"
/>
<path stroke="#708a9a" vector-effect="non-scaling-stroke" d="
  M 223.78 452.64
  C 217.16 450.88 210.70 449.54 203.97 447.43
  C 194.82 444.56 184.91 443.83 175.50 441.76
  C 172.42 441.08 168.06 441.17 164.51 440.59
  C 157.68 439.45 150.79 438.85 144.29 437.05
  Q 130.32 433.18 116.62 428.45
  C 113.54 427.38 110.24 426.47 107.06 425.45
  C 102.24 423.90 97.01 423.09 92.01 421.56
  C 85.62 419.61 77.65 420.67 71.10 421.44
  Q 70.94 421.46 60.85 422.34
  Q 53.48 422.99 44.74 425.68
  C 25.24 431.68 12.37 435.29 0.00 440.79"
/>
<path stroke="#b5ccd1" vector-effect="non-scaling-stroke" d="
  M 0.00 404.69
  C 7.05 398.13 20.01 395.70 29.50 395.53
  Q 40.23 395.34 50.91 394.45
  C 62.90 393.45 74.93 394.76 86.66 394.20
  Q 95.40 393.79 104.14 393.44
  Q 105.83 393.37 107.45 392.82
  Q 120.55 388.34 134.24 386.15
  C 144.31 384.53 154.42 383.60 164.29 381.02"
/>
<path stroke="#b7ad75" vector-effect="non-scaling-stroke" d="
  M 406.44 408.67
  Q 405.19 415.97 402.21 422.35
  C 400.82 425.31 397.95 426.46 396.58 429.48
  Q 395.28 432.37 394.50 435.46"
/>
<path stroke="#a49e67" vector-effect="non-scaling-stroke" d="
  M 394.50 435.46
  C 390.82 437.12 386.34 441.00 382.75 441.22
  Q 373.67 441.78 364.61 442.79
  C 356.69 443.67 348.98 440.23 341.97 437.23"
/>
<path stroke="#d9d291" vector-effect="non-scaling-stroke" d="
  M 388.56 407.99
  C 387.53 407.16 384.99 406.40 384.29 407.94
  Q 384.15 408.23 384.22 408.51
  Q 384.37 409.07 384.92 408.89
  Q 388.05 407.88 389.49 410.66
  A 0.79 0.78 -39.7 0 0 390.81 410.78
  C 393.91 406.81 395.42 408.44 398.87 409.84
  Q 399.61 410.14 399.25 409.43
  C 397.49 405.96 393.94 406.65 391.16 408.21
  A 2.33 2.32 49.7 0 1 388.56 407.99"
/>
<path stroke="#84a1af" vector-effect="non-scaling-stroke" d="
  M 564.00 454.76
  Q 559.92 454.86 555.83 454.97
  C 547.64 455.18 539.49 453.55 531.26 453.23
  C 520.21 452.81 508.23 451.90 497.53 449.01
  Q 492.32 447.61 490.51 447.47
  Q 467.18 445.66 460.75 444.93
  C 448.86 443.57 433.35 440.46 419.93 439.22
  Q 411.60 438.44 403.24 437.85
  C 399.49 437.58 397.47 436.18 394.50 435.46"
/>
<path stroke="#5e7b8c" vector-effect="non-scaling-stroke" d="
  M 223.78 452.64
  L 230.28 455.52
  A 1.17 1.16 1.9 0 1 230.91 456.19
  Q 231.41 457.66 231.24 460.06"
/>
<path stroke="#3a5162" vector-effect="non-scaling-stroke" d="
  M 231.24 460.06
  Q 226.87 458.70 222.62 457.96
  C 213.66 456.39 206.55 452.21 197.00 451.59
  Q 187.53 450.97 178.09 451.56
  Q 177.12 451.62 164.24 453.32
  Q 150.19 455.17 136.14 452.94
  C 131.39 452.19 125.86 450.69 120.71 449.49
  Q 115.52 448.28 109.18 447.81
  Q 97.64 446.95 86.23 445.09
  C 80.38 444.13 74.77 442.11 69.01 441.54
  Q 58.47 440.49 51.24 442.19
  C 43.02 444.12 36.80 444.98 31.38 449.56
  C 29.09 451.49 25.02 453.28 22.05 453.48
  Q 12.06 454.15 2.04 453.66"
/>
<path stroke="#708a9a" vector-effect="non-scaling-stroke" d="
  M 2.04 453.66
  Q 3.34 453.50 1.93 452.69
  A 0.61 0.60 59.5 0 0 1.63 452.61
  Q 0.29 452.59 0.00 451.98"
/>
<path stroke="#5b8392" vector-effect="non-scaling-stroke" d="
  M 564.00 464.07
  Q 562.75 463.68 561.36 463.53
  C 558.83 463.27 556.13 463.66 554.22 463.68
  Q 509.42 464.17 464.63 463.74
  C 462.02 463.71 459.42 464.53 456.80 464.58
  C 444.79 464.77 433.54 464.83 420.93 463.95
  Q 412.02 463.33 406.75 463.82
  Q 390.25 465.35 373.74 464.33
  C 363.55 463.71 355.12 463.86 345.70 463.97
  C 344.65 463.98 343.97 464.32 343.06 464.72"
/>
<path stroke="#8ab3ba" vector-effect="non-scaling-stroke" d="
  M 343.06 464.72
  Q 342.82 464.18 342.00 464.16
  Q 315.11 463.33 290.76 465.09
  Q 288.25 465.27 285.90 465.36"
/>
<path stroke="#5b8392" vector-effect="non-scaling-stroke" d="
  M 285.90 465.36
  Q 283.69 465.11 281.42 465.31
  Q 279.92 465.44 277.64 465.08
  Q 275.05 464.67 273.01 465.86"
/>
<path stroke="#749ba9" vector-effect="non-scaling-stroke" d="
  M 273.01 465.86
  Q 266.93 465.61 260.26 465.13
  C 254.20 464.70 248.41 461.82 241.32 463.51"
/>
<path stroke="#4d6977" vector-effect="non-scaling-stroke" d="
  M 241.32 463.51
  Q 239.54 463.24 238.10 462.18
  A 1.56 1.52 62.5 0 0 237.19 461.88
  Q 233.75 461.84 231.24 460.06"
/>
<path stroke="#a0b9bb" vector-effect="non-scaling-stroke" d="
  M 230.39 453.59
  Q 239.03 454.80 248.63 454.65
  Q 250.71 454.62 256.28 452.78"
/>
<path stroke="#50717f" vector-effect="non-scaling-stroke" d="
  M 241.32 463.51
  C 240.12 463.77 239.25 463.75 237.91 463.36
  C 236.15 462.86 234.81 463.69 233.25 463.66
  Q 230.87 463.63 228.49 463.64
  Q 228.22 463.64 227.88 463.38
  Q 227.68 463.22 227.62 462.96
  A 0.16 0.15 61.7 0 0 227.36 462.88
  L 227.13 463.11
  A 0.78 0.78 0.0 0 1 226.59 463.35
  C 211.71 463.77 196.86 463.48 181.98 463.68
  Q 176.20 463.76 170.72 462.91"
/>
<path stroke="#668990" vector-effect="non-scaling-stroke" d="
  M 170.72 462.91
  L 155.28 463.03"
/>
<path stroke="#74959c" vector-effect="non-scaling-stroke" d="
  M 155.28 463.03
  C 150.11 462.97 144.61 463.40 139.48 462.97
  Q 138.32 462.87 138.02 463.80
  A 1.38 1.37 -81.2 0 1 136.75 464.74
  L 119.54 465.00"
/>
<path stroke="#7c9091" vector-effect="non-scaling-stroke" d="
  M 119.54 465.00
  Q 114.55 465.28 109.66 465.06
  C 100.79 464.68 92.64 465.05 84.10 464.93
  C 69.31 464.72 57.15 464.73 43.68 464.70
  C 38.52 464.68 32.22 465.55 27.00 465.27
  Q 13.51 464.53 0.00 464.68"
/>
<path stroke="#607885" vector-effect="non-scaling-stroke" d="
  M 0.00 453.98
  Q 0.40 453.52 2.04 453.66"
/>
<path stroke="#5e8b99" vector-effect="non-scaling-stroke" d="
  M 273.01 465.86
  Q 275.70 466.56 277.94 465.93
  A 0.69 0.69 0.0 0 1 278.77 466.86
  C 277.41 470.18 280.04 472.51 282.32 473.93
  Q 300.21 485.00 320.24 491.41
  C 323.14 492.34 326.37 493.86 328.99 494.54
  C 337.42 496.72 345.77 499.72 354.08 501.46
  C 367.96 504.37 381.66 507.29 395.74 509.14
  C 398.92 509.56 402.37 510.61 405.75 511.09
  C 420.41 513.17 433.86 514.96 449.40 518.68
  C 452.64 519.46 454.68 520.51 457.08 522.52
  A 0.85 0.85 0.0 0 1 456.83 523.97
  C 444.01 528.75 430.18 530.89 416.71 533.35
  C 409.23 534.72 403.08 537.56 395.19 535.94
  A 1.84 1.84 0.0 0 1 394.01 533.15
  C 396.23 529.67 399.38 524.81 395.76 521.10
  Q 395.40 520.73 394.93 520.91
  Q 392.27 521.91 389.43 521.31"
/>
<path stroke="#9bc7cd" vector-effect="non-scaling-stroke" d="
  M 389.43 521.31
  L 391.76 521.15
  A 1.15 1.15 0.0 0 0 392.71 519.50
  C 390.42 514.79 364.72 511.86 359.15 510.93
  C 358.12 510.76 357.51 511.36 356.46 510.69
  Q 352.98 508.49 351.26 508.02
  Q 346.31 506.66 330.97 503.59
  Q 329.36 503.27 327.51 503.46
  C 322.85 503.93 316.90 501.59 312.34 500.38
  C 310.08 499.78 305.67 499.20 305.34 502.49
  Q 305.21 503.77 306.07 504.08
  Q 306.51 504.25 306.75 503.84
  Q 307.03 503.38 307.43 503.19
  Q 307.85 502.99 308.57 503.19
  Q 312.11 504.21 315.66 505.29
  C 316.59 505.58 317.32 505.31 317.97 504.71
  A 1.14 1.14 0.0 0 1 319.54 504.72
  C 321.90 507.00 327.00 505.86 330.18 505.88"
/>
<path stroke="#5e8b99" vector-effect="non-scaling-stroke" d="
  M 330.18 505.88
  C 327.47 506.35 325.09 507.39 322.38 507.42
  Q 316.51 507.50 310.46 507.14
  Q 310.20 507.12 310.19 507.39
  L 310.19 507.66
  A 0.59 0.58 5.1 0 0 310.69 508.25
  C 318.59 509.52 325.03 512.00 331.80 513.21
  Q 332.39 513.31 332.39 512.71
  Q 332.38 512.33 331.94 512.08
  Q 329.48 510.68 330.90 508.83"
/>
<path stroke="#9bc7cd" vector-effect="non-scaling-stroke" d="
  M 330.90 508.83
  Q 331.70 509.32 332.74 509.24
  Q 333.25 509.20 333.74 509.38
  Q 334.56 509.70 335.14 510.35
  Q 335.52 510.77 336.07 510.88
  Q 338.60 511.38 340.83 510.12
  A 0.92 0.90 -40.6 0 1 341.85 510.19
  Q 342.76 510.91 343.36 511.93
  A 0.77 0.76 72.9 0 0 344.07 512.31
  C 347.57 512.09 357.26 508.96 359.09 513.14"
/>
<path stroke="#5e8b99" vector-effect="non-scaling-stroke" d="
  M 359.09 513.14
  Q 357.14 513.66 355.39 513.47
  Q 354.97 513.43 354.89 513.02
  Q 354.75 512.32 354.15 511.87
  Q 353.66 511.51 353.17 511.86
  L 352.66 512.24
  Q 352.24 512.55 352.16 513.06
  Q 352.14 513.18 352.14 513.31
  Q 352.11 513.69 351.73 513.68
  L 340.75 513.43
  Q 340.17 513.42 340.11 512.84
  Q 340.07 512.55 339.81 512.35
  Q 339.33 511.98 338.93 512.44
  L 337.52 514.02
  A 0.51 0.51 0.0 0 0 337.68 514.81
  C 342.55 517.21 347.80 517.97 352.84 520.06
  Q 359.43 522.79 362.20 523.48
  Q 367.05 524.68 372.01 525.36
  C 377.53 526.10 382.30 526.66 385.65 529.24
  C 388.34 531.31 387.81 533.15 387.98 536.25
  C 388.35 542.67 395.22 545.64 399.99 547.51
  Q 407.97 550.62 427.86 555.70
  C 432.36 556.85 436.14 558.26 440.03 560.16
  Q 443.18 561.70 439.87 562.84
  Q 431.96 565.57 422.24 566.71
  Q 402.41 569.03 382.75 572.51
  Q 378.84 573.21 377.16 574.74"
/>
<path stroke="#9bc7cd" vector-effect="non-scaling-stroke" d="
  M 377.16 574.74
  Q 372.36 573.75 366.90 572.30
  C 365.15 571.84 360.60 572.08 360.50 574.82
  Q 360.42 577.45 362.21 575.41
  Q 362.50 575.08 362.96 574.85
  Q 363.43 574.62 363.87 574.91
  Q 366.43 576.63 369.14 576.57"
/>
<path stroke="#5e8b99" vector-effect="non-scaling-stroke" d="
  M 369.14 576.57
  L 369.55 578.85
  A 0.58 0.57 -3.9 0 1 368.95 579.53
  L 366.63 579.40
  A 1.69 1.69 0.0 0 0 365.01 581.80
  C 366.38 584.71 368.12 585.21 371.44 586.52
  C 391.10 594.27 409.14 595.47 432.49 597.99
  C 435.14 598.27 438.55 598.11 441.58 598.62
  C 445.85 599.35 447.96 599.63 451.19 600.07
  C 453.90 600.44 457.48 600.09 460.50 600.98
  C 464.16 602.06 462.14 605.52 462.17 607.75
  Q 462.22 612.12 462.12 614.67
  C 461.99 617.75 463.33 620.04 462.77 623.32
  A 1.89 1.85 -51.1 0 0 462.86 624.27
  Q 464.24 628.09 465.49 631.92
  C 473.19 655.60 504.55 659.49 524.82 661.98
  C 526.90 662.24 529.25 661.96 531.55 662.30
  C 535.33 662.87 538.70 662.72 542.22 663.37
  Q 544.00 663.70 547.55 665.36
  Q 553.83 668.30 560.76 667.33
  Q 562.47 667.08 564.00 666.04"
/>
<path stroke="#a6c5cb" vector-effect="non-scaling-stroke" d="
  M 564.00 719.86
  C 563.74 721.96 564.34 727.02 562.88 728.40
  Q 562.58 728.68 562.88 728.95
  Q 563.94 729.92 563.84 731.50
  Q 563.59 735.29 564.00 739.01"
/>
<path stroke="#a6c5cb" vector-effect="non-scaling-stroke" d="
  M 564.00 1121.87
  Q 561.69 1124.28 558.54 1126.27
  C 556.34 1127.66 554.00 1127.78 551.49 1128.00"
/>
<path stroke="#8dbbc2" vector-effect="non-scaling-stroke" d="
  M 514.76 1128.00
  Q 514.61 1127.76 514.09 1127.73
  Q 513.90 1127.71 513.73 1127.64
  Q 513.21 1127.43 513.47 1127.26
  A 0.38 0.38 0.0 0 0 513.59 1126.75
  C 507.47 1116.34 501.86 1104.28 496.10 1095.09
  Q 488.95 1083.67 480.92 1072.82
  C 476.42 1066.73 470.04 1059.66 464.70 1055.79
  Q 453.61 1047.74 444.41 1037.71
  Q 437.78 1030.48 434.27 1027.11
  C 426.23 1019.40 417.81 1011.73 411.36 1002.61"
/>
<path stroke="#9bc7cd" vector-effect="non-scaling-stroke" d="
  M 411.36 1002.61
  Q 406.01 994.55 402.94 991.56
  C 397.31 986.05 390.87 980.25 386.86 974.09
  C 383.03 968.20 380.60 962.52 379.02 955.34
  C 377.30 947.52 375.92 941.45 378.28 934.23
  Q 379.34 930.99 384.04 923.68
  C 387.14 918.86 389.94 913.57 393.30 909.32
  C 398.24 903.08 403.81 898.67 409.54 893.82"
/>
<path stroke="#8dbbc2" vector-effect="non-scaling-stroke" d="
  M 409.54 893.82
  C 413.79 890.68 417.96 887.73 422.76 885.11
  Q 440.16 875.65 457.15 865.50
  C 459.61 864.04 463.87 861.77 465.26 859.75
  C 471.44 850.80 474.45 836.24 475.31 823.78
  C 475.45 821.84 475.12 819.25 474.48 817.74
  C 471.14 809.76 467.74 800.62 463.80 793.89
  Q 458.12 784.19 450.34 777.01"
/>
<path stroke="#9bc7cd" vector-effect="non-scaling-stroke" d="
  M 450.34 777.01
  Q 441.12 774.48 434.00 771.97
  C 424.14 768.50 413.86 764.32 405.81 757.92
  Q 398.73 752.30 396.19 743.62"
/>
<path stroke="#8dbbc2" vector-effect="non-scaling-stroke" d="
  M 396.19 743.62
  C 395.90 739.38 395.74 737.29 399.01 733.50
  C 402.54 729.40 409.18 726.02 415.93 722.83
  C 426.39 717.89 440.90 714.75 448.83 705.80
  Q 452.40 701.77 452.07 696.01
  C 451.77 690.99 443.53 686.33 439.49 684.41
  Q 423.60 676.86 407.20 670.68"
/>
<path stroke="#9bc7cd" vector-effect="non-scaling-stroke" d="
  M 407.20 670.68
  Q 398.79 667.17 391.58 662.26
  C 376.65 652.11 391.68 644.17 401.11 638.02"
/>
<path stroke="#8dbbc2" vector-effect="non-scaling-stroke" d="
  M 401.11 638.02
  Q 409.91 633.55 416.32 625.87
  C 418.54 623.21 414.78 620.06 412.66 618.91
  C 406.58 615.58 400.45 613.78 394.25 611.22
  Q 389.47 609.25 386.49 605.64"
/>
<path stroke="#9bc7cd" vector-effect="non-scaling-stroke" d="
  M 386.49 605.64
  Q 384.59 601.40 380.69 600.05
  Q 371.48 596.88 360.24 595.26
  C 356.71 594.75 353.43 593.83 349.84 593.71
  A 1.67 1.58 60.6 0 1 349.00 593.45
  C 341.55 588.72 331.52 587.12 322.96 585.49
  C 320.03 584.93 317.35 585.79 314.47 585.07
  Q 309.12 583.74 304.00 581.77
  Q 299.76 580.15 296.82 582.87"
/>
<path stroke="#8dbbc2" vector-effect="non-scaling-stroke" d="
  M 296.82 582.87
  C 287.17 581.83 275.19 579.64 268.39 571.86
  C 262.42 565.02 280.88 561.68 284.99 560.97
  Q 304.91 557.55 324.74 553.65
  Q 330.97 552.42 335.61 548.21
  Q 335.99 547.87 336.04 547.37
  Q 336.23 545.69 335.82 544.27"
/>
<path stroke="#9bc7cd" vector-effect="non-scaling-stroke" d="
  M 335.82 544.27
  C 334.23 537.89 308.76 535.89 302.75 535.16
  C 300.41 534.88 297.91 533.32 295.72 532.73
  C 287.97 530.65 279.82 528.54 272.60 528.83
  Q 270.24 528.93 268.25 528.11
  Q 263.78 526.28 259.40 524.38"
/>
<path stroke="#8dbbc2" vector-effect="non-scaling-stroke" d="
  M 259.40 524.38
  L 263.91 519.81
  A 0.92 0.91 34.8 0 0 263.64 518.34
  L 255.35 514.51"
/>
<path stroke="#9bc7cd" vector-effect="non-scaling-stroke" d="
  M 255.35 514.51
  L 253.78 513.65"
/>
<path stroke="#8dbbc2" vector-effect="non-scaling-stroke" d="
  M 253.78 513.65
  Q 251.36 508.85 248.77 507.44
  Q 240.20 502.76 228.44 502.49
  C 225.83 502.43 224.41 501.36 222.07 500.56"
/>
<path stroke="#9bc7cd" vector-effect="non-scaling-stroke" d="
  M 222.07 500.56
  Q 220.87 500.40 219.92 499.61
  Q 219.53 499.28 219.86 498.89
  Q 221.11 497.44 222.97 496.90
  Q 224.74 496.39 224.03 494.82
  A 1.61 1.59 -7.3 0 0 222.83 493.90
  Q 213.88 492.37 204.75 491.06
  Q 202.32 490.71 199.87 492.12
  A 1.47 1.44 -55.9 0 1 198.93 492.31
  Q 193.00 491.60 188.23 488.34"
/>
<path stroke="#8dbbc2" vector-effect="non-scaling-stroke" d="
  M 188.23 488.34
  Q 187.26 486.73 187.31 485.18
  A 1.23 1.22 69.2 0 1 187.68 484.35
  C 192.68 479.58 199.52 480.95 205.17 477.38
  A 0.23 0.22 44.2 0 0 205.16 477.00
  Q 200.34 474.11 194.76 474.43
  Q 194.23 474.47 193.74 474.23
  Q 190.56 472.69 188.13 475.01
  Q 187.76 475.36 187.24 475.42
  Q 181.67 476.01 179.18 475.35
  C 176.40 474.62 174.15 471.01 178.15 470.03
  C 180.62 469.42 182.72 468.65 185.31 468.86
  Q 186.87 468.99 188.98 469.19
  A 0.61 0.60 -4.4 0 0 189.63 468.44
  L 189.53 468.06
  Q 189.32 467.20 188.45 467.04
  C 184.43 466.27 180.87 465.62 177.23 465.32
  Q 173.96 465.04 170.72 462.91"
/>
<path stroke="#5e8b99" vector-effect="non-scaling-stroke" d="
  M 254.88 477.32
  Q 254.28 475.66 253.59 476.81
  C 252.30 478.99 257.50 484.17 258.67 485.77
  C 260.92 488.82 260.61 493.14 264.78 494.50
  Q 265.23 494.64 265.65 494.46
  C 269.37 492.82 269.90 487.56 266.08 485.97"
/>
<path stroke="#9bc7cd" vector-effect="non-scaling-stroke" d="
  M 266.08 485.97
  L 268.69 486.39
  Q 269.24 486.48 269.12 485.93
  C 268.92 485.00 268.57 484.61 267.66 484.09
  C 266.81 483.61 265.98 482.34 265.28 482.13
  Q 264.71 481.95 264.18 482.15"
/>
<path stroke="#5e8b99" vector-effect="non-scaling-stroke" d="
  M 264.18 482.15
  Q 263.12 482.00 262.69 481.50"
/>
<path stroke="#9bc7cd" vector-effect="non-scaling-stroke" d="
  M 262.69 481.50
  Q 262.82 481.42 262.88 481.32
  Q 263.02 481.03 262.75 480.84
  C 261.89 480.24 261.41 479.61 260.36 479.24
  C 258.58 478.63 257.34 476.73 256.06 476.36
  Q 254.98 476.04 254.88 477.32"
/>
<path stroke="#82afb6" vector-effect="non-scaling-stroke" d="
  M 262.69 481.50
  L 254.88 477.32"
/>
<path stroke="#82afb6" vector-effect="non-scaling-stroke" d="
  M 264.18 482.15
  Q 264.97 485.33 266.08 485.97"
/>
<path stroke="#b1dfdf" vector-effect="non-scaling-stroke" d="
  M 155.28 463.03
  Q 156.49 463.32 156.55 463.36
  Q 159.05 465.06 155.99 465.03
  Q 148.48 464.96 141.03 466.21
  A 1.31 1.31 0.0 0 0 140.43 468.53
  C 142.17 469.91 144.02 470.93 146.33 471.45
  Q 156.40 473.73 166.24 476.83
  Q 169.29 477.79 170.99 480.16
  A 0.80 0.80 0.0 0 1 170.48 481.41
  L 162.01 482.90
  Q 161.47 483.00 161.51 483.54
  C 161.65 485.94 164.63 486.46 166.50 486.69
  Q 177.13 488.01 188.23 488.34"
/>
<path stroke="#b1dfdf" vector-effect="non-scaling-stroke" d="
  M 222.07 500.56
  C 222.28 503.35 218.10 503.03 218.80 507.83
  Q 218.92 508.63 219.69 508.85
  C 227.24 511.01 235.45 511.61 243.28 512.30
  C 246.40 512.57 250.16 513.70 253.78 513.65"
/>
<path stroke="#b1dfdf" vector-effect="non-scaling-stroke" d="
  M 255.35 514.51
  C 257.64 520.18 249.85 523.21 245.95 525.37
  Q 245.52 525.60 245.43 526.08
  C 244.24 532.15 265.86 533.28 269.55 533.51"
/>
<path stroke="#abced4" vector-effect="non-scaling-stroke" d="
  M 269.55 533.51
  Q 272.44 533.29 275.29 533.88
  Q 276.20 534.07 276.68 533.91
  Q 277.65 533.56 277.44 532.44
  A 1.71 1.71 0.0 0 0 275.50 531.07
  L 269.50 532.00"
/>
<path stroke="#b1dfdf" vector-effect="non-scaling-stroke" d="
  M 269.50 532.00
  Q 267.07 531.93 266.12 530.40
  Q 265.01 528.60 264.66 530.69
  Q 264.56 531.25 263.25 531.05
  Q 259.76 530.52 256.50 529.17
  C 255.19 528.63 254.60 528.89 253.32 529.23
  A 1.66 1.66 0.0 0 1 251.36 528.24
  L 251.21 527.84
  A 1.34 1.34 0.0 0 1 252.15 526.05
  L 259.40 524.38"
/>
<path stroke="#b1dfdf" vector-effect="non-scaling-stroke" d="
  M 335.82 544.27
  L 328.75 544.52
  A 0.97 0.95 72.1 0 1 327.91 544.08
  L 327.11 542.85
  Q 326.83 542.42 326.32 542.50
  C 323.72 542.90 319.31 544.69 318.79 540.58
  Q 318.72 540.03 318.22 539.78
  Q 316.98 539.15 316.12 540.35
  A 0.75 0.75 0.0 0 0 316.28 541.39
  Q 318.26 542.88 319.57 545.05
  A 1.50 1.50 0.0 0 1 318.95 547.17
  Q 316.87 548.21 314.49 548.68
  Q 297.30 552.10 279.96 554.74
  Q 276.75 555.23 273.10 556.07
  Q 269.52 556.90 266.23 557.53"
/>
<path stroke="#cdf3f0" vector-effect="non-scaling-stroke" d="
  M 266.23 557.53
  Q 265.28 553.42 260.50 553.34
  Q 255.01 553.24 235.82 553.25
  C 228.17 553.25 220.99 552.73 213.56 552.11
  C 208.75 551.71 197.05 550.08 193.88 546.14
  Q 190.46 541.89 195.02 539.28
  C 199.69 536.61 204.29 535.84 207.81 531.44
  Q 208.72 530.30 207.61 529.36
  C 203.57 525.95 195.26 525.38 190.90 524.10
  C 186.88 522.92 181.77 521.89 178.25 519.60
  A 0.83 0.82 44.0 0 1 178.22 518.23
  C 180.43 516.68 182.55 515.71 185.44 515.74
  Q 190.93 515.80 196.83 515.56
  Q 198.97 515.47 198.36 513.43
  Q 198.20 512.88 196.71 512.31
  C 192.91 510.87 189.23 509.32 185.35 508.19
  Q 165.54 502.38 145.78 496.41
  Q 143.97 495.87 142.46 495.04
  Q 140.43 493.95 141.91 492.18
  C 143.47 490.33 148.59 489.84 151.16 488.82
  A 0.76 0.75 -32.9 0 0 151.43 487.59
  L 148.50 484.57
  A 2.18 2.17 -51.8 0 1 148.19 481.92
  Q 149.44 479.83 151.56 478.57
  A 0.71 0.70 48.8 0 0 151.63 477.41
  C 145.91 472.95 137.60 471.74 130.68 470.55
  Q 125.24 469.61 121.72 465.56
  Q 121.37 465.16 120.85 465.28
  Q 120.17 465.43 119.71 465.92
  Q 119.39 466.26 118.95 466.39
  L 117.55 466.80"
/>
<path stroke="#c7e6df" vector-effect="non-scaling-stroke" d="
  M 117.55 466.80
  Q 117.01 465.81 119.54 465.00"
/>
<path stroke="#abced4" vector-effect="non-scaling-stroke" d="
  M 295.46 536.84
  L 302.64 537.83
  Q 302.90 537.86 302.95 537.60
  L 302.99 537.34
  Q 303.07 536.89 302.67 536.68
  Q 298.77 534.56 295.34 535.94
  Q 293.69 536.60 295.46 536.84"
/>
<path stroke="#82afb6" vector-effect="non-scaling-stroke" d="
  M 369.14 576.57
  Q 373.02 575.99 374.51 576.51
  C 376.13 577.07 378.13 579.34 380.29 579.77
  C 382.20 580.14 383.70 580.18 385.50 581.01
  C 388.26 582.29 390.93 584.09 394.23 583.26
  Q 394.42 583.21 394.25 583.12
  Q 394.12 583.06 393.99 582.99
  A 0.20 0.20 0.0 0 1 393.98 582.64
  C 395.91 581.56 399.15 584.32 400.59 585.14
  A 1.12 1.12 0.0 0 0 401.64 585.16
  L 404.25 583.79
  A 0.84 0.84 0.0 0 1 405.26 583.97
  C 408.47 587.48 412.33 585.45 416.24 584.67
  Q 417.37 584.45 417.93 585.71
  Q 418.10 586.11 417.89 586.50
  Q 417.54 587.15 417.62 587.89
  A 0.67 0.66 86.6 0 0 418.28 588.48
  L 420.31 588.47
  Q 420.85 588.47 421.30 588.76
  Q 424.66 590.98 427.75 588.39
  A 0.73 0.73 0.0 0 1 428.80 588.51
  L 430.43 590.68
  A 0.96 0.94 60.9 0 0 431.51 591.00
  C 435.35 589.58 440.72 587.00 444.71 588.81
  C 446.29 589.53 446.83 591.31 447.61 592.78
  Q 447.88 593.28 448.42 593.44
  Q 451.92 594.44 454.13 591.74
  A 0.59 0.59 0.0 0 1 455.10 591.84
  C 456.80 595.06 459.20 593.36 461.05 591.61
  A 1.18 1.18 0.0 0 1 463.04 592.45
  L 463.05 593.50
  Q 463.05 593.93 463.43 594.14
  Q 463.64 594.26 463.88 594.19
  Q 464.16 594.11 464.35 593.67
  Q 465.15 591.85 465.92 590.14
  A 0.64 0.63 14.8 0 0 465.40 589.26
  Q 455.22 588.27 445.15 587.48
  C 442.29 587.26 439.60 585.59 436.80 584.92
  Q 424.48 581.98 411.85 582.01
  Q 408.03 582.02 404.74 581.21
  Q 391.26 577.87 377.16 574.74"
/>
<path stroke="#82afb6" vector-effect="non-scaling-stroke" d="
  M 359.09 513.14
  Q 360.39 516.92 363.64 516.78
  C 365.65 516.69 367.12 513.97 369.17 516.95
  A 1.79 1.79 0.0 0 0 372.01 517.09
  Q 373.41 515.41 375.51 515.65
  A 0.56 0.55 -82.6 0 1 376.00 516.29
  C 375.24 520.93 381.03 519.49 383.73 518.70
  A 0.43 0.43 0.0 0 1 384.25 518.95
  Q 385.57 522.28 389.43 521.31"
/>
<path stroke="#74a3ab" vector-effect="non-scaling-stroke" d="
  M 285.90 465.36
  L 285.61 467.85
  Q 285.54 468.40 286.03 468.66
  L 292.53 472.20
  Q 292.91 472.41 293.35 472.38
  Q 295.37 472.25 296.17 474.27
  Q 296.45 474.96 297.22 474.73
  Q 297.67 474.60 297.79 474.14
  Q 297.95 473.54 298.00 473.42
  Q 299.14 470.94 299.13 473.67
  Q 299.12 475.36 301.48 476.01
  Q 309.05 478.09 316.68 479.88
  Q 338.20 484.95 360.25 486.42
  C 365.84 486.80 372.19 486.34 376.92 486.40
  C 383.23 486.48 389.42 486.67 395.65 485.84
  Q 410.97 483.80 424.76 480.50
  Q 427.71 479.79 430.34 477.72
  Q 430.71 477.42 430.81 477.06
  Q 430.92 476.66 430.95 476.24
  A 0.48 0.48 0.0 0 0 430.31 475.76
  C 429.36 476.11 428.97 476.30 427.94 475.90
  C 422.79 473.93 415.75 474.78 410.41 475.60
  C 399.69 477.24 388.65 476.11 377.85 476.25
  C 374.80 476.29 371.62 475.23 368.47 474.87
  Q 358.25 473.69 348.50 470.40
  C 346.96 469.88 341.65 466.89 343.06 464.72"
/>
<path stroke="#d4ede5" vector-effect="non-scaling-stroke" d="
  M 117.55 466.80
  Q 116.37 467.76 115.37 467.84
  C 111.60 468.16 102.86 470.63 104.11 475.36
  Q 104.79 477.93 107.77 479.19
  Q 118.75 483.84 129.82 489.12
  A 0.90 0.90 0.0 0 1 129.79 490.76
  C 125.08 492.77 122.87 493.50 119.47 498.22
  C 114.17 505.59 125.00 509.09 129.78 510.72
  C 143.60 515.42 157.57 518.81 171.54 522.93
  C 175.47 524.08 182.23 525.64 187.53 527.73
  A 0.72 0.71 28.7 0 1 187.85 528.80
  Q 186.94 530.08 185.39 531.10
  Q 179.43 535.00 173.48 538.92
  C 165.53 544.14 160.89 555.24 170.12 562.14
  Q 175.03 565.80 180.61 568.37
  C 196.84 575.84 214.55 578.80 231.53 584.02
  C 239.58 586.50 247.91 588.28 255.36 592.40
  A 1.14 1.14 0.0 0 1 255.77 593.99
  Q 255.28 594.78 254.43 595.22
  Q 251.23 596.88 247.82 597.96
  C 245.23 598.77 239.92 599.30 236.06 600.64
  C 231.92 602.08 228.99 602.93 225.42 604.11
  Q 225.18 604.19 225.10 603.95
  L 225.02 603.70
  Q 224.95 603.49 225.16 603.39
  L 229.51 601.47
  A 0.32 0.32 0.0 0 0 229.43 600.86
  Q 228.24 600.72 227.12 601.13
  C 220.92 603.39 214.54 604.69 208.26 606.63
  C 207.21 606.95 205.63 606.75 204.42 607.07
  C 197.40 608.93 189.91 610.65 183.52 613.33
  Q 176.09 616.44 169.09 620.45
  C 167.39 621.43 165.79 622.96 164.04 624.11
  C 159.72 626.95 153.00 632.71 153.64 638.74
  C 155.23 653.47 197.38 659.77 208.56 661.94
  Q 220.22 664.20 231.96 666.02
  C 244.28 667.93 253.98 669.71 264.98 671.83
  Q 279.99 674.72 286.00 677.01
  C 289.76 678.44 295.38 680.75 298.01 683.85
  A 1.84 1.83 -48.6 0 1 298.14 686.06
  C 296.46 688.59 294.38 689.79 291.28 690.65
  C 283.59 692.78 275.89 694.80 268.26 697.10
  Q 263.40 698.56 258.34 699.03
  C 243.60 700.39 230.05 705.23 215.88 709.19
  Q 211.47 710.43 208.24 712.45
  C 203.04 715.70 197.32 719.70 193.91 724.70
  Q 191.57 728.14 190.08 732.07
  Q 189.47 733.66 188.72 733.97
  Q 182.72 736.47 179.01 741.56
  Q 176.32 745.26 175.44 746.05
  C 171.58 749.53 167.64 751.94 164.58 756.83
  Q 163.34 758.82 160.45 765.38
  Q 157.01 773.18 152.57 780.46
  C 149.10 786.13 147.60 790.37 147.13 796.50
  Q 146.41 806.02 145.51 815.52
  Q 144.79 823.05 146.00 827.75
  C 148.50 837.46 150.37 847.95 154.06 856.65
  C 159.05 868.44 165.65 879.55 175.29 887.87
  Q 181.58 893.30 184.40 895.90
  C 189.68 900.76 196.96 904.99 200.81 911.06
  Q 204.79 917.32 209.32 923.19
  C 210.64 924.91 211.64 927.21 212.10 928.99
  Q 214.33 937.49 216.79 945.93
  Q 218.15 950.61 218.49 955.20
  C 218.98 961.88 219.62 968.74 219.52 975.34
  C 219.43 980.82 219.41 984.46 216.85 988.40
  C 213.90 992.92 211.49 997.60 208.90 1002.32
  C 205.53 1008.42 200.59 1015.38 197.59 1021.31
  Q 194.30 1027.81 193.00 1037.26
  C 191.26 1049.86 189.75 1063.83 193.06 1075.50
  C 196.33 1087.01 202.70 1097.89 212.09 1105.18
  C 215.87 1108.11 221.15 1110.55 225.77 1112.94
  Q 232.70 1116.54 238.83 1125.17
  Q 240.80 1127.93 245.38 1128.00"
/>
<path stroke="#c7e6df" vector-effect="non-scaling-stroke" d="
  M 22.13 1128.00
  C 15.24 1126.91 9.11 1124.08 5.30 1118.18
  C 3.55 1115.46 1.37 1111.28 0.00 1107.75"
/>
<path stroke="#d1e4dd" vector-effect="non-scaling-stroke" d="
  M 0.00 575.88
  Q 1.52 567.02 1.10 558.00
  C 0.91 553.99 1.13 550.43 0.00 546.49"
/>
<path stroke="#8ca2a6" vector-effect="non-scaling-stroke" d="
  M 133.63 564.55
  C 129.97 564.29 123.97 563.56 120.50 565.41
  Q 117.73 566.88 114.57 567.32
  A 0.52 0.51 -3.8 0 0 114.12 567.83
  L 114.12 568.16
  Q 114.12 568.77 114.73 568.71
  C 117.64 568.41 120.56 568.47 123.14 568.06
  Q 131.99 566.68 140.95 565.44
  Q 141.17 565.41 141.16 565.18
  L 141.15 564.88
  A 0.23 0.23 0.0 0 0 140.93 564.66
  L 136.73 564.57
  A 0.77 0.77 0.0 0 1 135.98 563.73
  L 136.30 559.81
  Q 136.35 559.19 136.96 559.12
  Q 142.45 558.47 147.25 555.74
  A 1.40 1.40 0.0 0 0 147.28 553.32
  C 145.02 551.96 141.09 552.69 138.53 552.83
  Q 138.05 552.86 137.67 552.57
  Q 135.55 551.00 135.97 548.27
  A 0.62 0.62 0.0 0 0 135.44 547.57
  L 135.08 547.52
  A 0.45 0.45 0.0 0 0 134.57 547.93
  L 134.14 552.88
  Q 134.09 553.47 133.53 553.66
  L 125.69 556.38
  A 2.15 1.82 67.5 0 0 124.79 559.19
  Q 124.83 559.27 125.18 559.52
  C 126.74 560.68 131.87 560.16 133.50 559.73
  Q 134.20 559.54 134.21 560.27
  L 134.27 563.95
  A 0.59 0.59 0.0 0 1 133.63 564.55"
/>
<path stroke="#8ca2a6" vector-effect="non-scaling-stroke" d="
  M 139.8282 561.9011
  A 0.85 0.55 77.9 0 0 140.1878 560.9547
  A 0.85 0.55 77.9 0 0 139.4718 560.2389
  A 0.85 0.55 77.9 0 0 139.1122 561.1853
  A 0.85 0.55 77.9 0 0 139.8282 561.9011"
/>
<path stroke="#bfe7e4" vector-effect="non-scaling-stroke" d="
  M 266.23 557.53
  L 264.02 558.06"
/>
<path stroke="#cdf3f0" vector-effect="non-scaling-stroke" d="
  M 264.02 558.06
  Q 262.74 558.05 261.62 558.65
  A 1.22 1.19 38.6 0 1 260.69 558.74
  C 256.40 557.45 251.97 559.34 248.00 561.73
  C 241.35 565.73 247.48 572.22 251.51 575.02
  C 261.71 582.12 273.63 583.91 285.47 586.19
  C 287.79 586.63 292.33 588.17 291.43 591.39
  Q 290.29 595.51 285.70 596.79
  C 277.53 599.07 269.48 601.67 261.13 603.40
  Q 256.76 604.30 252.43 605.36
  Q 242.69 607.74 232.95 610.12
  C 225.66 611.91 204.08 617.70 204.44 627.89
  C 204.73 636.01 229.40 641.66 236.77 643.01
  Q 265.94 648.36 295.22 653.03
  Q 304.05 654.43 310.71 655.90
  Q 322.26 658.45 325.96 659.83
  C 329.93 661.31 342.73 665.78 341.94 671.50
  C 340.70 680.45 329.09 684.88 322.11 688.84
  C 314.93 692.92 307.41 695.13 299.43 698.67
  Q 291.79 702.06 263.81 712.43
  C 258.14 714.53 251.21 717.70 244.74 719.94
  Q 242.28 720.80 236.51 723.90
  C 233.98 725.25 232.54 727.44 229.86 728.74
  C 218.86 734.04 210.06 740.80 203.22 751.00
  Q 199.97 755.85 195.89 763.33
  Q 193.69 767.38 191.52 773.51
  Q 189.81 778.37 186.95 785.73
  C 186.02 788.14 185.11 792.03 184.94 795.17
  C 184.32 806.47 183.41 816.21 185.67 826.17
  Q 186.45 829.62 189.19 835.52
  Q 192.15 841.89 194.27 848.60
  C 197.55 858.96 202.32 865.44 209.30 876.22
  Q 213.24 882.29 215.79 886.03
  Q 219.87 892.02 222.06 895.93
  C 226.65 904.12 231.24 911.03 233.70 920.96
  Q 233.98 922.10 234.42 923.00
  C 237.27 928.87 240.72 934.48 243.94 940.15
  C 246.35 944.39 246.78 950.45 247.61 955.18
  C 249.56 966.22 247.44 973.68 243.51 984.64
  C 240.96 991.77 239.55 999.25 237.43 1006.66
  Q 236.67 1009.29 233.82 1016.45
  Q 227.59 1032.10 229.13 1049.05
  C 229.74 1055.80 228.94 1063.32 230.85 1069.56
  Q 234.34 1080.94 244.06 1087.43
  Q 252.91 1093.35 268.96 1102.15
  C 271.84 1103.73 274.54 1105.72 277.37 1107.51
  Q 279.99 1109.17 283.88 1110.49
  C 288.11 1111.92 294.47 1113.61 295.22 1118.75
  Q 295.89 1123.46 293.77 1128.00"
/>
<path stroke="#d7f1ed" vector-effect="non-scaling-stroke" d="
  M 270.53 1128.00
  L 265.40 1126.42
  Q 264.90 1126.26 264.49 1126.58
  L 262.62 1128.00"
/>
<path stroke="#d4ede5" vector-effect="non-scaling-stroke" d="
  M 207.6738 608.4180
  A 0.71 0.71 0.0 0 0 206.7888 607.9436
  L 188.3892 613.4988
  A 0.71 0.71 0.0 0 0 187.9147 614.3837
  L 187.9262 614.4220
  A 0.71 0.71 0.0 0 0 188.8112 614.8964
  L 207.2108 609.3412
  A 0.71 0.71 0.0 0 0 207.6853 608.4563
  L 207.6738 608.4180"
/>
<path stroke="#82afb6" vector-effect="non-scaling-stroke" d="
  M 330.90 508.83
  Q 331.72 507.53 331.35 506.67
  Q 331.17 506.26 330.18 505.88"
/>
<path stroke="#9dc2c8" vector-effect="non-scaling-stroke" d="
  M 269.50 532.00
  Q 268.73 532.34 268.88 532.78
  Q 268.93 532.93 269.22 533.12
  Q 269.49 533.30 269.55 533.51"
/>
<path stroke="#b1dfdf" vector-effect="non-scaling-stroke" d="
  M 296.82 582.87
  Q 296.24 584.37 296.86 585.58
  A 0.92 0.92 0.0 0 0 298.46 585.65
  Q 298.74 585.19 299.27 585.10
  Q 299.65 585.04 300.12 585.34
  Q 303.81 587.74 308.28 588.19
  Q 308.85 588.25 309.25 587.84
  Q 309.70 587.40 310.28 587.14
  A 0.58 0.57 -26.5 0 1 310.99 587.37
  C 312.89 590.56 318.05 588.72 321.00 588.44
  Q 323.08 588.24 322.82 590.32
  Q 322.47 593.21 325.38 593.07
  Q 326.43 593.03 326.91 594.26
  Q 327.10 594.76 326.58 594.64
  C 318.52 592.87 311.84 591.50 302.61 589.04
  Q 295.72 587.20 288.64 586.21
  Q 287.93 586.11 286.99 585.61
  C 285.64 584.89 283.82 584.83 282.75 584.40
  Q 278.20 582.61 273.63 580.87
  C 265.74 577.86 240.91 565.73 264.02 558.06"
/>
<path stroke="#b1dfdf" vector-effect="non-scaling-stroke" d="
  M 386.49 605.64
  L 379.78 606.36
  A 2.45 2.45 0.0 0 1 377.22 604.79
  Q 376.95 604.09 376.46 603.61
  Q 376.09 603.24 375.57 603.36
  C 372.78 604.03 370.49 604.80 368.36 603.20
  Q 368.00 602.93 368.00 602.49
  L 367.99 599.98
  A 0.81 0.80 -82.1 0 0 367.42 599.22
  Q 365.25 598.60 364.66 600.67
  A 1.72 1.72 0.0 0 1 361.66 601.27
  L 360.52 599.83
  Q 359.77 598.90 358.77 599.55
  C 351.34 604.41 352.93 596.96 349.31 594.61
  C 347.92 593.70 346.59 593.29 344.88 593.85
  Q 341.32 595.03 337.72 596.08
  Q 335.34 596.78 334.14 594.39
  Q 333.81 593.75 333.11 593.93
  L 329.30 594.90
  A 0.38 0.38 0.0 0 0 329.28 595.63
  C 330.99 596.14 332.80 596.10 334.33 596.65
  C 341.05 599.09 347.87 600.29 354.68 602.29
  C 359.92 603.84 364.89 604.30 370.05 607.21
  Q 371.26 607.89 371.39 608.81
  C 371.88 612.23 366.27 612.24 365.58 615.10
  Q 365.17 616.80 367.14 618.13
  C 373.70 622.55 381.23 624.65 388.34 627.98
  C 393.24 630.27 396.94 634.48 401.11 638.02"
/>
<path stroke="#b1dfdf" vector-effect="non-scaling-stroke" d="
  M 407.20 670.68
  C 400.87 681.85 393.38 689.07 384.04 697.76
  C 374.11 707.00 366.85 719.31 377.66 731.33
  Q 384.77 739.25 396.19 743.62"
/>
<path stroke="#b1dfdf" vector-effect="non-scaling-stroke" d="
  M 450.34 777.01
  Q 447.97 778.26 444.06 781.61
  Q 442.92 782.59 438.44 784.40
  C 433.10 786.56 429.99 791.79 424.93 794.49
  C 411.83 801.45 403.84 812.52 398.55 826.09
  Q 397.31 829.26 396.52 833.60
  C 395.54 839.00 394.39 843.41 395.21 849.62
  Q 395.86 854.55 395.88 857.92
  C 395.93 864.27 395.74 869.58 398.58 875.44
  Q 403.02 884.59 409.54 893.82"
/>
<path stroke="#b1dfdf" vector-effect="non-scaling-stroke" d="
  M 411.36 1002.61
  C 407.48 1006.61 405.13 1011.40 402.23 1015.98
  Q 400.67 1018.46 396.34 1023.08
  C 387.12 1032.92 375.32 1051.53 377.23 1065.75
  Q 378.29 1073.58 378.70 1078.24
  Q 379.19 1083.82 380.18 1086.60
  Q 382.78 1093.87 387.80 1098.95
  Q 395.74 1106.98 399.57 1111.12
  C 402.40 1114.17 405.58 1116.53 408.67 1119.22
  C 411.37 1121.57 414.67 1127.33 417.97 1128.00"
/>
</g>
<path fill="#dafaf5" d="
  M 0.00 0.00
  L 564.00 0.00
  L 564.00 394.75
  L 563.63 395.07
  A 0.50 0.49 -35.7 0 1 562.87 394.95
  C 560.69 391.06 557.54 391.77 553.85 391.11
  C 550.51 390.51 547.09 387.27 544.33 385.39
  A 3.22 3.19 59.5 0 0 542.24 384.84
  C 538.06 385.19 532.06 385.82 528.36 383.90
  Q 516.61 377.77 503.67 375.00
  C 500.53 374.33 497.08 372.74 494.75 370.42
  C 491.03 366.71 487.84 365.24 483.58 363.23
  Q 483.14 363.02 482.90 362.59
  C 481.99 360.92 482.06 358.79 480.10 357.85
  Q 471.70 353.80 462.74 351.15
  C 461.02 350.65 459.28 349.38 457.31 348.92
  Q 447.39 346.58 437.35 344.79
  C 429.18 343.32 420.79 343.71 412.51 344.01
  Q 407.38 344.20 404.03 344.67
  C 385.18 347.32 366.68 352.83 348.98 359.76
  Q 326.85 368.41 304.49 377.85
  Q 300.47 375.73 295.96 373.81
  C 284.48 368.94 275.89 368.04 260.49 367.01
  Q 252.11 366.46 243.75 365.81
  C 236.05 365.22 231.05 366.52 223.16 368.71
  C 212.35 371.71 200.50 371.60 189.99 375.24
  Q 177.72 379.50 164.29 381.02
  Q 162.31 378.73 159.25 379.01
  C 150.37 379.80 140.08 377.58 131.00 376.12
  C 128.31 375.69 125.08 374.57 121.94 374.20
  Q 118.08 373.74 114.24 373.08
  C 109.66 372.30 105.23 372.94 100.69 371.55
  Q 93.97 369.49 86.93 369.58
  Q 83.67 369.61 81.11 369.20
  C 75.62 368.32 70.63 368.91 65.36 368.56
  Q 60.66 368.24 56.63 368.55
  C 49.93 369.07 42.99 368.47 36.68 369.60
  C 31.10 370.59 25.55 371.63 20.91 374.69
  C 16.66 377.49 12.45 380.34 7.72 379.89
  C 4.90 379.62 2.60 380.39 0.00 381.14
  L 0.00 0.00
  Z"
/>
<path fill="#d4e7e5" d="
  M 564.00 394.75
  L 564.00 447.94
  C 554.45 443.71 541.78 443.05 531.58 443.00
  Q 527.95 442.98 524.52 442.14
  Q 512.56 439.20 500.27 437.99
  C 496.88 437.65 492.47 436.58 488.74 434.79
  Q 482.52 431.81 478.49 430.78
  Q 465.11 427.36 452.23 422.42
  C 442.84 418.82 434.50 417.65 424.50 416.20
  Q 416.25 414.99 407.33 411.56
  Q 406.86 411.38 406.65 410.91
  Q 406.23 409.98 406.44 408.67
  Q 406.47 392.67 394.83 382.11
  C 374.63 363.77 341.47 370.18 331.18 395.99
  Q 327.63 404.90 330.05 415.47
  L 329.87 417.35
  Q 329.87 417.38 329.90 417.37
  Q 329.91 417.37 329.92 417.36
  Q 329.96 417.36 329.95 417.32
  Q 327.65 410.20 328.20 402.82
  Q 328.54 398.18 328.03 396.18
  C 325.53 386.39 314.80 383.09 304.49 377.85
  Q 326.85 368.41 348.98 359.76
  C 366.68 352.83 385.18 347.32 404.03 344.67
  Q 407.38 344.20 412.51 344.01
  C 420.79 343.71 429.18 343.32 437.35 344.79
  Q 447.39 346.58 457.31 348.92
  C 459.28 349.38 461.02 350.65 462.74 351.15
  Q 471.70 353.80 480.10 357.85
  C 482.06 358.79 481.99 360.92 482.90 362.59
  Q 483.14 363.02 483.58 363.23
  C 487.84 365.24 491.03 366.71 494.75 370.42
  C 497.08 372.74 500.53 374.33 503.67 375.00
  Q 516.61 377.77 528.36 383.90
  C 532.06 385.82 538.06 385.19 542.24 384.84
  A 3.22 3.19 59.5 0 1 544.33 385.39
  C 547.09 387.27 550.51 390.51 553.85 391.11
  C 557.54 391.77 560.69 391.06 562.87 394.95
  A 0.50 0.49 -35.7 0 0 563.63 395.07
  L 564.00 394.75
  Z"
/>
<path fill="#96b0bd" d="
  M 304.49 377.85
  C 314.80 383.09 325.53 386.39 328.03 396.18
  Q 328.54 398.18 328.20 402.82
  Q 327.65 410.20 329.95 417.32
  Q 329.96 417.36 329.92 417.36
  Q 329.91 417.37 329.90 417.37
  Q 329.87 417.38 329.87 417.35
  L 330.05 415.47
  Q 330.79 417.68 331.31 419.73
  Q 331.44 420.23 331.76 420.50
  Q 332.12 420.79 332.15 421.25
  C 332.38 424.24 335.42 428.68 337.11 431.16
  C 338.45 433.13 340.81 434.73 341.97 437.23
  Q 339.37 436.65 337.51 437.90
  Q 337.08 438.19 336.57 438.13
  C 334.03 437.87 331.60 437.15 329.13 437.23
  Q 316.97 437.60 310.50 439.54
  Q 296.73 443.69 283.01 448.04
  Q 275.51 450.42 256.28 452.78
  C 247.80 452.70 241.05 453.75 231.51 452.29
  Q 230.93 452.20 230.48 452.38
  Q 229.95 452.61 230.18 453.14
  Q 230.26 453.33 230.39 453.59
  Q 227.52 452.22 223.78 452.64
  C 217.16 450.88 210.70 449.54 203.97 447.43
  C 194.82 444.56 184.91 443.83 175.50 441.76
  C 172.42 441.08 168.06 441.17 164.51 440.59
  C 157.68 439.45 150.79 438.85 144.29 437.05
  Q 130.32 433.18 116.62 428.45
  C 113.54 427.38 110.24 426.47 107.06 425.45
  C 102.24 423.90 97.01 423.09 92.01 421.56
  C 85.62 419.61 77.65 420.67 71.10 421.44
  Q 70.94 421.46 60.85 422.34
  Q 53.48 422.99 44.74 425.68
  C 25.24 431.68 12.37 435.29 0.00 440.79
  L 0.00 404.69
  C 7.05 398.13 20.01 395.70 29.50 395.53
  Q 40.23 395.34 50.91 394.45
  C 62.90 393.45 74.93 394.76 86.66 394.20
  Q 95.40 393.79 104.14 393.44
  Q 105.83 393.37 107.45 392.82
  Q 120.55 388.34 134.24 386.15
  C 144.31 384.53 154.42 383.60 164.29 381.02
  Q 177.72 379.50 189.99 375.24
  C 200.50 371.60 212.35 371.71 223.16 368.71
  C 231.05 366.52 236.05 365.22 243.75 365.81
  Q 252.11 366.46 260.49 367.01
  C 275.89 368.04 284.48 368.94 295.96 373.81
  Q 300.47 375.73 304.49 377.85
  Z"
/>
<path fill="#d4e7e5" d="
  M 164.29 381.02
  C 154.42 383.60 144.31 384.53 134.24 386.15
  Q 120.55 388.34 107.45 392.82
  Q 105.83 393.37 104.14 393.44
  Q 95.40 393.79 86.66 394.20
  C 74.93 394.76 62.90 393.45 50.91 394.45
  Q 40.23 395.34 29.50 395.53
  C 20.01 395.70 7.05 398.13 0.00 404.69
  L 0.00 381.14
  C 2.60 380.39 4.90 379.62 7.72 379.89
  C 12.45 380.34 16.66 377.49 20.91 374.69
  C 25.55 371.63 31.10 370.59 36.68 369.60
  C 42.99 368.47 49.93 369.07 56.63 368.55
  Q 60.66 368.24 65.36 368.56
  C 70.63 368.91 75.62 368.32 81.11 369.20
  Q 83.67 369.61 86.93 369.58
  Q 93.97 369.49 100.69 371.55
  C 105.23 372.94 109.66 372.30 114.24 373.08
  Q 118.08 373.74 121.94 374.20
  C 125.08 374.57 128.31 375.69 131.00 376.12
  C 140.08 377.58 150.37 379.80 159.25 379.01
  Q 162.31 378.73 164.29 381.02
  Z"
/>
<path fill="#d7aa2c" d="
  M 406.44 408.67
  Q 405.19 415.97 402.21 422.35
  C 400.82 425.31 397.95 426.46 396.58 429.48
  Q 395.28 432.37 394.50 435.46
  C 390.82 437.12 386.34 441.00 382.75 441.22
  Q 373.67 441.78 364.61 442.79
  C 356.69 443.67 348.98 440.23 341.97 437.23
  C 340.81 434.73 338.45 433.13 337.11 431.16
  C 335.42 428.68 332.38 424.24 332.15 421.25
  Q 332.12 420.79 331.76 420.50
  Q 331.44 420.23 331.31 419.73
  Q 330.79 417.68 330.05 415.47
  Q 327.63 404.90 331.18 395.99
  C 341.47 370.18 374.63 363.77 394.83 382.11
  Q 406.47 392.67 406.44 408.67
  Z
  M 388.56 407.99
  C 387.53 407.16 384.99 406.40 384.29 407.94
  Q 384.15 408.23 384.22 408.51
  Q 384.37 409.07 384.92 408.89
  Q 388.05 407.88 389.49 410.66
  A 0.79 0.78 -39.7 0 0 390.81 410.78
  C 393.91 406.81 395.42 408.44 398.87 409.84
  Q 399.61 410.14 399.25 409.43
  C 397.49 405.96 393.94 406.65 391.16 408.21
  A 2.33 2.32 49.7 0 1 388.56 407.99
  Z"
/>
<path fill="#dafaf5" d="
  M 388.56 407.99
  A 2.33 2.32 49.7 0 0 391.16 408.21
  C 393.94 406.65 397.49 405.96 399.25 409.43
  Q 399.61 410.14 398.87 409.84
  C 395.42 408.44 393.91 406.81 390.81 410.78
  A 0.79 0.78 -39.7 0 1 389.49 410.66
  Q 388.05 407.88 384.92 408.89
  Q 384.37 409.07 384.22 408.51
  Q 384.15 408.23 384.29 407.94
  C 384.99 406.40 387.53 407.16 388.56 407.99
  Z"
/>
<path fill="#96b0bd" d="
  M 406.44 408.67
  Q 406.23 409.98 406.65 410.91
  Q 406.86 411.38 407.33 411.56
  Q 416.25 414.99 424.50 416.20
  C 434.50 417.65 442.84 418.82 452.23 422.42
  Q 465.11 427.36 478.49 430.78
  Q 482.52 431.81 488.74 434.79
  C 492.47 436.58 496.88 437.65 500.27 437.99
  Q 512.56 439.20 524.52 442.14
  Q 527.95 442.98 531.58 443.00
  C 541.78 443.05 554.45 443.71 564.00 447.94
  L 564.00 454.76
  Q 559.92 454.86 555.83 454.97
  C 547.64 455.18 539.49 453.55 531.26 453.23
  C 520.21 452.81 508.23 451.90 497.53 449.01
  Q 492.32 447.61 490.51 447.47
  Q 467.18 445.66 460.75 444.93
  C 448.86 443.57 433.35 440.46 419.93 439.22
  Q 411.60 438.44 403.24 437.85
  C 399.49 437.58 397.47 436.18 394.50 435.46
  Q 395.28 432.37 396.58 429.48
  C 397.95 426.46 400.82 425.31 402.21 422.35
  Q 405.19 415.97 406.44 408.67
  Z"
/>
<path fill="#4a6377" d="
  M 223.78 452.64
  L 230.28 455.52
  A 1.17 1.16 1.9 0 1 230.91 456.19
  Q 231.41 457.66 231.24 460.06
  Q 226.87 458.70 222.62 457.96
  C 213.66 456.39 206.55 452.21 197.00 451.59
  Q 187.53 450.97 178.09 451.56
  Q 177.12 451.62 164.24 453.32
  Q 150.19 455.17 136.14 452.94
  C 131.39 452.19 125.86 450.69 120.71 449.49
  Q 115.52 448.28 109.18 447.81
  Q 97.64 446.95 86.23 445.09
  C 80.38 444.13 74.77 442.11 69.01 441.54
  Q 58.47 440.49 51.24 442.19
  C 43.02 444.12 36.80 444.98 31.38 449.56
  C 29.09 451.49 25.02 453.28 22.05 453.48
  Q 12.06 454.15 2.04 453.66
  Q 3.34 453.50 1.93 452.69
  A 0.61 0.60 59.5 0 0 1.63 452.61
  Q 0.29 452.59 0.00 451.98
  L 0.00 440.79
  C 12.37 435.29 25.24 431.68 44.74 425.68
  Q 53.48 422.99 60.85 422.34
  Q 70.94 421.46 71.10 421.44
  C 77.65 420.67 85.62 419.61 92.01 421.56
  C 97.01 423.09 102.24 423.90 107.06 425.45
  C 110.24 426.47 113.54 427.38 116.62 428.45
  Q 130.32 433.18 144.29 437.05
  C 150.79 438.85 157.68 439.45 164.51 440.59
  C 168.06 441.17 172.42 441.08 175.50 441.76
  C 184.91 443.83 194.82 444.56 203.97 447.43
  C 210.70 449.54 217.16 450.88 223.78 452.64
  Z"
/>
<path fill="#7192a1" d="
  M 394.50 435.46
  C 397.47 436.18 399.49 437.58 403.24 437.85
  Q 411.60 438.44 419.93 439.22
  C 433.35 440.46 448.86 443.57 460.75 444.93
  Q 467.18 445.66 490.51 447.47
  Q 492.32 447.61 497.53 449.01
  C 508.23 451.90 520.21 452.81 531.26 453.23
  C 539.49 453.55 547.64 455.18 555.83 454.97
  Q 559.92 454.86 564.00 454.76
  L 564.00 464.07
  Q 562.75 463.68 561.36 463.53
  C 558.83 463.27 556.13 463.66 554.22 463.68
  Q 509.42 464.17 464.63 463.74
  C 462.02 463.71 459.42 464.53 456.80 464.58
  C 444.79 464.77 433.54 464.83 420.93 463.95
  Q 412.02 463.33 406.75 463.82
  Q 390.25 465.35 373.74 464.33
  C 363.55 463.71 355.12 463.86 345.70 463.97
  C 344.65 463.98 343.97 464.32 343.06 464.72
  Q 342.82 464.18 342.00 464.16
  Q 315.11 463.33 290.76 465.09
  Q 288.25 465.27 285.90 465.36
  Q 283.69 465.11 281.42 465.31
  Q 279.92 465.44 277.64 465.08
  Q 275.05 464.67 273.01 465.86
  Q 266.93 465.61 260.26 465.13
  C 254.20 464.70 248.41 461.82 241.32 463.51
  Q 239.54 463.24 238.10 462.18
  A 1.56 1.52 62.5 0 0 237.19 461.88
  Q 233.75 461.84 231.24 460.06
  Q 231.41 457.66 230.91 456.19
  A 1.17 1.16 1.9 0 0 230.28 455.52
  L 223.78 452.64
  Q 227.52 452.22 230.39 453.59
  Q 239.03 454.80 248.63 454.65
  Q 250.71 454.62 256.28 452.78
  Q 275.51 450.42 283.01 448.04
  Q 296.73 443.69 310.50 439.54
  Q 316.97 437.60 329.13 437.23
  C 331.60 437.15 334.03 437.87 336.57 438.13
  Q 337.08 438.19 337.51 437.90
  Q 339.37 436.65 341.97 437.23
  C 348.98 440.23 356.69 443.67 364.61 442.79
  Q 373.67 441.78 382.75 441.22
  C 386.34 441.00 390.82 437.12 394.50 435.46
  Z"
/>
<path fill="#293f4d" d="
  M 231.24 460.06
  Q 233.75 461.84 237.19 461.88
  A 1.56 1.52 62.5 0 1 238.10 462.18
  Q 239.54 463.24 241.32 463.51
  C 240.12 463.77 239.25 463.75 237.91 463.36
  C 236.15 462.86 234.81 463.69 233.25 463.66
  Q 230.87 463.63 228.49 463.64
  Q 228.22 463.64 227.88 463.38
  Q 227.68 463.22 227.62 462.96
  A 0.16 0.15 61.7 0 0 227.36 462.88
  L 227.13 463.11
  A 0.78 0.78 0.0 0 1 226.59 463.35
  C 211.71 463.77 196.86 463.48 181.98 463.68
  Q 176.20 463.76 170.72 462.91
  L 155.28 463.03
  C 150.11 462.97 144.61 463.40 139.48 462.97
  Q 138.32 462.87 138.02 463.80
  A 1.38 1.37 -81.2 0 1 136.75 464.74
  L 119.54 465.00
  Q 114.55 465.28 109.66 465.06
  C 100.79 464.68 92.64 465.05 84.10 464.93
  C 69.31 464.72 57.15 464.73 43.68 464.70
  C 38.52 464.68 32.22 465.55 27.00 465.27
  Q 13.51 464.53 0.00 464.68
  L 0.00 453.98
  Q 0.40 453.52 2.04 453.66
  Q 12.06 454.15 22.05 453.48
  C 25.02 453.28 29.09 451.49 31.38 449.56
  C 36.80 444.98 43.02 444.12 51.24 442.19
  Q 58.47 440.49 69.01 441.54
  C 74.77 442.11 80.38 444.13 86.23 445.09
  Q 97.64 446.95 109.18 447.81
  Q 115.52 448.28 120.71 449.49
  C 125.86 450.69 131.39 452.19 136.14 452.94
  Q 150.19 455.17 164.24 453.32
  Q 177.12 451.62 178.09 451.56
  Q 187.53 450.97 197.00 451.59
  C 206.55 452.21 213.66 456.39 222.62 457.96
  Q 226.87 458.70 231.24 460.06
  Z"
/>
<path fill="#96b0bd" d="
  M 0.00 451.98
  Q 0.29 452.59 1.63 452.61
  A 0.61 0.60 59.5 0 1 1.93 452.69
  Q 3.34 453.50 2.04 453.66
  Q 0.40 453.52 0.00 453.98
  L 0.00 451.98
  Z"
/>
<path fill="#cee0d4" d="
  M 256.28 452.78
  Q 250.71 454.62 248.63 454.65
  Q 239.03 454.80 230.39 453.59
  Q 230.26 453.33 230.18 453.14
  Q 229.95 452.61 230.48 452.38
  Q 230.93 452.20 231.51 452.29
  C 241.05 453.75 247.80 452.70 256.28 452.78
  Z"
/>
<path fill="#77a3b0" d="
  M 241.32 463.51
  C 248.41 461.82 254.20 464.70 260.26 465.13
  Q 266.93 465.61 273.01 465.86
  Q 275.70 466.56 277.94 465.93
  A 0.69 0.69 0.0 0 1 278.77 466.86
  C 277.41 470.18 280.04 472.51 282.32 473.93
  Q 300.21 485.00 320.24 491.41
  C 323.14 492.34 326.37 493.86 328.99 494.54
  C 337.42 496.72 345.77 499.72 354.08 501.46
  C 367.96 504.37 381.66 507.29 395.74 509.14
  C 398.92 509.56 402.37 510.61 405.75 511.09
  C 420.41 513.17 433.86 514.96 449.40 518.68
  C 452.64 519.46 454.68 520.51 457.08 522.52
  A 0.85 0.85 0.0 0 1 456.83 523.97
  C 444.01 528.75 430.18 530.89 416.71 533.35
  C 409.23 534.72 403.08 537.56 395.19 535.94
  A 1.84 1.84 0.0 0 1 394.01 533.15
  C 396.23 529.67 399.38 524.81 395.76 521.10
  Q 395.40 520.73 394.93 520.91
  Q 392.27 521.91 389.43 521.31
  L 391.76 521.15
  A 1.15 1.15 0.0 0 0 392.71 519.50
  C 390.42 514.79 364.72 511.86 359.15 510.93
  C 358.12 510.76 357.51 511.36 356.46 510.69
  Q 352.98 508.49 351.26 508.02
  Q 346.31 506.66 330.97 503.59
  Q 329.36 503.27 327.51 503.46
  C 322.85 503.93 316.90 501.59 312.34 500.38
  C 310.08 499.78 305.67 499.20 305.34 502.49
  Q 305.21 503.77 306.07 504.08
  Q 306.51 504.25 306.75 503.84
  Q 307.03 503.38 307.43 503.19
  Q 307.85 502.99 308.57 503.19
  Q 312.11 504.21 315.66 505.29
  C 316.59 505.58 317.32 505.31 317.97 504.71
  A 1.14 1.14 0.0 0 1 319.54 504.72
  C 321.90 507.00 327.00 505.86 330.18 505.88
  C 327.47 506.35 325.09 507.39 322.38 507.42
  Q 316.51 507.50 310.46 507.14
  Q 310.20 507.12 310.19 507.39
  L 310.19 507.66
  A 0.59 0.58 5.1 0 0 310.69 508.25
  C 318.59 509.52 325.03 512.00 331.80 513.21
  Q 332.39 513.31 332.39 512.71
  Q 332.38 512.33 331.94 512.08
  Q 329.48 510.68 330.90 508.83
  Q 331.70 509.32 332.74 509.24
  Q 333.25 509.20 333.74 509.38
  Q 334.56 509.70 335.14 510.35
  Q 335.52 510.77 336.07 510.88
  Q 338.60 511.38 340.83 510.12
  A 0.92 0.90 -40.6 0 1 341.85 510.19
  Q 342.76 510.91 343.36 511.93
  A 0.77 0.76 72.9 0 0 344.07 512.31
  C 347.57 512.09 357.26 508.96 359.09 513.14
  Q 357.14 513.66 355.39 513.47
  Q 354.97 513.43 354.89 513.02
  Q 354.75 512.32 354.15 511.87
  Q 353.66 511.51 353.17 511.86
  L 352.66 512.24
  Q 352.24 512.55 352.16 513.06
  Q 352.14 513.18 352.14 513.31
  Q 352.11 513.69 351.73 513.68
  L 340.75 513.43
  Q 340.17 513.42 340.11 512.84
  Q 340.07 512.55 339.81 512.35
  Q 339.33 511.98 338.93 512.44
  L 337.52 514.02
  A 0.51 0.51 0.0 0 0 337.68 514.81
  C 342.55 517.21 347.80 517.97 352.84 520.06
  Q 359.43 522.79 362.20 523.48
  Q 367.05 524.68 372.01 525.36
  C 377.53 526.10 382.30 526.66 385.65 529.24
  C 388.34 531.31 387.81 533.15 387.98 536.25
  C 388.35 542.67 395.22 545.64 399.99 547.51
  Q 407.97 550.62 427.86 555.70
  C 432.36 556.85 436.14 558.26 440.03 560.16
  Q 443.18 561.70 439.87 562.84
  Q 431.96 565.57 422.24 566.71
  Q 402.41 569.03 382.75 572.51
  Q 378.84 573.21 377.16 574.74
  Q 372.36 573.75 366.90 572.30
  C 365.15 571.84 360.60 572.08 360.50 574.82
  Q 360.42 577.45 362.21 575.41
  Q 362.50 575.08 362.96 574.85
  Q 363.43 574.62 363.87 574.91
  Q 366.43 576.63 369.14 576.57
  L 369.55 578.85
  A 0.58 0.57 -3.9 0 1 368.95 579.53
  L 366.63 579.40
  A 1.69 1.69 0.0 0 0 365.01 581.80
  C 366.38 584.71 368.12 585.21 371.44 586.52
  C 391.10 594.27 409.14 595.47 432.49 597.99
  C 435.14 598.27 438.55 598.11 441.58 598.62
  C 445.85 599.35 447.96 599.63 451.19 600.07
  C 453.90 600.44 457.48 600.09 460.50 600.98
  C 464.16 602.06 462.14 605.52 462.17 607.75
  Q 462.22 612.12 462.12 614.67
  C 461.99 617.75 463.33 620.04 462.77 623.32
  A 1.89 1.85 -51.1 0 0 462.86 624.27
  Q 464.24 628.09 465.49 631.92
  C 473.19 655.60 504.55 659.49 524.82 661.98
  C 526.90 662.24 529.25 661.96 531.55 662.30
  C 535.33 662.87 538.70 662.72 542.22 663.37
  Q 544.00 663.70 547.55 665.36
  Q 553.83 668.30 560.76 667.33
  Q 562.47 667.08 564.00 666.04
  L 564.00 719.86
  C 563.74 721.96 564.34 727.02 562.88 728.40
  Q 562.58 728.68 562.88 728.95
  Q 563.94 729.92 563.84 731.50
  Q 563.59 735.29 564.00 739.01
  L 564.00 1121.87
  Q 561.69 1124.28 558.54 1126.27
  C 556.34 1127.66 554.00 1127.78 551.49 1128.00
  L 514.76 1128.00
  Q 514.61 1127.76 514.09 1127.73
  Q 513.90 1127.71 513.73 1127.64
  Q 513.21 1127.43 513.47 1127.26
  A 0.38 0.38 0.0 0 0 513.59 1126.75
  C 507.47 1116.34 501.86 1104.28 496.10 1095.09
  Q 488.95 1083.67 480.92 1072.82
  C 476.42 1066.73 470.04 1059.66 464.70 1055.79
  Q 453.61 1047.74 444.41 1037.71
  Q 437.78 1030.48 434.27 1027.11
  C 426.23 1019.40 417.81 1011.73 411.36 1002.61
  Q 406.01 994.55 402.94 991.56
  C 397.31 986.05 390.87 980.25 386.86 974.09
  C 383.03 968.20 380.60 962.52 379.02 955.34
  C 377.30 947.52 375.92 941.45 378.28 934.23
  Q 379.34 930.99 384.04 923.68
  C 387.14 918.86 389.94 913.57 393.30 909.32
  C 398.24 903.08 403.81 898.67 409.54 893.82
  C 413.79 890.68 417.96 887.73 422.76 885.11
  Q 440.16 875.65 457.15 865.50
  C 459.61 864.04 463.87 861.77 465.26 859.75
  C 471.44 850.80 474.45 836.24 475.31 823.78
  C 475.45 821.84 475.12 819.25 474.48 817.74
  C 471.14 809.76 467.74 800.62 463.80 793.89
  Q 458.12 784.19 450.34 777.01
  Q 441.12 774.48 434.00 771.97
  C 424.14 768.50 413.86 764.32 405.81 757.92
  Q 398.73 752.30 396.19 743.62
  C 395.90 739.38 395.74 737.29 399.01 733.50
  C 402.54 729.40 409.18 726.02 415.93 722.83
  C 426.39 717.89 440.90 714.75 448.83 705.80
  Q 452.40 701.77 452.07 696.01
  C 451.77 690.99 443.53 686.33 439.49 684.41
  Q 423.60 676.86 407.20 670.68
  Q 398.79 667.17 391.58 662.26
  C 376.65 652.11 391.68 644.17 401.11 638.02
  Q 409.91 633.55 416.32 625.87
  C 418.54 623.21 414.78 620.06 412.66 618.91
  C 406.58 615.58 400.45 613.78 394.25 611.22
  Q 389.47 609.25 386.49 605.64
  Q 384.59 601.40 380.69 600.05
  Q 371.48 596.88 360.24 595.26
  C 356.71 594.75 353.43 593.83 349.84 593.71
  A 1.67 1.58 60.6 0 1 349.00 593.45
  C 341.55 588.72 331.52 587.12 322.96 585.49
  C 320.03 584.93 317.35 585.79 314.47 585.07
  Q 309.12 583.74 304.00 581.77
  Q 299.76 580.15 296.82 582.87
  C 287.17 581.83 275.19 579.64 268.39 571.86
  C 262.42 565.02 280.88 561.68 284.99 560.97
  Q 304.91 557.55 324.74 553.65
  Q 330.97 552.42 335.61 548.21
  Q 335.99 547.87 336.04 547.37
  Q 336.23 545.69 335.82 544.27
  C 334.23 537.89 308.76 535.89 302.75 535.16
  C 300.41 534.88 297.91 533.32 295.72 532.73
  C 287.97 530.65 279.82 528.54 272.60 528.83
  Q 270.24 528.93 268.25 528.11
  Q 263.78 526.28 259.40 524.38
  L 263.91 519.81
  A 0.92 0.91 34.8 0 0 263.64 518.34
  L 255.35 514.51
  L 253.78 513.65
  Q 251.36 508.85 248.77 507.44
  Q 240.20 502.76 228.44 502.49
  C 225.83 502.43 224.41 501.36 222.07 500.56
  Q 220.87 500.40 219.92 499.61
  Q 219.53 499.28 219.86 498.89
  Q 221.11 497.44 222.97 496.90
  Q 224.74 496.39 224.03 494.82
  A 1.61 1.59 -7.3 0 0 222.83 493.90
  Q 213.88 492.37 204.75 491.06
  Q 202.32 490.71 199.87 492.12
  A 1.47 1.44 -55.9 0 1 198.93 492.31
  Q 193.00 491.60 188.23 488.34
  Q 187.26 486.73 187.31 485.18
  A 1.23 1.22 69.2 0 1 187.68 484.35
  C 192.68 479.58 199.52 480.95 205.17 477.38
  A 0.23 0.22 44.2 0 0 205.16 477.00
  Q 200.34 474.11 194.76 474.43
  Q 194.23 474.47 193.74 474.23
  Q 190.56 472.69 188.13 475.01
  Q 187.76 475.36 187.24 475.42
  Q 181.67 476.01 179.18 475.35
  C 176.40 474.62 174.15 471.01 178.15 470.03
  C 180.62 469.42 182.72 468.65 185.31 468.86
  Q 186.87 468.99 188.98 469.19
  A 0.61 0.60 -4.4 0 0 189.63 468.44
  L 189.53 468.06
  Q 189.32 467.20 188.45 467.04
  C 184.43 466.27 180.87 465.62 177.23 465.32
  Q 173.96 465.04 170.72 462.91
  Q 176.20 463.76 181.98 463.68
  C 196.86 463.48 211.71 463.77 226.59 463.35
  A 0.78 0.78 0.0 0 0 227.13 463.11
  L 227.36 462.88
  A 0.16 0.15 61.7 0 1 227.62 462.96
  Q 227.68 463.22 227.88 463.38
  Q 228.22 463.64 228.49 463.64
  Q 230.87 463.63 233.25 463.66
  C 234.81 463.69 236.15 462.86 237.91 463.36
  C 239.25 463.75 240.12 463.77 241.32 463.51
  Z
  M 254.88 477.32
  Q 254.28 475.66 253.59 476.81
  C 252.30 478.99 257.50 484.17 258.67 485.77
  C 260.92 488.82 260.61 493.14 264.78 494.50
  Q 265.23 494.64 265.65 494.46
  C 269.37 492.82 269.90 487.56 266.08 485.97
  L 268.69 486.39
  Q 269.24 486.48 269.12 485.93
  C 268.92 485.00 268.57 484.61 267.66 484.09
  C 266.81 483.61 265.98 482.34 265.28 482.13
  Q 264.71 481.95 264.18 482.15
  Q 263.12 482.00 262.69 481.50
  Q 262.82 481.42 262.88 481.32
  Q 263.02 481.03 262.75 480.84
  C 261.89 480.24 261.41 479.61 260.36 479.24
  C 258.58 478.63 257.34 476.73 256.06 476.36
  Q 254.98 476.04 254.88 477.32
  Z"
/>
<path fill="#bfebea" d="
  M 155.28 463.03
  Q 156.49 463.32 156.55 463.36
  Q 159.05 465.06 155.99 465.03
  Q 148.48 464.96 141.03 466.21
  A 1.31 1.31 0.0 0 0 140.43 468.53
  C 142.17 469.91 144.02 470.93 146.33 471.45
  Q 156.40 473.73 166.24 476.83
  Q 169.29 477.79 170.99 480.16
  A 0.80 0.80 0.0 0 1 170.48 481.41
  L 162.01 482.90
  Q 161.47 483.00 161.51 483.54
  C 161.65 485.94 164.63 486.46 166.50 486.69
  Q 177.13 488.01 188.23 488.34
  Q 193.00 491.60 198.93 492.31
  A 1.47 1.44 -55.9 0 0 199.87 492.12
  Q 202.32 490.71 204.75 491.06
  Q 213.88 492.37 222.83 493.90
  A 1.61 1.59 -7.3 0 1 224.03 494.82
  Q 224.74 496.39 222.97 496.90
  Q 221.11 497.44 219.86 498.89
  Q 219.53 499.28 219.92 499.61
  Q 220.87 500.40 222.07 500.56
  C 222.28 503.35 218.10 503.03 218.80 507.83
  Q 218.92 508.63 219.69 508.85
  C 227.24 511.01 235.45 511.61 243.28 512.30
  C 246.40 512.57 250.16 513.70 253.78 513.65
  L 255.35 514.51
  C 257.64 520.18 249.85 523.21 245.95 525.37
  Q 245.52 525.60 245.43 526.08
  C 244.24 532.15 265.86 533.28 269.55 533.51
  Q 272.44 533.29 275.29 533.88
  Q 276.20 534.07 276.68 533.91
  Q 277.65 533.56 277.44 532.44
  A 1.71 1.71 0.0 0 0 275.50 531.07
  L 269.50 532.00
  Q 267.07 531.93 266.12 530.40
  Q 265.01 528.60 264.66 530.69
  Q 264.56 531.25 263.25 531.05
  Q 259.76 530.52 256.50 529.17
  C 255.19 528.63 254.60 528.89 253.32 529.23
  A 1.66 1.66 0.0 0 1 251.36 528.24
  L 251.21 527.84
  A 1.34 1.34 0.0 0 1 252.15 526.05
  L 259.40 524.38
  Q 263.78 526.28 268.25 528.11
  Q 270.24 528.93 272.60 528.83
  C 279.82 528.54 287.97 530.65 295.72 532.73
  C 297.91 533.32 300.41 534.88 302.75 535.16
  C 308.76 535.89 334.23 537.89 335.82 544.27
  L 328.75 544.52
  A 0.97 0.95 72.1 0 1 327.91 544.08
  L 327.11 542.85
  Q 326.83 542.42 326.32 542.50
  C 323.72 542.90 319.31 544.69 318.79 540.58
  Q 318.72 540.03 318.22 539.78
  Q 316.98 539.15 316.12 540.35
  A 0.75 0.75 0.0 0 0 316.28 541.39
  Q 318.26 542.88 319.57 545.05
  A 1.50 1.50 0.0 0 1 318.95 547.17
  Q 316.87 548.21 314.49 548.68
  Q 297.30 552.10 279.96 554.74
  Q 276.75 555.23 273.10 556.07
  Q 269.52 556.90 266.23 557.53
  Q 265.28 553.42 260.50 553.34
  Q 255.01 553.24 235.82 553.25
  C 228.17 553.25 220.99 552.73 213.56 552.11
  C 208.75 551.71 197.05 550.08 193.88 546.14
  Q 190.46 541.89 195.02 539.28
  C 199.69 536.61 204.29 535.84 207.81 531.44
  Q 208.72 530.30 207.61 529.36
  C 203.57 525.95 195.26 525.38 190.90 524.10
  C 186.88 522.92 181.77 521.89 178.25 519.60
  A 0.83 0.82 44.0 0 1 178.22 518.23
  C 180.43 516.68 182.55 515.71 185.44 515.74
  Q 190.93 515.80 196.83 515.56
  Q 198.97 515.47 198.36 513.43
  Q 198.20 512.88 196.71 512.31
  C 192.91 510.87 189.23 509.32 185.35 508.19
  Q 165.54 502.38 145.78 496.41
  Q 143.97 495.87 142.46 495.04
  Q 140.43 493.95 141.91 492.18
  C 143.47 490.33 148.59 489.84 151.16 488.82
  A 0.76 0.75 -32.9 0 0 151.43 487.59
  L 148.50 484.57
  A 2.18 2.17 -51.8 0 1 148.19 481.92
  Q 149.44 479.83 151.56 478.57
  A 0.71 0.70 48.8 0 0 151.63 477.41
  C 145.91 472.95 137.60 471.74 130.68 470.55
  Q 125.24 469.61 121.72 465.56
  Q 121.37 465.16 120.85 465.28
  Q 120.17 465.43 119.71 465.92
  Q 119.39 466.26 118.95 466.39
  L 117.55 466.80
  Q 117.01 465.81 119.54 465.00
  L 136.75 464.74
  A 1.38 1.37 -81.2 0 0 138.02 463.80
  Q 138.32 462.87 139.48 462.97
  C 144.61 463.40 150.11 462.97 155.28 463.03
  Z
  M 295.46 536.84
  L 302.64 537.83
  Q 302.90 537.86 302.95 537.60
  L 302.99 537.34
  Q 303.07 536.89 302.67 536.68
  Q 298.77 534.56 295.34 535.94
  Q 293.69 536.60 295.46 536.84
  Z"
/>
<path fill="#a3d3d3" d="
  M 155.28 463.03
  L 170.72 462.91
  Q 173.96 465.04 177.23 465.32
  C 180.87 465.62 184.43 466.27 188.45 467.04
  Q 189.32 467.20 189.53 468.06
  L 189.63 468.44
  A 0.61 0.60 -4.4 0 1 188.98 469.19
  Q 186.87 468.99 185.31 468.86
  C 182.72 468.65 180.62 469.42 178.15 470.03
  C 174.15 471.01 176.40 474.62 179.18 475.35
  Q 181.67 476.01 187.24 475.42
  Q 187.76 475.36 188.13 475.01
  Q 190.56 472.69 193.74 474.23
  Q 194.23 474.47 194.76 474.43
  Q 200.34 474.11 205.16 477.00
  A 0.23 0.22 44.2 0 1 205.17 477.38
  C 199.52 480.95 192.68 479.58 187.68 484.35
  A 1.23 1.22 69.2 0 0 187.31 485.18
  Q 187.26 486.73 188.23 488.34
  Q 177.13 488.01 166.50 486.69
  C 164.63 486.46 161.65 485.94 161.51 483.54
  Q 161.47 483.00 162.01 482.90
  L 170.48 481.41
  A 0.80 0.80 0.0 0 0 170.99 480.16
  Q 169.29 477.79 166.24 476.83
  Q 156.40 473.73 146.33 471.45
  C 144.02 470.93 142.17 469.91 140.43 468.53
  A 1.31 1.31 0.0 0 1 141.03 466.21
  Q 148.48 464.96 155.99 465.03
  Q 159.05 465.06 156.55 463.36
  Q 156.49 463.32 155.28 463.03
  Z"
/>
<path fill="#457382" d="
  M 564.00 464.07
  L 564.00 666.04
  Q 562.47 667.08 560.76 667.33
  Q 553.83 668.30 547.55 665.36
  Q 544.00 663.70 542.22 663.37
  C 538.70 662.72 535.33 662.87 531.55 662.30
  C 529.25 661.96 526.90 662.24 524.82 661.98
  C 504.55 659.49 473.19 655.60 465.49 631.92
  Q 464.24 628.09 462.86 624.27
  A 1.89 1.85 -51.1 0 1 462.77 623.32
  C 463.33 620.04 461.99 617.75 462.12 614.67
  Q 462.22 612.12 462.17 607.75
  C 462.14 605.52 464.16 602.06 460.50 600.98
  C 457.48 600.09 453.90 600.44 451.19 600.07
  C 447.96 599.63 445.85 599.35 441.58 598.62
  C 438.55 598.11 435.14 598.27 432.49 597.99
  C 409.14 595.47 391.10 594.27 371.44 586.52
  C 368.12 585.21 366.38 584.71 365.01 581.80
  A 1.69 1.69 0.0 0 1 366.63 579.40
  L 368.95 579.53
  A 0.58 0.57 -3.9 0 0 369.55 578.85
  L 369.14 576.57
  Q 373.02 575.99 374.51 576.51
  C 376.13 577.07 378.13 579.34 380.29 579.77
  C 382.20 580.14 383.70 580.18 385.50 581.01
  C 388.26 582.29 390.93 584.09 394.23 583.26
  Q 394.42 583.21 394.25 583.12
  Q 394.12 583.06 393.99 582.99
  A 0.20 0.20 0.0 0 1 393.98 582.64
  C 395.91 581.56 399.15 584.32 400.59 585.14
  A 1.12 1.12 0.0 0 0 401.64 585.16
  L 404.25 583.79
  A 0.84 0.84 0.0 0 1 405.26 583.97
  C 408.47 587.48 412.33 585.45 416.24 584.67
  Q 417.37 584.45 417.93 585.71
  Q 418.10 586.11 417.89 586.50
  Q 417.54 587.15 417.62 587.89
  A 0.67 0.66 86.6 0 0 418.28 588.48
  L 420.31 588.47
  Q 420.85 588.47 421.30 588.76
  Q 424.66 590.98 427.75 588.39
  A 0.73 0.73 0.0 0 1 428.80 588.51
  L 430.43 590.68
  A 0.96 0.94 60.9 0 0 431.51 591.00
  C 435.35 589.58 440.72 587.00 444.71 588.81
  C 446.29 589.53 446.83 591.31 447.61 592.78
  Q 447.88 593.28 448.42 593.44
  Q 451.92 594.44 454.13 591.74
  A 0.59 0.59 0.0 0 1 455.10 591.84
  C 456.80 595.06 459.20 593.36 461.05 591.61
  A 1.18 1.18 0.0 0 1 463.04 592.45
  L 463.05 593.50
  Q 463.05 593.93 463.43 594.14
  Q 463.64 594.26 463.88 594.19
  Q 464.16 594.11 464.35 593.67
  Q 465.15 591.85 465.92 590.14
  A 0.64 0.63 14.8 0 0 465.40 589.26
  Q 455.22 588.27 445.15 587.48
  C 442.29 587.26 439.60 585.59 436.80 584.92
  Q 424.48 581.98 411.85 582.01
  Q 408.03 582.02 404.74 581.21
  Q 391.26 577.87 377.16 574.74
  Q 378.84 573.21 382.75 572.51
  Q 402.41 569.03 422.24 566.71
  Q 431.96 565.57 439.87 562.84
  Q 443.18 561.70 440.03 560.16
  C 436.14 558.26 432.36 556.85 427.86 555.70
  Q 407.97 550.62 399.99 547.51
  C 395.22 545.64 388.35 542.67 387.98 536.25
  C 387.81 533.15 388.34 531.31 385.65 529.24
  C 382.30 526.66 377.53 526.10 372.01 525.36
  Q 367.05 524.68 362.20 523.48
  Q 359.43 522.79 352.84 520.06
  C 347.80 517.97 342.55 517.21 337.68 514.81
  A 0.51 0.51 0.0 0 1 337.52 514.02
  L 338.93 512.44
  Q 339.33 511.98 339.81 512.35
  Q 340.07 512.55 340.11 512.84
  Q 340.17 513.42 340.75 513.43
  L 351.73 513.68
  Q 352.11 513.69 352.14 513.31
  Q 352.14 513.18 352.16 513.06
  Q 352.24 512.55 352.66 512.24
  L 353.17 511.86
  Q 353.66 511.51 354.15 511.87
  Q 354.75 512.32 354.89 513.02
  Q 354.97 513.43 355.39 513.47
  Q 357.14 513.66 359.09 513.14
  Q 360.39 516.92 363.64 516.78
  C 365.65 516.69 367.12 513.97 369.17 516.95
  A 1.79 1.79 0.0 0 0 372.01 517.09
  Q 373.41 515.41 375.51 515.65
  A 0.56 0.55 -82.6 0 1 376.00 516.29
  C 375.24 520.93 381.03 519.49 383.73 518.70
  A 0.43 0.43 0.0 0 1 384.25 518.95
  Q 385.57 522.28 389.43 521.31
  Q 392.27 521.91 394.93 520.91
  Q 395.40 520.73 395.76 521.10
  C 399.38 524.81 396.23 529.67 394.01 533.15
  A 1.84 1.84 0.0 0 0 395.19 535.94
  C 403.08 537.56 409.23 534.72 416.71 533.35
  C 430.18 530.89 444.01 528.75 456.83 523.97
  A 0.85 0.85 0.0 0 0 457.08 522.52
  C 454.68 520.51 452.64 519.46 449.40 518.68
  C 433.86 514.96 420.41 513.17 405.75 511.09
  C 402.37 510.61 398.92 509.56 395.74 509.14
  C 381.66 507.29 367.96 504.37 354.08 501.46
  C 345.77 499.72 337.42 496.72 328.99 494.54
  C 326.37 493.86 323.14 492.34 320.24 491.41
  Q 300.21 485.00 282.32 473.93
  C 280.04 472.51 277.41 470.18 278.77 466.86
  A 0.69 0.69 0.0 0 0 277.94 465.93
  Q 275.70 466.56 273.01 465.86
  Q 275.05 464.67 277.64 465.08
  Q 279.92 465.44 281.42 465.31
  Q 283.69 465.11 285.90 465.36
  L 285.61 467.85
  Q 285.54 468.40 286.03 468.66
  L 292.53 472.20
  Q 292.91 472.41 293.35 472.38
  Q 295.37 472.25 296.17 474.27
  Q 296.45 474.96 297.22 474.73
  Q 297.67 474.60 297.79 474.14
  Q 297.95 473.54 298.00 473.42
  Q 299.14 470.94 299.13 473.67
  Q 299.12 475.36 301.48 476.01
  Q 309.05 478.09 316.68 479.88
  Q 338.20 484.95 360.25 486.42
  C 365.84 486.80 372.19 486.34 376.92 486.40
  C 383.23 486.48 389.42 486.67 395.65 485.84
  Q 410.97 483.80 424.76 480.50
  Q 427.71 479.79 430.34 477.72
  Q 430.71 477.42 430.81 477.06
  Q 430.92 476.66 430.95 476.24
  A 0.48 0.48 0.0 0 0 430.31 475.76
  C 429.36 476.11 428.97 476.30 427.94 475.90
  C 422.79 473.93 415.75 474.78 410.41 475.60
  C 399.69 477.24 388.65 476.11 377.85 476.25
  C 374.80 476.29 371.62 475.23 368.47 474.87
  Q 358.25 473.69 348.50 470.40
  C 346.96 469.88 341.65 466.89 343.06 464.72
  C 343.97 464.32 344.65 463.98 345.70 463.97
  C 355.12 463.86 363.55 463.71 373.74 464.33
  Q 390.25 465.35 406.75 463.82
  Q 412.02 463.33 420.93 463.95
  C 433.54 464.83 444.79 464.77 456.80 464.58
  C 459.42 464.53 462.02 463.71 464.63 463.74
  Q 509.42 464.17 554.22 463.68
  C 556.13 463.66 558.83 463.27 561.36 463.53
  Q 562.75 463.68 564.00 464.07
  Z"
/>
<path fill="#a3d3d3" d="
  M 343.06 464.72
  C 341.65 466.89 346.96 469.88 348.50 470.40
  Q 358.25 473.69 368.47 474.87
  C 371.62 475.23 374.80 476.29 377.85 476.25
  C 388.65 476.11 399.69 477.24 410.41 475.60
  C 415.75 474.78 422.79 473.93 427.94 475.90
  C 428.97 476.30 429.36 476.11 430.31 475.76
  A 0.48 0.48 0.0 0 1 430.95 476.24
  Q 430.92 476.66 430.81 477.06
  Q 430.71 477.42 430.34 477.72
  Q 427.71 479.79 424.76 480.50
  Q 410.97 483.80 395.65 485.84
  C 389.42 486.67 383.23 486.48 376.92 486.40
  C 372.19 486.34 365.84 486.80 360.25 486.42
  Q 338.20 484.95 316.68 479.88
  Q 309.05 478.09 301.48 476.01
  Q 299.12 475.36 299.13 473.67
  Q 299.14 470.94 298.00 473.42
  Q 297.95 473.54 297.79 474.14
  Q 297.67 474.60 297.22 474.73
  Q 296.45 474.96 296.17 474.27
  Q 295.37 472.25 293.35 472.38
  Q 292.91 472.41 292.53 472.20
  L 286.03 468.66
  Q 285.54 468.40 285.61 467.85
  L 285.90 465.36
  Q 288.25 465.27 290.76 465.09
  Q 315.11 463.33 342.00 464.16
  Q 342.82 464.18 343.06 464.72
  Z"
/>
<path fill="#cee0d4" d="
  M 0.00 464.68
  Q 13.51 464.53 27.00 465.27
  C 32.22 465.55 38.52 464.68 43.68 464.70
  C 57.15 464.73 69.31 464.72 84.10 464.93
  C 92.64 465.05 100.79 464.68 109.66 465.06
  Q 114.55 465.28 119.54 465.00
  Q 117.01 465.81 117.55 466.80
  Q 116.37 467.76 115.37 467.84
  C 111.60 468.16 102.86 470.63 104.11 475.36
  Q 104.79 477.93 107.77 479.19
  Q 118.75 483.84 129.82 489.12
  A 0.90 0.90 0.0 0 1 129.79 490.76
  C 125.08 492.77 122.87 493.50 119.47 498.22
  C 114.17 505.59 125.00 509.09 129.78 510.72
  C 143.60 515.42 157.57 518.81 171.54 522.93
  C 175.47 524.08 182.23 525.64 187.53 527.73
  A 0.72 0.71 28.7 0 1 187.85 528.80
  Q 186.94 530.08 185.39 531.10
  Q 179.43 535.00 173.48 538.92
  C 165.53 544.14 160.89 555.24 170.12 562.14
  Q 175.03 565.80 180.61 568.37
  C 196.84 575.84 214.55 578.80 231.53 584.02
  C 239.58 586.50 247.91 588.28 255.36 592.40
  A 1.14 1.14 0.0 0 1 255.77 593.99
  Q 255.28 594.78 254.43 595.22
  Q 251.23 596.88 247.82 597.96
  C 245.23 598.77 239.92 599.30 236.06 600.64
  C 231.92 602.08 228.99 602.93 225.42 604.11
  Q 225.18 604.19 225.10 603.95
  L 225.02 603.70
  Q 224.95 603.49 225.16 603.39
  L 229.51 601.47
  A 0.32 0.32 0.0 0 0 229.43 600.86
  Q 228.24 600.72 227.12 601.13
  C 220.92 603.39 214.54 604.69 208.26 606.63
  C 207.21 606.95 205.63 606.75 204.42 607.07
  C 197.40 608.93 189.91 610.65 183.52 613.33
  Q 176.09 616.44 169.09 620.45
  C 167.39 621.43 165.79 622.96 164.04 624.11
  C 159.72 626.95 153.00 632.71 153.64 638.74
  C 155.23 653.47 197.38 659.77 208.56 661.94
  Q 220.22 664.20 231.96 666.02
  C 244.28 667.93 253.98 669.71 264.98 671.83
  Q 279.99 674.72 286.00 677.01
  C 289.76 678.44 295.38 680.75 298.01 683.85
  A 1.84 1.83 -48.6 0 1 298.14 686.06
  C 296.46 688.59 294.38 689.79 291.28 690.65
  C 283.59 692.78 275.89 694.80 268.26 697.10
  Q 263.40 698.56 258.34 699.03
  C 243.60 700.39 230.05 705.23 215.88 709.19
  Q 211.47 710.43 208.24 712.45
  C 203.04 715.70 197.32 719.70 193.91 724.70
  Q 191.57 728.14 190.08 732.07
  Q 189.47 733.66 188.72 733.97
  Q 182.72 736.47 179.01 741.56
  Q 176.32 745.26 175.44 746.05
  C 171.58 749.53 167.64 751.94 164.58 756.83
  Q 163.34 758.82 160.45 765.38
  Q 157.01 773.18 152.57 780.46
  C 149.10 786.13 147.60 790.37 147.13 796.50
  Q 146.41 806.02 145.51 815.52
  Q 144.79 823.05 146.00 827.75
  C 148.50 837.46 150.37 847.95 154.06 856.65
  C 159.05 868.44 165.65 879.55 175.29 887.87
  Q 181.58 893.30 184.40 895.90
  C 189.68 900.76 196.96 904.99 200.81 911.06
  Q 204.79 917.32 209.32 923.19
  C 210.64 924.91 211.64 927.21 212.10 928.99
  Q 214.33 937.49 216.79 945.93
  Q 218.15 950.61 218.49 955.20
  C 218.98 961.88 219.62 968.74 219.52 975.34
  C 219.43 980.82 219.41 984.46 216.85 988.40
  C 213.90 992.92 211.49 997.60 208.90 1002.32
  C 205.53 1008.42 200.59 1015.38 197.59 1021.31
  Q 194.30 1027.81 193.00 1037.26
  C 191.26 1049.86 189.75 1063.83 193.06 1075.50
  C 196.33 1087.01 202.70 1097.89 212.09 1105.18
  C 215.87 1108.11 221.15 1110.55 225.77 1112.94
  Q 232.70 1116.54 238.83 1125.17
  Q 240.80 1127.93 245.38 1128.00
  L 22.13 1128.00
  C 15.24 1126.91 9.11 1124.08 5.30 1118.18
  C 3.55 1115.46 1.37 1111.28 0.00 1107.75
  L 0.00 575.88
  Q 1.52 567.02 1.10 558.00
  C 0.91 553.99 1.13 550.43 0.00 546.49
  L 0.00 464.68
  Z
  M 133.63 564.55
  C 129.97 564.29 123.97 563.56 120.50 565.41
  Q 117.73 566.88 114.57 567.32
  A 0.52 0.51 -3.8 0 0 114.12 567.83
  L 114.12 568.16
  Q 114.12 568.77 114.73 568.71
  C 117.64 568.41 120.56 568.47 123.14 568.06
  Q 131.99 566.68 140.95 565.44
  Q 141.17 565.41 141.16 565.18
  L 141.15 564.88
  A 0.23 0.23 0.0 0 0 140.93 564.66
  L 136.73 564.57
  A 0.77 0.77 0.0 0 1 135.98 563.73
  L 136.30 559.81
  Q 136.35 559.19 136.96 559.12
  Q 142.45 558.47 147.25 555.74
  A 1.40 1.40 0.0 0 0 147.28 553.32
  C 145.02 551.96 141.09 552.69 138.53 552.83
  Q 138.05 552.86 137.67 552.57
  Q 135.55 551.00 135.97 548.27
  A 0.62 0.62 0.0 0 0 135.44 547.57
  L 135.08 547.52
  A 0.45 0.45 0.0 0 0 134.57 547.93
  L 134.14 552.88
  Q 134.09 553.47 133.53 553.66
  L 125.69 556.38
  A 2.15 1.82 67.5 0 0 124.79 559.19
  Q 124.83 559.27 125.18 559.52
  C 126.74 560.68 131.87 560.16 133.50 559.73
  Q 134.20 559.54 134.21 560.27
  L 134.27 563.95
  A 0.59 0.59 0.0 0 1 133.63 564.55
  Z
  M 139.8282 561.9011
  A 0.85 0.55 77.9 0 0 140.1878 560.9547
  A 0.85 0.55 77.9 0 0 139.4718 560.2389
  A 0.85 0.55 77.9 0 0 139.1122 561.1853
  A 0.85 0.55 77.9 0 0 139.8282 561.9011
  Z"
/>
<path fill="#dafaf5" d="
  M 266.23 557.53
  L 264.02 558.06
  Q 262.74 558.05 261.62 558.65
  A 1.22 1.19 38.6 0 1 260.69 558.74
  C 256.40 557.45 251.97 559.34 248.00 561.73
  C 241.35 565.73 247.48 572.22 251.51 575.02
  C 261.71 582.12 273.63 583.91 285.47 586.19
  C 287.79 586.63 292.33 588.17 291.43 591.39
  Q 290.29 595.51 285.70 596.79
  C 277.53 599.07 269.48 601.67 261.13 603.40
  Q 256.76 604.30 252.43 605.36
  Q 242.69 607.74 232.95 610.12
  C 225.66 611.91 204.08 617.70 204.44 627.89
  C 204.73 636.01 229.40 641.66 236.77 643.01
  Q 265.94 648.36 295.22 653.03
  Q 304.05 654.43 310.71 655.90
  Q 322.26 658.45 325.96 659.83
  C 329.93 661.31 342.73 665.78 341.94 671.50
  C 340.70 680.45 329.09 684.88 322.11 688.84
  C 314.93 692.92 307.41 695.13 299.43 698.67
  Q 291.79 702.06 263.81 712.43
  C 258.14 714.53 251.21 717.70 244.74 719.94
  Q 242.28 720.80 236.51 723.90
  C 233.98 725.25 232.54 727.44 229.86 728.74
  C 218.86 734.04 210.06 740.80 203.22 751.00
  Q 199.97 755.85 195.89 763.33
  Q 193.69 767.38 191.52 773.51
  Q 189.81 778.37 186.95 785.73
  C 186.02 788.14 185.11 792.03 184.94 795.17
  C 184.32 806.47 183.41 816.21 185.67 826.17
  Q 186.45 829.62 189.19 835.52
  Q 192.15 841.89 194.27 848.60
  C 197.55 858.96 202.32 865.44 209.30 876.22
  Q 213.24 882.29 215.79 886.03
  Q 219.87 892.02 222.06 895.93
  C 226.65 904.12 231.24 911.03 233.70 920.96
  Q 233.98 922.10 234.42 923.00
  C 237.27 928.87 240.72 934.48 243.94 940.15
  C 246.35 944.39 246.78 950.45 247.61 955.18
  C 249.56 966.22 247.44 973.68 243.51 984.64
  C 240.96 991.77 239.55 999.25 237.43 1006.66
  Q 236.67 1009.29 233.82 1016.45
  Q 227.59 1032.10 229.13 1049.05
  C 229.74 1055.80 228.94 1063.32 230.85 1069.56
  Q 234.34 1080.94 244.06 1087.43
  Q 252.91 1093.35 268.96 1102.15
  C 271.84 1103.73 274.54 1105.72 277.37 1107.51
  Q 279.99 1109.17 283.88 1110.49
  C 288.11 1111.92 294.47 1113.61 295.22 1118.75
  Q 295.89 1123.46 293.77 1128.00
  L 270.53 1128.00
  L 265.40 1126.42
  Q 264.90 1126.26 264.49 1126.58
  L 262.62 1128.00
  L 245.38 1128.00
  Q 240.80 1127.93 238.83 1125.17
  Q 232.70 1116.54 225.77 1112.94
  C 221.15 1110.55 215.87 1108.11 212.09 1105.18
  C 202.70 1097.89 196.33 1087.01 193.06 1075.50
  C 189.75 1063.83 191.26 1049.86 193.00 1037.26
  Q 194.30 1027.81 197.59 1021.31
  C 200.59 1015.38 205.53 1008.42 208.90 1002.32
  C 211.49 997.60 213.90 992.92 216.85 988.40
  C 219.41 984.46 219.43 980.82 219.52 975.34
  C 219.62 968.74 218.98 961.88 218.49 955.20
  Q 218.15 950.61 216.79 945.93
  Q 214.33 937.49 212.10 928.99
  C 211.64 927.21 210.64 924.91 209.32 923.19
  Q 204.79 917.32 200.81 911.06
  C 196.96 904.99 189.68 900.76 184.40 895.90
  Q 181.58 893.30 175.29 887.87
  C 165.65 879.55 159.05 868.44 154.06 856.65
  C 150.37 847.95 148.50 837.46 146.00 827.75
  Q 144.79 823.05 145.51 815.52
  Q 146.41 806.02 147.13 796.50
  C 147.60 790.37 149.10 786.13 152.57 780.46
  Q 157.01 773.18 160.45 765.38
  Q 163.34 758.82 164.58 756.83
  C 167.64 751.94 171.58 749.53 175.44 746.05
  Q 176.32 745.26 179.01 741.56
  Q 182.72 736.47 188.72 733.97
  Q 189.47 733.66 190.08 732.07
  Q 191.57 728.14 193.91 724.70
  C 197.32 719.70 203.04 715.70 208.24 712.45
  Q 211.47 710.43 215.88 709.19
  C 230.05 705.23 243.60 700.39 258.34 699.03
  Q 263.40 698.56 268.26 697.10
  C 275.89 694.80 283.59 692.78 291.28 690.65
  C 294.38 689.79 296.46 688.59 298.14 686.06
  A 1.84 1.83 -48.6 0 0 298.01 683.85
  C 295.38 680.75 289.76 678.44 286.00 677.01
  Q 279.99 674.72 264.98 671.83
  C 253.98 669.71 244.28 667.93 231.96 666.02
  Q 220.22 664.20 208.56 661.94
  C 197.38 659.77 155.23 653.47 153.64 638.74
  C 153.00 632.71 159.72 626.95 164.04 624.11
  C 165.79 622.96 167.39 621.43 169.09 620.45
  Q 176.09 616.44 183.52 613.33
  C 189.91 610.65 197.40 608.93 204.42 607.07
  C 205.63 606.75 207.21 606.95 208.26 606.63
  C 214.54 604.69 220.92 603.39 227.12 601.13
  Q 228.24 600.72 229.43 600.86
  A 0.32 0.32 0.0 0 1 229.51 601.47
  L 225.16 603.39
  Q 224.95 603.49 225.02 603.70
  L 225.10 603.95
  Q 225.18 604.19 225.42 604.11
  C 228.99 602.93 231.92 602.08 236.06 600.64
  C 239.92 599.30 245.23 598.77 247.82 597.96
  Q 251.23 596.88 254.43 595.22
  Q 255.28 594.78 255.77 593.99
  A 1.14 1.14 0.0 0 0 255.36 592.40
  C 247.91 588.28 239.58 586.50 231.53 584.02
  C 214.55 578.80 196.84 575.84 180.61 568.37
  Q 175.03 565.80 170.12 562.14
  C 160.89 555.24 165.53 544.14 173.48 538.92
  Q 179.43 535.00 185.39 531.10
  Q 186.94 530.08 187.85 528.80
  A 0.72 0.71 28.7 0 0 187.53 527.73
  C 182.23 525.64 175.47 524.08 171.54 522.93
  C 157.57 518.81 143.60 515.42 129.78 510.72
  C 125.00 509.09 114.17 505.59 119.47 498.22
  C 122.87 493.50 125.08 492.77 129.79 490.76
  A 0.90 0.90 0.0 0 0 129.82 489.12
  Q 118.75 483.84 107.77 479.19
  Q 104.79 477.93 104.11 475.36
  C 102.86 470.63 111.60 468.16 115.37 467.84
  Q 116.37 467.76 117.55 466.80
  L 118.95 466.39
  Q 119.39 466.26 119.71 465.92
  Q 120.17 465.43 120.85 465.28
  Q 121.37 465.16 121.72 465.56
  Q 125.24 469.61 130.68 470.55
  C 137.60 471.74 145.91 472.95 151.63 477.41
  A 0.71 0.70 48.8 0 1 151.56 478.57
  Q 149.44 479.83 148.19 481.92
  A 2.18 2.17 -51.8 0 0 148.50 484.57
  L 151.43 487.59
  A 0.76 0.75 -32.9 0 1 151.16 488.82
  C 148.59 489.84 143.47 490.33 141.91 492.18
  Q 140.43 493.95 142.46 495.04
  Q 143.97 495.87 145.78 496.41
  Q 165.54 502.38 185.35 508.19
  C 189.23 509.32 192.91 510.87 196.71 512.31
  Q 198.20 512.88 198.36 513.43
  Q 198.97 515.47 196.83 515.56
  Q 190.93 515.80 185.44 515.74
  C 182.55 515.71 180.43 516.68 178.22 518.23
  A 0.83 0.82 44.0 0 0 178.25 519.60
  C 181.77 521.89 186.88 522.92 190.90 524.10
  C 195.26 525.38 203.57 525.95 207.61 529.36
  Q 208.72 530.30 207.81 531.44
  C 204.29 535.84 199.69 536.61 195.02 539.28
  Q 190.46 541.89 193.88 546.14
  C 197.05 550.08 208.75 551.71 213.56 552.11
  C 220.99 552.73 228.17 553.25 235.82 553.25
  Q 255.01 553.24 260.50 553.34
  Q 265.28 553.42 266.23 557.53
  Z
  M 207.6738 608.4180
  A 0.71 0.71 0.0 0 0 206.7888 607.9436
  L 188.3892 613.4988
  A 0.71 0.71 0.0 0 0 187.9147 614.3837
  L 187.9262 614.4220
  A 0.71 0.71 0.0 0 0 188.8112 614.8964
  L 207.2108 609.3412
  A 0.71 0.71 0.0 0 0 207.6853 608.4563
  L 207.6738 608.4180
  Z"
/>
<path fill="#bfebea" d="
  M 262.69 481.50
  L 254.88 477.32
  Q 254.98 476.04 256.06 476.36
  C 257.34 476.73 258.58 478.63 260.36 479.24
  C 261.41 479.61 261.89 480.24 262.75 480.84
  Q 263.02 481.03 262.88 481.32
  Q 262.82 481.42 262.69 481.50
  Z"
/>
<path fill="#457382" d="
  M 254.88 477.32
  L 262.69 481.50
  Q 263.12 482.00 264.18 482.15
  Q 264.97 485.33 266.08 485.97
  C 269.90 487.56 269.37 492.82 265.65 494.46
  Q 265.23 494.64 264.78 494.50
  C 260.61 493.14 260.92 488.82 258.67 485.77
  C 257.50 484.17 252.30 478.99 253.59 476.81
  Q 254.28 475.66 254.88 477.32
  Z"
/>
<path fill="#bfebea" d="
  M 266.08 485.97
  Q 264.97 485.33 264.18 482.15
  Q 264.71 481.95 265.28 482.13
  C 265.98 482.34 266.81 483.61 267.66 484.09
  C 268.57 484.61 268.92 485.00 269.12 485.93
  Q 269.24 486.48 268.69 486.39
  L 266.08 485.97
  Z"
/>
<path fill="#bfebea" d="
  M 389.43 521.31
  Q 385.57 522.28 384.25 518.95
  A 0.43 0.43 0.0 0 0 383.73 518.70
  C 381.03 519.49 375.24 520.93 376.00 516.29
  A 0.56 0.55 -82.6 0 0 375.51 515.65
  Q 373.41 515.41 372.01 517.09
  A 1.79 1.79 0.0 0 1 369.17 516.95
  C 367.12 513.97 365.65 516.69 363.64 516.78
  Q 360.39 516.92 359.09 513.14
  C 357.26 508.96 347.57 512.09 344.07 512.31
  A 0.77 0.76 72.9 0 1 343.36 511.93
  Q 342.76 510.91 341.85 510.19
  A 0.92 0.90 -40.6 0 0 340.83 510.12
  Q 338.60 511.38 336.07 510.88
  Q 335.52 510.77 335.14 510.35
  Q 334.56 509.70 333.74 509.38
  Q 333.25 509.20 332.74 509.24
  Q 331.70 509.32 330.90 508.83
  Q 331.72 507.53 331.35 506.67
  Q 331.17 506.26 330.18 505.88
  C 327.00 505.86 321.90 507.00 319.54 504.72
  A 1.14 1.14 0.0 0 0 317.97 504.71
  C 317.32 505.31 316.59 505.58 315.66 505.29
  Q 312.11 504.21 308.57 503.19
  Q 307.85 502.99 307.43 503.19
  Q 307.03 503.38 306.75 503.84
  Q 306.51 504.25 306.07 504.08
  Q 305.21 503.77 305.34 502.49
  C 305.67 499.20 310.08 499.78 312.34 500.38
  C 316.90 501.59 322.85 503.93 327.51 503.46
  Q 329.36 503.27 330.97 503.59
  Q 346.31 506.66 351.26 508.02
  Q 352.98 508.49 356.46 510.69
  C 357.51 511.36 358.12 510.76 359.15 510.93
  C 364.72 511.86 390.42 514.79 392.71 519.50
  A 1.15 1.15 0.0 0 1 391.76 521.15
  L 389.43 521.31
  Z"
/>
<path fill="#a3d3d3" d="
  M 222.07 500.56
  C 224.41 501.36 225.83 502.43 228.44 502.49
  Q 240.20 502.76 248.77 507.44
  Q 251.36 508.85 253.78 513.65
  C 250.16 513.70 246.40 512.57 243.28 512.30
  C 235.45 511.61 227.24 511.01 219.69 508.85
  Q 218.92 508.63 218.80 507.83
  C 218.10 503.03 222.28 503.35 222.07 500.56
  Z"
/>
<path fill="#457382" d="
  M 330.18 505.88
  Q 331.17 506.26 331.35 506.67
  Q 331.72 507.53 330.90 508.83
  Q 329.48 510.68 331.94 512.08
  Q 332.38 512.33 332.39 512.71
  Q 332.39 513.31 331.80 513.21
  C 325.03 512.00 318.59 509.52 310.69 508.25
  A 0.59 0.58 5.1 0 1 310.19 507.66
  L 310.19 507.39
  Q 310.20 507.12 310.46 507.14
  Q 316.51 507.50 322.38 507.42
  C 325.09 507.39 327.47 506.35 330.18 505.88
  Z"
/>
<path fill="#a3d3d3" d="
  M 255.35 514.51
  L 263.64 518.34
  A 0.92 0.91 34.8 0 1 263.91 519.81
  L 259.40 524.38
  L 252.15 526.05
  A 1.34 1.34 0.0 0 0 251.21 527.84
  L 251.36 528.24
  A 1.66 1.66 0.0 0 0 253.32 529.23
  C 254.60 528.89 255.19 528.63 256.50 529.17
  Q 259.76 530.52 263.25 531.05
  Q 264.56 531.25 264.66 530.69
  Q 265.01 528.60 266.12 530.40
  Q 267.07 531.93 269.50 532.00
  Q 268.73 532.34 268.88 532.78
  Q 268.93 532.93 269.22 533.12
  Q 269.49 533.30 269.55 533.51
  C 265.86 533.28 244.24 532.15 245.43 526.08
  Q 245.52 525.60 245.95 525.37
  C 249.85 523.21 257.64 520.18 255.35 514.51
  Z"
/>
<path fill="#96b0bd" d="
  M 269.55 533.51
  Q 269.49 533.30 269.22 533.12
  Q 268.93 532.93 268.88 532.78
  Q 268.73 532.34 269.50 532.00
  L 275.50 531.07
  A 1.71 1.71 0.0 0 1 277.44 532.44
  Q 277.65 533.56 276.68 533.91
  Q 276.20 534.07 275.29 533.88
  Q 272.44 533.29 269.55 533.51
  Z"
/>
<path fill="#96b0bd" d="
  M 302.64 537.83
  L 295.46 536.84
  Q 293.69 536.60 295.34 535.94
  Q 298.77 534.56 302.67 536.68
  Q 303.07 536.89 302.99 537.34
  L 302.95 537.60
  Q 302.90 537.86 302.64 537.83
  Z"
/>
<path fill="#a3d3d3" d="
  M 335.82 544.27
  Q 336.23 545.69 336.04 547.37
  Q 335.99 547.87 335.61 548.21
  Q 330.97 552.42 324.74 553.65
  Q 304.91 557.55 284.99 560.97
  C 280.88 561.68 262.42 565.02 268.39 571.86
  C 275.19 579.64 287.17 581.83 296.82 582.87
  Q 296.24 584.37 296.86 585.58
  A 0.92 0.92 0.0 0 0 298.46 585.65
  Q 298.74 585.19 299.27 585.10
  Q 299.65 585.04 300.12 585.34
  Q 303.81 587.74 308.28 588.19
  Q 308.85 588.25 309.25 587.84
  Q 309.70 587.40 310.28 587.14
  A 0.58 0.57 -26.5 0 1 310.99 587.37
  C 312.89 590.56 318.05 588.72 321.00 588.44
  Q 323.08 588.24 322.82 590.32
  Q 322.47 593.21 325.38 593.07
  Q 326.43 593.03 326.91 594.26
  Q 327.10 594.76 326.58 594.64
  C 318.52 592.87 311.84 591.50 302.61 589.04
  Q 295.72 587.20 288.64 586.21
  Q 287.93 586.11 286.99 585.61
  C 285.64 584.89 283.82 584.83 282.75 584.40
  Q 278.20 582.61 273.63 580.87
  C 265.74 577.86 240.91 565.73 264.02 558.06
  L 266.23 557.53
  Q 269.52 556.90 273.10 556.07
  Q 276.75 555.23 279.96 554.74
  Q 297.30 552.10 314.49 548.68
  Q 316.87 548.21 318.95 547.17
  A 1.50 1.50 0.0 0 0 319.57 545.05
  Q 318.26 542.88 316.28 541.39
  A 0.75 0.75 0.0 0 1 316.12 540.35
  Q 316.98 539.15 318.22 539.78
  Q 318.72 540.03 318.79 540.58
  C 319.31 544.69 323.72 542.90 326.32 542.50
  Q 326.83 542.42 327.11 542.85
  L 327.91 544.08
  A 0.97 0.95 72.1 0 0 328.75 544.52
  L 335.82 544.27
  Z"
/>
<path fill="#d4e7e5" d="
  M 0.00 546.49
  C 1.13 550.43 0.91 553.99 1.10 558.00
  Q 1.52 567.02 0.00 575.88
  L 0.00 546.49
  Z"
/>
<path fill="#4a6377" d="
  M 133.63 564.55
  A 0.59 0.59 0.0 0 0 134.27 563.95
  L 134.21 560.27
  Q 134.20 559.54 133.50 559.73
  C 131.87 560.16 126.74 560.68 125.18 559.52
  Q 124.83 559.27 124.79 559.19
  A 2.15 1.82 67.5 0 1 125.69 556.38
  L 133.53 553.66
  Q 134.09 553.47 134.14 552.88
  L 134.57 547.93
  A 0.45 0.45 0.0 0 1 135.08 547.52
  L 135.44 547.57
  A 0.62 0.62 0.0 0 1 135.97 548.27
  Q 135.55 551.00 137.67 552.57
  Q 138.05 552.86 138.53 552.83
  C 141.09 552.69 145.02 551.96 147.28 553.32
  A 1.40 1.40 0.0 0 1 147.25 555.74
  Q 142.45 558.47 136.96 559.12
  Q 136.35 559.19 136.30 559.81
  L 135.98 563.73
  A 0.77 0.77 0.0 0 0 136.73 564.57
  L 140.93 564.66
  A 0.23 0.23 0.0 0 1 141.15 564.88
  L 141.16 565.18
  Q 141.17 565.41 140.95 565.44
  Q 131.99 566.68 123.14 568.06
  C 120.56 568.47 117.64 568.41 114.73 568.71
  Q 114.12 568.77 114.12 568.16
  L 114.12 567.83
  A 0.52 0.51 -3.8 0 1 114.57 567.32
  Q 117.73 566.88 120.50 565.41
  C 123.97 563.56 129.97 564.29 133.63 564.55
  Z"
/>
<path fill="#bfebea" d="
  M 264.02 558.06
  C 240.91 565.73 265.74 577.86 273.63 580.87
  Q 278.20 582.61 282.75 584.40
  C 283.82 584.83 285.64 584.89 286.99 585.61
  Q 287.93 586.11 288.64 586.21
  Q 295.72 587.20 302.61 589.04
  C 311.84 591.50 318.52 592.87 326.58 594.64
  Q 327.10 594.76 326.91 594.26
  Q 326.43 593.03 325.38 593.07
  Q 322.47 593.21 322.82 590.32
  Q 323.08 588.24 321.00 588.44
  C 318.05 588.72 312.89 590.56 310.99 587.37
  A 0.58 0.57 -26.5 0 0 310.28 587.14
  Q 309.70 587.40 309.25 587.84
  Q 308.85 588.25 308.28 588.19
  Q 303.81 587.74 300.12 585.34
  Q 299.65 585.04 299.27 585.10
  Q 298.74 585.19 298.46 585.65
  A 0.92 0.92 0.0 0 1 296.86 585.58
  Q 296.24 584.37 296.82 582.87
  Q 299.76 580.15 304.00 581.77
  Q 309.12 583.74 314.47 585.07
  C 317.35 585.79 320.03 584.93 322.96 585.49
  C 331.52 587.12 341.55 588.72 349.00 593.45
  A 1.67 1.58 60.6 0 0 349.84 593.71
  C 353.43 593.83 356.71 594.75 360.24 595.26
  Q 371.48 596.88 380.69 600.05
  Q 384.59 601.40 386.49 605.64
  L 379.78 606.36
  A 2.45 2.45 0.0 0 1 377.22 604.79
  Q 376.95 604.09 376.46 603.61
  Q 376.09 603.24 375.57 603.36
  C 372.78 604.03 370.49 604.80 368.36 603.20
  Q 368.00 602.93 368.00 602.49
  L 367.99 599.98
  A 0.81 0.80 -82.1 0 0 367.42 599.22
  Q 365.25 598.60 364.66 600.67
  A 1.72 1.72 0.0 0 1 361.66 601.27
  L 360.52 599.83
  Q 359.77 598.90 358.77 599.55
  C 351.34 604.41 352.93 596.96 349.31 594.61
  C 347.92 593.70 346.59 593.29 344.88 593.85
  Q 341.32 595.03 337.72 596.08
  Q 335.34 596.78 334.14 594.39
  Q 333.81 593.75 333.11 593.93
  L 329.30 594.90
  A 0.38 0.38 0.0 0 0 329.28 595.63
  C 330.99 596.14 332.80 596.10 334.33 596.65
  C 341.05 599.09 347.87 600.29 354.68 602.29
  C 359.92 603.84 364.89 604.30 370.05 607.21
  Q 371.26 607.89 371.39 608.81
  C 371.88 612.23 366.27 612.24 365.58 615.10
  Q 365.17 616.80 367.14 618.13
  C 373.70 622.55 381.23 624.65 388.34 627.98
  C 393.24 630.27 396.94 634.48 401.11 638.02
  C 391.68 644.17 376.65 652.11 391.58 662.26
  Q 398.79 667.17 407.20 670.68
  C 400.87 681.85 393.38 689.07 384.04 697.76
  C 374.11 707.00 366.85 719.31 377.66 731.33
  Q 384.77 739.25 396.19 743.62
  Q 398.73 752.30 405.81 757.92
  C 413.86 764.32 424.14 768.50 434.00 771.97
  Q 441.12 774.48 450.34 777.01
  Q 447.97 778.26 444.06 781.61
  Q 442.92 782.59 438.44 784.40
  C 433.10 786.56 429.99 791.79 424.93 794.49
  C 411.83 801.45 403.84 812.52 398.55 826.09
  Q 397.31 829.26 396.52 833.60
  C 395.54 839.00 394.39 843.41 395.21 849.62
  Q 395.86 854.55 395.88 857.92
  C 395.93 864.27 395.74 869.58 398.58 875.44
  Q 403.02 884.59 409.54 893.82
  C 403.81 898.67 398.24 903.08 393.30 909.32
  C 389.94 913.57 387.14 918.86 384.04 923.68
  Q 379.34 930.99 378.28 934.23
  C 375.92 941.45 377.30 947.52 379.02 955.34
  C 380.60 962.52 383.03 968.20 386.86 974.09
  C 390.87 980.25 397.31 986.05 402.94 991.56
  Q 406.01 994.55 411.36 1002.61
  C 407.48 1006.61 405.13 1011.40 402.23 1015.98
  Q 400.67 1018.46 396.34 1023.08
  C 387.12 1032.92 375.32 1051.53 377.23 1065.75
  Q 378.29 1073.58 378.70 1078.24
  Q 379.19 1083.82 380.18 1086.60
  Q 382.78 1093.87 387.80 1098.95
  Q 395.74 1106.98 399.57 1111.12
  C 402.40 1114.17 405.58 1116.53 408.67 1119.22
  C 411.37 1121.57 414.67 1127.33 417.97 1128.00
  L 293.77 1128.00
  Q 295.89 1123.46 295.22 1118.75
  C 294.47 1113.61 288.11 1111.92 283.88 1110.49
  Q 279.99 1109.17 277.37 1107.51
  C 274.54 1105.72 271.84 1103.73 268.96 1102.15
  Q 252.91 1093.35 244.06 1087.43
  Q 234.34 1080.94 230.85 1069.56
  C 228.94 1063.32 229.74 1055.80 229.13 1049.05
  Q 227.59 1032.10 233.82 1016.45
  Q 236.67 1009.29 237.43 1006.66
  C 239.55 999.25 240.96 991.77 243.51 984.64
  C 247.44 973.68 249.56 966.22 247.61 955.18
  C 246.78 950.45 246.35 944.39 243.94 940.15
  C 240.72 934.48 237.27 928.87 234.42 923.00
  Q 233.98 922.10 233.70 920.96
  C 231.24 911.03 226.65 904.12 222.06 895.93
  Q 219.87 892.02 215.79 886.03
  Q 213.24 882.29 209.30 876.22
  C 202.32 865.44 197.55 858.96 194.27 848.60
  Q 192.15 841.89 189.19 835.52
  Q 186.45 829.62 185.67 826.17
  C 183.41 816.21 184.32 806.47 184.94 795.17
  C 185.11 792.03 186.02 788.14 186.95 785.73
  Q 189.81 778.37 191.52 773.51
  Q 193.69 767.38 195.89 763.33
  Q 199.97 755.85 203.22 751.00
  C 210.06 740.80 218.86 734.04 229.86 728.74
  C 232.54 727.44 233.98 725.25 236.51 723.90
  Q 242.28 720.80 244.74 719.94
  C 251.21 717.70 258.14 714.53 263.81 712.43
  Q 291.79 702.06 299.43 698.67
  C 307.41 695.13 314.93 692.92 322.11 688.84
  C 329.09 684.88 340.70 680.45 341.94 671.50
  C 342.73 665.78 329.93 661.31 325.96 659.83
  Q 322.26 658.45 310.71 655.90
  Q 304.05 654.43 295.22 653.03
  Q 265.94 648.36 236.77 643.01
  C 229.40 641.66 204.73 636.01 204.44 627.89
  C 204.08 617.70 225.66 611.91 232.95 610.12
  Q 242.69 607.74 252.43 605.36
  Q 256.76 604.30 261.13 603.40
  C 269.48 601.67 277.53 599.07 285.70 596.79
  Q 290.29 595.51 291.43 591.39
  C 292.33 588.17 287.79 586.63 285.47 586.19
  C 273.63 583.91 261.71 582.12 251.51 575.02
  C 247.48 572.22 241.35 565.73 248.00 561.73
  C 251.97 559.34 256.40 557.45 260.69 558.74
  A 1.22 1.19 38.6 0 0 261.62 558.65
  Q 262.74 558.05 264.02 558.06
  Z"
/>
<ellipse fill="#4a6377" cx="0.00" cy="0.00" transform="translate(139.65,561.07) rotate(77.9)" rx="0.85" ry="0.55"/>
<path fill="#bfebea" d="
  M 377.16 574.74
  Q 391.26 577.87 404.74 581.21
  Q 408.03 582.02 411.85 582.01
  Q 424.48 581.98 436.80 584.92
  C 439.60 585.59 442.29 587.26 445.15 587.48
  Q 455.22 588.27 465.40 589.26
  A 0.64 0.63 14.8 0 1 465.92 590.14
  Q 465.15 591.85 464.35 593.67
  Q 464.16 594.11 463.88 594.19
  Q 463.64 594.26 463.43 594.14
  Q 463.05 593.93 463.05 593.50
  L 463.04 592.45
  A 1.18 1.18 0.0 0 0 461.05 591.61
  C 459.20 593.36 456.80 595.06 455.10 591.84
  A 0.59 0.59 0.0 0 0 454.13 591.74
  Q 451.92 594.44 448.42 593.44
  Q 447.88 593.28 447.61 592.78
  C 446.83 591.31 446.29 589.53 444.71 588.81
  C 440.72 587.00 435.35 589.58 431.51 591.00
  A 0.96 0.94 60.9 0 1 430.43 590.68
  L 428.80 588.51
  A 0.73 0.73 0.0 0 0 427.75 588.39
  Q 424.66 590.98 421.30 588.76
  Q 420.85 588.47 420.31 588.47
  L 418.28 588.48
  A 0.67 0.66 86.6 0 1 417.62 587.89
  Q 417.54 587.15 417.89 586.50
  Q 418.10 586.11 417.93 585.71
  Q 417.37 584.45 416.24 584.67
  C 412.33 585.45 408.47 587.48 405.26 583.97
  A 0.84 0.84 0.0 0 0 404.25 583.79
  L 401.64 585.16
  A 1.12 1.12 0.0 0 1 400.59 585.14
  C 399.15 584.32 395.91 581.56 393.98 582.64
  A 0.20 0.20 0.0 0 0 393.99 582.99
  Q 394.12 583.06 394.25 583.12
  Q 394.42 583.21 394.23 583.26
  C 390.93 584.09 388.26 582.29 385.50 581.01
  C 383.70 580.18 382.20 580.14 380.29 579.77
  C 378.13 579.34 376.13 577.07 374.51 576.51
  Q 373.02 575.99 369.14 576.57
  Q 366.43 576.63 363.87 574.91
  Q 363.43 574.62 362.96 574.85
  Q 362.50 575.08 362.21 575.41
  Q 360.42 577.45 360.50 574.82
  C 360.60 572.08 365.15 571.84 366.90 572.30
  Q 372.36 573.75 377.16 574.74
  Z"
/>
<path fill="#a3d3d3" d="
  M 386.49 605.64
  Q 389.47 609.25 394.25 611.22
  C 400.45 613.78 406.58 615.58 412.66 618.91
  C 414.78 620.06 418.54 623.21 416.32 625.87
  Q 409.91 633.55 401.11 638.02
  C 396.94 634.48 393.24 630.27 388.34 627.98
  C 381.23 624.65 373.70 622.55 367.14 618.13
  Q 365.17 616.80 365.58 615.10
  C 366.27 612.24 371.88 612.23 371.39 608.81
  Q 371.26 607.89 370.05 607.21
  C 364.89 604.30 359.92 603.84 354.68 602.29
  C 347.87 600.29 341.05 599.09 334.33 596.65
  C 332.80 596.10 330.99 596.14 329.28 595.63
  A 0.38 0.38 0.0 0 1 329.30 594.90
  L 333.11 593.93
  Q 333.81 593.75 334.14 594.39
  Q 335.34 596.78 337.72 596.08
  Q 341.32 595.03 344.88 593.85
  C 346.59 593.29 347.92 593.70 349.31 594.61
  C 352.93 596.96 351.34 604.41 358.77 599.55
  Q 359.77 598.90 360.52 599.83
  L 361.66 601.27
  A 1.72 1.72 0.0 0 0 364.66 600.67
  Q 365.25 598.60 367.42 599.22
  A 0.81 0.80 -82.1 0 1 367.99 599.98
  L 368.00 602.49
  Q 368.00 602.93 368.36 603.20
  C 370.49 604.80 372.78 604.03 375.57 603.36
  Q 376.09 603.24 376.46 603.61
  Q 376.95 604.09 377.22 604.79
  A 2.45 2.45 0.0 0 0 379.78 606.36
  L 386.49 605.64
  Z"
/>
<rect fill="#cee0d4" x="-10.32" y="-0.73" transform="translate(197.80,611.42) rotate(-16.8)" width="20.64" height="1.46" rx="0.71"/>
<path fill="#a3d3d3" d="
  M 407.20 670.68
  Q 423.60 676.86 439.49 684.41
  C 443.53 686.33 451.77 690.99 452.07 696.01
  Q 452.40 701.77 448.83 705.80
  C 440.90 714.75 426.39 717.89 415.93 722.83
  C 409.18 726.02 402.54 729.40 399.01 733.50
  C 395.74 737.29 395.90 739.38 396.19 743.62
  Q 384.77 739.25 377.66 731.33
  C 366.85 719.31 374.11 707.00 384.04 697.76
  C 393.38 689.07 400.87 681.85 407.20 670.68
  Z"
/>
<path fill="#d4e7e5" d="
  M 564.00 719.86
  L 564.00 739.01
  Q 563.59 735.29 563.84 731.50
  Q 563.94 729.92 562.88 728.95
  Q 562.58 728.68 562.88 728.40
  C 564.34 727.02 563.74 721.96 564.00 719.86
  Z"
/>
<path fill="#a3d3d3" d="
  M 450.34 777.01
  Q 458.12 784.19 463.80 793.89
  C 467.74 800.62 471.14 809.76 474.48 817.74
  C 475.12 819.25 475.45 821.84 475.31 823.78
  C 474.45 836.24 471.44 850.80 465.26 859.75
  C 463.87 861.77 459.61 864.04 457.15 865.50
  Q 440.16 875.65 422.76 885.11
  C 417.96 887.73 413.79 890.68 409.54 893.82
  Q 403.02 884.59 398.58 875.44
  C 395.74 869.58 395.93 864.27 395.88 857.92
  Q 395.86 854.55 395.21 849.62
  C 394.39 843.41 395.54 839.00 396.52 833.60
  Q 397.31 829.26 398.55 826.09
  C 403.84 812.52 411.83 801.45 424.93 794.49
  C 429.99 791.79 433.10 786.56 438.44 784.40
  Q 442.92 782.59 444.06 781.61
  Q 447.97 778.26 450.34 777.01
  Z"
/>
<path fill="#a3d3d3" d="
  M 411.36 1002.61
  C 417.81 1011.73 426.23 1019.40 434.27 1027.11
  Q 437.78 1030.48 444.41 1037.71
  Q 453.61 1047.74 464.70 1055.79
  C 470.04 1059.66 476.42 1066.73 480.92 1072.82
  Q 488.95 1083.67 496.10 1095.09
  C 501.86 1104.28 507.47 1116.34 513.59 1126.75
  A 0.38 0.38 0.0 0 1 513.47 1127.26
  Q 513.21 1127.43 513.73 1127.64
  Q 513.90 1127.71 514.09 1127.73
  Q 514.61 1127.76 514.76 1128.00
  L 417.97 1128.00
  C 414.67 1127.33 411.37 1121.57 408.67 1119.22
  C 405.58 1116.53 402.40 1114.17 399.57 1111.12
  Q 395.74 1106.98 387.80 1098.95
  Q 382.78 1093.87 380.18 1086.60
  Q 379.19 1083.82 378.70 1078.24
  Q 378.29 1073.58 377.23 1065.75
  C 375.32 1051.53 387.12 1032.92 396.34 1023.08
  Q 400.67 1018.46 402.23 1015.98
  C 405.13 1011.40 407.48 1006.61 411.36 1002.61
  Z"
/>
<path fill="#bfebea" d="
  M 0.00 1107.75
  C 1.37 1111.28 3.55 1115.46 5.30 1118.18
  C 9.11 1124.08 15.24 1126.91 22.13 1128.00
  L 0.00 1128.00
  L 0.00 1107.75
  Z"
/>
<path fill="#d4e7e5" d="
  M 564.00 1121.87
  L 564.00 1128.00
  L 551.49 1128.00
  C 554.00 1127.78 556.34 1127.66 558.54 1126.27
  Q 561.69 1124.28 564.00 1121.87
  Z"
/>
<path fill="#d4e7e5" d="
  M 270.53 1128.00
  L 262.62 1128.00
  L 264.49 1126.58
  Q 264.90 1126.26 265.40 1126.42
  L 270.53 1128.00
  Z"
/>
</svg>
