<?xml version="1.0" encoding="UTF-8" standalone="no"?>
<!DOCTYPE svg PUBLIC "-//W3C//DTD SVG 1.1//EN" "http://www.w3.org/Graphics/SVG/1.1/DTD/svg11.dtd">
<svg xmlns="http://www.w3.org/2000/svg" version="1.1" viewBox="0.00 0.00 564.00 799.00">
<g stroke-width="2.00" fill="none" stroke-linecap="butt">
<path stroke="#f4d5c9" vector-effect="non-scaling-stroke" d="
  M 247.02 302.76
  L 243.86 303.66
  Q 243.36 303.80 243.05 303.39
  Q 236.53 294.90 230.30 288.44
  C 227.74 285.79 224.26 283.75 221.76 281.31
  C 218.41 278.03 205.52 263.57 202.23 274.97"
/>
<path stroke="#e5c3b9" vector-effect="non-scaling-stroke" d="
  M 202.23 274.97
  Q 201.82 276.17 202.33 277.71"
/>
<path stroke="#f4d5c9" vector-effect="non-scaling-stroke" d="
  M 202.33 277.71
  Q 202.43 278.56 201.76 278.90"
/>
<path stroke="#e5c3b9" vector-effect="non-scaling-stroke" d="
  M 201.76 278.90
  C 197.08 282.01 199.63 288.35 202.41 291.60
  C 204.47 294.01 207.78 296.68 210.05 299.59
  C 213.97 304.62 217.31 310.22 221.69 314.51
  Q 225.82 318.55 230.18 322.33
  Q 231.12 323.15 230.41 324.51"
/>
<path stroke="#f4d5c9" vector-effect="non-scaling-stroke" d="
  M 230.41 324.51
  Q 229.43 325.63 228.25 325.18
  C 225.19 324.05 222.29 321.25 219.37 319.62
  C 216.38 317.95 214.16 315.94 211.80 313.72
  Q 208.55 310.66 205.02 307.92
  C 202.40 305.88 195.67 306.84 198.39 311.71
  Q 201.92 318.03 204.76 320.25
  C 210.85 325.02 215.40 330.13 223.15 333.46"
/>
<path stroke="#e5c3b9" vector-effect="non-scaling-stroke" d="
  M 223.15 333.46
  Q 226.23 335.64 227.82 338.13"
/>
<path stroke="#b5bfce" vector-effect="non-scaling-stroke" d="
  M 227.82 338.13
  C 208.89 340.18 190.67 346.18 171.97 352.70
  C 162.79 355.91 154.66 361.05 146.24 365.81
  C 138.79 370.02 135.72 374.37 131.35 382.07
  Q 128.42 387.23 126.95 392.17
  C 123.72 403.02 126.84 417.64 134.88 425.88"
/>
<path stroke="#aeb8c9" vector-effect="non-scaling-stroke" d="
  M 134.88 425.88
  Q 146.98 436.18 160.44 445.06
  Q 163.44 447.04 166.13 448.44"
/>
<path stroke="#9ca6ba" vector-effect="non-scaling-stroke" d="
  M 166.13 448.44
  Q 176.35 454.16 187.08 457.47
  C 193.20 459.36 199.65 459.82 206.12 461.44
  C 223.74 465.84 242.15 466.85 260.14 469.13"
/>
<path stroke="#e5c3b9" vector-effect="non-scaling-stroke" d="
  M 260.14 469.13
  L 270.67 469.93"
/>
<path stroke="#f4d5c9" vector-effect="non-scaling-stroke" d="
  M 270.67 469.93
  C 281.94 470.97 293.15 470.27 304.49 470.11
  Q 310.23 470.04 315.78 468.89"
/>
<path stroke="#9ca6ba" vector-effect="non-scaling-stroke" d="
  M 315.78 468.89
  Q 324.37 467.90 332.93 466.29
  C 337.02 465.52 341.68 465.27 345.26 464.56
  C 352.32 463.16 361.95 460.96 370.34 458.11
  Q 378.73 455.25 387.50 452.52"
/>
<path stroke="#aeb8c9" vector-effect="non-scaling-stroke" d="
  M 387.50 452.52
  Q 399.49 449.21 404.44 446.20
  C 415.04 439.75 424.97 434.64 432.54 424.33"
/>
<path stroke="#b5bfce" vector-effect="non-scaling-stroke" d="
  M 432.54 424.33
  C 436.05 419.21 441.33 410.71 441.66 404.52
  Q 442.51 388.62 432.44 376.57
  C 423.44 365.80 413.66 360.57 400.45 353.56
  C 395.68 351.03 388.63 349.93 383.05 347.88
  C 376.10 345.33 369.23 342.34 362.02 340.63
  C 338.30 335.00 314.55 334.15 290.00 332.64"
/>
<path stroke="#f4d5c9" vector-effect="non-scaling-stroke" d="
  M 290.00 332.64
  Q 289.64 326.53 289.22 320.24
  C 288.72 312.93 284.87 307.35 285.13 299.85
  Q 285.22 297.18 284.75 294.70
  C 283.90 290.25 284.96 287.08 284.21 283.20"
/>
<path stroke="#e5c3b9" vector-effect="non-scaling-stroke" d="
  M 284.21 283.20
  Q 284.95 280.91 282.74 280.14
  C 279.59 279.04 276.28 283.78 275.15 286.31
  C 270.98 295.59 272.74 303.14 273.13 312.66
  Q 273.21 314.49 271.90 313.20
  L 268.13 309.49"
/>
<path stroke="#f4d5c9" vector-effect="non-scaling-stroke" d="
  M 268.13 309.49
  Q 259.32 299.39 252.17 287.32
  Q 250.42 284.38 246.21 280.45
  C 240.70 275.30 235.88 269.90 229.95 265.34"
/>
<path stroke="#e5c3b9" vector-effect="non-scaling-stroke" d="
  M 229.95 265.34
  Q 223.19 264.84 224.79 270.84
  Q 225.39 273.14 227.91 275.90
  Q 236.32 285.13 242.53 295.96
  C 243.74 298.07 245.45 299.66 246.97 301.54
  Q 247.21 301.84 247.23 302.12
  Q 247.27 302.58 247.02 302.76"
/>
<path stroke="#e5a593" vector-effect="non-scaling-stroke" d="
  M 229.95 265.34
  Q 230.95 267.02 231.02 268.49
  Q 231.34 274.36 236.68 275.74
  A 0.70 0.70 0.0 0 1 236.86 277.02
  C 232.34 279.71 236.25 284.22 238.75 286.35
  C 239.96 287.38 241.71 287.43 243.19 288.21
  Q 243.65 288.45 243.55 288.96
  C 242.85 292.38 243.82 296.06 247.53 297.12
  Q 249.87 297.79 251.74 297.37
  A 1.01 1.01 0.0 0 1 252.66 299.08
  Q 251.04 300.62 248.81 302.78
  Q 247.11 304.43 247.02 302.76"
/>
<path stroke="#e5a593" vector-effect="non-scaling-stroke" d="
  M 268.13 309.49
  Q 268.91 313.31 271.20 316.74
  Q 271.99 317.91 271.09 321.46
  Q 270.88 322.30 271.60 321.81
  Q 272.82 320.99 273.24 319.60
  A 1.28 1.27 18.4 0 1 274.89 318.78
  L 276.65 319.42
  A 0.64 0.63 -67.1 0 0 277.43 319.10
  Q 278.59 316.79 280.45 314.97
  A 1.33 1.31 -21.8 0 0 280.85 314.05
  C 280.93 309.94 281.32 306.25 280.86 302.02
  Q 280.42 297.90 280.42 293.77
  C 280.41 291.33 281.48 289.27 282.29 287.02
  Q 282.66 286.02 283.16 286.20
  A 0.37 0.36 -82.6 0 0 283.65 285.82
  Q 283.44 283.77 284.21 283.20"
/>
<path stroke="#b5a1a8" vector-effect="non-scaling-stroke" d="
  M 290.00 332.64
  L 289.35 346.34"
/>
<path stroke="#e5a593" vector-effect="non-scaling-stroke" d="
  M 289.35 346.34
  Q 286.59 347.87 283.26 347.28
  C 277.46 346.24 271.27 343.99 270.86 337.12
  C 270.71 334.57 270.05 333.05 269.31 330.81
  A 0.48 0.48 0.0 0 0 268.41 330.79
  Q 268.06 331.68 266.88 331.13
  Q 265.55 330.51 265.73 328.64
  Q 265.78 328.12 265.63 327.89
  Q 265.35 327.47 264.74 327.62
  Q 264.39 327.70 264.54 328.03
  Q 265.47 330.12 265.03 332.54
  A 2.38 2.11 31.4 0 1 261.05 333.25
  Q 260.53 332.67 261.24 330.57
  Q 261.41 330.06 261.12 330.51
  L 260.85 330.94
  Q 260.62 331.28 260.27 331.08
  Q 259.36 330.57 259.24 329.49
  Q 258.67 324.34 260.10 318.91
  Q 260.15 318.72 259.97 318.67
  L 259.68 318.60
  Q 259.24 318.48 259.10 318.92
  C 255.47 330.65 260.04 344.40 267.28 353.47
  C 269.70 356.49 270.61 358.53 269.36 362.10
  A 1.84 1.82 87.7 0 1 268.40 363.15
  C 262.15 366.01 254.62 361.94 251.20 356.79
  Q 248.64 352.95 244.85 351.91
  Q 244.37 351.78 244.03 351.42
  Q 242.81 350.15 241.86 348.67
  C 240.34 346.27 238.06 344.27 237.45 340.93
  Q 237.36 340.44 237.74 340.12
  Q 239.95 338.22 239.37 335.46
  C 238.31 330.42 231.69 335.63 230.38 329.60
  A 0.45 0.44 64.9 0 0 229.67 329.34
  Q 229.11 329.78 229.10 330.46
  Q 229.09 330.98 228.78 331.39
  C 226.31 334.71 223.37 331.69 221.24 330.03
  Q 221.07 329.89 220.93 330.07
  L 220.93 330.08
  Q 220.83 330.21 221.07 330.40
  L 224.10 332.76
  Q 224.54 333.10 224.03 333.34
  Q 223.72 333.49 223.15 333.46"
/>
<path stroke="#e5a593" vector-effect="non-scaling-stroke" d="
  M 230.41 324.51
  Q 230.66 326.38 232.79 323.51
  Q 233.09 323.10 233.01 322.60
  L 232.57 319.77
  Q 232.50 319.29 232.82 318.93
  C 234.21 317.35 233.82 315.89 232.28 314.57
  Q 228.11 311.00 223.98 307.30
  Q 223.58 306.94 223.07 307.11
  C 221.38 307.67 220.64 307.36 219.53 305.96
  C 217.07 302.84 214.41 300.39 212.31 296.99
  Q 212.04 296.55 212.34 296.13
  Q 212.80 295.47 212.97 294.68
  Q 213.34 292.95 211.70 293.63
  C 207.74 295.28 207.11 290.35 207.06 287.62
  A 1.68 1.64 27.8 0 0 206.77 286.72
  C 205.01 284.20 204.67 280.04 201.76 278.90"
/>
<path stroke="#e5a593" vector-effect="non-scaling-stroke" d="
  M 202.33 277.71
  L 202.79 278.36
  Q 203.06 278.75 203.48 278.98
  C 209.44 282.28 212.36 286.84 217.15 291.27
  C 220.68 294.53 222.70 298.72 225.29 301.92
  C 228.35 305.69 231.81 307.68 235.43 310.24
  Q 235.88 310.55 236.12 311.04
  Q 236.28 311.35 236.55 311.52
  Q 236.97 311.79 237.36 311.47
  Q 237.98 310.97 237.47 310.54
  Q 235.77 309.11 234.91 308.34
  Q 234.55 308.02 234.43 307.56
  Q 234.18 306.66 233.41 306.06
  Q 231.55 304.61 230.23 302.68
  Q 229.32 301.35 227.36 299.87
  C 224.64 297.80 222.13 294.00 220.42 292.03
  Q 218.44 289.76 216.55 287.41
  Q 216.27 287.06 216.18 286.63
  L 215.61 283.85
  Q 215.51 283.35 215.01 283.25
  Q 214.17 283.07 213.53 282.47
  Q 210.46 279.56 207.31 276.75
  Q 206.93 276.41 206.44 276.26
  L 202.23 274.97"
/>
<path stroke="#6f84a8" vector-effect="non-scaling-stroke" d="
  M 432.54 424.33
  L 432.50 422.28
  Q 432.49 421.76 431.99 421.58
  L 429.54 420.71
  Q 429.39 420.66 429.34 420.82
  Q 429.31 420.97 429.17 421.05
  Q 429.04 421.14 428.80 421.07
  C 426.33 420.39 424.28 419.43 421.65 419.27
  Q 417.57 419.02 413.61 418.02
  Q 413.12 417.90 412.62 417.99
  Q 412.03 418.10 411.54 417.76
  Q 411.08 417.45 410.53 417.41
  Q 408.98 417.32 407.53 417.86
  Q 407.03 418.05 406.50 417.98
  Q 402.06 417.45 398.05 419.49
  Q 397.56 419.74 397.02 419.69
  Q 393.28 419.31 389.56 419.91
  A 0.57 0.49 -38.1 0 1 389.33 419.90
  L 379.96 417.91
  Q 379.49 417.81 379.06 417.58
  Q 377.69 416.86 376.29 416.19
  Q 376.03 416.06 375.95 415.80
  Q 375.84 415.44 375.50 415.29
  C 373.12 414.25 371.06 412.09 369.59 410.96
  Q 368.19 409.88 366.85 408.71
  Q 366.49 408.40 366.04 408.29
  Q 365.30 408.10 364.82 407.55
  Q 364.51 407.20 364.06 407.14
  C 362.46 406.93 360.36 407.67 359.45 405.91
  Q 359.24 405.50 358.87 405.23
  Q 357.90 404.49 356.77 404.52
  C 354.85 404.56 354.76 403.26 353.64 402.40
  Q 351.02 400.37 348.06 398.90
  C 346.65 398.20 345.55 396.75 343.77 396.34
  Q 343.37 396.25 343.04 396.00
  L 340.29 393.95
  A 0.27 0.26 17.4 0 1 340.17 393.73
  Q 340.17 393.56 340.17 393.40
  Q 340.18 393.18 340.10 393.38
  L 339.99 393.70
  Q 339.97 393.74 339.94 393.71
  Q 338.31 391.72 336.35 390.01
  Q 336.03 389.73 335.72 390.03
  Q 335.17 390.57 334.31 390.26
  Q 334.11 390.19 334.02 390.00
  Q 333.95 389.87 333.91 389.71
  Q 333.79 389.27 333.35 389.16
  Q 331.14 388.61 329.26 387.35
  Q 328.81 387.04 328.27 387.12
  C 325.26 387.54 323.01 385.75 320.22 386.48
  A 1.33 1.32 53.2 0 1 319.20 386.33
  Q 316.68 384.83 313.68 384.89
  Q 313.14 384.90 313.15 384.36
  Q 313.15 384.19 313.14 384.03
  Q 313.11 383.60 312.68 383.62
  C 307.88 383.88 304.64 381.51 300.78 381.18
  Q 299.92 381.11 298.90 379.70
  Q 298.59 379.27 298.18 379.61
  Q 297.40 380.25 296.50 379.76
  Q 296.12 379.55 295.69 379.50
  Q 294.65 379.37 294.85 380.13
  Q 294.97 380.58 294.52 380.45
  Q 294.06 380.32 293.56 380.52
  A 0.28 0.28 0.0 0 1 293.18 380.27
  L 293.16 379.75
  Q 293.13 379.04 292.76 379.64
  L 292.53 380.03"
/>
<path stroke="#b5a1a8" vector-effect="non-scaling-stroke" d="
  M 292.53 380.03
  L 287.94 354.28"
/>
<path stroke="#a68f98" vector-effect="non-scaling-stroke" d="
  M 289.35 346.34
  L 287.94 354.28"
/>
<path stroke="#e5a593" vector-effect="non-scaling-stroke" d="
  M 287.94 354.28
  L 287.79 355.23
  Q 287.72 355.70 287.25 355.63
  Q 286.58 355.54 286.29 356.02
  Q 286.05 356.44 285.62 356.66
  Q 278.34 360.34 276.77 362.26
  C 275.39 363.96 275.29 367.46 275.40 369.59
  Q 275.72 376.23 275.55 382.73
  A 0.09 0.09 0.0 0 1 275.38 382.75
  C 273.89 377.20 274.11 371.12 272.88 365.23
  A 0.71 0.71 0.0 0 0 272.01 364.69
  Q 268.74 365.51 265.46 366.86
  C 263.38 367.71 262.20 369.34 260.65 370.87
  A 0.51 0.50 -50.6 0 0 260.72 371.65
  Q 261.26 372.00 262.00 371.84
  Q 264.41 371.32 265.74 370.63
  Q 267.95 369.48 266.32 371.36
  C 265.07 372.81 262.12 372.96 261.23 374.52
  A 0.58 0.58 0.0 0 0 261.80 375.38
  Q 264.42 375.06 266.65 373.65
  Q 266.82 373.54 266.95 373.70
  L 267.16 373.96
  Q 267.45 374.31 267.13 374.64
  Q 264.85 376.90 261.85 378.02
  A 1.58 1.57 -25.9 0 0 261.05 380.30
  Q 262.42 382.59 261.62 385.15
  Q 261.56 385.36 261.34 385.37
  Q 261.21 385.38 261.06 385.39
  Q 260.67 385.42 260.60 385.81
  C 259.43 393.18 260.58 399.85 261.04 406.89
  Q 261.06 407.25 261.36 407.47
  Q 261.55 407.61 261.63 408.00
  C 262.66 412.80 262.84 415.71 263.26 419.44
  C 263.65 422.94 263.63 426.07 264.23 429.39
  C 265.23 434.89 265.65 440.09 266.61 446.26
  C 266.89 448.05 267.62 449.55 267.63 451.13
  C 267.63 453.04 267.59 454.47 267.93 456.60
  Q 268.18 458.18 268.10 460.25
  Q 267.91 465.23 270.67 469.93"
/>
<path stroke="#8d7584" vector-effect="non-scaling-stroke" d="
  M 260.14 469.13
  L 259.24 448.47"
/>
<path stroke="#9f8793" vector-effect="non-scaling-stroke" d="
  M 259.24 448.47
  Q 258.92 439.96 257.94 431.54
  C 257.41 427.12 257.40 422.76 257.10 418.31
  C 256.80 413.95 257.44 408.85 256.89 404.06
  C 256.58 401.39 256.14 396.68 256.83 394.26
  C 257.20 392.99 257.69 391.96 257.60 390.60
  C 257.39 387.08 257.60 383.56 256.82 380.18
  Q 255.93 376.29 254.90 372.44
  C 254.54 371.10 253.66 369.48 252.90 368.60
  Q 248.06 363.04 242.54 358.02"
/>
<path stroke="#a68f98" vector-effect="non-scaling-stroke" d="
  M 242.54 358.02
  Q 243.01 356.93 241.20 355.71
  Q 240.76 355.41 240.65 354.90
  Q 240.52 354.33 240.01 354.01
  A 1.38 1.36 -82.8 0 1 239.43 353.25
  Q 238.53 350.41 236.39 348.56
  C 233.89 346.41 233.34 344.98 232.09 342.29
  Q 231.38 340.75 227.82 338.13"
/>
<path stroke="#ad9aa3" vector-effect="non-scaling-stroke" d="
  M 292.53 380.03
  Q 293.63 388.30 295.03 396.53
  Q 296.26 403.75 298.91 412.74
  Q 302.14 423.70 305.06 434.77"
/>
<path stroke="#9c8894" vector-effect="non-scaling-stroke" d="
  M 305.06 434.77
  L 315.78 468.89"
/>
<path stroke="#566a94" vector-effect="non-scaling-stroke" d="
  M 387.50 452.52
  Q 385.27 451.97 383.01 451.66
  Q 380.61 451.33 378.64 450.49
  C 376.43 449.54 372.01 448.17 370.63 446.75
  Q 367.36 443.40 363.02 441.62
  Q 362.71 441.48 362.58 441.16
  Q 362.52 440.99 362.36 440.89
  Q 361.67 440.46 361.50 440.43
  C 359.40 440.17 357.57 439.38 355.45 439.43
  Q 349.85 439.55 344.55 437.78
  A 1.23 1.21 42.0 0 0 343.67 437.82
  Q 343.07 438.08 342.62 437.86
  C 340.75 436.97 339.18 436.06 337.01 436.18
  C 334.24 436.33 331.87 436.71 329.04 436.17
  Q 322.68 434.97 316.22 435.48
  Q 313.82 435.67 312.79 435.49
  Q 310.77 435.14 309.61 434.02
  Q 308.38 432.83 307.08 432.86
  Q 306.65 432.87 306.28 432.67
  L 305.93 432.49
  Q 305.43 432.22 305.35 432.79
  L 305.06 434.77"
/>
<path stroke="#6f84a8" vector-effect="non-scaling-stroke" d="
  M 242.54 358.02
  Q 248.27 363.31 250.58 369.14
  C 250.98 370.13 251.81 370.02 251.91 371.32
  Q 251.98 372.20 252.10 373.11
  Q 252.16 373.52 252.53 373.71
  Q 253.34 374.11 253.24 375.26
  Q 253.11 376.82 253.12 378.45
  A 0.68 0.68 0.0 0 1 252.45 379.13
  Q 251.96 379.13 251.70 378.66
  A 0.96 0.96 0.0 0 0 250.94 378.15
  Q 249.90 378.07 248.93 377.58
  A 1.72 1.66 82.8 0 1 248.38 377.14
  Q 247.67 376.31 246.77 376.84
  A 1.29 1.29 0.0 0 1 245.68 376.95
  Q 244.82 376.66 244.19 376.86
  Q 243.72 377.00 243.41 376.62
  Q 242.73 375.77 241.77 376.48
  A 0.76 0.75 45.3 0 1 240.87 376.47
  Q 240.07 375.85 239.00 375.63
  Q 238.50 375.52 237.99 375.56
  Q 234.94 375.79 232.66 374.06
  A 0.63 0.60 50.9 0 0 232.03 373.98
  Q 230.81 374.52 230.02 374.37
  Q 229.52 374.27 229.39 374.76
  Q 229.22 375.39 228.53 375.68
  Q 228.09 375.86 227.60 375.87
  Q 225.96 375.91 225.59 377.99
  Q 225.32 379.54 223.77 379.10
  A 0.55 0.54 -74.8 0 0 223.10 379.49
  Q 222.87 380.37 222.08 380.68
  Q 221.61 380.87 221.33 381.29
  Q 220.82 382.03 220.86 382.88
  A 0.72 0.72 0.0 0 1 220.11 383.63
  Q 219.92 383.62 219.73 383.63
  Q 219.31 383.65 219.38 384.07
  Q 219.48 384.65 219.17 385.08
  Q 218.86 385.52 218.33 385.41
  Q 217.32 385.19 216.47 385.60
  Q 216.01 385.83 215.49 385.87
  Q 214.48 385.95 213.75 385.27
  Q 213.43 384.97 213.17 385.31
  C 212.19 386.60 208.61 386.65 207.15 386.69
  A 0.93 0.91 13.0 0 0 206.35 387.18
  Q 205.90 388.07 206.23 389.03
  A 0.22 0.21 -37.5 0 0 206.61 389.08
  Q 207.26 388.15 208.26 388.54
  Q 208.83 388.77 208.64 389.36
  Q 208.51 389.76 208.39 390.16
  C 208.09 391.15 208.46 392.03 207.77 393.06
  Q 207.49 393.47 207.62 393.96
  Q 207.95 395.18 207.66 396.39
  Q 207.54 396.88 207.05 396.96
  Q 206.18 397.10 205.38 397.36
  A 1.30 0.05 -18.4 0 1 204.34 397.66
  C 200.73 397.91 201.13 400.13 198.79 401.69
  A 1.22 1.22 0.0 0 1 198.00 401.89
  Q 196.23 401.73 195.81 403.30
  Q 195.63 403.94 195.00 404.13
  L 192.17 404.98
  A 0.58 0.58 0.0 0 0 192.08 406.06
  L 193.55 406.79
  A 1.30 1.29 37.3 0 1 193.84 408.92
  L 193.22 409.48
  Q 192.85 409.80 192.39 409.99
  Q 191.56 410.32 190.95 409.93
  Q 190.55 409.67 190.08 409.78
  C 187.00 410.50 186.27 413.44 183.15 413.16
  C 181.52 413.01 181.19 411.71 181.40 410.30
  Q 181.52 409.45 180.72 409.14
  L 176.53 407.56
  A 1.17 1.13 -2.3 0 1 175.90 407.00
  L 175.04 405.28
  Q 174.73 404.67 174.21 405.11
  Q 173.64 405.60 173.26 406.17
  A 0.53 0.50 -83.3 0 1 173.02 406.37
  Q 170.19 407.53 167.22 407.42
  C 165.08 407.34 163.34 405.83 160.67 406.14
  Q 160.24 406.19 159.99 406.54
  L 158.41 408.74
  Q 158.32 408.86 158.17 408.68
  Q 158.16 408.67 158.16 408.67
  Q 158.12 408.63 158.17 408.62
  Q 158.67 408.51 158.83 409.01
  Q 159.19 410.18 158.17 410.10
  A 0.56 0.56 0.0 0 1 157.67 409.43
  Q 157.95 408.08 157.40 406.73
  Q 157.32 406.53 157.13 406.63
  Q 156.85 406.78 156.89 407.01
  Q 157.06 408.06 156.25 407.23
  Q 156.06 407.04 155.73 407.13
  Q 155.23 407.27 155.12 407.37
  L 154.62 407.87
  Q 154.20 408.30 154.52 408.81
  Q 154.84 409.33 154.89 409.89
  Q 154.97 410.62 154.23 410.62
  L 153.27 410.62
  Q 152.79 410.62 152.68 411.08
  Q 151.98 413.89 149.18 414.35
  Q 148.71 414.43 148.48 414.84
  C 147.57 416.53 145.25 416.56 143.81 417.25
  Q 143.40 417.44 143.00 417.23
  L 142.69 417.06
  Q 142.21 416.81 141.81 417.17
  Q 139.82 418.99 137.15 419.49
  Q 136.74 419.57 136.50 419.90
  Q 135.86 420.75 134.82 421.22
  Q 134.75 421.25 134.87 421.37
  L 135.06 421.57
  Q 135.19 421.69 135.10 421.84
  Q 134.88 422.22 134.51 422.37
  Q 134.41 422.41 134.49 422.49
  Q 134.59 422.59 134.69 422.69
  A 0.22 0.21 33.2 0 1 134.74 422.92
  Q 134.60 423.27 134.26 423.37
  Q 134.05 423.44 134.20 423.59
  Q 135.23 424.74 134.88 425.88"
/>
<path stroke="#566a94" vector-effect="non-scaling-stroke" d="
  M 259.24 448.47
  Q 259.03 447.39 258.37 447.07
  A 0.60 0.60 0.0 0 0 257.51 447.66
  L 257.98 453.12
  Q 257.99 453.26 257.87 453.32
  Q 257.70 453.41 257.51 453.50
  Q 257.28 453.61 257.33 453.36
  C 257.67 451.47 256.53 450.58 257.07 448.69
  Q 257.22 448.17 256.78 447.86
  L 255.04 446.62
  Q 254.63 446.33 254.56 445.83
  Q 254.46 445.11 254.09 444.50
  A 1.10 1.09 -12.9 0 0 253.29 444.00
  Q 252.15 443.88 251.15 443.33
  Q 250.73 443.10 250.60 442.75
  Q 250.36 442.12 251.04 442.12
  L 252.54 442.12
  A 0.68 0.62 55.9 0 1 252.83 442.19
  Q 253.80 442.69 254.92 442.66
  A 1.27 1.26 -12.3 0 0 256.05 440.90
  L 254.96 438.37
  Q 254.76 437.90 254.30 437.68
  Q 253.42 437.24 252.79 436.46
  Q 252.46 436.05 251.93 436.02
  C 248.43 435.79 246.36 437.36 248.29 440.94
  Q 248.74 441.77 248.87 443.25
  Q 249.21 446.98 253.27 446.86
  A 0.36 0.35 -89.2 0 1 253.63 447.24
  Q 253.63 447.38 253.64 447.53
  A 0.33 0.32 86.3 0 1 253.35 447.87
  Q 252.48 447.98 251.78 448.47
  Q 251.36 448.77 250.88 448.61
  Q 249.89 448.28 249.53 447.24
  Q 249.40 446.88 249.16 446.59
  Q 248.02 445.20 248.10 443.43
  A 1.89 1.83 33.6 0 0 247.89 442.46
  C 246.88 440.51 247.60 438.48 246.45 437.29
  Q 246.12 436.95 246.12 436.48
  L 246.12 435.09
  A 0.92 0.90 16.3 0 0 245.69 434.32
  L 242.82 432.52
  A 0.95 0.93 -41.1 0 0 241.92 432.47
  Q 239.24 433.72 236.81 435.42
  Q 236.26 435.81 234.98 437.35
  Q 234.04 438.49 232.64 438.89
  C 230.70 439.46 227.69 438.44 225.34 438.24
  Q 224.88 438.20 224.50 437.93
  Q 223.96 437.54 223.25 437.47
  Q 220.26 437.19 218.20 437.46
  Q 216.01 437.74 217.99 438.72
  Q 219.69 439.56 221.54 439.92
  Q 222.06 440.02 221.79 440.48
  L 221.45 441.07
  Q 221.25 441.43 220.84 441.36
  L 215.11 440.44
  Q 214.71 440.37 214.34 440.57
  Q 212.88 441.34 212.01 442.71
  Q 211.72 443.17 211.19 443.27
  Q 206.88 444.08 202.50 444.22
  Q 201.91 444.24 201.29 444.98
  A 1.21 1.20 16.4 0 1 200.53 445.39
  Q 198.89 445.61 197.62 446.65
  Q 197.19 447.00 196.64 447.07
  Q 194.95 447.26 193.28 447.53
  Q 192.20 447.70 192.04 448.06
  A 1.83 1.82 26.2 0 1 189.50 448.92
  Q 188.57 448.42 188.10 448.71
  Q 187.85 448.86 187.61 448.69
  Q 187.37 448.52 187.11 448.44
  Q 183.03 447.26 178.82 446.97
  C 177.00 446.84 175.38 445.99 173.53 445.68
  Q 172.96 445.59 172.57 446.01
  L 171.36 447.32
  A 1.22 1.21 25.4 0 1 170.30 447.69
  Q 167.54 447.25 166.13 448.44"
/>
<path stroke="#b5bfce" vector-effect="non-scaling-stroke" d="
  M 207.29 686.97
  Q 207.50 686.76 207.31 686.54
  Q 207.08 686.27 206.68 686.32
  A 0.44 0.44 0.0 0 0 206.29 686.79
  L 206.32 687.21
  A 0.32 0.31 64.8 0 0 206.86 687.41
  L 207.29 686.97"
/>
<path stroke="#e5a593" vector-effect="non-scaling-stroke" d="
  M 253.21 335.68
  C 251.38 331.21 251.90 326.89 247.81 323.29
  A 0.85 0.82 17.6 0 1 247.53 322.77
  L 246.76 316.97
  A 0.16 0.15 -1.9 0 0 246.60 316.83
  L 246.33 316.83
  Q 246.16 316.84 246.14 317.01
  Q 245.67 321.04 246.33 322.99
  Q 249.17 331.39 252.06 338.88
  Q 252.60 340.27 253.44 339.04
  Q 254.16 337.99 253.21 335.68"
/>
</g>
<path fill="#f4f3ef" d="
  M 0.00 0.00
  L 564.00 0.00
  L 564.00 799.00
  L 0.00 799.00
  L 0.00 0.00
  Z
  M 247.02 302.76
  L 243.86 303.66
  Q 243.36 303.80 243.05 303.39
  Q 236.53 294.90 230.30 288.44
  C 227.74 285.79 224.26 283.75 221.76 281.31
  C 218.41 278.03 205.52 263.57 202.23 274.97
  Q 201.82 276.17 202.33 277.71
  Q 202.43 278.56 201.76 278.90
  C 197.08 282.01 199.63 288.35 202.41 291.60
  C 204.47 294.01 207.78 296.68 210.05 299.59
  C 213.97 304.62 217.31 310.22 221.69 314.51
  Q 225.82 318.55 230.18 322.33
  Q 231.12 323.15 230.41 324.51
  Q 229.43 325.63 228.25 325.18
  C 225.19 324.05 222.29 321.25 219.37 319.62
  C 216.38 317.95 214.16 315.94 211.80 313.72
  Q 208.55 310.66 205.02 307.92
  C 202.40 305.88 195.67 306.84 198.39 311.71
  Q 201.92 318.03 204.76 320.25
  C 210.85 325.02 215.40 330.13 223.15 333.46
  Q 226.23 335.64 227.82 338.13
  C 208.89 340.18 190.67 346.18 171.97 352.70
  C 162.79 355.91 154.66 361.05 146.24 365.81
  C 138.79 370.02 135.72 374.37 131.35 382.07
  Q 128.42 387.23 126.95 392.17
  C 123.72 403.02 126.84 417.64 134.88 425.88
  Q 146.98 436.18 160.44 445.06
  Q 163.44 447.04 166.13 448.44
  Q 176.35 454.16 187.08 457.47
  C 193.20 459.36 199.65 459.82 206.12 461.44
  C 223.74 465.84 242.15 466.85 260.14 469.13
  L 270.67 469.93
  C 281.94 470.97 293.15 470.27 304.49 470.11
  Q 310.23 470.04 315.78 468.89
  Q 324.37 467.90 332.93 466.29
  C 337.02 465.52 341.68 465.27 345.26 464.56
  C 352.32 463.16 361.95 460.96 370.34 458.11
  Q 378.73 455.25 387.50 452.52
  Q 399.49 449.21 404.44 446.20
  C 415.04 439.75 424.97 434.64 432.54 424.33
  C 436.05 419.21 441.33 410.71 441.66 404.52
  Q 442.51 388.62 432.44 376.57
  C 423.44 365.80 413.66 360.57 400.45 353.56
  C 395.68 351.03 388.63 349.93 383.05 347.88
  C 376.10 345.33 369.23 342.34 362.02 340.63
  C 338.30 335.00 314.55 334.15 290.00 332.64
  Q 289.64 326.53 289.22 320.24
  C 288.72 312.93 284.87 307.35 285.13 299.85
  Q 285.22 297.18 284.75 294.70
  C 283.90 290.25 284.96 287.08 284.21 283.20
  Q 284.95 280.91 282.74 280.14
  C 279.59 279.04 276.28 283.78 275.15 286.31
  C 270.98 295.59 272.74 303.14 273.13 312.66
  Q 273.21 314.49 271.90 313.20
  L 268.13 309.49
  Q 259.32 299.39 252.17 287.32
  Q 250.42 284.38 246.21 280.45
  C 240.70 275.30 235.88 269.90 229.95 265.34
  Q 223.19 264.84 224.79 270.84
  Q 225.39 273.14 227.91 275.90
  Q 236.32 285.13 242.53 295.96
  C 243.74 298.07 245.45 299.66 246.97 301.54
  Q 247.21 301.84 247.23 302.12
  Q 247.27 302.58 247.02 302.76
  Z
  M 207.29 686.97
  Q 207.50 686.76 207.31 686.54
  Q 207.08 686.27 206.68 686.32
  A 0.44 0.44 0.0 0 0 206.29 686.79
  L 206.32 687.21
  A 0.32 0.31 64.8 0 0 206.86 687.41
  L 207.29 686.97
  Z"
/>
<path fill="#d69283" d="
  M 229.95 265.34
  Q 230.95 267.02 231.02 268.49
  Q 231.34 274.36 236.68 275.74
  A 0.70 0.70 0.0 0 1 236.86 277.02
  C 232.34 279.71 236.25 284.22 238.75 286.35
  C 239.96 287.38 241.71 287.43 243.19 288.21
  Q 243.65 288.45 243.55 288.96
  C 242.85 292.38 243.82 296.06 247.53 297.12
  Q 249.87 297.79 251.74 297.37
  A 1.01 1.01 0.0 0 1 252.66 299.08
  Q 251.04 300.62 248.81 302.78
  Q 247.11 304.43 247.02 302.76
  Q 247.27 302.58 247.23 302.12
  Q 247.21 301.84 246.97 301.54
  C 245.45 299.66 243.74 298.07 242.53 295.96
  Q 236.32 285.13 227.91 275.90
  Q 225.39 273.14 224.79 270.84
  Q 223.19 264.84 229.95 265.34
  Z"
/>
<path fill="#f3b7a2" d="
  M 229.95 265.34
  C 235.88 269.90 240.70 275.30 246.21 280.45
  Q 250.42 284.38 252.17 287.32
  Q 259.32 299.39 268.13 309.49
  Q 268.91 313.31 271.20 316.74
  Q 271.99 317.91 271.09 321.46
  Q 270.88 322.30 271.60 321.81
  Q 272.82 320.99 273.24 319.60
  A 1.28 1.27 18.4 0 1 274.89 318.78
  L 276.65 319.42
  A 0.64 0.63 -67.1 0 0 277.43 319.10
  Q 278.59 316.79 280.45 314.97
  A 1.33 1.31 -21.8 0 0 280.85 314.05
  C 280.93 309.94 281.32 306.25 280.86 302.02
  Q 280.42 297.90 280.42 293.77
  C 280.41 291.33 281.48 289.27 282.29 287.02
  Q 282.66 286.02 283.16 286.20
  A 0.37 0.36 -82.6 0 0 283.65 285.82
  Q 283.44 283.77 284.21 283.20
  C 284.96 287.08 283.90 290.25 284.75 294.70
  Q 285.22 297.18 285.13 299.85
  C 284.87 307.35 288.72 312.93 289.22 320.24
  Q 289.64 326.53 290.00 332.64
  L 289.35 346.34
  Q 286.59 347.87 283.26 347.28
  C 277.46 346.24 271.27 343.99 270.86 337.12
  C 270.71 334.57 270.05 333.05 269.31 330.81
  A 0.48 0.48 0.0 0 0 268.41 330.79
  Q 268.06 331.68 266.88 331.13
  Q 265.55 330.51 265.73 328.64
  Q 265.78 328.12 265.63 327.89
  Q 265.35 327.47 264.74 327.62
  Q 264.39 327.70 264.54 328.03
  Q 265.47 330.12 265.03 332.54
  A 2.38 2.11 31.4 0 1 261.05 333.25
  Q 260.53 332.67 261.24 330.57
  Q 261.41 330.06 261.12 330.51
  L 260.85 330.94
  Q 260.62 331.28 260.27 331.08
  Q 259.36 330.57 259.24 329.49
  Q 258.67 324.34 260.10 318.91
  Q 260.15 318.72 259.97 318.67
  L 259.68 318.60
  Q 259.24 318.48 259.10 318.92
  C 255.47 330.65 260.04 344.40 267.28 353.47
  C 269.70 356.49 270.61 358.53 269.36 362.10
  A 1.84 1.82 87.7 0 1 268.40 363.15
  C 262.15 366.01 254.62 361.94 251.20 356.79
  Q 248.64 352.95 244.85 351.91
  Q 244.37 351.78 244.03 351.42
  Q 242.81 350.15 241.86 348.67
  C 240.34 346.27 238.06 344.27 237.45 340.93
  Q 237.36 340.44 237.74 340.12
  Q 239.95 338.22 239.37 335.46
  C 238.31 330.42 231.69 335.63 230.38 329.60
  A 0.45 0.44 64.9 0 0 229.67 329.34
  Q 229.11 329.78 229.10 330.46
  Q 229.09 330.98 228.78 331.39
  C 226.31 334.71 223.37 331.69 221.24 330.03
  Q 221.07 329.89 220.93 330.07
  L 220.93 330.08
  Q 220.83 330.21 221.07 330.40
  L 224.10 332.76
  Q 224.54 333.10 224.03 333.34
  Q 223.72 333.49 223.15 333.46
  C 215.40 330.13 210.85 325.02 204.76 320.25
  Q 201.92 318.03 198.39 311.71
  C 195.67 306.84 202.40 305.88 205.02 307.92
  Q 208.55 310.66 211.80 313.72
  C 214.16 315.94 216.38 317.95 219.37 319.62
  C 222.29 321.25 225.19 324.05 228.25 325.18
  Q 229.43 325.63 230.41 324.51
  Q 230.66 326.38 232.79 323.51
  Q 233.09 323.10 233.01 322.60
  L 232.57 319.77
  Q 232.50 319.29 232.82 318.93
  C 234.21 317.35 233.82 315.89 232.28 314.57
  Q 228.11 311.00 223.98 307.30
  Q 223.58 306.94 223.07 307.11
  C 221.38 307.67 220.64 307.36 219.53 305.96
  C 217.07 302.84 214.41 300.39 212.31 296.99
  Q 212.04 296.55 212.34 296.13
  Q 212.80 295.47 212.97 294.68
  Q 213.34 292.95 211.70 293.63
  C 207.74 295.28 207.11 290.35 207.06 287.62
  A 1.68 1.64 27.8 0 0 206.77 286.72
  C 205.01 284.20 204.67 280.04 201.76 278.90
  Q 202.43 278.56 202.33 277.71
  L 202.79 278.36
  Q 203.06 278.75 203.48 278.98
  C 209.44 282.28 212.36 286.84 217.15 291.27
  C 220.68 294.53 222.70 298.72 225.29 301.92
  C 228.35 305.69 231.81 307.68 235.43 310.24
  Q 235.88 310.55 236.12 311.04
  Q 236.28 311.35 236.55 311.52
  Q 236.97 311.79 237.36 311.47
  Q 237.98 310.97 237.47 310.54
  Q 235.77 309.11 234.91 308.34
  Q 234.55 308.02 234.43 307.56
  Q 234.18 306.66 233.41 306.06
  Q 231.55 304.61 230.23 302.68
  Q 229.32 301.35 227.36 299.87
  C 224.64 297.80 222.13 294.00 220.42 292.03
  Q 218.44 289.76 216.55 287.41
  Q 216.27 287.06 216.18 286.63
  L 215.61 283.85
  Q 215.51 283.35 215.01 283.25
  Q 214.17 283.07 213.53 282.47
  Q 210.46 279.56 207.31 276.75
  Q 206.93 276.41 206.44 276.26
  L 202.23 274.97
  C 205.52 263.57 218.41 278.03 221.76 281.31
  C 224.26 283.75 227.74 285.79 230.30 288.44
  Q 236.53 294.90 243.05 303.39
  Q 243.36 303.80 243.86 303.66
  L 247.02 302.76
  Q 247.11 304.43 248.81 302.78
  Q 251.04 300.62 252.66 299.08
  A 1.01 1.01 0.0 0 0 251.74 297.37
  Q 249.87 297.79 247.53 297.12
  C 243.82 296.06 242.85 292.38 243.55 288.96
  Q 243.65 288.45 243.19 288.21
  C 241.71 287.43 239.96 287.38 238.75 286.35
  C 236.25 284.22 232.34 279.71 236.86 277.02
  A 0.70 0.70 0.0 0 0 236.68 275.74
  Q 231.34 274.36 231.02 268.49
  Q 230.95 267.02 229.95 265.34
  Z
  M 253.21 335.68
  C 251.38 331.21 251.90 326.89 247.81 323.29
  A 0.85 0.82 17.6 0 1 247.53 322.77
  L 246.76 316.97
  A 0.16 0.15 -1.9 0 0 246.60 316.83
  L 246.33 316.83
  Q 246.16 316.84 246.14 317.01
  Q 245.67 321.04 246.33 322.99
  Q 249.17 331.39 252.06 338.88
  Q 252.60 340.27 253.44 339.04
  Q 254.16 337.99 253.21 335.68
  Z"
/>
<path fill="#d69283" d="
  M 202.23 274.97
  L 206.44 276.26
  Q 206.93 276.41 207.31 276.75
  Q 210.46 279.56 213.53 282.47
  Q 214.17 283.07 215.01 283.25
  Q 215.51 283.35 215.61 283.85
  L 216.18 286.63
  Q 216.27 287.06 216.55 287.41
  Q 218.44 289.76 220.42 292.03
  C 222.13 294.00 224.64 297.80 227.36 299.87
  Q 229.32 301.35 230.23 302.68
  Q 231.55 304.61 233.41 306.06
  Q 234.18 306.66 234.43 307.56
  Q 234.55 308.02 234.91 308.34
  Q 235.77 309.11 237.47 310.54
  Q 237.98 310.97 237.36 311.47
  Q 236.97 311.79 236.55 311.52
  Q 236.28 311.35 236.12 311.04
  Q 235.88 310.55 235.43 310.24
  C 231.81 307.68 228.35 305.69 225.29 301.92
  C 222.70 298.72 220.68 294.53 217.15 291.27
  C 212.36 286.84 209.44 282.28 203.48 278.98
  Q 203.06 278.75 202.79 278.36
  L 202.33 277.71
  Q 201.82 276.17 202.23 274.97
  Z"
/>
<path fill="#d69283" d="
  M 201.76 278.90
  C 204.67 280.04 205.01 284.20 206.77 286.72
  A 1.68 1.64 27.8 0 1 207.06 287.62
  C 207.11 290.35 207.74 295.28 211.70 293.63
  Q 213.34 292.95 212.97 294.68
  Q 212.80 295.47 212.34 296.13
  Q 212.04 296.55 212.31 296.99
  C 214.41 300.39 217.07 302.84 219.53 305.96
  C 220.64 307.36 221.38 307.67 223.07 307.11
  Q 223.58 306.94 223.98 307.30
  Q 228.11 311.00 232.28 314.57
  C 233.82 315.89 234.21 317.35 232.82 318.93
  Q 232.50 319.29 232.57 319.77
  L 233.01 322.60
  Q 233.09 323.10 232.79 323.51
  Q 230.66 326.38 230.41 324.51
  Q 231.12 323.15 230.18 322.33
  Q 225.82 318.55 221.69 314.51
  C 217.31 310.22 213.97 304.62 210.05 299.59
  C 207.78 296.68 204.47 294.01 202.41 291.60
  C 199.63 288.35 197.08 282.01 201.76 278.90
  Z"
/>
<path fill="#d69283" d="
  M 284.21 283.20
  Q 283.44 283.77 283.65 285.82
  A 0.37 0.36 -82.6 0 1 283.16 286.20
  Q 282.66 286.02 282.29 287.02
  C 281.48 289.27 280.41 291.33 280.42 293.77
  Q 280.42 297.90 280.86 302.02
  C 281.32 306.25 280.93 309.94 280.85 314.05
  A 1.33 1.31 -21.8 0 1 280.45 314.97
  Q 278.59 316.79 277.43 319.10
  A 0.64 0.63 -67.1 0 1 276.65 319.42
  L 274.89 318.78
  A 1.28 1.27 18.4 0 0 273.24 319.60
  Q 272.82 320.99 271.60 321.81
  Q 270.88 322.30 271.09 321.46
  Q 271.99 317.91 271.20 316.74
  Q 268.91 313.31 268.13 309.49
  L 271.90 313.20
  Q 273.21 314.49 273.13 312.66
  C 272.74 303.14 270.98 295.59 275.15 286.31
  C 276.28 283.78 279.59 279.04 282.74 280.14
  Q 284.95 280.91 284.21 283.20
  Z"
/>
<path fill="#d69283" d="
  M 247.81 323.29
  C 251.90 326.89 251.38 331.21 253.21 335.68
  Q 254.16 337.99 253.44 339.04
  Q 252.60 340.27 252.06 338.88
  Q 249.17 331.39 246.33 322.99
  Q 245.67 321.04 246.14 317.01
  Q 246.16 316.84 246.33 316.83
  L 246.60 316.83
  A 0.16 0.15 -1.9 0 1 246.76 316.97
  L 247.53 322.77
  A 0.85 0.82 17.6 0 0 247.81 323.29
  Z"
/>
<path fill="#d69283" d="
  M 289.35 346.34
  L 287.94 354.28
  L 287.79 355.23
  Q 287.72 355.70 287.25 355.63
  Q 286.58 355.54 286.29 356.02
  Q 286.05 356.44 285.62 356.66
  Q 278.34 360.34 276.77 362.26
  C 275.39 363.96 275.29 367.46 275.40 369.59
  Q 275.72 376.23 275.55 382.73
  A 0.09 0.09 0.0 0 1 275.38 382.75
  C 273.89 377.20 274.11 371.12 272.88 365.23
  A 0.71 0.71 0.0 0 0 272.01 364.69
  Q 268.74 365.51 265.46 366.86
  C 263.38 367.71 262.20 369.34 260.65 370.87
  A 0.51 0.50 -50.6 0 0 260.72 371.65
  Q 261.26 372.00 262.00 371.84
  Q 264.41 371.32 265.74 370.63
  Q 267.95 369.48 266.32 371.36
  C 265.07 372.81 262.12 372.96 261.23 374.52
  A 0.58 0.58 0.0 0 0 261.80 375.38
  Q 264.42 375.06 266.65 373.65
  Q 266.82 373.54 266.95 373.70
  L 267.16 373.96
  Q 267.45 374.31 267.13 374.64
  Q 264.85 376.90 261.85 378.02
  A 1.58 1.57 -25.9 0 0 261.05 380.30
  Q 262.42 382.59 261.62 385.15
  Q 261.56 385.36 261.34 385.37
  Q 261.21 385.38 261.06 385.39
  Q 260.67 385.42 260.60 385.81
  C 259.43 393.18 260.58 399.85 261.04 406.89
  Q 261.06 407.25 261.36 407.47
  Q 261.55 407.61 261.63 408.00
  C 262.66 412.80 262.84 415.71 263.26 419.44
  C 263.65 422.94 263.63 426.07 264.23 429.39
  C 265.23 434.89 265.65 440.09 266.61 446.26
  C 266.89 448.05 267.62 449.55 267.63 451.13
  C 267.63 453.04 267.59 454.47 267.93 456.60
  Q 268.18 458.18 268.10 460.25
  Q 267.91 465.23 270.67 469.93
  L 260.14 469.13
  L 259.24 448.47
  Q 258.92 439.96 257.94 431.54
  C 257.41 427.12 257.40 422.76 257.10 418.31
  C 256.80 413.95 257.44 408.85 256.89 404.06
  C 256.58 401.39 256.14 396.68 256.83 394.26
  C 257.20 392.99 257.69 391.96 257.60 390.60
  C 257.39 387.08 257.60 383.56 256.82 380.18
  Q 255.93 376.29 254.90 372.44
  C 254.54 371.10 253.66 369.48 252.90 368.60
  Q 248.06 363.04 242.54 358.02
  Q 243.01 356.93 241.20 355.71
  Q 240.76 355.41 240.65 354.90
  Q 240.52 354.33 240.01 354.01
  A 1.38 1.36 -82.8 0 1 239.43 353.25
  Q 238.53 350.41 236.39 348.56
  C 233.89 346.41 233.34 344.98 232.09 342.29
  Q 231.38 340.75 227.82 338.13
  Q 226.23 335.64 223.15 333.46
  Q 223.72 333.49 224.03 333.34
  Q 224.54 333.10 224.10 332.76
  L 221.07 330.40
  Q 220.83 330.21 220.93 330.08
  L 220.93 330.07
  Q 221.07 329.89 221.24 330.03
  C 223.37 331.69 226.31 334.71 228.78 331.39
  Q 229.09 330.98 229.10 330.46
  Q 229.11 329.78 229.67 329.34
  A 0.45 0.44 64.9 0 1 230.38 329.60
  C 231.69 335.63 238.31 330.42 239.37 335.46
  Q 239.95 338.22 237.74 340.12
  Q 237.36 340.44 237.45 340.93
  C 238.06 344.27 240.34 346.27 241.86 348.67
  Q 242.81 350.15 244.03 351.42
  Q 244.37 351.78 244.85 351.91
  Q 248.64 352.95 251.20 356.79
  C 254.62 361.94 262.15 366.01 268.40 363.15
  A 1.84 1.82 87.7 0 0 269.36 362.10
  C 270.61 358.53 269.70 356.49 267.28 353.47
  C 260.04 344.40 255.47 330.65 259.10 318.92
  Q 259.24 318.48 259.68 318.60
  L 259.97 318.67
  Q 260.15 318.72 260.10 318.91
  Q 258.67 324.34 259.24 329.49
  Q 259.36 330.57 260.27 331.08
  Q 260.62 331.28 260.85 330.94
  L 261.12 330.51
  Q 261.41 330.06 261.24 330.57
  Q 260.53 332.67 261.05 333.25
  A 2.38 2.11 31.4 0 0 265.03 332.54
  Q 265.47 330.12 264.54 328.03
  Q 264.39 327.70 264.74 327.62
  Q 265.35 327.47 265.63 327.89
  Q 265.78 328.12 265.73 328.64
  Q 265.55 330.51 266.88 331.13
  Q 268.06 331.68 268.41 330.79
  A 0.48 0.48 0.0 0 1 269.31 330.81
  C 270.05 333.05 270.71 334.57 270.86 337.12
  C 271.27 343.99 277.46 346.24 283.26 347.28
  Q 286.59 347.87 289.35 346.34
  Z"
/>
<path fill="#768bad" d="
  M 290.00 332.64
  C 314.55 334.15 338.30 335.00 362.02 340.63
  C 369.23 342.34 376.10 345.33 383.05 347.88
  C 388.63 349.93 395.68 351.03 400.45 353.56
  C 413.66 360.57 423.44 365.80 432.44 376.57
  Q 442.51 388.62 441.66 404.52
  C 441.33 410.71 436.05 419.21 432.54 424.33
  L 432.50 422.28
  Q 432.49 421.76 431.99 421.58
  L 429.54 420.71
  Q 429.39 420.66 429.34 420.82
  Q 429.31 420.97 429.17 421.05
  Q 429.04 421.14 428.80 421.07
  C 426.33 420.39 424.28 419.43 421.65 419.27
  Q 417.57 419.02 413.61 418.02
  Q 413.12 417.90 412.62 417.99
  Q 412.03 418.10 411.54 417.76
  Q 411.08 417.45 410.53 417.41
  Q 408.98 417.32 407.53 417.86
  Q 407.03 418.05 406.50 417.98
  Q 402.06 417.45 398.05 419.49
  Q 397.56 419.74 397.02 419.69
  Q 393.28 419.31 389.56 419.91
  A 0.57 0.49 -38.1 0 1 389.33 419.90
  L 379.96 417.91
  Q 379.49 417.81 379.06 417.58
  Q 377.69 416.86 376.29 416.19
  Q 376.03 416.06 375.95 415.80
  Q 375.84 415.44 375.50 415.29
  C 373.12 414.25 371.06 412.09 369.59 410.96
  Q 368.19 409.88 366.85 408.71
  Q 366.49 408.40 366.04 408.29
  Q 365.30 408.10 364.82 407.55
  Q 364.51 407.20 364.06 407.14
  C 362.46 406.93 360.36 407.67 359.45 405.91
  Q 359.24 405.50 358.87 405.23
  Q 357.90 404.49 356.77 404.52
  C 354.85 404.56 354.76 403.26 353.64 402.40
  Q 351.02 400.37 348.06 398.90
  C 346.65 398.20 345.55 396.75 343.77 396.34
  Q 343.37 396.25 343.04 396.00
  L 340.29 393.95
  A 0.27 0.26 17.4 0 1 340.17 393.73
  Q 340.17 393.56 340.17 393.40
  Q 340.18 393.18 340.10 393.38
  L 339.99 393.70
  Q 339.97 393.74 339.94 393.71
  Q 338.31 391.72 336.35 390.01
  Q 336.03 389.73 335.72 390.03
  Q 335.17 390.57 334.31 390.26
  Q 334.11 390.19 334.02 390.00
  Q 333.95 389.87 333.91 389.71
  Q 333.79 389.27 333.35 389.16
  Q 331.14 388.61 329.26 387.35
  Q 328.81 387.04 328.27 387.12
  C 325.26 387.54 323.01 385.75 320.22 386.48
  A 1.33 1.32 53.2 0 1 319.20 386.33
  Q 316.68 384.83 313.68 384.89
  Q 313.14 384.90 313.15 384.36
  Q 313.15 384.19 313.14 384.03
  Q 313.11 383.60 312.68 383.62
  C 307.88 383.88 304.64 381.51 300.78 381.18
  Q 299.92 381.11 298.90 379.70
  Q 298.59 379.27 298.18 379.61
  Q 297.40 380.25 296.50 379.76
  Q 296.12 379.55 295.69 379.50
  Q 294.65 379.37 294.85 380.13
  Q 294.97 380.58 294.52 380.45
  Q 294.06 380.32 293.56 380.52
  A 0.28 0.28 0.0 0 1 293.18 380.27
  L 293.16 379.75
  Q 293.13 379.04 292.76 379.64
  L 292.53 380.03
  L 287.94 354.28
  L 289.35 346.34
  L 290.00 332.64
  Z"
/>
<path fill="#768bad" d="
  M 227.82 338.13
  Q 231.38 340.75 232.09 342.29
  C 233.34 344.98 233.89 346.41 236.39 348.56
  Q 238.53 350.41 239.43 353.25
  A 1.38 1.36 -82.8 0 0 240.01 354.01
  Q 240.52 354.33 240.65 354.90
  Q 240.76 355.41 241.20 355.71
  Q 243.01 356.93 242.54 358.02
  Q 248.27 363.31 250.58 369.14
  C 250.98 370.13 251.81 370.02 251.91 371.32
  Q 251.98 372.20 252.10 373.11
  Q 252.16 373.52 252.53 373.71
  Q 253.34 374.11 253.24 375.26
  Q 253.11 376.82 253.12 378.45
  A 0.68 0.68 0.0 0 1 252.45 379.13
  Q 251.96 379.13 251.70 378.66
  A 0.96 0.96 0.0 0 0 250.94 378.15
  Q 249.90 378.07 248.93 377.58
  A 1.72 1.66 82.8 0 1 248.38 377.14
  Q 247.67 376.31 246.77 376.84
  A 1.29 1.29 0.0 0 1 245.68 376.95
  Q 244.82 376.66 244.19 376.86
  Q 243.72 377.00 243.41 376.62
  Q 242.73 375.77 241.77 376.48
  A 0.76 0.75 45.3 0 1 240.87 376.47
  Q 240.07 375.85 239.00 375.63
  Q 238.50 375.52 237.99 375.56
  Q 234.94 375.79 232.66 374.06
  A 0.63 0.60 50.9 0 0 232.03 373.98
  Q 230.81 374.52 230.02 374.37
  Q 229.52 374.27 229.39 374.76
  Q 229.22 375.39 228.53 375.68
  Q 228.09 375.86 227.60 375.87
  Q 225.96 375.91 225.59 377.99
  Q 225.32 379.54 223.77 379.10
  A 0.55 0.54 -74.8 0 0 223.10 379.49
  Q 222.87 380.37 222.08 380.68
  Q 221.61 380.87 221.33 381.29
  Q 220.82 382.03 220.86 382.88
  A 0.72 0.72 0.0 0 1 220.11 383.63
  Q 219.92 383.62 219.73 383.63
  Q 219.31 383.65 219.38 384.07
  Q 219.48 384.65 219.17 385.08
  Q 218.86 385.52 218.33 385.41
  Q 217.32 385.19 216.47 385.60
  Q 216.01 385.83 215.49 385.87
  Q 214.48 385.95 213.75 385.27
  Q 213.43 384.97 213.17 385.31
  C 212.19 386.60 208.61 386.65 207.15 386.69
  A 0.93 0.91 13.0 0 0 206.35 387.18
  Q 205.90 388.07 206.23 389.03
  A 0.22 0.21 -37.5 0 0 206.61 389.08
  Q 207.26 388.15 208.26 388.54
  Q 208.83 388.77 208.64 389.36
  Q 208.51 389.76 208.39 390.16
  C 208.09 391.15 208.46 392.03 207.77 393.06
  Q 207.49 393.47 207.62 393.96
  Q 207.95 395.18 207.66 396.39
  Q 207.54 396.88 207.05 396.96
  Q 206.18 397.10 205.38 397.36
  A 1.30 0.05 -18.4 0 1 204.34 397.66
  C 200.73 397.91 201.13 400.13 198.79 401.69
  A 1.22 1.22 0.0 0 1 198.00 401.89
  Q 196.23 401.73 195.81 403.30
  Q 195.63 403.94 195.00 404.13
  L 192.17 404.98
  A 0.58 0.58 0.0 0 0 192.08 406.06
  L 193.55 406.79
  A 1.30 1.29 37.3 0 1 193.84 408.92
  L 193.22 409.48
  Q 192.85 409.80 192.39 409.99
  Q 191.56 410.32 190.95 409.93
  Q 190.55 409.67 190.08 409.78
  C 187.00 410.50 186.27 413.44 183.15 413.16
  C 181.52 413.01 181.19 411.71 181.40 410.30
  Q 181.52 409.45 180.72 409.14
  L 176.53 407.56
  A 1.17 1.13 -2.3 0 1 175.90 407.00
  L 175.04 405.28
  Q 174.73 404.67 174.21 405.11
  Q 173.64 405.60 173.26 406.17
  A 0.53 0.50 -83.3 0 1 173.02 406.37
  Q 170.19 407.53 167.22 407.42
  C 165.08 407.34 163.34 405.83 160.67 406.14
  Q 160.24 406.19 159.99 406.54
  L 158.41 408.74
  Q 158.32 408.86 158.17 408.68
  Q 158.16 408.67 158.16 408.67
  Q 158.12 408.63 158.17 408.62
  Q 158.67 408.51 158.83 409.01
  Q 159.19 410.18 158.17 410.10
  A 0.56 0.56 0.0 0 1 157.67 409.43
  Q 157.95 408.08 157.40 406.73
  Q 157.32 406.53 157.13 406.63
  Q 156.85 406.78 156.89 407.01
  Q 157.06 408.06 156.25 407.23
  Q 156.06 407.04 155.73 407.13
  Q 155.23 407.27 155.12 407.37
  L 154.62 407.87
  Q 154.20 408.30 154.52 408.81
  Q 154.84 409.33 154.89 409.89
  Q 154.97 410.62 154.23 410.62
  L 153.27 410.62
  Q 152.79 410.62 152.68 411.08
  Q 151.98 413.89 149.18 414.35
  Q 148.71 414.43 148.48 414.84
  C 147.57 416.53 145.25 416.56 143.81 417.25
  Q 143.40 417.44 143.00 417.23
  L 142.69 417.06
  Q 142.21 416.81 141.81 417.17
  Q 139.82 418.99 137.15 419.49
  Q 136.74 419.57 136.50 419.90
  Q 135.86 420.75 134.82 421.22
  Q 134.75 421.25 134.87 421.37
  L 135.06 421.57
  Q 135.19 421.69 135.10 421.84
  Q 134.88 422.22 134.51 422.37
  Q 134.41 422.41 134.49 422.49
  Q 134.59 422.59 134.69 422.69
  A 0.22 0.21 33.2 0 1 134.74 422.92
  Q 134.60 423.27 134.26 423.37
  Q 134.05 423.44 134.20 423.59
  Q 135.23 424.74 134.88 425.88
  C 126.84 417.64 123.72 403.02 126.95 392.17
  Q 128.42 387.23 131.35 382.07
  C 135.72 374.37 138.79 370.02 146.24 365.81
  C 154.66 361.05 162.79 355.91 171.97 352.70
  C 190.67 346.18 208.89 340.18 227.82 338.13
  Z"
/>
<path fill="#f3b7a2" d="
  M 287.94 354.28
  L 292.53 380.03
  Q 293.63 388.30 295.03 396.53
  Q 296.26 403.75 298.91 412.74
  Q 302.14 423.70 305.06 434.77
  L 315.78 468.89
  Q 310.23 470.04 304.49 470.11
  C 293.15 470.27 281.94 470.97 270.67 469.93
  Q 267.91 465.23 268.10 460.25
  Q 268.18 458.18 267.93 456.60
  C 267.59 454.47 267.63 453.04 267.63 451.13
  C 267.62 449.55 266.89 448.05 266.61 446.26
  C 265.65 440.09 265.23 434.89 264.23 429.39
  C 263.63 426.07 263.65 422.94 263.26 419.44
  C 262.84 415.71 262.66 412.80 261.63 408.00
  Q 261.55 407.61 261.36 407.47
  Q 261.06 407.25 261.04 406.89
  C 260.58 399.85 259.43 393.18 260.60 385.81
  Q 260.67 385.42 261.06 385.39
  Q 261.21 385.38 261.34 385.37
  Q 261.56 385.36 261.62 385.15
  Q 262.42 382.59 261.05 380.30
  A 1.58 1.57 -25.9 0 1 261.85 378.02
  Q 264.85 376.90 267.13 374.64
  Q 267.45 374.31 267.16 373.96
  L 266.95 373.70
  Q 266.82 373.54 266.65 373.65
  Q 264.42 375.06 261.80 375.38
  A 0.58 0.58 0.0 0 1 261.23 374.52
  C 262.12 372.96 265.07 372.81 266.32 371.36
  Q 267.95 369.48 265.74 370.63
  Q 264.41 371.32 262.00 371.84
  Q 261.26 372.00 260.72 371.65
  A 0.51 0.50 -50.6 0 1 260.65 370.87
  C 262.20 369.34 263.38 367.71 265.46 366.86
  Q 268.74 365.51 272.01 364.69
  A 0.71 0.71 0.0 0 1 272.88 365.23
  C 274.11 371.12 273.89 377.20 275.38 382.75
  A 0.09 0.09 0.0 0 0 275.55 382.73
  Q 275.72 376.23 275.40 369.59
  C 275.29 367.46 275.39 363.96 276.77 362.26
  Q 278.34 360.34 285.62 356.66
  Q 286.05 356.44 286.29 356.02
  Q 286.58 355.54 287.25 355.63
  Q 287.72 355.70 287.79 355.23
  L 287.94 354.28
  Z"
/>
<path fill="#677ca3" d="
  M 242.54 358.02
  Q 248.06 363.04 252.90 368.60
  C 253.66 369.48 254.54 371.10 254.90 372.44
  Q 255.93 376.29 256.82 380.18
  C 257.60 383.56 257.39 387.08 257.60 390.60
  C 257.69 391.96 257.20 392.99 256.83 394.26
  C 256.14 396.68 256.58 401.39 256.89 404.06
  C 257.44 408.85 256.80 413.95 257.10 418.31
  C 257.40 422.76 257.41 427.12 257.94 431.54
  Q 258.92 439.96 259.24 448.47
  Q 259.03 447.39 258.37 447.07
  A 0.60 0.60 0.0 0 0 257.51 447.66
  L 257.98 453.12
  Q 257.99 453.26 257.87 453.32
  Q 257.70 453.41 257.51 453.50
  Q 257.28 453.61 257.33 453.36
  C 257.67 451.47 256.53 450.58 257.07 448.69
  Q 257.22 448.17 256.78 447.86
  L 255.04 446.62
  Q 254.63 446.33 254.56 445.83
  Q 254.46 445.11 254.09 444.50
  A 1.10 1.09 -12.9 0 0 253.29 444.00
  Q 252.15 443.88 251.15 443.33
  Q 250.73 443.10 250.60 442.75
  Q 250.36 442.12 251.04 442.12
  L 252.54 442.12
  A 0.68 0.62 55.9 0 1 252.83 442.19
  Q 253.80 442.69 254.92 442.66
  A 1.27 1.26 -12.3 0 0 256.05 440.90
  L 254.96 438.37
  Q 254.76 437.90 254.30 437.68
  Q 253.42 437.24 252.79 436.46
  Q 252.46 436.05 251.93 436.02
  C 248.43 435.79 246.36 437.36 248.29 440.94
  Q 248.74 441.77 248.87 443.25
  Q 249.21 446.98 253.27 446.86
  A 0.36 0.35 -89.2 0 1 253.63 447.24
  Q 253.63 447.38 253.64 447.53
  A 0.33 0.32 86.3 0 1 253.35 447.87
  Q 252.48 447.98 251.78 448.47
  Q 251.36 448.77 250.88 448.61
  Q 249.89 448.28 249.53 447.24
  Q 249.40 446.88 249.16 446.59
  Q 248.02 445.20 248.10 443.43
  A 1.89 1.83 33.6 0 0 247.89 442.46
  C 246.88 440.51 247.60 438.48 246.45 437.29
  Q 246.12 436.95 246.12 436.48
  L 246.12 435.09
  A 0.92 0.90 16.3 0 0 245.69 434.32
  L 242.82 432.52
  A 0.95 0.93 -41.1 0 0 241.92 432.47
  Q 239.24 433.72 236.81 435.42
  Q 236.26 435.81 234.98 437.35
  Q 234.04 438.49 232.64 438.89
  C 230.70 439.46 227.69 438.44 225.34 438.24
  Q 224.88 438.20 224.50 437.93
  Q 223.96 437.54 223.25 437.47
  Q 220.26 437.19 218.20 437.46
  Q 216.01 437.74 217.99 438.72
  Q 219.69 439.56 221.54 439.92
  Q 222.06 440.02 221.79 440.48
  L 221.45 441.07
  Q 221.25 441.43 220.84 441.36
  L 215.11 440.44
  Q 214.71 440.37 214.34 440.57
  Q 212.88 441.34 212.01 442.71
  Q 211.72 443.17 211.19 443.27
  Q 206.88 444.08 202.50 444.22
  Q 201.91 444.24 201.29 444.98
  A 1.21 1.20 16.4 0 1 200.53 445.39
  Q 198.89 445.61 197.62 446.65
  Q 197.19 447.00 196.64 447.07
  Q 194.95 447.26 193.28 447.53
  Q 192.20 447.70 192.04 448.06
  A 1.83 1.82 26.2 0 1 189.50 448.92
  Q 188.57 448.42 188.10 448.71
  Q 187.85 448.86 187.61 448.69
  Q 187.37 448.52 187.11 448.44
  Q 183.03 447.26 178.82 446.97
  C 177.00 446.84 175.38 445.99 173.53 445.68
  Q 172.96 445.59 172.57 446.01
  L 171.36 447.32
  A 1.22 1.21 25.4 0 1 170.30 447.69
  Q 167.54 447.25 166.13 448.44
  Q 163.44 447.04 160.44 445.06
  Q 146.98 436.18 134.88 425.88
  Q 135.23 424.74 134.20 423.59
  Q 134.05 423.44 134.26 423.37
  Q 134.60 423.27 134.74 422.92
  A 0.22 0.21 33.2 0 0 134.69 422.69
  Q 134.59 422.59 134.49 422.49
  Q 134.41 422.41 134.51 422.37
  Q 134.88 422.22 135.10 421.84
  Q 135.19 421.69 135.06 421.57
  L 134.87 421.37
  Q 134.75 421.25 134.82 421.22
  Q 135.86 420.75 136.50 419.90
  Q 136.74 419.57 137.15 419.49
  Q 139.82 418.99 141.81 417.17
  Q 142.21 416.81 142.69 417.06
  L 143.00 417.23
  Q 143.40 417.44 143.81 417.25
  C 145.25 416.56 147.57 416.53 148.48 414.84
  Q 148.71 414.43 149.18 414.35
  Q 151.98 413.89 152.68 411.08
  Q 152.79 410.62 153.27 410.62
  L 154.23 410.62
  Q 154.97 410.62 154.89 409.89
  Q 154.84 409.33 154.52 408.81
  Q 154.20 408.30 154.62 407.87
  L 155.12 407.37
  Q 155.23 407.27 155.73 407.13
  Q 156.06 407.04 156.25 407.23
  Q 157.06 408.06 156.89 407.01
  Q 156.85 406.78 157.13 406.63
  Q 157.32 406.53 157.40 406.73
  Q 157.95 408.08 157.67 409.43
  A 0.56 0.56 0.0 0 0 158.17 410.10
  Q 159.19 410.18 158.83 409.01
  Q 158.67 408.51 158.17 408.62
  Q 158.12 408.63 158.16 408.67
  Q 158.16 408.67 158.17 408.68
  Q 158.32 408.86 158.41 408.74
  L 159.99 406.54
  Q 160.24 406.19 160.67 406.14
  C 163.34 405.83 165.08 407.34 167.22 407.42
  Q 170.19 407.53 173.02 406.37
  A 0.53 0.50 -83.3 0 0 173.26 406.17
  Q 173.64 405.60 174.21 405.11
  Q 174.73 404.67 175.04 405.28
  L 175.90 407.00
  A 1.17 1.13 -2.3 0 0 176.53 407.56
  L 180.72 409.14
  Q 181.52 409.45 181.40 410.30
  C 181.19 411.71 181.52 413.01 183.15 413.16
  C 186.27 413.44 187.00 410.50 190.08 409.78
  Q 190.55 409.67 190.95 409.93
  Q 191.56 410.32 192.39 409.99
  Q 192.85 409.80 193.22 409.48
  L 193.84 408.92
  A 1.30 1.29 37.3 0 0 193.55 406.79
  L 192.08 406.06
  A 0.58 0.58 0.0 0 1 192.17 404.98
  L 195.00 404.13
  Q 195.63 403.94 195.81 403.30
  Q 196.23 401.73 198.00 401.89
  A 1.22 1.22 0.0 0 0 198.79 401.69
  C 201.13 400.13 200.73 397.91 204.34 397.66
  A 1.30 0.05 -18.4 0 0 205.38 397.36
  Q 206.18 397.10 207.05 396.96
  Q 207.54 396.88 207.66 396.39
  Q 207.95 395.18 207.62 393.96
  Q 207.49 393.47 207.77 393.06
  C 208.46 392.03 208.09 391.15 208.39 390.16
  Q 208.51 389.76 208.64 389.36
  Q 208.83 388.77 208.26 388.54
  Q 207.26 388.15 206.61 389.08
  A 0.22 0.21 -37.5 0 1 206.23 389.03
  Q 205.90 388.07 206.35 387.18
  A 0.93 0.91 13.0 0 1 207.15 386.69
  C 208.61 386.65 212.19 386.60 213.17 385.31
  Q 213.43 384.97 213.75 385.27
  Q 214.48 385.95 215.49 385.87
  Q 216.01 385.83 216.47 385.60
  Q 217.32 385.19 218.33 385.41
  Q 218.86 385.52 219.17 385.08
  Q 219.48 384.65 219.38 384.07
  Q 219.31 383.65 219.73 383.63
  Q 219.92 383.62 220.11 383.63
  A 0.72 0.72 0.0 0 0 220.86 382.88
  Q 220.82 382.03 221.33 381.29
  Q 221.61 380.87 222.08 380.68
  Q 222.87 380.37 223.10 379.49
  A 0.55 0.54 -74.8 0 1 223.77 379.10
  Q 225.32 379.54 225.59 377.99
  Q 225.96 375.91 227.60 375.87
  Q 228.09 375.86 228.53 375.68
  Q 229.22 375.39 229.39 374.76
  Q 229.52 374.27 230.02 374.37
  Q 230.81 374.52 232.03 373.98
  A 0.63 0.60 50.9 0 1 232.66 374.06
  Q 234.94 375.79 237.99 375.56
  Q 238.50 375.52 239.00 375.63
  Q 240.07 375.85 240.87 376.47
  A 0.76 0.75 45.3 0 0 241.77 376.48
  Q 242.73 375.77 243.41 376.62
  Q 243.72 377.00 244.19 376.86
  Q 244.82 376.66 245.68 376.95
  A 1.29 1.29 0.0 0 0 246.77 376.84
  Q 247.67 376.31 248.38 377.14
  A 1.72 1.66 82.8 0 0 248.93 377.58
  Q 249.90 378.07 250.94 378.15
  A 0.96 0.96 0.0 0 1 251.70 378.66
  Q 251.96 379.13 252.45 379.13
  A 0.68 0.68 0.0 0 0 253.12 378.45
  Q 253.11 376.82 253.24 375.26
  Q 253.34 374.11 252.53 373.71
  Q 252.16 373.52 252.10 373.11
  Q 251.98 372.20 251.91 371.32
  C 251.81 370.02 250.98 370.13 250.58 369.14
  Q 248.27 363.31 242.54 358.02
  Z"
/>
<path fill="#677ca3" d="
  M 432.54 424.33
  C 424.97 434.64 415.04 439.75 404.44 446.20
  Q 399.49 449.21 387.50 452.52
  Q 385.27 451.97 383.01 451.66
  Q 380.61 451.33 378.64 450.49
  C 376.43 449.54 372.01 448.17 370.63 446.75
  Q 367.36 443.40 363.02 441.62
  Q 362.71 441.48 362.58 441.16
  Q 362.52 440.99 362.36 440.89
  Q 361.67 440.46 361.50 440.43
  C 359.40 440.17 357.57 439.38 355.45 439.43
  Q 349.85 439.55 344.55 437.78
  A 1.23 1.21 42.0 0 0 343.67 437.82
  Q 343.07 438.08 342.62 437.86
  C 340.75 436.97 339.18 436.06 337.01 436.18
  C 334.24 436.33 331.87 436.71 329.04 436.17
  Q 322.68 434.97 316.22 435.48
  Q 313.82 435.67 312.79 435.49
  Q 310.77 435.14 309.61 434.02
  Q 308.38 432.83 307.08 432.86
  Q 306.65 432.87 306.28 432.67
  L 305.93 432.49
  Q 305.43 432.22 305.35 432.79
  L 305.06 434.77
  Q 302.14 423.70 298.91 412.74
  Q 296.26 403.75 295.03 396.53
  Q 293.63 388.30 292.53 380.03
  L 292.76 379.64
  Q 293.13 379.04 293.16 379.75
  L 293.18 380.27
  A 0.28 0.28 0.0 0 0 293.56 380.52
  Q 294.06 380.32 294.52 380.45
  Q 294.97 380.58 294.85 380.13
  Q 294.65 379.37 295.69 379.50
  Q 296.12 379.55 296.50 379.76
  Q 297.40 380.25 298.18 379.61
  Q 298.59 379.27 298.90 379.70
  Q 299.92 381.11 300.78 381.18
  C 304.64 381.51 307.88 383.88 312.68 383.62
  Q 313.11 383.60 313.14 384.03
  Q 313.15 384.19 313.15 384.36
  Q 313.14 384.90 313.68 384.89
  Q 316.68 384.83 319.20 386.33
  A 1.33 1.32 53.2 0 0 320.22 386.48
  C 323.01 385.75 325.26 387.54 328.27 387.12
  Q 328.81 387.04 329.26 387.35
  Q 331.14 388.61 333.35 389.16
  Q 333.79 389.27 333.91 389.71
  Q 333.95 389.87 334.02 390.00
  Q 334.11 390.19 334.31 390.26
  Q 335.17 390.57 335.72 390.03
  Q 336.03 389.73 336.35 390.01
  Q 338.31 391.72 339.94 393.71
  Q 339.97 393.74 339.99 393.70
  L 340.10 393.38
  Q 340.18 393.18 340.17 393.40
  Q 340.17 393.56 340.17 393.73
  A 0.27 0.26 17.4 0 0 340.29 393.95
  L 343.04 396.00
  Q 343.37 396.25 343.77 396.34
  C 345.55 396.75 346.65 398.20 348.06 398.90
  Q 351.02 400.37 353.64 402.40
  C 354.76 403.26 354.85 404.56 356.77 404.52
  Q 357.90 404.49 358.87 405.23
  Q 359.24 405.50 359.45 405.91
  C 360.36 407.67 362.46 406.93 364.06 407.14
  Q 364.51 407.20 364.82 407.55
  Q 365.30 408.10 366.04 408.29
  Q 366.49 408.40 366.85 408.71
  Q 368.19 409.88 369.59 410.96
  C 371.06 412.09 373.12 414.25 375.50 415.29
  Q 375.84 415.44 375.95 415.80
  Q 376.03 416.06 376.29 416.19
  Q 377.69 416.86 379.06 417.58
  Q 379.49 417.81 379.96 417.91
  L 389.33 419.90
  A 0.57 0.49 -38.1 0 0 389.56 419.91
  Q 393.28 419.31 397.02 419.69
  Q 397.56 419.74 398.05 419.49
  Q 402.06 417.45 406.50 417.98
  Q 407.03 418.05 407.53 417.86
  Q 408.98 417.32 410.53 417.41
  Q 411.08 417.45 411.54 417.76
  Q 412.03 418.10 412.62 417.99
  Q 413.12 417.90 413.61 418.02
  Q 417.57 419.02 421.65 419.27
  C 424.28 419.43 426.33 420.39 428.80 421.07
  Q 429.04 421.14 429.17 421.05
  Q 429.31 420.97 429.34 420.82
  Q 429.39 420.66 429.54 420.71
  L 431.99 421.58
  Q 432.49 421.76 432.50 422.28
  L 432.54 424.33
  Z"
/>
<path fill="#445885" d="
  M 387.50 452.52
  Q 378.73 455.25 370.34 458.11
  C 361.95 460.96 352.32 463.16 345.26 464.56
  C 341.68 465.27 337.02 465.52 332.93 466.29
  Q 324.37 467.90 315.78 468.89
  L 305.06 434.77
  L 305.35 432.79
  Q 305.43 432.22 305.93 432.49
  L 306.28 432.67
  Q 306.65 432.87 307.08 432.86
  Q 308.38 432.83 309.61 434.02
  Q 310.77 435.14 312.79 435.49
  Q 313.82 435.67 316.22 435.48
  Q 322.68 434.97 329.04 436.17
  C 331.87 436.71 334.24 436.33 337.01 436.18
  C 339.18 436.06 340.75 436.97 342.62 437.86
  Q 343.07 438.08 343.67 437.82
  A 1.23 1.21 42.0 0 1 344.55 437.78
  Q 349.85 439.55 355.45 439.43
  C 357.57 439.38 359.40 440.17 361.50 440.43
  Q 361.67 440.46 362.36 440.89
  Q 362.52 440.99 362.58 441.16
  Q 362.71 441.48 363.02 441.62
  Q 367.36 443.40 370.63 446.75
  C 372.01 448.17 376.43 449.54 378.64 450.49
  Q 380.61 451.33 383.01 451.66
  Q 385.27 451.97 387.50 452.52
  Z"
/>
<path fill="#445885" d="
  M 259.24 448.47
  L 260.14 469.13
  C 242.15 466.85 223.74 465.84 206.12 461.44
  C 199.65 459.82 193.20 459.36 187.08 457.47
  Q 176.35 454.16 166.13 448.44
  Q 167.54 447.25 170.30 447.69
  A 1.22 1.21 25.4 0 0 171.36 447.32
  L 172.57 446.01
  Q 172.96 445.59 173.53 445.68
  C 175.38 445.99 177.00 446.84 178.82 446.97
  Q 183.03 447.26 187.11 448.44
  Q 187.37 448.52 187.61 448.69
  Q 187.85 448.86 188.10 448.71
  Q 188.57 448.42 189.50 448.92
  A 1.83 1.82 26.2 0 0 192.04 448.06
  Q 192.20 447.70 193.28 447.53
  Q 194.95 447.26 196.64 447.07
  Q 197.19 447.00 197.62 446.65
  Q 198.89 445.61 200.53 445.39
  A 1.21 1.20 16.4 0 0 201.29 444.98
  Q 201.91 444.24 202.50 444.22
  Q 206.88 444.08 211.19 443.27
  Q 211.72 443.17 212.01 442.71
  Q 212.88 441.34 214.34 440.57
  Q 214.71 440.37 215.11 440.44
  L 220.84 441.36
  Q 221.25 441.43 221.45 441.07
  L 221.79 440.48
  Q 222.06 440.02 221.54 439.92
  Q 219.69 439.56 217.99 438.72
  Q 216.01 437.74 218.20 437.46
  Q 220.26 437.19 223.25 437.47
  Q 223.96 437.54 224.50 437.93
  Q 224.88 438.20 225.34 438.24
  C 227.69 438.44 230.70 439.46 232.64 438.89
  Q 234.04 438.49 234.98 437.35
  Q 236.26 435.81 236.81 435.42
  Q 239.24 433.72 241.92 432.47
  A 0.95 0.93 -41.1 0 1 242.82 432.52
  L 245.69 434.32
  A 0.92 0.90 16.3 0 1 246.12 435.09
  L 246.12 436.48
  Q 246.12 436.95 246.45 437.29
  C 247.60 438.48 246.88 440.51 247.89 442.46
  A 1.89 1.83 33.6 0 1 248.10 443.43
  Q 248.02 445.20 249.16 446.59
  Q 249.40 446.88 249.53 447.24
  Q 249.89 448.28 250.88 448.61
  Q 251.36 448.77 251.78 448.47
  Q 252.48 447.98 253.35 447.87
  A 0.33 0.32 86.3 0 0 253.64 447.53
  Q 253.63 447.38 253.63 447.24
  A 0.36 0.35 -89.2 0 0 253.27 446.86
  Q 249.21 446.98 248.87 443.25
  Q 248.74 441.77 248.29 440.94
  C 246.36 437.36 248.43 435.79 251.93 436.02
  Q 252.46 436.05 252.79 436.46
  Q 253.42 437.24 254.30 437.68
  Q 254.76 437.90 254.96 438.37
  L 256.05 440.90
  A 1.27 1.26 -12.3 0 1 254.92 442.66
  Q 253.80 442.69 252.83 442.19
  A 0.68 0.62 55.9 0 0 252.54 442.12
  L 251.04 442.12
  Q 250.36 442.12 250.60 442.75
  Q 250.73 443.10 251.15 443.33
  Q 252.15 443.88 253.29 444.00
  A 1.10 1.09 -12.9 0 1 254.09 444.50
  Q 254.46 445.11 254.56 445.83
  Q 254.63 446.33 255.04 446.62
  L 256.78 447.86
  Q 257.22 448.17 257.07 448.69
  C 256.53 450.58 257.67 451.47 257.33 453.36
  Q 257.28 453.61 257.51 453.50
  Q 257.70 453.41 257.87 453.32
  Q 257.99 453.26 257.98 453.12
  L 257.51 447.66
  A 0.60 0.60 0.0 0 1 258.37 447.07
  Q 259.03 447.39 259.24 448.47
  Z"
/>
<path fill="#768bad" d="
  M 207.29 686.97
  L 206.86 687.41
  A 0.32 0.31 64.8 0 1 206.32 687.21
  L 206.29 686.79
  A 0.44 0.44 0.0 0 1 206.68 686.32
  Q 207.08 686.27 207.31 686.54
  Q 207.50 686.76 207.29 686.97
  Z"
/>
</svg>
