<?xml version="1.0" encoding="UTF-8" standalone="no"?>
<!DOCTYPE svg PUBLIC "-//W3C//DTD SVG 1.1//EN" "http://www.w3.org/Graphics/SVG/1.1/DTD/svg11.dtd">
<svg xmlns="http://www.w3.org/2000/svg" version="1.1" viewBox="0.00 0.00 564.00 796.00">
<g stroke-width="2.00" fill="none" stroke-linecap="butt">
<path stroke="#a2d7db" vector-effect="non-scaling-stroke" d="
  M 433.67 303.54
  Q 430.22 303.84 427.64 306.94"
/>
<path stroke="#5f9998" vector-effect="non-scaling-stroke" d="
  M 427.64 306.94
  Q 424.48 306.77 422.70 311.02"
/>
<path stroke="#a2d7db" vector-effect="non-scaling-stroke" d="
  M 422.70 311.02
  Q 421.53 310.79 420.05 310.36
  Q 418.73 309.97 417.40 310.09
  C 413.21 310.48 409.62 310.68 405.25 309.88
  Q 399.49 308.83 392.50 308.10
  C 389.55 307.79 386.67 308.17 384.09 307.81
  Q 382.19 307.54 380.32 307.19
  Q 380.06 307.14 379.99 307.40
  L 379.93 307.67
  Q 379.80 308.17 380.29 308.34
  C 384.33 309.72 388.73 309.76 392.50 310.82
  Q 396.77 312.01 401.11 312.92
  C 404.73 313.69 408.43 312.90 412.31 313.28"
/>
<path stroke="#988c86" vector-effect="non-scaling-stroke" d="
  M 412.31 313.28
  Q 411.50 313.97 412.17 314.66"
/>
<path stroke="#a2d7db" vector-effect="non-scaling-stroke" d="
  M 412.17 314.66
  Q 411.10 315.21 411.27 316.60
  A 1.89 1.89 0.0 0 1 409.60 318.71
  L 399.45 319.81"
/>
<path stroke="#988c86" vector-effect="non-scaling-stroke" d="
  M 399.45 319.81
  Q 399.01 319.95 398.42 319.82"
/>
<path stroke="#a2d7db" vector-effect="non-scaling-stroke" d="
  M 398.42 319.82
  Q 395.75 320.65 392.97 321.30
  C 387.60 322.57 382.54 325.79 377.78 328.59
  A 1.38 1.38 0.0 0 0 377.54 330.78
  C 379.21 332.34 383.21 331.25 385.24 330.59
  Q 391.41 328.60 398.06 327.28"
/>
<path stroke="#988c86" vector-effect="non-scaling-stroke" d="
  M 398.06 327.28
  Q 397.53 327.69 398.28 327.80"
/>
<path stroke="#a2d7db" vector-effect="non-scaling-stroke" d="
  M 398.28 327.80
  Q 391.11 331.05 384.05 334.16
  Q 382.06 335.04 380.86 335.90
  Q 379.12 337.14 381.24 337.38
  Q 385.23 337.83 389.45 336.75
  Q 392.13 336.06 395.15 335.59
  C 399.02 334.98 403.16 332.87 405.78 331.97
  Q 409.22 330.79 412.70 329.72
  A 0.64 0.64 0.0 0 0 413.14 329.14
  Q 413.14 328.97 413.03 328.82"
/>
<path stroke="#988c86" vector-effect="non-scaling-stroke" d="
  M 413.03 328.82
  C 413.79 329.25 414.47 329.63 415.29 329.12
  Q 415.95 328.71 416.58 327.83"
/>
<path stroke="#a2d7db" vector-effect="non-scaling-stroke" d="
  M 416.58 327.83
  C 419.53 324.51 422.23 321.49 427.17 322.68
  A 0.74 0.74 0.0 0 0 428.06 321.77
  Q 428.01 321.62 427.62 321.35"
/>
<path stroke="#988c86" vector-effect="non-scaling-stroke" d="
  M 427.62 321.35
  Q 430.44 321.66 431.77 320.20"
/>
<path stroke="#a2d7db" vector-effect="non-scaling-stroke" d="
  M 431.77 320.20
  Q 436.01 319.14 439.55 322.17
  Q 444.13 326.08 449.13 327.26
  Q 449.63 327.38 449.74 327.88
  Q 449.97 329.04 450.30 330.19
  A 0.90 0.79 -75.1 0 0 450.41 330.41
  Q 453.49 334.75 456.66 336.35
  Q 460.92 338.51 461.50 336.14"
/>
<path stroke="#40b3c3" vector-effect="non-scaling-stroke" d="
  M 461.50 336.14
  Q 461.74 336.31 461.99 336.38
  Q 462.50 336.53 462.60 336.00
  C 463.15 332.82 463.82 328.35 460.63 326.43
  Q 457.97 324.82 457.08 321.76
  Q 456.93 321.26 456.48 321.01
  C 455.31 320.34 454.97 319.91 453.51 319.83
  C 450.93 319.70 448.92 318.94 446.61 321.14
  Q 446.39 321.35 446.09 321.36
  Q 445.92 321.36 445.75 321.41
  Q 445.44 321.49 445.40 321.74
  Q 445.36 321.97 445.44 322.29"
/>
<path stroke="#a2d7db" vector-effect="non-scaling-stroke" d="
  M 445.44 322.29
  L 442.27 319.61"
/>
<path stroke="#5f9998" vector-effect="non-scaling-stroke" d="
  M 442.27 319.61
  Q 442.16 318.08 442.71 317.27
  Q 443.07 316.74 443.69 316.90
  Q 444.23 317.04 444.64 317.39
  A 0.83 0.82 -37.7 0 0 445.54 317.50
  C 447.40 316.58 446.27 313.22 446.44 311.48
  A 2.21 2.21 0.0 0 0 444.95 309.17
  C 441.58 308.03 441.94 305.07 439.45 303.62
  Q 436.79 302.07 433.67 303.54"
/>
<path stroke="#abaea4" vector-effect="non-scaling-stroke" d="
  M 442.27 319.61
  L 433.79 314.72
  A 0.38 0.38 0.0 0 1 433.71 314.12
  L 439.58 308.38
  A 1.87 1.86 32.0 0 0 438.86 305.28
  L 433.67 303.54"
/>
<path stroke="#8bc8cf" vector-effect="non-scaling-stroke" d="
  M 445.44 322.29
  Q 453.93 328.26 461.50 336.14"
/>
<path stroke="#e4a092" vector-effect="non-scaling-stroke" d="
  M 431.77 320.20
  C 429.96 318.27 429.42 315.74 426.36 315.26
  Q 421.97 314.58 418.22 312.06
  A 1.46 1.44 59.3 0 0 417.30 311.82
  Q 414.69 312.01 412.31 313.28"
/>
<path stroke="#abaea4" vector-effect="non-scaling-stroke" d="
  M 422.70 311.02
  Q 424.90 311.79 426.40 311.53
  Q 427.02 311.43 426.88 310.81
  Q 426.41 308.80 427.64 306.94"
/>
<path stroke="#e4a092" vector-effect="non-scaling-stroke" d="
  M 427.62 321.35
  C 425.55 319.27 422.13 314.28 419.00 314.53
  Q 415.68 314.80 412.17 314.66"
/>
<path stroke="#e4a092" vector-effect="non-scaling-stroke" d="
  M 416.58 327.83
  L 399.45 319.81"
/>
<path stroke="#e4a092" vector-effect="non-scaling-stroke" d="
  M 413.03 328.82
  C 409.18 325.38 402.57 326.16 398.28 327.80"
/>
<path stroke="#e4a092" vector-effect="non-scaling-stroke" d="
  M 398.42 319.82
  L 398.06 327.28"
/>
<path stroke="#40b3c3" vector-effect="non-scaling-stroke" d="
  M 439.26 329.45
  C 437.33 328.67 435.64 327.71 433.53 327.61
  Q 426.77 327.32 420.01 327.71
  Q 419.44 327.75 418.97 328.08
  Q 418.49 328.43 417.89 328.28
  A 1.05 1.05 0.0 0 0 416.59 329.20
  L 416.32 331.74
  A 0.73 0.73 0.0 0 0 417.04 332.55
  Q 420.09 332.60 423.01 332.82
  Q 425.11 332.99 424.42 335.01
  A 1.40 1.38 -86.2 0 1 423.39 335.92
  C 418.92 336.80 414.76 336.90 410.38 338.30
  C 406.07 339.69 401.69 340.11 397.77 342.17
  C 393.28 344.53 389.18 347.23 384.48 349.06
  C 378.92 351.22 372.99 353.20 367.97 356.46
  Q 364.00 359.03 351.36 367.01
  Q 349.64 368.09 347.62 368.88
  C 345.86 369.56 342.61 370.39 341.73 372.18
  A 0.64 0.64 0.0 0 0 342.42 373.09
  C 346.14 372.40 350.40 372.58 353.59 371.30
  C 357.79 369.60 360.62 367.09 365.90 365.09
  C 369.48 363.73 374.59 362.67 378.38 360.90
  Q 381.16 359.60 389.68 354.98
  Q 390.73 354.41 391.26 354.48
  Q 392.59 354.66 391.43 355.34
  C 387.33 357.76 383.39 359.87 379.21 362.67
  C 374.07 366.13 369.09 367.18 364.36 370.28
  C 360.77 372.64 357.60 373.93 354.06 375.79
  Q 352.41 376.65 352.85 378.48
  A 1.00 1.00 0.0 0 0 353.82 379.25
  Q 357.89 379.25 361.96 378.20
  C 364.99 377.42 367.72 375.51 370.55 373.95
  C 376.03 370.94 382.94 369.45 388.96 367.58
  C 393.33 366.23 396.88 360.64 400.75 360.14
  Q 414.64 358.33 427.14 352.11
  C 429.81 350.79 430.66 349.44 432.32 347.07
  C 434.97 343.30 440.91 341.93 445.05 340.17
  Q 448.24 338.82 451.02 340.39
  C 456.11 343.27 461.07 346.37 465.78 350.98
  C 470.29 355.39 475.63 357.72 479.63 362.60
  Q 480.39 363.53 481.46 363.33
  Q 481.97 363.24 481.86 362.73
  C 480.26 355.14 473.99 351.22 469.03 346.25
  C 466.58 343.80 462.90 343.07 460.33 340.88
  Q 458.90 339.66 457.50 338.39
  Q 456.29 337.29 454.43 336.30
  C 451.81 334.92 450.06 333.74 448.44 330.98
  C 446.92 328.42 443.47 326.52 440.98 325.30
  A 2.53 2.51 42.1 0 0 438.59 325.41
  L 438.29 325.59
  A 0.88 0.88 0.0 0 0 438.32 327.12
  Q 439.46 327.73 439.79 328.97
  A 0.40 0.40 0.0 0 1 439.26 329.45"
/>
</g>
<path fill="#56c2cf" d="
  M 0.00 0.00
  L 564.00 0.00
  L 564.00 796.00
  L 0.00 796.00
  L 0.00 0.00
  Z
  M 433.67 303.54
  Q 430.22 303.84 427.64 306.94
  Q 424.48 306.77 422.70 311.02
  Q 421.53 310.79 420.05 310.36
  Q 418.73 309.97 417.40 310.09
  C 413.21 310.48 409.62 310.68 405.25 309.88
  Q 399.49 308.83 392.50 308.10
  C 389.55 307.79 386.67 308.17 384.09 307.81
  Q 382.19 307.54 380.32 307.19
  Q 380.06 307.14 379.99 307.40
  L 379.93 307.67
  Q 379.80 308.17 380.29 308.34
  C 384.33 309.72 388.73 309.76 392.50 310.82
  Q 396.77 312.01 401.11 312.92
  C 404.73 313.69 408.43 312.90 412.31 313.28
  Q 411.50 313.97 412.17 314.66
  Q 411.10 315.21 411.27 316.60
  A 1.89 1.89 0.0 0 1 409.60 318.71
  L 399.45 319.81
  Q 399.01 319.95 398.42 319.82
  Q 395.75 320.65 392.97 321.30
  C 387.60 322.57 382.54 325.79 377.78 328.59
  A 1.38 1.38 0.0 0 0 377.54 330.78
  C 379.21 332.34 383.21 331.25 385.24 330.59
  Q 391.41 328.60 398.06 327.28
  Q 397.53 327.69 398.28 327.80
  Q 391.11 331.05 384.05 334.16
  Q 382.06 335.04 380.86 335.90
  Q 379.12 337.14 381.24 337.38
  Q 385.23 337.83 389.45 336.75
  Q 392.13 336.06 395.15 335.59
  C 399.02 334.98 403.16 332.87 405.78 331.97
  Q 409.22 330.79 412.70 329.72
  A 0.64 0.64 0.0 0 0 413.14 329.14
  Q 413.14 328.97 413.03 328.82
  C 413.79 329.25 414.47 329.63 415.29 329.12
  Q 415.95 328.71 416.58 327.83
  C 419.53 324.51 422.23 321.49 427.17 322.68
  A 0.74 0.74 0.0 0 0 428.06 321.77
  Q 428.01 321.62 427.62 321.35
  Q 430.44 321.66 431.77 320.20
  Q 436.01 319.14 439.55 322.17
  Q 444.13 326.08 449.13 327.26
  Q 449.63 327.38 449.74 327.88
  Q 449.97 329.04 450.30 330.19
  A 0.90 0.79 -75.1 0 0 450.41 330.41
  Q 453.49 334.75 456.66 336.35
  Q 460.92 338.51 461.50 336.14
  Q 461.74 336.31 461.99 336.38
  Q 462.50 336.53 462.60 336.00
  C 463.15 332.82 463.82 328.35 460.63 326.43
  Q 457.97 324.82 457.08 321.76
  Q 456.93 321.26 456.48 321.01
  C 455.31 320.34 454.97 319.91 453.51 319.83
  C 450.93 319.70 448.92 318.94 446.61 321.14
  Q 446.39 321.35 446.09 321.36
  Q 445.92 321.36 445.75 321.41
  Q 445.44 321.49 445.40 321.74
  Q 445.36 321.97 445.44 322.29
  L 442.27 319.61
  Q 442.16 318.08 442.71 317.27
  Q 443.07 316.74 443.69 316.90
  Q 444.23 317.04 444.64 317.39
  A 0.83 0.82 -37.7 0 0 445.54 317.50
  C 447.40 316.58 446.27 313.22 446.44 311.48
  A 2.21 2.21 0.0 0 0 444.95 309.17
  C 441.58 308.03 441.94 305.07 439.45 303.62
  Q 436.79 302.07 433.67 303.54
  Z
  M 439.26 329.45
  C 437.33 328.67 435.64 327.71 433.53 327.61
  Q 426.77 327.32 420.01 327.71
  Q 419.44 327.75 418.97 328.08
  Q 418.49 328.43 417.89 328.28
  A 1.05 1.05 0.0 0 0 416.59 329.20
  L 416.32 331.74
  A 0.73 0.73 0.0 0 0 417.04 332.55
  Q 420.09 332.60 423.01 332.82
  Q 425.11 332.99 424.42 335.01
  A 1.40 1.38 -86.2 0 1 423.39 335.92
  C 418.92 336.80 414.76 336.90 410.38 338.30
  C 406.07 339.69 401.69 340.11 397.77 342.17
  C 393.28 344.53 389.18 347.23 384.48 349.06
  C 378.92 351.22 372.99 353.20 367.97 356.46
  Q 364.00 359.03 351.36 367.01
  Q 349.64 368.09 347.62 368.88
  C 345.86 369.56 342.61 370.39 341.73 372.18
  A 0.64 0.64 0.0 0 0 342.42 373.09
  C 346.14 372.40 350.40 372.58 353.59 371.30
  C 357.79 369.60 360.62 367.09 365.90 365.09
  C 369.48 363.73 374.59 362.67 378.38 360.90
  Q 381.16 359.60 389.68 354.98
  Q 390.73 354.41 391.26 354.48
  Q 392.59 354.66 391.43 355.34
  C 387.33 357.76 383.39 359.87 379.21 362.67
  C 374.07 366.13 369.09 367.18 364.36 370.28
  C 360.77 372.64 357.60 373.93 354.06 375.79
  Q 352.41 376.65 352.85 378.48
  A 1.00 1.00 0.0 0 0 353.82 379.25
  Q 357.89 379.25 361.96 378.20
  C 364.99 377.42 367.72 375.51 370.55 373.95
  C 376.03 370.94 382.94 369.45 388.96 367.58
  C 393.33 366.23 396.88 360.64 400.75 360.14
  Q 414.64 358.33 427.14 352.11
  C 429.81 350.79 430.66 349.44 432.32 347.07
  C 434.97 343.30 440.91 341.93 445.05 340.17
  Q 448.24 338.82 451.02 340.39
  C 456.11 343.27 461.07 346.37 465.78 350.98
  C 470.29 355.39 475.63 357.72 479.63 362.60
  Q 480.39 363.53 481.46 363.33
  Q 481.97 363.24 481.86 362.73
  C 480.26 355.14 473.99 351.22 469.03 346.25
  C 466.58 343.80 462.90 343.07 460.33 340.88
  Q 458.90 339.66 457.50 338.39
  Q 456.29 337.29 454.43 336.30
  C 451.81 334.92 450.06 333.74 448.44 330.98
  C 446.92 328.42 443.47 326.52 440.98 325.30
  A 2.53 2.51 42.1 0 0 438.59 325.41
  L 438.29 325.59
  A 0.88 0.88 0.0 0 0 438.32 327.12
  Q 439.46 327.73 439.79 328.97
  A 0.40 0.40 0.0 0 1 439.26 329.45
  Z"
/>
<path fill="#687061" d="
  M 442.27 319.61
  L 433.79 314.72
  A 0.38 0.38 0.0 0 1 433.71 314.12
  L 439.58 308.38
  A 1.87 1.86 32.0 0 0 438.86 305.28
  L 433.67 303.54
  Q 436.79 302.07 439.45 303.62
  C 441.94 305.07 441.58 308.03 444.95 309.17
  A 2.21 2.21 0.0 0 1 446.44 311.48
  C 446.27 313.22 447.40 316.58 445.54 317.50
  A 0.83 0.82 -37.7 0 1 444.64 317.39
  Q 444.23 317.04 443.69 316.90
  Q 443.07 316.74 442.71 317.27
  Q 442.16 318.08 442.27 319.61
  Z"
/>
<path fill="#edebe7" d="
  M 433.67 303.54
  L 438.86 305.28
  A 1.87 1.86 32.0 0 1 439.58 308.38
  L 433.71 314.12
  A 0.38 0.38 0.0 0 0 433.79 314.72
  L 442.27 319.61
  L 445.44 322.29
  Q 453.93 328.26 461.50 336.14
  Q 460.92 338.51 456.66 336.35
  Q 453.49 334.75 450.41 330.41
  A 0.90 0.79 -75.1 0 1 450.30 330.19
  Q 449.97 329.04 449.74 327.88
  Q 449.63 327.38 449.13 327.26
  Q 444.13 326.08 439.55 322.17
  Q 436.01 319.14 431.77 320.20
  C 429.96 318.27 429.42 315.74 426.36 315.26
  Q 421.97 314.58 418.22 312.06
  A 1.46 1.44 59.3 0 0 417.30 311.82
  Q 414.69 312.01 412.31 313.28
  C 408.43 312.90 404.73 313.69 401.11 312.92
  Q 396.77 312.01 392.50 310.82
  C 388.73 309.76 384.33 309.72 380.29 308.34
  Q 379.80 308.17 379.93 307.67
  L 379.99 307.40
  Q 380.06 307.14 380.32 307.19
  Q 382.19 307.54 384.09 307.81
  C 386.67 308.17 389.55 307.79 392.50 308.10
  Q 399.49 308.83 405.25 309.88
  C 409.62 310.68 413.21 310.48 417.40 310.09
  Q 418.73 309.97 420.05 310.36
  Q 421.53 310.79 422.70 311.02
  Q 424.90 311.79 426.40 311.53
  Q 427.02 311.43 426.88 310.81
  Q 426.41 308.80 427.64 306.94
  Q 430.22 303.84 433.67 303.54
  Z"
/>
<path fill="#687061" d="
  M 427.64 306.94
  Q 426.41 308.80 426.88 310.81
  Q 427.02 311.43 426.40 311.53
  Q 424.90 311.79 422.70 311.02
  Q 424.48 306.77 427.64 306.94
  Z"
/>
<path fill="#da553d" d="
  M 431.77 320.20
  Q 430.44 321.66 427.62 321.35
  C 425.55 319.27 422.13 314.28 419.00 314.53
  Q 415.68 314.80 412.17 314.66
  Q 411.50 313.97 412.31 313.28
  Q 414.69 312.01 417.30 311.82
  A 1.46 1.44 59.3 0 1 418.22 312.06
  Q 421.97 314.58 426.36 315.26
  C 429.42 315.74 429.96 318.27 431.77 320.20
  Z"
/>
<path fill="#edebe7" d="
  M 427.62 321.35
  Q 428.01 321.62 428.06 321.77
  A 0.74 0.74 0.0 0 1 427.17 322.68
  C 422.23 321.49 419.53 324.51 416.58 327.83
  L 399.45 319.81
  L 409.60 318.71
  A 1.89 1.89 0.0 0 0 411.27 316.60
  Q 411.10 315.21 412.17 314.66
  Q 415.68 314.80 419.00 314.53
  C 422.13 314.28 425.55 319.27 427.62 321.35
  Z"
/>
<path fill="#29a4b6" d="
  M 461.50 336.14
  Q 453.93 328.26 445.44 322.29
  Q 445.36 321.97 445.40 321.74
  Q 445.44 321.49 445.75 321.41
  Q 445.92 321.36 446.09 321.36
  Q 446.39 321.35 446.61 321.14
  C 448.92 318.94 450.93 319.70 453.51 319.83
  C 454.97 319.91 455.31 320.34 456.48 321.01
  Q 456.93 321.26 457.08 321.76
  Q 457.97 324.82 460.63 326.43
  C 463.82 328.35 463.15 332.82 462.60 336.00
  Q 462.50 336.53 461.99 336.38
  Q 461.74 336.31 461.50 336.14
  Z"
/>
<path fill="#edebe7" d="
  M 398.42 319.82
  L 398.06 327.28
  Q 391.41 328.60 385.24 330.59
  C 383.21 331.25 379.21 332.34 377.54 330.78
  A 1.38 1.38 0.0 0 1 377.78 328.59
  C 382.54 325.79 387.60 322.57 392.97 321.30
  Q 395.75 320.65 398.42 319.82
  Z"
/>
<path fill="#da553d" d="
  M 398.42 319.82
  Q 399.01 319.95 399.45 319.81
  L 416.58 327.83
  Q 415.95 328.71 415.29 329.12
  C 414.47 329.63 413.79 329.25 413.03 328.82
  C 409.18 325.38 402.57 326.16 398.28 327.80
  Q 397.53 327.69 398.06 327.28
  L 398.42 319.82
  Z"
/>
<path fill="#29a4b6" d="
  M 439.79 328.97
  Q 439.46 327.73 438.32 327.12
  A 0.88 0.88 0.0 0 1 438.29 325.59
  L 438.59 325.41
  A 2.53 2.51 42.1 0 1 440.98 325.30
  C 443.47 326.52 446.92 328.42 448.44 330.98
  C 450.06 333.74 451.81 334.92 454.43 336.30
  Q 456.29 337.29 457.50 338.39
  Q 458.90 339.66 460.33 340.88
  C 462.90 343.07 466.58 343.80 469.03 346.25
  C 473.99 351.22 480.26 355.14 481.86 362.73
  Q 481.97 363.24 481.46 363.33
  Q 480.39 363.53 479.63 362.60
  C 475.63 357.72 470.29 355.39 465.78 350.98
  C 461.07 346.37 456.11 343.27 451.02 340.39
  Q 448.24 338.82 445.05 340.17
  C 440.91 341.93 434.97 343.30 432.32 347.07
  C 430.66 349.44 429.81 350.79 427.14 352.11
  Q 414.64 358.33 400.75 360.14
  C 396.88 360.64 393.33 366.23 388.96 367.58
  C 382.94 369.45 376.03 370.94 370.55 373.95
  C 367.72 375.51 364.99 377.42 361.96 378.20
  Q 357.89 379.25 353.82 379.25
  A 1.00 1.00 0.0 0 1 352.85 378.48
  Q 352.41 376.65 354.06 375.79
  C 357.60 373.93 360.77 372.64 364.36 370.28
  C 369.09 367.18 374.07 366.13 379.21 362.67
  C 383.39 359.87 387.33 357.76 391.43 355.34
  Q 392.59 354.66 391.26 354.48
  Q 390.73 354.41 389.68 354.98
  Q 381.16 359.60 378.38 360.90
  C 374.59 362.67 369.48 363.73 365.90 365.09
  C 360.62 367.09 357.79 369.60 353.59 371.30
  C 350.40 372.58 346.14 372.40 342.42 373.09
  A 0.64 0.64 0.0 0 1 341.73 372.18
  C 342.61 370.39 345.86 369.56 347.62 368.88
  Q 349.64 368.09 351.36 367.01
  Q 364.00 359.03 367.97 356.46
  C 372.99 353.20 378.92 351.22 384.48 349.06
  C 389.18 347.23 393.28 344.53 397.77 342.17
  C 401.69 340.11 406.07 339.69 410.38 338.30
  C 414.76 336.90 418.92 336.80 423.39 335.92
  A 1.40 1.38 -86.2 0 0 424.42 335.01
  Q 425.11 332.99 423.01 332.82
  Q 420.09 332.60 417.04 332.55
  A 0.73 0.73 0.0 0 1 416.32 331.74
  L 416.59 329.20
  A 1.05 1.05 0.0 0 1 417.89 328.28
  Q 418.49 328.43 418.97 328.08
  Q 419.44 327.75 420.01 327.71
  Q 426.77 327.32 433.53 327.61
  C 435.64 327.71 437.33 328.67 439.26 329.45
  A 0.40 0.40 0.0 0 0 439.79 328.97
  Z"
/>
<path fill="#edebe7" d="
  M 413.03 328.82
  Q 413.14 328.97 413.14 329.14
  A 0.64 0.64 0.0 0 1 412.70 329.72
  Q 409.22 330.79 405.78 331.97
  C 403.16 332.87 399.02 334.98 395.15 335.59
  Q 392.13 336.06 389.45 336.75
  Q 385.23 337.83 381.24 337.38
  Q 379.12 337.14 380.86 335.90
  Q 382.06 335.04 384.05 334.16
  Q 391.11 331.05 398.28 327.80
  C 402.57 326.16 409.18 325.38 413.03 328.82
  Z"
/>
</svg>
