<svg width="1482" height="377" viewBox="0 0 1482 377" fill="none" xmlns="http://www.w3.org/2000/svg">
<path d="M2.36176 76.5485L1.6532 158.473L0 434H1480V173.177V128.348C1480 128.348 1486.39 104.866 1470.26 98.9992C1403 74.55 1350.12 116.86 1281.5 121.473C1171.5 128.868 1216.5 79.9389 1171.5 69.3484C1100.66 52.6773 992.014 114.561 938.5 88.5485C899 69.3484 915.37 42.2051 875 39.9992C812.806 36.6009 743.244 85.897 682 74.55C649.208 68.4744 639.914 47.8745 607 42.4992C552.944 33.6712 516.258 63.2258 461.5 61.9992C416.439 60.9899 422.047 49.0124 377 47.4992C360.607 46.9486 321.371 48.5107 305 47.4992C254.895 44.4035 230.159 10.8545 180.5 3.49923C110.771 -6.82873 0 15.4992 0 15.4992C0.314901 24.1434 1.72313 65.57 1.44323 74.55C1.42574 74.8857 1.557 75.1836 1.83691 75.4436C2.1868 75.7902 2.36176 76.1585 2.36176 76.5485Z" fill="url(#paint0_linear_141_1639)"/>
<defs>
<linearGradient id="paint0_linear_141_1639" x1="812.686" y1="-134.112" x2="666.4" y2="393.462" gradientUnits="userSpaceOnUse">
<stop stop-color="#15ACC5"/>
<stop offset="0.997039" stop-color="#6FBCA8" stop-opacity="0.3"/>
</linearGradient>
</defs>
</svg>
