<svg width="1482" height="340" viewBox="0 0 1482 340" fill="none" xmlns="http://www.w3.org/2000/svg">
<path d="M2.36176 75.777L1.6532 157.701L0 339.5H1480V172.406V127.577C1480 127.577 1486.39 104.095 1470.26 98.2278C1403 73.7785 1350.12 116.089 1281.5 120.701C1171.5 128.096 1190 71.8183 1145 61.2277C1074.16 44.5567 992.014 113.789 938.5 87.777C899 68.5769 891.37 34.7059 851 32.5C788.806 29.1016 743.244 85.1256 682 73.7785C649.208 67.703 639.914 47.103 607 41.7277C552.944 32.8997 516.258 62.4543 461.5 61.2277C416.439 60.2184 422.047 48.2409 377 46.7277C360.607 46.1771 321.371 47.7392 305 46.7277C254.895 43.6321 230.159 10.083 180.5 2.72775C110.771 -7.60021 0 14.7277 0 14.7277C0.314901 23.3719 1.72313 64.7985 1.44323 73.7785C1.42574 74.1143 1.557 74.4121 1.83691 74.6721C2.1868 75.0187 2.36176 75.3871 2.36176 75.777Z" fill="url(#paint0_linear_142_5226)"/>
<defs>
<linearGradient id="paint0_linear_142_5226" x1="740.625" y1="0" x2="740.625" y2="344.85" gradientUnits="userSpaceOnUse">
<stop stop-color="#81C4DF"/>
<stop offset="0.997039" stop-color="#0B8ADE" stop-opacity="0.02"/>
</linearGradient>
</defs>
</svg>
