<svg width="35" height="22" viewBox="0 0 35 22" fill="none" xmlns="http://www.w3.org/2000/svg">
<path d="M2.99992 0.533251C-0.733409 1.59992 0.333258 2.53325 6.73326 3.99992C10.1999 4.66658 11.7999 6.13325 14.0666 10.7999C16.3333 15.7333 16.5999 17.0666 15.1333 17.8666C14.1999 18.5333 13.6666 19.5999 14.1999 20.3999C15.1333 21.8666 21.9333 19.1999 25.9333 15.5999C27.9333 13.8666 28.5999 14.1333 31.6666 17.4666L34.9999 21.3333L34.7333 15.9999C34.3333 10.6666 34.3333 10.6666 28.9999 10.6666C22.3333 10.6666 20.3333 9.33325 20.3333 5.33325C20.3333 3.59992 19.9333 1.86658 19.3999 1.59992C17.2666 0.266584 6.19992 -0.400083 2.99992 0.533251Z" fill="black"/>
</svg>
