<svg width="155" height="22" viewBox="0 0 155 22" fill="none" xmlns="http://www.w3.org/2000/svg">
<path fill-rule="evenodd" clip-rule="evenodd" d="M155 22C154.09 21.9314 151.424 21.3929 148.435 20.7893C144.414 19.9774 139.809 19.0476 138.11 18.9844C135.187 18.8759 136.555 18.3411 138.082 17.7446C139.775 17.0832 141.662 16.346 138.11 16.0297C133.233 15.5954 133.081 14.4185 132.966 13.5207C132.899 13.0001 132.844 12.5734 131.887 12.4397C131.038 12.3207 130.104 12.1315 129.033 11.9146C126.214 11.3436 122.443 10.5799 116.774 10.3958C112.04 10.2351 109.699 8.47812 109.456 8.29553L109.455 8.29468C109.337 8.1676 108.151 7.36275 106.729 6.49859C102.58 3.8553 98.5503 2.74544 92.1497 2.53364C90.4903 2.48281 85.8676 2.41503 81.7191 2.38114C75.9111 2.33878 71.0514 2.2117 60.2652 1.83045C52.6793 1.55087 42.2486 1.21199 37.1519 1.07644C32.1736 0.93241 26.9583 0.77991 25.6545 0.73755C15.698 0.424082 0.88174 -0.016469 0.644681 0.000475187C-0.0664983 0.05978 -0.303558 21.9602 0.526151 21.9772C0.849489 21.9887 63.356 21.9963 155 22Z" fill="#173F8A"/>
</svg>
