<svg width="155" height="188" viewBox="0 0 155 188" fill="none" xmlns="http://www.w3.org/2000/svg">
<path fill-rule="evenodd" clip-rule="evenodd" d="M155 188C154.09 187.413 151.424 182.812 148.435 177.654C144.414 170.716 139.809 162.77 138.11 162.23C135.187 161.303 136.555 156.733 138.082 151.636C139.775 145.984 141.662 139.684 138.11 136.981C133.233 133.269 133.081 123.212 132.966 115.54C132.899 111.092 132.844 107.445 131.887 106.303C131.038 105.286 130.104 103.67 129.033 101.815C126.214 96.9361 122.443 90.4105 116.774 88.8366C112.04 87.4632 109.699 72.4494 109.456 70.8891L109.455 70.8818C109.337 69.7959 108.151 62.918 106.729 55.5334C102.58 32.9452 98.5503 23.461 92.1497 21.6511C90.4903 21.2167 85.8676 20.6375 81.7191 20.3479C75.9111 19.9859 71.0514 18.9 60.2652 15.6421C52.6793 13.2529 42.2486 10.357 37.1519 9.19863C32.1736 7.96786 26.9583 6.66469 25.6545 6.3027C15.698 3.62397 0.88174 -0.140736 0.644681 0.00405975C-0.0664983 0.510846 -0.303558 187.66 0.526151 187.805C0.849489 187.904 63.356 187.969 155 188Z" fill="#173F8A"/>
</svg>
