<svg width="363" height="47" viewBox="0 0 363 47" fill="none" xmlns="http://www.w3.org/2000/svg">
<path fill-rule="evenodd" clip-rule="evenodd" d="M-1.30739e-05 47C2.13067 46.8534 8.37515 45.7031 15.3757 44.4135C24.7919 42.679 35.576 40.6925 39.5564 40.5575C46.4018 40.3258 43.1962 39.1833 39.6206 37.9089C35.6564 36.496 31.2374 34.921 39.5564 34.2453C50.9773 33.3174 51.3321 30.8031 51.6028 28.8851C51.7598 27.773 51.8884 26.8613 54.1299 26.5757C56.1172 26.3215 58.3044 25.9174 60.8134 25.4539C67.416 24.234 76.2464 22.6026 89.5225 22.2091C100.609 21.8658 106.091 18.1123 106.661 17.7223L106.663 17.7205C106.941 17.449 109.717 15.7295 113.048 13.8834C122.763 8.23631 132.202 5.86526 147.191 5.41277C151.078 5.30418 161.904 5.15938 171.619 5.08698C185.221 4.99649 196.602 4.72499 221.863 3.91052C239.629 3.31323 264.056 2.58925 275.993 2.29966C287.651 1.99197 299.865 1.66617 302.919 1.57567C326.236 0.905993 360.935 -0.035184 361.49 0.00101494C363.156 0.127711 363.711 46.915 361.768 46.9512C361.011 46.9759 214.624 46.9921 -1.30739e-05 47Z" fill="#008F59"/>
</svg>
