<svg width="363" height="184" viewBox="0 0 363 184" fill="none" xmlns="http://www.w3.org/2000/svg">
<path fill-rule="evenodd" clip-rule="evenodd" d="M-1.30739e-05 184C2.13067 183.426 8.37515 178.923 15.3757 173.874C24.7919 167.084 35.576 159.307 39.5564 158.778C46.4018 157.871 43.1962 153.398 39.6206 148.409C35.6564 142.878 31.2374 136.712 39.5564 134.067C50.9773 130.434 51.3321 120.591 51.6028 113.082C51.7598 108.728 51.8884 105.159 54.1299 104.041C56.1172 103.046 58.3044 101.464 60.8134 99.6491C67.416 94.8736 76.2464 88.4868 89.5225 86.9464C100.609 85.6022 106.091 70.9079 106.661 69.3808L106.663 69.3737C106.941 68.3108 109.717 61.5793 113.048 54.3519C122.763 32.2443 132.202 22.9619 147.191 21.1904C151.078 20.7653 161.904 20.1984 171.619 19.915C185.221 19.5607 196.602 18.4978 221.863 15.3092C239.629 12.9709 264.056 10.1366 275.993 9.00291C287.651 7.79833 299.865 6.52288 302.919 6.16859C326.236 3.54686 360.935 -0.137748 361.49 0.00396679C363.156 0.49997 363.711 183.667 361.768 183.809C361.011 183.906 214.624 183.969 -1.30739e-05 184Z" fill="#008F59"/>
</svg>
