<svg width="56" height="33" viewBox="0 0 56 33" fill="none" xmlns="http://www.w3.org/2000/svg">
<path d="M0.666992 1.19992C0.666992 1.46659 2.13366 4.93326 3.86699 8.93326C6.80033 15.7333 8.93366 17.9999 16.1337 23.0666C18.4003 24.6666 18.267 24.6666 14.9337 24.2666C11.7337 23.7333 11.3337 23.9999 12.1337 26.5333C12.5337 27.9999 13.867 30.1333 15.067 30.9333C18.0003 33.3333 23.3337 33.0666 23.3337 30.6666C23.3337 28.9333 25.867 28.6666 41.7337 29.1999C54.1337 29.7333 57.867 29.4666 53.3337 28.7999C49.7337 28.1333 44.9337 26.9333 42.9337 26.1333C40.8003 25.3333 36.267 24.6666 32.8003 24.6666C26.8003 24.6666 25.7337 23.9999 16.1337 15.8666C10.5337 11.0666 5.20033 5.73326 4.40033 3.86659C3.20033 1.19992 0.666992 -0.666744 0.666992 1.19992Z" fill="#F54D00"/>
</svg>
