<svg width="174" height="49" viewBox="0 0 174 49" fill="none" xmlns="http://www.w3.org/2000/svg">
<path fill-rule="evenodd" clip-rule="evenodd" d="M174 49C172.979 48.8471 169.985 47.6479 166.63 46.3035C162.116 44.4951 156.947 42.4241 155.039 42.2834C151.758 42.0418 153.294 40.8506 155.008 39.522C156.908 38.049 159.027 36.407 155.039 35.7026C149.565 34.7351 149.395 32.1139 149.265 30.1143C149.19 28.9548 149.128 28.0043 148.053 27.7065C147.101 27.4415 146.052 27.0202 144.85 26.537C141.685 25.2652 137.452 23.5644 131.088 23.1542C125.774 22.7963 123.146 18.8831 122.873 18.4764L122.872 18.4745C122.739 18.1915 121.408 16.3988 119.812 14.4741C115.155 8.58679 110.631 6.11485 103.445 5.6431C101.583 5.52988 96.3933 5.37893 91.7362 5.30345C85.2163 5.2091 79.7609 4.92605 67.6525 4.07692C59.1367 3.45422 47.4275 2.69943 41.706 2.39751C36.1175 2.07673 30.2629 1.73707 28.7992 1.64272C17.6222 0.944544 0.989825 -0.0366831 0.723706 0.00105626C-0.0746497 0.133144 -0.340768 48.9114 0.590647 48.9491C0.95362 48.9749 71.1223 48.9918 174 49Z" fill="#F54D00"/>
</svg>
