<svg width="175" height="347" viewBox="0 0 175 347" fill="none" xmlns="http://www.w3.org/2000/svg">
<path fill-rule="evenodd" clip-rule="evenodd" d="M174.358 346.234C173.335 345.153 170.336 336.68 166.973 327.18C162.45 314.402 157.27 299.768 155.358 298.774C152.07 297.067 153.61 288.65 155.328 279.262C157.232 268.854 159.354 257.252 155.358 252.274C149.873 245.438 149.702 226.916 149.572 212.787C149.497 204.594 149.435 197.878 148.358 195.774C147.404 193.902 146.353 190.925 145.148 187.51C141.977 178.524 137.735 166.506 131.358 163.608C126.033 161.078 123.4 133.428 123.126 130.554L123.125 130.541C122.992 128.541 121.659 115.874 120.059 102.274C115.392 60.6742 110.859 43.2074 103.659 39.8741C101.792 39.0741 96.5919 38.0075 91.9252 37.4741C85.3919 36.8075 79.9252 34.8075 67.7919 28.8075C59.2585 24.4075 47.5252 19.0741 41.7919 16.9408C36.1919 14.6741 30.3252 12.2741 28.8585 11.6075C17.6585 6.67413 0.991863 -0.25922 0.725197 0.00744629C-0.0748034 0.940779 -0.34147 345.608 0.591863 345.874C0.955584 346.056 71.2688 346.176 174.358 346.234Z" fill="#F54D00"/>
</svg>
