<svg width="1438" height="149" viewBox="0 0 1438 149" fill="none" xmlns="http://www.w3.org/2000/svg">
<path d="M271.078 0H286.068C310.448 1.27333 334.684 3.88667 358.778 7.84C360.444 8.11333 363.184 8.33333 366.998 8.5C396.538 9.77333 432.901 11.5267 476.088 13.76C490.708 17.2733 502.928 19.42 512.748 20.2C526.608 21.3 539.688 22.4467 551.988 23.64C557.828 24.2067 563.248 25.1633 568.248 26.51C581.958 30.21 593.438 33.85 607.758 37.05C608.291 37.17 608.454 37.4867 608.248 38L608.088 38.39C607.901 38.85 607.558 39.0667 607.058 39.04C597.024 38.4667 587.131 37.9167 577.378 37.39C576.084 37.3233 574.584 37 572.878 36.42C571.411 35.9267 569.921 35.5733 568.408 35.36C562.408 34.52 556.721 34.5933 551.348 35.58C548.198 36.15 544.518 37.51 541.348 36.08C536.788 34.03 530.828 34.65 525.748 35.05C524.874 35.1233 523.218 35.0033 520.778 34.69C517.204 34.37 513.638 33.9867 510.078 33.54C506.204 33.0533 502.611 32.7533 499.298 32.64C493.631 32.4467 487.814 32.26 481.848 32.08C478.261 31.9667 474.614 31.6733 470.908 31.2C466.961 30.6867 463.151 30.1767 459.478 29.67C454.944 29.0433 449.641 28.73 443.568 28.73C433.881 28.7367 421.661 28.63 406.908 28.41C393.068 28.2033 369.181 27.9333 335.248 27.6C333.781 27.58 332.281 27.57 330.748 27.57C319.068 27.5433 303.318 27.2167 283.498 26.59C282.958 26.57 281.994 26.6867 280.608 26.94C280.286 26.999 279.984 27.1364 279.728 27.34C276.338 30.1 272.568 31.05 268.218 30.12C260.498 28.4733 252.474 27.68 244.148 27.74C239.918 27.77 235.758 28.36 231.528 28.83C231.181 28.87 230.898 29.0233 230.678 29.29L230.288 29.76C230.074 30.0267 229.794 30.1633 229.448 30.17C208.128 30.5833 186.811 31.0267 165.498 31.5C164.191 31.5267 162.391 30.72 160.098 29.08C158.898 28.22 157.658 27.42 156.178 27.43C153.571 27.4433 150.931 27.48 148.258 27.54C145.838 27.5933 143.281 27.3033 140.588 26.67C138.294 26.1367 135.934 25.63 133.508 25.15C128.088 24.08 122.288 24.52 116.818 24.52C116.511 24.52 116.261 24.4033 116.068 24.17L114.508 22.29C136.101 18.1633 157.798 14.7433 179.598 12.03C183.351 11.5633 187.604 10.9633 192.358 10.23C196.738 9.55667 200.991 8.96667 205.118 8.46L219.468 9.55C219.841 9.58333 220.151 9.45667 220.398 9.17C220.604 8.93 220.764 8.66 220.878 8.36C221.011 7.99333 221.271 7.81 221.658 7.81C229.724 7.79667 236.361 7.60667 241.568 7.24C246.914 6.86667 250.974 6.31333 253.748 5.58C258.948 4.2 264.158 2.89 269.378 1.65C269.958 1.51 270.321 1.03 270.468 0.21C270.474 0.423333 270.678 0.353333 271.078 0Z" fill="#0A82C7"/>
<path d="M270.467 0.209961C270.321 1.02996 269.957 1.50996 269.377 1.64996C264.157 2.88996 258.947 4.19996 253.747 5.57996C250.974 6.31329 246.914 6.86663 241.567 7.23996C236.361 7.60663 229.724 7.79663 221.657 7.80996C221.271 7.80996 221.011 7.99329 220.877 8.35996C220.764 8.65996 220.604 8.92996 220.397 9.16996C220.151 9.45663 219.841 9.58329 219.467 9.54996L205.117 8.45996C211.204 7.35329 217.157 6.29663 222.977 5.28996C228.464 4.34329 233.827 3.56996 239.067 2.96996C244.454 2.35663 249.847 1.77996 255.247 1.23996C260.314 0.733294 265.387 0.389961 270.467 0.209961Z" fill="#1CAACD" fill-opacity="0.988"/>
<path d="M1438 2.66016V10.9102C1429.92 10.2702 1421.91 9.12016 1413.96 7.46016L1438 2.66016Z" fill="#0C1B34"/>
<path d="M1413.96 7.45996C1421.91 9.11996 1429.92 10.27 1438 10.91V13.09C1435.98 13.9433 1433.89 14.54 1431.72 14.88C1429.91 15.1666 1427.77 15.0966 1425.29 14.67C1422.82 14.25 1420.55 14.0366 1418.5 14.03C1413.88 14.01 1408.96 13.9966 1403.75 13.99C1395.41 13.9766 1387.03 13.4533 1378.6 12.42L1413.96 7.45996Z" fill="#0D6E9D"/>
<path d="M890.943 11.12C892.743 11.8867 894.596 12.4834 896.503 12.91C899.496 13.57 901.38 14.0167 902.153 14.25C909.863 16.59 917.693 18.79 925.183 21.52C930.136 23.32 935.076 25.1367 940.003 26.97C942.276 27.55 944.526 28.1434 946.753 28.75C948.326 29.1767 951.27 30.77 955.583 33.53C957.723 34.91 960.533 36.15 963.153 36.68C965.866 37.2334 968.786 37.94 971.913 38.8C974.973 39.64 975.303 42.88 972.743 44.75C972.176 44.9767 971.513 44.9667 970.753 44.72C954.526 39.4534 938.713 33.76 923.313 27.64C914.72 24.2267 908.46 21.9334 904.533 20.76C897.346 18.62 890.563 17 884.183 15.9C881.59 15.46 878.996 15.0067 876.403 14.54C873.743 14.0734 871.126 13.7334 868.553 13.52C856.993 12.5667 845.293 12.29 833.453 12.69C852.593 9.33671 871.756 8.81338 890.943 11.12Z" fill="#5F8EC1"/>
<path d="M890.938 11.1201C896.604 11.5135 902.264 11.8701 907.917 12.1901C914.997 12.5901 922.054 13.2335 929.088 14.1201C933.028 14.6135 936.528 15.3868 939.588 16.4401C941.048 17.9601 942.374 19.3735 943.568 20.6801C945.068 22.3201 946.687 22.4601 948.717 22.5401C949.144 22.5601 949.261 22.7635 949.068 23.1501C948.048 25.2101 944.847 25.3201 942.867 25.1101C941.537 24.9701 940.567 25.8601 939.997 26.9701C935.071 25.1368 930.131 23.3201 925.177 21.5201C917.687 18.7901 909.858 16.5901 902.148 14.2501C901.374 14.0168 899.491 13.5701 896.497 12.9101C894.591 12.4835 892.737 11.8868 890.938 11.1201Z" fill="#105797"/>
<path d="M1378.6 12.4199C1387.03 13.4533 1395.41 13.9766 1403.75 13.9899C1408.96 13.9966 1413.88 14.0099 1418.5 14.0299C1420.55 14.0366 1422.82 14.2499 1425.29 14.6699C1427.77 15.0966 1429.91 15.1666 1431.72 14.8799C1433.89 14.5399 1435.98 13.9433 1438 13.0899V22.0899C1430.16 21.4899 1422.32 21.0633 1414.48 20.8099C1411.31 20.7099 1408.5 20.5533 1406.03 20.3399C1403.23 20.0866 1400.43 19.8199 1397.63 19.5399C1396.82 19.4533 1396.02 19.3666 1395.22 19.2799C1381.7 17.8133 1367.86 16.7033 1353.71 15.9499L1378.6 12.4199Z" fill="#8097D1"/>
<path d="M833.451 12.69C845.291 12.29 856.991 12.5667 868.551 13.52C871.124 13.7334 873.741 14.0734 876.401 14.54C878.994 15.0067 881.588 15.46 884.181 15.9C890.561 17 897.344 18.62 904.531 20.76C908.458 21.9334 914.718 24.2267 923.311 27.64C938.711 33.76 954.524 39.4534 970.751 44.72C971.511 44.9667 972.174 44.9767 972.741 44.75C972.821 44.81 972.884 44.8934 972.931 45C972.968 45.0835 973.025 45.1569 973.096 45.2142C973.168 45.2716 973.251 45.3113 973.341 45.33C988.061 48.5034 1002.77 51.7134 1017.46 54.96C1022.4 56.0534 1027.35 57.2667 1032.32 58.6C1039.39 60.4934 1044.33 61.9167 1047.13 62.87C1062.4 68.05 1077.69 73.2534 1093 78.48C1099.79 80.8 1105.65 82.2934 1110.56 82.96C1115.48 83.6334 1121.43 83.6 1128.4 82.86C1136.33 82.0267 1143.86 80.8067 1150.99 79.2C1151.06 79.185 1151.12 79.1546 1151.18 79.1111C1151.23 79.0676 1151.27 79.0122 1151.3 78.9493C1151.33 78.8864 1151.34 78.8177 1151.34 78.7484C1151.34 78.6791 1151.32 78.6113 1151.29 78.55C1151.17 78.33 1150.99 78.2 1150.74 78.16C1142.27 76.7934 1134.33 74.31 1126.92 70.71C1123.32 68.96 1119.58 67.7 1115.68 66.96C1114.56 66.7467 1113.72 66.1034 1113.15 65.03C1111.88 62.6234 1110.41 60.98 1108.76 60.1C1106.85 59.08 1104.64 58.0834 1102.13 57.11C1095.32 54.4834 1088.48 52.4267 1081.61 50.94C1080.42 50.69 1079.67 49.87 1079 48.93C1078.83 48.6893 1078.73 48.4065 1078.71 48.1124C1078.69 47.8182 1078.75 47.5241 1078.88 47.262C1079.02 47 1079.22 46.7801 1079.48 46.6263C1079.73 46.4725 1080.02 46.3908 1080.31 46.39C1083.62 46.3834 1087.09 46.8834 1090.71 47.89C1093.62 48.6967 1096.6 49.66 1099.63 50.78C1114.93 57.2734 1130.37 63.6834 1145.96 70.01C1152.63 72.7167 1157.51 74.1634 1160.58 74.35C1170.31 74.93 1177.07 75.34 1180.85 75.58C1192.86 76.34 1205.61 78.7834 1219.12 82.91C1219.66 83.0767 1220.02 83.2967 1220.19 83.57C1220.5 85.2767 1222.04 86.7767 1224.79 88.07C1220.74 88.37 1216.07 88.0667 1210.8 87.16C1201.08 85.49 1191.19 83.33 1181.84 84.09C1174.33 84.7034 1167.15 85.3134 1160.3 85.92C1160.19 85.9299 1160.09 85.9648 1160 86.022C1159.91 86.0792 1159.84 86.1569 1159.78 86.2488C1159.73 86.3407 1159.7 86.4441 1159.69 86.5504C1159.69 86.6567 1159.71 86.7628 1159.75 86.86C1159.97 87.34 1160.34 87.55 1160.86 87.49C1162.01 87.3567 1163.15 87.4634 1164.26 87.81C1164.55 87.8967 1164.84 87.9067 1165.13 87.84C1166.52 87.52 1167.96 87.52 1169.43 87.84C1169.66 87.8915 1169.87 88.0152 1170.02 88.1911C1170.16 88.3671 1170.25 88.5852 1170.25 88.81C1170.25 88.81 1170.09 88.9634 1169.76 89.27C1168.55 89.37 1167.4 89.7134 1166.3 90.3L1136.08 91.66C1129.17 91.3734 1122.4 90.83 1115.79 90.03C1113.38 89.7434 1111.03 89.2267 1108.74 88.48C1094.95 84.0067 1081.51 79.69 1068.44 75.53C1062.13 73.5234 1055.82 71.4734 1049.49 69.38C1037.98 65.58 1028.31 62.7367 1020.48 60.85C1010.87 58.5367 998.981 56.0034 984.801 53.25C978.301 51.99 968.881 49.3667 956.541 45.38C955.131 44.93 953.971 44.04 952.591 43.66C951.684 43.4134 950.788 43.1167 949.901 42.77C945.988 41.23 942.128 39.65 938.321 38.03C935.168 36.69 931.788 35.4 928.181 34.16C924.914 33.04 921.521 31.84 918.001 30.56C910.861 27.9734 900.824 25.0667 887.891 21.84C885.411 21.22 882.778 20.6567 879.991 20.15C877.158 19.6367 874.454 19.3067 871.881 19.16C864.141 18.7134 856.204 18.7034 848.071 19.13C835.241 19.8 823.221 19.21 810.991 19.58C800.431 19.8934 789.631 20.24 778.591 20.62C771.818 20.8534 765.091 20.8834 758.411 20.71C744.711 20.35 731.034 20.49 717.381 21.13C710.861 21.4367 700.068 21.4067 685.001 21.04C679.474 20.9 665.721 21.0367 643.741 21.45C638.094 21.5567 632.508 21.0767 626.981 20.01C623.594 19.3634 620.421 18.28 617.461 16.76C624.434 15.66 629.868 14.99 633.761 14.75C639.194 14.4167 645.558 14.2734 652.851 14.32C657.104 14.3467 662.254 14.7467 668.301 15.52C675.554 16.4467 683.091 17.0634 690.911 17.37C710.878 18.15 729.698 18.4234 747.371 18.19C747.901 18.19 748.241 17.99 748.751 17.99C777.178 17.9167 805.411 16.15 833.451 12.69Z" fill="#0D4A7C"/>
<path d="M1353.71 15.9502C1367.86 16.7035 1381.7 17.8135 1395.22 19.2802C1396.02 19.3669 1396.82 19.4535 1397.63 19.5402C1400.43 19.8202 1403.23 20.0869 1406.03 20.3402C1408.5 20.5535 1411.31 20.7102 1414.48 20.8102C1422.32 21.0635 1430.16 21.4902 1438 22.0902V29.7502C1425.07 28.7502 1412.18 28.4469 1399.34 28.8402C1399.08 28.8475 1398.83 28.9267 1398.61 29.069C1398.39 29.2114 1398.21 29.4115 1398.1 29.6472C1397.99 29.8829 1397.94 30.1451 1397.97 30.405C1397.99 30.6649 1398.09 30.9124 1398.25 31.1202C1399.22 32.4135 1400.37 33.4969 1401.7 34.3702C1401.78 34.4198 1401.84 34.486 1401.88 34.5636C1401.93 34.6413 1401.96 34.7283 1401.96 34.818C1401.97 34.9078 1401.96 34.9979 1401.92 35.0815C1401.89 35.1651 1401.84 35.2399 1401.77 35.3002L1398.46 38.2402C1398.23 38.4456 1398.04 38.6947 1397.91 38.9732C1397.77 39.2516 1397.7 39.554 1397.68 39.8627C1397.66 40.1714 1397.71 40.4803 1397.81 40.7717C1397.91 41.0631 1398.07 41.3311 1398.28 41.5602C1398.84 42.1735 1399.59 42.5902 1400.54 42.8102C1413.05 45.6835 1425.53 48.5502 1438 51.4102V57.5902C1432.83 55.4969 1429.33 54.2335 1427.49 53.8002C1419.18 51.8202 1410.82 50.1835 1402.39 48.8902C1398.26 48.2602 1394.25 47.0802 1390.19 46.3702C1387.08 45.8235 1384.36 45.0102 1382.02 43.9302C1379.39 42.7235 1376.81 41.5802 1374.27 40.5002C1370.42 38.8669 1365.77 37.0169 1360.34 34.9502C1346 29.4969 1331.25 27.0602 1316.08 27.6402C1314.58 26.3735 1312.71 25.8369 1310.48 26.0302C1310.43 26.0368 1310.39 26.0368 1310.35 26.0302L1295.39 23.6302L1353.71 15.9502Z" fill="#8FBBE7"/>
<path d="M939.594 16.4404C942.86 16.9538 945.687 17.9071 948.074 19.3004C948.4 19.4871 948.747 19.5504 949.114 19.4904C949.58 19.4171 949.867 19.6071 949.974 20.0604C949.993 20.1477 950.032 20.2297 950.086 20.3009C950.14 20.3721 950.21 20.431 950.289 20.4736C950.369 20.5161 950.456 20.5414 950.547 20.5478C950.637 20.5542 950.728 20.5414 950.814 20.5104C951.394 20.2971 951.77 20.4771 951.944 21.0504C951.999 21.2287 952.123 21.3781 952.287 21.466C952.452 21.554 952.645 21.5735 952.824 21.5204C953.317 21.3671 953.707 21.5004 953.994 21.9204C954.214 22.2338 954.494 22.4838 954.834 22.6704C955.56 23.0638 956.314 23.4638 957.094 23.8704C957.867 24.2704 958.604 24.7271 959.304 25.2404C964.257 28.8538 968.754 32.7404 972.794 36.9004C973.774 37.9138 974.8 38.6904 975.874 39.2304C977.804 40.2104 979.814 41.4704 981.984 41.6704C982.597 41.7238 983.177 41.8838 983.724 42.1504C984.25 42.4038 984.807 42.5638 985.394 42.6304C991.314 43.2904 997.517 43.4938 1004 43.2404C1013.11 42.8871 1022.21 42.3604 1031.3 41.6604C1038.99 41.0671 1045.63 40.5671 1051.23 40.1604C1061.74 39.3871 1072.01 38.4204 1082.05 37.2604C1084.59 39.0138 1087.54 40.1171 1090.92 40.5704C1091.28 40.6171 1091.59 40.7638 1091.85 41.0104C1092.28 41.4038 1092.77 41.7204 1093.31 41.9604C1093.95 42.2338 1094.54 42.6638 1095.08 43.2504C1097.12 45.4171 1098.63 47.9271 1099.63 50.7804C1096.6 49.6604 1093.63 48.6971 1090.71 47.8904C1087.09 46.8838 1083.63 46.3838 1080.31 46.3904C1080.02 46.3912 1079.73 46.4729 1079.48 46.6267C1079.23 46.7805 1079.02 47.0004 1078.89 47.2624C1078.75 47.5245 1078.69 47.8186 1078.71 48.1128C1078.73 48.4069 1078.83 48.6897 1079 48.9304C1079.67 49.8704 1080.42 50.6904 1081.61 50.9404C1088.49 52.4271 1095.33 54.4838 1102.13 57.1104C1104.65 58.0838 1106.86 59.0804 1108.76 60.1004C1110.42 60.9804 1111.88 62.6238 1113.15 65.0304C1113.72 66.1038 1114.56 66.7471 1115.68 66.9604C1119.58 67.7004 1123.32 68.9604 1126.92 70.7104C1134.33 74.3104 1142.27 76.7938 1150.74 78.1604C1150.99 78.2004 1151.17 78.3304 1151.29 78.5504C1151.33 78.6116 1151.34 78.6795 1151.35 78.7488C1151.35 78.818 1151.33 78.8868 1151.3 78.9497C1151.28 79.0126 1151.23 79.068 1151.18 79.1115C1151.12 79.155 1151.06 79.1854 1150.99 79.2004C1143.87 80.8071 1136.34 82.0271 1128.4 82.8604C1121.43 83.6004 1115.48 83.6338 1110.56 82.9604C1105.65 82.2938 1099.8 80.8004 1093 78.4804C1077.7 73.2538 1062.41 68.0504 1047.13 62.8704C1044.33 61.9171 1039.4 60.4938 1032.32 58.6004C1027.36 57.2671 1022.4 56.0538 1017.46 54.9604C1002.77 51.7138 988.064 48.5038 973.344 45.3304C973.254 45.3117 973.17 45.272 973.099 45.2146C973.028 45.1573 972.971 45.0839 972.934 45.0004C972.887 44.8938 972.824 44.8104 972.744 44.7504C975.304 42.8804 974.974 39.6404 971.914 38.8004C968.787 37.9404 965.867 37.2338 963.154 36.6804C960.534 36.1504 957.724 34.9104 955.584 33.5304C951.27 30.7704 948.327 29.1771 946.754 28.7504C944.527 28.1438 942.277 27.5504 940.004 26.9704C940.574 25.8604 941.544 24.9704 942.874 25.1104C944.854 25.3204 948.054 25.2104 949.074 23.1504C949.267 22.7638 949.15 22.5604 948.724 22.5404C946.694 22.4604 945.074 22.3204 943.574 20.6804C942.38 19.3738 941.054 17.9604 939.594 16.4404Z" fill="#0D6E9D"/>
<path d="M114.511 22.29L116.071 24.17C116.264 24.4034 116.514 24.52 116.821 24.52C122.291 24.52 128.091 24.08 133.511 25.15C135.938 25.63 138.298 26.1367 140.591 26.67C143.284 27.3034 145.841 27.5934 148.261 27.54C150.934 27.48 153.574 27.4434 156.181 27.43C157.661 27.42 158.901 28.22 160.101 29.08C162.394 30.72 164.194 31.5267 165.501 31.5C186.814 31.0267 208.131 30.5834 229.451 30.17C229.798 30.1634 230.078 30.0267 230.291 29.76L230.681 29.29C230.901 29.0234 231.184 28.87 231.531 28.83C235.761 28.36 239.921 27.77 244.151 27.74C252.478 27.68 260.501 28.4734 268.221 30.12C272.571 31.05 276.341 30.1 279.731 27.34C279.987 27.1364 280.289 26.999 280.611 26.94C281.998 26.6867 282.961 26.57 283.501 26.59C303.321 27.2167 319.071 27.5434 330.751 27.57C332.284 27.57 333.784 27.58 335.251 27.6C369.184 27.9334 393.071 28.2034 406.911 28.41C421.664 28.63 433.884 28.7367 443.571 28.73C449.644 28.73 454.948 29.0434 459.481 29.67C463.154 30.1767 466.964 30.6867 470.911 31.2C474.618 31.6734 478.264 31.9667 481.851 32.08C487.818 32.26 493.634 32.4467 499.301 32.64C502.614 32.7534 506.208 33.0534 510.081 33.54C513.641 33.9867 517.208 34.37 520.781 34.69C519.201 34.7367 517.628 34.91 516.061 35.21C513.934 35.6167 512.378 35.86 511.391 35.94C502.031 36.7067 492.648 37.2934 483.241 37.7C482.908 37.7134 482.598 37.8067 482.311 37.98C479.431 39.7734 476.428 40.2134 473.301 39.3C467.194 37.5134 461.734 36.5134 456.921 36.3C433.188 35.2334 412.874 35.24 395.981 36.32C378.941 37.4067 361.204 38.9067 342.771 40.82C338.618 41.2534 333.128 42.0367 326.301 43.17C316.901 44.7434 307.064 45.1734 296.791 44.46C284.771 43.6334 273.258 43.34 262.251 43.58C256.591 43.71 252.501 40.29 246.771 40.59C233.164 41.31 218.974 43.0434 204.201 45.79C203.301 45.9634 202.664 46.4367 202.291 47.21C202.158 47.4967 202.194 47.7567 202.401 47.99C202.688 48.31 202.864 48.8667 202.931 49.66L176.581 51.11C173.534 50.5967 170.914 50.3434 168.721 50.35C162.308 50.37 155.064 50.63 146.991 51.13C143.964 51.3167 140.934 51.3334 137.901 51.18C113.568 49.9267 87.2976 49.3367 59.0909 49.41C51.0243 49.43 36.3143 48.5067 14.9609 46.64C14.5476 46.6067 14.1409 46.6167 13.7409 46.67C13.1743 46.7367 12.8309 46.5034 12.7109 45.97C46.2043 36.2767 80.1376 28.3834 114.511 22.29Z" fill="#12478A"/>
<path d="M1295.39 23.6299L1310.35 26.0299C1310.39 26.0365 1310.44 26.0365 1310.48 26.0299C1312.72 25.8366 1314.58 26.3732 1316.08 27.6399L1269.97 31.6999C1262.53 32.0199 1254.88 32.2032 1247 32.2499C1242.22 32.2832 1237.92 32.6766 1234.12 33.4299C1232 33.8499 1231.95 34.4532 1233.96 35.2399C1235.24 35.7399 1236.51 36.1432 1237.76 36.4499C1250.82 39.6766 1263.98 42.3632 1277.26 44.5099C1278.11 44.6432 1279.56 44.6399 1281.62 44.4999L1324.65 47.4599C1326.09 47.5732 1327.63 47.6399 1329.25 47.6599C1342 47.7866 1354.97 47.8232 1368.15 47.7699C1368.73 47.7682 1369.3 47.5511 1369.73 47.1601C1370.16 46.769 1370.44 46.2314 1370.5 45.6499C1370.5 45.6232 1370.61 45.1766 1370.81 44.3099C1371.39 44.2032 1371.89 44.3365 1372.33 44.7099C1372.59 44.9299 1372.82 45.3465 1373.01 45.9599C1374.01 49.1465 1376.12 50.8665 1379.35 51.1199C1382.99 51.3932 1385.73 51.9866 1387.58 52.8999C1374.78 53.4599 1361.44 53.0799 1349.35 53.5999C1342.23 53.9065 1336.12 54.1366 1331.04 54.2899C1312.43 54.8432 1293.5 53.7232 1274.26 50.9299C1263.44 49.3632 1250.1 45.9865 1234.23 40.7999C1231.43 39.8799 1224.83 38.2799 1214.42 35.9999C1220.1 34.2199 1225.38 32.7566 1230.25 31.6099C1233.56 30.8232 1236.88 30.1065 1240.21 29.4599C1242.31 29.0465 1246.81 28.6666 1253.73 28.3199C1258.7 28.0666 1263.2 27.6932 1267.24 27.1999C1276.68 26.0532 1286.06 24.8632 1295.39 23.6299Z" fill="#0D6E9D"/>
<path d="M1316.08 27.6403C1331.25 27.0603 1346 29.4969 1360.34 34.9503C1365.77 37.0169 1370.42 38.8669 1374.27 40.5003C1376.81 41.5803 1379.39 42.7236 1382.02 43.9303C1384.36 45.0103 1387.08 45.8236 1390.19 46.3703C1394.25 47.0803 1398.26 48.2603 1402.39 48.8903C1410.82 50.1836 1419.18 51.8203 1427.49 53.8003C1429.33 54.2336 1432.83 55.4969 1438 57.5903V69.0803L1414.28 62.7303C1413.73 62.5798 1413.23 62.2827 1412.83 61.8703C1411.14 60.1369 1409.38 59.2769 1407.53 59.2903C1406.31 59.2969 1405.08 59.0603 1403.83 58.5803C1400.01 57.1103 1396.46 55.2203 1392.47 54.2603C1390.78 53.8469 1389.15 53.3936 1387.58 52.9003C1385.73 51.9869 1382.98 51.3936 1379.35 51.1203C1376.12 50.8669 1374 49.1469 1373.01 45.9603C1372.82 45.3469 1372.59 44.9303 1372.33 44.7103C1371.89 44.3369 1371.38 44.2036 1370.81 44.3103C1369.29 44.4303 1368.06 44.5403 1366.65 43.9203C1358.52 40.3069 1352.27 38.1169 1347.9 37.3503C1342.68 36.4369 1333.71 35.4436 1321 34.3703C1307.75 33.2569 1290.74 32.3669 1269.97 31.7003L1316.08 27.6403Z" fill="#105797"/>
<path d="M1438 29.7504V51.4104C1425.53 48.5504 1413.04 45.6837 1400.54 42.8104C1399.59 42.5904 1398.84 42.1737 1398.28 41.5604C1398.07 41.3312 1397.91 41.0632 1397.81 40.7719C1397.7 40.4805 1397.66 40.1716 1397.68 39.8629C1397.69 39.5542 1397.77 39.2518 1397.9 38.9733C1398.04 38.6949 1398.23 38.4457 1398.46 38.2404L1401.77 35.3004C1401.83 35.2401 1401.89 35.1652 1401.92 35.0817C1401.95 34.9981 1401.97 34.908 1401.96 34.8182C1401.95 34.7285 1401.93 34.6414 1401.88 34.5638C1401.84 34.4862 1401.77 34.42 1401.7 34.3704C1400.37 33.497 1399.22 32.4137 1398.25 31.1204C1398.09 30.9126 1397.99 30.6651 1397.96 30.4052C1397.94 30.1453 1397.98 29.8831 1398.1 29.6474C1398.21 29.4117 1398.38 29.2116 1398.6 29.0692C1398.82 28.9268 1399.08 28.8477 1399.34 28.8404C1412.18 28.447 1425.06 28.7504 1438 29.7504Z" fill="#0A8FD4"/>
<path d="M1269.97 31.7002C1290.74 32.3669 1307.75 33.2569 1321 34.3702C1333.72 35.4435 1342.68 36.4369 1347.9 37.3502C1352.28 38.1169 1358.53 40.3069 1366.65 43.9202C1368.06 44.5402 1369.29 44.4302 1370.81 44.3102C1370.61 45.1769 1370.5 45.6235 1370.5 45.6502C1370.44 46.2317 1370.16 46.7693 1369.73 47.1604C1369.3 47.5514 1368.74 47.7685 1368.15 47.7702C1354.97 47.8235 1342 47.7869 1329.25 47.6602C1327.63 47.6402 1326.09 47.5735 1324.65 47.4602C1322.95 46.6602 1321.15 46.1069 1319.25 45.8002C1312.87 44.7869 1306.45 44.1569 1299.99 43.9102C1297.37 43.8102 1293.7 43.6135 1289 43.3202C1286.48 43.1602 1284.02 43.5535 1281.62 44.5002C1279.56 44.6402 1278.11 44.6435 1277.26 44.5102C1263.98 42.3635 1250.82 39.6769 1237.76 36.4502C1236.51 36.1435 1235.24 35.7402 1233.96 35.2402C1231.95 34.4535 1232 33.8502 1234.12 33.4302C1237.92 32.6769 1242.22 32.2835 1247 32.2502C1254.88 32.2035 1262.53 32.0202 1269.97 31.7002Z" fill="#299DD2"/>
<path d="M1214.42 35.9999C1224.82 38.2799 1231.43 39.8799 1234.23 40.7999C1250.09 45.9866 1263.44 49.3633 1274.26 50.9299C1293.5 53.7233 1312.42 54.8433 1331.04 54.2899C1336.12 54.1366 1342.22 53.9066 1349.35 53.5999C1361.44 53.0799 1374.78 53.4599 1387.58 52.8999C1389.14 53.3933 1390.77 53.8466 1392.47 54.2599C1396.46 55.2199 1400.01 57.1099 1403.83 58.5799C1405.07 59.0599 1406.31 59.2966 1407.53 59.2899C1409.37 59.2766 1411.14 60.1366 1412.83 61.8699C1413.23 62.2824 1413.73 62.5794 1414.28 62.7299L1438 69.0799V93.3699C1432.75 93.2233 1427.5 93.0666 1422.25 92.8999C1416.28 92.7133 1410.25 92.0299 1404.17 90.8499C1398.51 89.7499 1393 89.0033 1387.65 88.6099C1386.18 88.5033 1384.7 88.4733 1383.2 88.5199C1381.77 88.5666 1380.4 88.7199 1379.1 88.9799C1375.21 89.7533 1371.33 90.5099 1367.46 91.2499C1364.64 91.7966 1361.28 91.9733 1357.38 91.7799C1337.08 90.7733 1320.99 90.3533 1309.11 90.5199C1300.83 90.6399 1290.31 91.2899 1277.55 92.4699C1273.54 92.8399 1269.49 92.4799 1265.42 92.8499C1263.56 93.0166 1260.83 92.9299 1257.25 92.5899C1244.3 91.3766 1232.29 88.2833 1221.22 83.3099C1220.96 83.1966 1220.62 83.2833 1220.19 83.5699C1220.01 83.2966 1219.66 83.0766 1219.12 82.9099C1205.61 78.7833 1192.85 76.3399 1180.85 75.5799C1177.07 75.3399 1170.31 74.9299 1160.58 74.3499C1157.5 74.1633 1152.63 72.7166 1145.96 70.0099C1130.37 63.6833 1114.93 57.2733 1099.63 50.7799C1098.63 47.9266 1097.11 45.4166 1095.08 43.2499C1094.53 42.6633 1093.94 42.2333 1093.31 41.9599C1092.76 41.7199 1092.27 41.4033 1091.85 41.0099C1091.58 40.7633 1091.27 40.6166 1090.92 40.5699C1087.54 40.1166 1084.58 39.0133 1082.05 37.2599C1085.45 36.2866 1088.02 35.7899 1089.75 35.7699C1094.27 35.7233 1098.77 35.4099 1103.25 34.8299C1106.31 34.4366 1112.54 34.5366 1121.95 35.1299C1136.33 36.0366 1151.03 37.3699 1166.05 39.1299C1169.1 39.4899 1173.68 39.3899 1177.16 38.7399C1180.08 38.1866 1183 37.6333 1185.91 37.0799C1188.69 36.5599 1192.26 36.5599 1195.09 36.8399C1201.93 37.5333 1208.37 37.2533 1214.42 35.9999Z" fill="#0A8FD4"/>
<path d="M1324.65 47.4599L1281.62 44.4999C1284.02 43.5532 1286.48 43.1599 1289 43.3199C1293.7 43.6132 1297.36 43.8099 1299.99 43.9099C1306.45 44.1565 1312.87 44.7865 1319.25 45.7999C1321.15 46.1065 1322.95 46.6599 1324.65 47.4599Z" fill="#0A8FD4"/>
<path d="M12.7091 45.9697C12.8291 46.5031 13.1724 46.7364 13.7391 46.6697C14.1391 46.6164 14.5457 46.6064 14.9591 46.6397C36.3124 48.5064 51.0224 49.4297 59.0891 49.4097C87.2957 49.3364 113.566 49.9264 137.899 51.1797C140.932 51.3331 143.962 51.3164 146.989 51.1297C155.062 50.6297 162.306 50.3697 168.719 50.3497C170.912 50.3431 173.532 50.5964 176.579 51.1097C170.026 53.7164 163.422 55.8097 156.769 57.3897C152.189 58.4797 148.059 58.8397 143.049 58.3297C119.829 55.9697 96.4624 55.3297 72.9491 56.4097C61.4191 56.9397 49.5491 57.5697 38.3591 56.8797C28.7657 56.2997 21.3991 55.4731 16.2591 54.3997C10.8391 53.2731 5.4324 52.1131 0.0390625 50.9197C0.952396 49.4197 2.03906 48.5564 3.29906 48.3297C6.5324 47.7564 9.66906 46.9697 12.7091 45.9697Z" fill="#0C1B34"/>
<path d="M1062.94 98.19L1062.77 98.99C1062.75 99.1227 1062.69 99.2458 1062.6 99.3471C1062.51 99.4484 1062.39 99.5245 1062.26 99.5679C1062.13 99.6113 1061.99 99.6205 1061.86 99.5945C1061.72 99.5686 1061.6 99.5085 1061.49 99.42C1058.91 97.21 1056.05 94.93 1054.32 91.93C1053.36 90.2567 1051.97 89.0634 1050.14 88.35C1047.42 87.3 1045.6 84.72 1044.22 82.24C1044.16 82.1318 1044.13 82.01 1044.13 81.8861C1044.13 81.7623 1044.17 81.6408 1044.23 81.5332C1044.29 81.4256 1044.38 81.3357 1044.48 81.2721C1044.59 81.2085 1044.71 81.1733 1044.83 81.17C1048.28 81.07 1051.65 81.73 1054.94 83.15C1061.28 85.89 1067.23 87.7267 1072.8 88.66C1075.98 89.1867 1079.3 89.5567 1082.78 89.77C1086.42 89.99 1088.74 93.96 1091.99 94.97C1094.83 95.86 1097.22 96.17 1099.85 98.68C1103.27 101.95 1108.4 98.57 1110.7 104.18C1110.81 104.437 1110.84 104.717 1110.81 104.991C1110.77 105.266 1110.66 105.526 1110.49 105.745C1110.32 105.964 1110.09 106.134 1109.84 106.239C1109.58 106.343 1109.3 106.378 1109.02 106.34L1103.36 105.55C1103.02 105.503 1102.69 105.387 1102.39 105.2C1101.97 104.94 1101.51 104.763 1101.03 104.67C1100.68 104.603 1100.37 104.453 1100.1 104.22C1097.01 101.53 1092.73 101.3 1088.6 101.86C1086.23 102.18 1083.82 102.377 1081.36 102.45C1075.44 102.63 1069.55 101.093 1063.71 97.84C1063.3 97.6067 1063.04 97.7234 1062.94 98.19Z" fill="#1CAACD" fill-opacity="0.988"/>
<path d="M1438 93.3699V104.89C1435.64 104.82 1433.36 104.89 1431.03 104.43C1423.11 102.863 1415.19 101.39 1407.25 100.01C1402.49 99.1832 1397.71 98.4666 1392.92 97.8599C1389.2 97.3899 1385.73 96.4399 1381.92 96.6299C1378.68 96.7966 1375.3 96.8366 1371.78 96.7499C1371.42 96.7406 1371.07 96.8371 1370.77 97.0274C1370.47 97.2176 1370.23 97.4932 1370.08 97.8199C1369.39 99.3399 1367.95 99.7199 1366.43 99.7199C1334.45 99.6999 1302.51 99.7032 1270.6 99.7299C1268.25 99.7299 1266.09 99.0399 1263.77 98.8799C1262.1 98.7666 1260.44 98.5299 1258.79 98.1699C1246.97 95.5899 1235.64 92.2232 1224.79 88.0699C1222.03 86.7766 1220.5 85.2766 1220.19 83.5699C1220.62 83.2832 1220.96 83.1966 1221.22 83.3099C1232.29 88.2832 1244.3 91.3766 1257.25 92.5899C1260.83 92.9299 1263.56 93.0166 1265.42 92.8499C1269.49 92.4799 1273.54 92.8399 1277.55 92.4699C1290.31 91.2899 1300.83 90.6399 1309.11 90.5199C1320.99 90.3532 1337.08 90.7732 1357.38 91.7799C1361.28 91.9732 1364.64 91.7966 1367.46 91.2499C1371.33 90.5099 1375.21 89.7532 1379.1 88.9799C1380.4 88.7199 1381.77 88.5666 1383.2 88.5199C1384.7 88.4732 1386.18 88.5032 1387.65 88.6099C1393 89.0032 1398.51 89.7499 1404.17 90.8499C1410.25 92.0299 1416.28 92.7132 1422.25 92.8999C1427.5 93.0666 1432.75 93.2232 1438 93.3699Z" fill="#0D6E9D"/>
<path d="M1224.79 88.0705C1235.65 92.2238 1246.98 95.5905 1258.79 98.1705C1260.45 98.5305 1262.11 98.7671 1263.77 98.8805C1266.09 99.0405 1268.25 99.7305 1270.6 99.7305C1302.52 99.7038 1334.46 99.7005 1366.43 99.7205C1367.95 99.7205 1369.39 99.3405 1370.08 97.8205C1370.23 97.4938 1370.47 97.2182 1370.78 97.028C1371.08 96.8377 1371.43 96.7412 1371.78 96.7505C1375.3 96.8372 1378.68 96.7971 1381.92 96.6305C1385.73 96.4405 1389.2 97.3905 1392.92 97.8605C1397.72 98.4672 1402.49 99.1838 1407.25 100.01C1415.19 101.39 1423.12 102.864 1431.03 104.43C1433.36 104.89 1435.64 104.82 1438 104.89V115.79C1422.78 115.797 1408.03 114.61 1393.76 112.23C1385.59 110.87 1376.35 109.197 1366.05 107.21C1353.53 104.79 1340.21 103.88 1326.09 104.48C1311.36 105.107 1298.07 105.544 1286.23 105.79C1272.99 106.064 1259.24 104.654 1244.98 101.56C1230.28 98.3671 1215.65 95.2205 1201.09 92.1205C1193.19 90.4405 1187.1 89.5871 1182.82 89.5605C1178.55 88.1938 1174.2 88.0971 1169.76 89.2705C1170.09 88.9638 1170.25 88.8105 1170.25 88.8105C1170.25 88.5856 1170.17 88.3676 1170.02 88.1916C1169.87 88.0156 1169.66 87.8919 1169.43 87.8405C1167.96 87.5205 1166.53 87.5205 1165.13 87.8405C1164.84 87.9071 1164.55 87.8971 1164.26 87.8105C1163.15 87.4638 1162.02 87.3571 1160.86 87.4905C1160.34 87.5505 1159.97 87.3405 1159.75 86.8605C1159.71 86.7633 1159.69 86.6571 1159.7 86.5508C1159.7 86.4445 1159.73 86.3411 1159.79 86.2493C1159.84 86.1574 1159.92 86.0796 1160.01 86.0224C1160.1 85.9653 1160.2 85.9303 1160.3 85.9205C1167.15 85.3138 1174.33 84.7038 1181.84 84.0905C1191.19 83.3305 1201.08 85.4905 1210.8 87.1605C1216.08 88.0672 1220.74 88.3705 1224.79 88.0705Z" fill="#105797"/>
<path d="M1182.82 89.5601C1179.52 90.7734 1175.98 91.2534 1172.21 91.0001C1170.23 91.1401 1168.26 90.9067 1166.3 90.3001C1167.4 89.7134 1168.55 89.37 1169.76 89.27C1174.19 88.0967 1178.54 88.1934 1182.82 89.5601Z" fill="#8097D1"/>
<path d="M1182.82 89.5596C1187.09 89.5862 1193.18 90.4396 1201.09 92.1196C1215.65 95.2196 1230.28 98.3662 1244.98 101.56C1259.24 104.653 1272.99 106.063 1286.23 105.79C1298.07 105.543 1311.35 105.106 1326.09 104.48C1340.2 103.88 1353.52 104.79 1366.05 107.21C1376.35 109.196 1385.58 110.87 1393.76 112.23C1408.02 114.61 1422.77 115.796 1438 115.79V127.28C1429.12 126.913 1420.24 126.703 1411.35 126.65C1410.17 126.64 1409 125.98 1407.98 126.71C1407.67 126.93 1407.33 127.036 1406.96 127.03C1400.31 126.93 1394.03 126.96 1388.12 127.12C1386.47 127.166 1384.94 126.98 1383.52 126.56C1381.51 125.973 1379.34 125.843 1377 126.17C1376.72 126.21 1376.54 126.36 1376.44 126.62L1375.75 128.41C1369.33 126.003 1362.66 125.303 1355.75 126.31C1353.72 126.236 1351.47 126.086 1349.01 125.86C1338.35 124.893 1327.68 124.086 1317 123.44C1304.62 122.693 1291.96 121.9 1279 121.06C1267.26 120.293 1256.21 118.513 1245.85 115.72C1235.6 112.96 1225.38 110.046 1215.2 106.98C1211.2 105.78 1207.8 104.976 1205 104.57C1200.81 103.963 1197.55 103.313 1195.23 102.62C1198.33 101.833 1201.26 101.963 1204.02 103.01C1204.38 103.143 1204.74 103.166 1205.11 103.08C1206.38 102.793 1207.63 102.843 1208.87 103.23C1208.92 103.247 1208.98 103.253 1209.04 103.245C1209.1 103.238 1209.15 103.218 1209.2 103.187C1209.25 103.155 1209.3 103.114 1209.33 103.064C1209.36 103.015 1209.39 102.958 1209.4 102.9L1209.45 102.61C1209.54 102.11 1209.35 101.773 1208.87 101.6C1206.03 100.6 1202.65 100.03 1200.09 98.4896C1197.65 97.0196 1195.27 95.7196 1192.34 95.4896C1190.3 95.3296 1188.3 95.0996 1186.34 94.7996C1184.9 94.5862 1183 94.6296 1180.62 94.9296C1177.96 95.2629 1175.33 95.2996 1172.72 95.0396C1172.51 95.0193 1172.31 94.9167 1172.17 94.7539C1172.04 94.5912 1171.97 94.3813 1171.99 94.1696L1172.21 90.9996C1175.98 91.2529 1179.52 90.7729 1182.82 89.5596Z" fill="#D6E8F1"/>
<path d="M1166.3 90.2998C1168.26 90.9065 1170.23 91.1398 1172.21 90.9998L1171.99 94.1698C1171.97 94.3816 1172.04 94.5914 1172.18 94.7542C1172.31 94.9169 1172.51 95.0195 1172.72 95.0398C1175.33 95.2998 1177.97 95.2631 1180.62 94.9298C1183 94.6298 1184.91 94.5865 1186.34 94.7998C1188.3 95.0998 1190.3 95.3298 1192.34 95.4898C1195.27 95.7198 1197.65 97.0198 1200.09 98.4898C1202.65 100.03 1206.03 100.6 1208.87 101.6C1209.35 101.773 1209.54 102.11 1209.45 102.61L1209.4 102.9C1209.39 102.959 1209.37 103.015 1209.33 103.064C1209.3 103.114 1209.26 103.156 1209.21 103.187C1209.16 103.218 1209.1 103.238 1209.04 103.245C1208.98 103.253 1208.92 103.248 1208.87 103.23C1207.64 102.843 1206.38 102.793 1205.11 103.08C1204.74 103.166 1204.38 103.143 1204.02 103.01C1201.27 101.963 1198.34 101.833 1195.23 102.62C1192.95 102.486 1190.19 101.856 1186.94 100.73C1186.19 100.476 1185.43 100.25 1184.66 100.05C1183.96 99.8698 1183.18 99.8131 1182.32 99.8798C1179.97 100.046 1177.45 100.106 1174.78 100.06C1172.91 100.566 1171.17 100.376 1169.56 99.4898C1168.77 99.0631 1168.01 98.7765 1167.27 98.6298C1166.62 98.5031 1165.91 98.5165 1165.13 98.6698C1162.68 99.1631 1162.63 99.8365 1164.98 100.69C1166.55 101.263 1168.02 101.793 1169.41 102.28C1169.45 102.293 1169.48 102.316 1169.51 102.35C1169.56 102.423 1169.61 102.496 1169.66 102.57C1169.86 102.89 1169.77 103.056 1169.39 103.07L1168.68 103.09L1128.15 95.8898C1127.42 95.7565 1127.06 95.3198 1127.08 94.5798C1127.09 94.1598 1127.21 93.8065 1127.43 93.5198C1128.16 92.5731 1129.03 92.1298 1130.02 92.1898C1131.9 92.2965 1133.92 92.1198 1136.08 91.6598L1166.3 90.2998Z" fill="#C4E5DF"/>
<path d="M1174.78 100.06C1175.83 100.693 1176.9 101.123 1178.01 101.35C1178.09 101.365 1178.16 101.397 1178.22 101.444C1178.28 101.49 1178.33 101.55 1178.36 101.619C1178.39 101.687 1178.41 101.763 1178.41 101.839C1178.41 101.916 1178.39 101.991 1178.36 102.06C1177.64 103.573 1176.51 104.05 1174.97 103.49C1174.51 103.323 1174.13 103.43 1173.83 103.81C1173.75 103.917 1173.66 104.007 1173.56 104.08C1173.29 104.287 1173 104.353 1172.67 104.28L1169.81 103.62C1169.29 103.48 1168.91 103.303 1168.68 103.09L1169.39 103.07C1169.77 103.057 1169.86 102.89 1169.66 102.57C1169.61 102.497 1169.56 102.423 1169.51 102.35C1169.48 102.317 1169.45 102.293 1169.41 102.28C1168.02 101.793 1166.55 101.263 1164.98 100.69C1162.63 99.8366 1162.68 99.1632 1165.13 98.6699C1165.91 98.5166 1166.62 98.5032 1167.27 98.6299C1168.01 98.7766 1168.77 99.0632 1169.56 99.4899C1171.17 100.377 1172.91 100.567 1174.78 100.06Z" fill="#8DCCD1" fill-opacity="0.992"/>
<path d="M1195.23 102.62C1197.56 103.313 1200.81 103.963 1205 104.57C1207.81 104.976 1211.21 105.78 1215.2 106.98C1225.39 110.046 1235.6 112.96 1245.85 115.72C1256.21 118.513 1267.26 120.293 1279 121.06C1291.96 121.9 1304.63 122.693 1317 123.44C1327.68 124.086 1338.35 124.893 1349.01 125.86C1351.48 126.086 1353.72 126.236 1355.75 126.31C1359.3 127.776 1363.19 128.233 1367.4 127.68C1368.54 127.53 1369.9 127.6 1370.87 128.32C1372.74 129.68 1375.1 130.54 1377.96 130.9C1378.29 130.94 1378.52 131.12 1378.63 131.44C1378.66 131.518 1378.66 131.604 1378.65 131.686C1378.63 131.768 1378.6 131.845 1378.54 131.909C1378.49 131.972 1378.42 132.019 1378.34 132.046C1378.26 132.072 1378.17 132.077 1378.09 132.06C1377.9 132.02 1377.73 132.056 1377.57 132.17C1377.17 132.436 1377.19 132.67 1377.63 132.87C1378.37 133.196 1379.12 133.38 1379.88 133.42C1380.14 133.433 1380.35 133.54 1380.52 133.74C1381.21 134.56 1382.12 135.026 1383.25 135.14C1383.43 135.16 1383.51 135.26 1383.49 135.44L1383.45 135.77C1383.42 136.056 1383.26 136.196 1382.98 136.19L1369.95 135.92C1369.63 135.913 1369.37 136.036 1369.16 136.29L1367.96 137.76C1366.6 137.306 1365.27 136.75 1363.96 136.09C1362.78 135.49 1361.57 135.136 1360.33 135.03C1356.55 134.7 1353.7 133.64 1350.05 135.69C1345.9 135.176 1341.67 134.66 1337.36 134.14C1333.2 133.633 1328.95 133.343 1324.61 133.27C1314.34 133.09 1305.22 132.746 1297.25 132.24C1290.82 131.84 1284.6 131.31 1278.61 130.65C1277.18 130.49 1275.93 129.86 1274.84 128.76C1274.59 128.5 1274.27 128.373 1273.9 128.38C1263.94 128.51 1253.85 128.85 1244 126.78C1228.71 123.56 1216.63 121.113 1207.75 119.44C1200.35 116.08 1194.52 113.916 1190.25 112.95C1186.16 112.03 1183.17 111.173 1181.26 110.38C1180.61 110.106 1179.7 109.86 1178.53 109.64C1177.65 109.473 1176.76 109.186 1175.85 108.78C1173.98 107.946 1172.02 107.41 1169.99 107.17L1166.08 105.74C1165.75 105.62 1165.67 105.403 1165.84 105.09C1166.21 104.443 1166.7 104.1 1167.31 104.06C1168.59 103.986 1169.42 103.84 1169.81 103.62L1172.67 104.28C1173 104.353 1173.29 104.286 1173.56 104.08C1173.66 104.006 1173.75 103.916 1173.83 103.81C1174.13 103.43 1174.51 103.323 1174.97 103.49C1176.51 104.05 1177.64 103.573 1178.36 102.06C1178.39 101.991 1178.41 101.915 1178.41 101.839C1178.41 101.763 1178.39 101.687 1178.36 101.619C1178.32 101.55 1178.28 101.49 1178.21 101.443C1178.15 101.397 1178.08 101.365 1178.01 101.35C1176.9 101.123 1175.83 100.693 1174.78 100.06C1177.45 100.106 1179.97 100.046 1182.32 99.8796C1183.18 99.8129 1183.96 99.8696 1184.66 100.05C1185.43 100.25 1186.19 100.476 1186.94 100.73C1190.19 101.856 1192.95 102.486 1195.23 102.62Z" fill="#80C2DD" fill-opacity="0.992"/>
<path d="M1169.15 108.11C1168.81 108.777 1169.04 109.507 1169.85 110.3C1170.09 110.534 1170.16 110.81 1170.06 111.13C1170 111.317 1169.89 111.47 1169.71 111.59C1169.6 111.664 1169.27 111.754 1168.72 111.86C1168.3 111.947 1167.98 112.184 1167.75 112.57L1165.57 111.61C1163.44 109.544 1160.42 108.3 1156.5 107.88C1153.02 107.507 1148.47 106.234 1142.84 104.06C1142.59 103.114 1143.06 102.68 1144.25 102.76C1150.61 103.174 1155.02 103.76 1157.49 104.52C1161.41 105.727 1165.3 106.924 1169.15 108.11Z" fill="#6DB2CC" fill-opacity="0.992"/>
<path d="M1142.84 104.06C1148.48 106.234 1153.03 107.507 1156.5 107.88C1160.42 108.3 1163.45 109.544 1165.57 111.61L1154.1 109.95C1153.84 109.917 1153.57 109.952 1153.31 110.05C1152.78 110.257 1152.3 110.204 1151.87 109.89C1151.62 109.708 1151.33 109.603 1151.02 109.59C1150.29 109.564 1149.96 109.837 1150.03 110.41C1145.84 108.044 1141.66 107.007 1137.5 107.3C1136.7 107.36 1135.88 107.527 1135.03 107.8C1134.21 108.074 1133.36 108.294 1132.46 108.46C1131.49 108.64 1130.58 108.46 1129.73 107.92C1128.66 107.24 1127.91 106.297 1127.48 105.09C1127.42 104.922 1127.41 104.742 1127.43 104.566C1127.46 104.39 1127.53 104.223 1127.63 104.08C1127.74 103.936 1127.88 103.82 1128.04 103.742C1128.2 103.664 1128.37 103.625 1128.55 103.63L1142.84 104.06Z" fill="#53C3D0"/>
<path d="M1169.99 107.17C1172.02 107.41 1173.98 107.947 1175.85 108.78C1176.76 109.187 1177.65 109.473 1178.53 109.64C1179.7 109.86 1180.61 110.107 1181.26 110.38C1183.17 111.173 1186.16 112.03 1190.25 112.95C1194.52 113.917 1200.35 116.08 1207.75 119.44C1193.52 117.827 1181.02 116.07 1170.25 114.17C1169.18 113.983 1168.35 113.45 1167.75 112.57C1167.98 112.183 1168.31 111.947 1168.72 111.86C1169.27 111.753 1169.6 111.663 1169.71 111.59C1169.89 111.47 1170.01 111.317 1170.06 111.13C1170.16 110.81 1170.09 110.533 1169.85 110.3C1169.04 109.507 1168.81 108.777 1169.15 108.11C1169.82 108.05 1170.1 107.737 1169.99 107.17Z" fill="#53C3D0"/>
<path d="M1081.77 114.7L1173.42 136.85C1174.31 137.157 1175.27 137.34 1176.3 137.4C1177.23 137.447 1178.18 137.574 1179.15 137.78C1180.55 138.08 1181.99 138.35 1183.47 138.59C1190.55 139.724 1197.08 140.44 1203.05 140.74C1212.17 141.187 1221.14 141.627 1229.96 142.06C1237.98 142.46 1246.32 143.277 1255 144.51C1256.17 144.677 1257.28 145.187 1258.34 146.04C1258.62 146.26 1258.63 146.497 1258.38 146.75L1256.39 148.74C1253.06 148.68 1249.6 148.597 1246 148.49C1234.22 148.137 1219.47 147.48 1201.75 146.52C1200.47 146.454 1199.16 146.38 1197.81 146.3C1187.36 145.694 1177.54 144.507 1168.34 142.74C1152.86 139.767 1135.85 136.01 1117.3 131.47C1102.78 127.917 1093.46 125.224 1089.33 123.39C1084.77 121.37 1080.13 119.517 1075.41 117.83C1076.25 117.537 1077.36 117.324 1078.75 117.19C1080.36 117.044 1081.37 116.214 1081.77 114.7Z" fill="#0D6E9D"/>
<path d="M1438 127.28V132.16C1428.79 131.56 1419.56 131.054 1410.31 130.64C1400.5 130.207 1392.82 129.964 1387.29 129.91C1382.78 129.864 1378.93 129.364 1375.75 128.41L1376.44 126.62C1376.54 126.36 1376.73 126.21 1377 126.17C1379.34 125.844 1381.51 125.974 1383.52 126.56C1384.94 126.98 1386.47 127.167 1388.12 127.12C1394.03 126.96 1400.31 126.93 1406.96 127.03C1407.33 127.037 1407.67 126.93 1407.98 126.71C1409 125.98 1410.17 126.64 1411.35 126.65C1420.24 126.704 1429.13 126.914 1438 127.28Z" fill="#C4E5DF"/>
<path d="M1367.96 137.76C1370.6 138.514 1372.68 139.487 1374.18 140.68C1375.07 142.52 1376.21 144.054 1377.59 145.28C1377.74 145.415 1377.86 145.58 1377.94 145.764C1378.02 145.949 1378.06 146.148 1378.05 146.35C1378.05 146.551 1378 146.749 1377.91 146.93C1377.83 147.112 1377.7 147.272 1377.55 147.4C1377.05 147.8 1376.49 147.864 1375.86 147.59C1374.61 147.064 1373.47 146.34 1372.43 145.42C1370.36 143.58 1368.2 142.24 1365.91 140.69C1364.76 139.924 1363.56 139.344 1362.32 138.95C1358.42 137.73 1354.33 136.644 1350.05 135.69C1353.7 133.64 1356.55 134.7 1360.33 135.03C1361.57 135.137 1362.78 135.49 1363.96 136.09C1365.26 136.75 1366.6 137.307 1367.96 137.76Z" fill="#53C3D0"/>
</svg>
