<svg width="890" height="119" viewBox="0 0 890 119" fill="none" xmlns="http://www.w3.org/2000/svg">
<path d="M797.169 46.8098C798.816 48.6032 800.849 49.9798 803.269 50.9398C804.799 51.5498 805.279 52.4198 806.539 53.2498C806.839 53.4432 807.003 53.7198 807.029 54.0798C807.096 55.0932 806.343 55.6832 804.769 55.8498C793.163 53.2632 783.906 50.7998 776.999 48.4598C769.546 45.9398 764.213 44.2865 760.999 43.4998C752.459 41.4065 739.299 38.4432 721.519 34.6098C714.953 33.1965 708.466 31.7032 702.059 30.1298C693.273 27.9765 684.253 25.7365 674.999 23.4098C670.299 22.2298 665.539 21.1432 660.719 20.1498C658.533 19.6965 656.369 19.4365 654.229 19.3698C648.749 19.1998 643.509 18.9898 637.829 19.1598C631.223 19.3532 625.039 19.3365 619.279 19.1098C613.719 18.8898 607.896 18.4165 601.809 17.6898C596.016 16.9965 590.093 16.6065 584.039 16.5198C575.079 16.3865 565.949 15.9232 556.649 15.1298C550.309 14.5998 542.469 14.5498 537.019 14.8298C523.799 15.5032 510.703 16.5432 497.729 17.9498C494.469 18.2998 491.079 18.4298 487.749 18.6798C485.336 18.8598 482.899 18.9565 480.439 18.9698C461.246 19.0765 441.743 18.7998 421.929 18.1398C413.169 17.8398 404.179 16.8998 395.549 15.7398C379.643 13.6065 363.529 11.4332 347.209 9.21985C343.449 8.71318 339.546 8.52318 335.499 8.64985C330.639 8.80318 325.853 8.94318 321.139 9.06984C315.006 8.11651 309.413 6.42984 304.359 4.00984C319.106 3.01651 334.659 2.81318 351.019 3.39985C377.926 4.35985 404.836 5.32651 431.749 6.29984C451.689 7.01984 467.273 7.13318 478.499 6.63984C513.106 5.12651 547.703 3.33984 582.289 1.27984C590.043 0.819843 596.696 0.643178 602.249 0.749844C621.549 1.12984 640.359 5.07984 659.109 11.5698C673.256 16.4698 685.816 20.1298 696.789 22.5498C722.543 28.2298 747.866 33.8998 772.759 39.5598C778.889 40.9498 784.899 42.6198 790.869 44.2498C791.943 44.5432 793.009 44.9298 794.069 45.4098C795.203 45.9365 796.236 46.4032 797.169 46.8098Z" fill="#DFEFF2"/>
<path d="M321.14 9.06965C325.853 8.94299 330.64 8.80299 335.5 8.64966C339.547 8.52299 343.45 8.71299 347.21 9.21965C363.53 11.433 379.643 13.6063 395.55 15.7397C404.18 16.8997 413.17 17.8397 421.93 18.1397C441.743 18.7997 461.247 19.0763 480.44 18.9697C482.9 18.9563 485.337 18.8597 487.75 18.6797C491.08 18.4297 494.47 18.2997 497.73 17.9497C510.703 16.543 523.8 15.503 537.02 14.8297C542.47 14.5497 550.31 14.5997 556.65 15.1297C565.95 15.923 575.08 16.3863 584.04 16.5197C590.093 16.6063 596.017 16.9963 601.81 17.6897C607.897 18.4163 613.72 18.8897 619.28 19.1097C625.04 19.3363 631.223 19.353 637.83 19.1597C643.51 18.9897 648.75 19.1997 654.23 19.3697C656.37 19.4363 658.533 19.6963 660.72 20.1497C665.54 21.143 670.3 22.2297 675 23.4097C684.253 25.7363 693.273 27.9763 702.06 30.1297C708.467 31.703 714.953 33.1963 721.52 34.6097C739.3 38.443 752.46 41.4063 761 43.4997C764.213 44.2863 769.547 45.9397 777 48.4597C783.907 50.7997 793.163 53.263 804.77 55.8497C810.93 58.703 817.157 60.8497 823.45 62.2897C827.63 63.2497 827.583 63.7797 823.31 63.8797C823.037 63.8863 821.837 63.6997 819.71 63.3197C815.917 62.6463 812.213 61.6896 808.6 60.4496C806.3 59.6596 804.77 58.1996 802.31 57.5196C798.837 56.553 795.217 55.603 791.45 54.6697C788.83 54.0163 786.173 53.5163 783.48 53.1697C780.807 52.8163 778.127 52.4897 775.44 52.1897C774.34 52.0697 773.72 52.5697 773.07 53.3197C764.957 53.653 757.143 52.523 749.63 49.9297C745.34 48.4497 740.62 47.4497 736.02 47.1697C731.693 46.9097 727.277 46.5897 722.77 46.2097C721.49 46.103 720.037 45.8697 718.41 45.5097C716.023 44.983 713.643 45.2897 711.27 46.4297C708.45 47.7897 706.44 51.9497 710.18 53.8097C715.8 56.6097 721.71 58.693 727.91 60.0597C731.89 60.933 734.92 61.703 737 62.3697C743.02 64.2797 749.08 66.7597 754.88 67.7297C758.027 68.263 761.077 68.7863 764.03 69.2997C765.357 69.5263 766.097 70.3063 766.25 71.6397L766.45 73.3097C766.597 74.563 766.037 75.1863 764.77 75.1797C761 75.1497 757.26 74.8997 755.04 76.1797C754.067 76.2997 753.41 76.2897 753.07 76.1497C749.437 74.6563 745.787 73.3897 742.12 72.3497C735.973 70.0763 731.6 68.6797 729 68.1597C723.987 67.153 718.767 66.133 713.34 65.0997C711.087 64.6663 708.83 64.3763 706.57 64.2297C700.99 63.8597 695.57 63.1797 689.87 63.2497C685.09 63.3097 680.533 63.433 676.2 63.6197C672.37 63.7797 669.49 60.7397 666.35 60.3697C660.94 59.7397 655.42 59.4297 650.28 58.4297C645.187 57.443 639.863 56.4063 634.31 55.3197C629.19 54.3197 621.84 53.4963 612.26 52.8497C599.307 51.9763 586.647 51.3863 574.28 51.0797C568.653 50.933 563.35 50.683 558.37 50.3297C547.743 49.563 536.927 48.7696 525.92 47.9496C514.92 47.1296 504.44 47.893 494.48 50.2397C494.388 50.2618 494.302 50.3055 494.23 50.3673C494.157 50.4291 494.101 50.5071 494.065 50.595C494.029 50.6829 494.014 50.7781 494.022 50.8728C494.03 50.9675 494.06 51.0589 494.11 51.1397C494.84 52.2997 496.85 52.4797 497.04 53.2397C497.147 53.673 497.42 53.893 497.86 53.8997C500.727 53.9397 503.267 54.5197 505.48 55.6397L451.73 60.7897C452.583 59.8763 453.543 59.1397 454.61 58.5797C455.263 58.2463 455.637 57.823 455.73 57.3097C455.744 57.2359 455.743 57.1599 455.727 57.0865C455.711 57.0131 455.68 56.9438 455.636 56.8829C455.592 56.822 455.536 56.7708 455.471 56.7324C455.406 56.694 455.335 56.6692 455.26 56.6597L424.87 53.1197C430.53 51.393 432.19 48.6563 429.85 44.9097C428.71 43.083 427.097 42.063 425.01 41.8497C423.11 41.663 421.283 41.813 419.53 42.2997C418.417 41.7663 417.387 41.4897 416.44 41.4697C409.853 39.5697 405.357 38.023 402.95 36.8297C401.15 35.9363 398.577 34.2897 395.23 31.8897C391.93 29.523 389.39 27.8396 387.61 26.8396C378.797 21.8863 369.39 18.4697 359.39 16.5897C358.45 16.4163 357.333 16.4497 356.04 16.6897C351.993 16.3563 347.953 16.233 343.92 16.3197C341.213 16.373 338.79 16.793 336.65 17.5797C330.77 19.7397 324.61 22.0797 318.46 20.6197C306.227 17.7197 293.59 16.633 280.55 17.3597C274.75 17.6863 269.037 18.0863 263.41 18.5597C247.87 19.8797 232.23 19.0997 216.15 17.3997C199.85 15.6797 183.24 15.8197 166.75 15.8197C168.583 14.5463 171.043 13.7363 174.13 13.3897C183.24 12.3597 191.97 11.7597 201.22 10.6397C218.153 8.57965 233.593 7.83965 247.54 8.41965C255.28 8.74632 264.683 9.30965 275.75 10.1097C288.977 11.063 304.107 10.7163 321.14 9.06965Z" fill="#AEE0EB"/>
<path d="M166.752 15.8201C183.242 15.8201 199.852 15.6801 216.152 17.4001C232.232 19.1001 247.872 19.8801 263.412 18.5601C269.039 18.0868 274.752 17.6868 280.552 17.3601C293.592 16.6335 306.229 17.7201 318.462 20.6201C324.612 22.0801 330.772 19.7401 336.652 17.5801C338.792 16.7935 341.215 16.3735 343.922 16.3201C347.955 16.2335 351.995 16.3568 356.042 16.6901C355.715 17.0701 355.669 17.2901 355.902 17.3501C362.255 19.0635 368.412 21.2835 374.372 24.0101C379.022 26.1301 383.812 29.1501 388.462 31.8801C389.732 32.6301 390.482 33.7101 391.902 34.1901C392.242 34.3035 392.529 34.4968 392.762 34.7701C393.362 35.4701 394.122 35.9435 395.042 36.1901C395.362 36.2701 395.622 36.4468 395.822 36.7201C396.422 37.5501 397.692 37.5201 398.632 37.9301C399.532 38.3301 400.509 38.7135 401.562 39.0801C406.389 40.7335 411.349 41.5301 416.442 41.4701C417.389 41.4901 418.419 41.7668 419.532 42.3001C420.792 42.9935 421.805 44.1535 422.572 45.7801C422.919 46.8001 423.049 47.9101 422.962 49.1101C422.502 50.7235 420.685 51.9835 417.512 52.8901C414.899 53.2435 412.169 53.3701 409.322 53.2701C404.162 53.0901 401.442 53.0035 401.162 53.0101C376.152 53.1201 355.692 52.2001 333.012 53.4301C327.912 52.5901 322.602 52.5601 317.662 51.9501C306.669 50.5968 295.455 49.1168 284.022 47.5101C278.589 46.7435 273.232 45.8068 267.952 44.7001C262.405 43.5401 257.075 42.4835 251.962 41.5301C221.849 35.9368 190.975 34.2501 159.342 36.4701C157.182 36.6201 154.312 37.4001 152.012 37.2301C150.459 37.1168 149.059 37.2368 147.812 37.5901C146.099 38.0701 144.845 38.3101 144.052 38.3101C132.732 38.2635 121.662 38.3101 110.842 38.4501C106.012 38.5101 101.282 39.2701 96.4919 39.6301C96.3119 39.6435 96.1586 39.7135 96.0319 39.8401C95.9719 39.9001 95.9019 39.9501 95.8219 39.9901C95.6886 40.0635 95.5386 40.1035 95.3719 40.1101C85.4919 40.4201 76.2019 40.0601 66.6819 39.7701C57.1319 39.4801 46.8519 40.2401 37.0019 40.2301C34.3819 40.2235 31.8553 39.8235 29.4219 39.0301C25.1619 37.6301 21.1486 36.1601 17.3819 34.6201C16.5419 34.2735 16.4486 34.4168 17.1019 35.0501C18.2886 36.2101 19.8786 37.5435 21.8719 39.0501C16.5786 37.4235 11.5253 35.6168 6.71194 33.6301C3.3986 32.2701 1.47527 29.7435 0.941932 26.0501C0.902215 25.7739 0.921628 25.4925 0.998878 25.2243C1.07613 24.9562 1.20944 24.7075 1.39002 24.4948C1.5706 24.2821 1.79431 24.1102 2.04633 23.9904C2.29836 23.8706 2.57296 23.8058 2.85194 23.8001C10.4253 23.6401 18.0353 23.5235 25.6819 23.4501C34.1886 23.3701 42.6453 22.5201 51.0519 20.9001C53.0919 20.5135 55.1219 20.2335 57.1419 20.0601C59.8519 19.8301 62.6019 19.4201 65.3019 19.4501C87.5353 19.7568 104.769 19.8601 117.002 19.7601C127.115 19.6735 137.495 18.7535 148.142 17.0001C151.502 16.4468 154.592 16.1301 157.412 16.0501C160.645 15.9568 163.759 15.8801 166.752 15.8201Z" fill="#53C3D0"/>
<path d="M356.044 16.6905C357.337 16.4505 358.454 16.4171 359.394 16.5905C369.394 18.4705 378.8 21.8871 387.614 26.8405C389.394 27.8405 391.934 29.5238 395.234 31.8905C398.58 34.2905 401.154 35.9371 402.954 36.8305C405.36 38.0238 409.857 39.5705 416.444 41.4705C411.35 41.5305 406.39 40.7338 401.564 39.0805C400.51 38.7138 399.534 38.3305 398.634 37.9305C397.694 37.5205 396.424 37.5505 395.824 36.7205C395.624 36.4471 395.364 36.2705 395.044 36.1905C394.124 35.9438 393.364 35.4705 392.764 34.7705C392.53 34.4971 392.244 34.3038 391.904 34.1905C390.484 33.7105 389.734 32.6305 388.464 31.8805C383.814 29.1505 379.024 26.1305 374.374 24.0105C368.414 21.2838 362.257 19.0638 355.904 17.3505C355.67 17.2905 355.717 17.0705 356.044 16.6905Z" fill="#72C9D7"/>
<path d="M333.011 53.4305C331.751 54.8905 331.631 56.1905 332.651 57.3305C333.191 57.9438 334.344 59.0871 336.111 60.7605C336.337 60.9738 336.601 61.1038 336.901 61.1505C339.454 61.5705 342.071 61.6638 344.751 61.4305C346.211 61.3105 347.321 61.9205 348.741 62.1205C350.101 62.3205 351.064 62.5838 351.631 62.9105C352.757 63.5705 353.431 64.3638 353.651 65.2905C342.737 63.3038 335.021 62.0038 330.501 61.3905C322.907 60.3571 316.561 59.7371 311.461 59.5305C304.607 59.2571 293.241 59.1338 277.361 59.1605C270.154 59.1738 263.454 59.2971 257.261 59.5305C245.861 59.9605 234.571 60.4705 223.231 61.1505C219.171 61.3971 214.711 61.9838 209.851 62.9105C204.337 63.9638 198.887 64.9805 193.501 65.9605C190.141 66.5738 184.437 66.4171 176.391 65.4905C172.304 65.5171 168.507 65.5205 165.001 65.5005C164.131 65.4905 163.381 65.0005 162.321 65.0005C148.881 65.0071 135.441 65.0071 122.001 65.0005C121.621 65.0005 121.181 65.1171 120.681 65.3505C120.374 65.4971 120.054 65.5605 119.721 65.5405C117.294 65.4405 114.884 65.4505 112.491 65.5705C102.661 66.0605 92.7606 66.1105 83.3206 66.0205C74.894 65.9405 67.084 64.6771 59.8906 62.2305C52.164 59.5971 45.164 56.1438 38.8906 51.8705C37.5806 50.9805 36.7306 49.6105 36.5306 48.0405C36.3006 46.1805 35.4106 45.0505 33.6106 44.4405C29.3573 42.9871 25.4439 41.1905 21.8706 39.0505C19.8773 37.5438 18.2873 36.2105 17.1006 35.0505C16.4473 34.4171 16.5406 34.2738 17.3806 34.6205C21.1473 36.1605 25.1606 37.6305 29.4206 39.0305C31.854 39.8238 34.3806 40.2238 37.0006 40.2305C46.8506 40.2405 57.1306 39.4805 66.6806 39.7705C76.2006 40.0605 85.4906 40.4205 95.3706 40.1105C95.5373 40.1038 95.6873 40.0638 95.8206 39.9905C95.9006 39.9505 95.9706 39.9005 96.0306 39.8405C96.1573 39.7138 96.3106 39.6438 96.4906 39.6305C101.281 39.2705 106.011 38.5105 110.841 38.4505C121.661 38.3105 132.731 38.2638 144.051 38.3105C144.844 38.3105 146.097 38.0705 147.811 37.5905C149.057 37.2371 150.457 37.1171 152.011 37.2305C154.311 37.4005 157.181 36.6205 159.341 36.4705C190.974 34.2505 221.847 35.9371 251.961 41.5305C257.074 42.4838 262.404 43.5405 267.951 44.7005C273.231 45.8071 278.587 46.7438 284.021 47.5105C295.454 49.1171 306.667 50.5971 317.661 51.9505C322.601 52.5605 327.911 52.5905 333.011 53.4305ZM185.951 50.4105C182.511 49.8505 178.884 49.2538 175.071 48.6205C171.601 48.0405 168.091 48.0205 164.581 47.7305C162.061 47.5171 159.341 47.4038 156.421 47.3905C141.034 47.3038 125.667 47.1805 110.321 47.0205C105.427 46.9738 98.7573 46.8138 90.3106 46.5405C81.9906 46.2738 73.6673 46.1005 65.3406 46.0205C65.3139 46.0205 63.4206 45.9105 59.6606 45.6905C54.994 45.4105 50.6773 46.1771 46.7106 47.9905C46.2503 48.2023 45.8875 48.5799 45.6961 49.0464C45.5047 49.5128 45.4992 50.0328 45.6806 50.5005C45.9673 51.2338 46.534 51.7438 47.3806 52.0305C58.734 55.8771 70.4506 59.0938 82.5306 61.6805C88.8706 63.0405 96.0706 64.0205 102.251 63.7705C128.411 62.6905 156.744 61.0205 187.251 58.7605C188.911 58.6405 190.581 57.1505 190.431 55.3005C190.191 52.4871 188.697 50.8571 185.951 50.4105Z" fill="#77CDE8"/>
<path d="M424.868 53.1201L417.508 52.8901C420.681 51.9834 422.498 50.7234 422.958 49.1101L425.708 48.6801C425.925 48.6462 426.129 48.5553 426.299 48.4168C426.469 48.2783 426.599 48.097 426.677 47.8916C426.754 47.6862 426.775 47.464 426.739 47.2476C426.702 47.0313 426.608 46.8285 426.468 46.6601C425.754 45.7934 424.454 45.5001 422.568 45.7801C421.801 44.1534 420.788 42.9934 419.528 42.3001C421.281 41.8134 423.108 41.6634 425.008 41.8501C427.094 42.0634 428.708 43.0834 429.848 44.9101C432.188 48.6568 430.528 51.3934 424.868 53.1201Z" fill="#72C9D7"/>
<path d="M773.068 53.3204L776.668 53.9304C776.995 53.9837 777.275 54.1304 777.508 54.3704C778.818 55.7404 779.408 56.8704 781.368 57.2404C783.328 57.6204 784.718 58.8204 786.638 59.3304C787.491 59.5637 788.325 59.877 789.138 60.2704C791.611 61.4637 794.241 62.2904 797.028 62.7504C803.348 63.7904 809.288 64.8237 814.848 65.8504C818.095 66.4504 821.501 67.287 825.068 68.3604C825.575 68.5137 826.008 68.7837 826.368 69.1704C826.788 69.6104 826.888 69.947 826.668 70.1804C826.451 70.4071 826.192 70.576 825.919 70.6693C825.646 70.7626 825.369 70.7768 825.118 70.7104C818.845 69.0704 812.535 67.6504 806.188 66.4504C805.001 66.2237 803.828 66.1037 802.668 66.0904C802.621 66.0904 802.598 66.1137 802.598 66.1604L802.558 66.4404C802.545 66.5604 802.595 66.6304 802.708 66.6504L828.848 72.5204C829.788 74.3337 831.391 75.4437 833.658 75.8504C834.238 75.957 835.421 76.3837 837.208 77.1304C838.688 79.4237 840.808 80.7004 843.568 80.9604C844.978 81.0904 845.928 81.8804 847.238 81.8304C850.358 81.7004 854.298 84.4704 856.358 86.4904C857.951 88.057 859.821 88.8504 861.968 88.8704C863.778 88.8904 865.148 90.2104 866.598 91.1304C867.548 91.7304 867.948 92.9704 867.398 94.0004C867.158 94.4404 867.291 94.6804 867.798 94.7204C872.665 95.1204 877.085 96.5437 881.058 98.9904C881.818 100.17 882.608 101.184 883.428 102.03C883.808 102.424 884.061 103.007 884.188 103.78C883.008 105.33 879.518 105 877.718 105C877.391 105 877.088 104.914 876.808 104.74C876.081 104.287 875.398 103.784 874.758 103.23C874.098 102.657 873.181 102.26 872.008 102.04C867.168 101.127 862.051 100.674 856.658 100.68L806.818 88.8304C804.045 87.957 801.288 87.2137 798.548 86.6004C784.188 83.3737 769.848 80.0604 755.528 76.6604C755.355 76.6204 755.191 76.4604 755.038 76.1804C757.258 74.9004 760.998 75.1504 764.768 75.1804C766.035 75.187 766.595 74.5637 766.448 73.3104L766.248 71.6404C766.095 70.307 765.355 69.527 764.028 69.3004C761.075 68.787 758.025 68.2637 754.878 67.7304C749.078 66.7604 743.018 64.2804 736.998 62.3704C734.918 61.7037 731.888 60.9337 727.908 60.0604C721.708 58.6937 715.798 56.6104 710.178 53.8104C706.438 51.9504 708.448 47.7904 711.268 46.4304C713.641 45.2904 716.021 44.9837 718.408 45.5104C720.035 45.8704 721.488 46.1037 722.768 46.2104C727.275 46.5904 731.691 46.9104 736.018 47.1704C740.618 47.4504 745.338 48.4504 749.628 49.9304C757.141 52.5237 764.955 53.6537 773.068 53.3204Z" fill="#72C9D7"/>
<path d="M185.949 50.41C188.696 50.8566 190.189 52.4866 190.429 55.3C190.579 57.15 188.909 58.64 187.249 58.76C156.742 61.02 128.409 62.69 102.249 63.77C96.0691 64.02 88.8691 63.04 82.5291 61.68C70.4491 59.0933 58.7324 55.8766 47.3791 52.03C46.5324 51.7433 45.9657 51.2333 45.6791 50.5C45.4976 50.0323 45.5032 49.5123 45.6945 49.0459C45.8859 48.5794 46.2488 48.2018 46.7091 47.99C50.6757 46.1766 54.9924 45.41 59.6591 45.69C63.4191 45.91 65.3124 46.02 65.3391 46.02C73.6657 46.1 81.9891 46.2733 90.3091 46.54C98.7557 46.8133 105.426 46.9733 110.319 47.02C125.666 47.18 141.032 47.3033 156.419 47.39C159.339 47.4033 162.059 47.5166 164.579 47.73C168.089 48.02 171.599 48.04 175.069 48.62C178.882 49.2533 182.509 49.85 185.949 50.41Z" fill="#1CADDB" fill-opacity="0.992"/>
<path d="M742.124 72.3503C738.964 72.9203 735.824 72.2203 732.974 72.4903C729.404 72.8403 725.894 73.0003 722.364 73.5803C719.664 74.027 716.867 74.4437 713.974 74.8303C708.384 75.5803 702.304 74.4703 696.734 73.7603C689.724 72.8603 682.864 71.0203 675.954 69.3303C669.544 67.7703 663.944 67.3503 657.704 67.8703C651.13 68.4103 644.814 68.5437 638.754 68.2703C630.204 67.8903 621.804 67.2003 613.544 67.2603C608.097 67.3003 602.737 67.3703 597.464 67.4703C596.144 67.497 595.264 66.8437 594.824 65.5103C594.13 63.4037 594.67 61.4537 596.444 59.6603C596.675 59.4157 596.804 59.0936 596.804 58.7603C596.81 57.1803 596.127 56.387 594.754 56.3803C564.84 56.207 535.084 55.9603 505.484 55.6403C503.27 54.5203 500.73 53.9403 497.864 53.9003C497.424 53.8937 497.15 53.6737 497.044 53.2403C496.854 52.4803 494.844 52.3003 494.114 51.1403C494.064 51.0596 494.033 50.9682 494.025 50.8735C494.018 50.7788 494.032 50.6836 494.069 50.5957C494.105 50.5078 494.161 50.4298 494.233 50.368C494.306 50.3062 494.391 50.2625 494.484 50.2403C504.444 47.8937 514.924 47.1303 525.924 47.9503C536.93 48.7703 547.747 49.5637 558.374 50.3303C563.354 50.6837 568.657 50.9337 574.284 51.0803C586.65 51.387 599.31 51.977 612.264 52.8503C621.844 53.497 629.194 54.3203 634.314 55.3203C639.867 56.407 645.19 57.4437 650.284 58.4303C655.424 59.4303 660.944 59.7403 666.354 60.3703C669.494 60.7403 672.374 63.7803 676.204 63.6203C680.537 63.4337 685.094 63.3103 689.874 63.2503C695.574 63.1803 700.994 63.8603 706.574 64.2303C708.834 64.377 711.09 64.667 713.344 65.1003C718.77 66.1337 723.99 67.1537 729.004 68.1603C731.604 68.6803 735.977 70.077 742.124 72.3503Z" fill="#A6B4C5"/>
<path d="M505.48 55.6396C535.08 55.9596 564.837 56.2063 594.75 56.3796C596.124 56.3863 596.807 57.1797 596.8 58.7597C596.8 59.0929 596.672 59.415 596.44 59.6597C594.667 61.453 594.127 63.403 594.82 65.5097C595.26 66.843 596.14 67.4963 597.46 67.4697C602.734 67.3697 608.094 67.2997 613.54 67.2597C621.8 67.1997 630.2 67.8896 638.75 68.2696C644.81 68.543 651.127 68.4097 657.7 67.8697C663.94 67.3497 669.54 67.7697 675.95 69.3297C682.86 71.0197 689.72 72.8597 696.73 73.7597C702.3 74.4697 708.38 75.5797 713.97 74.8297C716.864 74.443 719.66 74.0263 722.36 73.5797C725.89 72.9997 729.4 72.8396 732.97 72.4896C735.82 72.2196 738.96 72.9196 742.12 72.3496C745.787 73.3896 749.437 74.6563 753.07 76.1497C753.41 76.2897 754.067 76.2996 755.04 76.1796C755.194 76.4596 755.357 76.6197 755.53 76.6597C769.85 80.0597 784.19 83.373 798.55 86.5996C801.29 87.213 804.047 87.9563 806.82 88.8297C803.634 89.383 801.614 89.8563 800.76 90.2496C798.274 91.3963 797.804 93.0363 799.35 95.1696C802.164 99.0763 806.25 102.173 811.61 104.46C813.484 105.266 815.26 106.05 816.94 106.81V106.81C819.065 107.777 818.497 109.478 816.188 109.137L812.76 108.63C809.14 106.45 805.47 105.033 801.75 104.38C798.077 103.74 794.414 103.86 790.76 104.74C766.387 100.78 747.297 96.883 733.49 93.0497C728.704 91.723 721.614 89.4863 712.22 86.3396C685.6 77.4396 657.827 72.703 628.9 72.1296C617.42 71.8996 603.42 72.6297 591.44 73.7297C578.287 74.943 565.147 76.0663 552.02 77.0996C545.547 77.613 538.457 77.923 530.75 78.0296C524.184 78.1163 517.534 77.7963 510.8 77.0696C491.51 74.9796 472.21 72.6297 452.81 71.6597C437.85 70.9097 423.66 70.4497 406.75 69.3297C397.324 68.7097 387.507 67.1196 377.3 64.5596C372.267 63.2996 367.364 61.6696 362.59 59.6696C362.422 59.5975 362.277 59.4824 362.167 59.3359C362.058 59.1895 361.989 59.0168 361.968 58.8353C361.947 58.6539 361.974 58.47 362.046 58.3022C362.118 58.1344 362.234 57.9887 362.38 57.8796C364.29 56.4596 366.28 56.1796 368.65 56.2896C380.74 56.8296 391.59 58.2296 403.07 59.5596C408.304 60.173 413.65 60.5397 419.11 60.6597C428.677 60.8797 438.217 61.043 447.73 61.1497C448.377 61.1563 449.044 61.093 449.73 60.9596C450.424 60.8263 451.09 60.7696 451.73 60.7896L505.48 55.6396Z" fill="#8097D1"/>
<path d="M837.211 77.1299L856.751 83.0199C857.078 83.1199 857.354 83.2966 857.581 83.5499C858.981 85.1499 860.591 87.0099 862.921 87.0599C863.988 87.0799 864.908 87.2632 865.681 87.6099C869.561 89.3766 873.208 90.5866 876.621 91.2399C877.401 91.3866 878.171 91.5666 878.931 91.7799C879.664 91.9799 880.394 92.1132 881.121 92.1799C883.368 92.3799 885.644 92.6132 887.951 92.8799C889.801 93.0899 890.481 95.0899 889.551 96.5499C888.431 98.3232 886.664 99.2632 884.251 99.3699C883.211 99.4165 882.148 99.2899 881.061 98.9899C877.088 96.5432 872.668 95.1199 867.801 94.7199C867.294 94.6799 867.161 94.4399 867.401 93.9999C867.951 92.9699 867.551 91.7299 866.601 91.1299C865.151 90.2099 863.781 88.8899 861.971 88.8699C859.824 88.8499 857.954 88.0566 856.361 86.4899C854.301 84.4699 850.361 81.6999 847.241 81.8299C845.931 81.8799 844.981 81.0899 843.571 80.9599C840.811 80.6999 838.691 79.4232 837.211 77.1299Z" fill="#80C2DD" fill-opacity="0.992"/>
<path d="M707.917 97.0204C706.003 95.8066 707.857 93.6625 710.052 94.2256C727.509 98.7029 744.903 103.158 762.237 107.59C762.297 107.604 765.597 108.377 772.137 109.91V109.91C774.994 110.582 774.404 114.123 771.47 114.049L737.487 113.19C729.64 112.97 721.81 112.884 713.997 112.93C713.577 112.93 713.157 112.924 712.737 112.91C697.29 112.364 681.874 112.63 666.487 113.71C660.407 114.144 653.767 114.784 646.567 115.63C635.367 116.957 628.01 117.754 624.497 118.02C621.67 118.24 615.76 118.284 606.767 118.15C596.347 117.78 585.847 117.62 575.527 116.65C570.54 116.184 565.554 115.704 560.567 115.21C556.667 114.83 552.8 114.334 548.967 113.72C545.114 113.1 541.26 112.474 537.407 111.84C532.654 111.054 527.584 110.044 522.197 108.81C518.928 108.068 515.658 107.335 512.386 106.612C509.518 105.978 507.606 102.93 509.002 100.345C509.419 99.5721 509.909 98.8405 510.507 98.1704C512.154 96.3237 513.97 95.0804 515.957 94.4404C516.996 94.1088 519.548 93.576 523.613 92.8419C523.987 92.7743 524.369 92.7507 524.748 92.7676C528.866 92.9515 533.23 92.8778 537.843 92.5466C540.186 92.3783 541.551 94.8579 542.217 97.1104V97.1104C542.557 98.277 543.37 98.857 544.657 98.8504C547.61 98.8304 550.247 98.727 552.567 98.5404C559.977 97.9604 567.607 98.3004 575.047 98.2704C577.177 98.2604 579.277 97.7504 581.417 98.0104C585.917 98.5604 590.727 98.2704 595.187 98.2604C602.617 98.2504 609.817 98.9804 617.417 98.5804C619.377 98.4804 620.884 97.9737 621.937 97.0604C622.107 96.9129 622.244 96.731 622.338 96.5268C622.433 96.3226 622.483 96.1009 622.484 95.8765C622.486 95.6521 622.44 95.4302 622.349 95.2256C622.258 95.021 622.125 94.8385 621.957 94.6904L618.236 91.3796C616.415 89.7591 617.338 86.8746 619.747 87.2504V87.2504C630.134 88.8637 640.587 90.497 651.107 92.1504C658.254 93.2704 664.807 94.457 670.767 95.7104C679.48 97.537 688.43 99.3604 697.617 101.18C701.537 101.96 705.087 102.2 708.167 99.0004C708.298 98.8618 708.397 98.6958 708.457 98.5144C708.516 98.333 708.535 98.1406 708.511 97.9512C708.487 97.7618 708.421 97.58 708.318 97.4191C708.216 97.2581 708.079 97.1219 707.917 97.0204V97.0204Z" fill="#80C2DD" fill-opacity="0.992"/>
<path d="M613.699 87.3402L621.959 94.6902C622.127 94.8383 622.26 95.0208 622.351 95.2254C622.442 95.43 622.488 95.6519 622.486 95.8763C622.485 96.1007 622.435 96.3224 622.34 96.5266C622.246 96.7308 622.109 96.9127 621.939 97.0602C620.886 97.9735 619.379 98.4802 617.419 98.5802C609.819 98.9802 602.619 98.2502 595.189 98.2602C590.729 98.2702 585.919 98.5602 581.419 98.0102C579.279 97.7502 577.179 98.2602 575.049 98.2702C567.609 98.3002 559.979 97.9602 552.569 98.5402C550.249 98.7268 547.612 98.8302 544.659 98.8502C543.372 98.8568 542.559 98.2768 542.219 97.1102C541.872 95.9368 542.132 94.2602 542.999 92.0802C564.106 90.6268 585.439 88.9902 606.999 87.1702C608.672 87.0235 610.906 87.0802 613.699 87.3402Z" fill="#8FCFE7" fill-opacity="0.996"/>
<path d="M812.758 108.63C808.811 108.35 806.304 108.063 805.238 107.77C803.811 107.376 802.594 107.103 801.588 106.95C799.288 106.596 798.068 106.403 797.928 106.37C795.628 105.83 793.238 105.286 790.758 104.74C794.411 103.86 798.074 103.74 801.748 104.38C805.468 105.033 809.138 106.45 812.758 108.63Z" fill="#80C2DD" fill-opacity="0.992"/>
</svg>
