<svg width="1441" height="168" viewBox="0 0 1441 168" fill="none" xmlns="http://www.w3.org/2000/svg">
<path d="M0.28125 0.190205C6.36909 0.836996 12.4269 1.32042 18.4548 1.64049C24.5093 1.96722 30.5571 2.25727 36.5983 2.51066C40.6724 2.68402 44.8999 2.67069 49.2807 2.47065C54.9318 2.2206 60.8429 2.50066 66.534 2.16059C73.8288 1.72717 80.7834 1.31375 87.3981 0.920345C97.56 0.32023 104.518 0.0635168 108.272 0.1502C110.399 0.196876 115.14 0.510268 122.495 1.09038C125.695 1.34376 128.869 1.7105 132.017 2.19059C138.588 3.20079 144.849 4.11096 151.52 5.74128C154.794 6.5481 158.112 7.36493 161.472 8.19175C161.012 8.57849 160.115 8.73186 158.782 8.65184C130.223 6.93818 99.6338 6.49142 67.0141 7.31158C63.6735 7.39159 60.2162 8.17175 56.6421 9.65203L52.5513 10.2021C50.8443 10.3288 48.8306 10.2521 46.5102 9.9721C31.1139 8.11174 15.7076 6.25138 0.291252 4.39102L0.28125 0.190205Z" fill="#0E426D"/>
<path d="M0.291252 4.39062C15.7076 6.25098 31.1139 8.11134 46.5102 9.9717C48.8306 10.2518 50.8443 10.3284 52.5513 10.2017C52.9314 11.7687 52.628 12.9223 51.6412 13.6624C50.6276 14.4226 49.164 14.706 47.2503 14.5126C37.8485 13.5857 28.4367 12.7756 19.0149 12.0821C18.0814 12.0154 17.3845 12.1321 16.9245 12.4322C14.9441 11.1219 13.0637 11.522 11.2734 11.262C7.63267 10.7218 3.96863 10.3018 0.28125 10.0017L0.291252 4.39062Z" fill="#A6B4C5"/>
<path d="M161.471 8.19147C174.673 10.9653 186.192 17.1199 196.028 26.655C194.641 28.0886 194.601 29.769 195.907 31.696C197.775 34.4365 200.588 37.6872 204.349 41.4479C205.259 42.3581 210.41 44.6385 209.23 47.169C208.823 48.0558 208.123 48.3659 207.13 48.0992C203.629 47.159 200.045 46.1888 196.378 45.1886C194.177 44.5885 192.737 42.6081 191.217 41.0278C190.957 40.7544 190.643 40.5777 190.276 40.4977C189.623 40.351 189.03 40.0876 188.496 39.7075C188.339 39.5953 188.153 39.53 187.96 39.5194C187.767 39.5088 187.575 39.5532 187.406 39.6476C187.237 39.7419 187.099 39.8822 187.006 40.0522C186.914 40.2222 186.873 40.4148 186.886 40.6077C186.979 41.7879 187.292 42.9082 187.826 43.9684C187.883 44.0847 187.909 44.2141 187.899 44.3435C187.89 44.4728 187.847 44.5973 187.773 44.7043C187.7 44.8112 187.599 44.8967 187.482 44.9519C187.365 45.0072 187.235 45.0302 187.106 45.0186L178.964 44.2684L182.115 42.3781C182.255 42.2938 182.377 42.1821 182.474 42.0498C182.57 41.9175 182.638 41.7674 182.675 41.6084C182.711 41.4494 182.715 41.285 182.686 41.125C182.657 40.965 182.595 40.8129 182.505 40.6777C181.631 39.3575 180.528 38.1873 179.194 37.1671C172.293 31.886 163.951 27.5052 155.69 24.8847C144.658 21.384 132.975 19.5137 121.003 18.6235C110.694 17.8567 99.3855 17.5333 87.0765 17.6533C85.2295 17.6733 82.6256 17.5599 79.265 17.3132C78.9183 17.2866 78.6115 17.1565 78.3448 16.9231C77.3546 16.043 76.7145 15.5329 75.2742 15.4429C73.934 15.3629 72.6004 15.2795 71.2734 15.1928C65.9191 14.8327 61.0415 12.9857 56.6406 9.65175C60.2146 8.17146 63.672 7.39131 67.0126 7.31129C99.6323 6.49114 130.221 6.93789 158.78 8.65156C160.114 8.73157 161.011 8.57821 161.471 8.19147Z" fill="#585D7B"/>
<path d="M56.642 9.65234C61.0429 12.9863 65.9205 14.8333 71.2749 15.1934C72.6018 15.2801 73.9354 15.3634 75.2756 15.4435C76.7159 15.5335 77.356 16.0436 78.3462 16.9237C78.6129 17.1571 78.9197 17.2871 79.2664 17.3138C82.627 17.5605 85.2309 17.6739 87.0779 17.6539C99.3869 17.5339 110.696 17.8573 121.004 18.6241C132.977 19.5142 144.659 21.3846 155.691 24.8853C163.953 27.5058 172.294 31.8866 179.196 37.1677C180.529 38.1878 181.633 39.3581 182.506 40.6783C182.596 40.8135 182.658 40.9656 182.687 41.1256C182.716 41.2856 182.712 41.45 182.676 41.609C182.64 41.768 182.571 41.9181 182.475 42.0504C182.379 42.1827 182.257 42.2944 182.116 42.3787L178.966 44.269L112.483 46.2194C99.0202 45.6526 85.751 44.3857 72.6751 42.4187C70.4347 42.0886 68.8644 40.6583 66.6039 40.3183C62.0831 39.6481 57.3322 39.2881 52.8413 38.2479C43.4061 36.0808 36.0481 34.8172 30.767 34.4571C26.2395 34.1504 16.2709 34.0737 0.861265 34.2271L0.78125 23.285C8.4894 23.0783 16.1842 22.9549 23.8657 22.9149C25.8928 22.9016 27.7264 22.7649 29.3668 22.5048C32.7474 21.9547 36.1281 21.5546 39.3887 22.3948C41.2024 22.8616 43.2261 22.6682 45.4599 21.8147C45.8199 21.6747 45.9733 21.4146 45.92 21.0345C45.7933 20.141 45.2865 19.6009 44.3997 19.4142C43.4462 19.2142 42.496 18.8875 41.5491 18.434C41.2157 18.274 40.8657 18.2007 40.4989 18.214C34.7911 18.4074 29.1234 18.0273 23.4956 17.0738C18.9014 16.2936 14.0705 15.5368 9.00284 14.8033L16.9244 12.4329C17.3845 12.1328 18.0813 12.0161 19.0148 12.0828C28.4366 12.7763 37.8484 13.5864 47.2502 14.5133C49.1639 14.7067 50.6275 14.4233 51.6411 13.6631C52.6279 12.923 52.9313 11.7694 52.5512 10.2024L56.642 9.65234ZM153.491 29.5262C146.896 27.8859 141.122 26.6923 136.167 25.9455C126.619 24.5052 116.184 23.7017 104.861 23.535C85.1442 23.235 65.5838 24.0618 46.18 26.0155C45.9482 26.0405 45.7267 26.1247 45.5368 26.2599C45.3469 26.3952 45.195 26.577 45.0956 26.7879C44.9962 26.9987 44.9526 27.2316 44.9691 27.4642C44.9856 27.6968 45.0616 27.9212 45.1898 28.1159C47.7803 32.0167 50.6409 33.0469 55.4418 33.2269C68.8144 33.727 81.9569 33.787 95.2895 34.0871C100.864 34.2071 105.765 36.2275 109.992 40.1482C112.313 42.2986 116.144 41.9386 119.084 41.8185C127.696 41.4485 136.417 41.6185 145.019 41.6385C148.806 41.6452 152.02 40.5016 154.661 38.2078C157.288 35.9274 157.568 33.4669 155.501 30.8264C154.981 30.1596 154.311 29.7262 153.491 29.5262Z" fill="#78B3DB"/>
<path d="M0.28125 10.002C3.96863 10.302 7.63267 10.7221 11.2734 11.2622C13.0637 11.5222 14.9441 11.1222 16.9245 12.4324L9.00293 14.8029L0.561304 14.1728L0.28125 10.002Z" fill="#585D7B"/>
<path d="M0.5625 14.1729L9.00413 14.803C14.0718 15.5365 18.9027 16.2933 23.4969 17.0734C29.1247 18.0269 34.7924 18.407 40.5002 18.2136C40.8669 18.2003 41.217 18.2736 41.5504 18.4337C42.4973 18.8871 43.4474 19.2138 44.401 19.4139C45.2878 19.6006 45.7946 20.1407 45.9213 21.0342C45.9746 21.4142 45.8212 21.6743 45.4612 21.8143C43.2274 22.6678 41.2037 22.8612 39.39 22.3944C36.1294 21.5543 32.7487 21.9544 29.3681 22.5045C27.7277 22.7645 25.8941 22.9012 23.867 22.9145C16.1855 22.9546 8.4907 23.0779 0.782542 23.2846L0.5625 14.1729Z" fill="#8FBBE7"/>
<path d="M602.986 31.1262L595.625 30.8961C598.799 29.9893 600.616 28.7291 601.076 27.1154L603.827 26.6853C604.043 26.6514 604.247 26.5605 604.418 26.422C604.588 26.2834 604.718 26.1022 604.796 25.8967C604.873 25.6913 604.894 25.469 604.858 25.2526C604.821 25.0362 604.727 24.8334 604.587 24.6649C603.873 23.7981 602.573 23.5047 600.686 23.7848C599.919 22.1578 598.906 20.9976 597.645 20.3041C599.399 19.8173 601.226 19.6673 603.126 19.854C605.214 20.0674 606.827 21.0876 607.967 22.9146C610.308 26.662 608.647 29.3992 602.986 31.1262Z" fill="#72C9D7"/>
<path d="M153.486 29.5257C154.306 29.7257 154.976 30.1591 155.496 30.8259C157.563 33.4664 157.283 35.9269 154.656 38.2074C152.016 40.5011 148.802 41.6447 145.014 41.638C136.413 41.618 127.691 41.448 119.079 41.8181C116.139 41.9381 112.308 42.2982 109.988 40.1477C105.76 36.227 100.859 34.2066 95.2847 34.0866C81.9522 33.7865 68.8096 33.7265 55.437 33.2264C50.6361 33.0464 47.7756 32.0162 45.1851 28.1154C45.0569 27.9207 44.9809 27.6963 44.9644 27.4637C44.9478 27.2312 44.9914 26.9983 45.0908 26.7874C45.1902 26.5765 45.3422 26.3947 45.5321 26.2595C45.722 26.1242 45.9435 26.04 46.1752 26.015C65.579 24.0613 85.1394 23.2345 104.857 23.5345C116.179 23.7012 126.614 24.5047 136.163 25.945C141.117 26.6918 146.891 27.8854 153.486 29.5257Z" fill="#299DD2"/>
<path d="M364.023 28.4158C366.77 28.8625 368.264 30.4928 368.504 33.3067C368.654 35.1571 366.984 36.6474 365.323 36.7674C334.811 39.0278 306.472 40.6981 280.307 41.7783C274.126 42.0284 266.924 41.0482 260.583 39.6879C248.501 37.1008 236.782 33.8835 225.426 30.0361C224.579 29.7494 224.013 29.2393 223.726 28.5058C223.544 28.0381 223.55 27.5179 223.741 27.0514C223.933 26.5849 224.296 26.2072 224.756 25.9953C228.724 24.1816 233.041 23.4148 237.709 23.6949C241.469 23.9149 243.363 24.0249 243.39 24.0249C251.718 24.1049 260.043 24.2783 268.365 24.545C276.813 24.8184 283.484 24.9784 288.378 25.0251C303.728 25.1851 319.098 25.3085 334.487 25.3952C337.408 25.4085 340.128 25.5219 342.649 25.7353C346.16 26.0253 349.67 26.0453 353.141 26.6254C356.955 27.2589 360.582 27.8557 364.023 28.4158Z" fill="#1CADDB" fill-opacity="0.992"/>
<path d="M196.025 26.6553C198.399 28.4956 200.652 30.436 202.786 32.4764C205.88 35.4303 211.064 38.7509 218.339 42.4383C225.914 46.2724 233.939 48.6128 242.414 49.4597C263.631 51.5801 279.554 52.897 290.183 53.4104C298.431 53.8038 307.393 53.2704 317.068 51.8101C329.404 49.9498 341.866 47.1792 354.455 43.4985C362.504 44.4254 368.208 44.5821 371.569 43.9686C376.956 42.9884 382.407 41.9716 387.922 40.918C392.783 39.9912 397.244 39.4044 401.304 39.1577C412.647 38.4776 423.939 37.9675 435.341 37.5374C441.536 37.304 448.237 37.1806 455.445 37.1673C471.328 37.1406 482.697 37.264 489.551 37.5374C494.652 37.7441 501 38.3642 508.595 39.3977C513.116 40.0112 520.834 41.3114 531.75 43.2985L608.894 58.3414C609.361 58.8548 610.008 59.2716 610.835 59.5916C624.197 64.7926 637.57 69.9736 650.953 75.1346C661.968 79.3821 673.377 82.156 685.179 83.4562C690.233 84.5564 695.284 85.68 700.332 86.8269C705.72 88.0604 710.791 89.0706 715.545 89.8575C719.399 90.4909 723.253 91.1177 727.107 91.7378C730.941 92.3513 734.809 92.848 738.71 93.2281C743.697 93.7215 748.685 94.2016 753.672 94.6684C763.994 95.6386 774.496 95.7986 784.918 96.1687C785.225 97.2355 785.899 97.7857 786.939 97.819C787.26 97.8321 787.574 97.9286 787.849 98.0991C789.229 98.9525 790.77 99.3426 792.47 99.2693C792.863 99.2493 793.043 99.4326 793.01 99.8194L792.98 100.099C792.933 100.593 792.67 100.88 792.19 100.96C784.628 102.26 779.857 102.93 777.877 102.97C772.156 103.07 765.775 103.45 759.904 102.68C757.897 102.413 755.896 102.153 753.902 101.9C751.255 101.56 748.288 100.953 745.001 100.079C742.254 99.346 739.576 98.6458 736.969 97.979C735.142 97.5123 733.455 97.4223 731.908 97.709C728.614 98.3091 725.184 98.3024 721.616 97.689C721.382 97.6456 721.141 97.6564 720.91 97.7205C720.68 97.7846 720.467 97.9004 720.286 98.059C718.156 99.9094 714.195 99.4493 711.384 99.0192C709.551 98.7325 707.684 99.0626 705.783 100.009C695.141 94.515 683.105 90.1575 669.676 86.9369C656.994 83.9063 645.502 80.5657 633.109 79.0954C629.008 78.6086 624.901 78.0719 620.787 77.4851C617.713 77.045 614.032 76.3082 609.745 75.2746C606.064 74.3878 602.39 73.5977 598.722 72.9042C589.134 71.7306 579.595 70.4971 570.107 69.2035C566.906 68.7634 561.185 68.3233 552.944 67.8832C546.562 67.5365 540.805 67.0697 535.67 66.483C527.369 65.5361 519.037 64.896 510.676 64.5626C504.364 64.3125 498.253 63.5824 491.932 63.0523C487.651 62.6922 482.907 62.5055 477.699 62.4922C465.023 62.4588 452.648 62.2455 440.572 61.8521C433.404 61.6253 426.736 61.4887 420.568 61.442C405.185 61.3353 393.853 61.5987 386.572 62.2321C381.031 62.7189 375.589 63.1456 370.248 63.5124C362.374 62.9189 354.552 62.8456 346.784 63.2923C337.956 63.7991 332.128 64.0625 329.301 64.0825C316.838 64.1892 304.922 64.2725 293.554 64.3325C292.653 64.3425 291.703 64.6626 290.883 64.6726C282.108 64.7059 273.3 64.7193 264.458 64.7126C262.618 64.7126 260.807 64.4226 258.927 64.4126C255.093 64.3725 246.308 64.0725 232.572 63.5124C214.582 62.7789 188.447 62.7789 154.167 63.5124C146.485 63.6724 138.744 63.6624 130.522 63.5524C129.562 63.5391 128.645 63.5291 127.772 63.5224C120.83 63.4624 113.312 63.219 105.217 62.7922C99.6962 62.5055 94.4619 62.2488 89.5142 62.0221C80.1458 61.5887 70.8073 60.4985 61.4988 58.7515C48.2296 56.2643 39.5413 54.7974 35.4338 54.3506C26.7188 53.3971 15.3133 53.0737 1.21721 53.3804L1.11719 47.5393C5.4847 47.3126 11.5292 47.3526 19.2507 47.6593C25.3985 47.906 40.0847 47.9327 63.3092 47.7393C68.0001 47.6993 72.591 48.3895 77.2219 48.7095C79.9624 48.8996 81.8428 50.7499 84.5433 51.24C92.2848 52.627 99.9529 51.9902 107.548 49.3296C109.541 48.6295 111.185 47.5926 112.479 46.219L178.962 44.2687L187.103 45.0188C187.232 45.0304 187.362 45.0074 187.479 44.9522C187.597 44.8969 187.697 44.8115 187.771 44.7045C187.844 44.5976 187.887 44.473 187.897 44.3437C187.906 44.2144 187.881 44.0849 187.823 43.9686C187.29 42.9084 186.976 41.7882 186.883 40.608C186.87 40.4151 186.912 40.2224 187.004 40.0524C187.096 39.8825 187.234 39.7421 187.403 39.6478C187.572 39.5535 187.764 39.509 187.957 39.5196C188.15 39.5303 188.336 39.5955 188.493 39.7078C189.027 40.0879 189.62 40.3512 190.274 40.4979C190.64 40.578 190.954 40.7547 191.214 41.028C192.734 42.6083 194.174 44.5887 196.375 45.1888C200.042 46.189 203.626 47.1592 207.127 48.0994C208.12 48.3661 208.821 48.0561 209.227 47.1692C210.408 44.6387 205.257 42.3583 204.346 41.4481C200.586 37.6874 197.772 34.4368 195.905 31.6962C194.598 29.7692 194.638 28.0889 196.025 26.6553Z" fill="#0E426D"/>
<path d="M0.859375 34.2271C16.269 34.0737 26.2376 34.1504 30.7651 34.4571C36.0462 34.8172 43.4043 36.0808 52.8394 38.2478C57.3303 39.288 62.0812 39.6481 66.6021 40.3182C68.8625 40.6583 70.4328 42.0886 72.6732 42.4187C85.7491 44.3857 99.0183 45.6526 112.481 46.2194C111.187 47.593 109.544 48.6299 107.55 49.33C99.9552 51.9905 92.287 52.6273 84.5455 51.2404C81.845 50.7503 79.9646 48.8999 77.2241 48.7099C72.5932 48.3898 68.0023 47.6997 63.3114 47.7397C40.0869 47.9331 25.4008 47.9064 19.2529 47.6597C11.5314 47.3529 5.48693 47.3129 1.11943 47.5396L0.859375 34.2271Z" fill="#0D6E9D"/>
<path d="M1.21875 53.3796C15.3148 53.0728 26.7203 53.3962 35.4354 54.3497C39.5428 54.7965 48.2312 56.2634 61.5004 58.7506C70.8088 60.4976 80.1473 61.5878 89.5158 62.0212C94.4634 62.2479 99.6977 62.5046 105.219 62.7914C113.314 63.2181 120.832 63.4615 127.773 63.5215C128.647 63.5282 129.564 63.5382 130.524 63.5515C138.745 63.6615 146.487 63.6715 154.168 63.5115C188.448 62.778 214.583 62.778 232.573 63.5115C246.309 64.0716 255.094 64.3717 258.928 64.4117C260.809 64.4217 262.619 64.7117 264.46 64.7117C273.301 64.7184 282.11 64.7051 290.885 64.6717C291.705 64.6617 292.655 64.3417 293.555 64.3317C304.924 64.2717 316.84 64.1883 329.302 64.0816C332.129 64.0616 337.957 63.7982 346.785 63.2915C354.554 62.8447 362.375 62.9181 370.25 63.5115C344.605 66.6988 319.037 69.7094 293.545 72.5433C291.205 72.8033 288.924 73.2334 286.644 73.7035C285.11 74.0169 283.403 74.1569 281.523 74.1236C277.955 74.0702 274.255 74.0869 270.421 74.1736C263.659 74.3236 256.888 73.4334 249.777 73.2434C246.836 73.1634 243.486 72.3932 240.925 72.3632C218.647 72.1365 194.339 72.0165 168.001 72.0032C163.49 72.0032 158.779 71.5631 154.128 71.7831C151.261 71.9231 148.357 72.0031 145.417 72.0231C130.187 72.1432 114.957 72.2732 99.7278 72.4132C92.1663 72.4832 78.6637 72.9933 68.5117 72.5433C64.8577 72.3899 60.6102 71.8564 55.7693 70.9429C58.7365 70.5629 61.397 70.0561 63.7508 69.4227C64.2776 69.276 65.4378 69.486 67.2315 70.0528C67.4515 70.1194 67.5749 70.0361 67.6016 69.8027L67.6616 69.3726C67.6749 69.2726 67.6316 69.1993 67.5315 69.1526C65.6845 68.3058 63.8342 68.0424 61.9805 68.3625C58.6498 68.9426 54.8291 68.2424 51.2684 67.8924C47.3677 67.5123 43.4569 66.042 39.6762 66.302C34.7352 66.6554 29.8609 66.152 25.0533 64.7918C24.2932 64.5717 23.5797 64.4384 22.9129 64.3917C22.1928 64.3317 21.4693 64.285 20.7425 64.2516C14.3813 63.9649 7.97672 63.9549 1.52881 64.2216L1.21875 53.3796Z" fill="#1295B9"/>
<path d="M883.413 71.0036C883.834 72.8239 884.727 74.1675 886.094 75.0344C886.256 75.1359 886.393 75.2721 886.496 75.4331C886.598 75.5941 886.664 75.7759 886.688 75.9653C886.712 76.1548 886.693 76.3472 886.634 76.5287C886.574 76.7101 886.475 76.8762 886.344 77.0147C883.263 80.2153 879.713 79.9753 875.792 79.1951C866.604 77.3748 857.652 75.5511 848.937 73.7241C842.976 72.4705 836.421 71.2836 829.273 70.1634C818.751 68.5097 808.296 66.8761 797.907 65.2625C796.027 64.9691 794.01 64.9991 791.856 65.3525C789.062 65.0924 786.828 65.0357 785.155 65.1824C763.59 67.0028 742.253 68.6398 721.142 70.0934C714.374 70.8269 708.1 71.0469 702.319 70.7535C696.724 69.8 693.16 69.5533 691.626 70.0134C686.752 71.467 683.001 70.1834 680.374 66.1626C680.188 65.8759 680.161 65.5759 680.294 65.2625C680.754 64.1689 681.791 63.4254 683.405 63.032C686.679 63.112 690.006 63.2321 693.387 63.3921C697.028 63.5588 700.362 63.5921 703.389 63.4921C708.73 63.3121 714.041 63.1621 719.462 62.632C728.984 61.7051 738.609 60.6882 748.337 59.5814C754.472 58.8812 761.167 58.2978 768.421 57.831C778.377 57.1842 787.475 56.9209 795.717 57.0409C810.479 57.2542 822.265 57.9544 831.073 59.1413C835.161 59.6881 839.178 60.2548 843.126 60.8416C846.093 61.2817 848.96 61.8151 851.727 62.4419C854.515 63.0687 857.379 63.7222 860.319 64.4023C864.086 65.2691 867.951 66.3027 871.911 67.5029C875.799 68.6831 879.633 69.85 883.413 71.0036Z" fill="#1884BA"/>
<path d="M598.726 72.9042C598.766 73.6044 598.543 74.0945 598.056 74.3745C597.776 74.5279 597.656 74.7646 597.696 75.0847L597.756 75.5447C594.416 76.5449 590.295 77.2351 587.724 79.2955C586.457 80.3157 585.117 81.6192 583.704 83.2062C582.657 84.3798 581.97 85.75 581.643 87.317C580.896 90.8777 581.8 94.1883 584.354 97.2489C586.507 100.923 589.408 103.967 593.055 106.381C593.655 108.961 594.856 111.392 595.356 113.592C596.803 119.973 596.736 126.488 595.156 133.136C594.676 135.156 593.709 136.837 592.255 138.177C590.588 139.717 588.708 140.531 586.614 140.617C573.845 141.184 562.066 141.681 551.277 142.108C544.956 142.361 537.141 142.371 527.833 142.138C518.771 141.918 509.463 141.761 499.907 141.667C494.306 141.617 488.735 142.208 483.124 142.738C478.463 143.184 474.269 143.775 470.542 144.508C464.807 145.642 459.976 146.338 456.049 146.598C444.317 147.379 431.884 146.738 419.692 146.618C415.878 146.578 412.067 146.202 408.26 145.488C403.052 144.508 397.638 143.565 392.017 142.658C391.95 142.644 388.499 142.004 381.665 140.737C377.837 140.031 373.943 139.53 369.982 139.237C378.391 138.857 386.756 138.487 395.077 138.127C406.806 137.613 432.644 137.613 472.592 138.127C476.92 138.18 483.334 138.464 491.836 138.977C506.499 139.857 520.481 136.827 534.644 132.666C535.534 132.396 536.164 131.906 536.864 131.335C537.158 131.102 537.355 130.802 537.455 130.435C539.555 122.874 540.505 116.299 540.305 110.712C540.205 108.031 538.605 97.849 534.354 97.519C531.547 97.3056 528.906 97.1556 526.432 97.0689C469.415 95.0018 411.157 92.8714 351.659 90.6777C348.878 90.5776 346.151 90.5076 343.477 90.4676C337.716 90.3776 333.845 90.3776 329.104 88.5272C325.184 86.9869 322.203 86.6569 318.312 86.5069C296.175 85.6334 278.578 85.0499 265.522 84.7565C268.009 84.2631 270.513 83.9363 273.034 83.7763C275.074 83.6496 276.984 83.3462 278.765 82.8662C280.785 82.326 282.849 81.986 284.956 81.8459C285.863 81.7859 286.676 81.4892 287.396 80.9558C287.5 80.8775 287.586 80.7782 287.648 80.6643C287.711 80.5505 287.748 80.4248 287.759 80.2953C287.769 80.1659 287.752 80.0357 287.709 79.9134C287.665 79.7911 287.596 79.6793 287.506 79.5855C286.88 78.9254 286.139 78.522 285.286 78.3753C279.558 77.4084 273.254 77.0017 266.372 77.155C265.052 77.1817 263.735 77.0417 262.422 76.735C259.161 75.9748 256.16 75.1847 252.9 75.2047C235.546 75.2947 217.723 75.5947 200.29 75.7448C198.983 75.7514 197.732 75.7581 196.539 75.7648C178.275 75.8448 159.942 76.1782 141.538 76.765C128.526 77.175 116.343 77.2551 102.831 77.7652C89.5082 78.2719 77.8459 78.3619 67.844 78.0352C66.3971 77.9885 63.7632 78.0585 59.9425 78.2452C57.342 78.3719 54.7348 78.5853 52.121 78.8854C45.4197 79.6655 38.715 80.4157 32.0071 81.1358C26.9861 81.6826 16.9108 81.6559 1.78125 81.0558L1.84126 76.4249C10.1095 76.1582 17.6643 75.5881 24.5056 74.7146C29.9934 74.0078 37.8282 72.8542 48.0102 71.2539C50.824 70.8138 53.4112 70.7105 55.7717 70.9438C60.6126 71.8573 64.8601 72.3908 68.5141 72.5442C78.6661 72.9942 92.1687 72.4841 99.7302 72.4141C114.96 72.2741 130.189 72.1441 145.419 72.024C148.36 72.004 151.263 71.924 154.131 71.784C158.782 71.564 163.492 72.0041 168.003 72.0041C194.342 72.0174 218.65 72.1374 240.927 72.3641C243.488 72.3941 246.839 73.1643 249.779 73.2443C256.89 73.4343 263.662 74.3245 270.423 74.1745C274.257 74.0878 277.958 74.0711 281.525 74.1245C283.406 74.1578 285.113 74.0178 286.646 73.7044C288.927 73.2343 291.207 72.8042 293.548 72.5442C319.039 69.7103 344.607 66.6997 370.252 63.5124C375.593 63.1457 381.034 62.7189 386.576 62.2322C393.857 61.5987 405.189 61.3353 420.572 61.442C426.74 61.4887 433.408 61.6254 440.576 61.8521C452.652 62.2455 465.027 62.4589 477.703 62.4922C482.911 62.5056 487.655 62.6923 491.936 63.0523C498.257 63.5824 504.368 64.3126 510.679 64.5626C519.041 64.896 527.373 65.5361 535.674 66.483C540.809 67.0698 546.566 67.5365 552.948 67.8832C561.189 68.3233 566.91 68.7634 570.111 69.2035C579.599 70.4971 589.138 71.7307 598.726 72.9042Z" fill="#47BBE0" fill-opacity="0.992"/>
<path d="M55.7717 70.9444C53.4113 70.711 50.8241 70.8144 48.0102 71.2544C37.8283 72.8548 29.9934 74.0083 24.5057 74.7151C17.6644 75.5886 10.1096 76.1587 1.84131 76.4254L1.53125 64.2231C7.97916 63.9564 14.3837 63.9664 20.745 64.2531C21.4718 64.2864 22.1952 64.3331 22.9154 64.3931C23.5822 64.4398 24.2956 64.5731 25.0558 64.7932C29.8634 66.1535 34.7377 66.6569 39.6786 66.3035C43.4593 66.0434 47.3701 67.5137 51.2708 67.8938C54.8315 68.2439 58.6523 68.944 61.9829 68.3639C63.8366 68.0438 65.687 68.3072 67.534 69.154C67.634 69.2007 67.6773 69.2741 67.664 69.3741L67.604 69.8042C67.5773 70.0375 67.454 70.1209 67.2339 70.0542C65.4402 69.4874 64.28 69.2774 63.7533 69.4241C61.3995 70.0575 58.7389 70.5643 55.7717 70.9444Z" fill="#1884BA"/>
<path d="M598.725 72.9033C602.393 73.5968 606.067 74.3869 609.747 75.2738C614.035 76.3073 617.715 77.0441 620.789 77.4842C624.904 78.071 629.011 78.6078 633.112 79.0945C645.504 80.5648 656.996 83.9054 669.679 86.936C683.108 90.1566 695.144 94.5142 705.786 100.009L716.678 106.4C715.791 106.787 714.944 106.957 714.137 106.91C705.202 106.396 696.397 105.086 687.722 102.979C681.041 101.349 674.46 98.8283 667.939 96.5079C664.238 95.1876 660.317 94.4575 656.416 93.4873C653.689 92.8005 650.752 91.8703 647.605 90.6967C636.256 86.4759 627.181 83.2086 620.379 80.8949C616.059 79.4279 610.314 77.7409 603.146 75.8339C601.052 75.3738 599.255 75.2771 597.755 75.5438L597.695 75.0837C597.655 74.7637 597.775 74.527 598.055 74.3736C598.542 74.0936 598.765 73.6035 598.725 72.9033Z" fill="#6DB2CC" fill-opacity="0.992"/>
<path d="M265.522 84.7563L245.758 85.5565C241.758 85.1631 237.777 85.0864 233.816 85.3264C229.235 85.6065 225.064 85.5865 220.723 85.2464C215.402 84.8263 209.081 85.9565 203.21 86.0566C200.803 86.1032 198.246 86.3066 195.539 86.6667C192.251 87.1001 188.501 87.2701 184.286 87.1768C182.553 87.1368 180.556 87.4102 178.295 87.9969C176.468 88.4704 174.621 88.7204 172.754 88.7471C153.29 89.0538 134.127 89.2905 115.263 89.4572C111.876 89.4906 108.679 89.6606 105.671 89.9673C102.177 90.3207 98.7966 90.7408 95.5293 91.2276C92.4287 91.6877 88.7514 91.9044 84.4972 91.8777C84.1505 91.8777 83.8471 91.9944 83.587 92.2278C83.3937 92.4078 83.167 92.4611 82.9069 92.3878C82.6469 92.3144 82.3768 92.2878 82.0968 92.3078C74.3219 92.7879 66.9572 92.7212 60.0025 92.1077C58.2221 91.9544 56.4451 91.871 54.6715 91.8577C52.9311 91.851 51.1574 91.781 49.3504 91.6476C41.2889 91.0609 33.2707 90.8942 25.2958 91.1476C24.5356 91.0575 23.9255 90.7475 23.2254 90.7275C16.2107 90.5874 9.13934 90.6308 2.01129 90.8575L1.78125 81.0556C16.9108 81.6557 26.9861 81.6824 32.0071 81.1356C38.715 80.4155 45.4197 79.6653 52.121 78.8852C54.7348 78.5851 57.342 78.3717 59.9425 78.2451C63.7632 78.0584 66.3971 77.9883 67.844 78.035C77.8459 78.3618 89.5082 78.2717 102.831 77.765C116.343 77.2549 128.526 77.1749 141.538 76.7648C159.942 76.178 178.275 75.8446 196.539 75.7646C197.732 75.7579 198.983 75.7512 200.29 75.7446C217.723 75.5945 235.546 75.2945 252.9 75.2045C256.16 75.1845 259.161 75.9746 262.422 76.7348C263.735 77.0415 265.052 77.1815 266.372 77.1548C273.254 77.0015 279.558 77.4082 285.286 78.3751C286.139 78.5218 286.88 78.9252 287.506 79.5853C287.596 79.6791 287.665 79.7909 287.709 79.9132C287.752 80.0355 287.769 80.1657 287.759 80.2951C287.748 80.4246 287.711 80.5503 287.648 80.6641C287.586 80.778 287.5 80.8773 287.396 80.9556C286.676 81.489 285.863 81.7857 284.956 81.8458C282.849 81.9858 280.785 82.3259 278.765 82.866C276.984 83.346 275.074 83.6494 273.034 83.7761C270.513 83.9362 268.009 84.2629 265.522 84.7563Z" fill="#77CDE8"/>
<path d="M603.14 75.8343L603.891 78.3748C599.083 76.8212 594.462 77.1979 590.028 79.505C588.361 80.3719 587.221 81.5454 586.607 83.0257C584.92 87.0732 584.167 91.8141 584.347 97.2485C581.793 94.1879 580.889 90.8772 581.636 87.3166C581.963 85.7496 582.65 84.3793 583.697 83.2058C585.11 81.6188 586.45 80.3152 587.717 79.295C590.288 77.2346 594.409 76.5445 597.749 75.5443C599.25 75.2776 601.047 75.3743 603.14 75.8343Z" fill="#6EBDE2" fill-opacity="0.988"/>
<path d="M603.148 75.835C610.316 77.742 616.061 79.429 620.382 80.8959C627.183 83.2097 636.258 86.477 647.607 90.6978C650.754 91.8714 653.691 92.8016 656.419 93.4884C660.319 94.4585 664.24 95.1887 667.941 96.5089C674.462 98.8294 681.043 101.35 687.725 102.98C696.4 105.087 705.205 106.398 714.14 106.911C714.947 106.958 715.793 106.788 716.68 106.401L727.923 108.871C725.502 110.725 723.452 112.625 721.771 114.572C720.531 116.013 719.334 116.996 718.181 117.523C714.266 119.297 710.149 119.977 705.828 119.563C704.095 119.397 702.454 119.057 700.907 118.543C694.433 116.396 689.355 118.24 685.674 124.074C685.5 124.358 685.433 124.692 685.484 125.014C685.738 126.568 686.485 127.998 687.725 129.305C690.765 132.526 693.599 134.96 696.226 136.607C697.133 137.173 698.1 137.604 699.127 137.897C701.737 138.637 703.838 139.797 706.578 140.087C710.546 140.507 714.643 140.854 718.871 141.128C721.921 141.318 725.112 142.108 728.002 143.258C729.609 143.898 731.206 144.538 732.793 145.178C734.394 145.832 735.857 146.699 737.184 147.779C739.565 149.733 742.202 150.836 745.096 151.089C756.305 152.07 767.85 153.203 779.732 154.49C783.166 154.864 786.794 155.507 790.615 156.421C794.309 157.307 797.966 158.154 801.587 158.961C802.807 159.241 804.017 159.111 805.287 159.211C805.614 159.238 805.891 159.374 806.118 159.621C806.404 159.921 806.834 160.011 807.408 159.891C808.061 159.744 808.408 159.865 808.448 160.251L713.82 160.971C713.5 158.681 714.9 156.28 711.489 155.37C708.202 154.497 705.805 153.417 704.298 152.13C702.211 150.349 699.994 147.919 697.647 144.838C696.526 143.378 694.956 142.928 693.686 141.668C692.806 140.787 691.789 140.051 690.635 139.457C686.321 137.237 681.697 135.496 676.763 134.236C671.268 132.829 668.228 129.342 667.641 123.774C667.101 118.623 671.952 118.073 675.632 117.443C679.623 116.763 682.554 111.262 678.273 108.731C674.092 106.257 669.098 103.434 663.29 100.26C661.456 99.2595 659.586 98.576 657.679 98.2093C655.979 97.8759 654.532 97.1591 653.338 96.0588C651.128 94.0085 646.367 94.0485 643.386 93.8284C631.737 92.9616 620.305 88.9808 609.09 81.8861L603.899 78.3754L603.148 75.835Z" fill="#56B2DD" fill-opacity="0.992"/>
<path d="M603.89 78.3743L609.081 81.885C610.161 83.9054 611.108 85.6958 611.922 87.2561C612.642 88.623 612.999 89.8532 612.992 90.9468C612.952 95.1276 609.741 100.179 607.151 103.309C603.577 107.623 598.876 108.647 593.048 106.38C589.401 103.966 586.5 100.922 584.346 97.248C584.166 91.8136 584.92 87.0727 586.607 83.0252C587.22 81.5449 588.36 80.3714 590.027 79.5046C594.462 77.1974 599.083 76.8207 603.89 78.3743Z" fill="#8FCFE7" fill-opacity="0.996"/>
<path d="M990.95 86.6463C987.002 86.3663 984.495 86.0795 983.428 85.7862C982.001 85.3927 980.784 85.1193 979.777 84.966C977.477 84.6126 976.257 84.4192 976.117 84.3859C973.816 83.8458 971.426 83.3023 968.945 82.7556C972.599 81.8754 976.263 81.7554 979.937 82.3955C983.658 83.049 987.329 84.4659 990.95 86.6463Z" fill="#80C2DD" fill-opacity="0.992"/>
<path d="M609.092 81.8857C620.308 88.9804 631.74 92.9612 643.389 93.828C646.37 94.0481 651.131 94.0081 653.341 96.0585C654.535 97.1587 655.981 97.8755 657.682 98.2089C659.589 98.5756 661.459 99.2591 663.293 100.259C669.101 103.433 674.095 106.257 678.276 108.731C682.557 111.261 679.626 116.762 675.635 117.443C671.955 118.073 667.104 118.623 667.644 123.774C668.231 129.342 671.271 132.829 676.765 134.236C681.7 135.496 686.324 137.236 690.638 139.457C691.792 140.05 692.809 140.787 693.689 141.667C694.959 142.928 696.529 143.378 697.65 144.838C699.997 147.918 702.214 150.349 704.301 152.129C705.808 153.416 708.205 154.496 711.492 155.37C714.903 156.28 713.503 158.681 713.823 160.971L652.441 161.501C650.38 160.808 648.277 160.304 646.13 159.991C639.608 159.051 633.107 158.037 626.626 156.95C625.159 156.704 623.665 156.74 622.145 157.06C620.571 157.4 619.098 157.57 617.724 157.57C591.479 157.65 568.345 157.64 548.321 157.54C546.79 157.53 545.42 156.53 544.13 155.8C543.743 155.579 543.286 155.516 542.855 155.624C542.424 155.732 542.053 156.003 541.819 156.38C541.093 157.554 539.966 158.007 538.439 157.74C538.265 156.067 538.522 154.28 539.209 152.379C539.762 150.852 539.966 149.739 539.819 149.039C539.519 147.638 538.522 146.828 536.828 146.608C534.568 146.315 531.674 146.181 528.147 146.208C525.806 146.221 523.846 146.698 522.266 147.638C520.185 148.872 519.292 150.992 519.585 154C519.845 156.6 520.852 158.654 522.606 160.161C522.359 160.161 522.276 160.364 522.356 160.771C522.429 161.151 522.279 161.291 521.906 161.191C519.699 160.631 517.508 160.244 515.334 160.031C492.437 157.737 469.475 157.26 446.451 158.601C442.457 158.834 438.233 159.607 433.779 160.921C432.918 161.168 432.052 161.294 431.178 161.301C428.978 161.311 426.837 161.551 424.617 161.501C414.328 161.294 404.04 161.178 393.751 161.151C391.24 161.141 388.84 160.731 386.259 160.721C379.631 160.681 370.04 160.371 357.484 159.791C356.504 159.751 355.513 159.467 354.513 158.941C353.313 158.3 352.146 157.947 351.013 157.88C341.971 157.327 332.532 156.864 322.697 156.49C320.463 156.41 318.606 156.03 317.126 155.35C314.992 154.376 313.015 153.29 311.195 152.089C310.722 151.783 310.208 151.549 309.655 151.389C307.984 150.899 306.644 150.019 304.934 149.579C301.966 148.805 299.479 148.512 297.472 148.699C294.705 148.959 291.938 149.405 289.171 150.039C282.043 151.679 275.568 152.323 269.747 151.969C262.759 151.543 253.34 150.346 241.491 148.379C237.971 147.798 233.11 145.338 235.35 140.837C235.51 140.51 235.757 140.28 236.09 140.147C237.004 139.767 237.741 139.574 238.301 139.567C247.076 139.427 255.981 139.07 265.016 138.497C268.997 138.943 273.161 138.903 277.508 138.377C284.737 138.69 292.095 139.05 299.583 139.457C306.217 139.81 312.875 139.914 319.557 139.767C336.393 139.387 353.203 139.21 369.986 139.237C373.947 139.53 377.841 140.03 381.669 140.737C388.503 142.004 391.954 142.644 392.021 142.657C397.642 143.564 403.056 144.508 408.264 145.488C412.071 146.201 415.882 146.578 419.696 146.618C431.888 146.738 444.321 147.378 456.053 146.598C459.98 146.338 464.811 145.641 470.546 144.508C474.273 143.774 478.467 143.184 483.128 142.737C488.739 142.207 494.31 141.617 499.911 141.667C509.467 141.761 518.775 141.917 527.837 142.137C537.145 142.371 544.96 142.361 551.281 142.107C562.07 141.681 573.849 141.184 586.618 140.617C588.712 140.53 590.592 139.717 592.259 138.177C593.713 136.836 594.68 135.156 595.16 133.136C596.74 126.488 596.807 119.973 595.36 113.592C594.86 111.391 593.659 108.961 593.059 106.38C598.887 108.648 603.588 107.624 607.162 103.31C609.753 100.179 612.963 95.1283 613.003 90.9475C613.01 89.8539 612.653 88.6237 611.933 87.2568C611.119 85.6965 610.173 83.9061 609.092 81.8857ZM623.767 146.458C623.182 145.372 622.103 144.61 620.766 144.339C619.429 144.068 617.945 144.311 616.639 145.014C615.993 145.362 615.41 145.812 614.923 146.34C614.437 146.867 614.057 147.461 613.804 148.087C613.552 148.714 613.432 149.361 613.452 149.991C613.472 150.621 613.632 151.222 613.921 151.759C614.506 152.845 615.586 153.608 616.922 153.879C618.259 154.149 619.744 153.907 621.049 153.204C621.696 152.856 622.279 152.405 622.765 151.878C623.252 151.35 623.632 150.756 623.884 150.13C624.137 149.504 624.256 148.857 624.236 148.227C624.216 147.597 624.057 146.996 623.767 146.458Z" fill="#6EBDE2" fill-opacity="0.988"/>
<path d="M265.521 84.7568C278.577 85.0502 296.173 85.6337 318.311 86.5072C322.202 86.6572 325.182 86.9873 329.103 88.5276C333.844 90.3779 337.715 90.3779 343.476 90.4679C346.15 90.5079 348.877 90.578 351.657 90.678C411.155 92.8717 469.413 95.0021 526.431 97.0692C528.905 97.1559 531.545 97.3059 534.353 97.5193C538.603 97.8494 540.204 108.031 540.304 110.712C540.504 116.3 539.554 122.874 537.453 130.436C537.353 130.802 537.156 131.102 536.863 131.336C536.163 131.906 535.533 132.396 534.643 132.666C520.48 136.827 506.497 139.857 491.834 138.977C483.333 138.464 476.918 138.18 472.591 138.127C432.643 137.614 406.805 137.614 395.076 138.127C386.754 138.487 378.389 138.857 369.981 139.237C353.198 139.211 336.388 139.387 319.551 139.767C312.87 139.914 306.212 139.811 299.577 139.457C292.089 139.051 284.731 138.691 277.503 138.377C276.429 137.27 275.486 136.193 274.672 135.147C273.526 133.68 272.569 132.633 271.802 132.006C267.921 128.839 263.5 126.692 258.539 125.565C253.152 124.344 247.707 123.158 242.206 122.004L235.565 121.434C232.891 121.781 230.344 122.587 227.923 123.854C225.683 125.035 222.302 122.244 220.542 120.974C216.041 117.723 210.7 117.423 205.339 117.293C203.239 117.24 201.162 117.253 199.108 117.333C191.246 117.613 183.335 117.51 175.373 117.023C165.701 116.423 155.73 116.543 145.968 117.243C135.406 117.99 126.847 118.387 120.293 118.433C108.664 118.513 95.9646 118.427 82.1953 118.173C80.2549 118.133 78.5613 117.777 77.1143 117.103C75.414 116.316 73.8971 115.756 72.5635 115.423C64.5152 113.422 56.4904 111.465 48.4888 109.552C44.6281 108.631 40.8874 105.711 36.6365 104.561C35.3296 104.207 34.3161 103.547 33.5959 102.58C32.5557 101.18 31.5355 99.7131 30.5354 98.1794C30.4081 97.9853 30.3246 97.7657 30.2906 97.5361C30.2567 97.3064 30.2731 97.0722 30.3388 96.8495C30.4044 96.6268 30.5178 96.4211 30.6709 96.2466C30.824 96.0721 31.0132 95.933 31.2255 95.839C38.4269 92.6584 46.5785 91.5681 54.41 92.9384C55.5502 93.1384 56.7838 93.2385 58.1107 93.2385C62.6982 93.2318 67.3191 93.2751 71.9733 93.3685C72.7002 93.3818 73.7103 93.5119 75.0039 93.7586C77.3044 94.1987 80.495 93.9386 81.9553 94.0186C87.0363 94.292 92.0272 94.512 96.9282 94.6787C99.3986 94.7688 101.869 94.3887 104.32 94.2687C106.093 94.1753 107.9 93.9519 109.741 93.5985C117.195 92.1583 123.733 91.4314 129.354 91.4181C146.824 91.3648 158.563 91.1481 164.571 90.768C168.352 90.5346 171.923 90.4146 175.283 90.4079C178.284 90.4079 180.924 89.2677 183.905 89.0577C199.621 87.9108 215.358 87.1906 231.114 86.8972C231.474 86.8906 231.918 86.8306 232.444 86.7172C232.891 86.6239 233.344 86.5672 233.805 86.5472C237.805 86.3538 241.789 86.0237 245.757 85.557L265.521 84.7568Z" fill="#1CADDB" fill-opacity="0.992"/>
<path d="M245.754 85.5566C241.787 86.0233 237.803 86.3534 233.802 86.5468C233.342 86.5668 232.888 86.6235 232.442 86.7168C231.915 86.8302 231.471 86.8902 231.111 86.8969C215.355 87.1902 199.619 87.9104 183.902 89.0573C180.922 89.2673 178.281 90.4075 175.281 90.4075C171.92 90.4142 168.349 90.5342 164.569 90.7676C158.561 91.1477 146.822 91.3644 129.352 91.4177C123.731 91.4311 117.193 92.1579 109.738 93.5981C107.898 93.9516 106.091 94.1749 104.317 94.2683C101.866 94.3883 99.396 94.7684 96.9255 94.6784C92.0245 94.5117 87.0336 94.2916 81.9526 94.0182C80.4923 93.9382 77.3017 94.1983 75.0012 93.7582C73.7077 93.5115 72.6975 93.3814 71.9707 93.3681C67.3164 93.2748 62.6955 93.2314 58.108 93.2381C56.7811 93.2381 55.5475 93.1381 54.4073 92.938C46.5758 91.5678 38.4242 92.658 31.2228 95.8386C31.0106 95.9326 30.8213 96.0717 30.6682 96.2462C30.5151 96.4207 30.4018 96.6264 30.3361 96.8491C30.2704 97.0718 30.254 97.3061 30.288 97.5357C30.3219 97.7654 30.4054 97.9849 30.5327 98.179C31.5329 99.7127 32.5531 101.18 33.5933 102.58C34.3134 103.547 35.3269 104.207 36.6339 104.56C40.8847 105.71 44.6254 108.631 48.4861 109.551C56.4877 111.465 64.5126 113.422 72.5608 115.422C73.8944 115.756 75.4113 116.316 77.1117 117.103C78.5586 117.776 80.2523 118.133 82.1926 118.173C95.962 118.426 108.661 118.513 120.29 118.433C126.845 118.386 135.403 117.99 145.965 117.243C155.727 116.543 165.699 116.423 175.371 117.023C183.332 117.509 191.244 117.613 199.105 117.333C201.159 117.253 203.236 117.239 205.336 117.293C210.697 117.423 216.038 117.723 220.539 120.973C222.3 122.244 225.68 125.034 227.921 123.854C230.341 122.587 232.888 121.78 235.562 121.434C235.742 121.88 235.649 122.25 235.282 122.544C235.029 122.75 234.832 123 234.692 123.294C234.492 123.727 234.272 124.151 234.032 124.564C231.742 128.555 237.213 137.547 230.141 138.207C227.894 138.42 225.76 138.567 223.74 138.647C210.391 139.18 195.408 139.374 178.791 139.227C170.32 139.147 161.548 139.987 152.776 140.727C149.016 141.041 143.188 141.281 135.293 141.447C133.253 141.487 131.332 140.927 129.242 140.957C127.875 140.977 126.364 140.817 124.711 140.477C121.21 139.757 117.749 139.207 114.369 138.077C110.181 136.676 105.807 135.196 101.246 133.636C96.8988 132.149 93.3215 131.299 90.5142 131.085C82.586 130.479 74.9679 130.672 67.6598 131.665C59.6983 132.752 54.6873 133.326 52.6269 133.386C46.0523 133.599 39.5111 133.606 33.0031 133.406C31.1428 133.352 29.4258 133.162 27.8522 132.836C27.5454 132.769 27.2887 132.619 27.082 132.386C25.9418 131.075 24.7616 129.975 23.0312 129.505C18.2703 128.211 13.6494 127.038 9.16855 125.984C8.18169 125.751 7.13482 125.588 6.02794 125.494C4.94773 125.401 3.86086 125.274 2.76731 125.114L2.11719 93.7482C9.86535 93.7148 17.5902 92.848 25.2917 91.1477C33.2665 90.8943 41.2847 91.061 49.3463 91.6478C51.1533 91.7811 52.927 91.8511 54.6673 91.8578C56.441 91.8711 58.218 91.9545 59.9984 92.1079C66.953 92.7213 74.3178 92.788 82.0926 92.3079C82.3727 92.2879 82.6427 92.3146 82.9028 92.3879C83.1628 92.4613 83.3895 92.4079 83.5829 92.2279C83.843 91.9945 84.1464 91.8778 84.4931 91.8778C88.7472 91.9045 92.4246 91.6878 95.5252 91.2277C98.7925 90.7409 102.173 90.3208 105.667 89.9674C108.674 89.6607 111.872 89.4907 115.259 89.4574C134.123 89.2907 153.286 89.0539 172.75 88.7472C174.617 88.7205 176.464 88.4705 178.291 87.9971C180.552 87.4103 182.549 87.1369 184.282 87.1769C188.496 87.2703 192.247 87.1002 195.535 86.6668C198.242 86.3067 200.799 86.1034 203.206 86.0567C209.077 85.9567 215.398 84.8265 220.719 85.2465C225.06 85.5866 229.231 85.6066 233.812 85.3265C237.773 85.0865 241.753 85.1632 245.754 85.5566Z" fill="#47BBE0" fill-opacity="0.992"/>
<path d="M25.2923 91.1477C17.5908 92.8481 9.866 93.7149 2.11783 93.7482L2.00781 90.8577C9.13585 90.631 16.2072 90.5876 23.2219 90.7277C23.922 90.7477 24.5322 91.0577 25.2923 91.1477Z" fill="#56B2DD" fill-opacity="0.992"/>
<path d="M915.662 91.208L914.612 91.4781C914.311 91.5581 914.078 91.7281 913.911 91.9882C913.705 92.3149 913.395 92.4649 912.981 92.4383C911.381 92.3449 909.874 92.585 908.46 93.1584C908.127 93.2984 907.884 93.5318 907.73 93.8585C907.25 94.8654 907.077 95.9189 907.21 97.0191C907.25 97.3992 907.463 97.5993 907.85 97.6193C910.951 97.8293 914.091 97.2192 917.132 97.5392C922.033 98.0727 925.897 98.9629 928.724 100.21C931.365 101.377 933.955 102.614 936.496 103.92C936.951 104.156 937.3 104.557 937.47 105.041C937.641 105.526 937.622 106.059 937.416 106.531C936.582 108.411 935.316 110.052 933.615 111.452C933.342 111.679 932.999 111.816 932.635 111.842C932.115 111.882 931.661 112.069 931.275 112.402C931.042 112.596 930.749 112.702 930.445 112.702C929.038 112.682 927.594 112.282 926.114 111.502C915.418 110.962 904.876 110.072 894.488 108.831C891.72 108.498 889.42 108.371 887.586 108.451C879.225 108.791 871.213 111.292 862.782 111.342C843.204 111.475 824.367 111.445 806.271 111.252C800.429 111.192 794.028 110.312 788.227 110.382C784.04 110.428 779.675 110.575 775.135 110.822C775.015 110.829 774.899 110.869 774.8 110.937C774.702 111.005 774.624 111.099 774.575 111.208C774.526 111.316 774.509 111.436 774.525 111.553C774.54 111.671 774.589 111.781 774.665 111.872C774.905 112.159 775.215 112.405 775.595 112.612C775.948 112.799 776.322 112.926 776.715 112.992C780.009 113.539 783.24 114.019 786.407 114.433C788.881 114.759 791.464 115.146 794.158 115.593C797.832 116.2 801.55 116.71 805.31 117.123C808.998 117.536 812.732 117.763 816.513 117.803C845.451 118.103 874.354 116.893 903.219 114.172C902.172 115.299 900.826 115.836 899.179 115.783C899.05 115.776 898.921 115.798 898.8 115.846C898.679 115.895 898.569 115.968 898.478 116.063C898.132 116.416 898.032 116.81 898.178 117.243C898.272 117.55 898.452 117.8 898.718 117.993L899.939 118.873C888.29 120.894 877.364 121.991 867.162 122.164C855.96 122.357 839.237 122.287 816.993 121.954C814.686 121.921 812.332 121.837 809.931 121.704C806.081 121.494 802.35 121.774 798.439 121.394C796.945 121.247 795.445 121.22 793.938 121.314C792.305 121.367 791.128 121.287 790.408 121.074C781.319 118.393 773.648 116.836 767.393 116.403C761.659 116.003 756.201 115.643 751.02 115.323L727.916 108.871L716.673 106.401L705.781 100.01C707.682 99.0629 709.549 98.7328 711.382 99.0195C714.193 99.4496 718.154 99.9097 720.284 98.0593C720.465 97.9007 720.678 97.7849 720.909 97.7208C721.139 97.6567 721.38 97.6459 721.614 97.6893C725.182 98.3027 728.612 98.3094 731.906 97.7093C733.453 97.4226 735.14 97.5126 736.967 97.9793C739.574 98.6461 742.252 99.3463 744.999 100.08C748.286 100.953 751.253 101.56 753.901 101.9C755.894 102.153 757.895 102.414 759.902 102.68C765.773 103.45 772.154 103.07 777.875 102.97C779.855 102.93 784.626 102.26 792.188 100.96C792.668 100.88 792.931 100.593 792.978 100.1L793.008 99.8197C793.041 99.4329 792.861 99.2496 792.468 99.2696C790.768 99.3429 789.227 98.9528 787.847 98.0994C787.572 97.9289 787.258 97.8324 786.937 97.8193C785.897 97.786 785.223 97.2358 784.917 96.169C793.912 96.3023 799.823 96.259 802.65 96.039C806.164 95.7722 813.522 94.9754 824.724 93.6485C831.926 92.8017 838.567 92.1615 844.648 91.7281C860.038 90.6479 875.457 90.3812 890.907 90.928C891.327 90.9413 891.747 90.948 892.167 90.948C899.982 90.9013 907.814 90.988 915.662 91.208Z" fill="#0D4A7C"/>
<path d="M915.666 91.208L965.546 92.4682L1039.28 97.2092C1052.2 97.8626 1061.42 98.7194 1066.96 99.7797C1070.39 100.44 1073.83 101.063 1077.28 101.65C1080.5 102.197 1083.92 102.924 1087.53 103.83C1091.68 104.864 1095.78 105.777 1099.85 106.571C1100.99 108.798 1101.29 110.598 1100.75 111.972C1100.63 112.279 1100.4 112.452 1100.07 112.492L1095.73 113.002C1093.69 113.132 1091.83 113.292 1089.71 113.132C1084.08 112.705 1078.32 112.909 1072.42 113.742C1059.92 112.269 1047.01 111.272 1033.7 110.752C1001.92 109.512 970.25 110.885 938.69 114.873C933.416 115.539 928.142 116.243 922.867 116.983C919.413 117.47 915.599 117.82 911.425 118.033C907.571 118.233 903.744 118.513 899.943 118.873L898.723 117.993C898.456 117.8 898.276 117.55 898.183 117.243C898.036 116.81 898.136 116.416 898.483 116.063C898.574 115.968 898.683 115.895 898.804 115.846C898.925 115.798 899.054 115.776 899.183 115.783C900.83 115.836 902.177 115.299 903.224 114.172C904.564 114.112 906.964 114.179 910.425 114.372C915.219 114.639 920.45 113.682 926.118 111.502C927.598 112.282 929.042 112.682 930.449 112.702C930.753 112.702 931.047 112.596 931.279 112.402C931.666 112.069 932.119 111.882 932.639 111.842C933.004 111.816 933.346 111.679 933.619 111.452C935.32 110.052 936.587 108.411 937.42 106.531C937.626 106.059 937.646 105.526 937.475 105.041C937.304 104.557 936.955 104.156 936.5 103.92C933.96 102.614 931.369 101.377 928.728 100.21C925.901 98.9628 922.037 98.0727 917.136 97.5392C914.096 97.2192 910.955 97.8293 907.854 97.6192C907.468 97.5992 907.254 97.3992 907.214 97.0191C907.081 95.9189 907.254 94.8654 907.734 93.8585C907.888 93.5318 908.131 93.2984 908.465 93.1584C909.878 92.5849 911.385 92.3449 912.985 92.4382C913.399 92.4649 913.709 92.3149 913.916 91.9882C914.082 91.7281 914.316 91.5581 914.616 91.4781L915.666 91.208Z" fill="#0E426D"/>
<path d="M1099.86 106.57L1208.5 127.864C1215.57 129.231 1221.24 130.202 1225.49 130.775C1228.27 131.148 1233.49 131.752 1241.15 132.585C1246.13 133.125 1251.36 133.639 1256.85 134.126C1273.08 135.559 1289.3 137.043 1305.51 138.576C1316.87 139.65 1328.28 140.594 1339.75 141.407C1342.76 141.62 1345.76 141.737 1348.75 141.757C1360.62 141.85 1370.84 141.824 1379.41 141.677C1385.34 141.57 1391.87 141.627 1399 141.847C1401.28 141.917 1403.67 141.387 1406.09 141.347L1424.39 141.707L1440.28 143.027V154.9L1395.61 155.19C1387.16 153.443 1378.71 152.222 1370.27 151.529C1355.31 150.302 1340.35 149.055 1325.4 147.788C1318.89 147.241 1312.31 146.585 1305.65 145.818C1299.03 145.058 1292.45 144.304 1285.93 143.557C1279.59 142.837 1273.46 142.254 1267.53 141.807C1261.53 141.354 1255.49 140.864 1249.39 140.337C1227.86 138.47 1206.29 135.346 1184.69 130.965C1182.72 130.565 1180.99 130.198 1179.5 129.865C1174.53 128.351 1169.6 127.104 1164.69 126.124C1156.85 124.55 1152.89 123.754 1152.81 123.734C1140.2 120.926 1127.58 118.129 1114.97 115.342C1111.17 114.502 1104.76 113.722 1095.73 113.002L1100.08 112.491C1100.41 112.451 1100.64 112.278 1100.76 111.971C1101.29 110.598 1100.99 108.797 1099.86 106.57Z" fill="#0D4A7C"/>
<path d="M926.118 111.502C920.45 113.682 915.219 114.639 910.425 114.372C906.965 114.179 904.564 114.112 903.224 114.172C874.358 116.893 845.456 118.103 816.517 117.803C812.736 117.763 809.002 117.536 805.315 117.123C801.554 116.709 797.837 116.199 794.163 115.592C791.469 115.146 788.885 114.759 786.411 114.432C783.244 114.019 780.013 113.539 776.719 112.992C776.326 112.925 775.953 112.798 775.599 112.612C775.219 112.405 774.909 112.158 774.669 111.872C774.593 111.781 774.545 111.67 774.529 111.553C774.513 111.436 774.531 111.316 774.579 111.207C774.628 111.098 774.706 111.005 774.805 110.937C774.904 110.869 775.019 110.829 775.139 110.821C779.68 110.575 784.044 110.428 788.232 110.381C794.033 110.311 800.434 111.191 806.275 111.252C824.372 111.445 843.209 111.475 862.786 111.342C871.218 111.292 879.229 108.791 887.591 108.451C889.424 108.371 891.725 108.498 894.492 108.831C904.881 110.071 915.423 110.961 926.118 111.502Z" fill="#1884BA"/>
<path d="M727.924 108.87L751.028 115.321C749.668 117.128 747.624 118.345 744.897 118.972C740.236 120.046 735.422 120.406 730.454 120.052C725.523 119.702 726.014 126.313 726.924 129.294C727.297 130.528 728.181 131.995 729.574 133.695C730.674 135.042 731.768 136.402 732.855 137.776C733.955 139.163 736.482 141.063 740.436 143.477C740.736 143.663 741.003 143.887 741.237 144.147C741.47 144.407 741.767 144.544 742.127 144.557C742.467 144.577 742.787 144.664 743.087 144.817C751.919 149.348 762.171 149.978 772.302 149.548C777.757 149.321 781.331 149.351 783.025 149.638C787.785 150.458 792.876 151.188 797.607 152.489C799.274 152.949 800.955 153.302 802.648 153.549C812.657 154.989 822.742 156.059 832.904 156.759C839.185 157.186 845.68 157.326 852.388 157.179C859.683 157.019 866.934 156.833 874.142 156.619C879.563 156.466 884.941 156.493 890.275 156.699C899.167 157.049 911.439 156.859 922.121 156.349C942.745 155.369 963.433 154.752 984.183 154.499C987.124 154.466 989.874 154.716 992.435 155.249C996.369 156.076 999.706 156.506 1002.45 156.539C1014.29 156.669 1025.98 155.999 1037.44 156.439C1041.69 156.606 1046.19 156.803 1050.95 157.029C1055.99 157.263 1061.08 157.536 1066.23 157.85L939.425 159.04C939.274 159.04 939.119 159.077 938.975 159.15C938.748 159.263 938.501 159.32 938.234 159.32C928.253 159.26 918.514 159.25 909.019 159.29C908.269 159.3 907.659 159.55 906.928 159.55C897.907 159.537 888.882 159.53 879.853 159.53C879.293 159.53 878.803 159.79 878.203 159.79C868.694 159.77 859.223 159.773 849.787 159.8C849.277 159.8 848.917 159.99 848.417 159.99C835.095 159.983 821.772 160.07 808.449 160.25C808.409 159.863 808.063 159.743 807.409 159.89C806.836 160.01 806.406 159.92 806.119 159.62C805.892 159.373 805.616 159.236 805.289 159.21C804.019 159.11 802.808 159.24 801.588 158.96C797.967 158.153 794.31 157.306 790.616 156.419C786.795 155.506 783.168 154.862 779.734 154.489C767.852 153.202 756.306 152.068 745.097 151.088C742.203 150.835 739.566 149.731 737.186 147.778C735.859 146.697 734.395 145.831 732.795 145.177C731.208 144.537 729.611 143.897 728.004 143.257C725.113 142.107 721.923 141.316 718.872 141.126C714.645 140.853 710.547 140.506 706.58 140.086C703.839 139.796 701.739 138.636 699.128 137.896C698.101 137.602 697.135 137.172 696.228 136.605C693.601 134.958 690.767 132.525 687.726 129.304C686.486 127.997 685.739 126.567 685.486 125.013C685.434 124.69 685.501 124.357 685.676 124.073C689.356 118.239 694.434 116.395 700.909 118.542C702.456 119.055 704.096 119.395 705.83 119.562C710.15 119.976 714.268 119.295 718.182 117.522C719.336 116.995 720.532 116.011 721.773 114.571C723.453 112.624 725.503 110.724 727.924 108.87Z" fill="#47BBE0" fill-opacity="0.992"/>
<path d="M1072.42 113.742L1106.27 123.524C1092.48 122.584 1078.86 121.644 1065.43 120.704C1058.43 120.217 1051.83 119.614 1045.64 118.893C1036.74 117.867 1027.77 116.906 1018.74 116.013C1014.74 115.613 1010.88 115.409 1007.16 115.403C1003.3 115.389 999.432 115.459 995.564 115.613C975.954 116.406 956.91 117.697 938.433 119.484C921.117 121.157 903.697 123.384 886.173 126.165C865.282 127.452 846.612 127.835 830.162 127.315C819.147 126.968 807.265 125.201 794.515 122.014C794.269 121.954 794.105 121.804 794.025 121.564L793.945 121.314C795.452 121.221 796.953 121.247 798.446 121.394C802.357 121.774 806.088 121.494 809.938 121.704C812.339 121.837 814.693 121.921 817 121.954C839.244 122.287 855.967 122.357 867.169 122.164C877.371 121.991 888.297 120.894 899.946 118.873C903.747 118.513 907.574 118.233 911.428 118.033C915.602 117.82 919.416 117.47 922.87 116.983C928.145 116.243 933.419 115.54 938.693 114.873C970.253 110.885 1001.92 109.512 1033.7 110.752C1047.02 111.272 1059.92 112.269 1072.42 113.742Z" fill="#72C9D7"/>
<path d="M1095.73 113.002C1104.76 113.722 1111.17 114.502 1114.96 115.342C1127.58 118.129 1140.19 120.927 1152.8 123.734C1152.88 123.754 1156.84 124.551 1164.68 126.124C1169.59 127.105 1174.53 128.351 1179.49 129.865C1165.03 130.692 1153.2 130.545 1144.03 129.425C1141.21 129.078 1135.48 128.098 1126.81 126.484C1123.67 125.898 1120.25 125.381 1116.56 124.934C1112.99 124.494 1109.55 124.024 1106.26 123.524L1072.41 113.742C1078.32 112.908 1084.08 112.705 1089.71 113.132C1091.83 113.292 1093.69 113.132 1095.73 113.002Z" fill="#0D6E9D"/>
<path d="M1220.16 114.332C1219.69 114.899 1219.85 115.639 1220.64 116.552C1220.74 116.667 1220.8 116.806 1220.83 116.956C1220.85 117.106 1220.83 117.261 1220.78 117.403C1220.47 118.176 1219.88 118.439 1219.02 118.193C1218.1 117.926 1217.25 117.773 1216.45 117.733C1212.15 117.519 1207.82 117.363 1203.46 117.263C1201.98 117.223 1200.66 117.423 1199.19 116.993C1198.85 116.893 1198.68 116.666 1198.67 116.312C1198.67 115.932 1198.83 115.462 1199.15 114.902L1220.16 114.332Z" fill="#5F8EC1"/>
<path d="M751.027 115.322C756.208 115.642 761.666 116.002 767.401 116.402C773.655 116.836 781.327 118.393 790.415 121.073C791.135 121.287 792.312 121.367 793.946 121.313L794.026 121.563C794.106 121.804 794.269 121.954 794.516 122.014C807.265 125.201 819.147 126.968 830.163 127.315C846.613 127.835 865.283 127.451 886.174 126.164C890.668 126.751 893.785 127.601 895.525 128.715C897.786 130.148 900.12 131.599 902.527 133.066C906.267 135.356 911.818 136.316 916.479 136.486C928.612 136.926 940.314 137.116 951.686 137.176C963.808 137.25 975.504 137.166 986.773 136.926C989.227 136.88 991.681 136.883 994.134 136.936C1000.24 137.076 1006.34 136.916 1012.42 137.527C1017.58 138.047 1022.85 138.377 1027.99 139.007C1037.69 140.194 1047.56 141.371 1057.59 142.538C1072.78 144.298 1087.41 144.918 1101.47 144.398C1108.89 144.124 1116.3 143.864 1123.71 143.618C1131.26 143.371 1139.99 143.804 1149.87 144.918C1159.97 146.058 1170.39 146.458 1180.57 146.048C1185.38 145.861 1190.09 145.698 1194.67 145.558C1198.81 145.438 1203.5 145.668 1208.75 146.248C1214.89 146.935 1221.8 147.365 1229.46 147.538C1232.86 147.608 1236.13 148.389 1239.47 148.939C1241.51 149.272 1244.04 149.526 1247.05 149.699C1254.51 150.119 1261.91 151.042 1269.25 152.469C1273.85 153.363 1283.44 154.06 1298.01 154.56C1302.71 154.72 1306.42 155.19 1309.16 155.97L1272.08 156.25C1269.8 155.777 1267.51 155.567 1265.21 155.62C1264.05 155.647 1262.91 155.593 1261.8 155.46C1260.66 155.327 1259.53 155.167 1258.4 154.98C1250.93 153.713 1243.51 152.539 1236.13 151.459C1233.71 151.106 1228.53 150.732 1220.59 150.339C1218.34 150.229 1215.27 147.308 1212.74 147.859C1206.38 149.252 1199.98 150.509 1193.56 151.629C1191.95 151.909 1190.43 151.993 1189.01 151.879C1187.26 151.739 1185.45 151.863 1183.58 152.249C1181.35 152.716 1179.11 152.883 1176.86 152.749C1170.64 152.389 1164.58 151.289 1158.34 151.359C1149.87 151.459 1142.08 151.196 1134.96 150.569C1126.21 149.789 1116.2 149.102 1104.94 148.509C1101.54 148.329 1097.96 148.172 1094.21 148.039C1082.2 147.618 1070.51 147.305 1059.12 147.098C1053.8 146.998 1048.75 146.468 1043.54 146.658C1042.35 146.698 1041.37 147.338 1040.59 148.579C1040.35 148.965 1040.46 149.202 1040.91 149.289C1042.99 149.696 1044.99 150.529 1046.91 151.789C1049.35 153.39 1053 152.019 1055.84 152.479C1059.1 153.02 1062.72 153.966 1066.68 155.32C1067.79 155.7 1069.21 155.96 1070.39 155.96C1075.92 155.953 1081.49 155.93 1087.08 155.89C1088.64 155.877 1089.16 156.517 1088.66 157.81L1066.23 157.85C1061.08 157.537 1055.99 157.264 1050.95 157.03C1046.19 156.804 1041.69 156.607 1037.44 156.44C1025.98 156 1014.29 156.67 1002.45 156.54C999.705 156.507 996.368 156.077 992.434 155.25C989.874 154.717 987.123 154.466 984.182 154.5C963.432 154.753 942.744 155.37 922.12 156.35C911.438 156.86 899.166 157.05 890.274 156.7C884.94 156.494 879.562 156.467 874.141 156.62C866.933 156.834 859.682 157.02 852.387 157.18C845.679 157.327 839.184 157.187 832.903 156.76C822.741 156.06 812.656 154.99 802.647 153.55C800.954 153.303 799.273 152.95 797.606 152.489C792.876 151.189 787.785 150.459 783.024 149.639C781.33 149.352 777.756 149.322 772.302 149.549C762.17 149.979 751.918 149.349 743.086 144.818C742.786 144.665 742.466 144.578 742.126 144.558C741.766 144.545 741.469 144.408 741.236 144.148C741.002 143.888 740.735 143.664 740.435 143.478C736.481 141.064 733.954 139.164 732.854 137.777C731.767 136.403 730.674 135.043 729.573 133.696C728.18 131.995 727.296 130.529 726.923 129.295C726.013 126.314 725.523 119.703 730.453 120.053C735.421 120.407 740.235 120.047 744.896 118.973C747.623 118.346 749.667 117.129 751.027 115.322Z" fill="#1CAACD" fill-opacity="0.988"/>
<path d="M1106.26 123.524C1109.56 124.024 1112.99 124.494 1116.57 124.934C1120.25 125.381 1123.67 125.897 1126.82 126.484C1135.48 128.098 1141.22 129.078 1144.03 129.425C1153.21 130.545 1165.03 130.692 1179.5 129.865C1180.99 130.198 1182.72 130.565 1184.69 130.965C1206.29 135.346 1227.85 138.47 1249.39 140.337C1255.49 140.864 1261.53 141.354 1267.53 141.807C1273.45 142.254 1279.59 142.837 1285.93 143.557C1292.45 144.304 1299.02 145.058 1305.65 145.818C1312.31 146.585 1318.89 147.241 1325.4 147.788C1340.35 149.055 1355.31 150.302 1370.27 151.529C1378.71 152.222 1387.16 153.443 1395.61 155.19L1309.15 155.97C1306.42 155.19 1302.71 154.72 1298.01 154.56C1283.44 154.059 1273.85 153.363 1269.25 152.469C1261.9 151.042 1254.51 150.119 1247.05 149.699C1244.04 149.525 1241.51 149.272 1239.47 148.938C1236.13 148.388 1232.86 147.608 1229.46 147.538C1221.8 147.365 1214.89 146.935 1208.74 146.248C1203.5 145.668 1198.81 145.438 1194.67 145.558C1190.08 145.698 1185.38 145.861 1180.57 146.048C1170.39 146.458 1159.96 146.058 1149.87 144.918C1139.98 143.804 1131.26 143.371 1123.71 143.617C1116.3 143.864 1108.88 144.124 1101.46 144.398C1087.41 144.918 1072.78 144.298 1057.58 142.537C1047.56 141.37 1037.69 140.193 1027.99 139.007C1022.85 138.376 1017.58 138.046 1012.42 137.526C1006.34 136.916 1000.23 137.076 994.133 136.936C991.679 136.883 989.225 136.879 986.771 136.926C975.502 137.166 963.807 137.25 951.685 137.176C940.312 137.116 928.61 136.926 916.478 136.486C911.817 136.316 906.266 135.356 902.525 133.065C900.118 131.598 897.784 130.148 895.524 128.715C893.783 127.601 890.666 126.751 886.172 126.164C903.695 123.384 921.115 121.156 938.432 119.483C956.909 117.696 975.953 116.406 995.563 115.612C999.43 115.459 1003.29 115.389 1007.16 115.402C1010.88 115.409 1014.74 115.612 1018.74 116.012C1027.77 116.906 1036.73 117.866 1045.64 118.893C1051.83 119.613 1058.43 120.216 1065.43 120.703C1078.86 121.643 1092.48 122.583 1106.26 123.524Z" fill="#56B2DD" fill-opacity="0.992"/>
<path d="M242.21 122.004C242.35 123.171 242.78 124.214 243.5 125.134C243.707 125.394 243.847 125.684 243.92 126.004C244.25 127.435 245.22 129.205 245.11 130.605C245.07 131.172 245.014 131.726 244.94 132.266C244.9 132.606 244.76 132.899 244.52 133.146L242.07 135.646C241.961 135.76 241.887 135.903 241.857 136.057C241.826 136.211 241.84 136.371 241.896 136.517C241.953 136.664 242.05 136.792 242.176 136.885C242.303 136.979 242.453 137.035 242.61 137.047L265.014 138.497C255.979 139.07 247.074 139.427 238.299 139.567C237.739 139.574 237.002 139.767 236.088 140.147C235.755 140.281 235.508 140.511 235.348 140.837C233.108 145.338 237.969 147.799 241.489 148.379C253.338 150.346 262.757 151.543 269.745 151.969C275.566 152.323 282.041 151.679 289.169 150.039C291.936 149.406 294.703 148.959 297.47 148.699C299.477 148.512 301.965 148.806 304.932 149.579C306.642 150.019 307.982 150.899 309.653 151.389C310.206 151.549 310.72 151.783 311.193 152.09C313.013 153.29 314.99 154.377 317.124 155.35C318.604 156.03 320.461 156.41 322.695 156.49C332.53 156.864 341.969 157.327 351.011 157.881C352.144 157.947 353.311 158.301 354.511 158.941C355.512 159.468 356.502 159.751 357.482 159.791C370.038 160.371 379.629 160.681 386.257 160.721C388.838 160.731 391.238 161.141 393.749 161.151C404.038 161.178 414.326 161.295 424.615 161.501C426.835 161.551 428.976 161.311 431.176 161.301C432.05 161.295 432.916 161.168 433.777 160.921C438.231 159.608 442.455 158.834 446.449 158.601C469.473 157.261 492.435 157.737 515.332 160.031C517.506 160.244 519.696 160.631 521.904 161.191C522.277 161.291 522.427 161.151 522.354 160.771C522.274 160.364 522.357 160.161 522.604 160.161C522.924 160.568 523.261 160.801 523.614 160.861C525.814 161.221 527.985 161.755 530.125 162.461L35.4197 166.712C32.4725 164.492 29.3352 163.122 26.0079 162.602C22.6406 162.068 17.7197 161.645 11.2451 161.331C9.61142 161.245 7.01759 160.131 3.46357 157.991L2.77344 125.114C3.86698 125.274 4.95386 125.401 6.03407 125.494C7.14095 125.588 8.18782 125.751 9.17467 125.984C13.6555 127.038 18.2764 128.212 23.0373 129.505C24.7677 129.975 25.9479 131.075 27.0881 132.386C27.2948 132.619 27.5516 132.769 27.8583 132.836C29.4319 133.163 31.1489 133.353 33.0093 133.406C39.5172 133.606 46.0585 133.599 52.6331 133.386C54.6935 133.326 59.7044 132.752 67.666 131.666C74.974 130.672 82.5922 130.479 90.5204 131.085C93.3276 131.299 96.9049 132.149 101.252 133.636C105.813 135.196 110.187 136.677 114.375 138.077C117.756 139.207 121.216 139.757 124.717 140.477C126.371 140.817 127.881 140.977 129.248 140.957C131.338 140.927 133.259 141.487 135.299 141.447C143.194 141.281 149.022 141.041 152.782 140.727C161.554 139.987 170.326 139.147 178.797 139.227C195.414 139.374 210.397 139.18 223.746 138.647C225.766 138.567 227.9 138.42 230.147 138.207C237.219 137.547 231.748 128.555 234.038 124.564C234.278 124.151 234.498 123.727 234.698 123.294C234.838 123.001 235.035 122.751 235.288 122.544C235.655 122.25 235.748 121.88 235.568 121.434L242.21 122.004Z" fill="#56B2DD" fill-opacity="0.992"/>
<path d="M242.205 122.004C247.706 123.157 253.15 124.344 258.538 125.565C263.499 126.691 267.92 128.839 271.801 132.006C272.567 132.633 273.524 133.679 274.671 135.146C275.485 136.193 276.428 137.27 277.502 138.377C273.154 138.904 268.99 138.944 265.009 138.497L242.605 137.047C242.448 137.035 242.298 136.979 242.172 136.886C242.045 136.792 241.948 136.664 241.892 136.518C241.835 136.371 241.821 136.211 241.852 136.057C241.883 135.903 241.956 135.76 242.065 135.647L244.515 133.146C244.755 132.899 244.895 132.606 244.935 132.266C245.009 131.726 245.065 131.172 245.105 130.606C245.215 129.205 244.245 127.435 243.915 126.005C243.842 125.685 243.702 125.395 243.495 125.135C242.775 124.214 242.345 123.171 242.205 122.004Z" fill="#47BBE0" fill-opacity="0.992"/>
<path d="M621.044 153.203C623.762 151.739 624.979 148.719 623.762 146.458C622.544 144.196 619.353 143.549 616.634 145.013C613.915 146.477 612.698 149.497 613.916 151.759C615.134 154.021 618.325 154.667 621.044 153.203Z" fill="#DFEFF2"/>
<path d="M538.432 157.741C537.838 159.868 536.274 161.468 533.741 162.542L530.12 162.462C527.979 161.755 525.809 161.221 523.609 160.861C523.255 160.801 522.918 160.568 522.598 160.161C520.845 158.654 519.838 156.6 519.578 154C519.284 150.993 520.178 148.872 522.258 147.639C523.839 146.699 525.799 146.222 528.139 146.208C531.667 146.182 534.561 146.315 536.821 146.608C538.515 146.829 539.512 147.639 539.812 149.039C539.958 149.739 539.755 150.853 539.202 152.38C538.515 154.28 538.258 156.067 538.432 157.741Z" fill="#8FCFE7" fill-opacity="0.996"/>
<path d="M1272.08 156.25L1088.66 157.81C1089.16 156.517 1088.64 155.876 1087.08 155.89C1081.49 155.93 1075.92 155.953 1070.39 155.96C1069.21 155.96 1067.79 155.7 1066.68 155.32C1062.72 153.966 1059.1 153.019 1055.84 152.479C1053 152.019 1049.36 153.389 1046.91 151.789C1044.99 150.529 1042.99 149.695 1040.91 149.288C1040.46 149.202 1040.35 148.965 1040.59 148.578C1041.37 147.338 1042.35 146.698 1043.54 146.658C1048.75 146.468 1053.8 146.998 1059.12 147.098C1070.51 147.305 1082.2 147.618 1094.21 148.038C1097.96 148.172 1101.54 148.328 1104.94 148.508C1116.2 149.102 1126.21 149.789 1134.96 150.569C1142.08 151.196 1149.87 151.459 1158.34 151.359C1164.58 151.289 1170.64 152.389 1176.86 152.749C1179.11 152.883 1181.35 152.716 1183.58 152.249C1185.45 151.862 1187.27 151.739 1189.01 151.879C1190.43 151.992 1191.95 151.909 1193.56 151.629C1199.98 150.509 1206.38 149.252 1212.74 147.858C1215.27 147.308 1218.34 150.229 1220.59 150.339C1228.53 150.732 1233.71 151.105 1236.13 151.459C1243.51 152.539 1250.93 153.713 1258.4 154.98C1259.53 155.166 1260.66 155.326 1261.8 155.46C1262.91 155.593 1264.05 155.646 1265.21 155.62C1267.51 155.566 1269.8 155.776 1272.08 156.25Z" fill="#1295B9"/>
<path d="M652.435 161.502L533.742 162.542C536.276 161.468 537.84 159.868 538.433 157.741C539.96 158.008 541.087 157.554 541.814 156.381C542.047 156.004 542.418 155.733 542.849 155.625C543.28 155.517 543.737 155.58 544.124 155.801C545.414 156.531 546.785 157.531 548.315 157.541C568.339 157.641 591.473 157.651 617.718 157.571C619.092 157.571 620.566 157.401 622.139 157.061C623.66 156.741 625.153 156.704 626.62 156.951C633.101 158.038 639.603 159.051 646.124 159.992C648.271 160.305 650.375 160.808 652.435 161.502Z" fill="#56B2DD" fill-opacity="0.992"/>
<path d="M3.46094 157.99C7.01496 160.131 9.60879 161.244 11.2424 161.331C17.717 161.644 22.638 162.068 26.0053 162.601C29.3326 163.121 32.4699 164.491 35.4171 166.712L10.8824 167.032H3.49094L3.46094 157.99Z" fill="#77CDE8"/>
</svg>
