<svg width="1440" height="102" viewBox="0 0 1440 102" fill="none" xmlns="http://www.w3.org/2000/svg">
<path d="M1439.11 3.62154C1438.77 1.44252 1439.98 2.042 1439.98 4.24752V44.2817C1439.98 50.2314 1434.81 54.8496 1428.88 54.4484C1421.07 53.9207 1413.23 53.7262 1405.37 53.8649C1403.31 53.899 1400.83 53.558 1397.95 52.8419C1395.46 52.211 1392.93 51.8784 1390.36 51.8443C1386.42 51.7932 1382.89 51.3839 1379.77 50.6166C1370.58 48.3829 1361.67 49.082 1353.04 52.714C1345.96 55.7064 1341.12 55.5786 1334.04 55.0415C1328.84 54.6663 1323.99 54.6749 1319.51 55.0671C1312.81 55.6639 1306.08 55.6809 1299.33 55.1182C1294.34 54.709 1289.3 56.8318 1283.85 54.7857C1283.05 54.4958 1282.24 54.4361 1281.42 54.6066C1278.1 55.2972 1276.9 55.8855 1273.39 54.6833C1267.15 52.5588 1260.68 52.2875 1253.98 53.8692C1253.51 53.9803 1253.17 54.1065 1252.76 53.8564V53.8564C1251.72 53.2282 1251.83 51.6001 1252.09 50.4139C1252.22 49.859 1252.24 49.3554 1252.16 48.903C1252.01 48.0164 1251.26 47.4195 1249.91 47.1126V47.1126C1246.1 46.2587 1241.29 50.8629 1237.4 51.2318C1222.74 52.6237 1207.14 52.8108 1190.6 51.7932C1186.9 51.5716 1183.01 51.9637 1178.94 52.9697C1174.15 54.1633 1170.34 54.7602 1167.51 54.7602C1162.39 54.7602 1157.42 54.6919 1152.59 54.5555C1146.81 54.3679 1141.88 54.4276 1137.78 54.7345C1130.13 55.2802 1122.47 55.9793 1114.82 56.8319C1112.8 57.0535 1108.77 56.9683 1102.72 56.5761C1098.39 56.2862 1094.13 56.9001 1089.96 58.4176C1089.72 58.5029 1089.73 58.554 1089.98 58.5711L1090.67 58.5967C1091.51 58.6478 1091.64 58.9803 1091.08 59.5941C1090.21 60.549 1088.11 61.8705 1084.79 63.5585C1084.74 63.5757 1084.7 63.6062 1084.68 63.6467C1084.65 63.6871 1084.63 63.7357 1084.63 63.7868C1084.63 63.8378 1084.65 63.8892 1084.68 63.9348C1084.7 63.9805 1084.74 64.0185 1084.79 64.0445C1085.27 64.3003 1085.62 64.6328 1085.84 65.042C1086.33 65.9458 1086.08 66.5169 1085.07 66.7556C1084.26 66.9422 1083.52 66.9685 1082.86 66.8345C1082.85 66.8333 1082.85 66.8278 1082.85 66.8215V66.8215C1082.85 66.8136 1082.85 66.8075 1082.86 66.8082C1088.43 67.3352 1094.29 67.1813 1100.44 66.3465C1109.12 65.187 1129.47 65.5621 1161.49 67.4718C1152.63 68.1709 1143.61 68.384 1134.43 68.1112C1120.71 67.702 1111.69 67.5401 1107.37 67.6253C1065.17 68.4438 1022.92 68.7763 980.794 71.2061C961.867 72.3315 940.374 71.7688 916.314 69.518C913.347 69.2452 906.416 69.0746 895.52 69.0064C892.758 69.0064 889.612 67.7532 886.926 66.9859C885 66.4573 882.809 66.2101 880.353 66.2442C873.33 66.3585 866.409 65.8314 859.59 64.663C858.99 64.5603 858.403 64.3971 857.834 64.1827L852.986 62.3564C852.031 61.9983 852.005 61.5806 852.909 61.1032C853.832 60.6202 855.034 60.3029 856.514 60.1513C857.126 60.0885 857.743 60.1219 858.354 60.1971C867.497 61.3235 876.68 61.2845 885.903 60.0801C886.33 60.0119 886.517 59.7646 886.466 59.3384L886.415 58.6222C886.381 58.3664 886.236 58.23 885.98 58.213L872.041 57.8549C879.543 58.0254 886.986 57.6418 894.369 56.7039C902.247 55.732 909.647 55.1353 916.57 54.9136C921.651 54.7431 926.724 54.368 931.788 53.7882C950.511 51.6398 971.279 52.9442 987.904 53.7115C994.012 53.9891 999.31 53.1715 1003.8 51.2588C1004.74 50.8599 1005.71 50.5369 1006.71 50.3758C1012.95 49.3755 1019.37 48.2366 1025.96 46.9591C1031.74 45.8338 1037.53 44.9556 1043.33 44.3247C1051.18 43.4551 1058.7 42.2786 1066.66 42.1507C1076.39 41.9972 1086.12 41.6392 1095.84 41.0765C1106.53 40.4626 1116.43 40.3518 1125.53 40.744L1131.62 40.5308C1132.12 40.5135 1132.54 40.8827 1132.59 41.3756V41.3756C1132.62 41.6533 1132.39 41.8888 1132.15 42.0283C1132.07 42.0695 1132.01 42.1196 1131.95 42.178C1131.76 42.3596 1131.65 42.6067 1131.65 42.8668L1131.62 43.7364C1131.62 44.1627 1131.83 44.3759 1132.23 44.3759C1151.57 44.913 1174.46 46.8824 1193.06 40.8974C1193.51 40.7562 1193.41 40.2769 1193.33 40.0485C1193.31 39.9655 1193.28 39.8812 1193.27 39.7945V39.7945C1193.22 39.3574 1193.54 38.9631 1193.97 38.9115L1271.57 29.7347C1272.28 29.65 1272.88 30.2671 1272.78 30.9814V30.9814C1272.67 31.757 1271.81 32.1562 1271.06 31.9258C1269.81 31.5429 1268.78 31.7541 1267.95 32.5593C1265.66 34.7931 1266.08 36.4641 1269.2 37.5725C1269.63 37.7246 1270.09 37.7782 1270.55 37.7295C1271 37.6808 1271.44 37.5311 1271.83 37.2911V37.2911C1273.85 36.0633 1276.3 33.1162 1278.65 32.8676C1281.17 32.6012 1283.67 32.2257 1286.16 31.7409C1290.59 30.8713 1294.71 30.3256 1298.51 30.104C1309.63 29.4049 1319.9 26.9495 1329.33 22.7378C1346.35 15.1159 1362.18 9.65097 1376.83 6.34302C1381.76 5.24321 1391.79 4.57827 1395.52 6.16404C1402.89 9.28227 1409.82 9.8175 1416.32 7.7698C1417.6 7.36555 1418.93 7.09989 1420.27 7.12922L1438.16 7.51961C1439 7.55372 1439.44 7.14446 1439.49 6.2919C1439.53 5.63027 1439.46 4.97529 1439.27 4.32693C1439.21 4.15248 1439.14 3.80141 1439.11 3.62154V3.62154Z" fill="#106FB3"/>
<path d="M355.212 43.8639C361.76 44.2561 368.145 44.9381 374.369 45.91C375.887 46.1487 378.257 46.1232 381.48 45.8333C384.907 45.5264 387.976 46.6518 391.173 46.4216C405.411 45.4156 419.384 46.8137 433.094 50.6162C433.912 50.8549 434.637 50.8805 435.268 50.6929C435.677 50.5735 436.078 50.4201 436.47 50.2325C437.169 49.8915 437.902 49.721 438.669 49.721C442.915 49.7381 447.152 49.8148 451.381 49.9512C454.74 50.0706 458.995 50.565 464.144 51.4347C472.994 52.9352 481.911 53.6343 490.897 53.532C501.282 53.4297 510.08 54.2737 519.748 54.7341C521.556 55.4843 524.139 55.2627 527.498 54.0691L548.599 68.8014C548.411 70.8646 546.51 70.694 542.895 68.2898C540.15 66.4824 535.035 66.3034 527.549 67.7527C525.298 68.1961 523.44 67.8551 521.973 66.7297C521.308 66.2352 520.567 65.9879 519.748 65.9879C512.408 66.0902 505.988 64.8625 498.059 66.1925C495.859 66.5506 492.884 66.6444 489.133 66.4739C484.478 66.2437 479.899 67.676 475.5 67.4202C459.08 66.4483 442.668 65.8344 426.265 65.5787C423.673 65.5275 419.171 65.843 412.76 66.525C408.293 67.0195 403.748 67.0622 399.128 66.6529C394.149 66.4824 389.263 65.9964 384.472 65.195C378.163 64.1379 373.303 63.4899 369.893 63.2512C365.852 62.9783 361.811 62.6629 357.77 62.3048C353.95 61.9809 349.892 61.8956 345.595 62.049C328.868 62.6458 308.091 61.8956 283.264 59.7983C278.746 59.4231 268.336 59.5851 252.035 60.2842C240.031 61.2732 228.044 61.2647 216.074 60.2587C215.801 60.2246 215.664 60.0711 215.664 59.7983C215.664 59.5254 215.801 59.3806 216.074 59.3635C218.751 59.193 221.436 59.1504 224.13 59.2357C224.13 59.3209 224.13 59.2868 224.13 59.1333C224.13 59.031 224.079 58.9799 223.977 58.9799C196.473 59.4744 177.853 59.0565 168.117 57.7265C163.027 57.036 153.513 58.4939 149.318 56.5244C148.568 56.1493 147.766 55.9617 146.914 55.9617C124.798 55.8935 101.984 56.1919 78.4699 56.8569C78.2486 56.874 78.0263 56.874 77.8049 56.8569C72.3997 56.55 67.344 56.516 62.6378 56.7547C56.38 57.0787 51.6909 57.2321 48.5705 57.2151C37.6407 57.181 26.1481 57.8459 14.0929 59.2101C10.0517 59.6704 4.9875 57.9056 3.52961 53.6598C1.70513 48.3398 0.528589 47.7516 0 51.895V43.6337L68.6484 39.4647C75.8781 39.2942 91.8978 38.416 116.707 36.8303C134.594 35.6708 157.153 35.2786 184.384 35.6537C199.398 35.8584 216.125 35.091 232.059 35.3724C237.865 35.4747 244.285 37.572 250.014 37.4441C258.983 37.2224 267.935 37.4697 276.87 38.1858C284.952 38.8338 293.035 39.3282 301.117 39.6693C309.233 39.9932 317.324 40.5815 325.389 41.4341C335.364 42.5083 345.305 43.3183 355.212 43.8639ZM277.842 43.3268C270.936 43.9748 264.371 44.0855 258.148 43.6593C246.502 42.8919 236.134 42.7385 227.046 43.1989C224.386 43.3353 221.632 44.043 218.785 45.3218C216.5 46.3449 215.554 47.9989 215.946 50.2837C216.012 50.6586 216.189 51.0041 216.454 51.2738C216.72 51.5435 217.06 51.7246 217.429 51.7928C230.797 54.214 243.688 55.1774 256.102 54.6829C256.306 54.6829 256.502 54.6317 256.69 54.5294C256.911 54.393 257.125 54.2567 257.329 54.1203C257.858 53.7451 258.438 53.549 259.068 53.532C272.931 53.0972 287.51 51.6137 301.168 54.1203C303.726 54.5807 306.309 54.8023 308.918 54.7852C324.52 54.6659 340.258 54.3674 356.133 53.89C356.758 53.8671 357.358 53.6328 357.836 53.2245C358.314 52.8163 358.642 52.258 358.767 51.6393L358.921 50.8464C358.957 50.6619 358.955 50.4718 358.912 50.2886C358.87 50.1053 358.79 49.9331 358.676 49.7833C358.563 49.6334 358.418 49.5093 358.253 49.4192C358.088 49.3291 357.906 49.2751 357.719 49.2606C344.572 48.3057 334.392 47.1292 327.18 45.731C324.827 45.2706 323.062 43.9406 320.632 43.6337C311.169 42.3805 303.368 41.7666 292.958 42.3804C287.314 42.7044 281.653 42.7385 275.975 42.4827C275.924 42.4827 275.898 42.5083 275.898 42.5595C275.898 42.5936 275.898 42.6191 275.898 42.6362C275.898 42.7385 275.949 42.7896 276.052 42.7896C276.682 42.7726 277.288 42.8067 277.867 42.892C278.976 43.0795 278.967 43.2245 277.842 43.3268Z" fill="#3378B7"/>
<path d="M252.035 60.2853C251.745 61.1208 250.858 61.4022 249.375 61.1293C249.368 61.1293 249.361 61.1267 249.357 61.1219C249.352 61.1171 249.349 61.1105 249.349 61.1037C249.349 61.097 249.352 61.0904 249.357 61.0856C249.361 61.0808 249.368 61.0781 249.375 61.0781C258.48 60.6689 267.884 60.4387 277.586 60.3876C280.348 60.3705 284.901 60.7883 291.244 61.6408C295.524 62.2206 300.077 62.3485 304.902 62.0246C305.755 61.9734 306.573 62.0927 307.358 62.3826C309.08 63.0135 310.845 63.2181 312.652 62.9964C318.023 62.3485 323.096 62.7833 327.87 64.3009C301.253 62.4252 274.935 61.9819 248.914 62.9709C241.582 64.2497 234.148 64.7527 226.611 64.4799C224.122 64.3947 221.837 64.5652 219.757 64.9915C217.523 65.4348 215.272 65.8951 213.004 66.3726C212.561 66.4749 209.441 67.6685 203.643 69.9533C200.472 71.1981 197.13 71.4368 193.617 70.6695C193.241 70.5809 192.85 70.5739 192.47 70.6489C192.091 70.7239 191.732 70.8792 191.418 71.1043C188.195 73.4233 188.246 75.4439 191.571 77.166C192.475 77.6264 193.532 77.8225 194.743 77.7543C198.767 77.5838 202.893 77.2428 207.122 76.7313C209.714 76.4073 212.126 76.8506 214.36 78.0612C216.543 79.2378 218.708 79.9625 220.857 80.2353C226.978 80.9685 233.125 81.3862 239.297 81.4885C242.52 81.5397 245.487 82.4094 248.71 82.8953C249.511 82.9976 250.057 83.4239 250.347 84.1742C250.722 85.0949 251.549 86.0583 252.828 87.0643C254.192 88.1215 255.658 89.1531 257.227 90.1591C258.165 90.7389 258.19 91.3442 257.304 91.9751L255.897 92.9981C254.84 93.7655 254.951 94.2514 256.229 94.456C260.697 95.1893 265.497 95.5814 270.629 95.6326C270.766 95.6326 270.783 95.6667 270.68 95.7349C270.595 95.8031 270.51 95.8884 270.425 95.9907C270.169 96.3317 270.263 96.5107 270.706 96.5278C279.573 97.1757 288.456 97.2439 297.357 96.7324C297.732 96.7153 298.303 96.5022 299.071 96.0929C299.65 95.786 300.23 95.6155 300.81 95.5814C310.478 95.1552 320.146 94.8056 329.814 94.5328C330.667 94.5157 331.468 94.3196 332.218 93.9445C333.531 93.2795 334.93 92.9214 336.413 92.8703C336.873 92.8532 337.163 92.6145 337.283 92.1541C337.351 91.8302 337.317 91.5147 337.18 91.2078C336.976 90.7474 337.129 90.5172 337.641 90.5172H338.792C339.371 90.5172 339.9 90.3552 340.377 90.0312C346.243 85.973 351.111 84.0377 354.982 84.2253C364.462 84.6686 372.954 84.4043 380.456 83.4324C383.909 82.9976 387.004 84.9414 390.713 84.5833C399.076 83.7649 407.44 84.5322 415.394 82.7418C420.186 81.6846 425.284 80.8917 430.689 80.3631C432.991 80.1415 433.972 78.9565 433.631 76.808C432.932 76.6886 432.693 76.0492 432.915 74.8897C432.978 74.5639 433.12 74.2588 433.329 74.0008C433.538 73.7429 433.808 73.5397 434.115 73.4088C434.422 73.2779 434.757 73.2233 435.092 73.2496C435.426 73.2759 435.75 73.3823 436.035 73.5597L439.207 75.5547C439.923 76.0151 440.69 76.1259 441.508 75.8872C443.503 75.3245 445.533 75.1114 447.596 75.2478C454.638 75.7252 461.672 75.5888 468.697 74.8385C470.044 74.6851 470.615 74.0116 470.41 72.818C470.257 71.9654 469.745 71.5392 468.876 71.5392C467.307 71.5562 465.943 71.0958 464.783 70.158C464.118 69.6465 463.368 69.3651 462.533 69.3139C452.08 68.6148 441.773 68.0181 431.61 67.5236C430.775 67.4724 429.982 67.5917 429.232 67.8816C428.692 68.0838 428.108 68.1709 427.518 68.1374L399.128 66.654C403.748 67.0632 408.293 67.0205 412.76 66.526C419.171 65.844 423.673 65.5285 426.265 65.5797C442.668 65.8355 459.08 66.4493 475.5 67.4212C479.899 67.677 484.478 66.2447 489.133 66.4749C492.884 66.6454 495.859 66.5516 498.059 66.1935C505.988 64.8635 512.408 66.0913 519.748 65.9889C520.567 65.9889 521.308 66.2362 521.973 66.7307C523.44 67.8561 525.298 68.1971 527.549 67.7538C535.035 66.3044 540.15 66.4834 542.895 68.2908C546.51 70.6951 548.411 70.8656 548.599 68.8024L554.456 71.8972L555.709 72.9715C556.34 73.5171 557.082 73.8496 557.935 73.9689C559.469 74.1735 560.501 74.9153 561.029 76.1941C556.698 75.2222 554.132 75.819 553.331 77.9845C553.024 78.8541 552.427 79.4168 551.54 79.6726C547.022 81.0026 543.177 81.2754 540.005 80.4911C536.441 79.6044 532.92 78.8797 529.442 78.317C529.234 78.2777 529.022 78.2849 528.823 78.3381C528.623 78.3913 528.441 78.4891 528.291 78.6239C527.728 79.1184 527.234 79.144 526.807 78.7007C526.313 78.1891 525.716 77.9078 525.017 77.8567L484.324 75.1966C484.007 75.1721 483.69 75.2311 483.402 75.3679C483.115 75.5047 482.868 75.7146 482.685 75.9772C482.503 76.2398 482.39 76.5463 482.359 76.8666C482.328 77.187 482.379 77.5104 482.508 77.8055C482.764 78.3852 482.781 78.9138 482.559 79.3912C482.167 80.1926 481.545 80.4825 480.692 80.2608C478.254 79.647 476.208 80.0307 474.554 81.4118C473.974 81.9063 473.301 82.1536 472.533 82.1536C471.323 82.1365 470.965 82.7248 471.459 83.9184C471.495 84.0018 471.513 84.0919 471.512 84.1829C471.511 84.2739 471.49 84.3635 471.451 84.4458C471.413 84.5281 471.357 84.6012 471.287 84.6602C471.218 84.7192 471.137 84.7628 471.05 84.788C470.47 84.9585 470.214 84.8221 470.282 84.3787C470.301 84.2746 470.297 84.1675 470.27 84.0653C470.242 83.963 470.192 83.8681 470.124 83.7874C470.055 83.7067 469.97 83.6422 469.874 83.5985C469.777 83.5548 469.672 83.533 469.566 83.5347C461.416 83.62 453.376 83.3983 445.447 82.8697C442.173 82.6395 439.565 83.7137 436.291 83.4835C435.869 83.4518 435.445 83.5183 435.051 83.6779C434.656 83.8375 434.302 84.086 434.014 84.4043C432.326 86.28 430.442 87.4224 428.362 87.8316C427.143 88.0724 426.056 88.7526 425.306 89.7429C424.556 90.7332 424.196 91.9646 424.295 93.2028L424.909 101.08H338.945C331.102 100.552 323.275 100.066 315.465 99.6226C308.628 99.2304 300.801 99.1451 291.986 99.3668C268.864 99.9295 239.101 99.7419 202.697 98.8041C179.149 98.2073 148.141 98.9661 109.674 101.08H78.6745C46.1748 100.194 23.7865 99.8869 11.5096 100.16C4.82551 100.313 0.988973 98.8894 0 95.8883V92.4355C1.09128 92.8958 2.19961 93.1687 3.325 93.2539C21.1777 94.4134 39.0389 94.7118 56.9086 94.1491C64.701 93.9104 74.3947 95.1466 85.9895 97.8577C90.15 98.8297 96.5016 99.0258 105.044 98.446C118.907 97.4741 133.332 97.9601 146.428 96.937C147.809 96.8177 148.841 96.1527 149.523 94.942C149.932 94.2088 149.719 93.791 148.883 93.6887C148.235 93.5864 147.621 93.3732 147.042 93.0493C146.291 92.64 145.498 92.444 144.663 92.4611C142.054 92.5122 139.471 92.3758 136.913 92.0518C133.554 91.6085 130.928 91.3868 129.035 91.3868C108.438 91.4891 86.4499 91.1055 63.0726 90.2359C60.9242 90.1677 59.9949 89.0678 60.2848 86.9364C61.1032 80.9514 59.1764 76.8506 54.5044 74.6339C51.1964 73.0993 47.4196 72.4258 43.1738 72.6134C39.2179 72.818 35.2279 72.4599 31.2038 71.5392C27.2991 70.6525 23.0959 70.3541 18.5944 70.644C17.7248 70.7122 16.9745 71.0361 16.3436 71.6159C10.5121 76.9615 5.85711 74.3526 0 76.8591V51.896C0.528589 47.7526 1.70513 48.3409 3.52961 53.6609C4.9875 57.9066 10.0517 59.6715 14.0929 59.2111C26.1481 57.847 37.6407 57.182 48.5705 57.2161C51.6909 57.2331 56.38 57.0797 62.6378 56.7557C67.344 56.517 72.3997 56.551 77.8049 56.858C78.0263 56.875 78.2486 56.875 78.4699 56.858C101.984 56.193 124.798 55.8946 146.914 55.9628C147.766 55.9628 148.568 56.1503 149.318 56.5255C153.513 58.4949 163.027 57.037 168.117 57.7276C177.853 59.0576 196.473 59.4754 223.977 58.9809C224.079 58.9809 224.13 59.032 224.13 59.1344C224.13 59.2878 224.13 59.3219 224.13 59.2367C221.436 59.1514 218.751 59.194 216.074 59.3645C215.801 59.3816 215.664 59.5265 215.664 59.7993C215.664 60.0721 215.801 60.2256 216.074 60.2597C228.044 61.2658 240.031 61.2742 252.035 60.2853Z" fill="#569BD8"/>
<path d="M1439.97 55.4252V63.3541C1439.61 63.0813 1439.21 62.979 1438.77 63.0472C1438.31 63.1154 1438.13 62.9278 1438.23 62.4845C1438.34 62.0241 1438.22 61.5978 1437.9 61.2056C1437.68 60.9158 1437.31 60.7112 1436.8 60.5918C1433.04 59.7478 1429.49 58.52 1425.6 58.6223C1408.7 59.1509 1391.79 59.6113 1374.88 60.0035C1374.04 60.0206 1373.52 60.4298 1373.32 61.2312L1373.01 62.4589C1372.79 63.3285 1372.23 63.7974 1371.32 63.8657C1370.39 63.9168 1369.58 63.5246 1368.92 62.6891C1367.47 60.8816 1365.57 60.0291 1363.22 60.1314C1351.48 60.677 1338.57 60.8901 1324.47 60.7708C1323.41 60.7537 1319.85 60.9157 1313.8 61.2568C1302.85 61.845 1293.37 60.6941 1280.76 61.7683C1278.86 61.9218 1277.18 61.8109 1275.69 61.4358C1273.99 60.9925 1272.44 60.7623 1271.04 60.7453C1265.8 60.6089 1260.24 60.9754 1254.36 61.8451C1243.06 63.5161 1230.4 64.2919 1216.38 64.1726C1215.41 64.1555 1214.51 64.4198 1213.69 64.9654C1213.08 65.3747 1212.4 65.5793 1211.65 65.5793H1193.77C1192.87 65.5793 1192.03 65.8265 1191.26 66.321C1187.92 68.4865 1183.25 70.0041 1177.25 70.8737C1170 71.9138 1162.6 72.9454 1155.05 73.9685C1148.12 74.8892 1140.71 75.3923 1132.82 75.4775C1124.77 75.5457 1114.86 75.9379 1103.07 76.6541C1092.89 77.2935 1081.26 75.8612 1071.43 77.8562C1070.09 78.129 1068.95 78.2569 1068.01 78.2399C1053.41 78.1034 1038.86 78.8537 1024.35 80.4906C1019.73 81.0022 1015.19 80.7122 1010.74 79.621C1007.36 78.8025 1004.3 79.3396 1000.97 78.6235C997.901 77.9585 995.531 77.6345 993.86 77.6516C983.51 77.8221 973.22 77.2253 962.989 75.8612C960.687 75.5543 957.677 75.5458 953.96 75.8356C950.925 76.0573 947.89 75.9294 944.855 75.452C944.002 75.3156 943.602 74.8126 943.653 73.943L943.704 73.2779C943.721 72.8517 943.943 72.6385 944.369 72.6385L964.165 72.5873L980.79 71.2062C1022.92 68.7764 1065.17 68.4439 1107.37 67.6255C1111.68 67.5402 1120.7 67.7021 1134.43 68.1113C1143.6 68.3842 1152.62 68.171 1161.49 67.4719C1175.49 66.6364 1188.17 63.2177 1199.52 57.2156C1200.27 56.8064 1201.08 56.6444 1201.93 56.7297C1207.02 57.2412 1209.96 58.4689 1215.38 57.497C1220.48 56.5932 1227.15 56.3801 1235.38 56.8575C1237.26 56.9769 1241.1 56.0391 1246.92 54.0441C1249.22 54.3851 1251.33 54.3851 1253.26 54.0441C1260.22 52.2707 1266.93 52.4839 1273.39 54.6835C1276.89 55.8856 1278.1 55.2973 1281.42 54.6067C1282.24 54.4362 1283.05 54.4959 1283.85 54.7858C1289.3 56.832 1294.34 54.7091 1299.33 55.1183C1306.08 55.681 1312.8 55.664 1319.51 55.0672C1323.99 54.675 1328.83 54.6665 1334.03 55.0416C1341.12 55.5787 1345.95 55.7066 1353.04 52.7141C1361.66 49.0822 1370.57 48.383 1379.76 50.6168C1382.88 51.3841 1386.41 51.7933 1390.35 51.8445C1392.93 51.8786 1395.46 52.2111 1397.95 52.842C1400.83 53.5582 1403.3 53.8992 1405.37 53.8651C1416.96 53.6605 1428.5 54.1805 1439.97 55.4252Z" fill="#AFCEE9"/>
<path d="M593.689 49.6455C605.846 54.3176 618.055 57.0287 630.315 57.7789C630.503 58.0859 630.639 58.3843 630.724 58.6742C630.783 58.8904 630.792 59.1174 630.749 59.3375C630.706 59.5575 630.612 59.7646 630.476 59.9428C630.34 60.1209 630.165 60.2653 629.964 60.3647C629.763 60.464 629.542 60.5157 629.318 60.5157L606.656 60.4645C606.466 60.4611 606.277 60.4957 606.1 60.5661C605.924 60.6366 605.763 60.7416 605.627 60.8749C605.491 61.0082 605.384 61.1672 605.31 61.3427C605.236 61.5181 605.199 61.7065 605.199 61.8968V65.1962C605.199 66.0147 605.599 66.458 606.401 66.5262C610.698 66.961 615.122 65.2474 618.908 65.2474C642.78 65.1962 666.745 65.5287 690.804 66.2449C696.585 67.0804 702.476 67.592 708.478 67.7795C709.16 67.8136 710.166 68.1291 711.496 68.7259C714.847 70.2605 722.213 69.442 726.075 69.442C729.502 69.425 733.057 69.8598 736.741 70.7464C741.941 72.0082 745.522 72.5964 747.483 72.5112C754.474 72.2043 761.448 71.8462 768.405 71.437C771.423 71.2324 774.466 69.9024 777.817 69.7745C781.466 69.6722 783.811 69.5443 784.851 69.3908C791.074 68.4871 797.426 68.3933 803.905 69.1095C803.684 69.928 802.823 70.2605 801.322 70.107C800.589 70.0218 800.222 70.3542 800.222 71.1045V72.1531C800.222 73.0057 800.649 73.3894 801.501 73.3041C804.383 72.9802 807.213 73.0654 809.993 73.5598C813.778 74.2078 816.481 74.5403 818.101 74.5574C822.039 74.5574 829.38 73.7133 832.807 75.3247C833.865 75.8021 834.939 76.2284 836.03 76.6035C836.831 76.8934 837.641 76.9105 838.46 76.6547C842.126 75.4952 845.877 75.3673 849.714 76.271C850.123 76.3562 850.293 76.6121 850.225 77.0383L850.097 77.7033C850.095 77.7137 850.09 77.7234 850.083 77.7318C850.076 77.7401 850.067 77.7469 850.058 77.7518C850.048 77.7566 850.037 77.7593 850.027 77.7598C850.016 77.7603 850.005 77.7585 849.995 77.7545C847.42 76.7826 844.888 76.6803 842.399 77.4476C841.955 77.584 841.972 77.6522 842.45 77.6522C842.825 77.6692 843.055 77.6948 843.14 77.7289C844.726 78.2916 844.701 78.7946 843.064 79.2379C838.272 80.4827 834.223 79.8262 830.915 77.2685C830.199 76.7229 829.397 76.4245 828.51 76.3733C825.748 76.2199 822.832 76.8678 819.763 78.3172C818.996 78.6753 818.501 78.5559 818.28 77.9591C818.058 77.3964 817.649 77.1151 817.052 77.1151C814.085 77.1662 811.144 76.8678 808.228 76.2199C805.184 75.5293 803.343 75.9385 800.478 76.5524C799.66 76.7229 798.892 76.595 798.176 76.1687C796.045 74.8899 793.726 74.1482 791.219 73.9436C790.435 73.8924 789.821 74.1907 789.378 74.8387L788.943 75.5293C788.483 76.2455 787.835 76.5695 786.999 76.5013C781.526 76.092 776.138 76.4842 770.835 77.6778C766.538 78.6497 763.366 77.6521 759.069 77.7033C758.251 77.7203 757.483 77.5243 756.767 77.1151C755.829 76.5524 754.44 76.2881 752.598 76.3222C734.046 76.6632 715.273 76.5609 696.278 76.0153C695.459 75.9812 694.701 76.1943 694.002 76.6547C693.337 77.081 692.407 77.2344 691.214 77.1151C683.779 76.3819 674.623 76.1773 663.744 76.5013C662.823 76.5183 661.996 76.2539 661.263 75.7083C656.992 72.4345 652.695 73.4832 648.014 72.7414C647.196 72.605 646.548 72.8778 646.07 73.5598C645.047 75.0945 643.658 76.1176 641.901 76.6291C641.049 76.8849 640.307 77.3112 639.676 77.908C637.596 79.8688 635.047 81.3779 632.029 82.435C631.247 82.7175 630.575 83.2367 630.11 83.9185C625.336 90.8925 618.746 93.8168 610.34 92.6914C606.222 92.1287 603.51 94.0725 599.469 92.2566C597.662 91.4381 595.88 90.5855 594.124 89.6989C592.248 88.744 590.424 87.9597 588.65 87.3458C579.204 84.0549 569.996 80.3377 561.027 76.1943C560.499 74.9154 559.467 74.1737 557.932 73.9691C557.08 73.8497 556.338 73.5173 555.707 72.9716L554.454 71.8974C555.204 72.0508 555.937 72.0678 556.654 71.9485C557.626 71.778 558.001 71.2068 557.779 70.2349C557.643 69.604 557.131 69.1521 556.244 68.8793C551.461 67.3447 547.037 62.1014 543.558 59.5182C540.199 57.0116 540.608 55.9374 544.786 56.2954L595.812 60.5924C596.208 60.6285 596.605 60.5415 596.945 60.344C597.285 60.1466 597.55 59.8486 597.705 59.4926L598.037 58.6997C598.083 58.5918 598.103 58.4747 598.096 58.3581C598.09 58.2415 598.056 58.1286 597.999 58.0288C597.941 57.929 597.862 57.845 597.766 57.7838C597.67 57.7226 597.562 57.6858 597.449 57.6766C594.277 57.3697 591.668 56.7388 589.622 55.7839C594.669 55.5793 596.025 53.5332 593.689 49.6455Z" fill="#6F9CD2"/>
<path d="M1245.64 50.3096L1248.63 52.8161C1248.92 53.3788 1248.35 53.788 1246.92 54.0438C1241.11 56.0388 1237.26 56.9766 1235.38 56.8573C1227.15 56.3798 1220.48 56.593 1215.38 57.4967C1209.96 58.4686 1207.02 57.2409 1201.93 56.7294C1201.08 56.6441 1200.28 56.8061 1199.53 57.2154C1188.17 63.2174 1175.49 66.6361 1161.49 67.4716C1129.47 65.5619 1109.12 65.1869 1100.44 66.3463C1094.29 67.1818 1088.42 67.3353 1082.84 66.8067V66.8322C1083.51 66.9686 1084.25 66.9431 1085.07 66.7555C1086.07 66.5168 1086.33 65.9456 1085.84 65.0419C1085.61 64.6327 1085.27 64.3001 1084.79 64.0444C1084.74 64.0184 1084.7 63.9804 1084.67 63.9347C1084.65 63.889 1084.63 63.8377 1084.63 63.7866C1084.63 63.7356 1084.65 63.6869 1084.67 63.6465C1084.7 63.6061 1084.74 63.5755 1084.79 63.5584C1088.11 61.8703 1090.21 60.5489 1091.08 59.594C1091.64 58.9802 1091.51 58.6477 1090.67 58.5965L1089.98 58.5709C1089.72 58.5539 1089.72 58.5027 1089.95 58.4175C1094.13 56.8999 1098.39 56.2861 1102.72 56.5759C1108.77 56.9681 1112.8 57.0534 1114.81 56.8317C1122.47 55.9792 1130.13 55.28 1137.78 54.7344C1141.88 54.4275 1146.81 54.3678 1152.59 54.5553C1157.42 54.6918 1162.39 54.76 1167.5 54.76C1170.33 54.76 1174.14 54.1632 1178.94 52.9696C1183.01 51.9636 1186.9 51.5714 1190.6 51.7931C1210.28 53.0037 1228.62 52.5092 1245.64 50.3096Z" fill="#105797"/>
<path d="M746.94 54.4791C771.426 53.9335 795.903 53.942 820.371 54.5047C833.842 54.8116 847.27 55.7921 860.655 57.446L872.037 57.8553L885.976 58.2133C886.232 58.2304 886.377 58.3668 886.411 58.6225L886.462 59.3387C886.513 59.765 886.325 60.0122 885.899 60.0804C876.368 61.3252 866.879 61.3252 857.432 60.0804L671.514 62.7405C671.565 62.4847 671.386 62.1863 670.977 61.8453C670.567 61.5042 670.55 61.1376 670.925 60.7455L671.437 60.2339L746.94 54.4791Z" fill="#BEECEB"/>
<path d="M630.312 57.7773L634.992 58.3912L671.439 60.2327L670.928 60.7443C670.553 61.1365 670.57 61.503 670.979 61.8441C671.388 62.1851 671.567 62.4835 671.516 62.7393L661.132 63.0206C660.893 63.0206 660.68 63.0973 660.493 63.2508C660.22 63.4724 660.092 63.66 660.109 63.8135C660.172 64.1978 660.379 64.5438 660.688 64.7813C660.996 65.0187 661.384 65.1299 661.771 65.0923C671.525 64.342 681.201 64.7257 690.801 66.2433C666.742 65.5271 642.776 65.1946 618.905 65.2458C615.119 65.2458 610.694 66.9594 606.397 66.5246C605.596 66.4564 605.195 66.0131 605.195 65.1946V61.8952C605.195 61.7049 605.233 61.5165 605.307 61.3411C605.38 61.1656 605.488 61.0066 605.624 60.8733C605.76 60.74 605.92 60.635 606.097 60.5645C606.274 60.4941 606.463 60.4595 606.653 60.4629L629.314 60.5141C629.539 60.5141 629.76 60.4624 629.961 60.3631C630.162 60.2637 630.337 60.1193 630.473 59.9412C630.609 59.763 630.702 59.5559 630.745 59.3359C630.788 59.1158 630.78 58.8888 630.721 58.6726C630.636 58.3827 630.499 58.0843 630.312 57.7773Z" fill="#5F8EC1"/>
<path d="M1439.98 63.354V77.8305C1440.36 87.1746 1434.58 88.2829 1422.64 81.1555C1422.03 80.7974 1421.73 80.2603 1421.74 79.5441C1421.95 74.5822 1420.88 69.9869 1418.55 65.7582C1418.17 65.0905 1417.66 64.5103 1417.05 64.0568C1416.43 63.6033 1415.73 63.2871 1414.98 63.1295C1414.23 62.9719 1413.46 62.9766 1412.72 63.1433C1411.97 63.31 1411.28 63.6348 1410.67 64.0957L1398.5 73.3545C1397.85 73.849 1397.11 74.0707 1396.3 74.0196C1394.86 73.9173 1393.65 73.4994 1392.66 72.7662C1391.76 72.0739 1390.64 71.7162 1389.49 71.7535C1388.35 71.7908 1387.26 72.2208 1386.4 72.9709C1385.19 74.0451 1383.3 74.6674 1380.74 74.838C1380.57 74.838 1380.43 74.8977 1380.31 75.017C1380.11 75.2046 1379.93 75.4347 1379.8 75.7076C1379.51 76.2532 1379.06 76.509 1378.44 76.4749C1372.25 76.0827 1366.23 76.8586 1360.36 78.8024C1359.56 79.0582 1359.19 79.6123 1359.26 80.4649C1359.48 83.8411 1358.25 86.5352 1355.58 88.5472C1354.88 89.0588 1354.14 89.1269 1353.38 88.7518C1350.96 87.5582 1348.88 85.9895 1347.16 84.0457C1343.33 79.6976 1336.27 78.8279 1330.92 78.9814C1330.26 79.0155 1329.72 78.7683 1329.31 78.2397C1329.02 77.8817 1328.59 77.6514 1328.03 77.5491C1325.1 77.0546 1322.14 76.6966 1319.16 76.4749C1318.3 76.4238 1317.49 76.5942 1316.73 76.9864C1312.31 79.3224 1308.77 80.4308 1306.11 80.3115C1286.79 79.4248 1267.79 79.0582 1249.1 79.2117C1245.43 77.9328 1241.71 76.7989 1237.92 75.8099C1234.58 74.9403 1230.74 74.5311 1226.39 74.5823C1218.97 74.6675 1211.56 74.4117 1204.16 73.8149C1204.01 73.7978 1203.9 73.849 1203.83 73.9684L1203.5 74.5567C1203.29 74.9318 1202.97 75.0852 1202.53 75.017C1199.71 74.5311 1196.69 74.3009 1193.98 75.3239C1193.18 75.6138 1192.38 75.682 1191.58 75.5286C1189.58 75.1535 1188.48 74.9659 1188.28 74.9659C1182.91 75.0511 1177.58 74.8465 1172.29 74.352C1167.14 73.8746 1161.87 73.994 1156.49 74.7101C1150.88 75.4604 1145.22 75.8952 1139.53 76.0146C1138.68 76.0487 1137.87 76.2532 1137.1 76.6284C1135.1 77.6515 1132.99 78.2312 1130.76 78.3676C1129.99 78.4187 1129.27 78.6233 1128.61 78.9814L1125.13 80.8229C1124.38 81.2322 1123.59 81.5136 1122.75 81.667C1121.61 81.8887 1120.62 82.4258 1119.78 83.2784C1119.22 83.8411 1118.58 83.9519 1117.87 83.6109C1115.63 82.5196 1113.31 82.494 1110.91 83.5342C1110.38 83.7558 1110.19 84.1394 1110.35 84.6851C1110.41 84.9409 1110.44 85.1881 1110.42 85.4268C1110.37 86.3135 1109.9 86.808 1109.02 86.9103C1107.21 87.1319 1105.61 87.7713 1104.21 88.8285C1103.54 89.3401 1102.79 89.6215 1101.96 89.6726C1090.55 90.474 1079.18 91.6164 1067.84 93.0999C1063.59 93.6455 1055.72 93.4494 1044.23 92.5116C1044.04 92.4946 1043.91 92.3581 1043.85 92.1024C1043.79 91.9319 1043.68 91.8296 1043.51 91.7955C1036.18 90.2949 1028.91 90.1245 1021.7 91.284C1016.77 92.1024 1012.98 92.5031 1010.34 92.4861C1006.47 92.4861 1002.63 92.4604 998.831 92.4093C995.531 92.3581 992.539 90.7724 987.935 92.128C986.98 92.4008 986.136 92.2985 985.403 91.8211C984.772 91.4289 984.593 90.8832 984.866 90.1841C985.07 89.6896 985.104 89.1525 984.968 88.5727L994.073 86.8335C995.113 86.646 995.13 86.3902 994.124 86.0663C989.828 84.7618 986.093 83.6108 981.438 83.4574C976.357 83.2869 971.276 83.0481 966.195 82.7412C963.074 82.5536 960.636 82.1018 958.879 81.3856C958.146 81.0958 957.379 80.9338 956.578 80.8997L864.322 77.6003C863.384 77.5662 862.514 77.3104 861.713 76.833C860.86 76.3385 859.965 76.3044 859.027 76.7307C858.478 76.9801 857.87 77.0517 857.288 76.9353C853.554 76.2447 850.485 75.1961 846.597 75.2217C836.844 75.2728 826.775 74.6249 816.391 73.2778C816.046 73.235 815.718 73.1064 815.436 72.9035C815.154 72.7007 814.926 72.4299 814.774 72.1156C814.622 71.8012 814.55 71.4531 814.564 71.1024C814.579 70.7517 814.679 70.4095 814.856 70.1063C816.186 67.8555 822.529 69.2878 826.059 68.5717C830.952 68.6569 835.88 68.4778 840.842 68.0345C841.763 67.9663 842.402 68.1454 842.76 68.5717C843.238 69.1344 843.843 69.4157 844.576 69.4157C854.125 69.5691 863.682 69.5777 873.248 69.4413C880 69.339 889.029 70.3364 897.086 69.5691C899.49 69.3304 903.216 69.5606 908.263 70.2598C912.628 70.8736 916.311 71.2402 919.312 71.3595C934.249 71.9904 949.203 72.3996 964.174 72.5872L944.377 72.6384C943.951 72.6384 943.729 72.8515 943.712 73.2778L943.661 73.9428C943.61 74.8124 944.011 75.3154 944.863 75.4519C947.899 75.9293 950.934 76.0572 953.969 75.8355C957.686 75.5456 960.695 75.5542 962.997 75.8611C973.228 77.2252 983.519 77.8219 993.869 77.6514C995.54 77.6344 997.91 77.9584 1000.98 78.6234C1004.3 79.3395 1007.37 78.8024 1010.75 79.6208C1015.2 80.7121 1019.74 81.002 1024.36 80.4905C1038.87 78.8536 1053.42 78.1033 1068.02 78.2397C1068.95 78.2568 1070.1 78.1289 1071.44 77.8561C1081.26 75.8611 1092.9 77.2934 1103.08 76.654C1114.86 75.9378 1124.78 75.5456 1132.83 75.4774C1140.72 75.3921 1148.13 74.8891 1155.05 73.9684C1162.61 72.9453 1170.01 71.9137 1177.26 70.8736C1183.26 70.004 1187.93 68.4864 1191.27 66.3209C1192.04 65.8264 1192.87 65.5791 1193.78 65.5791H1211.66C1212.41 65.5791 1213.09 65.3745 1213.7 64.9653C1214.52 64.4197 1215.42 64.1554 1216.39 64.1724C1230.4 64.2918 1243.06 63.516 1254.37 61.8449C1260.25 60.9753 1265.81 60.6087 1271.05 60.7451C1272.44 60.7622 1274 60.9924 1275.7 61.4357C1277.18 61.8108 1278.87 61.9217 1280.76 61.7682C1293.37 60.694 1302.86 61.8449 1313.81 61.2566C1319.86 60.9156 1323.42 60.7536 1324.48 60.7707C1338.58 60.89 1351.49 60.6769 1363.22 60.1312C1365.58 60.0289 1367.48 60.8815 1368.93 62.6889C1369.59 63.5244 1370.39 63.9167 1371.33 63.8655C1372.24 63.7973 1372.8 63.3284 1373.02 62.4587L1373.33 61.2311C1373.53 60.4297 1374.05 60.0204 1374.89 60.0034C1391.8 59.6112 1408.71 59.1508 1425.61 58.6222C1429.49 58.5199 1433.05 59.7476 1436.81 60.5917C1437.32 60.711 1437.69 60.9156 1437.91 61.2055C1438.23 61.5977 1438.34 62.024 1438.24 62.4844C1438.14 62.9277 1438.32 63.1153 1438.78 63.047C1439.22 62.9788 1439.62 63.0811 1439.98 63.354ZM1339.05 72.4849C1339.75 73.8149 1340.66 74.5481 1341.77 74.6845C1342.7 74.8039 1343.27 74.4032 1343.45 73.4824C1343.66 72.5105 1343.53 71.6409 1343.07 70.8736C1342.52 69.9869 1341.73 69.6118 1340.69 69.7482C1340.38 69.7823 1340.1 69.8676 1339.85 70.004C1338.74 70.5496 1338.47 71.3766 1339.05 72.4849ZM1355.27 76.2959C1354.83 74.1815 1353.91 72.9879 1352.51 72.7151C1351.62 72.5446 1350.89 72.8174 1350.31 73.5336C1349.56 74.4544 1349.29 75.4689 1349.52 76.5772C1349.69 77.4469 1350.21 78.001 1351.08 78.2397C1352.66 78.649 1353.94 78.3847 1354.91 77.4469C1355.24 77.1229 1355.36 76.7392 1355.27 76.2959Z" fill="#73A9DD"/>
<path d="M399.121 66.6537L427.511 68.1371C428.101 68.1707 428.685 68.0835 429.225 67.8813C429.975 67.5915 430.768 67.4722 431.603 67.5233C441.766 68.0178 452.073 68.6145 462.526 69.3136C463.361 69.3648 464.111 69.6462 464.776 70.1577C465.936 71.0955 467.3 71.5559 468.869 71.5389C469.738 71.5389 470.25 71.9652 470.403 72.8177C470.608 74.0113 470.037 74.6848 468.69 74.8383C461.665 75.5885 454.631 75.7249 447.589 75.2475C445.526 75.1111 443.496 75.3242 441.501 75.8869C440.683 76.1256 439.916 76.0148 439.2 75.5544L436.028 73.5594C435.743 73.382 435.419 73.2756 435.085 73.2493C434.75 73.223 434.415 73.2777 434.108 73.4085C433.801 73.5394 433.531 73.7426 433.322 74.0006C433.113 74.2586 432.971 74.5636 432.908 74.8895C432.686 76.049 432.925 76.6884 433.624 76.8077C433.965 78.9562 432.984 80.1412 430.682 80.3629C425.277 80.8915 420.179 81.6843 415.387 82.7415C407.433 84.5319 399.069 83.7646 390.706 84.5831C386.997 84.9411 383.902 82.9973 380.449 83.4321C372.947 84.4041 364.455 84.6684 354.975 84.225C351.104 84.0375 346.236 85.9727 340.37 90.0309C339.893 90.3549 339.364 90.5169 338.785 90.5169H337.634C337.122 90.5169 336.969 90.7472 337.173 91.2075C337.31 91.5145 337.344 91.8299 337.276 92.1539C337.156 92.6143 336.866 92.853 336.406 92.87C334.922 92.9212 333.524 93.2792 332.211 93.9442C331.461 94.3193 330.66 94.5155 329.807 94.5325C320.139 94.8053 310.471 95.1549 300.803 95.5812C300.223 95.6153 299.643 95.7857 299.064 96.0927C298.296 96.5019 297.725 96.715 297.35 96.7321C288.449 97.2436 279.566 97.1754 270.699 96.5275C270.256 96.5105 270.162 96.3314 270.418 95.9904C270.503 95.8881 270.588 95.8028 270.673 95.7346C270.776 95.6664 270.759 95.6323 270.622 95.6323C265.49 95.5811 260.69 95.189 256.222 94.4558C254.944 94.2512 254.833 93.7652 255.89 92.9979L257.297 91.9748C258.183 91.3439 258.158 90.7386 257.22 90.1589C255.651 89.1529 254.185 88.1212 252.821 87.064C251.542 86.058 250.715 85.0947 250.34 84.1739C250.05 83.4236 249.504 82.9974 248.703 82.895C245.48 82.4091 242.513 81.5394 239.29 81.4883C233.118 81.386 226.971 80.9682 220.85 80.235C218.701 79.9622 216.536 79.2375 214.353 78.061C212.119 76.8503 209.707 76.407 207.115 76.731C202.886 77.2425 198.76 77.5836 194.735 77.7541C193.525 77.8223 192.468 77.6262 191.564 77.1658C188.239 75.4436 188.188 73.423 191.41 71.1041C191.725 70.8789 192.084 70.7236 192.463 70.6486C192.843 70.5736 193.234 70.5806 193.61 70.6692C197.123 71.4365 200.465 71.1978 203.636 69.9531C209.434 67.6682 212.554 66.4746 212.997 66.3723C215.265 65.8949 217.516 65.4346 219.75 64.9912C221.83 64.5649 224.115 64.3944 226.604 64.4796C234.141 64.7525 241.575 64.2495 248.907 62.9706C248.873 64.5905 248.387 65.4089 247.449 65.426C234.678 65.6988 222.128 66.8071 209.8 68.7509C209.044 68.8728 208.338 69.2074 207.767 69.715C207.196 70.2226 206.783 70.8821 206.578 71.6156C206.475 71.9055 206.714 72.1954 207.294 72.4852C207.584 72.6216 207.942 72.6813 208.368 72.6643C212.205 72.5108 215.939 71.3598 219.571 71.3598C230.347 71.3598 241.541 71.3598 253.153 71.3598C258.678 71.3598 266.334 71.8714 276.121 72.8945C283.743 73.6788 291.399 74.0284 299.089 73.9431C299.925 73.9261 300.701 74.1221 301.417 74.5314C302.696 75.2646 304.324 75.6482 306.302 75.6823C317.436 75.8699 327.548 75.8272 336.636 75.5544C340.507 75.4351 344.139 75.6226 347.532 76.1171C351.351 76.6798 355 76.9526 358.479 76.9356C363.253 76.9015 368.045 77.0635 372.853 77.4216C377.286 77.7285 382.163 77.7882 387.483 77.6006C389.41 77.5495 390.944 77.0379 392.087 76.066C392.701 75.5544 392.633 75.1537 391.882 74.8639L386.23 72.5364C385.411 72.1953 384.567 72.0504 383.698 72.1016C380.441 72.2721 377.576 71.3343 375.104 69.2881C374.524 68.7936 373.851 68.5805 373.083 68.6487L365.18 69.3136C364.447 69.3648 363.901 69.0749 363.543 68.444L363.185 67.7279C362.912 67.2163 362.486 66.9436 361.906 66.9095L327.863 64.3006C323.089 62.783 318.016 62.3482 312.645 62.9961C310.838 63.2178 309.073 63.0132 307.351 62.3823C306.566 62.0925 305.748 61.9731 304.895 62.0243C300.07 62.3483 295.517 62.2203 291.237 61.6406C284.894 60.788 280.341 60.3703 277.579 60.3873C267.877 60.4385 258.473 60.6686 249.368 61.0779C249.361 61.0779 249.354 61.0806 249.35 61.0854C249.345 61.0902 249.342 61.0967 249.342 61.1035C249.342 61.1103 249.345 61.1168 249.35 61.1216C249.354 61.1264 249.361 61.1291 249.368 61.1291C250.851 61.4019 251.738 61.1205 252.028 60.285C268.329 59.5859 278.739 59.4239 283.257 59.799C308.084 61.8963 328.861 62.6466 345.588 62.0498C349.885 61.8964 353.943 61.9816 357.763 62.3056C361.804 62.6637 365.845 62.9791 369.886 63.2519C373.296 63.4906 378.156 64.1386 384.465 65.1958C389.256 65.9972 394.142 66.4832 399.121 66.6537Z" fill="#6F9CD2"/>
<path d="M857.429 60.0811C855.519 60.1834 854.01 60.5244 852.902 61.1041C851.998 61.5816 852.024 61.9993 852.978 62.3574L858.682 64.5059L815.15 68.0866C810.58 66.8078 806.829 67.1488 803.896 69.1097C797.417 68.3935 791.065 68.4873 784.842 69.391C783.801 69.5445 781.457 69.6724 777.808 69.7747C774.457 69.9026 771.414 71.2326 768.396 71.4372C761.439 71.8464 754.465 72.2045 747.474 72.5114C745.513 72.5966 741.932 72.0085 736.731 70.7467C733.048 69.86 729.493 69.4252 726.066 69.4422C722.204 69.4422 714.838 70.2607 711.487 68.7261C710.157 68.1293 709.151 67.8138 708.469 67.7797C702.467 67.5922 696.576 67.0806 690.795 66.2451C681.195 64.7275 671.519 64.3438 661.766 65.0941C661.378 65.1317 660.99 65.0205 660.682 64.7831C660.373 64.5456 660.166 64.1996 660.103 63.8153C660.086 63.6618 660.214 63.4742 660.487 63.2526C660.674 63.0991 660.887 63.0224 661.126 63.0224L671.51 62.7411L857.429 60.0811Z" fill="#1884BA"/>
<path d="M327.863 64.3011L361.906 66.91C362.486 66.9441 362.912 67.2169 363.185 67.7284L363.543 68.4446C363.901 69.0755 364.447 69.3653 365.18 69.3142L373.083 68.6492C373.851 68.581 374.524 68.7942 375.104 69.2886C377.576 71.3348 380.441 72.2726 383.698 72.1021C384.567 72.051 385.411 72.1958 386.23 72.5369L391.882 74.8644C392.633 75.1543 392.701 75.555 392.087 76.0665C390.945 77.0384 389.41 77.55 387.483 77.6011C382.163 77.7887 377.286 77.729 372.853 77.4221C368.045 77.064 363.253 76.902 358.479 76.9361C355 76.9532 351.352 76.6803 347.532 76.1176C344.139 75.6231 340.507 75.4356 336.636 75.5549C327.548 75.8278 317.437 75.8704 306.302 75.6829C304.324 75.6488 302.696 75.2651 301.417 74.5319C300.701 74.1226 299.925 73.9266 299.089 73.9437C291.399 74.0289 283.743 73.6793 276.121 72.895C266.334 71.8719 258.678 71.3604 253.153 71.3604C241.541 71.3604 230.347 71.3604 219.571 71.3604C215.939 71.3604 212.205 72.5113 208.368 72.6648C207.942 72.6819 207.584 72.6222 207.294 72.4857C206.714 72.1959 206.475 71.906 206.578 71.6161C206.784 70.8826 207.196 70.2231 207.767 69.7155C208.338 69.2079 209.044 68.8733 209.8 68.7515C222.128 66.8076 234.678 65.6993 247.45 65.4265C248.387 65.4094 248.873 64.591 248.907 62.9711C274.928 61.9822 301.246 62.4255 327.863 64.3011Z" fill="#8FBBE7"/>
<path d="M1439.98 77.8305V90.0306L1437.78 97.4991C1437.52 98.3517 1436.95 98.8291 1436.06 98.9314L1415.6 101.08H1410.03C1399.15 99.7158 1388.34 99.7158 1377.6 101.08H1092.8H1064.92H1054.51C1058.63 100.671 1062.25 100.057 1065.35 99.2383C1069.55 98.1129 1072.72 97.5588 1074.87 97.5758C1079.61 97.5929 1084.36 97.1325 1089.14 96.1947C1093.64 95.308 1098.13 94.9158 1102.62 95.0182C1107.94 95.1375 1113.42 94.9329 1119.06 94.4043C1119.3 94.3873 1119.38 94.302 1119.29 94.1485C1119.24 94.0462 1119.14 94.0036 1118.99 94.0206C1117.59 94.1229 1116.79 94.157 1116.58 94.1229C1114.23 93.816 1114.24 93.6796 1116.61 93.7137C1119.73 93.7478 1122.89 93.0828 1126.1 91.7187C1128.83 90.5592 1131.88 90.1585 1135.25 90.5166C1136.24 90.6189 1137.17 90.4399 1138.04 89.9795C1139.51 89.1951 1141.04 88.6239 1142.65 88.2658C1144.83 87.8054 1146.4 87.0978 1147.35 86.143C1148.66 84.8471 1148.66 83.4148 1147.33 81.8461C1146.54 80.9423 1146.66 80.1921 1147.68 79.5953C1150.7 77.8219 1153.07 76.9694 1154.79 77.0376C1159.65 77.2252 1166.9 77.0376 1176.54 76.4749C1199.4 75.1108 1223.59 76.0231 1249.1 79.2116C1267.79 79.0582 1286.79 79.4248 1306.11 80.3114C1308.77 80.4308 1312.31 79.3224 1316.72 76.9864C1317.49 76.5942 1318.3 76.4237 1319.15 76.4749C1322.14 76.6966 1325.09 77.0546 1328.03 77.5491C1328.59 77.6514 1329.02 77.8816 1329.31 78.2397C1329.72 78.7683 1330.25 79.0155 1330.92 78.9814C1336.26 78.8279 1343.32 79.6976 1347.16 84.0456C1348.88 85.9895 1350.95 87.5582 1353.37 88.7518C1354.14 89.1269 1354.87 89.0587 1355.57 88.5472C1358.25 86.5351 1359.48 83.841 1359.26 80.4649C1359.19 79.6123 1359.55 79.0582 1360.36 78.8024C1366.22 76.8586 1372.25 76.0827 1378.44 76.4749C1379.05 76.509 1379.5 76.2532 1379.79 75.7075C1379.93 75.4347 1380.1 75.2046 1380.31 75.017C1380.43 74.8976 1380.57 74.8379 1380.74 74.8379C1383.3 74.6674 1385.18 74.0451 1386.39 72.9709C1387.25 72.2207 1388.35 71.7907 1389.49 71.7535C1390.63 71.7162 1391.75 72.0739 1392.66 72.7662C1393.65 73.4994 1394.86 73.9172 1396.29 74.0195C1397.11 74.0707 1397.84 73.849 1398.49 73.3545L1410.67 64.0957C1411.27 63.6347 1411.97 63.3099 1412.71 63.1433C1413.46 62.9766 1414.23 62.9718 1414.98 63.1294C1415.72 63.2871 1416.43 63.6033 1417.04 64.0568C1417.66 64.5103 1418.17 65.0905 1418.54 65.7582C1420.88 69.9869 1421.95 74.5822 1421.74 79.5441C1421.72 80.2602 1422.02 80.7974 1422.64 81.1554C1434.57 88.2829 1440.35 87.1746 1439.98 77.8305Z" fill="#299DD2"/>
<path d="M858.696 64.5059C865.806 65.7847 873.028 66.3644 880.36 66.2451C882.815 66.211 885.006 66.4582 886.933 66.9868C889.618 67.7541 892.764 69.0073 895.527 69.0073C906.422 69.0755 913.354 69.2461 916.321 69.5189C940.38 71.7697 961.873 72.3324 980.8 71.207L964.175 72.5881C949.204 72.4005 934.25 71.9913 919.313 71.3604C916.312 71.2411 912.629 70.8745 908.264 70.2607C903.217 69.5616 899.491 69.3313 897.087 69.57C889.03 70.3373 880.002 69.3399 873.249 69.4422C863.684 69.5786 854.126 69.57 844.577 69.4166C843.844 69.4166 843.239 69.1353 842.762 68.5726C842.403 68.1463 841.764 67.9672 840.843 68.0354C835.881 68.4787 830.954 68.6578 826.06 68.5726L815.164 68.0866L858.696 64.5059ZM836.444 66.4497C836.171 66.4497 835.958 66.5519 835.805 66.7566C835.532 67.1146 835.617 67.2682 836.06 67.217L843.989 66.3985C844.722 66.3303 844.722 66.245 843.989 66.1427C841.636 65.8017 839.488 65.8784 837.544 66.3729C837.459 66.407 837.092 66.4326 836.444 66.4497Z" fill="#5F8EC1"/>
<path d="M837.544 66.3716C839.487 65.8771 841.636 65.8004 843.989 66.1414C844.722 66.2437 844.722 66.329 843.989 66.3972L836.06 67.2157C835.617 67.2668 835.532 67.1133 835.804 66.7552C835.958 66.5506 836.171 66.4483 836.444 66.4483C837.092 66.4313 837.458 66.4057 837.544 66.3716Z" fill="#468FCE"/>
<path d="M815.156 68.0853L826.051 68.5713C822.522 69.2875 816.179 67.8552 814.849 70.1059C814.672 70.4091 814.571 70.7514 814.557 71.1021C814.543 71.4528 814.615 71.8009 814.767 72.1152C814.919 72.4296 815.146 72.7003 815.429 72.9032C815.711 73.106 816.039 73.2346 816.383 73.2774C826.768 74.6245 836.836 75.2725 846.59 75.2213C850.477 75.1957 853.547 76.2444 857.281 76.9349C857.863 77.0513 858.471 76.9798 859.02 76.7303C859.958 76.3041 860.853 76.3381 861.706 76.8326C862.507 77.31 863.377 77.5658 864.315 77.6L956.57 80.8993C957.372 80.9334 958.139 81.0954 958.872 81.3853C960.629 82.1014 963.067 82.5533 966.187 82.7409C971.269 83.0478 976.35 83.2865 981.431 83.457C986.086 83.6105 989.82 84.7615 994.117 86.0659C995.123 86.3899 995.106 86.6456 994.066 86.8332L984.961 88.5724C979.095 88.436 975.386 88.5468 973.835 88.9049C966.98 90.4651 961.277 89.3142 954.524 89.3653C951.779 89.3824 949.545 89.1351 947.823 88.6236C937.422 85.9977 928.189 84.5313 920.123 84.2244C901.452 83.5082 880.36 83.5935 856.846 84.4801C847.4 84.8212 837.945 84.9235 828.481 84.7871C821.524 84.6847 813.928 86.1682 806.511 86.0915C787.55 85.8528 768.597 86.0147 749.653 86.5774C748.715 86.5944 747.837 86.3984 747.019 85.9892C746.064 85.4947 745.152 85.2644 744.282 85.2985C737.513 85.5373 730.752 85.5458 724 85.3241C717.537 85.1195 711.893 85.2985 707.068 85.8612C701.458 86.5092 695.857 87.2424 690.264 88.0609C687.484 88.4531 685.387 88.9391 683.972 89.5188C683.205 89.8428 682.412 89.9195 681.593 89.749C679.7 89.3739 677.808 89.263 675.915 89.4165C675.08 89.4847 674.261 89.3738 673.46 89.084C671.055 88.2143 668.873 88.2826 666.912 89.2886C665.002 90.2776 663.476 90.9937 662.334 91.4371C661.549 91.7269 660.884 92.2044 660.339 92.8694C658.855 94.6938 656.869 95.7766 654.379 96.1176C653.564 96.2343 652.804 96.6006 652.205 97.1663C649.221 99.9456 645.496 101.25 641.028 101.08H623.917C619.041 100.022 614.283 100.022 609.645 101.08H526.572C521.865 95.2991 515.966 91.8803 508.872 90.8232C504.499 90.1582 499.128 92.1276 493.961 90.4907C489.408 89.0413 486.194 88.3081 484.318 88.2911C475.162 88.2058 466.969 87.6601 459.739 86.6541C453.686 85.8016 448.153 85.8101 443.14 86.6797C442.321 86.8332 441.784 87.3021 441.528 88.0865C441.187 89.0584 440.556 89.766 439.636 90.2093C438.698 90.6527 438.135 90.9767 437.948 91.1813C437.351 91.8292 437.155 92.5198 437.359 93.253C437.564 93.9862 437.427 94.6427 436.95 95.2224C435.756 96.6718 435.236 98.6241 435.39 101.08H424.903L424.29 93.2019C424.191 91.9637 424.55 90.7323 425.3 89.742C426.05 88.7516 427.138 88.0714 428.356 87.8307C430.436 87.4215 432.321 86.2791 434.009 84.4034C434.296 84.0851 434.65 83.8366 435.045 83.677C435.439 83.5174 435.864 83.4509 436.285 83.4826C439.559 83.7128 442.168 82.6386 445.442 82.8688C453.37 83.3974 461.41 83.6191 469.561 83.5338C469.666 83.5321 469.771 83.5539 469.868 83.5976C469.964 83.6413 470.05 83.7058 470.118 83.7865C470.187 83.8672 470.236 83.9621 470.264 84.0643C470.291 84.1666 470.296 84.2737 470.277 84.3778C470.209 84.8211 470.464 84.9576 471.044 84.7871C471.131 84.7619 471.213 84.7183 471.282 84.6593C471.351 84.6003 471.407 84.5272 471.446 84.4449C471.484 84.3626 471.505 84.2729 471.506 84.182C471.508 84.091 471.49 84.0009 471.453 83.9174C470.959 82.7239 471.317 82.1356 472.528 82.1526C473.295 82.1526 473.968 81.9054 474.548 81.4109C476.202 80.0297 478.248 79.646 480.687 80.2599C481.539 80.4816 482.162 80.1917 482.554 79.3903C482.775 78.9129 482.758 78.3843 482.503 77.8045C482.374 77.5095 482.322 77.1861 482.353 76.8657C482.384 76.5453 482.497 76.2389 482.68 75.9763C482.862 75.7136 483.109 75.5038 483.397 75.367C483.684 75.2302 484.001 75.1712 484.318 75.1957L525.011 77.8557C525.71 77.9069 526.307 78.1882 526.802 78.6997C527.228 79.1431 527.722 79.1175 528.285 78.623C528.435 78.4882 528.618 78.3904 528.817 78.3372C529.017 78.2839 529.229 78.2767 529.436 78.3161C532.915 78.8788 536.436 79.6035 539.999 80.4902C543.171 81.2745 547.016 81.0017 551.535 79.6717C552.421 79.4159 553.018 78.8532 553.325 77.9836C554.126 75.8181 556.693 75.2213 561.024 76.1932C569.993 80.3366 579.2 84.0538 588.647 87.3447C590.42 87.9586 592.244 88.7429 594.12 89.6978C595.876 90.5844 597.658 91.437 599.466 92.2555C603.507 94.0714 606.218 92.1276 610.336 92.6903C618.742 93.8157 625.332 90.8914 630.107 83.9174C630.572 83.2356 631.243 82.7164 632.025 82.4339C635.043 81.3768 637.592 79.8678 639.673 77.9069C640.303 77.3101 641.045 76.8838 641.898 76.628C643.654 76.1165 645.044 75.0934 646.067 73.5588C646.544 72.8767 647.192 72.6039 648.011 72.7404C652.691 73.4821 656.988 72.4334 661.26 75.7072C661.993 76.2528 662.82 76.5172 663.74 76.5002C674.619 76.1762 683.776 76.3808 691.21 77.114C692.404 77.2333 693.333 77.0799 693.998 76.6536C694.697 76.1932 695.456 75.9801 696.274 76.0142C715.269 76.5598 734.043 76.6621 752.595 76.3211C754.436 76.287 755.826 76.5513 756.764 77.114C757.48 77.5232 758.247 77.7193 759.066 77.7022C763.362 77.651 766.534 78.6486 770.831 77.6767C776.134 76.4831 781.522 76.0909 786.996 76.5002C787.831 76.5684 788.479 76.2444 788.939 75.5282L789.374 74.8376C789.818 74.1897 790.431 73.8913 791.216 73.9425C793.722 74.1471 796.041 74.8888 798.173 76.1677C798.889 76.5939 799.656 76.7218 800.475 76.5513C803.339 75.9374 805.181 75.5282 808.224 76.2188C811.14 76.8667 814.082 77.1651 817.048 77.114C817.645 77.114 818.054 77.3953 818.276 77.958C818.498 78.5548 818.992 78.6742 819.76 78.3161C822.829 76.8667 825.745 76.2188 828.507 76.3722C829.394 76.4234 830.195 76.7218 830.911 77.2674C834.219 79.8251 838.269 80.4816 843.06 79.2368C844.697 78.7935 844.723 78.2905 843.137 77.7278C843.052 77.6937 842.821 77.6681 842.446 77.6511C841.969 77.6511 841.952 77.5829 842.395 77.4465C844.885 76.6792 847.417 76.7815 849.991 77.7534C850.001 77.7574 850.012 77.7592 850.023 77.7587C850.034 77.7582 850.044 77.7555 850.054 77.7507C850.064 77.7458 850.072 77.739 850.079 77.7307C850.086 77.7223 850.091 77.7126 850.094 77.7022L850.222 77.0373C850.29 76.611 850.119 76.3552 849.71 76.2699C845.874 75.3662 842.122 75.4941 838.456 76.6536C837.638 76.9094 836.828 76.8923 836.026 76.6024C834.935 76.2273 833.861 75.801 832.804 75.3236C829.376 73.7122 822.036 74.5563 818.097 74.5563C816.477 74.5392 813.775 74.2067 809.989 73.5588C807.21 73.0643 804.379 72.9791 801.498 73.3031C800.645 73.3883 800.219 73.0046 800.219 72.1521V71.1034C800.219 70.3531 800.585 70.0207 801.319 70.1059C802.819 70.2594 803.68 69.9269 803.902 69.1084C806.835 67.1475 810.586 66.8065 815.156 68.0853Z" fill="#468FCE"/>
<path d="M1339.05 72.4847C1338.47 71.3764 1338.73 70.5494 1339.84 70.0038C1340.1 69.8674 1340.38 69.7821 1340.69 69.748C1341.73 69.6116 1342.52 69.9867 1343.06 70.8734C1343.52 71.6407 1343.65 72.5103 1343.45 73.4822C1343.26 74.403 1342.7 74.8037 1341.76 74.6843C1340.65 74.5479 1339.75 73.8147 1339.05 72.4847Z" fill="#D1C4E8"/>
<path d="M0 92.4347V76.8584C5.85711 74.3519 10.5121 76.9608 16.3436 71.6152C16.9745 71.0354 17.7248 70.7115 18.5944 70.6433C23.0959 70.3534 27.2991 70.6518 31.2038 71.5385C35.2279 72.4592 39.2179 72.8173 43.1738 72.6127C47.4196 72.4251 51.1964 73.0986 54.5044 74.6332C59.1764 76.8499 61.1032 80.9507 60.2848 86.9357C59.9949 89.0671 60.9242 90.167 63.0726 90.2352C86.4499 91.1048 108.438 91.4884 129.035 91.3861C130.928 91.3861 133.554 91.6078 136.913 92.0511C139.471 92.3751 142.054 92.5115 144.663 92.4604C145.498 92.4433 146.291 92.6393 147.042 93.0486C147.621 93.3725 148.235 93.5857 148.883 93.688C149.719 93.7903 149.932 94.2081 149.523 94.9413C148.841 96.152 147.809 96.817 146.428 96.9363C133.332 97.9594 118.907 97.4734 105.044 98.4453C96.5017 99.0251 90.1501 98.829 85.9895 97.857C74.3947 95.1459 64.701 93.9097 56.9086 94.1484C39.0389 94.7111 21.1777 94.4127 3.325 93.2532C2.19961 93.168 1.09128 92.8951 0 92.4347Z" fill="#73A9DD"/>
<path d="M1355.27 76.296C1355.35 76.7393 1355.23 77.123 1354.91 77.4469C1353.94 78.3848 1352.66 78.6491 1351.07 78.2398C1350.2 78.0011 1349.68 77.447 1349.51 76.5773C1349.29 75.469 1349.56 74.4544 1350.31 73.5337C1350.89 72.8175 1351.62 72.5447 1352.51 72.7152C1353.9 72.988 1354.82 74.1816 1355.27 76.296Z" fill="#D6E8F1"/>
<path d="M1249.1 79.2125C1223.59 76.0239 1199.4 75.1116 1176.54 76.4757C1166.9 77.0384 1159.66 77.226 1154.8 77.0384C1153.08 76.9702 1150.71 77.8228 1147.69 79.5961C1146.66 80.1929 1146.55 80.9432 1147.33 81.8469C1148.66 83.4156 1148.67 84.8479 1147.36 86.1438C1146.4 87.0987 1144.83 87.8062 1142.65 88.2666C1141.05 88.6247 1139.51 89.196 1138.05 89.9803C1137.18 90.4407 1136.25 90.6197 1135.26 90.5174C1131.88 90.1593 1128.83 90.56 1126.1 91.7195C1122.89 93.0836 1119.73 93.7486 1116.61 93.7145C1114.24 93.6804 1114.23 93.8168 1116.59 94.1238C1116.79 94.1579 1117.59 94.1237 1118.99 94.0214C1119.14 94.0044 1119.25 94.0471 1119.3 94.1494C1119.38 94.3028 1119.31 94.3881 1119.07 94.4051C1113.42 94.9337 1107.94 95.1383 1102.62 95.019C1098.14 94.9167 1093.64 95.3088 1089.14 96.1955C1084.37 97.1333 1079.61 97.5937 1074.87 97.5767C1072.72 97.5596 1069.55 98.1138 1065.36 99.2391C1062.25 100.058 1058.64 100.671 1054.51 101.081H1045.51H1001.11C1001 101.047 1000.89 101.047 1000.77 101.081C996.954 100.228 993.186 100.228 989.469 101.081H945.067C943.089 100.535 942.117 99.2732 942.152 97.2953C942.152 96.4768 941.759 95.9568 940.975 95.7351C938.025 94.8996 935.007 94.4051 931.921 94.2516C931.017 94.2175 930.557 93.7486 930.54 92.8449C930.523 92.2311 930.881 91.8645 931.614 91.7451C939.219 90.5345 944.624 89.4944 947.83 88.6247C949.552 89.1363 951.786 89.3835 954.531 89.3665C961.283 89.3153 966.987 90.4662 973.841 88.9061C975.393 88.548 979.102 88.4371 984.967 88.5735C985.104 89.1533 985.07 89.6904 984.865 90.1849C984.592 90.884 984.771 91.4297 985.402 91.8219C986.135 92.2993 986.979 92.4016 987.934 92.1288C992.538 90.7732 995.531 92.3589 998.83 92.4101C1002.63 92.4612 1006.47 92.4869 1010.34 92.4869C1012.98 92.5039 1016.77 92.1032 1021.7 91.2848C1028.91 90.1253 1036.18 90.2957 1043.51 91.7963C1043.68 91.8304 1043.79 91.9327 1043.85 92.1032C1043.91 92.3589 1044.04 92.4954 1044.23 92.5124C1055.72 93.4502 1063.59 93.6463 1067.84 93.1007C1079.18 91.6172 1090.55 90.4748 1101.96 89.6734C1102.79 89.6223 1103.54 89.3409 1104.21 88.8293C1105.6 87.7721 1107.21 87.1327 1109.02 86.9111C1109.9 86.8088 1110.37 86.3143 1110.42 85.4276C1110.44 85.1889 1110.41 84.9416 1110.35 84.6859C1110.19 84.1402 1110.38 83.7566 1110.91 83.535C1113.31 82.4948 1115.63 82.5204 1117.86 83.6117C1118.58 83.9527 1119.22 83.8419 1119.78 83.2792C1120.62 82.4266 1121.61 81.8895 1122.75 81.6678C1123.59 81.5144 1124.38 81.233 1125.13 80.8237L1128.61 78.9822C1129.27 78.6241 1129.99 78.4195 1130.76 78.3684C1132.99 78.232 1135.1 77.6522 1137.1 76.6292C1137.87 76.254 1138.68 76.0495 1139.53 76.0154C1145.22 75.896 1150.88 75.4612 1156.49 74.7109C1161.87 73.9948 1167.14 73.8754 1172.29 74.3528C1177.58 74.8473 1182.91 75.0519 1188.28 74.9667C1188.48 74.9667 1189.58 75.1543 1191.58 75.5294C1192.38 75.6828 1193.18 75.6146 1193.98 75.3247C1196.69 74.3016 1199.71 74.5319 1202.52 75.0178C1202.97 75.086 1203.29 74.9326 1203.5 74.5574L1203.83 73.9692C1203.9 73.8498 1204.01 73.7986 1204.16 73.8157C1211.56 74.4125 1218.97 74.6683 1226.39 74.5831C1230.74 74.5319 1234.58 74.9411 1237.92 75.8107C1241.71 76.7997 1245.43 77.9336 1249.1 79.2125Z" fill="#569BD8"/>
<path d="M947.834 88.6233C944.628 89.493 939.223 90.5331 931.618 91.7437C930.885 91.8631 930.527 92.2297 930.544 92.8435C930.561 93.7472 931.021 94.2161 931.925 94.2502C935.011 94.4037 938.029 94.8982 940.979 95.7337C941.764 95.9554 942.156 96.4754 942.156 97.2939C942.122 99.2718 943.094 100.534 945.072 101.079H753.884H731.377H707.232H668.79H666.028H651.526H641.039C645.506 101.25 649.232 99.9454 652.216 97.166C652.815 96.6004 653.575 96.2341 654.39 96.1174C656.88 95.7763 658.866 94.6936 660.35 92.8691C660.895 92.2041 661.56 91.7267 662.345 91.4368C663.487 90.9935 665.013 90.2773 666.923 89.2884C668.884 88.2823 671.066 88.2141 673.471 89.0837C674.272 89.3736 675.09 89.4844 675.926 89.4162C677.819 89.2628 679.711 89.3736 681.604 89.7487C682.422 89.9192 683.215 89.8425 683.983 89.5185C685.398 88.9388 687.495 88.4528 690.275 88.0606C695.867 87.2422 701.469 86.5089 707.079 85.861C711.904 85.2983 717.548 85.1193 724.011 85.3239C730.763 85.5456 737.524 85.537 744.293 85.2983C745.163 85.2642 746.075 85.4944 747.03 85.9889C747.848 86.3982 748.726 86.5942 749.664 86.5771C768.608 86.0144 787.561 85.8525 806.522 86.0913C813.939 86.168 821.535 84.6845 828.492 84.7868C837.956 84.9232 847.411 84.8209 856.857 84.4799C880.371 83.5932 901.463 83.508 920.134 84.2241C928.199 84.531 937.433 85.9974 947.834 88.6233Z" fill="#0A82C7"/>
<path d="M526.575 101.08H435.393C435.24 98.6246 435.76 96.6722 436.954 95.2228C437.431 94.6431 437.567 93.9867 437.363 93.2534C437.158 92.5202 437.354 91.8297 437.951 91.1817C438.139 90.9771 438.701 90.6531 439.639 90.2098C440.56 89.7665 441.191 89.0589 441.532 88.0869C441.788 87.3026 442.325 86.8336 443.143 86.6802C448.156 85.8106 453.689 85.802 459.743 86.6546C466.972 87.6606 475.166 88.2063 484.322 88.2915C486.198 88.3086 489.412 89.0417 493.965 90.4911C499.131 92.128 504.502 90.1586 508.876 90.8236C515.969 91.8808 521.869 95.2996 526.575 101.08Z" fill="#0B8ADE"/>
<path d="M1439.98 90.0312V101.08H1415.6L1436.06 98.932C1436.95 98.8297 1437.52 98.3523 1437.78 97.4997L1439.98 90.0312Z" fill="#075DBF"/>
<path d="M0 95.8877C0.988973 98.8887 4.82551 100.313 11.5096 100.159C23.7865 99.8863 46.1748 100.193 78.6745 101.08H0V95.8877Z" fill="#075DBF"/>
<path d="M338.951 101.079H109.68C148.147 98.9645 179.155 98.2057 202.703 98.8025C239.107 99.7403 268.87 99.9279 291.992 99.3652C300.807 99.1435 308.634 99.2288 315.471 99.621C323.281 100.064 331.107 100.55 338.951 101.079Z" fill="#075DBF"/>
<path d="M623.92 101.08H609.648C614.286 100.023 619.044 100.023 623.92 101.08Z" fill="#075DBF"/>
<path d="M1000.77 101.08H989.469C993.186 100.227 996.954 100.227 1000.77 101.08Z" fill="#075DBF"/>
<path d="M1410.03 101.081H1377.59C1388.34 99.7166 1399.15 99.7166 1410.03 101.081Z" fill="#075DBF"/>
</svg>
