<svg width="1770" height="391" viewBox="0 0 1770 391" fill="none" xmlns="http://www.w3.org/2000/svg">
<path d="M2.82454 110.144L1.97714 138.059L5.93143 77.4637C32.3245 79.153 58.8431 81.6218 83.9809 83.035C125.992 85.3956 166.759 87.0687 206.28 88.0541C226.825 88.5738 247.633 88.4168 268.701 87.583C292.595 86.6409 317.199 85.5093 342.513 84.1883C365.737 82.9754 398.218 93.5063 442.343 93.1381C486.467 92.7698 545.018 102.34 614.716 94.9896C682.421 87.8499 734.847 65.4657 803.078 66.5044C829.887 66.9125 875.691 76.1554 900.547 76.9242C947.286 78.386 979.48 76.9243 1025.52 66.5044C1071.57 56.0845 1187.05 14.3585 1265.02 40.0197C1343 65.6808 1383.49 69.4488 1433.94 73.4614C1458.98 75.4533 1480.12 62.8303 1533.88 65.6811C1561.67 67.155 1582.44 69.509 1604.58 73.4614C1618.3 75.914 1632.32 77.8794 1645.25 80.8355C1664.12 85.1454 1687.44 92.2164 1715.2 102.049C1730.29 107.398 1748.55 109.363 1770 107.945V152.759V391H0L1.97714 138.059L2.82454 110.144C2.82454 109.754 2.61529 109.386 2.19684 109.04C1.86209 108.78 1.7051 108.482 1.72602 108.146C2.06078 99.1695 2.03999 90.3604 1.66339 81.7193C1.64247 81.6434 1.56922 81.6002 1.44368 81.5894C1.19019 81.5655 0.993092 81.5461 0.852406 81.531C0.609925 81.505 0.535017 81.492 0.627698 81.492C0.730289 81.492 0.805178 81.505 0.852406 81.531C0.993092 81.5461 1.19019 81.5655 1.44368 81.5894C1.56922 81.6002 1.64247 81.6434 1.66339 81.7193C2.03999 90.3604 2.06078 99.1695 1.72602 108.146C1.7051 108.482 1.86209 108.78 2.19684 109.04C2.61529 109.386 2.82454 109.754 2.82454 110.144Z" fill="url(#paint0_linear_139_1609)"/>
<defs>
<linearGradient id="paint0_linear_139_1609" x1="971.108" y1="-80.0263" x2="883.718" y2="374.207" gradientUnits="userSpaceOnUse">
<stop stop-color="#15ACC5"/>
<stop offset="0.997039" stop-color="#6FBCA8" stop-opacity="0.3"/>
</linearGradient>
</defs>
</svg>
