<svg width="1480" height="391" viewBox="0 0 1480 391" fill="none" xmlns="http://www.w3.org/2000/svg">
<path d="M2.36176 110.236L1.6532 138.161L4.95962 77.5444C27.0284 79.2342 49.2021 81.704 70.2213 83.1176C105.349 85.479 139.437 87.1527 172.483 88.1384C189.662 88.6583 207.06 88.5013 224.676 87.6672C244.655 86.7248 265.228 85.5928 286.395 84.2713C305.814 83.058 332.973 93.5925 369.868 93.2241C406.764 92.8558 455.721 102.429 514 95.0763C570.612 87.9342 614.449 51.5375 671.5 52.5766C693.917 52.9848 732.216 62.2309 753 63C792.081 64.4623 819 63 857.5 52.5766C896 42.1531 1007.15 -24.9227 1079.5 10.0773C1151.85 45.0772 1156.82 69.5267 1199 73.5407C1219.94 75.5333 1237.62 62.906 1282.56 65.7578C1305.8 67.2322 1323.17 69.587 1341.68 73.5407C1353.15 75.9942 1364.88 77.9603 1375.69 80.9174C1391.47 85.2287 1410.96 92.3022 1434.18 102.138C1446.79 107.489 1462.07 109.455 1480 108.036V152.865V391.188H0L1.6532 138.161L2.36176 110.236C2.36176 109.846 2.1868 109.478 1.83691 109.131C1.557 108.871 1.42574 108.573 1.44323 108.238C1.72313 99.2576 1.70575 90.4456 1.39085 81.8014C1.37336 81.7256 1.31212 81.6823 1.20715 81.6715C0.995188 81.6477 0.83039 81.6282 0.712755 81.6131C0.509996 81.5871 0.447358 81.5741 0.524855 81.5741C0.610638 81.5741 0.673265 81.5871 0.712755 81.6131C0.83039 81.6282 0.995188 81.6477 1.20715 81.6715C1.31212 81.6823 1.37336 81.7256 1.39085 81.8014C1.70575 90.4456 1.72313 99.2576 1.44323 108.238C1.42574 108.573 1.557 108.871 1.83691 109.131C2.1868 109.478 2.36176 109.846 2.36176 110.236Z" fill="url(#paint0_linear_123_5157)"/>
<defs>
<linearGradient id="paint0_linear_123_5157" x1="812" y1="-80" x2="709" y2="367.5" gradientUnits="userSpaceOnUse">
<stop stop-color="#15ACC5"/>
<stop offset="0.997039" stop-color="#6FBCA8" stop-opacity="0.3"/>
</linearGradient>
</defs>
</svg>
