<svg width="1770" height="391" viewBox="0 0 1770 391" fill="none" xmlns="http://www.w3.org/2000/svg">
<path d="M2.82454 110.145L1.97714 138.06L5.93143 77.4641C32.3245 79.1534 58.8431 81.6223 83.9809 83.0354C125.992 85.3961 166.759 87.0691 206.28 88.0545C226.825 88.5743 247.633 88.4173 268.701 87.5835C292.595 86.6414 317.199 85.5098 342.513 84.1887C365.737 82.9759 398.218 93.5068 442.343 93.1385C486.467 92.7703 545.018 102.34 614.716 94.9901C682.421 87.8504 734.847 51.4661 803.078 52.5049C829.887 52.913 875.691 62.1559 900.547 62.9247C947.286 64.3865 979.48 62.9247 1025.52 52.5049C1071.57 42.085 1204.5 -24.9678 1291.02 10.0201C1377.55 45.0081 1383.49 69.4492 1433.94 73.4618C1458.98 75.4537 1480.12 62.8308 1533.88 65.6816C1561.67 67.1555 1582.44 69.5094 1604.58 73.4618C1618.3 75.9145 1632.32 77.8799 1645.25 80.836C1664.12 85.1458 1687.44 92.2169 1715.2 102.049C1730.29 107.398 1748.55 109.364 1770 107.945V152.759V391H0L1.97714 138.06L2.82454 110.145C2.82454 109.755 2.61529 109.387 2.19684 109.04C1.86209 108.78 1.7051 108.483 1.72602 108.147C2.06078 99.1699 2.03999 90.3609 1.66339 81.7197C1.64247 81.6439 1.56922 81.6006 1.44368 81.5899C1.19019 81.566 0.993095 81.5466 0.85241 81.5315C0.609926 81.5055 0.535017 81.4925 0.627698 81.4925C0.730292 81.4925 0.805182 81.5054 0.85241 81.5315C0.993095 81.5466 1.19019 81.566 1.44368 81.5899C1.56922 81.6006 1.64247 81.6439 1.66339 81.7197C2.03999 90.3609 2.06078 99.1699 1.72602 108.147C1.7051 108.483 1.86209 108.78 2.19684 109.04C2.61529 109.387 2.82454 109.755 2.82454 110.145Z" fill="url(#paint0_linear_128_5218)"/>
<defs>
<linearGradient id="paint0_linear_128_5218" x1="971.108" y1="-80.0263" x2="883.718" y2="374.207" gradientUnits="userSpaceOnUse">
<stop stop-color="#15ACC5"/>
<stop offset="0.997039" stop-color="#6FBCA8" stop-opacity="0.3"/>
</linearGradient>
</defs>
</svg>
