<svg width="1480" height="194" viewBox="0 0 1480 194" fill="none" xmlns="http://www.w3.org/2000/svg">
<path d="M2.36176 39.5485L1.6532 121.473L4.95962 6.85678C27.0284 8.54665 49.2021 11.0164 70.2213 12.43C105.349 14.7914 139.437 16.4651 172.483 17.4508C189.662 17.9708 207.06 17.8137 224.676 16.9796C244.655 16.0372 265.228 14.9052 286.395 13.5837C305.814 12.3704 323.186 11.6609 338.511 11.4551C356.372 11.2059 374.522 10.9947 392.961 10.8214C429.856 10.4531 463.34 12.1429 493.412 15.8908C508.806 17.8082 525.462 20.2834 543.375 23.3164C560.641 26.2573 578.538 31.1643 594.387 36.1851C619.238 44.033 642.776 55.7645 661.697 69.3644C668.021 73.9139 676.129 76.9848 685.156 78.9997C702.37 82.8234 721.368 85.1199 742.152 85.889C781.233 87.3513 819.1 87.0535 855.749 84.9953C887.589 83.2188 921.833 80.5812 958.484 77.0824C970.607 75.9288 984.725 75.36 995.221 74.2063C1031.54 70.2201 1066.69 66.223 1100.66 62.215C1109.42 61.1751 1126.49 58.7867 1151.85 55.0496C1175.96 51.4966 1198.9 49.2597 1220.68 48.339C1239.98 47.5266 1260.61 47.7702 1282.56 49.0702C1303.47 50.3051 1323.17 52.8994 1341.68 56.8531C1353.15 59.3066 1364.88 61.2727 1375.69 64.2298C1391.47 68.5411 1410.96 75.6146 1434.18 85.4502C1446.79 90.8014 1462.07 92.7675 1480 91.3484V136.177V194H0L1.6532 121.473L2.36176 39.5485C2.36176 39.1586 2.1868 38.7902 1.83691 38.4437C1.557 38.1837 1.42574 37.8858 1.44323 37.55C1.72313 28.57 1.70575 19.758 1.39085 11.1138C1.37336 11.038 1.31212 10.9947 1.20715 10.9839C0.995195 10.9601 0.8304 10.9406 0.712766 10.9255C0.509998 10.8995 0.447356 10.8865 0.524855 10.8865C0.610644 10.8865 0.673276 10.8995 0.712766 10.9255C0.8304 10.9406 0.995195 10.9601 1.20715 10.9839C1.31212 10.9947 1.37336 11.038 1.39085 11.1138C1.70575 19.758 1.72313 28.57 1.44323 37.55C1.42574 37.8858 1.557 38.1837 1.83691 38.4437C2.1868 38.7902 2.36176 39.1586 2.36176 39.5485Z" fill="url(#paint0_linear_121_5149)"/>
<defs>
<linearGradient id="paint0_linear_121_5149" x1="1067" y1="-65.5001" x2="13.4999" y2="350.5" gradientUnits="userSpaceOnUse">
<stop stop-color="#15ACC5"/>
<stop offset="0.618577" stop-color="#0C8DC2" stop-opacity="0.53"/>
<stop offset="1" stop-color="#0C8DC2" stop-opacity="0.18"/>
</linearGradient>
</defs>
</svg>
