<svg width="1480" height="194" viewBox="0 0 1480 194" fill="none" xmlns="http://www.w3.org/2000/svg">
<path d="M2.36176 39.5485L1.6532 121.473L4.95962 6.85678C27.0284 8.54665 23.3348 24.517 47 22.5366C55.6972 21.8087 61.0686 10.7486 85.8722 25.0334C89.3409 27.0311 93.6586 27.0448 97.0166 24.8662C118.153 11.1535 133.893 3.85776 153 11.1138C170.5 17.7595 174.412 35.2986 193 37.55C209.5 39.5485 253.675 16.0967 269 15.8908C286.861 15.6417 290.5 23.3164 300.5 23.3164C310.5 23.3164 316.884 37.55 329.5 37.55C342.5 37.55 360.737 56 369.868 56C379 56 401.5 23.3164 449.5 23.3164C464.894 25.2338 466.087 36.5155 484 39.5485C501.267 42.4894 508.651 47.9792 524.5 53C529.436 54.5588 539.271 56.6895 545 52.3164C550 48.5 565.769 36.9946 574.5 38C584.458 39.1466 585.533 48.9183 595 53L597 53.8521C612.5 52.3164 617.5 63 625 73C634.98 80.1848 645.842 69.3644 661.697 69.3644C670.5 69.3644 678.5 72.5 685.156 78.9997C701 85.889 719.5 89 742.152 85.889C755.283 84.0856 767.435 76.4638 779 76.4234C806.145 76.3288 813.049 86.4386 838.749 84.9953C854.578 84.1065 873.983 78.1869 879.393 89.2504C880.335 91.1763 881.929 92.8684 884.061 93.0888C920.495 96.8554 936.156 79.2139 958.484 77.0824C970.607 75.9288 984.725 75.36 995.221 74.2063C1013.01 72.2534 1030.53 78.2978 1047.76 76.3397C1065.7 74.3009 1076.17 57.0939 1093.5 55.0496C1105.71 53.0017 1115 59.8395 1137.5 59.8395C1157.5 59.8395 1177.61 54.8998 1190.5 53C1214.61 49.447 1225.8 49.6375 1248.5 49.0702C1261.8 48.7377 1287.55 61.7001 1309.5 63C1330.41 64.2349 1336.36 58.9328 1353.5 60.5C1362.25 61.3002 1378.65 56.5166 1393.93 60.5C1411.83 65.1651 1410.96 75.6146 1434.18 85.4502C1446.79 90.8014 1462.07 92.7675 1480 91.3484V136.177V194H0L1.6532 121.473L2.36176 39.5485C2.36176 39.1586 2.1868 38.7902 1.83691 38.4437C1.557 38.1837 1.42574 37.8858 1.44323 37.55C1.72313 28.57 1.70575 19.758 1.39085 11.1138C1.37336 11.038 1.31212 10.9947 1.20715 10.9839C0.995195 10.9601 0.8304 10.9406 0.712766 10.9255C0.509998 10.8995 0.447356 10.8865 0.524855 10.8865C0.610644 10.8865 0.673276 10.8995 0.712766 10.9255C0.8304 10.9406 0.995195 10.9601 1.20715 10.9839C1.31212 10.9947 1.37336 11.038 1.39085 11.1138C1.70575 19.758 1.72313 28.57 1.44323 37.55C1.42574 37.8858 1.557 38.1837 1.83691 38.4437C2.1868 38.7902 2.36176 39.1586 2.36176 39.5485Z" fill="url(#paint0_linear_139_1607)"/>
<defs>
<linearGradient id="paint0_linear_139_1607" x1="1067" y1="-65.5001" x2="13.4999" y2="350.5" gradientUnits="userSpaceOnUse">
<stop stop-color="#3BB6DD"/>
<stop offset="0.618577" stop-color="#0C8DC2" stop-opacity="0.53"/>
<stop offset="1" stop-color="#0C8DC2" stop-opacity="0.18"/>
</linearGradient>
</defs>
</svg>
