<svg width="1440" height="201" viewBox="0 0 1440 201" fill="none" xmlns="http://www.w3.org/2000/svg">
<path d="M454.513 158.926C449.824 158.681 442.422 157.238 432.31 154.6C425.539 152.828 418.701 151.464 411.794 150.506C404.597 149.511 397.708 148.081 391.125 146.219C385.31 144.563 379.401 143.192 373.398 142.106C363.166 140.231 353.002 138.459 342.906 136.79C333.663 135.251 324.369 134.268 315.023 133.841C306.07 133.44 296.622 132.619 286.68 131.377C266.011 128.804 241.633 128.215 213.546 129.612C204.302 130.065 195.784 131.339 187.991 133.434C182.977 134.773 177.093 134.501 171.696 135.84C143.813 142.707 116.203 151.451 88.8665 162.069C77.432 166.531 64.8976 169.519 54.3329 175.281C49.7028 177.803 44.0239 178.346 39.0101 180.868C31.7794 184.516 24.6851 188.053 17.7272 191.48C80.7989 173.018 155.324 161.616 177.912 158.926C200.5 156.237 232 150.506 232 150.506C232 150.506 257.23 147.132 273.5 146.549C308.182 145.305 362 154.6 362 154.6L454.513 158.926Z" fill="#0A5177"/>
<path d="M0.676147 144.957C0.473778 144.671 0.364811 144.352 0.358154 144.027L0 200.987C1.86737 192.451 10.5646 195.011 17.7272 191.48C24.6851 188.053 31.7794 184.516 39.0101 180.868C44.0239 178.346 49.7028 177.803 54.3329 175.281C64.8976 169.519 77.432 166.531 88.8665 162.069C116.203 151.451 143.813 142.707 171.696 135.84C177.093 134.501 182.977 134.773 187.991 133.434C195.784 131.339 204.302 130.065 213.546 129.612C241.633 128.215 266.011 128.804 286.68 131.377C296.622 132.619 306.07 133.44 315.023 133.841C324.369 134.268 333.663 135.251 342.906 136.79C353.002 138.459 363.166 140.231 373.398 142.106C379.401 143.192 385.31 144.563 391.125 146.219C397.708 148.081 404.597 149.511 411.794 150.506C418.701 151.464 425.539 152.828 432.31 154.6C442.422 157.238 449.824 158.681 454.513 158.926C485.466 160.569 516.802 162.166 548.521 163.718C556.554 164.119 575.773 163.783 606.18 162.709C611.296 162.535 616.847 163.66 621.707 162.845C627.164 161.927 632.374 161.351 637.337 161.119C649.743 160.556 654.028 160.789 666 161.119C674.069 164.611 775.591 167.781 835.5 158.926C858.492 155.528 871.871 155.342 895 157.626C923.76 160.466 944.449 157.406 966.736 175.805C971.573 179.798 977.031 187.406 984.5 188.182C990.5 191 1014.29 189.502 1032.02 188.182C1046.96 187.07 1061.74 185.913 1076.37 184.71C1080.04 184.399 1083.68 183.791 1087.3 182.886C1092.34 181.644 1097.43 182.382 1102.65 181.567C1116.48 179.394 1168.95 185.653 1168.95 185.653C1181.17 186.709 1185.94 181.819 1198.11 183.346C1211.65 185.045 1220.23 180.921 1232.59 177.739C1238.95 176.11 1245.83 175.172 1253.21 174.926C1260.05 174.694 1266.83 174.118 1273.55 173.2C1314.85 167.573 1356.6 161.954 1398.79 156.341C1417.89 153.793 1431.63 151.342 1440 148.988V103.867C1427.24 105.691 1414.66 108.252 1402.24 111.55C1395.87 113.244 1389.82 114.583 1384.11 115.566C1375.74 116.982 1368.5 119.194 1359.63 120.435C1347.42 122.156 1337.67 124.031 1330.39 126.062C1327.81 126.786 1325.22 127.355 1322.61 127.769C1318.81 128.39 1315.47 129.036 1312.58 129.709C1289.42 135.154 1268.29 139.299 1249.17 142.145C1242.57 143.128 1235.92 144.408 1229.22 145.986C1219.36 148.301 1209.62 149.11 1200 148.411C1199.09 148.348 1198.18 148.519 1197.4 148.896C1189.41 152.893 1181.66 150.254 1172.84 150.409C1157.44 150.72 1142.18 149.866 1127.05 147.849C1115.84 146.368 1108.84 141.991 1100.37 136.697L1099.81 136.344C1095.97 133.938 1092.69 131.151 1089.96 127.982C1078.5 114.693 1079.41 87.9943 1085.11 73.3663C1086.55 69.6931 1088.52 66.5566 1091.05 63.9569C1100.22 54.4636 1109.14 44.1231 1117.81 32.9354C1122.82 26.475 1120.59 18.8117 1114.15 13.5735C1104.68 5.89091 1094.04 2.68984 1079.72 2.53464C1073.36 2.4829 1067.28 2.14655 1061.48 1.52573C1052.35 0.568629 1043.3 0.665731 1034.31 1.81683C1027.85 2.63166 1021.24 3.28479 1014.49 3.77628C1001.7 4.68164 988.616 6.18189 975.246 8.27716C962.66 10.2431 950.578 11.8728 938.998 13.1661C921.109 15.1709 908.89 16.7035 902.342 17.7641C873.368 22.459 843.916 28.2922 813.987 35.2635C803.107 37.7985 792.866 40.0166 783.265 41.9178C773.22 43.9226 762.928 45.9079 752.389 47.8739C737.578 50.6481 722.613 55.9252 707.726 59.4367C692.923 62.9159 677.882 66.1944 662.602 69.2727C653.768 71.0575 644.866 73.1529 635.896 75.5585C615.252 81.0877 594.353 86.9661 573.224 90.3224C564.97 91.6417 556.63 93.0126 548.206 94.4353C539.782 95.871 531.8 96.6599 524.263 96.8022C500.49 97.2549 476.675 111.007 453.26 110.502C449.269 110.425 445.492 109.998 441.928 109.222C433.895 107.495 425.812 107.398 418.036 104.973C412.74 103.324 407.445 102.781 402.15 100.86C384.679 94.4776 366.031 89.6661 346.513 89.1229C341.218 88.9677 336.357 86.9501 331.267 87.1635C321.7 87.5515 312.516 87.3963 302.949 88.5603C289.238 90.2287 275.118 91.2958 261.714 93.3135C233.524 97.517 205.59 102.264 177.912 107.553C168.532 109.351 158.769 111.485 148.622 113.956C135.73 117.099 122.351 119.524 109.254 122.841C96.7709 125.997 84.8846 129.075 73.5951 132.076C69.1441 133.253 64.4883 134.197 59.6281 134.908C52.7981 135.917 46.3006 138.012 39.4706 138.866C27.3966 140.341 15.5614 142.688 3.96497 145.909C3.56246 146.02 3.13066 146.057 2.70557 146.016C2.28048 145.975 1.87439 145.858 1.52136 145.673C1.16833 145.489 0.878517 145.244 0.676147 144.957Z" fill="#0A5177"/>
</svg>
