<svg width="1440" height="244" viewBox="0 0 1440 244" fill="none" xmlns="http://www.w3.org/2000/svg">
<path d="M1440 17.1137C1431.63 19.4677 1417.89 21.9186 1398.79 24.4665C1356.6 30.0798 1314.85 35.6995 1273.55 41.3257C1266.83 42.2439 1260.05 42.8195 1253.21 43.0523C1245.83 43.2981 1238.95 44.2357 1232.59 45.8653C1220.23 49.047 1211.65 53.1706 1198.11 51.4722C1185.94 49.9447 1181.17 54.8347 1168.95 53.7792C1168.95 53.7792 1116.48 47.5199 1102.65 49.6928C1097.43 50.5076 1092.34 49.7704 1087.3 51.0121C1083.68 51.9174 1080.04 52.5253 1076.37 52.8357C1061.74 54.0385 1046.96 55.196 1032.02 56.3083C1014.29 57.6276 990.5 59.126 984.5 56.3083C977.031 55.5323 971.573 47.9237 966.736 43.9307C944.449 25.5324 923.76 28.5924 895 25.7524C871.871 23.4684 858.492 23.6541 835.5 27.0523C775.591 35.9069 674.069 32.7368 666 29.2446C654.028 28.9148 649.743 28.682 637.337 29.2446C632.374 29.4774 627.164 30.0529 621.707 30.9712C616.847 31.786 611.296 30.6608 606.18 30.8354C575.773 31.9089 556.554 32.2452 548.521 31.8442C516.802 30.2922 485.466 28.6949 454.513 27.0523L362 22.7259C362 22.7259 308.182 13.4315 273.5 14.6747C257.23 15.258 232 18.6324 232 18.6324C232 18.6324 200.5 24.3625 177.912 27.0523C155.324 29.7421 80.7989 41.1443 17.7272 59.6065C10.5646 63.1374 1.86737 60.5765 0 69.1128L3.60681 243.5L1440 231.5V17.1137Z" fill="#073F5D"/>
</svg>
