<svg width="1438" height="154" viewBox="0 0 1438 154" fill="none" xmlns="http://www.w3.org/2000/svg">
<path d="M0.0764564 154L-3.74591e-05 27.919C11.282 27.0914 22.2322 26.4812 32.8506 26.0884C40.9335 25.7798 53.0578 24.4681 69.2237 22.1535C76.694 21.0874 85.6106 20.3019 95.9738 19.7969C105.792 19.32 114.837 18.3031 123.107 16.746C155.03 10.7702 173.919 7.69106 179.772 7.5087C198.167 6.96162 215.38 5.8534 231.409 4.1841C247.158 2.54286 263.8 1.95368 279.575 2.33243C290.398 2.58493 302.343 2.96368 313.14 1.68015C323.886 0.396615 332.999 2.92167 343.234 2.54293C348.135 2.36057 353.112 2.67609 358.166 3.48969C377.225 6.60384 395.552 9.12891 413.147 11.0647C436.068 13.5687 456.82 21.8169 478.976 26.5092C500.213 30.991 518.386 39.5759 537.99 47.4034C545.885 50.5596 553.075 52.7902 559.558 54.0947C567.437 55.6799 575.035 56.8582 582.352 57.6297C592.647 58.7239 603.648 58.829 615.356 57.9452C631.13 56.7459 647.237 57.5665 663.904 56.4934C685.413 55.0906 706.676 53.4774 727.691 51.6538C733.12 51.1909 738.471 50.6999 743.746 50.1809C766.242 48.0206 787.318 45.5027 806.972 42.6271C827.417 39.6181 848.016 38.4818 868.257 35.1783C891.961 31.2926 914.798 28.4381 936.766 26.6145C947.87 25.7097 958.258 22.6797 969.234 22.3851C976.381 22.1957 982.481 19.7759 989.756 19.6287C995.448 19.5235 1000.04 17.3561 1005.76 17.1878C1009.55 17.0896 1013.49 16.6618 1017.55 15.9043C1028.89 13.7721 1040.29 12.1238 1051.76 10.9595C1072.91 8.78525 1091.19 6.81437 1106.61 5.04688C1120.88 3.40563 1135.63 3.08994 1150.15 1.9537C1159.73 1.21725 1169.17 1.61702 1178.49 0.754316C1185.14 0.137097 1192.1 -0.101302 1199.37 0.0389751C1218.73 0.431751 1237.58 1.61006 1255.9 3.57394C1263.08 4.33144 1269.28 7.25622 1276.1 7.52976C1284.14 7.84539 1290.98 11.0857 1298.84 12.3482C1303.23 13.0426 1306.75 15.6938 1311.12 16.4092C1317.68 17.5034 1323.04 19.4392 1327.2 22.2167C1329.9 24.0403 1332.93 25.394 1336.28 26.2777C1342.83 28.0031 1348.83 31.1103 1354.28 35.5991C1366.79 45.9305 1388.1 49.2552 1406.14 49.7602C1409.22 49.8584 1412.13 49.3533 1414.85 48.2451C1419.44 46.3654 1424.58 46.2321 1430.27 47.8453C1431.76 48.2662 1434.34 47.9716 1438 46.9616V110.044C1431.5 111.363 1425.02 112.66 1418.58 113.937C1407.55 116.104 1399.15 120.67 1387.23 118.566C1383.61 117.921 1380.13 117.661 1376.79 117.787C1363.43 118.25 1349.66 117.514 1335.47 115.578C1328.73 114.652 1323.52 111.727 1317.34 109.644C1309.53 107.056 1305.76 101.838 1298.84 98.4082C1290.01 94.0316 1284.62 87.1931 1276.02 83.0269C1265.76 78.047 1255.82 74.1051 1246.21 71.2014C1236.43 68.2556 1228.49 72.485 1222.47 62.4692C1221.07 60.1687 1219.84 60.2248 1218.77 62.6376C1215.04 70.9701 1201.64 64.0474 1194.9 64.2157C1179.79 64.5734 1164.86 63.7107 1150.18 64.8469C1132.26 66.2497 1114.55 67.6104 1097.04 68.929C1086.21 69.7286 1076.59 73.2215 1065.92 74.5681C1052.29 76.2515 1038.71 79.1762 1025.31 81.4697C1017.14 82.8584 1010.64 85.4467 1001.91 85.5308C992.181 85.636 982.532 88.161 973.088 89.0237C941.778 91.8853 916.023 95.0907 895.824 98.6397C876.476 102.048 856.856 105.071 836.964 107.709C823.469 109.504 812.8 111.054 804.955 112.359C794.83 114.042 784.204 115.627 773.075 117.114C768.148 117.766 763.503 115.62 758.449 116.735C755.309 117.43 752.655 119.008 749.541 119.387C742.309 120.298 734.932 121.084 727.41 121.743C724.577 121.975 722.612 121.491 720.008 120.881C719.174 120.684 718.358 120.719 717.558 120.986C709.237 123.742 702.702 122.753 693.973 123.595C675.646 125.32 656.519 127.495 636.593 130.118C631.505 130.791 621.72 131.072 607.239 130.959C603.444 130.917 599.803 131.324 596.314 132.18C592.247 133.176 588.597 133.618 585.364 133.506C569.726 132.987 555.142 133.043 541.614 133.674C535.412 133.947 530 132.453 523.874 132.958C519.416 133.323 516.353 131.759 514.685 128.266C514.056 126.934 513.239 126.856 512.235 128.035C511.707 128.638 511.325 129.304 511.086 130.034C510.897 130.595 510.477 131.085 509.898 131.416C509.319 131.746 508.619 131.898 507.921 131.843C500.553 131.268 493.066 130.616 485.459 129.886C478.848 129.255 473.718 125.952 467.26 125.699C458.556 125.362 451.486 121.87 442.935 121.154C436.06 120.565 429.509 119.422 423.28 117.724C410.084 114.126 396.301 112.99 382.721 111.307C379.318 110.872 375.762 110.9 372.052 111.391C364.216 112.401 357.12 110.234 349.437 112.927C346.374 114.007 343.345 113.951 340.35 112.758C336.878 111.391 334.658 113.095 331.314 113.179C325.699 113.327 320.262 113.137 314.672 114.105C307.857 115.326 301.654 114.484 294.711 115.936C279.907 118.994 265.392 121.357 251.166 123.027C248.511 123.335 245.976 123.855 243.559 124.584C239.22 125.867 232.89 128.456 228.678 125.552C227.912 125.033 227.232 125.103 226.636 125.762C219.081 134.305 212.444 130.412 202.489 130.981C190.527 131.654 179.9 132.755 170.609 134.284C161.811 135.715 152.971 136.669 144.088 137.146C138.422 137.44 134.644 139.334 129.309 139.797C116.981 140.87 103.223 144.11 90.9199 143.058C87.8569 142.792 84.879 142.904 81.9861 143.395C75.9367 144.426 71.4698 145.184 65.6501 147.33C60.6217 149.203 56.8951 148.15 51.9943 147.056C50.2076 146.664 48.4549 146.692 46.7362 147.14C42.1162 148.298 37.4705 147.814 32.9526 149.287C28.4943 150.746 24.087 151.187 19.7307 150.612C16.5316 150.192 13.2474 150.346 9.87811 151.075C6.74705 151.763 3.47979 152.738 0.0764564 154Z" fill="#1596B7"/>
</svg>
