<svg width="1440" height="228" viewBox="0 0 1440 228" fill="none" xmlns="http://www.w3.org/2000/svg">
<mask id="mask0_116_62307" style="mask-type:alpha" maskUnits="userSpaceOnUse" x="0" y="0" width="1440" height="228">
<path d="M0 92.7003C3.40824 91.3968 6.68033 90.3901 9.81592 89.6805C13.1901 88.9273 16.4789 88.7681 19.6826 89.2026C24.0452 89.7964 28.4589 89.3402 32.9237 87.8339C37.4481 86.3132 42.1005 86.8128 46.7272 85.6179C48.4483 85.1545 50.2036 85.1255 51.9929 85.5311C56.9008 86.6608 60.6327 87.747 65.6683 85.8135C71.4769 83.6049 75.9401 82.8207 81.9675 81.7616L82.028 81.7509C84.925 81.244 87.9072 81.1281 90.9746 81.4033C103.295 82.4895 117.073 79.1439 129.42 78.0359C134.762 77.558 138.545 75.6027 144.22 75.2986C153.115 74.8062 161.968 73.8213 170.779 72.344C180.083 70.7653 190.725 69.6284 202.705 68.9332C218.806 68.4777 227.766 68.8145 244.339 62.3289C246.759 61.5757 248.793 61.0397 251.452 60.7211C265.698 58.9976 280.234 56.5572 295.06 53.3998C302.013 51.9008 308.225 52.7698 315.05 51.5098C320.648 50.5104 326.092 50.7059 331.716 50.5539C335.064 50.467 337.288 48.7072 340.765 50.1193C343.764 51.3504 346.797 51.4084 349.865 50.2932C357.559 47.5124 364.665 49.7501 372.513 48.7073C376.228 48.2004 379.789 48.1715 383.198 48.6204C396.796 50.3584 410.6 51.5316 423.815 55.2465C430.052 56.999 436.613 58.1794 443.498 58.7877C452.061 59.5263 459.142 63.1326 467.858 63.4802C474.325 63.7409 479.463 67.1517 486.084 67.8034C493.701 68.5566 501.199 69.2301 508.578 69.8239L524.554 70.9753C530.689 70.4539 536.108 71.9963 542.32 71.7139C555.868 71.0622 570.472 71.0043 586.133 71.5402C589.371 71.6561 593.026 71.1998 597.099 70.1715C600.592 69.288 604.239 68.868 608.039 68.9115C622.541 69.0273 632.34 68.7376 637.435 68.0424C657.391 65.334 676.545 63.0892 694.898 61.3077C703.641 60.4387 710.184 61.4598 718.517 58.6138C719.318 58.3387 720.136 58.3025 720.971 58.5052L721.165 58.552C723.677 59.1596 725.617 59.6289 728.384 59.3959C735.916 58.7152 743.304 57.9041 750.546 56.9627C753.665 56.5717 756.323 54.9423 759.467 54.2254C764.529 53.0739 769.181 55.2899 774.114 54.6164C785.259 53.0812 795.902 51.4447 806.041 49.7067C813.897 48.3597 824.582 46.7593 838.096 44.9054C858.017 42.1826 877.665 39.0614 897.041 35.542C917.269 31.8777 943.061 28.5683 974.417 25.6137C983.875 24.723 993.537 22.116 1003.28 22.0074C1012.02 21.9205 1018.54 19.2482 1026.72 17.8144C1040.14 15.4464 1053.74 12.4267 1067.39 10.6887C1078.07 9.29823 1087.71 5.69191 1098.55 4.86636C1116.08 3.50493 1133.82 2.10005 1151.76 0.651718C1166.46 -0.521428 1181.42 0.369324 1196.55 0C1196.55 0 1238.14 4.17108 1247.93 7.21257C1257.56 10.2106 1267.51 14.2806 1277.78 19.4221C1286.4 23.7237 1291.79 30.7843 1300.64 35.303C1307.56 38.8442 1311.35 44.2319 1319.17 46.9041C1325.36 49.0548 1330.57 52.0746 1337.32 53.0305C1351.53 55.0292 1365.33 55.7896 1378.7 55.3116C1382.04 55.1813 1385.53 55.4492 1389.16 56.1154C1401.09 58.2879 1409.5 53.5737 1420.55 51.3361C1427.01 50.0181 1433.49 48.6783 1440 47.3169V174.864C1427.25 176.906 1414.68 179.774 1402.27 183.467C1395.9 185.364 1389.86 186.863 1384.15 187.964C1375.79 189.55 1368.55 192.027 1359.68 193.417C1347.48 195.343 1337.74 197.444 1330.47 199.717C1327.89 200.529 1325.3 201.166 1322.7 201.629C1318.9 202.324 1315.56 203.049 1312.68 203.802C1289.53 209.899 1268.41 214.541 1249.31 217.727C1242.71 218.828 1236.07 220.262 1229.37 222.029C1219.52 224.621 1209.79 225.527 1200.18 224.745C1199.27 224.674 1198.35 224.865 1197.57 225.288C1189.6 229.763 1181.85 226.808 1173.03 226.982C1157.64 227.33 1134.17 226.7 1119.05 224.44C1107.85 222.783 1100.85 217.881 1092.39 211.953L1091.83 211.558C1088 208.864 1084.72 205.743 1081.99 202.194C1070.54 187.313 1058.23 172.844 1063.93 156.463C1065.36 152.35 1068.06 150.294 1069.86 145.927C1072.5 139.5 1073.66 137.423 1060.53 128.145C1050.1 120.768 1045.08 120.391 1034.38 118.016C1011.76 112.989 988.723 121.904 975.363 124.25C962.786 126.452 950.713 128.276 939.142 129.725C921.265 131.97 917.138 122.217 902.511 119.874C868.34 114.399 844.128 119.663 814.221 127.469C803.349 130.308 793.115 132.792 783.521 134.921C773.484 137.166 763.2 139.389 752.668 141.591C737.868 144.697 722.914 136.607 708.037 140.539C693.245 144.435 678.215 148.106 662.946 151.553C654.119 153.552 645.223 155.898 636.26 158.592C615.631 164.784 594.747 171.366 573.633 175.125C565.385 176.602 557.052 178.137 548.634 179.731C540.215 181.338 532.24 182.222 524.708 182.381C500.952 182.888 477.376 182.859 453.978 182.294C449.991 182.207 446.216 181.729 442.654 180.86C434.628 178.927 426.55 178.818 418.779 176.102C413.488 174.256 408.197 173.648 402.906 171.497C385.447 164.349 366.812 158.961 347.309 158.353C342.017 158.179 337.161 155.92 332.074 156.159C322.514 156.594 313.337 156.42 303.777 157.723C290.076 159.592 275.966 160.786 262.571 163.046C234.402 167.753 206.489 173.068 178.831 178.992C169.458 181.005 159.702 183.395 149.562 186.161C136.679 189.681 123.31 192.396 110.223 196.111C97.7486 199.645 85.8709 203.092 74.5896 206.452C70.1418 207.77 65.4896 208.827 60.6328 209.624C53.8078 210.754 47.3151 213.1 40.4901 214.056C28.4249 215.707 16.5983 218.336 5.01025 221.942C4.60804 222.067 4.17661 222.108 3.75183 222.062C3.32705 222.016 2.92113 221.885 2.56836 221.679C2.21559 221.472 1.9261 221.197 1.72388 220.877C1.52165 220.556 1.41266 220.199 1.40601 219.835L0 92.7003Z" fill="#1774A3"/>
</mask>
<g mask="url(#mask0_116_62307)">
<path d="M1570.54 -106.641C1566.38 -106.214 1563.69 -105.654 1562.46 -104.961C1560.97 -104.161 1561.42 -103.441 1563.82 -102.801C1565.05 -102.481 1566.38 -102.267 1567.82 -102.161C1544.14 -101.121 1517.02 -81.5208 1537.42 -57.3608C1540.89 -51.6008 1545.98 -46.3207 1552.7 -41.5207C1561.66 -23.654 1563.26 -4.72089 1557.5 15.2791C1556.52 18.7187 1554.49 21.7714 1551.7 24.0196C1548.91 26.2678 1545.49 27.6017 1541.9 27.8392C1490.49 31.2525 1438.44 32.1859 1385.74 30.6392C1357.82 29.8392 1329.26 31.0392 1301.58 36.8792C1270.46 43.4392 1230.94 39.6793 1198.86 39.6793C1194.76 39.6259 1188.33 38.6393 1179.58 36.7193C1174.57 35.5993 1168.04 34.5059 1159.98 33.4393C1143.56 31.3593 1127.13 29.3858 1110.7 27.5191C1095.93 25.8658 1079.48 25.7325 1061.34 27.1192C1034.04 29.2525 1008.25 29.8125 983.983 28.7991C979.236 28.6391 973.796 27.5193 967.663 25.4393C1101.9 21.5993 1236.25 21.0126 1370.7 23.6793C1394.62 24.1593 1415.58 17.8393 1437.98 11.6793C1440.6 10.9859 1442.28 9.33263 1443.02 6.7193C1447.18 -7.0407 1449.05 -19.8941 1448.62 -31.8408C1448.3 -39.4141 1446.36 -46.6674 1442.78 -53.6008C1441.02 -56.9608 1438.25 -58.694 1434.46 -58.8007L1037.42 -73.1208C1034.49 -73.2274 1031.74 -73.9741 1029.18 -75.3608C1023.64 -78.2408 1016.57 -79.8941 1007.98 -80.3207C960.196 -82.6141 919.529 -83.094 885.983 -81.7607C826.569 -79.414 767.236 -76.0007 707.983 -71.5207C687.023 -69.9207 659.343 -69.5207 624.943 -70.3207C607.343 -70.7207 592.543 -65.3608 575.503 -63.8408C555.396 -62.0808 517.449 -63.5208 461.663 -68.1608C452.436 -68.9075 442.009 -66.6675 430.383 -61.4408C427.769 -60.3208 427.343 -58.6408 429.103 -56.4008L435.902 -47.5207C437.502 -45.4407 439.609 -44.2673 442.223 -44.0007C446.543 -43.5207 450.249 -41.8141 453.342 -38.8808C455.124 -37.2042 457.33 -36.0183 459.743 -35.4408L518.223 -21.4408C519.716 -21.0675 520.703 -20.1609 521.183 -18.7209C521.609 -17.6009 522.543 -17.0142 523.983 -16.9609C551.823 -16.6409 579.663 -16.4541 607.503 -16.4008C636.143 -16.3208 672.382 -21.6007 705.342 -20.0007C726.409 -18.934 740.169 -18.4008 746.623 -18.4008C761.743 -18.4008 790.382 -21.7608 803.422 -14.8808C808.062 -12.4275 812.543 -9.46733 816.863 -6.00066C818.889 -4.34733 821.049 -4.18735 823.343 -5.52068C831.716 -10.3207 840.463 -11.814 849.583 -10.0007C861.849 -7.54733 873.716 -5.0409 885.182 -2.4809C900.062 0.879104 911.476 8.21244 919.422 19.5191C920.122 20.496 921.031 21.3048 922.083 21.886C923.135 22.4673 924.303 22.8065 925.503 22.8792L967.663 25.4393L917.662 24.0792C897.129 21.8925 877.929 21.0658 860.062 21.5992C849.129 21.9192 848.223 19.0393 857.343 12.9593C858.623 12.106 858.116 7.19932 855.823 -1.76068C855.324 -3.71485 854.289 -5.49048 852.833 -6.88641C851.377 -8.28233 849.56 -9.24281 847.587 -9.65911C845.614 -10.0754 843.563 -9.93086 841.668 -9.24187C839.772 -8.55289 838.108 -7.34697 836.863 -5.76067C834.303 -2.56067 833.982 3.73254 835.902 13.1192C836.148 14.2988 836.136 15.5173 835.869 16.6907C835.602 17.8642 835.086 18.9646 834.355 19.9156C833.625 20.8665 832.698 21.6454 831.639 22.1985C830.581 22.7517 829.415 23.0658 828.223 23.1192C789.823 25.1459 751.769 25.8125 714.062 25.1192C711.503 25.0659 692.943 26.4259 658.383 29.1993C632.143 31.2793 607.609 27.8125 584.783 18.7991C568.356 12.3458 554.569 8.71925 543.423 7.91925C531.263 7.01258 517.556 7.706 502.303 9.99933C485.823 12.4527 473.476 13.6793 465.263 13.6793C452.676 13.6793 440.463 13.5725 428.623 13.3592C426.063 13.3059 423.876 12.3725 422.062 10.5591C419.342 7.89248 416.223 6.0792 412.703 5.1192C376.009 -5.17413 342.036 -10.9607 310.783 -12.2407C300.863 -12.6673 291.049 -13.5207 281.342 -14.8007C271.209 -16.134 261.476 -17.5474 252.143 -19.0407C241.049 -20.854 232.383 -26.5341 226.143 -36.0807C225.097 -37.6808 224.485 -39.5247 224.366 -41.4323C224.247 -43.3399 224.625 -45.2458 225.464 -46.9633C226.303 -48.6808 227.573 -50.151 229.15 -51.2304C230.727 -52.3098 232.558 -52.9611 234.463 -53.1208C238.943 -53.4941 243.769 -54.7742 248.943 -56.9609C254.436 -59.2542 259.263 -60.5608 263.423 -60.8808C296.969 -63.6541 330.463 -65.0142 363.903 -64.9609C374.249 -64.9609 386.196 -65.9475 399.743 -67.9208C411.529 -69.6808 423.529 -70.8007 435.743 -71.2807L557.183 -70.6408C559.796 -70.6408 562.222 -71.3342 564.462 -72.7209C566.169 -73.7342 568.009 -74.2674 569.983 -74.3207C620.063 -75.3341 670.143 -76.1075 720.223 -76.6408C720.649 -76.6408 720.916 -76.8808 721.022 -77.3608C721.022 -77.5741 721.076 -77.7873 721.182 -78.0007C721.502 -78.7473 722.249 -79.174 723.422 -79.2807C770.676 -83.3874 817.956 -85.0674 865.263 -84.3207C878.169 -84.1607 890.596 -84.7742 902.542 -86.1608C915.289 -87.6542 928.036 -89.0942 940.782 -90.4809C942.436 -90.6409 943.263 -91.5475 943.263 -93.2009C943.263 -93.8409 942.969 -94.454 942.383 -95.0407C941.743 -95.7874 940.622 -96.2941 939.022 -96.5607C924.622 -98.7474 911.609 -99.3341 899.983 -98.3207C894.543 -97.8407 889.849 -98.5874 885.902 -100.561C883.556 -101.787 881.049 -102.401 878.383 -102.401C766.223 -102.667 654.089 -100.827 541.983 -96.8808C538.996 -96.7741 525.636 -96.9074 501.902 -97.2807C474.462 -97.6807 446.063 -90.8809 421.903 -90.4809C408.409 -90.2676 394.943 -90.2408 381.503 -90.4008C371.743 -90.4808 363.263 -96.7207 352.223 -94.2407C341.076 -91.8407 335.369 -90.6141 335.103 -90.5607C290.356 -87.4674 245.342 -87.3074 200.062 -90.0807C257.716 -95.0407 315.263 -98.4541 372.703 -100.321C390.409 -100.907 407.156 -102.347 422.943 -104.641C439.903 -107.094 456.623 -109.547 473.103 -112.001C495.129 -108.961 509.423 -107.521 515.983 -107.681C627.289 -110.241 738.596 -110.401 849.902 -108.161C851.129 -108.107 864.462 -107.307 889.902 -105.761C900.569 -105.121 913.929 -104.721 929.983 -104.561C935.796 -104.507 940.489 -105.067 944.062 -106.241C945.982 -106.934 947.983 -107.387 950.062 -107.601L1121.9 -127.281C1193.82 -134.321 1263.26 -127.761 1329.9 -128.321C1340.2 -128.374 1353.5 -127.441 1369.82 -125.521C1387.66 -123.441 1406.14 -124.321 1423.34 -122.081C1444.46 -119.414 1465.64 -117.628 1486.86 -116.721C1500.52 -116.081 1514.46 -114.587 1528.7 -112.241C1542.36 -109.947 1556.3 -108.081 1570.54 -106.641Z" fill="#48BCE2"/>
<path d="M1567.83 -102.161C1569.32 -101.894 1570.84 -101.654 1572.39 -101.441C1596.65 -78.6145 1627.88 -66.3745 1666.07 -64.7212C1669.05 -64.5612 1671.61 -63.4143 1673.75 -61.281C1676.73 -58.1343 1680.36 -56.561 1684.63 -56.561C1686.62 -56.6128 1688.61 -56.1154 1690.39 -55.1211L1724.71 -35.761C1726.95 -34.5343 1728.15 -32.6411 1728.31 -30.0811C1728.63 -26.2411 1727.32 -23.0944 1724.39 -20.6411C1722.79 -19.2544 1718.81 -18.1343 1712.47 -17.281C1702.87 -15.9477 1700.36 -9.49448 1704.95 2.07886C1706.16 5.18352 1708.11 7.94431 1710.63 10.1199C1713.16 12.2954 1716.18 13.8195 1719.43 14.5588C1731.8 17.4388 1742.49 21.5456 1751.51 26.8789C1758.07 30.7722 1764.33 36.7722 1770.31 44.8789C1774.84 51.0656 1781.27 55.0923 1789.59 56.959C1791.67 57.3857 1793.11 58.1056 1793.91 59.1189C1795.13 60.6656 1795.67 62.3723 1795.51 64.239C1795.24 67.119 1793.69 68.6656 1790.87 68.8789C1776.31 70.1589 1763.51 72.5324 1752.47 75.999C1749.48 76.9057 1746.97 78.5855 1744.95 81.0388C1737.43 90.1588 1722.87 93.7589 1713.35 85.3589C1710.36 82.6922 1707.64 79.6788 1705.19 76.3188C1703.43 73.8655 1701.05 72.4257 1698.07 71.999L1615.99 59.8389C1613.85 59.5189 1611.8 59.8123 1609.83 60.719C1608.65 61.2523 1607.37 61.5188 1605.99 61.5188C1558.2 61.5721 1510.36 61.6256 1462.47 61.679C1460.97 61.679 1459.75 61.0923 1458.79 59.9189C1458.2 59.1723 1457.53 58.5856 1456.79 58.1589C1454.87 57.1456 1453.19 57.4656 1451.75 59.1189C1449.45 61.8389 1447.08 62.9855 1444.63 62.5588C1443.08 59.0388 1443.61 55.3588 1446.23 51.5188C1447.02 50.3735 1447.48 49.033 1447.56 47.6433C1447.64 46.2536 1447.34 44.8683 1446.69 43.6384C1446.04 42.4086 1445.06 41.3816 1443.86 40.6692C1442.67 39.9568 1441.3 39.5865 1439.91 39.5989L1418.63 39.759C1417.03 39.7669 1415.45 40.1011 1413.98 40.7415C1412.51 41.3818 1411.19 42.3146 1410.1 43.4829C1409.01 44.6512 1408.16 46.0303 1407.62 47.5359C1407.08 49.0414 1406.85 50.6419 1406.95 52.239C1407.64 63.3323 1411.91 68.7989 1419.75 68.6389C1366.68 62.0789 1312.79 60.4789 1258.07 63.8389C1245.59 64.6389 1234.79 69.6789 1223.03 69.5989C1175.29 69.3855 1127.61 68.1857 1079.99 65.999C1079.24 65.9457 1078.63 65.759 1078.15 65.439C1077.45 64.959 1076.84 64.4255 1076.31 63.8389C1075.4 62.8789 1074.28 62.3722 1072.95 62.3188L1008.47 59.199C1005.32 59.0923 1002.47 58.1589 999.907 56.3989C983.374 45.2523 968.12 41.439 954.147 44.959C936.014 49.5457 920.254 51.4122 906.867 50.5588C889.48 49.4388 870.414 47.0121 849.667 43.2788C844.814 42.4255 841.08 40.2122 838.467 36.6389C837.721 35.6265 837.266 34.4289 837.153 33.1763C837.04 31.9236 837.272 30.6638 837.824 29.5339C838.377 28.4041 839.229 27.4475 840.287 26.7678C841.345 26.0881 842.57 25.7115 843.827 25.679L917.667 24.0789L967.667 25.439C973.8 27.519 979.24 28.6388 983.987 28.7988C1008.25 29.8122 1034.04 29.2522 1061.35 27.1189C1079.48 25.7322 1095.93 25.8655 1110.71 27.5188C1127.13 29.3855 1143.56 31.359 1159.99 33.439C1168.04 34.5056 1174.57 35.599 1179.59 36.719C1188.33 38.639 1194.76 39.6256 1198.87 39.679C1230.95 39.679 1270.47 43.4389 1301.59 36.8789C1329.27 31.0389 1357.83 29.8389 1385.75 30.6389C1438.44 32.1856 1490.49 31.2522 1541.91 27.8389C1545.49 27.6014 1548.91 26.2675 1551.71 24.0193C1554.5 21.7711 1556.52 18.7184 1557.51 15.2788C1563.27 -4.72119 1561.67 -23.6543 1552.71 -41.521C1575.27 -31.761 1584.23 -46.7212 1592.55 -64.9612C1594.41 -69.1745 1594.41 -73.121 1592.55 -76.801C1582.31 -97.0144 1567.48 -103.014 1548.07 -94.801C1545.34 -93.6691 1543.14 -91.5247 1541.91 -88.801C1537.43 -78.8277 1535.93 -68.3478 1537.43 -57.3611C1517.03 -81.5211 1544.15 -101.121 1567.83 -102.161ZM1615.41 39.1814C1614.21 37.0373 1612.01 35.5644 1609.31 35.0867C1606.62 34.609 1603.64 35.1656 1601.03 36.634C1599.74 37.3612 1598.58 38.2905 1597.62 39.3687C1596.65 40.4468 1595.91 41.6528 1595.42 42.9177C1594.93 44.1827 1594.71 45.4818 1594.76 46.741C1594.82 48.0002 1595.16 49.1949 1595.76 50.2566C1596.97 52.4007 1599.16 53.8734 1601.86 54.3511C1604.56 54.8288 1607.54 54.2722 1610.14 52.8037C1611.43 52.0765 1612.59 51.1475 1613.56 50.0693C1614.52 48.9912 1615.27 47.7852 1615.76 46.5203C1616.25 45.2553 1616.47 43.956 1616.41 42.6968C1616.35 41.4376 1616.01 40.2431 1615.41 39.1814Z" fill="#6FBFE5"/>
<path d="M1572.4 -101.438C1581.52 -99.5718 1592.11 -96.6652 1604.16 -92.7185C1625.92 -85.6252 1647.44 -77.8117 1668.72 -69.2783C1672.35 -67.8383 1680.03 -65.9183 1691.76 -63.5183C1698.43 -62.1316 1706.16 -59.6517 1714.96 -56.0784C1739.97 -45.8917 1770.05 -40.0517 1805.2 -38.5583C1809.84 -39.8383 1816.67 -38.585 1825.68 -34.7983C1820.13 -33.7317 1815.81 -30.6918 1812.72 -25.6785C1811.28 -23.3851 1809.39 -21.5451 1807.04 -20.1584C1795.84 -13.4384 1783.81 -12.1584 1770.96 -16.3184C1756.67 -20.905 1746.27 -17.7584 1739.76 -6.87842C1738.94 -5.49931 1738.56 -3.90019 1738.67 -2.29761C1738.78 -0.695028 1739.39 0.833589 1740.4 2.08154C1754.05 19.2549 1771.2 27.8683 1791.84 27.9216C1813.76 27.9216 1832.19 33.7349 1847.12 45.3616C1849.16 46.9823 1851.63 47.9823 1854.24 48.2417C1877.97 50.8017 1902.05 53.2017 1926.48 55.4417C1937.25 56.4017 1947.44 58.3217 1957.04 61.2017C1966.16 63.8683 1976.32 65.2817 1987.52 65.4417C1998.88 65.655 2010.16 66.6416 2021.36 68.4016C2035.07 70.5349 2046.27 71.6016 2054.96 71.6016C2097.47 71.4949 2140.48 70.9882 2184 70.0815C2187.63 69.9749 2191.65 69.7882 2196.08 69.5215C2228.4 67.6548 2260.21 66.1882 2291.52 65.1216C2305.44 64.6416 2319.09 64.7216 2332.48 65.3616C2346.19 65.9482 2359.87 65.7083 2373.52 64.6416C2404.4 62.2416 2424.8 61.1215 2434.72 61.2815C2457.23 61.7082 2479.79 62.2948 2502.4 63.0415L2633.36 71.2815L2751.68 81.0415L2839.12 98.6416C2839.49 98.6949 2839.68 98.9082 2839.68 99.2815V102.002C2839.68 103.495 2838.93 104.162 2837.44 104.002C2804.75 99.895 2771.79 99.5216 2738.56 102.882V109.922L2736.8 125.362C2736.48 128.188 2737.76 129.682 2740.64 129.842C2791.73 132.295 2842.69 136.535 2893.52 142.562C2904.88 143.842 2912.24 139.682 2924.16 144.322C2942.4 151.362 2961.28 155.708 2980.8 157.362C2983.41 157.575 2985.79 158.455 2987.92 160.002C2990.48 161.868 2993.25 163.362 2996.24 164.482C2997.31 164.908 2997.68 165.655 2997.36 166.722V166.802C2996.99 167.868 2996.27 168.268 2995.2 168.002C2976.11 163.308 2956.88 160.481 2937.52 159.521C2937.44 159.5 2937.37 159.509 2937.32 159.546C2937.26 159.583 2937.23 159.646 2937.23 159.72C2937.23 159.794 2937.26 159.874 2937.32 159.942C2937.37 160.01 2937.44 160.06 2937.52 160.082C2939.76 160.242 2942.08 161.095 2944.48 162.642C2947.09 164.295 2947.2 166.108 2944.8 168.082C2941.87 170.482 2937.6 172.002 2932 172.642C2907.47 173.015 2890.13 172.375 2880 170.722C2852.69 166.188 2825.33 162.135 2797.92 158.562C2792.37 157.815 2783.09 158.135 2770.08 159.521C2756.16 161.015 2742.45 158.562 2728.96 152.162C2719.41 147.575 2708.45 144.748 2696.08 143.682C2676.45 141.922 2663.09 142.348 2656 144.962C2638.77 151.255 2625.41 154.055 2615.92 153.362C2584.88 150.962 2553.71 148.962 2522.4 147.362C2459.04 141.975 2395.71 141.095 2332.4 144.722C2312.56 145.042 2292.83 145.175 2273.2 145.122C2264.08 145.042 2254.72 149.042 2244.32 147.842C2232.37 146.455 2225.36 145.788 2223.28 145.842C2205.57 146.268 2187.89 145.842 2170.24 144.562C2149.39 143.015 2131.81 142.348 2117.52 142.562C2079.01 143.148 2040.51 142.508 2002 140.642C1988.24 139.948 1975.33 137.735 1963.28 134.002C1947.6 129.148 1934.96 126.348 1925.36 125.602C1904.35 124.055 1883.23 122.055 1862 119.602C1849.84 118.268 1833.57 119.122 1813.2 122.162C1810.91 122.482 1810.64 123.388 1812.4 124.882L1820.16 131.362C1821.07 132.055 1822.08 132.348 1823.2 132.242C1833.49 130.855 1843.41 130.828 1852.96 132.162C1872.85 134.988 1883.01 136.402 1883.44 136.402C1914.96 138.588 1946.13 142.802 1976.96 149.042C2001.97 154.162 2021.47 157.655 2035.44 159.521C2055.07 162.135 2074.69 164.801 2094.32 167.521L2165.76 171.281C2170.72 173.415 2175.73 174.108 2180.8 173.362L2390.64 187.521L2373.12 189.682C2372.29 189.776 2371.51 190.139 2370.9 190.717C2370.3 191.295 2369.89 192.055 2369.76 192.882L2369.44 195.362C2369.07 197.442 2369.95 198.562 2372.08 198.722L2385.68 199.521C2392.67 199.948 2392.67 200.428 2385.68 200.962C2375.23 201.762 2363.89 201.895 2351.68 201.362C2315.57 196.082 2279.31 192.482 2242.88 190.562C2234.77 190.135 2223.55 189.121 2209.2 187.521C2181.2 184.321 2145.6 185.602 2124.72 183.922C2092.16 181.282 2060.24 179.042 2027.6 173.442C1998.8 168.482 1978.48 166.535 1966.64 167.602C1912.72 172.322 1861.76 166.242 1808.72 167.842C1798.4 168.162 1792.16 164.002 1783.2 159.762C1776.8 156.775 1770.35 155.068 1763.84 154.642C1713.92 151.708 1663.97 150.775 1614 151.842C1605.76 152.002 1599.68 147.601 1592.48 147.281C1543.31 145.148 1494.16 143.042 1445.04 140.962C1442.05 140.855 1440.11 140.108 1439.2 138.722C1438.24 137.175 1438.53 135.922 1440.08 134.962L1445.12 131.682C1447.15 130.348 1447.47 128.722 1446.08 126.802C1443.68 123.388 1440.99 121.575 1438 121.362C1421.73 120.242 1405.76 117.628 1390.08 113.521C1382.13 111.441 1368.77 110.802 1350 111.602C1347.39 111.708 1344.88 111.202 1342.48 110.082C1334 105.922 1327.84 103.788 1324 103.682C1280 102.242 1236 101.655 1192 101.922C1176.59 102.028 1155.33 100.855 1128.24 98.4016C1104.08 96.2683 1082.67 96.295 1064 98.4817C1037.87 101.468 1017.23 102.615 1002.08 101.922C1002.51 100.962 1003.33 99.895 1004.56 98.7217C1006.64 96.695 1006.35 95.1482 1003.68 94.0815L995.92 90.9617C993.68 90.0017 991.333 89.5215 988.88 89.5215C958.587 88.9348 928.293 89.2015 898 90.3215C888.96 90.6415 879.28 87.6816 871.2 87.6016C760.107 87.2816 649.04 87.3883 538 87.9216C507.653 88.0816 476.72 85.3882 445.2 79.8416C442.32 79.3616 435.307 77.1216 424.16 73.1216C409.04 67.7616 391.2 73.0416 378.96 64.6416C367.6 56.9083 360.72 52.7215 358.32 52.0815C345.92 48.8015 330.72 49.7615 320.08 48.0815C293.2 43.8682 265.573 41.0416 237.2 39.6016C209.413 38.7482 181.387 37.2549 153.12 35.1216C92.2667 30.5349 31.36 26.7749 -29.6 23.8416C-39.76 23.3616 -47.2 18.4816 -57.68 18.1616C-59.0552 18.1126 -60.406 17.7576 -61.6364 17.1216C-62.8669 16.4856 -63.947 15.5844 -64.8 14.4817C-69.0667 8.82836 -73.4667 6.02821 -78 6.08154V-84.2383C-48.08 -80.2383 -28.08 -78.6117 -18 -79.3584C32.4 -83.3051 83.0667 -84.9584 134 -84.3184C120.987 -78.825 120.907 -71.1185 133.76 -61.1985C136.506 -59.126 139.864 -58.0534 143.28 -58.1584C169.84 -58.8518 198.853 -59.7052 230.32 -60.7185C230.587 -60.7185 232.96 -60.4518 237.44 -59.9185C240.267 -59.6518 242.667 -60.3717 244.64 -62.0784C245.737 -63.0187 247.097 -63.6292 248.56 -63.8384C310.693 -71.0917 373.093 -73.5717 435.76 -71.2783C423.547 -70.7983 411.547 -69.6785 399.76 -67.9185C386.213 -65.9451 374.267 -64.9585 363.92 -64.9585C330.48 -65.0118 296.987 -63.6518 263.44 -60.8784C259.28 -60.5584 254.453 -59.2518 248.96 -56.9585C243.787 -54.7718 238.96 -53.4917 234.48 -53.1184C232.575 -52.9588 230.745 -52.3074 229.168 -51.228C227.59 -50.1487 226.32 -48.6784 225.482 -46.9609C224.643 -45.2435 224.265 -43.3375 224.384 -41.4299C224.502 -39.5224 225.115 -37.6784 226.16 -36.0784C232.4 -26.5317 241.067 -20.8517 252.16 -19.0383C261.493 -17.545 271.227 -16.1317 281.36 -14.7983C291.067 -13.5183 300.88 -12.6649 310.8 -12.2383C342.053 -10.9583 376.027 -5.17175 412.72 5.12158C416.24 6.08158 419.36 7.89486 422.08 10.5615C423.893 12.3749 426.08 13.3082 428.64 13.3616C440.48 13.5749 452.693 13.6816 465.28 13.6816C473.493 13.6816 485.84 12.455 502.32 10.0017C517.573 7.70838 531.28 7.01496 543.44 7.92163C554.587 8.72163 568.373 12.3482 584.8 18.8015C607.627 27.8148 632.16 31.2817 658.4 29.2017C692.96 26.4283 711.52 25.0682 714.08 25.1216C751.787 25.8149 789.84 25.1482 828.24 23.1216C829.432 23.0682 830.598 22.7541 831.657 22.2009C832.716 21.6478 833.642 20.8689 834.373 19.918C835.103 18.967 835.62 17.8665 835.887 16.6931C836.154 15.5197 836.165 14.3011 835.92 13.1216C834 3.73492 834.32 -2.5583 836.88 -5.7583C838.125 -7.3446 839.79 -8.55051 841.685 -9.2395C843.581 -9.92849 845.631 -10.073 847.604 -9.65674C849.578 -9.24043 851.395 -8.27996 852.851 -6.88403C854.306 -5.4881 855.342 -3.71247 855.84 -1.7583C858.133 7.2017 858.64 12.1083 857.36 12.9617C848.24 19.0417 849.147 21.9216 860.08 21.6016C877.947 21.0682 897.147 21.8949 917.68 24.0815L843.84 25.6816C842.583 25.7142 841.358 26.0908 840.3 26.7705C839.242 27.4502 838.39 28.4068 837.837 29.5366C837.285 30.6665 837.053 31.9263 837.166 33.179C837.279 34.4316 837.734 35.6292 838.48 36.6416C841.093 40.2149 844.827 42.4282 849.68 43.2815C870.427 47.0148 889.493 49.4415 906.88 50.5615C920.267 51.4149 936.027 49.5483 954.16 44.9617C968.133 41.4417 983.387 45.2549 999.92 56.4016C1002.48 58.1616 1005.33 59.095 1008.48 59.2017L1072.96 62.3215C1074.29 62.3749 1075.41 62.8816 1076.32 63.8416C1076.85 64.4282 1077.47 64.9617 1078.16 65.4417C1078.64 65.7617 1079.25 65.9484 1080 66.0017C1127.63 68.1884 1175.31 69.3882 1223.04 69.6016C1234.8 69.6816 1245.6 64.6416 1258.08 63.8416C1312.8 60.4816 1366.69 62.0816 1419.76 68.6416C1432.67 73.8149 1440.96 71.7882 1444.64 62.5615C1447.09 62.9882 1449.47 61.8416 1451.76 59.1216C1453.2 57.4682 1454.88 57.1483 1456.8 58.1616C1457.55 58.5883 1458.21 59.175 1458.8 59.9216C1459.76 61.095 1460.99 61.6816 1462.48 61.6816C1510.37 61.6283 1558.21 61.5748 1606 61.5215C1607.39 61.5215 1608.67 61.255 1609.84 60.7217C1611.81 59.815 1613.87 59.5216 1616 59.8416L1698.08 72.0017C1701.07 72.4284 1703.44 73.8682 1705.2 76.3215C1707.65 79.6815 1710.37 82.6949 1713.36 85.3616C1722.88 93.7616 1737.44 90.1615 1744.96 81.0415C1746.99 78.5882 1749.49 76.9084 1752.48 76.0017C1763.52 72.535 1776.32 70.1616 1790.88 68.8816C1793.71 68.6683 1795.25 67.1217 1795.52 64.2417C1795.68 62.375 1795.15 60.6682 1793.92 59.1216C1793.12 58.1082 1791.68 57.3883 1789.6 56.9617C1781.28 55.095 1774.85 51.0683 1770.32 44.8816C1764.35 36.7749 1758.08 30.7749 1751.52 26.8816C1742.51 21.5483 1731.81 17.4415 1719.44 14.5615C1716.19 13.8222 1713.17 12.2981 1710.65 10.1226C1708.12 7.947 1706.17 5.18621 1704.96 2.08154C1700.37 -9.49179 1702.88 -15.945 1712.48 -17.2783C1718.83 -18.1317 1722.8 -19.2518 1724.4 -20.6384C1727.33 -23.0918 1728.64 -26.2384 1728.32 -30.0784C1728.16 -32.6384 1726.96 -34.5316 1724.72 -35.7583L1690.4 -55.1184C1688.62 -56.1127 1686.63 -56.6101 1684.64 -56.5583C1680.37 -56.5583 1676.75 -58.1317 1673.76 -61.2783C1671.63 -63.4117 1669.07 -64.5585 1666.08 -64.7185C1627.89 -66.3718 1596.67 -78.6118 1572.4 -101.438Z" fill="#57B3DF"/>
<path d="M967.685 25.4382L925.525 22.8781C924.325 22.8055 923.157 22.4662 922.105 21.885C921.054 21.3037 920.145 20.495 919.445 19.518C911.498 8.21136 900.085 0.878028 885.205 -2.48197C873.738 -5.04197 861.872 -7.54841 849.605 -10.0017C840.485 -11.8151 831.738 -10.3218 823.365 -5.52177C821.072 -4.18843 818.912 -4.34841 816.885 -6.00175C812.565 -9.46841 808.085 -12.4285 803.445 -14.8819C790.405 -21.7619 761.765 -18.4019 746.645 -18.4019C740.192 -18.4019 726.432 -18.9351 705.365 -20.0017C672.405 -21.6017 636.165 -16.3219 607.525 -16.4019C579.685 -16.4552 551.845 -16.642 524.005 -16.962C522.565 -17.0153 521.632 -17.602 521.205 -18.722C520.725 -20.162 519.738 -21.0686 518.245 -21.4419L459.765 -35.4419C457.352 -36.0194 455.146 -37.2053 453.365 -38.8819C450.272 -41.8152 446.565 -43.5217 442.245 -44.0017C439.632 -44.2684 437.525 -45.4418 435.925 -47.5218L429.125 -56.4019C427.365 -58.6419 427.792 -60.3219 430.405 -61.4419C442.032 -66.6686 452.458 -68.9086 461.685 -68.1619C517.472 -63.5219 555.418 -62.0818 575.525 -63.8418C592.565 -65.3618 607.365 -70.7218 624.965 -70.3218C659.365 -69.5218 687.045 -69.9218 708.005 -71.5218C767.258 -76.0018 826.592 -79.4151 886.005 -81.7618C919.552 -83.0951 960.218 -82.6152 1008 -80.3218C1016.59 -79.8952 1023.66 -78.2419 1029.2 -75.3619C1031.76 -73.9752 1034.51 -73.2285 1037.44 -73.1219L1434.48 -58.8018C1438.27 -58.6951 1441.04 -56.9618 1442.8 -53.6018C1446.38 -46.6685 1448.32 -39.4152 1448.64 -31.8418C1449.07 -19.8952 1447.2 -7.04178 1443.04 6.71822C1442.3 9.33156 1440.62 10.9849 1438 11.6782C1415.6 17.8382 1394.64 24.1582 1370.72 23.6782C1236.27 21.0115 1101.93 21.5982 967.685 25.4382Z" fill="#1CAEDD"/>
<path d="M-78 6.07985C-73.4667 6.02652 -69.0667 8.82666 -64.8 14.48C-63.947 15.5827 -62.8669 16.4839 -61.6364 17.1199C-60.406 17.7559 -59.0552 18.111 -57.68 18.1599C-47.2 18.4799 -39.76 23.3599 -29.6 23.8399C31.36 26.7732 92.2667 30.5332 153.12 35.1199C181.387 37.2532 209.413 38.7465 237.2 39.5999C249.04 44.7732 261.307 47.4399 274 47.5999C291.493 47.7599 308.347 48.7732 324.56 50.6399C325.308 50.7421 326.021 51.0115 326.645 51.4275C327.269 51.8435 327.787 52.3949 328.16 53.0398C329.067 54.5865 329.173 56.1865 328.48 57.8399C327.787 59.4932 326.507 60.3466 324.64 60.3999C303.947 60.8799 283.28 60.24 262.64 58.48C259.227 58.16 254.827 58.2665 249.44 58.7998C244.96 59.2265 240.453 59.2265 235.92 58.7998C218.96 57.1198 206.8 58.6399 191.44 59.3599C179.76 59.9199 170.64 54.1599 158.4 53.3599C146.933 52.6665 138.693 51.9199 133.68 51.1199C119.013 48.7732 104.48 49.3332 90.08 52.7998C75.3067 56.3732 63.68 57.92 55.2 57.44C23.44 55.68 -4.64 50.88 -37.92 53.44C-51.4133 54.5066 -64.7733 54.4799 -78 53.3599V6.07985Z" fill="#8FD0E8"/>
<path d="M237.2 39.5996C265.573 41.0396 293.2 43.8663 320.08 48.0796C330.72 49.7596 345.92 48.7996 358.32 52.0796C360.72 52.7196 367.6 56.9063 378.96 64.6396C391.2 73.0396 409.04 67.7596 424.16 73.1196C435.307 77.1196 442.32 79.3596 445.2 79.8396C476.72 85.3863 507.653 88.0797 538 87.9197C649.04 87.3863 760.107 87.2796 871.2 87.5996C879.28 87.6796 888.96 90.6396 898 90.3196C928.293 89.1996 958.587 88.9329 988.88 89.5195C991.333 89.5195 993.68 89.9997 995.92 90.9597L1003.68 94.0796C1006.35 95.1463 1006.64 96.6931 1004.56 98.7197C1003.33 99.8931 1002.51 100.96 1002.08 101.92C930.32 107.6 859.92 102.56 767.92 103.68C731.28 104.106 691.333 105.626 648.08 108.24C571.387 112.88 510.64 113.626 465.84 110.48C440.4 108.72 416.027 107.333 392.72 106.32C360.72 104.986 336.347 103.466 319.6 101.76C288.187 98.4531 256.747 96.0796 225.28 94.6396C196.587 93.3596 165.253 90.613 131.28 86.3997C63.0133 77.973 -6.48 75.8663 -77.2 80.0796C-74.5333 80.8263 -74.8 80.3196 -78 78.5596V53.3596C-64.7733 54.4796 -51.4133 54.5064 -37.92 53.4397C-4.64 50.8797 23.44 55.6797 55.2 57.4397C63.68 57.9197 75.3067 56.3729 90.08 52.7996C104.48 49.3329 119.013 48.773 133.68 51.1196C138.693 51.9196 146.933 52.6663 158.4 53.3596C170.64 54.1596 179.76 59.9196 191.44 59.3596C206.8 58.6396 218.96 57.1196 235.92 58.7996C240.453 59.2262 244.96 59.2262 249.44 58.7996C254.827 58.2662 259.227 58.1597 262.64 58.4797C283.28 60.2397 303.947 60.8797 324.64 60.3997C326.507 60.3463 327.787 59.4929 328.48 57.8396C329.173 56.1863 329.067 54.5862 328.16 53.0396C327.787 52.3946 327.269 51.8432 326.645 51.4272C326.021 51.0113 325.308 50.7419 324.56 50.6396C308.347 48.773 291.493 47.7596 274 47.5996C261.307 47.4396 249.04 44.7729 237.2 39.5996Z" fill="#77CDE8"/>
<path d="M1444.64 62.5599C1440.96 71.7865 1432.67 73.8133 1419.76 68.6399C1411.92 68.7999 1407.65 63.3334 1406.96 52.24C1406.86 50.6429 1407.09 49.0425 1407.63 47.5369C1408.17 46.0314 1409.02 44.6522 1410.11 43.4839C1411.2 42.3157 1412.53 41.3828 1413.99 40.7425C1415.46 40.1022 1417.04 39.7679 1418.64 39.7601L1439.92 39.5999C1441.31 39.5876 1442.68 39.9579 1443.88 40.6702C1445.07 41.3826 1446.05 42.4096 1446.7 43.6395C1447.35 44.8693 1447.66 46.2547 1447.57 47.6443C1447.49 49.034 1447.03 50.3746 1446.24 51.5198C1443.63 55.3598 1443.09 59.0399 1444.64 62.5599Z" fill="#A9D4EA"/>
<path d="M1002.08 101.919C1017.23 102.613 1037.87 101.466 1064 98.4795C1082.67 96.2928 1104.08 96.266 1128.24 98.3994C1155.33 100.853 1176.59 102.026 1192 101.919C1236 101.653 1280 102.239 1324 103.679C1327.84 103.786 1334 105.919 1342.48 110.079C1344.88 111.199 1347.39 111.706 1350 111.599C1368.77 110.799 1382.13 111.439 1390.08 113.519C1405.76 117.626 1421.73 120.239 1438 121.359C1440.99 121.573 1443.68 123.386 1446.08 126.799C1447.47 128.719 1447.15 130.346 1445.12 131.679L1440.08 134.959C1438.53 135.919 1438.24 137.173 1439.2 138.719C1440.11 140.106 1442.05 140.853 1445.04 140.959C1494.16 143.039 1543.31 145.146 1592.48 147.279C1599.68 147.599 1605.76 151.999 1614 151.839C1663.97 150.773 1713.92 151.706 1763.84 154.639C1770.35 155.066 1776.8 156.773 1783.2 159.759C1792.16 163.999 1798.4 168.159 1808.72 167.839C1861.76 166.239 1912.72 172.319 1966.64 167.599C1978.48 166.533 1998.8 168.479 2027.6 173.439C2060.24 179.039 2092.16 181.279 2124.72 183.919C2145.6 185.599 2181.2 184.319 2209.2 187.519C2223.55 189.119 2234.77 190.133 2242.88 190.559C2279.31 192.479 2315.57 196.079 2351.68 201.359C2367.79 202.106 2383.89 202.453 2400 202.399C2431.31 202.239 2462.64 201.973 2494 201.599C2510.27 201.386 2526.4 199.573 2542.4 196.159L2601.6 203.119L2645.92 214.479L2609.28 208.159L2549.52 210.559C2547.33 210.666 2546.32 211.786 2546.48 213.919L2546.64 216.319C2546.69 217.119 2547.15 217.546 2548 217.599L2603.52 219.279L2607.36 221.039C2609.65 222.106 2610.24 223.759 2609.12 225.999C2607.89 228.506 2608.43 230.239 2610.72 231.199C2619.41 234.879 2628.29 237.146 2637.36 237.999C2641.57 238.426 2642.32 237.039 2639.6 233.839L2635.44 228.959L2651.84 234.559C2654.35 235.359 2656.91 235.679 2659.52 235.519C2670.35 234.773 2681.17 234.079 2692 233.439C2696.96 233.173 2701.07 233.786 2704.32 235.279C2706.45 236.239 2708.69 236.639 2711.04 236.479L2729.76 235.279C2732.8 235.066 2735.47 235.973 2737.76 237.999C2749.07 247.919 2762.56 251.279 2778.24 248.079C2778.77 248.506 2779.31 248.933 2779.84 249.359C2787.52 254.693 2795.28 258.959 2803.12 262.159C2803.6 262.319 2803.84 262.719 2803.84 263.359C2803.84 263.626 2803.87 263.893 2803.92 264.159C2804.08 265.173 2804.83 265.813 2806.16 266.079C2833.79 270.879 2864.48 274.933 2898.24 278.239C2907.79 279.146 2917.2 280.853 2926.48 283.359C2926.85 283.413 2927.04 283.626 2927.04 283.999C2927.04 284.053 2927.04 284.106 2927.04 284.159C2927.04 284.426 2926.88 284.533 2926.56 284.479C2913.55 283.359 2900.72 283.866 2888.08 285.999C2874.48 283.919 2860.8 282.079 2847.04 280.479C2842.61 279.999 2836.75 278.826 2829.44 276.959C2823.52 275.519 2817.55 274.533 2811.52 273.999C2796.27 272.773 2787.31 271.946 2784.64 271.519C2766.4 268.746 2748.05 266.933 2729.6 266.079C2709.12 265.066 2690.88 263.146 2674.88 260.319C2643.36 254.666 2619.07 251.653 2602 251.279C2587.28 250.959 2574.19 249.413 2562.72 246.639C2549.17 243.333 2537.71 241.786 2528.32 241.999C2496.21 242.799 2464.88 239.599 2434.32 232.399C2421.2 228.559 2408.05 226.373 2394.88 225.839C2390.29 225.679 2384.56 224.559 2377.68 222.479C2372.4 220.879 2366.51 219.946 2360 219.679C2335.68 218.719 2314.08 219.599 2295.2 222.319C2242.51 224.666 2195.44 224.293 2154 221.199C2112.35 218.159 2075.25 216.959 2042.72 217.599C2028.96 217.919 2015.04 212.239 2000 213.039C1979.04 214.213 1958.48 213.546 1938.32 211.039C1909.84 207.466 1889.49 205.626 1877.28 205.519C1810.83 204.773 1741.87 203.786 1670.4 202.559C1639.28 201.999 1605.36 204.159 1572.96 204.319C1559.31 202.773 1550.32 202.879 1546 204.639C1536.56 208.479 1526.64 211.413 1516.24 213.439C1488.29 216.479 1460.35 216.879 1432.4 214.639C1390.75 211.279 1363.68 209.519 1351.2 209.359C1300.05 208.666 1248.96 206.186 1197.92 201.919C1167.25 199.413 1138.27 199.306 1110.96 201.599C1070.16 205.066 1041.33 206.666 1024.48 206.399C884.907 204.533 742.107 206.853 596.08 213.359C558.533 215.066 521.227 213.386 484.16 208.319C462.933 205.386 442.213 203.653 422 203.119C415.36 202.959 411.84 200.399 405.84 200.079C389.307 199.119 372.853 197.493 356.48 195.199C340 192.853 323.6 191.786 307.28 191.999C275.653 192.426 246.56 190.319 220 185.679C146.133 172.826 77.4667 165.519 14 163.759C-16.6667 162.959 -47.3333 162.186 -78 161.439V139.839L-77.2 80.0793C-6.48 75.866 63.0133 77.9727 131.28 86.3994C165.253 90.6127 196.587 93.3594 225.28 94.6394C256.747 96.0794 288.187 98.4528 319.6 101.759C336.347 103.466 360.72 104.986 392.72 106.319C416.027 107.333 440.4 108.719 465.84 110.479C510.64 113.626 571.387 112.879 648.08 108.239C691.333 105.626 731.28 104.106 767.92 103.679C859.92 102.559 930.32 107.599 1002.08 101.919Z" fill="#1CAEDD"/>
<path d="M1516.24 213.439C1526.32 212.959 1535.28 214.399 1545.04 211.919C1554.21 209.626 1563.52 207.093 1572.96 204.319C1605.36 204.159 1639.28 201.999 1670.4 202.559C1741.87 203.786 1810.83 204.773 1877.28 205.519C1889.49 205.626 1909.84 207.466 1938.32 211.039C1958.48 213.546 1979.04 214.213 2000 213.039C2015.04 212.239 2028.96 217.919 2042.72 217.599C2075.25 216.959 2112.35 218.159 2154 221.199C2195.44 224.293 2242.51 224.666 2295.2 222.319C2297.97 222.586 2299.52 223.599 2299.84 225.359C2287.84 223.919 2276.85 223.466 2266.88 224C2258.19 224.48 2257.57 226.959 2265.04 231.439C2266.48 232.239 2269.55 233.653 2274.24 235.679C2216.91 236.213 2159.49 235.919 2102 234.799C2077.76 234.319 2050.56 234.639 2026.48 236.639C2006.48 238.293 1986.11 238.479 1965.36 237.199C1944.61 235.973 1923.84 235.866 1903.04 236.879C1855.92 239.199 1809.92 235.919 1763.36 240.559C1762.18 240.685 1761.04 241.056 1760.02 241.649C1759 242.243 1758.12 243.044 1757.44 244C1755.31 246.986 1754.64 250.133 1755.44 253.439C1755.6 254.186 1756.05 254.666 1756.8 254.879C1757.71 255.093 1758.4 255.439 1758.88 255.919C1759.2 256.239 1759.31 256.639 1759.2 257.119C1757.92 262.239 1758.8 265.919 1761.84 268.159C1763.97 269.759 1765.04 271.893 1765.04 274.559L1765.12 278.159C1765.17 280.613 1763.97 281.839 1761.52 281.839C1752.99 281.839 1745.12 279.519 1737.92 274.879C1736.69 274.079 1735.33 273.679 1733.84 273.679H1730.08C1727.94 273.679 1725.83 273.068 1724 271.919C1708.43 262.586 1691.31 257.226 1672.64 255.839C1657.84 254.799 1646.32 247.519 1630.96 247.839C1614.75 248.106 1598.51 247.679 1582.24 246.559L1415.36 236.479C1414.35 236.426 1413.44 236.133 1412.64 235.599C1412.05 235.173 1411.44 234.799 1410.8 234.479C1409.79 233.946 1408.59 233.679 1407.2 233.679C1320 233.519 1237.44 228.479 1146 237.599C1133.89 238.826 1107.87 237.946 1067.92 234.959C1037.89 232.773 1013.92 231.919 996 232.399C973.92 233.039 949.92 234.426 924 236.559C904.96 238.106 881.947 239.039 854.96 239.359C846 239.466 834.773 240.719 821.28 243.119C809.76 245.146 798.427 246.186 787.28 246.24C757.413 245.653 728.293 246.533 699.92 248.879C638.48 253.999 576.933 255.626 515.28 253.76C514.32 253.76 513.547 253.573 512.96 253.199C512.16 252.719 511.44 252.106 510.8 251.359C509.36 249.706 507.52 248.773 505.28 248.559C427.733 242.053 371.307 235.653 336 229.359C317.44 226.106 302.027 223.813 289.76 222.479C282.453 221.733 274.88 220.079 267.04 217.519C242.8 209.679 211.52 214.319 183.84 213.359C172.587 212.986 157.52 209.813 138.64 203.839C125.84 199.786 110.267 197.146 91.92 195.919C23.0667 191.119 -33.5733 188.159 -78 187.039V161.439C-47.3333 162.186 -16.6667 162.96 14 163.76C77.4667 165.52 146.133 172.826 220 185.679C246.56 190.319 275.653 192.426 307.28 192C323.6 191.786 340 192.853 356.48 195.199C372.853 197.493 389.307 199.119 405.84 200.079C411.84 200.399 415.36 202.959 422 203.119C442.213 203.653 462.933 205.386 484.16 208.319C521.227 213.386 558.533 215.066 596.08 213.359C742.107 206.853 884.907 204.533 1024.48 206.399C1041.33 206.666 1070.16 205.066 1110.96 201.599C1138.27 199.306 1167.25 199.413 1197.92 201.919C1248.96 206.186 1300.05 208.666 1351.2 209.359C1363.68 209.519 1390.75 211.279 1432.4 214.639C1460.35 216.879 1488.29 216.479 1516.24 213.439Z" fill="#9EC7EE"/>
<path d="M-78 187.039C-33.5733 188.159 23.0667 191.119 91.92 195.919C110.267 197.146 125.84 199.786 138.64 203.839C157.52 209.812 172.587 212.986 183.84 213.359C211.52 214.319 242.8 209.679 267.04 217.519C274.88 220.079 282.453 221.733 289.76 222.479C302.027 223.813 317.44 226.106 336 229.359C371.307 235.652 427.733 242.052 505.28 248.559C507.52 248.772 509.36 249.706 510.8 251.359C511.44 252.106 512.16 252.719 512.96 253.199C513.547 253.573 514.32 253.759 515.28 253.759C576.933 255.626 638.48 253.999 699.92 248.879C728.293 246.532 757.413 245.653 787.28 246.239C779.44 251.786 767.787 254.693 752.32 254.959C711.413 261.573 665.307 263.679 614 261.279C601.52 260.692 588.533 262.532 575.04 266.799C560.267 271.492 547.733 273.999 537.44 274.319C507.76 275.199 483.44 276.559 452.96 272.959C430.933 270.399 408.64 268.532 386.08 267.359C344.48 265.226 295.093 258.826 237.92 248.159C185.227 238.293 134 229.466 84.24 221.679C56.4533 217.359 29.4933 214.373 3.36 212.719C-23.7867 211.066 -50.9067 209.786 -78 208.879V187.039Z" fill="#557FCB"/>
<path d="M752.32 254.96C758.88 255.013 765.467 255.067 772.08 255.12C776.933 255.12 783.36 254.133 791.36 252.16C799.893 250.027 809.44 249.12 820 249.44C906.08 252.107 977.093 254.64 1033.04 257.04C1105.92 260.16 1185.04 258.96 1261.2 262C1263.39 262.107 1264.48 263.28 1264.48 265.52V267.52C1264.48 268.48 1264.03 268.96 1263.12 268.96L1174.32 272.4C1058.88 273.76 932.88 265.36 827.6 271.04C780.027 273.546 727.84 277.706 671.04 283.52C659.52 284.693 634.027 285.84 594.56 286.96C589.227 286.213 585.707 285.893 584 286C478.08 292.827 390.747 289.92 322 277.28C304.187 273.973 289.093 271.52 276.72 269.92C258.053 267.467 243.013 264.96 231.6 262.4C190.8 253.28 151.227 247.333 112.88 244.56C83.9733 235.6 53.7067 230.667 22.08 229.76C-7.41333 228.96 -33.0667 229.36 -54.88 230.96C-65.2267 230.587 -72.9333 228.72 -78 225.36V208.88C-50.9067 209.787 -23.7867 211.067 3.36 212.72C29.4933 214.373 56.4533 217.36 84.24 221.68C134 229.467 185.227 238.293 237.92 248.16C295.093 258.827 344.48 265.227 386.08 267.36C408.64 268.533 430.933 270.4 452.96 272.96C483.44 276.56 507.76 275.2 537.44 274.32C547.733 274 560.267 271.493 575.04 266.8C588.533 262.533 601.52 260.693 614 261.28C665.307 263.68 711.413 261.573 752.32 254.96Z" fill="#12478A"/>
<path d="M-78 225.359C-72.9333 228.719 -65.2267 230.586 -54.88 230.959C-35.6267 238.159 -16.16 241.893 3.52 242.159C15.6267 242.266 27.7333 243.733 39.84 246.559C64.5333 252.319 88.88 251.653 112.88 244.559C151.227 247.333 190.8 253.279 231.6 262.399C243.013 264.959 258.053 267.466 276.72 269.919C289.093 271.519 304.187 273.973 322 277.279C390.747 289.919 478.08 292.826 584 286C585.707 285.893 589.227 286.213 594.56 286.959L592.4 288.879C590.107 290.799 590.453 291.893 593.44 292.159C634.72 296.266 671.573 297.199 704 294.959C727.147 293.359 749.76 292.453 771.84 292.24C792.32 292.026 814.72 290.479 839.04 287.599C866.56 284.346 900.347 284.639 940.4 288.479C1041.84 298.133 1153.57 301.573 1275.6 298.799C1289.47 298.479 1303.28 296.479 1317.04 292.799C1330.91 289.066 1343.79 286.853 1355.68 286.159C1389.12 284.159 1424.16 277.919 1456.8 286.879C1469.97 290.559 1483.36 298.853 1496.96 311.76C1522.67 336.24 1547.65 361.519 1571.92 387.599C1561.41 391.333 1553.33 392.026 1547.68 389.679C1549.07 390.053 1550.32 389.786 1551.44 388.879C1553.57 387.226 1553.6 385.52 1551.52 383.76C1538.83 373.093 1526.29 367.093 1513.92 365.76C1498.29 364.16 1486.96 360.693 1479.92 355.359C1474.16 350.933 1468.53 348.159 1463.04 347.039C1457.07 345.813 1451.2 344.986 1445.44 344.559C1435.95 343.813 1426.88 342.266 1418.24 339.919C1406.77 336.719 1395.12 334.799 1383.28 334.159C1380.67 334.053 1378.59 332.959 1377.04 330.879C1375.76 329.173 1374.21 327.866 1372.4 326.959C1369.52 325.519 1369.65 324.586 1372.8 324.159C1377.71 323.466 1382.43 323.333 1386.96 323.76C1387.01 323.76 1387.04 323.733 1387.04 323.679C1387.04 323.626 1387.01 323.653 1386.96 323.76C1380 323.12 1375.52 320.16 1368.4 320C1350.32 319.626 1323.6 320.853 1288.24 323.679C1265.04 325.546 1232.29 326.159 1190 325.519C1184.4 325.439 1179.68 322.799 1173.68 323.919C1167.01 325.093 1163.12 325.679 1162 325.679C1115.33 325.039 1068.67 325.946 1022 328.399C1018.8 328.559 1015.79 327.973 1012.96 326.639C1010.61 325.519 1008.11 325.013 1005.44 325.119C950.133 327.359 894.987 325.679 840 320.079C825.52 318.639 812.88 324.48 799.84 324.24C775.307 323.813 750.8 324.026 726.32 324.879C701.573 321.733 676.8 320.746 652 321.919C650.88 321.973 649.84 321.813 648.88 321.439C646.08 320.319 644.4 319.359 641.36 319.199C562.907 316.266 484.453 313.333 406 310.399C371.333 309.066 326 310.879 270 315.839C244.613 318.133 203.947 315.306 148 307.359C132.907 305.226 98.32 311.066 44.24 324.879L-78 316.719V225.359Z" fill="#109ED0"/>
</g>
</svg>
