<svg width="1440" height="201" viewBox="0 0 1440 201" fill="none" xmlns="http://www.w3.org/2000/svg">
<path d="M0.317993 124.567C0.115623 124.281 0.0066563 123.962 0 123.637V130.5C0 130.5 2.16165 131.281 3.60681 131.5C13.5 133 25.3008 127.539 39.1124 124.567C47.0034 122.869 51.4225 121.889 59.2699 120C64.7369 118.684 67.7933 117.909 73.2369 116.5C87.2382 112.875 94.8625 109.998 108.896 106.5C124.158 102.696 132.901 101.37 148.264 98C159.709 95.4896 165.952 93.1327 177.554 91.5C210.212 86.9042 228.781 100.26 261.714 98.5C278.327 97.612 287.412 94.5932 304 93.3135C314.629 92.4935 320.646 91.0791 331.267 92C337.278 92.5212 340.569 93.4621 346.513 94.5C367.748 98.2082 379.567 100.853 400.5 106C407.366 107.688 411.115 109.057 418.036 110.502C427.266 112.431 432.626 112.449 441.928 114C446.36 114.739 448.802 115.433 453.26 116C481.224 119.554 496.394 107.24 524.263 103C533.908 101.533 539.356 100.979 549 99.5C549.499 99.4235 549.986 99.3488 550.463 99.2757C559.048 97.9596 564.292 97.1557 573.224 95.5C597.968 90.9126 611.437 86.4235 635.896 80.5C646.328 77.9735 652.153 76.458 662.602 74C680.172 69.8668 690.129 68.0184 707.726 64C725.194 60.0109 734.916 57.4677 752.389 53.5C764.719 50.7001 771.606 49.001 784 46.5C795.671 44.145 802.287 43.2058 813.987 41C848.591 34.4761 867.56 28.4982 902.342 23C917.008 20.6816 925.285 19.7447 940 17.7641C953.757 15.9124 961.477 14.9242 975.246 13.1661C990.564 11.2103 999.098 9.57693 1014.49 8.27716C1022.22 7.62418 1026.56 7.28824 1034.31 7C1044.91 6.60584 1050.88 6.55678 1061.48 7C1068.61 7.2983 1072.73 6.82326 1079.72 8.27716C1094.7 11.3937 1105.15 14.6218 1114.15 27C1115.75 29.202 1117.81 32.9354 1117.81 32.9354C1122.82 26.475 1120.59 18.8117 1114.15 13.5735C1104.68 5.89091 1094.04 2.68984 1079.72 2.53464C1073.36 2.4829 1067.28 2.14655 1061.48 1.52573C1052.35 0.568629 1043.3 0.665731 1034.31 1.81683C1027.85 2.63166 1021.24 3.28479 1014.49 3.77628C1001.7 4.68164 988.616 6.18189 975.246 8.27716C962.66 10.2431 950.578 11.8728 938.998 13.1661C921.109 15.1709 908.89 16.7035 902.342 17.7641C873.368 22.459 843.916 28.2922 813.987 35.2635C803.107 37.7985 792.866 40.0166 783.265 41.9178C773.22 43.9226 762.928 45.9079 752.389 47.8739C737.578 50.6481 722.613 55.9252 707.726 59.4367C692.923 62.9159 677.882 66.1944 662.602 69.2727C653.768 71.0575 644.866 73.1529 635.896 75.5585C615.252 81.0877 594.353 86.9661 573.224 90.3224C564.97 91.6417 556.63 93.0126 548.206 94.4353C539.782 95.871 531.8 96.6599 524.263 96.8022C500.49 97.2549 476.675 111.007 453.26 110.502C449.269 110.425 445.492 109.998 441.928 109.222C433.895 107.495 425.812 107.398 418.036 104.973C412.74 103.324 407.445 102.781 402.15 100.86C384.679 94.4776 366.031 89.6661 346.513 89.1229C341.218 88.9677 336.357 86.9501 331.267 87.1635C321.7 87.5515 312.516 87.3963 302.949 88.5603C289.238 90.2287 275.118 91.2958 261.714 93.3135C232 93.3135 210.185 82.5639 177.554 87.1635C165.96 88.7977 158.411 91.0954 148.264 93.5658C135.372 96.7087 121.993 99.1337 108.896 102.451C96.4127 105.607 84.5264 108.685 73.2369 111.686C68.7859 112.863 64.1302 113.807 59.2699 114.518C52.4399 115.527 45.9424 117.622 39.1124 118.476C27.0385 119.951 15.2033 122.298 3.60681 125.519C3.2043 125.63 2.7725 125.667 2.34741 125.626C1.92232 125.585 1.51624 125.468 1.16321 125.283C0.81018 125.099 0.520363 124.854 0.317993 124.567Z" fill="#AFC6D3"/>
<path d="M1091.05 63.9569C1100.22 54.4636 1109.14 44.1231 1117.81 32.9354C1117.81 32.9354 1115.75 29.202 1114.15 27C1105.15 14.6218 1094.7 11.3937 1079.72 8.27716C1072.73 6.82326 1068.61 7.2983 1061.48 7C1050.88 6.55678 1044.91 6.60584 1034.31 7C1026.56 7.28824 1022.22 7.62418 1014.49 8.27716C999.098 9.57693 990.564 11.2103 975.246 13.1661C961.477 14.9242 953.757 15.9124 940 17.7641C925.285 19.7447 917.008 20.6816 902.342 23C867.56 28.4982 848.591 34.4761 813.987 41C802.287 43.2058 795.671 44.145 784 46.5C771.606 49.001 764.719 50.7001 752.389 53.5C734.916 57.4677 725.194 60.0109 707.726 64C690.129 68.0184 680.172 69.8668 662.602 74C652.153 76.458 646.328 77.9735 635.896 80.5C611.437 86.4235 597.968 90.9126 573.224 95.5C564.292 97.1557 559.048 97.9596 550.463 99.2757L549 99.5C539.356 100.979 533.908 101.533 524.263 103C496.394 107.24 481.224 119.554 453.26 116C448.802 115.433 446.36 114.739 441.928 114C432.626 112.449 427.266 112.431 418.036 110.502C411.115 109.057 407.366 107.688 400.5 106C379.567 100.853 367.748 98.2082 346.513 94.5C340.569 93.4621 337.278 92.5212 331.267 92C320.646 91.0791 314.629 92.4935 304 93.3135C287.412 94.5932 278.327 97.612 261.714 98.5C228.781 100.26 210.212 86.9042 177.554 91.5C165.952 93.1327 159.709 95.4896 148.264 98C132.901 101.37 124.158 102.696 108.896 106.5C94.8625 109.998 87.2382 112.875 73.2369 116.5C67.7933 117.909 64.7369 118.684 59.2699 120C51.4225 121.889 47.0034 122.869 39.1124 124.567C25.3008 127.539 13.5 133 3.60681 131.5C2.16165 131.281 0 130.5 0 130.5V200.987C1.23267 195.352 5.44092 194.553 10.2192 193.645C12.6802 193.177 15.2924 192.681 17.7272 191.48C61.8562 178.563 106.871 181.486 137.666 183.486C150.885 184.344 161.484 185.033 168.268 184.225C190.856 181.535 222.356 175.805 222.356 175.805C222.356 175.805 247.586 172.43 263.856 171.847C298.538 170.604 352.356 179.898 352.356 179.898L444.87 184.225C475.822 185.867 502.773 186.926 538.878 180.017C553.348 177.247 562.766 181.667 572.79 186.372C581.965 190.678 591.648 195.222 606.18 194.709C608.234 194.639 610.359 194.779 612.48 194.918C615.642 195.126 618.798 195.333 621.707 194.845C627.164 193.927 632.374 193.351 637.337 193.119C648.415 192.616 653.018 192.748 662.401 193.017C663.525 193.049 664.719 193.083 666 193.119C674.069 196.611 775.591 199.781 835.5 190.926C858.492 187.528 871.871 187.342 895 189.626C905.645 190.678 914.371 192.647 922.572 194.497C936.528 197.646 948.962 200.451 966.736 197.805C970.639 197.224 975.289 195.098 979.906 192.987C985.657 190.358 991.357 187.752 995.5 188.182C1000.72 190.633 1011.07 189.819 1025.34 188.698C1027.48 188.529 1029.71 188.354 1032.02 188.182C1046.96 187.07 1061.74 185.913 1076.37 184.71C1080.04 184.399 1083.68 183.791 1087.3 182.886C1090.12 182.189 1092.97 182.116 1095.84 182.041C1098.09 181.983 1100.35 181.924 1102.65 181.567C1116.48 179.394 1168.95 185.653 1168.95 185.653C1174.88 186.165 1179.05 185.278 1183.17 184.403C1187.54 183.474 1191.84 182.56 1198.11 183.346C1208.67 184.671 1216.21 182.454 1224.89 179.904C1227.34 179.185 1229.87 178.439 1232.59 177.739C1238.95 176.11 1245.83 175.172 1253.21 174.926C1260.05 174.694 1266.83 174.118 1273.55 173.2C1314.85 167.573 1356.6 161.954 1398.79 156.341C1417.89 153.793 1431.63 151.342 1440 148.988V103.867C1427.24 105.691 1414.66 108.252 1402.24 111.55C1395.87 113.244 1389.82 114.583 1384.11 115.566C1380.43 116.188 1376.97 116.964 1373.5 117.743C1369.06 118.738 1364.6 119.739 1359.63 120.435C1347.42 122.156 1337.67 124.031 1330.39 126.062C1327.81 126.786 1325.22 127.355 1322.61 127.769C1318.81 128.39 1315.47 129.036 1312.58 129.709C1289.42 135.154 1268.29 139.299 1249.17 142.145C1242.57 143.128 1235.92 144.408 1229.22 145.986C1219.36 148.301 1209.62 149.11 1200 148.411C1199.09 148.348 1198.18 148.519 1197.4 148.896C1191.83 151.685 1186.37 151.243 1180.58 150.774C1178.07 150.571 1175.5 150.363 1172.84 150.409C1157.44 150.72 1142.18 149.866 1127.05 147.849C1115.84 146.368 1108.84 141.991 1100.37 136.697L1099.81 136.344C1095.97 133.938 1092.69 131.151 1089.96 127.982C1078.5 114.693 1079.41 87.9943 1085.11 73.3663C1086.55 69.6931 1088.52 66.5566 1091.05 63.9569Z" fill="#0A5177"/>
</svg>
