<svg width="1440" height="228" viewBox="0 0 1440 228" fill="none" xmlns="http://www.w3.org/2000/svg">
<path d="M0 92.7005C3.40824 91.397 6.68033 90.3903 9.81592 89.6807C13.1901 88.9275 16.4789 88.7683 19.6826 89.2028C24.0452 89.7966 28.4589 89.3404 32.9237 87.8341C37.4481 86.3134 42.1005 86.813 46.7272 85.6181C48.4483 85.1547 50.2036 85.1257 51.9929 85.5313C56.9008 86.661 60.6327 87.7472 65.6683 85.8137C71.4769 83.6051 75.9401 82.8209 81.9675 81.7618L82.028 81.7511C84.925 81.2442 87.9072 81.1283 90.9746 81.4035C103.295 82.4897 117.073 79.1441 129.42 78.0361C134.762 77.5582 138.545 75.6029 144.22 75.2988C153.115 74.8064 161.968 73.8215 170.779 72.3442C180.083 70.7655 190.725 69.6286 202.705 68.9334C218.806 68.4779 227.766 68.8147 244.339 62.3291C246.759 61.5759 248.793 61.0399 251.452 60.7213C265.698 58.9978 280.234 56.5574 295.06 53.4C302.013 51.901 308.225 52.77 315.05 51.51C320.648 50.5106 326.092 50.7061 331.716 50.5541C335.064 50.4672 337.288 48.7074 340.765 50.1195C343.764 51.3506 346.797 51.4086 349.865 50.2934C357.559 47.5126 364.665 49.7503 372.513 48.7075C376.228 48.2006 379.789 48.1717 383.198 48.6206C396.796 50.3586 410.6 51.5318 423.815 55.2467C430.052 56.9992 436.613 58.1796 443.498 58.7879C452.061 59.5265 459.142 63.1328 467.858 63.4804C474.325 63.7411 479.463 67.1519 486.084 67.8036C493.701 68.5568 501.199 69.2303 508.578 69.8241L524.554 70.9755C530.689 70.4541 536.108 71.9965 542.32 71.7141C555.868 71.0624 570.472 71.0045 586.133 71.5404C589.371 71.6563 593.026 71.2 597.099 70.1717C600.592 69.2882 604.239 68.8682 608.039 68.9117C622.541 69.0275 632.34 68.7378 637.435 68.0426C657.391 65.3342 676.545 63.0894 694.898 61.3079C703.641 60.4389 710.184 61.46 718.517 58.614C719.318 58.3389 720.136 58.3027 720.971 58.5054L721.165 58.5522C723.677 59.1598 725.617 59.6291 728.384 59.3961C735.916 58.7154 743.304 57.9043 750.546 56.9629C753.665 56.5719 756.323 54.9425 759.467 54.2256C764.529 53.0741 769.181 55.2901 774.114 54.6166C785.259 53.0814 795.902 51.4449 806.041 49.7069C813.897 48.3599 824.582 46.7595 838.096 44.9056C858.017 42.1828 877.665 39.0616 897.041 35.5422C917.269 31.8779 943.061 28.5685 974.417 25.6139C983.875 24.7232 993.537 22.1162 1003.28 22.0076C1012.02 21.9207 1018.54 19.2484 1026.72 17.8146C1040.14 15.4466 1053.74 12.4269 1067.39 10.6889C1078.07 9.29846 1087.71 5.69214 1098.55 4.86659C1116.08 3.50516 1133.82 2.10028 1151.76 0.651947C1166.46 -0.521199 1181.42 0.369553 1196.55 0.000228882C1196.55 0.000228882 1238.14 4.17131 1247.93 7.2128C1257.56 10.2108 1267.51 14.2808 1277.78 19.4223C1286.4 23.7239 1291.79 30.7845 1300.64 35.3032C1307.56 38.8444 1311.35 44.2321 1319.17 46.9043C1325.36 49.055 1330.57 52.0748 1337.32 53.0307C1351.53 55.0294 1365.33 55.7898 1378.7 55.3118C1382.04 55.1815 1385.53 55.4494 1389.16 56.1156C1401.09 58.2881 1409.5 53.5739 1420.55 51.3363C1427.01 50.0183 1433.49 48.6785 1440 47.3171V174.864C1427.25 176.906 1414.68 179.774 1402.27 183.467C1395.9 185.364 1389.86 186.863 1384.15 187.964C1375.79 189.55 1368.55 192.027 1359.68 193.417C1347.48 195.343 1337.74 197.444 1330.47 199.717C1327.89 200.529 1325.3 201.166 1322.7 201.629C1318.9 202.324 1315.56 203.049 1312.68 203.802C1289.53 209.899 1268.41 214.541 1249.31 217.727C1242.71 218.828 1236.07 220.262 1229.37 222.029C1219.52 224.621 1209.79 225.527 1200.18 224.745C1199.27 224.674 1198.35 224.865 1197.57 225.288C1189.6 229.763 1181.85 226.808 1173.03 226.982C1157.64 227.33 1134.17 226.7 1119.05 224.44C1107.85 222.783 1100.85 217.881 1092.39 211.953L1091.83 211.558C1088 208.864 1084.72 205.743 1081.99 202.194C1070.54 187.313 1058.23 172.844 1063.93 156.463C1065.36 152.35 1068.06 150.294 1069.86 145.927C1072.5 139.5 1073.66 137.423 1060.53 128.145C1050.1 120.768 1045.08 120.391 1034.38 118.016C1011.76 112.989 988.723 121.904 975.363 124.25C962.786 126.452 950.713 128.276 939.142 129.725C921.265 131.97 917.138 122.217 902.511 119.874C868.34 114.399 844.128 119.663 814.221 127.469C803.349 130.308 793.115 132.792 783.521 134.921C773.484 137.166 763.2 139.389 752.668 141.591C737.868 144.697 722.914 136.607 708.037 140.539C693.245 144.435 678.215 148.106 662.946 151.553C654.119 153.552 645.223 155.898 636.26 158.592C615.631 164.784 594.747 171.366 573.633 175.125C565.385 176.602 557.052 178.137 548.634 179.731C540.215 181.338 532.24 182.222 524.708 182.381C500.952 182.888 477.376 182.859 453.978 182.294C449.991 182.207 446.216 181.729 442.654 180.86C434.628 178.927 426.55 178.818 418.779 176.102C413.488 174.256 408.197 173.648 402.906 171.497C385.447 164.349 366.812 158.961 347.309 158.353C342.017 158.179 337.161 155.92 332.074 156.159C322.514 156.594 313.337 156.42 303.777 157.723C290.076 159.592 275.966 160.786 262.571 163.046C234.402 167.753 206.489 173.068 178.831 178.992C169.458 181.005 159.702 183.395 149.562 186.161C136.679 189.681 123.31 192.396 110.223 196.111C97.7486 199.645 85.8709 203.092 74.5896 206.452C70.1418 207.77 65.4896 208.827 60.6328 209.624C53.8078 210.754 47.3151 213.1 40.4901 214.056C28.4249 215.707 16.5983 218.336 5.01025 221.942C4.60804 222.067 4.17661 222.108 3.75183 222.062C3.32705 222.016 2.92113 221.885 2.56836 221.679C2.21559 221.472 1.9261 221.197 1.72388 220.877C1.52165 220.556 1.41266 220.199 1.40601 219.835L0 92.7005Z" fill="#1774A3"/>
</svg>
