<svg width="1440" height="201" viewBox="0 0 1440 201" fill="none" xmlns="http://www.w3.org/2000/svg">
<path d="M0.676195 144.957C0.473825 144.671 0.364866 144.352 0.358209 144.027L-1.42239e-05 200.987C1.86736 192.451 10.5647 195.011 17.7272 191.48C24.6851 188.053 31.7794 184.516 39.0102 180.868C44.0239 178.346 49.7029 177.803 54.3329 175.281C64.8976 169.519 77.432 166.531 88.8665 162.069C116.203 151.451 143.813 142.707 171.696 135.84C177.093 134.501 182.977 134.773 187.991 133.434C195.784 131.339 204.302 130.065 213.546 129.612C241.633 128.215 266.011 128.804 286.68 131.377C296.622 132.619 306.07 133.44 315.023 133.841C324.369 134.268 333.663 135.251 342.906 136.79C353.002 138.459 363.166 140.231 373.398 142.106C379.401 143.192 385.31 144.563 391.125 146.219C397.708 148.081 404.597 149.511 411.794 150.506C418.701 151.464 425.539 152.828 432.31 154.6C442.422 157.238 449.824 158.681 454.513 158.926C485.466 160.569 516.802 162.166 548.521 163.718C556.554 164.119 575.773 163.783 606.18 162.709C611.296 162.535 616.847 163.66 621.707 162.845C627.164 161.927 632.374 161.351 637.337 161.119C649.743 160.556 661.459 157.297 673.431 157.626C678.871 157.782 684.456 157.471 690.186 156.695C694.04 156.165 698.048 155.913 702.209 155.939C706.08 155.952 709.968 155.615 713.874 154.93C730.518 152.02 747.495 149.226 764.804 146.549C770.5 145.669 776.008 145.061 781.329 144.725C788.901 144.24 796.396 143.697 803.814 142.669C835.193 138.323 863.272 135.167 888.051 133.201C897.43 132.451 906.673 132.257 915.78 132.619C916.07 132.632 919.736 132.542 926.779 132.348C930.753 132.244 934.948 132.464 939.365 133.007C943.56 133.524 947.559 134.591 951.362 136.208C957.271 138.73 965.994 140.263 969.934 144.783C972.952 148.217 972.441 155.939 971.29 159.838C969.806 164.895 968.288 170.217 966.736 175.805C965.073 181.838 970.65 186.359 978.119 187.135C995.565 188.939 1014.29 189.502 1032.02 188.182C1046.96 187.07 1061.74 185.913 1076.37 184.71C1080.04 184.399 1083.68 183.791 1087.3 182.886C1092.34 181.644 1097.43 182.382 1102.65 181.567C1116.48 179.394 1130.73 178.269 1144.24 175.32C1152.34 173.548 1160.58 172.326 1168.95 171.653C1174.22 171.226 1179.09 170.483 1183.56 169.422C1188.25 168.297 1193.1 167.605 1198.11 167.346C1208.74 166.79 1220.23 164.921 1232.59 161.739C1238.95 160.11 1245.83 159.172 1253.21 158.926C1260.05 158.694 1266.83 158.118 1273.55 157.2C1314.85 151.573 1356.6 145.954 1398.79 140.341C1417.89 137.793 1431.63 135.342 1440 132.988V103.867C1427.24 105.691 1414.66 108.252 1402.24 111.55C1395.87 113.244 1389.82 114.583 1384.11 115.566C1375.74 116.982 1368.5 119.194 1359.63 120.435C1347.42 122.156 1337.67 124.031 1330.39 126.062C1327.81 126.786 1325.22 127.355 1322.61 127.769C1318.81 128.39 1315.47 129.036 1312.58 129.709C1289.42 135.154 1268.29 139.299 1249.17 142.145C1242.57 143.128 1235.92 144.408 1229.22 145.986C1219.36 148.301 1209.62 149.11 1200 148.411C1199.09 148.348 1198.18 148.519 1197.4 148.896C1189.41 152.893 1181.66 150.254 1172.84 150.409C1157.44 150.72 1142.18 149.866 1127.05 147.849C1115.84 146.368 1108.84 141.991 1100.37 136.697L1099.81 136.344C1095.97 133.938 1092.69 131.151 1089.96 127.982C1078.5 114.693 1079.41 87.9943 1085.11 73.3663C1086.55 69.6931 1088.52 66.5566 1091.05 63.9569C1100.22 54.4636 1109.14 44.1231 1117.81 32.9354C1122.82 26.475 1120.59 18.8117 1114.15 13.5735C1104.68 5.89091 1094.04 2.68984 1079.72 2.53463C1073.36 2.4829 1067.28 2.14655 1061.48 1.52573C1052.35 0.568633 1043.3 0.665737 1034.31 1.81684C1027.85 2.63167 1021.24 3.28479 1014.49 3.77628C1001.7 4.68164 988.616 6.18189 975.246 8.27716C962.66 10.2431 950.578 11.8728 938.998 13.1661C921.109 15.1709 908.89 16.7035 902.342 17.7641C873.368 22.459 843.916 28.2922 813.987 35.2635C803.107 37.7985 792.866 40.0166 783.265 41.9179C773.22 43.9226 762.928 45.9079 752.389 47.8739C737.578 50.6481 722.613 55.9252 707.726 59.4367C692.923 62.9159 677.882 66.1944 662.602 69.2727C653.768 71.0575 644.866 73.1529 635.896 75.5585C615.252 81.0877 594.353 86.9661 573.224 90.3224C564.97 91.6417 556.63 93.0126 548.206 94.4353C539.781 95.871 531.8 96.6599 524.263 96.8022C500.49 97.2549 476.675 111.007 453.26 110.502C449.269 110.425 445.492 109.998 441.928 109.222C433.896 107.495 425.812 107.398 418.036 104.973C412.74 103.324 407.445 102.781 402.15 100.86C384.679 94.4776 366.031 89.6661 346.513 89.1229C341.218 88.9677 336.357 86.9501 331.267 87.1635C321.7 87.5515 312.516 87.3963 302.949 88.5603C289.238 90.2287 275.118 91.2958 261.714 93.3135C233.524 97.517 205.59 102.264 177.912 107.553C168.532 109.351 158.769 111.485 148.622 113.956C135.73 117.099 122.351 119.524 109.254 122.841C96.7709 125.997 84.8846 129.075 73.5951 132.076C69.1441 133.253 64.4883 134.197 59.628 134.908C52.798 135.917 46.3006 138.012 39.4706 138.866C27.3967 140.341 15.5614 142.688 3.96491 145.909C3.5624 146.02 3.13065 146.057 2.70556 146.016C2.28047 145.975 1.87433 145.858 1.5213 145.673C1.16828 145.489 0.878565 145.244 0.676195 144.957Z" fill="#0A5177"/>
</svg>
