<svg width="1440" height="201" viewBox="0 0 1440 201" fill="none" xmlns="http://www.w3.org/2000/svg">
<mask id="mask0_116_84744" style="mask-type:alpha" maskUnits="userSpaceOnUse" x="0" y="0" width="1440" height="201">
<path d="M0.676209 144.083C0.473839 143.797 0.36488 143.478 0.358223 143.153L0 200.113C1.86737 191.577 10.5647 194.137 17.7272 190.606C24.6851 187.179 31.7794 183.642 39.0102 179.994C44.0239 177.472 49.7029 176.929 54.3329 174.407C64.8976 168.645 77.432 165.657 88.8665 161.195C116.203 150.577 143.813 141.833 171.696 134.966C177.093 133.627 182.977 133.899 187.991 132.56C195.784 130.465 204.302 129.191 213.546 128.738C241.633 127.341 266.011 127.93 286.68 130.503C296.622 131.745 306.07 132.566 315.023 132.967C324.369 133.394 333.663 134.377 342.906 135.916C353.002 137.585 363.166 139.357 373.398 141.232C379.401 142.318 385.31 143.689 391.125 145.345C397.708 147.207 404.597 148.637 411.794 149.632C418.701 150.59 425.539 151.954 432.31 153.726C442.422 156.364 449.824 157.807 454.513 158.052C485.466 159.695 516.802 161.292 548.521 162.844C556.554 163.245 575.773 162.909 606.18 161.835C611.296 161.661 616.847 162.786 621.707 161.971C627.164 161.053 632.374 160.477 637.337 160.245C649.743 159.682 661.459 156.423 673.431 156.752C678.871 156.908 684.456 156.597 690.186 155.821C694.04 155.291 698.048 155.039 702.209 155.065C706.08 155.078 709.968 154.741 713.874 154.056C730.518 151.146 747.495 148.352 764.804 145.675C770.5 144.795 776.008 144.187 781.329 143.851C788.901 143.366 796.396 142.823 803.814 141.795C835.193 137.449 863.272 134.293 888.051 132.327C897.43 131.577 906.673 131.383 915.78 131.745C916.07 131.758 919.736 131.668 926.779 131.474C930.753 131.37 934.948 131.59 939.365 132.133C943.56 132.65 947.559 133.717 951.362 135.334C957.271 137.856 965.994 139.389 969.934 143.909C972.952 147.343 972.441 155.065 971.29 158.964C969.806 164.021 968.288 169.343 966.736 174.931C965.073 180.964 970.65 185.485 978.119 186.261C995.565 188.065 1014.29 188.628 1032.02 187.308C1046.96 186.196 1061.74 185.039 1076.37 183.836C1080.04 183.525 1083.68 182.917 1087.3 182.012C1092.34 180.77 1097.43 181.508 1102.65 180.693C1116.48 178.52 1130.73 177.395 1144.24 174.446C1152.34 172.674 1160.58 171.452 1168.95 170.779C1174.22 170.352 1179.09 169.609 1183.56 168.548C1188.25 167.423 1193.1 166.731 1198.11 166.472C1208.74 165.916 1220.23 164.047 1232.59 160.865C1238.95 159.236 1245.83 158.298 1253.21 158.052C1260.05 157.82 1266.83 157.244 1273.55 156.326C1314.85 150.699 1356.6 145.08 1398.79 139.467C1417.89 136.919 1431.63 134.468 1440 132.114V102.993C1427.24 104.817 1414.66 107.378 1402.24 110.676C1395.87 112.37 1389.82 113.709 1384.11 114.692C1375.74 116.108 1368.5 118.32 1359.63 119.561C1347.42 121.282 1337.67 123.157 1330.39 125.188C1327.81 125.912 1325.22 126.481 1322.61 126.895C1318.81 127.516 1315.47 128.162 1312.58 128.835C1289.42 134.28 1268.29 138.425 1249.17 141.271C1242.57 142.254 1235.92 143.534 1229.22 145.112C1219.36 147.427 1209.62 148.236 1200 147.537C1199.09 147.474 1198.18 147.645 1197.4 148.022C1189.41 152.019 1181.66 149.38 1172.84 149.535C1157.44 149.846 1142.18 148.992 1127.05 146.975C1115.84 145.494 1108.84 141.117 1100.37 135.823L1099.81 135.47C1095.97 133.064 1092.69 130.277 1089.96 127.108C1078.5 113.819 1079.41 87.1203 1085.11 72.4923C1086.55 68.8191 1088.52 65.6826 1091.05 63.0829C1100.22 53.5896 1109.14 43.2491 1117.81 32.0614C1122.82 25.601 1120.59 17.9377 1114.15 12.6995C1104.68 5.0169 1094.04 1.81583 1079.72 1.66062C1073.36 1.60889 1067.28 1.27254 1061.48 0.651722C1052.35 -0.305375 1043.3 -0.208271 1034.31 0.942832C1027.85 1.75766 1021.24 2.41078 1014.49 2.90227C1001.7 3.80763 988.616 5.30788 975.246 7.40315C962.66 9.36909 950.578 10.9988 938.998 12.2921C921.109 14.2969 908.89 15.8295 902.342 16.8901C873.368 21.585 843.916 27.4182 813.987 34.3895C803.107 36.9245 792.866 39.1426 783.265 41.0439C773.22 43.0486 762.928 45.0339 752.389 46.9999C737.578 49.7741 722.613 55.0512 707.726 58.5627C692.923 62.0419 677.882 65.3204 662.602 68.3987C653.768 70.1835 644.866 72.2789 635.896 74.6845C615.252 80.2137 594.353 86.0921 573.224 89.4484C564.97 90.7677 556.63 92.1386 548.206 93.5613C539.781 94.997 531.8 95.7859 524.263 95.9282C500.49 96.3809 476.675 110.133 453.26 109.628C449.269 109.551 445.492 109.124 441.928 108.348C433.896 106.621 425.812 106.524 418.036 104.099C412.74 102.45 407.445 101.907 402.15 99.986C384.679 93.6036 366.031 88.7921 346.513 88.2489C341.218 88.0937 336.357 86.0761 331.267 86.2895C321.7 86.6775 312.516 86.5223 302.949 87.6863C289.238 89.3547 275.118 90.4218 261.714 92.4395C233.524 96.643 205.59 101.39 177.912 106.679C168.532 108.477 158.769 110.611 148.622 113.082C135.73 116.225 122.351 118.65 109.254 121.967C96.7709 125.123 84.8846 128.201 73.5951 131.202C69.1441 132.379 64.4883 133.323 59.628 134.034C52.798 135.043 46.3006 137.138 39.4706 137.992C27.3967 139.467 15.5614 141.814 3.96492 145.035C3.56241 145.146 3.13066 145.183 2.70557 145.142C2.28048 145.101 1.87434 144.984 1.52131 144.799C1.16829 144.615 0.878579 144.37 0.676209 144.083Z" fill="#0A5177"/>
</mask>
<g mask="url(#mask0_116_84744)">
<path d="M1405.33 -1280.59C1509.81 -1195.29 1584.07 -1079.62 1628.12 -933.587C1684.59 -745.867 1720.97 -623.204 1737.25 -565.598C1751.83 -513.537 1754.17 -461.614 1747.27 -402.924C1731.37 -264.624 1714.91 -136.407 1751.25 0.0831291C1751.97 2.62188 1751.96 5.31995 1751.21 7.8685C1750.46 10.4171 1749.01 12.713 1747.01 14.4927L1739.39 21.2831C1733.89 26.3083 1729.61 25.4394 1726.56 18.6767C1706.18 -28.2221 1677.68 -64.412 1666.11 -115.576C1650.48 -184.681 1627.94 -249.902 1598.5 -311.238C1618.26 -318.665 1624.42 -328.851 1616.98 -341.798C1607.46 -358.529 1595.73 -373.275 1581.8 -386.036C1577.04 -390.396 1573.99 -395.755 1572.63 -402.114C1559.61 -462.886 1539.92 -528.774 1513.57 -599.776C1497.96 -641.919 1486.78 -701.986 1480.01 -779.975C1466.3 -936.714 1431.24 -1089.99 1374.82 -1239.81C1373.62 -1242.97 1373.23 -1246.38 1373.7 -1249.73C1374.17 -1253.08 1375.47 -1256.26 1377.5 -1258.97C1379.52 -1261.68 1382.19 -1263.83 1385.27 -1265.23C1388.35 -1266.63 1391.73 -1267.24 1395.1 -1266.98C1403.51 -1266.41 1406.92 -1270.95 1405.33 -1280.59Z" fill="#F8B360"/>
<path d="M57.5254 -636.989C173.795 -635.355 275.128 -623.952 361.525 -602.779C448.203 -581.538 540.945 -542.09 639.749 -484.434C654.698 -474.181 664.458 -462.713 669.027 -450.03C671.327 -443.626 669.657 -438.495 664.017 -434.639C630.276 -411.657 593.757 -396.837 554.46 -390.179C531.097 -386.181 514.427 -380.679 504.451 -373.672C489.662 -363.269 477.132 -350.056 466.862 -334.035L298.808 -271.683C289.008 -268.035 278.434 -266.945 268.081 -268.517C257.729 -270.088 247.938 -274.27 239.631 -280.667C165.94 -337.123 108.481 -381.555 5.72303 -345.696C-75.9224 -317.18 -109.722 -271.621 -150.843 -201.719C-159.936 -186.374 -175.861 -174.837 -198.619 -167.109C-248.394 -150.456 -289.697 -140.391 -328.638 -180.145C-333.203 -184.818 -335.295 -190.336 -334.915 -196.7C-333.88 -215.1 -339.179 -230.616 -350.813 -243.247C-357.954 -265.208 -369.888 -281.975 -386.615 -293.548C-391.678 -297.104 -397.981 -298.508 -404.151 -297.456C-425.78 -293.463 -449.989 -291.937 -476.778 -292.879C-505.331 -293.942 -543.042 -284.784 -589.91 -265.407C-622.88 -251.684 -657.472 -242.322 -693.685 -237.32C-742.346 -230.74 -788.551 -211.385 -832.301 -179.252C-884.724 -140.818 -916.752 -118.504 -928.387 -112.31C-959.984 -95.5714 -994.452 -75.691 -1031.79 -52.6692C-1041.37 -46.8228 -1052.1 -36.5005 -1064 -21.7021C-1078.07 -4.25651 -1092.52 2.73031 -1107.36 -0.742036C-1119.77 -90.8942 -1116.12 -175.127 -1096.39 -253.441C-1092.83 -267.89 -1083.85 -280.397 -1071.31 -288.347C-1015.95 -323.931 -972.334 -365.178 -910.483 -395.271C-868.802 -415.704 -828.08 -437.382 -788.316 -460.304C-786.754 -459.335 -785.334 -458.399 -784.054 -457.496C-780.529 -454.983 -780.443 -452.334 -783.796 -449.546L-788.155 -445.923C-791.479 -443.009 -791.004 -442.119 -786.729 -443.253C-774.034 -446.624 -761.895 -450.665 -750.314 -455.378C-674.728 -486.682 -598.183 -511.601 -520.677 -530.137C-481.876 -539.483 -440.492 -551.769 -396.525 -566.997C-350.495 -583.108 -309.24 -593.094 -272.761 -596.957C-212.182 -603.388 -170.034 -607.842 -146.315 -610.321C-80.2049 -617.646 -12.2583 -626.535 57.5254 -636.989ZM-361.147 -301.109C-337.993 -268.343 -307.117 -243.658 -268.52 -227.055C-258.076 -222.538 -246.36 -221.932 -235.531 -225.349C-224.702 -228.766 -215.488 -235.976 -209.587 -245.651C-165.102 -318.009 -100.351 -366.804 -15.3338 -392.037C22.8373 -403.505 24.9417 -419.618 -9.02082 -440.377C-20.0813 -447.134 -34.0263 -450.814 -50.856 -451.416C-137.372 -454.27 -222.622 -448.008 -306.607 -432.629C-377.311 -423.829 -445.396 -418.379 -510.859 -416.279C-535.626 -415.424 -596.346 -396.477 -693.02 -359.438C-705.517 -354.645 -723.585 -343.141 -747.227 -324.925C-763.977 -312.061 -784.855 -304.572 -809.861 -302.46C-815.735 -301.886 -821.049 -299.775 -825.803 -296.126C-857.209 -271.154 -886.173 -247.154 -912.694 -224.126C-932.374 -207.239 -951.024 -181.38 -968.642 -146.55C-975.044 -133.97 -971.362 -126.22 -957.594 -123.3C-955.205 -122.791 -952.764 -122.628 -950.27 -122.811C-942.687 -123.549 -935.52 -126.008 -929.461 -129.952C-923.403 -133.895 -918.657 -139.19 -915.684 -145.323C-904.617 -168.206 -889.184 -187.838 -869.385 -204.22C-832.791 -234.411 -780.775 -239.773 -733.743 -250.177C-729.059 -251.273 -728.424 -250.554 -731.836 -248.02C-732.984 -247.217 -734.595 -246.973 -736.672 -247.288C-738.339 -247.566 -739.731 -247.24 -740.849 -246.311C-744.388 -243.747 -743.894 -243.062 -739.367 -244.255C-715.182 -250.448 -690.894 -255.062 -666.504 -258.099C-643.537 -260.936 -620.627 -268.3 -597.774 -280.189C-541.418 -309.797 -478.278 -322.968 -408.355 -319.703C-385.668 -318.603 -381.067 -310.067 -361.147 -301.109Z" fill="#71C8D1"/>
<path d="M1458.19 -524.333L1603.17 -247.043C1590.55 -238.215 1576.94 -244.176 1562.34 -264.925C1557.64 -271.557 1550.69 -276.241 1542.8 -278.087C1534.91 -279.933 1526.63 -278.812 1519.54 -274.938C1498.84 -263.553 1474.21 -260.993 1445.64 -267.259C1439.29 -268.711 1434 -271.944 1429.75 -276.959C1417.15 -292.033 1405.46 -302.317 1394.7 -307.809C1375.17 -317.659 1370.95 -313.135 1382.05 -294.236C1432.27 -207.989 1473.69 -127.426 1506.29 -52.5456C1521.07 -18.4869 1512.36 -10.6409 1480.16 -29.0075C1441.64 -50.9699 1401.01 -70.5677 1358.26 -87.801C1350.74 -90.8474 1342.99 -91.7055 1335.02 -90.3755C1323.48 -88.3428 1316.17 -92.7736 1313.09 -103.668C1312.35 -106.324 1311.05 -108.801 1309.27 -110.938C1307.49 -113.074 1305.28 -114.824 1302.78 -116.074L1103.92 -218.744C1090.94 -221.716 1085.18 -228.377 1086.63 -238.73L1096.44 -237.021C1100.06 -236.398 1101.02 -237.692 1099.34 -240.903L1080.59 -277.371C1077.74 -282.711 1073.9 -287.153 1069.06 -290.694L1031.49 -317.751C1026.37 -321.36 1023.28 -326.31 1022.21 -332.602C1020.8 -341.484 1021.95 -349.964 1025.67 -358.044C1028.57 -364.464 1033.5 -368.489 1040.47 -370.118L1070.65 -377.182C1074.33 -378.041 1074.37 -377.851 1070.79 -376.612C1057.25 -371.709 1060.5 -369.531 1080.53 -370.079C1084.99 -370.195 1089.37 -371.332 1093.33 -373.404C1097.29 -375.476 1100.72 -378.428 1103.36 -382.032C1126.23 -413.282 1147.05 -446.66 1165.85 -482.166C1168.18 -486.45 1169.13 -495.549 1168.68 -509.462C1168.31 -518.455 1166.9 -527.337 1164.44 -536.109C1145.54 -602.047 1139.75 -663.309 1147.07 -719.895C1149.59 -739.975 1158.04 -760.044 1172.44 -780.102C1174.44 -782.973 1174.2 -785.72 1171.71 -788.343C1170.34 -789.626 1169.2 -790.826 1168.27 -791.943C1167.77 -792.361 1167.81 -792.77 1168.38 -793.171L1179.98 -803.496C1185.04 -808.15 1190.97 -809.605 1197.79 -807.862C1233.66 -798.9 1253.98 -775.684 1258.74 -738.213C1259.57 -731.908 1262.42 -726.04 1266.86 -721.488C1295.81 -692.481 1319.86 -659.59 1339.01 -622.817C1341.96 -617.096 1342.64 -611.047 1341.06 -604.67C1322.01 -527.718 1395.03 -480.117 1458.19 -524.333Z" fill="#1596B7"/>
<path d="M-203.52 124.421C-274.222 124.676 -345.222 125.935 -416.521 128.198C-497.759 130.785 -567.572 141.112 -625.961 159.18C-793.496 211.197 -940.173 298.721 -1065.99 421.752C-1087.72 442.992 -1117.16 476.114 -1154.29 521.117C-1182.59 555.376 -1211.29 588.792 -1240.38 621.367C-1271.52 656.024 -1297.1 694.786 -1317.11 737.652C-1336.57 779.454 -1358.16 822.691 -1381.89 867.361C-1387.95 878.527 -1395.49 901.385 -1404.49 935.935C-1411.79 963.542 -1426.45 984.463 -1448.49 998.698C-1435.16 959.799 -1423.09 922.063 -1412.29 885.49C-1400.83 847.161 -1386.73 810.418 -1369.99 775.259C-1346.06 725.2 -1326.09 674.465 -1295.8 626.725C-1228.52 521.129 -1176.86 408.707 -1140.81 289.458C-1133.14 287.398 -1124.97 289.224 -1116.29 294.937L-1122.77 335.706C-1123.03 337.49 -1122.73 339.31 -1121.94 340.926C-1121.14 342.542 -1119.87 343.881 -1118.3 344.768C-1116.74 345.654 -1114.94 346.047 -1113.14 345.896C-1111.34 345.745 -1109.63 345.056 -1108.24 343.92L-1064.78 307.115C-1058.87 302.128 -1057.82 296.342 -1061.63 289.757C-1067.62 279.544 -1078.17 274.134 -1093.26 273.527C-1084.23 257.929 -1071.85 246.087 -1056.12 238C-1051.22 235.52 -1047.85 236.8 -1046.01 241.842C-1045.09 244.032 -1043.7 245.976 -1041.84 247.676C-1038.63 250.531 -1034.91 251.328 -1030.66 250.068C-1012.93 244.849 -997.751 236.092 -985.141 223.796C-980.789 219.573 -981.587 218.158 -987.537 219.55L-996.84 221.727C-1006.46 223.978 -1009.11 220.658 -1004.78 211.768L-996.528 194.818C-994.088 189.841 -990.19 186.526 -984.836 184.873L-955.236 176.144C-947.126 173.713 -945.815 169.334 -951.301 163.007C-956.229 157.351 -962.648 153.312 -970.557 150.891C-977.023 148.933 -979.136 144.754 -976.895 138.355C-975.408 133.868 -971.442 129.135 -964.997 124.156C-960.858 120.792 -957.107 117.027 -953.806 112.926C-929.396 81.4469 -899.954 59.2042 -865.481 46.1981C-839.631 36.2779 -815.851 23.5042 -794.141 7.87691C-757.696 -18.6744 -716.676 -25.6691 -680.127 -46.6374C-652.103 -62.6737 -636.68 -71.2224 -633.858 -72.2834C-585.732 -91.4211 -535.911 -103.88 -484.392 -109.659C-477.915 -110.507 -471.637 -109.639 -465.559 -107.056C-422.453 -88.3037 -382.919 -79.3966 -346.956 -80.3345C-289.198 -81.6993 -229.469 -96.6094 -167.77 -125.065C-96.583 -228.236 -43.8591 -317.876 85.5912 -314.12C118.64 -313.241 137.15 -292.339 153.218 -266.459C159.808 -255.985 166.381 -249.579 172.936 -247.241C182.593 -243.626 192.991 -243.122 204.13 -245.728C209.067 -246.883 210.836 -245.027 209.438 -240.161C208.743 -237.996 207.17 -236.159 204.719 -234.651C128.715 -190.299 59.1582 -137.508 -3.95195 -76.2795C-18.8649 -61.8422 -33.7268 -43.4781 -48.5379 -21.1875C-70.9 12.4827 -96.526 39.9071 -111.593 79.0799C-117.276 94.1614 -123.93 108.803 -131.555 123.003C-134.666 128.538 -139.434 130.988 -145.857 130.355L-203.52 124.421Z" fill="#E6C4CB"/>
<path d="M1643.31 192.965C1623.85 180.562 1603.39 170.13 1581.92 161.67C1558.85 152.649 1539.85 141.672 1524.95 128.738C1483.58 92.8897 1432.11 61.2083 1370.53 33.694C1301.19 2.65656 1233.44 -33.2284 1167.3 -73.9611C1128.31 -97.9487 1084.23 -116.606 1035.05 -129.931C960.875 -150.226 885.368 -176.217 808.528 -207.904C793.201 -214.064 777.897 -217.559 762.616 -218.39C746.107 -219.333 730.075 -220.522 714.519 -221.955C655.348 -227.202 587.706 -236.408 511.594 -249.574C461.304 -258.234 407.154 -243.161 358.288 -230.325C356.531 -229.645 354.577 -229.68 352.845 -230.421C351.113 -231.162 349.739 -232.552 349.018 -234.292C348.297 -236.033 348.285 -237.987 348.985 -239.736C349.686 -241.485 351.043 -242.891 352.766 -243.653C432.146 -291.265 541.968 -296.935 634.435 -299.745C695.796 -301.686 754.427 -295.045 810.326 -279.82C896.153 -256.511 974.321 -224 1044.83 -182.286C1272.73 -47.628 1429.9 43.5007 1516.34 91.0994C1550.08 109.773 1595.67 138.291 1653.11 176.653C1654.25 177.422 1655.19 178.469 1655.82 179.691C1656.45 180.914 1656.75 182.272 1656.71 183.632C1656.66 184.993 1656.27 186.31 1655.56 187.457C1654.85 188.603 1653.86 189.539 1652.67 190.174L1647.57 193.171C1646.14 193.906 1644.72 193.838 1643.31 192.965Z" fill="#EFEFEF"/>
<path d="M518.968 -211.446C483.406 -191.109 445.59 -174.985 405.52 -163.072C363.041 -150.329 334.208 -129.764 298.306 -107.745C296.078 -106.423 294.461 -104.776 293.454 -102.805C292.059 -100.209 290.916 -97.672 290.028 -95.1943C287.571 -89.1456 283.591 -84.476 278.086 -81.1852C238.723 -57.6894 203.795 -26.0857 173.301 13.6262C161.498 28.8043 147.071 44.4633 130.019 60.6025C111.656 77.9833 97.5309 93.5047 87.6435 107.167C71.4104 129.656 55.9583 152.631 41.2872 176.09C35.6337 185.023 33.0548 193.971 33.5499 202.934C34.7039 226.696 39.0689 253.912 63.913 262.519C76.8373 266.971 89.7139 265.227 102.542 257.285C123.695 244.125 128.774 217.903 134.565 194.719C136.143 188.342 139.44 183.031 144.455 178.787L199.503 132.462C204.548 128.344 210.22 125.482 216.52 123.874C222.566 122.326 226.934 120.169 229.625 117.403C248.408 97.254 266.593 73.9736 284.178 47.5626C300.764 22.587 319.878 0.424624 341.519 -18.9246C366.133 -40.9723 390.068 -65.0642 413.326 -91.2002C417.112 -95.5575 421.687 -98.8308 427.049 -101.02C461.442 -114.942 487.803 -137.799 506.132 -169.591C508.593 -173.905 512.337 -176.45 517.362 -177.225C559.457 -183.336 601.34 -180.653 643.011 -169.175C655.163 -165.743 664.739 -165.047 671.738 -167.085C684.092 -170.777 691.293 -178.803 693.34 -191.165C752.259 -192.134 804.848 -182.209 851.108 -161.391C833.604 -152.889 817.03 -152.683 801.386 -160.771C798.412 -162.299 795.133 -162.987 791.909 -162.759L698.614 -158.353C690.947 -158.028 685.155 -154.537 681.239 -147.879C673.832 -135.599 661.838 -125.516 645.258 -117.631C607.809 -99.6565 570.169 -81.6372 532.34 -63.5735C520.936 -58.1016 510.676 -50.0268 501.559 -39.3489C489.199 -24.8414 479.615 -15.5896 472.807 -11.5933C445.893 4.04988 422.476 24.082 402.555 48.5027C400.371 51.1499 399.284 54.2079 399.295 57.6767C399.419 59.9174 399.464 62.1097 399.432 64.2535C399.515 69.174 397.564 73.1016 393.578 76.0369C384.264 83.0225 381.752 94.8254 386.041 111.445C393.22 139.272 403.392 163.06 416.558 182.809C447.964 229.733 500.066 218.744 514.557 292.656C515.784 299.045 513.738 303.996 508.419 307.51C503.703 310.75 500.804 313.765 499.721 316.555C498.378 319.781 497.729 323.254 497.813 326.752C497.897 330.249 498.713 333.694 500.209 336.868C501.705 340.041 503.848 342.873 506.502 345.183C509.156 347.493 512.263 349.23 515.623 350.284C570.66 367.246 630.08 388.389 687.979 385.056C708.019 383.971 728.047 383.691 748.062 384.214C763.478 384.479 776.667 388.069 787.631 394.983C798.624 402.023 808.388 410.086 816.922 419.17C819.374 421.858 820.961 425.23 821.473 428.837C821.984 432.444 821.396 436.115 819.785 439.362C818.175 442.609 815.619 445.278 812.458 447.013C809.297 448.749 805.681 449.468 802.091 449.076C777.879 446.597 754.101 442.548 730.757 436.929C710.426 432.206 686.065 430.229 657.674 430.998C625.56 431.836 593.242 423.243 560.72 405.219C556.28 402.787 551.709 402.654 547.01 404.822C544.82 405.735 542.909 406.983 541.277 408.567C537.245 412.447 536.533 416.82 539.139 421.684C544.746 432.521 550.479 443.329 556.338 454.108C559.406 459.799 564.012 463.794 570.158 466.095C587.725 472.131 605.721 478.001 624.144 483.703C640.373 488.584 659.104 489.608 680.337 486.776C704.035 483.635 728.823 483.442 754.702 486.199C755.803 486.342 756.725 486.86 757.469 487.754C758.866 489.163 760.264 490.572 761.662 491.98C764.242 494.447 767.296 495.802 770.824 496.045C809.417 498.363 839.748 512.161 861.817 537.437C801.932 585.628 740.056 623.604 676.191 651.364L611.685 635.016C607.131 633.812 602.575 633.743 598.019 634.809C595.993 635.283 593.905 635.772 591.753 636.275C587.04 637.245 582.153 637.186 577.092 636.101C537.115 627.297 497.237 617.202 457.456 605.816C451.303 604.051 446.945 600.265 444.385 594.455C438.929 581.98 431.271 571.222 421.412 562.18C416.624 557.693 413.474 552.222 411.964 545.766C406.767 522.416 416.357 505.486 440.734 494.976C450.319 490.864 450.414 486.703 441.017 482.493L432.514 478.675C424.747 475.152 416.961 474.971 409.156 478.132C361.813 496.62 311.188 541.309 267.889 486.353C263.741 481.182 258.465 477.744 252.058 476.039L106.135 438.687C96.2046 403.093 76.434 375.944 46.8235 357.238C41.2003 353.747 37.0452 349.112 34.3577 343.332C18.1871 309.599 11.0465 275.089 12.9364 239.8L30.8333 160.513C32.2853 154.165 35.3328 148.645 39.9761 143.954L79.0713 104.766C81.7489 102.106 83.6308 98.7509 84.5053 95.0789C85.3798 91.407 85.2119 87.5638 84.021 83.982C77.7847 64.7469 83.0823 49.1551 99.9126 37.2064C106.067 32.6956 110.804 26.9811 114.125 20.0625C125.268 -3.63957 139.922 -24.8919 158.086 -43.6947C159.586 -45.1709 160.461 -47.1683 160.528 -49.2723C160.595 -51.3762 159.85 -53.4252 158.446 -54.994L154.823 -59.3532C153.395 -60.8884 151.836 -60.9907 150.144 -59.6603C116.303 -34.2521 83.6614 -6.85501 52.2195 22.5312C51.3454 23.3753 50.2605 23.9624 49.0763 24.232C47.8922 24.5015 46.6517 24.4438 45.4821 24.0648C44.3125 23.6859 43.256 22.9995 42.4217 22.0759C41.5873 21.1523 41.005 20.025 40.7347 18.8101C37.4203 2.36263 40.1547 -8.49074 48.9374 -13.75C58.3478 -20.8918 65.2199 -28.0405 69.5536 -35.196C144.319 -76.8553 218.171 -120.704 291.111 -166.743C333.201 -193.413 368.966 -209.459 398.405 -214.879C439.385 -222.331 479.573 -221.187 518.968 -211.446Z" fill="#5AA9E0"/>
<path d="M519.011 -211.457L693.383 -191.176C691.335 -178.814 684.135 -170.787 671.781 -167.096C664.781 -165.057 655.205 -165.754 643.054 -169.186C601.383 -180.664 559.5 -183.347 517.405 -177.236C512.379 -176.461 508.636 -173.916 506.174 -169.602C487.845 -137.81 461.484 -114.953 427.092 -101.031C421.729 -98.8417 417.155 -95.5684 413.368 -91.2111C390.111 -65.0751 366.176 -40.9832 341.561 -18.9355C319.92 0.413722 300.807 22.5761 284.221 47.5517C266.635 73.9627 248.451 97.2431 229.667 117.392C226.977 120.158 222.609 122.315 216.562 123.863C210.263 125.471 204.591 128.333 199.546 132.451L144.497 178.776C139.482 183.02 136.186 188.331 134.607 194.708C128.817 217.892 123.738 244.114 102.585 257.274C89.7565 265.216 76.8799 266.96 63.9556 262.508C39.1115 253.902 34.7465 226.685 33.5925 202.923C33.0974 193.96 35.6763 185.012 41.3298 176.079C56.0009 152.62 71.453 129.646 87.6861 107.156C97.5735 93.4938 111.699 77.9724 130.062 60.5916C147.113 44.4524 161.541 28.7934 173.343 13.6153C203.838 -26.0966 238.766 -57.7003 278.128 -81.1961C283.633 -84.4868 287.614 -89.1565 290.07 -95.2052C290.959 -97.6829 292.101 -100.22 293.497 -102.816C294.504 -104.787 296.121 -106.434 298.348 -107.756C334.251 -129.775 363.084 -150.34 405.563 -163.083C445.633 -174.995 483.449 -191.12 519.011 -211.457Z" fill="#78B7E3"/>
<path d="M76.7211 -85.1389C72.8937 -78.1018 78.2583 -76.2861 92.8151 -79.6922C75.8099 -70.7733 61.2677 -61.029 49.1881 -50.4589C35.3499 -38.2758 37.6451 -31.6032 56.0745 -30.4414C56.4839 -30.4037 60.9858 -31.9911 69.58 -35.2036C65.2462 -28.0481 58.3742 -20.8994 48.9638 -13.7576L2.11778 0.00726616C16.3834 -44.5856 41.2512 -72.9677 76.7211 -85.1389Z" fill="#152B5A"/>
<path d="M12.998 239.785L6.79847 215C6.51806 213.679 5.82866 212.479 4.828 211.571C3.82734 210.662 2.56631 210.093 1.22353 209.941C-0.119259 209.79 -1.47542 210.066 -2.65293 210.728C-3.83044 211.391 -4.76954 212.408 -5.33682 213.635C-20.6493 244.053 -37.7337 271.749 -56.5901 296.722C-74.1564 319.79 -78.7623 354.313 -70.408 400.288C-118.762 405.327 -141.94 388.721 -139.942 350.47C-135.666 270.03 -114.262 187.185 -75.7314 101.935C-54.8836 55.8018 -28.9222 21.8236 2.15295 -0.00016329L48.999 -13.765C40.2162 -8.50576 37.4818 2.34761 40.7962 18.795C41.0666 20.01 41.6488 21.1373 42.4832 22.0609C43.3176 22.9845 44.374 23.6709 45.5436 24.0498C46.7132 24.4288 47.9537 24.4865 49.1379 24.2169C50.322 23.9474 51.407 23.3603 52.281 22.5162C83.7229 -6.87003 116.365 -34.2671 150.206 -59.6753C151.897 -61.0057 153.457 -60.9035 154.884 -59.3683L158.508 -55.009C159.911 -53.4402 160.657 -51.3912 160.59 -49.2873C160.523 -47.1834 159.648 -45.1859 158.147 -43.7097C139.983 -24.907 125.33 -3.65458 114.187 20.0475C110.865 26.966 106.128 32.6806 99.9742 37.1914C83.1438 49.1401 77.8462 64.7319 84.0825 83.967C85.2734 87.5488 85.4413 91.392 84.5668 95.0639C83.6923 98.7359 81.8104 102.091 79.1328 104.751L40.0376 143.939C35.3943 148.63 32.3468 154.15 30.8948 160.498L12.998 239.785Z" fill="#6CB4CC"/>
<path d="M851.102 -161.388C881.405 -148.853 911.668 -136.775 941.89 -125.155C951.421 -121.51 982.779 -113.026 1035.96 -99.7028C1071.27 -90.8753 1108.49 -75.6176 1147.61 -53.93C1201.3 -24.17 1255.06 5.30719 1308.89 34.5016C1309.95 35.0537 1339.77 47.2352 1398.35 71.0462C1447.05 90.8923 1478.09 130.29 1516.31 152.39C1559.04 176.97 1603.21 198.545 1648.81 217.114C1649.76 217.486 1650.81 217.489 1651.74 217.123C1652.66 216.757 1653.39 216.05 1653.76 215.155C1654.71 212.931 1656.08 211.674 1657.88 211.386C1661.9 210.848 1662.91 212.345 1660.94 215.879C1654.59 226.977 1645.22 231.439 1632.83 229.265C1558.77 215.752 1487.66 215.101 1419.49 227.314C1367.73 236.621 1303.81 263.86 1227.73 309.032C1103.03 383.203 981.054 459.339 861.812 537.44C839.743 512.163 809.411 498.365 770.818 496.047C767.29 495.805 764.236 494.45 761.656 491.983C760.259 490.574 758.861 489.165 757.463 487.757C756.72 486.862 755.798 486.344 754.696 486.201C728.817 483.445 704.029 483.637 680.332 486.779C659.099 489.611 640.368 488.586 624.139 483.705C605.715 478.003 587.72 472.134 570.153 466.097C564.007 463.797 559.4 459.801 556.333 454.11C550.473 443.332 544.74 432.524 539.134 421.686C536.527 416.822 537.239 412.45 541.271 408.569C542.903 406.986 544.815 405.737 547.004 404.825C551.704 402.657 556.274 402.789 560.715 405.221C593.237 423.246 625.555 431.839 657.668 431C686.06 430.232 710.421 432.209 730.751 436.931C754.095 442.55 777.874 446.599 802.085 449.078C805.675 449.471 809.291 448.751 812.452 447.016C815.614 445.28 818.169 442.612 819.78 439.364C821.39 436.117 821.979 432.446 821.467 428.839C820.956 425.232 819.369 421.86 816.917 419.173C808.383 410.088 798.618 402.026 787.625 394.985C776.662 388.071 763.473 384.482 748.057 384.217C728.041 383.693 708.013 383.974 687.973 385.058C630.075 388.392 570.655 367.248 515.618 350.286C512.257 349.232 509.151 347.495 506.497 345.185C503.843 342.875 501.7 340.043 500.203 336.87C498.707 333.697 497.891 330.251 497.807 326.754C497.723 323.257 498.373 319.784 499.715 316.557C500.798 313.767 503.698 310.752 508.414 307.513C513.733 303.998 515.779 299.047 514.551 292.659C500.061 218.746 447.959 229.735 416.552 182.812C403.386 163.062 393.214 139.274 386.036 111.448C381.746 94.8277 384.259 83.0248 393.572 76.0392C397.558 73.1039 399.509 69.1762 399.426 64.2558C399.459 62.112 399.413 59.9197 399.289 57.679C399.279 54.2102 400.365 51.1522 402.55 48.5049C422.47 24.0843 445.887 4.05217 472.801 -11.591C479.61 -15.5873 489.194 -24.8391 501.554 -39.3466C510.671 -50.0245 520.931 -58.0993 532.334 -63.5712C570.164 -81.6349 607.803 -99.6543 645.253 -117.629C661.832 -125.514 673.826 -135.596 681.233 -147.877C685.149 -154.534 690.941 -158.026 698.609 -158.351L791.903 -162.757C795.128 -162.985 798.406 -162.297 801.381 -160.769C817.025 -152.681 833.599 -152.887 851.102 -161.388ZM891.777 145.115C890.997 148.133 889.476 150.907 887.352 153.188C885.227 155.469 882.567 157.183 879.613 158.175L811.44 180.935C808.928 181.742 806.785 183.318 805.292 185.455C803.8 187.592 803.028 190.191 803.079 192.91C803.13 195.629 804.002 198.34 805.578 200.687C807.155 203.034 809.362 204.907 811.911 206.059C814.731 207.268 818.222 209.922 822.386 214.022C824.839 216.518 826.945 220.098 828.704 224.76C835.767 243.534 848.912 253.209 868.138 253.783C930.992 255.365 983.648 258.732 1026.11 263.884C1054.31 267.432 1080.8 266.509 1105.57 261.113C1132.01 255.459 1158.57 250.248 1185.22 245.48C1236.16 236.365 1268.13 214.665 1325.3 225.321C1348.34 229.674 1364.08 221.588 1372.49 201.061C1372.96 199.968 1373.16 198.774 1373.06 197.587C1372.96 196.4 1372.56 195.257 1371.91 194.259C1371.26 193.26 1370.38 192.439 1369.33 191.867C1368.29 191.295 1367.12 190.991 1365.93 190.981C1339.6 190.867 1317.09 189.123 1298.41 185.75C1272.32 180.909 1249.46 178.513 1229.84 178.563C1168.16 178.576 1098.38 185.892 1039.28 165.274C1033.29 163.07 1028.58 159.168 1025.13 153.566C1014.15 135.173 999.289 123.297 980.545 117.936C963.118 113.069 930.966 114.317 884.091 121.68C883.952 121.736 883.832 121.83 883.745 121.951C883.658 122.073 883.608 122.217 883.601 122.367C883.593 122.516 883.629 122.665 883.704 122.794C883.778 122.924 883.889 123.029 884.022 123.098C892.573 124.835 895.158 132.175 891.777 145.115Z" fill="#439DDB"/>
<path d="M1603.11 -247.032C1613.97 -162.391 1636.45 -81.7352 1670.54 -5.06657C1676.27 8.01183 1691.83 32.5433 1717.2 68.5282C1735.17 93.9636 1747.63 120.956 1754.57 149.504C1744.05 161.579 1735.36 158.405 1728.51 139.98C1727 135.744 1724.38 131.942 1720.92 128.939L1676.29 90.5186C1673.49 88.1471 1669.94 86.8518 1666.27 86.8657C1662.6 86.8796 1659.06 88.2017 1656.28 90.5943L1651 95.4335C1649.2 96.9948 1648.08 99.1975 1647.86 101.593C1647.64 103.989 1648.34 106.397 1649.81 108.328L1703.46 176.684C1646.58 134.452 1589.1 93.6296 1531.01 54.217C1457.18 4.00257 1370.86 -37.0825 1289.87 -82.8172C1285.08 -85.5699 1250.9 -102.138 1187.32 -132.52C1153.16 -148.962 1121.06 -169.754 1091.01 -194.9C1089 -199.502 1088.03 -203.948 1088.09 -208.235C1088.09 -212.24 1089.63 -215.07 1092.71 -216.727C1095.7 -218.226 1099.42 -218.896 1103.86 -218.734L1302.72 -116.064C1305.22 -114.814 1307.43 -113.064 1309.21 -110.927C1310.98 -108.79 1312.29 -106.314 1313.03 -103.657C1316.11 -92.7632 1323.42 -88.3324 1334.96 -90.3651C1342.93 -91.6951 1350.67 -90.837 1358.2 -87.7906C1400.95 -70.5572 1441.58 -50.9595 1480.1 -28.9971C1512.3 -10.6305 1521.01 -18.4765 1506.23 -52.5352C1473.62 -127.416 1432.21 -207.979 1381.99 -294.225C1370.89 -313.124 1375.11 -317.648 1394.64 -307.798C1405.4 -302.306 1417.08 -292.023 1429.69 -276.948C1433.93 -271.934 1439.23 -268.7 1445.58 -267.248C1474.15 -260.982 1498.78 -263.542 1519.48 -274.928C1526.57 -278.802 1534.85 -279.923 1542.74 -278.077C1550.63 -276.231 1557.58 -271.547 1562.28 -264.915C1576.88 -244.166 1590.49 -238.205 1603.11 -247.032Z" fill="#0F539C"/>
<path d="M-205.124 147.435L-155.281 148.189C-148.314 148.294 -145.717 151.692 -147.489 158.382L-159.417 205.832C-203.936 209.573 -247.621 213.453 -290.472 217.471C-370.617 225.009 -445.698 244.78 -524.071 263.318C-543.817 267.938 -566.915 276.213 -593.362 288.142C-622.365 301.136 -665.999 308.943 -688.647 330.264C-697.187 338.27 -705.379 344.058 -713.222 347.629C-764.94 370.812 -816.217 395.026 -867.052 420.272C-872.486 422.964 -876.75 427.598 -879.027 433.287C-881.319 438.897 -884.95 443.351 -889.919 446.65C-910.854 461.028 -929.001 475.621 -944.361 490.43C-947.626 493.597 -949.345 496.803 -949.521 500.048C-949.855 505.467 -952.205 509.688 -956.571 512.713L-1049.77 576.576C-1053.15 578.942 -1055.86 582.127 -1057.62 585.823C-1063.49 598.41 -1072.47 609.658 -1084.57 619.566C-1112.7 642.569 -1139.99 661.77 -1166.42 677.168C-1171.7 680.273 -1174.78 684.799 -1175.66 690.745C-1176.9 699.713 -1181.43 705.447 -1189.26 707.945C-1195.95 710.178 -1201.09 714.184 -1204.67 719.963C-1215.85 737.799 -1224.08 756.011 -1229.34 774.599C-1239.84 811.902 -1258.23 839.436 -1280.64 870.315C-1281.03 870.94 -1290.26 880.575 -1308.32 899.222C-1317.78 909.043 -1324.66 921.001 -1328.97 935.094C-1349.67 1002.96 -1379.42 1068.39 -1418.22 1131.41L-1448.58 1087.25C-1448.69 1061.64 -1441.22 1036.79 -1426.16 1012.71C-1407.78 983.44 -1395.95 961.246 -1390.67 946.127C-1379.1 912.578 -1369.36 881.46 -1349.09 851.684C-1300.16 779.488 -1251.46 710.284 -1203 644.072L-1065.02 546.499C-1059.76 542.732 -1055.56 538.144 -1052.42 532.736C-1043.3 517.518 -1030.24 505.985 -1013.25 498.138C-1011.44 497.314 -1010.95 495.997 -1011.77 494.187C-1012.63 492.251 -1014.01 491.773 -1015.91 492.753C-1026.87 497.853 -1036.72 504.563 -1045.45 512.881C-1050.06 517.163 -1055.44 519.825 -1061.61 520.867C-1070.11 522.189 -1075.04 527.081 -1076.4 535.543C-1082.01 541.796 -1088.67 546.157 -1096.37 548.626C-1103.56 550.977 -1106.63 548.424 -1105.57 540.966C-1104.68 534.484 -1102.43 529.552 -1098.82 526.169C-1052.22 482.823 -1046.69 466.777 -1082.24 478.032C-1063.14 462.082 -1044.69 444.813 -1026.87 426.225C-1007.49 405.801 -988.846 388.756 -970.949 375.089C-945.809 355.856 -921.134 336.064 -896.924 315.713C-875.27 297.562 -855.351 285.691 -837.166 280.101C-812.264 272.406 -789.124 262.318 -767.745 249.839C-734.402 230.289 -700.212 214.078 -665.173 201.206C-584.631 171.68 -496.597 156.489 -401.07 155.633C-363.099 155.293 -330.489 154.004 -303.242 151.768C-270.471 149.173 -237.765 147.729 -205.124 147.435Z" fill="#2FA3C9"/>
<path d="M13.0221 239.784C11.1322 275.073 18.2728 309.583 34.4435 343.316C37.1309 349.096 41.2861 353.731 46.9092 357.222C76.5197 375.928 96.2903 403.077 106.221 438.671L39.7417 446.415C19.5486 438.857 -1.14228 427.744 -22.3314 413.076C-31.7248 406.595 -47.7423 402.332 -70.3838 400.287C-78.7381 354.311 -74.1322 319.789 -56.5659 296.72C-37.7095 271.748 -20.6251 244.052 -5.31263 213.633C-4.74534 212.407 -3.80625 211.39 -2.62874 210.727C-1.45123 210.064 -0.0950681 209.789 1.24772 209.94C2.59051 210.091 3.85153 210.661 4.85219 211.569C5.85285 212.477 6.54226 213.677 6.82267 214.999L13.0221 239.784Z" fill="#6FBFE5"/>
<path d="M891.795 145.107C895.176 132.167 892.591 124.828 884.04 123.09C883.907 123.022 883.796 122.916 883.721 122.787C883.647 122.657 883.611 122.509 883.618 122.359C883.625 122.21 883.675 122.066 883.762 121.944C883.849 121.822 883.969 121.728 884.108 121.672C930.984 114.309 963.135 113.061 980.562 117.929C999.307 123.289 1014.17 135.166 1025.15 153.558C1028.59 159.16 1033.31 163.063 1039.3 165.266C1098.4 185.884 1168.18 178.568 1229.86 178.555C1249.48 178.505 1272.33 180.901 1298.43 185.742C1317.11 189.115 1339.62 190.859 1365.94 190.973C1367.14 190.983 1368.31 191.287 1369.35 191.859C1370.4 192.431 1371.28 193.253 1371.93 194.251C1372.58 195.249 1372.98 196.392 1373.08 197.579C1373.18 198.766 1372.98 199.96 1372.51 201.053C1364.09 221.58 1348.36 229.666 1325.31 225.313C1268.15 214.657 1236.18 236.357 1185.24 245.472C1158.58 250.24 1132.03 255.451 1105.58 261.105C1080.81 266.501 1054.33 267.425 1026.13 263.876C983.666 258.724 931.009 255.357 868.156 253.776C848.929 253.201 835.784 243.527 828.721 224.752C826.963 220.09 824.857 216.511 822.404 214.014C818.24 209.915 814.749 207.26 811.929 206.051C809.38 204.899 807.172 203.026 805.596 200.679C804.019 198.332 803.148 195.621 803.097 192.902C803.046 190.184 803.818 187.585 805.31 185.447C806.802 183.31 808.945 181.734 811.458 180.928L879.63 158.167C882.585 157.175 885.245 155.461 887.369 153.18C889.494 150.9 891.015 148.125 891.795 145.107Z" fill="#0778D2"/>
<path d="M2061.08 -104.052C2041.24 -74.7108 2015.45 -49.9847 1983.71 -29.8738C1978.39 -26.3595 1974.76 -21.6372 1972.81 -15.707C1969.12 -5.23072 1964.09 4.08977 1957.72 12.2551C1953.83 17.3046 1951.85 23.1084 1951.78 29.6663C1951.26 63.9666 1939.63 92.9904 1916.88 116.738C1902.08 132.217 1894.2 140.47 1893.23 141.496C1870.11 169.337 1846.9 197.129 1823.62 224.873C1812.16 238.637 1801.35 252.916 1791.19 267.709C1780.55 283.283 1769.49 296.486 1758 307.317C1719.87 343.476 1673.17 352.466 1617.92 334.286C1611.49 332.174 1604.44 332.539 1598.13 335.312C1561.69 350.779 1548.41 377.586 1558.27 415.733C1548.33 426.336 1528.75 429.65 1499.51 425.676C1513.17 376.218 1550.21 357.338 1576.1 325.045C1585.61 313.207 1594.91 301.286 1603.98 289.283C1607.97 284.077 1613.03 280.291 1619.15 277.924C1655.75 263.752 1692.03 255.597 1727.98 253.461C1737.71 252.952 1747.14 249.861 1755.31 244.501C1763.48 239.142 1770.11 231.706 1774.51 222.947C1790.93 189.865 1811.95 158.713 1837.55 129.491C1864.73 98.4318 1888.13 69.4599 1907.74 42.575C1949.54 -15.0028 2000.65 -63.8784 2061.08 -104.052Z" fill="#0778D2"/>
</g>
</svg>
